<svg width="66" height="66" viewBox="0 0 66 66" fill="none" xmlns="http://www.w3.org/2000/svg">
<path d="M40.2057 40.4774L34.0946 22.804C33.9877 22.4657 33.7731 22.1717 33.4835 21.9668C33.0891 21.7279 32.6368 21.6016 32.1757 21.6016C31.7146 21.6016 31.2623 21.7279 30.8679 21.9668C30.5783 22.1717 30.3637 22.4657 30.2568 22.804L24.219 40.404C23.944 41.2107 23.9929 41.7729 24.3535 42.109C24.7496 42.4592 25.2678 42.6392 25.7957 42.6101C26.2955 42.6477 26.7911 42.4949 27.1829 42.1824C27.51 41.8696 27.7591 41.4845 27.9101 41.0579L29.2057 37.6968H35.1396L36.539 41.2107C36.6869 41.5901 36.9164 41.9322 37.2113 42.2129C37.3998 42.3656 37.6169 42.4794 37.8498 42.5476C38.0826 42.6157 38.3268 42.637 38.5679 42.6101C39.0974 42.6278 39.6135 42.4419 40.0101 42.0907C40.3768 41.7546 40.4379 41.2229 40.2057 40.4774ZM29.9451 34.3968L32.2124 27.1246L34.4613 34.3968H29.9451ZM46.3229 40.7524C46.3453 41.0073 46.3162 41.2642 46.2375 41.5077C46.1588 41.7513 46.032 41.9765 45.8646 42.1701C45.664 42.3446 45.4299 42.4763 45.1767 42.5572C44.9235 42.6381 44.6564 42.6665 44.3918 42.6407C44.1308 42.6706 43.8664 42.6441 43.6165 42.5629C43.3666 42.4817 43.1371 42.3478 42.9435 42.1701C42.6324 41.7799 42.4797 41.2868 42.5157 40.789V23.4885C42.5157 22.2418 43.139 21.6185 44.3857 21.6185C44.8989 21.5701 45.4125 21.7067 45.834 22.0035C46.0195 22.189 46.1609 22.4138 46.2476 22.6613C46.3344 22.9089 46.3643 23.1728 46.3351 23.4335L46.3229 40.7524Z" fill="#053B6C"/>
<path d="M35.8226 3.66406C28.8276 3.67537 22.1224 6.45914 17.1761 11.4054C12.2299 16.3516 9.44616 23.0568 9.43484 30.0518C9.42747 30.1576 9.42747 30.2638 9.43484 30.3696C7.60151 32.258 3.71484 36.5785 3.71484 39.6157C3.71484 42.9768 6.89262 44.2724 9.15984 44.3457L11.7448 44.9263L12.2337 57.6252C12.2466 58.8819 12.7566 60.0824 13.6521 60.9641C14.5476 61.8459 15.7559 62.3373 17.0126 62.3307H26.6987C26.9553 62.3453 27.2122 62.3074 27.4537 62.2193C27.6951 62.1311 27.916 61.9946 28.1028 61.8181C28.2897 61.6416 28.4385 61.4289 28.5403 61.1928C28.642 60.9568 28.6944 60.7025 28.6944 60.4454C28.6944 60.1884 28.642 59.9341 28.5403 59.6981C28.4385 59.462 28.2897 59.2493 28.1028 59.0728C27.916 58.8963 27.6951 58.7598 27.4537 58.6716C27.2122 58.5835 26.9553 58.5456 26.6987 58.5602H17.0126C16.7587 58.5586 16.5155 58.457 16.336 58.2774C16.1564 58.0978 16.0548 57.8547 16.0532 57.6007L15.4421 41.8891L9.83207 40.6668L9.63651 40.6241H9.42262C8.98205 40.5946 8.54892 40.4956 8.13929 40.3307C7.52818 40.0863 7.52818 39.8602 7.52818 39.6463C7.52818 38.5524 9.92984 35.2524 12.6554 32.5757C12.9034 32.3305 13.0786 32.0214 13.1617 31.6827C13.2447 31.344 13.2324 30.9889 13.126 30.6568C13.1875 30.4695 13.2185 30.2735 13.2176 30.0763C13.2176 24.0794 15.5999 18.3282 19.8403 14.0878C24.0807 9.84741 29.8319 7.46517 35.8287 7.46517C41.8256 7.46517 47.5768 9.84741 51.8172 14.0878C56.0576 18.3282 58.4398 24.0794 58.4398 30.0763C58.4398 31.1274 60.3282 31.9646 60.3282 31.9646C60.3282 31.9646 62.2165 31.1274 62.2165 30.0763C62.2133 23.0755 59.432 16.3621 54.4835 11.4101C49.5349 6.45805 42.8234 3.67216 35.8226 3.66406Z" fill="#053B6C"/>
<path d="M55.4767 18.7734C55.4767 18.7734 64.9062 34.7418 50.1967 50.0623C50.1967 50.0623 49.4695 53.3318 53.2523 52.3907C53.2523 52.3907 63.7939 43.719 62.0767 27.0968L55.4767 18.7734Z" fill="#053B6C"/>
</svg>
