<svg width="145" height="144" viewBox="0 0 145 144" fill="none" xmlns="http://www.w3.org/2000/svg">
<path d="M53.8197 108.082C45.4661 108.082 38.6777 101.285 38.6777 92.9404C38.6777 88.4609 40.6062 84.3187 43.996 81.4304V43.7353C43.996 38.3219 48.4063 33.9116 53.8197 33.9116C59.2332 33.9116 63.6435 38.3219 63.6435 43.7353V81.4304C67.042 84.3187 68.9618 88.4609 68.9618 92.9404C68.9704 101.285 62.1734 108.082 53.8197 108.082ZM53.8197 37.8376C50.5682 37.8376 47.9221 40.4838 47.9221 43.7353V83.3588L47.1351 83.9468C44.2555 86.0915 42.6038 89.3689 42.6038 92.9317C42.6038 99.1148 47.6367 104.148 53.8197 104.148C60.0028 104.148 65.0357 99.1148 65.0357 92.9317C65.0357 89.3689 63.384 86.0915 60.5044 83.9468L59.7174 83.3588V43.7353C59.7174 40.4838 57.0713 37.8376 53.8197 37.8376Z" fill="black"/>
<path d="M53.9889 88.5147C52.9079 88.5147 52.0259 87.6327 52.0259 86.5517V50.2057C52.0259 49.1247 52.9079 48.2427 53.9889 48.2427C55.0698 48.2427 55.9519 49.1247 55.9519 50.2057V86.5604C55.9519 87.6413 55.0785 88.5147 53.9889 88.5147Z" fill="black"/>
<path d="M103.673 67.3917H102.36L103.009 66.268C103.077 66.1515 103.12 66.0229 103.138 65.8895C103.155 65.756 103.147 65.6205 103.112 65.4905C103.077 65.3605 103.017 65.2387 102.934 65.132C102.852 65.0254 102.75 64.936 102.633 64.8689C102.517 64.801 102.388 64.7569 102.255 64.739C102.121 64.7211 101.985 64.7298 101.855 64.7646C101.725 64.7995 101.603 64.8597 101.496 64.942C101.39 65.0242 101.3 65.1267 101.233 65.2436L99.9938 67.3917H96.229L98.4176 63.6054C98.4288 63.5865 98.4278 63.5645 98.4375 63.5455C98.4667 63.4856 98.4815 63.4237 98.4995 63.3587C98.5174 63.2896 98.5363 63.223 98.5404 63.1544C98.5414 63.1334 98.5522 63.1165 98.5522 63.0955C98.5522 63.0515 98.5322 63.0136 98.5271 62.9706C98.5207 62.901 98.5066 62.8324 98.4851 62.7659C98.463 62.7044 98.4345 62.6454 98.4001 62.5897C98.3691 62.5336 98.333 62.4805 98.2921 62.431C98.2456 62.3796 98.1934 62.3336 98.1365 62.2938C98.1017 62.2667 98.0786 62.2299 98.0392 62.2078C98.0203 62.1971 97.9993 62.1976 97.9793 62.1879C97.9205 62.1582 97.8575 62.1428 97.7925 62.1249C97.7223 62.106 97.6553 62.087 97.5846 62.0829C97.5657 62.0819 97.5488 62.0717 97.5288 62.0717H93.1548L95.0372 58.8111L97.5201 58.8132C97.7921 58.8125 98.0528 58.7041 98.2452 58.5118C98.4375 58.3194 98.5459 58.0587 98.5466 57.7867C98.5464 57.6521 98.5197 57.5189 98.468 57.3946C98.4163 57.2704 98.3406 57.1575 98.2453 57.0625C98.15 56.9674 98.0369 56.8921 97.9125 56.8408C97.788 56.7895 97.6547 56.7632 97.5201 56.7634L96.2208 56.7623L96.8782 55.6243C96.9454 55.5078 96.9891 55.3792 97.0066 55.2459C97.0242 55.1125 97.0153 54.977 96.9805 54.8471C96.9458 54.7172 96.8857 54.5954 96.8038 54.4887C96.722 54.382 96.6199 54.2924 96.5034 54.2252C96.3869 54.1579 96.2584 54.1142 96.125 54.0967C95.9917 54.0791 95.8562 54.088 95.7262 54.1228C95.5963 54.1576 95.4745 54.2176 95.3678 54.2995C95.2611 54.3813 95.1715 54.4834 95.1043 54.5999L94.4475 55.7374L93.7993 54.6142C93.7322 54.4975 93.6427 54.3952 93.5359 54.3131C93.4291 54.231 93.3072 54.1708 93.1772 54.136C93.0471 54.1011 92.9114 54.0923 92.7779 54.1099C92.6444 54.1276 92.5157 54.1715 92.3992 54.239C92.2822 54.306 92.1797 54.3954 92.0975 54.5022C92.0152 54.609 91.9549 54.731 91.9201 54.8612C91.8852 54.9914 91.8764 55.1272 91.8942 55.2608C91.9121 55.3944 91.9561 55.5232 92.0239 55.6397L93.2654 57.7867L91.383 61.0473L89.1975 57.2584C89.1868 57.2395 89.1673 57.2282 89.1555 57.2103C89.1182 57.1565 89.0721 57.1125 89.025 57.0644C88.9738 57.0132 88.9252 56.9646 88.8663 56.9256C88.8494 56.9149 88.8402 56.8965 88.8223 56.8867C88.7844 56.8647 88.7424 56.8627 88.7025 56.8458C88.6389 56.8167 88.5725 56.7943 88.5043 56.7787C88.4382 56.7675 88.3712 56.7633 88.3042 56.7659C88.2422 56.7659 88.1823 56.7669 88.1204 56.7787C88.0472 56.7925 87.9822 56.8187 87.9146 56.8478C87.8767 56.8637 87.8358 56.8657 87.7984 56.8867C87.7805 56.897 87.7702 56.9149 87.7544 56.9256C87.6955 56.9635 87.6484 57.0127 87.5982 57.0639C87.5491 57.113 87.5015 57.1591 87.4636 57.2159C87.4528 57.2328 87.4334 57.243 87.4236 57.261L85.2371 61.0483L83.3547 57.7888L84.5972 55.6397C84.7329 55.4041 84.7696 55.1243 84.6992 54.8617C84.6289 54.5991 84.4572 54.3752 84.222 54.239C84.1054 54.1717 83.9767 54.1281 83.8433 54.1107C83.7099 54.0932 83.5744 54.1022 83.4444 54.1371C83.3145 54.1721 83.1927 54.2323 83.086 54.3143C82.9794 54.3964 82.8899 54.4986 82.8228 54.6153L82.1727 55.7405L81.5148 54.6014C81.375 54.3744 81.1521 54.2108 80.8935 54.1454C80.635 54.0801 80.3611 54.1182 80.1302 54.2516C79.8993 54.385 79.7294 54.6032 79.6569 54.8598C79.5843 55.1164 79.6146 55.3912 79.7415 55.6258L80.3988 56.7639H79.1015C78.9669 56.7635 78.8335 56.7898 78.709 56.8411C78.5845 56.8925 78.4713 56.9679 78.3761 57.0631C78.2808 57.1583 78.2053 57.2713 78.1538 57.3958C78.1023 57.5202 78.0759 57.6536 78.0761 57.7883C78.0759 57.923 78.1023 58.0564 78.1538 58.1809C78.2052 58.3054 78.2808 58.4185 78.376 58.5138C78.4713 58.6091 78.5844 58.6846 78.7089 58.736C78.8334 58.7875 78.9668 58.8139 79.1015 58.8137L81.5824 58.8127L83.4648 62.0732L79.0908 62.0712C79.0688 62.0712 79.0509 62.0824 79.0299 62.0829C78.9628 62.088 78.8998 62.106 78.8338 62.1239C78.7657 62.1418 78.6997 62.1577 78.6387 62.1889C78.6198 62.1991 78.5988 62.1981 78.5809 62.2089C78.542 62.2309 78.519 62.2677 78.4836 62.2949C78.4273 62.3369 78.3741 62.3778 78.328 62.431C78.283 62.4822 78.2502 62.538 78.2169 62.5959C78.1862 62.6507 78.156 62.7039 78.135 62.7638C78.1134 62.8317 78.0993 62.9017 78.093 62.9727C78.0879 63.0147 78.0679 63.0515 78.0679 63.0955C78.0679 63.1165 78.0792 63.1345 78.0797 63.1565C78.0838 63.2225 78.1017 63.286 78.1196 63.352C78.1376 63.4222 78.1555 63.4897 78.1877 63.5532C78.1969 63.5711 78.1959 63.5901 78.2056 63.6075L80.3911 67.3938H76.6263L75.3859 65.2447C75.3197 65.1261 75.2307 65.0219 75.1239 64.9381C75.0171 64.8543 74.8947 64.7925 74.7638 64.7564C74.633 64.7204 74.4962 64.7107 74.3616 64.7279C74.2269 64.7452 74.097 64.7891 73.9795 64.857C73.8619 64.9249 73.7591 65.0155 73.6769 65.1236C73.5947 65.2316 73.5348 65.3549 73.5007 65.4863C73.4666 65.6177 73.459 65.7546 73.4782 65.889C73.4975 66.0234 73.5434 66.1526 73.613 66.2691L74.2622 67.3938H72.947C72.8125 67.3937 72.6792 67.4202 72.5549 67.4716C72.4306 67.5231 72.3176 67.5985 72.2225 67.6937C72.1274 67.7888 72.0519 67.9018 72.0004 68.0261C71.949 68.1504 71.9225 68.2836 71.9226 68.4182C71.9225 68.5527 71.949 68.686 72.0004 68.8103C72.0519 68.9346 72.1274 69.0476 72.2225 69.1427C72.3176 69.2378 72.4306 69.3133 72.5549 69.3647C72.6792 69.4162 72.8125 69.4426 72.947 69.4426H74.2622L73.613 70.5668C73.5454 70.6832 73.5014 70.8118 73.4836 70.9452C73.4658 71.0786 73.4745 71.2142 73.5092 71.3442C73.5439 71.4743 73.604 71.5962 73.6859 71.703C73.7679 71.8097 73.8701 71.8993 73.9868 71.9664C74.1033 72.0341 74.232 72.078 74.3655 72.0957C74.4991 72.1134 74.6348 72.1046 74.7649 72.0696C74.8951 72.0347 75.017 71.9744 75.1237 71.8922C75.2305 71.81 75.3199 71.7076 75.3869 71.5907L76.6273 69.4426H80.3916L78.2041 73.2289C78.1934 73.2478 78.1944 73.2688 78.1841 73.2878C78.1539 73.3477 78.1391 73.4116 78.1212 73.4777C78.1033 73.5458 78.0843 73.6113 78.0802 73.6804C78.0792 73.7014 78.0684 73.7183 78.0684 73.7393C78.0684 73.7833 78.0884 73.8202 78.0935 73.8632C78.1022 73.9343 78.1115 74.0035 78.1355 74.071C78.1575 74.134 78.1888 74.1893 78.2215 74.2451C78.2533 74.3009 78.2845 74.3541 78.3275 74.4033C78.3746 74.4581 78.4294 74.5011 78.4888 74.5451C78.5215 74.5702 78.5435 74.605 78.5809 74.626C78.5988 74.6357 78.6188 74.6357 78.6377 74.6449C78.6986 74.6761 78.7647 74.693 78.8318 74.711C78.9009 74.7289 78.9659 74.7468 79.0345 74.7509C79.0544 74.7529 79.0713 74.7627 79.0923 74.7627H83.4643L81.5819 78.0232L79.1 78.0212C78.8282 78.0224 78.5678 78.1309 78.3755 78.3231C78.1833 78.5154 78.0748 78.7757 78.0736 79.0476C78.0742 79.3193 78.1827 79.5797 78.3751 79.7716C78.5676 79.9634 78.8283 80.0711 79.1 80.071L80.3983 80.072L79.741 81.21C79.6691 81.3266 79.6214 81.4565 79.6007 81.5918C79.5799 81.7272 79.5865 81.8654 79.62 81.9982C79.6536 82.1309 79.7134 82.2556 79.796 82.3649C79.8786 82.4742 79.9822 82.5657 80.1008 82.6342C80.2194 82.7027 80.3505 82.7468 80.4864 82.7637C80.6223 82.7807 80.7602 82.7702 80.892 82.7329C81.0238 82.6957 81.1468 82.6323 81.2537 82.5467C81.3605 82.4611 81.4492 82.3549 81.5143 82.2344L82.1711 81.0959L82.8203 82.2211C82.8876 82.3377 82.9772 82.4399 83.084 82.5218C83.1908 82.6038 83.3127 82.6638 83.4427 82.6986C83.5728 82.7333 83.7084 82.7421 83.8419 82.7244C83.9753 82.7067 84.104 82.6628 84.2204 82.5953C84.3374 82.5283 84.4399 82.4389 84.5222 82.3321C84.6044 82.2253 84.6647 82.1033 84.6996 81.9731C84.7344 81.8429 84.7432 81.7071 84.7254 81.5735C84.7076 81.4399 84.6635 81.3112 84.5957 81.1947L83.3542 79.0466L85.2366 75.7871L87.4231 79.5759C87.4339 79.5949 87.4533 79.6051 87.4651 79.623C87.5015 79.6778 87.5486 79.7218 87.5957 79.7699C87.6468 79.8211 87.6945 79.8698 87.7538 79.9087C87.7707 79.9199 87.78 79.9379 87.7979 79.9476C87.8358 79.9696 87.8777 79.9716 87.9166 79.9875C87.9812 80.0171 88.0486 80.0399 88.1178 80.0556C88.1839 80.0674 88.2468 80.0684 88.3129 80.0684C88.3769 80.0684 88.4378 80.0674 88.5018 80.0556C88.5719 80.0418 88.6359 80.0167 88.702 79.9885C88.7419 79.9716 88.7849 79.9696 88.8228 79.9476C88.8417 79.9368 88.852 79.9184 88.8688 79.9066C88.9247 79.8698 88.9697 79.8227 89.0178 79.7746C89.069 79.7244 89.1187 79.6768 89.1571 79.6174C89.1683 79.6005 89.1863 79.5913 89.196 79.5734L91.3814 75.7855L93.2649 79.0471L92.0224 81.1952C91.8871 81.431 91.8506 81.7108 91.9209 81.9734C91.9912 82.2361 92.1626 82.4602 92.3976 82.5969C92.6333 82.7322 92.9129 82.7684 93.1753 82.6977C93.4376 82.627 93.6611 82.455 93.7968 82.2196L94.4464 81.0954L95.1033 82.2339C95.1705 82.3504 95.2601 82.4525 95.3668 82.5343C95.4735 82.6162 95.5953 82.6763 95.7252 82.7111C95.8551 82.7458 95.9906 82.7547 96.124 82.7371C96.2573 82.7196 96.3859 82.6759 96.5024 82.6087C96.6189 82.5414 96.7209 82.4518 96.8028 82.3451C96.8847 82.2384 96.9447 82.1166 96.9795 81.9867C97.0143 81.8568 97.0232 81.7213 97.0056 81.5879C96.9881 81.4546 96.9444 81.326 96.8771 81.2095L96.2198 80.0715L97.5191 80.0725C97.6537 80.0726 97.7871 80.0461 97.9114 79.9946C98.0358 79.943 98.1488 79.8675 98.244 79.7723C98.3391 79.677 98.4145 79.5639 98.4659 79.4395C98.5173 79.3151 98.5437 79.1817 98.5435 79.0471C98.5438 78.9123 98.5174 78.7789 98.466 78.6544C98.4145 78.5298 98.339 78.4167 98.2438 78.3214C98.1485 78.2261 98.0353 78.1506 97.9108 78.0992C97.7863 78.0477 97.6528 78.0214 97.5181 78.0217L95.0362 78.0227L93.1548 74.7621L97.5288 74.7642C97.5508 74.7642 97.5698 74.7534 97.5908 74.7514C97.6578 74.7473 97.7198 74.7284 97.7858 74.7115C97.8529 74.6935 97.9189 74.6777 97.9798 74.6464C97.9988 74.6367 98.0198 74.6372 98.0387 74.6265C98.0776 74.6034 98.1017 74.5666 98.1365 74.5395C98.1918 74.4975 98.245 74.4565 98.2901 74.4043C98.3351 74.3521 98.3679 74.2973 98.4012 74.2395C98.4329 74.1842 98.4631 74.1304 98.4841 74.0705C98.5071 74.0024 98.5174 73.9354 98.5261 73.8647C98.5312 73.8217 98.5512 73.7838 98.5512 73.7388C98.5512 73.7168 98.5404 73.6988 98.5394 73.6779C98.5353 73.6118 98.5164 73.5494 98.4995 73.4843C98.4844 73.4146 98.4616 73.3468 98.4314 73.2821C98.4222 73.2642 98.4232 73.2453 98.4135 73.2284L96.227 69.4421H99.9928L101.232 71.5922C101.369 71.827 101.593 71.9982 101.856 72.0684C102.118 72.1386 102.398 72.1022 102.633 71.967C102.868 71.8306 103.039 71.6067 103.109 71.3443C103.179 71.0819 103.142 70.8025 103.007 70.5673L102.357 69.4421H103.673C103.807 69.4421 103.94 69.4157 104.065 69.3642C104.189 69.3128 104.302 69.2373 104.397 69.1422C104.492 69.047 104.568 68.9341 104.619 68.8098C104.671 68.6855 104.697 68.5522 104.697 68.4177C104.697 68.283 104.671 68.1497 104.62 68.0252C104.568 67.9008 104.493 67.7877 104.398 67.6924C104.303 67.5971 104.19 67.5215 104.065 67.4699C103.941 67.4183 103.808 67.3917 103.673 67.3917ZM95.7524 64.1194L93.8633 67.3917H93.6325L91.8576 64.3181L91.9727 64.1189L95.7524 64.1194ZM90.0832 71.4888H86.5364L84.7621 68.4161L86.5364 65.3435H90.0832L91.8576 68.4161L90.0832 71.4888ZM88.3098 59.8222L90.1989 63.0955L90.0837 63.2952H86.5349L86.4197 63.0945L88.3098 59.8222ZM80.8672 64.1194H84.6474L84.7626 64.3196L82.9877 67.3923H82.7558L80.8672 64.1194ZM80.8672 72.7134L82.7553 69.4405H82.9872L84.7621 72.5132L84.6469 72.7134H80.8672ZM88.3098 77.0101L86.4207 73.7362L86.5359 73.5366H90.0847L90.1999 73.7362L88.3098 77.0101ZM95.7524 72.7134H91.9722L91.857 72.5142L93.6319 69.4405H93.8628L95.7524 72.7134Z" fill="black"/>
</svg>
