<svg width="150" height="150" viewBox="0 0 150 150" fill="none" xmlns="http://www.w3.org/2000/svg">
<g clip-path="url(#clip0_8669_32573)">
<path d="M83.1577 76.8766C81.3404 76.9009 83.4995 77.8095 85.8726 78.1751C86.5306 77.6625 87.1218 77.1474 87.6521 76.6445C86.1767 77.0053 84.6733 77.0138 83.1577 76.8766Z" fill="#A80030"/>
<path d="M92.9113 74.4509C93.9975 72.9579 94.7857 71.3253 95.0642 69.6367C94.8197 70.8393 94.169 71.878 93.5511 72.9761C90.1538 75.1129 93.23 71.7079 93.5486 70.4117C89.8971 75.0072 93.0451 73.1669 92.9113 74.4509Z" fill="#A80030"/>
<path d="M96.5201 65.0896C96.7415 61.8206 95.8766 62.8556 95.5859 64.1008C95.9241 64.2781 96.1929 66.4064 96.5201 65.0896Z" fill="#A80030"/>
<path d="M76.2656 20.418C77.2363 20.5905 78.3626 20.7241 78.2009 20.9561C79.2664 20.7217 79.506 20.5103 76.2656 20.418Z" fill="#A80030"/>
<path d="M78.2019 20.957L77.5195 21.0992L78.1557 21.0409L78.2019 20.957Z" fill="#A80030"/>
<path d="M108.452 66.3338C108.561 69.2687 107.594 70.6949 106.719 73.2167L105.147 73.9979C103.861 76.493 105.274 75.5819 104.354 77.5656C102.344 79.3477 98.2645 83.1402 96.9581 83.4877C96.0033 83.467 97.604 82.3628 97.8132 81.9315C95.1263 83.7731 95.6566 84.6964 91.5465 85.8176L91.4273 85.5491C81.295 90.3111 67.2192 80.8759 67.4041 68.0042C67.297 68.8205 67.0963 68.6164 66.8725 68.9444C66.3495 62.3227 69.9353 55.6718 75.9831 52.9519C81.8983 50.0291 88.8328 51.2269 93.067 55.1737C90.7413 52.1295 86.1081 48.9018 80.6211 49.2007C75.2436 49.2881 70.2114 52.7004 68.5329 56.4067C65.779 58.1378 65.4579 63.0831 64.2586 63.9893C62.642 75.8455 67.2958 80.9658 75.1694 86.9923C76.4052 87.8256 75.5172 87.9532 75.6827 88.5873C73.0675 87.3652 70.6737 85.5188 68.7032 83.2581C69.7492 84.785 70.8768 86.2695 72.3352 87.4357C69.8672 86.6036 66.5721 81.4675 65.6124 81.2586C69.8636 88.8606 82.858 94.5907 89.666 91.7469C86.5156 91.8635 82.515 91.8113 78.9778 90.5054C77.4877 89.7413 75.4698 88.1609 75.8311 87.8657C85.1192 91.329 94.7115 90.4872 102.747 84.055C104.793 82.4636 107.026 79.7583 107.672 79.7219C106.7 81.182 107.839 80.424 107.092 81.7129C109.125 78.4318 106.205 80.3766 109.196 76.0472L110.3 77.5656C109.887 74.8397 113.688 71.5331 113.301 67.2255C114.173 65.9087 114.273 68.6443 113.349 71.674C114.632 68.3127 113.688 67.7721 114.016 64.9976C114.37 65.9305 114.841 66.9206 115.081 67.9058C114.244 64.6562 115.936 62.4356 116.357 60.5467C115.941 60.3644 115.066 61.9825 114.864 58.1463C114.895 56.4796 115.33 57.2728 115.497 56.8622C115.171 56.674 114.311 55.396 113.789 52.9458C114.165 52.3688 114.801 54.4388 115.317 54.5226C114.985 52.5753 114.414 51.0896 114.39 49.5942C112.882 46.448 113.856 50.0146 112.635 48.2434C111.029 43.2458 113.965 47.0833 114.165 44.8141C116.595 48.3309 117.981 53.7852 118.619 56.0435C118.133 53.2896 117.348 50.6207 116.388 48.0393C117.129 48.3515 115.198 42.3748 117.35 46.3326C115.053 37.896 107.525 30.0121 100.597 26.3143C101.443 27.0881 102.512 28.0599 102.13 28.213C98.6829 26.1661 99.2887 26.0045 98.7948 25.1396C95.9911 23.9989 95.8038 25.2332 93.9488 25.142C88.6576 22.3384 87.6383 22.636 82.7692 20.8818L82.9906 21.9168C79.4862 20.7506 78.9072 22.3566 75.1207 21.9193C74.8908 21.7407 76.3346 21.2681 77.5242 21.0969C74.1354 21.5439 74.2936 20.4287 70.9778 21.2195C71.7939 20.6474 72.66 20.2672 73.5309 19.7812C70.7685 19.9489 66.9333 21.3872 68.1169 20.0777C63.6102 22.0869 55.6053 24.9064 51.1133 29.1131L50.9722 28.1705C48.9141 30.6377 41.9966 35.5393 41.4456 38.7378L40.8946 38.8654C39.8254 40.6766 39.1309 42.7283 38.2818 44.5906C36.8818 46.9752 36.2286 45.509 36.4281 45.8831C33.673 51.4614 32.3022 56.148 31.1211 59.9939C31.9628 61.2512 31.1418 67.5644 31.4592 72.6167C30.0775 97.573 48.9968 121.802 69.6775 127.394C72.7086 128.479 77.2153 128.44 81.0493 128.547C76.5268 127.255 75.943 127.863 71.5349 126.329C68.3565 124.833 67.6607 123.126 65.408 121.174L66.2996 122.747C61.8842 121.186 63.7319 120.815 60.1387 119.679L61.0911 118.439C59.6595 118.33 57.2997 116.031 56.655 114.755L55.0884 114.817C53.2079 112.501 52.2044 110.829 52.2786 109.532L51.7726 110.434C51.1996 109.451 44.8502 101.738 48.1441 103.534C47.5323 102.978 46.7186 102.626 45.8367 101.024L46.5069 100.26C44.9244 98.2229 43.5901 95.6123 43.6922 94.7426C44.5376 95.882 45.1239 96.0958 45.7053 96.2914C41.7023 86.374 41.4772 95.746 38.4473 86.1966L39.0871 86.1456C38.5969 85.4034 38.2964 84.6028 37.9023 83.8144L38.1821 81.0387C35.3017 77.7151 37.3769 66.8926 37.7941 60.9585C38.0799 58.5459 40.1988 55.9767 41.8081 51.9473L40.8277 51.7796C42.7033 48.5143 51.5341 38.6613 55.626 39.1666C57.6075 36.6812 55.2319 39.1569 54.8439 38.5325C59.1973 34.0342 60.5657 35.3547 63.5032 34.5444C66.6694 32.6676 60.7846 35.2781 62.2856 33.8289C67.7629 32.4331 66.1658 30.6535 73.3095 29.9453C74.0637 30.3729 71.5616 30.6061 70.934 31.1613C75.4953 28.9309 85.371 29.4399 91.7886 32.3979C99.2291 35.8734 107.594 46.1419 107.925 55.803L108.301 55.9038C108.111 59.7449 108.889 64.1873 107.538 68.2665L108.452 66.3338Z" fill="#A80030"/>
<path d="M63.3231 79.3711L63.0664 80.643C64.2621 82.2647 65.2109 84.0213 66.735 85.2846C65.6378 83.1478 64.8241 82.2647 63.3231 79.3711Z" fill="#A80030"/>
<path d="M66.1404 79.2589C65.5079 78.5592 65.1357 77.7186 64.7148 76.8828C65.1162 78.3539 65.9385 79.6185 66.7012 80.9061L66.1404 79.2589Z" fill="#A80030"/>
<path d="M116.119 68.4062L115.852 69.0768C115.363 72.5486 114.304 75.984 112.684 79.1704C114.474 75.8091 115.628 72.132 116.119 68.4062Z" fill="#A80030"/>
<path d="M76.6277 19.5418C77.8551 19.0935 79.6468 19.2952 80.9531 19C79.2527 19.1421 77.5607 19.2272 75.8906 19.4397L76.6277 19.5418Z" fill="#A80030"/>
<path d="M33.483 42.4531C33.7664 45.0697 31.5125 46.0865 33.9817 44.3591C35.3075 41.378 33.4659 43.5367 33.483 42.4531Z" fill="#A80030"/>
<path d="M30.5788 54.5703C31.1493 52.8247 31.2514 51.7775 31.4692 50.7656C29.8964 52.7749 30.7442 53.2037 30.5788 54.5703Z" fill="#A80030"/>
<path d="M90.4086 154.484L85.7402 159.144L81.0742 154.484L85.7402 149.824L90.4086 154.484Z" fill="#A80030"/>
</g>
<defs>
<clipPath id="clip0_8669_32573">
<rect width="150" height="150" fill="white"/>
</clipPath>
</defs>
</svg>
