<svg width="48" height="49" viewBox="0 0 48 49" fill="none" xmlns="http://www.w3.org/2000/svg">
<path d="M31.3375 3.13281H6.82031V45.1085H41.0049V12.1485L31.3375 3.13281ZM32.1545 44.9875C29.4083 44.9875 26.9545 43.779 25.3315 41.8825H10.1597V6.35884H28.5781V15.1643H37.6655V29.7516C39.6993 31.3179 41.0031 33.7313 41.0031 36.4393C41.0031 41.1603 37.0414 44.9875 32.1545 44.9875Z" fill="black"/>
<path d="M14.1758 19.7422H34.3198V22.8875H14.1758V19.7422ZM14.1758 27.2442H24.301V30.3895H14.1758V27.2442ZM14.1758 34.7461H20.5439V37.8915H14.1758V34.7461Z" fill="black"/>
<path d="M37.6643 29.759C36.1524 28.5947 34.2371 27.8984 32.1533 27.8984C27.2663 27.8984 23.3047 31.7256 23.3047 36.4467C23.3047 38.5148 24.065 40.4114 25.3303 41.8899C26.9533 43.7864 29.4072 44.9949 32.1533 44.9949C37.0402 44.9949 41.0019 41.1678 41.0019 36.4467C41.0019 33.7387 39.6981 31.3253 37.6643 29.759ZM31.9582 42.6056L30.1872 40.8947L30.2296 40.8538L27.046 37.7783L28.817 36.0674L30.901 38.0807V30.6809H33.4055V37.7857L35.4896 35.7724L37.2605 37.4833L31.9582 42.6056Z" fill="#74BC1F"/>
<path d="M37.2653 37.4742L35.4943 35.7634L33.4103 37.7767V30.6719H30.9058V38.0717L28.8218 36.0584L27.0508 37.7693L30.2343 40.8448L30.192 40.8857L31.963 42.5965L37.2653 37.4742Z" fill="white"/>
</svg>
