<svg width="75" height="75" viewBox="0 0 75 75" fill="none" xmlns="http://www.w3.org/2000/svg">
<path d="M45.1461 28.5645H68.5976C69.1839 28.5645 69.6592 29.0398 69.6592 29.6261V62.169C69.6592 63.012 68.7238 63.5187 68.0176 63.0582L57.7149 56.339C57.5424 56.2265 57.3409 56.1666 57.1349 56.1666H30.91C30.3237 56.1666 29.8484 55.6913 29.8484 55.105V44.7818" stroke="black" stroke-width="3.04038"/>
<path d="M5.43164 18.4796V51.0225C5.43164 51.8656 6.36703 52.3723 7.07319 51.9117L17.376 45.1925C17.5484 45.08 17.7499 45.0201 17.9559 45.0201H44.1808C44.7672 45.0201 45.2425 44.5448 45.2425 43.9585V31.2191V18.4796C45.2425 17.8933 44.7672 17.418 44.1808 17.418H6.49326C5.90694 17.418 5.43164 17.8933 5.43164 18.4796Z" stroke="black" stroke-width="3.04038"/>
<path d="M13.2227 28.0605H36.0475" stroke="#74BC1F" stroke-width="3.04038" stroke-linecap="round" stroke-linejoin="round"/>
<path d="M13.9229 34.9355H36.7477" stroke="#74BC1F" stroke-width="3.04038" stroke-linecap="round" stroke-linejoin="round"/>
</svg>
