<svg width="66" height="67" viewBox="0 0 66 67" fill="none" xmlns="http://www.w3.org/2000/svg">
<path d="M49.2643 23.381H47.0753C46.584 19.9789 44.8833 16.8678 42.2848 14.6176C39.6864 12.3675 36.3641 11.1289 32.9267 11.1289C29.4894 11.1289 26.1671 12.3675 23.5686 14.6176C20.9701 16.8678 19.2694 19.9789 18.7781 23.381H16.5891C13.3394 23.381 10.2227 24.672 7.92482 26.9699C5.6269 29.2678 4.33594 32.3844 4.33594 35.6342C4.33594 38.8839 5.6269 42.0006 7.92482 44.2985C10.2227 46.5964 13.3394 47.8874 16.5891 47.8874H18.6313C19.173 47.8874 19.6924 47.6722 20.0754 47.2892C20.4584 46.9063 20.6735 46.3868 20.6735 45.8452C20.6735 45.3036 20.4584 44.7841 20.0754 44.4011C19.6924 44.0182 19.173 43.803 18.6313 43.803H16.5891C14.4226 43.803 12.3449 42.9424 10.8129 41.4104C9.28098 39.8785 8.42034 37.8007 8.42034 35.6342C8.42034 33.4677 9.28098 31.3899 10.8129 29.858C12.3449 28.326 14.4226 27.4654 16.5891 27.4654H20.6735C21.2152 27.4654 21.7346 27.2502 22.1176 26.8672C22.5006 26.4843 22.7157 25.9648 22.7157 25.4232C22.7157 22.7151 23.7915 20.1179 25.7065 18.2029C27.6214 16.288 30.2186 15.2122 32.9267 15.2122C35.6349 15.2122 38.2321 16.288 40.147 18.2029C42.0619 20.1179 43.1377 22.7151 43.1377 25.4232C43.1377 25.9648 43.3529 26.4843 43.7359 26.8672C44.1189 27.2502 44.6383 27.4654 45.1799 27.4654H49.2643C51.4308 27.4654 53.5086 28.326 55.0405 29.858C56.5725 31.3899 57.4331 33.4677 57.4331 35.6342C57.4331 37.8007 56.5725 39.8785 55.0405 41.4104C53.5086 42.9424 51.4308 43.803 49.2643 43.803H47.2221C46.6805 43.803 46.1611 44.0182 45.7781 44.4011C45.3951 44.7841 45.1799 45.3036 45.1799 45.8452C45.1799 46.3868 45.3951 46.9063 45.7781 47.2892C46.1611 47.6722 46.6805 47.8874 47.2221 47.8874H49.2643C52.5141 47.8874 55.6307 46.5964 57.9286 44.2985C60.2266 42.0006 61.5175 38.8839 61.5175 35.6342C61.5175 32.3844 60.2266 29.2678 57.9286 26.9699C55.6307 24.672 52.5141 23.381 49.2643 23.381Z" fill="#333333"/>
<path d="M38.6986 45.3649L34.9588 49.1047V31.5609C34.9297 31.0398 34.7021 30.5497 34.3229 30.1912C33.9438 29.8326 33.4417 29.6328 32.9198 29.6328C32.3979 29.6328 31.8959 29.8326 31.5167 30.1912C31.1375 30.5497 30.91 31.0398 30.8808 31.5609V49.0919L27.1538 45.3649C26.964 45.1751 26.7386 45.0245 26.4906 44.9217C26.2426 44.819 25.9768 44.7661 25.7083 44.7661C25.4398 44.7661 25.174 44.819 24.926 44.9217C24.678 45.0245 24.4526 45.1751 24.2628 45.3649C24.073 45.5547 23.9224 45.7801 23.8197 46.0281C23.7169 46.2761 23.6641 46.5419 23.6641 46.8104C23.6641 47.0788 23.7169 47.3447 23.8197 47.5927C23.9224 47.8407 24.073 48.066 24.2628 48.2559L31.4807 55.4738C31.6698 55.6636 31.8946 55.8143 32.1421 55.9171C32.3896 56.0199 32.655 56.0728 32.923 56.0728C33.191 56.0728 33.4564 56.0199 33.7039 55.9171C33.9514 55.8143 34.1762 55.6636 34.3653 55.4738L41.5896 48.2559C41.973 47.8725 42.1883 47.3525 42.1883 46.8104C42.1883 46.2682 41.973 45.7483 41.5896 45.3649C41.2062 44.9815 40.6863 44.7661 40.1441 44.7661C39.6019 44.7661 39.082 44.9815 38.6986 45.3649Z" fill="#74BC1F"/>
</svg>
