<svg width="109" height="109" viewBox="0 0 109 109" fill="none" xmlns="http://www.w3.org/2000/svg">
<rect x="1" y="1" width="107" height="107" rx="9" stroke="#74BC1F" stroke-width="2"/>
<g clip-path="url(#clip0_9833_30992)">
<path d="M76.8655 66.5574C75.7784 65.7185 74.9367 66.3477 74.2353 67.2914C73.3234 68.4799 72.4467 69.6683 71.3946 71.0316C70.8685 70.1577 71.0439 69.5285 71.0439 68.8993C71.0088 65.2641 71.0439 61.6288 71.0088 57.9586C71.0088 56.7702 71.0088 55.4419 69.3605 55.4069C67.7122 55.372 67.6772 56.6653 67.6772 57.8887V71.486C66.3796 69.7732 65.3976 68.5148 64.4156 67.2215C63.7493 66.3477 62.9778 65.7534 61.9257 66.4875C60.8034 67.2914 61.1541 68.2702 61.8204 69.2139C63.7493 71.8006 65.6782 74.4221 67.6772 76.9738C68.7994 78.4069 69.8164 78.4769 70.9036 77.0437C72.9377 74.4221 74.9016 71.7656 76.8655 69.144C77.5669 68.2702 77.8826 67.3264 76.8655 66.5574ZM76.8655 66.5574C75.7784 65.7185 74.9367 66.3477 74.2353 67.2914C73.3234 68.4799 72.4467 69.6683 71.3946 71.0316C70.8685 70.1577 71.0439 69.5285 71.0439 68.8993C71.0088 65.2641 71.0439 61.6288 71.0088 57.9586C71.0088 56.7702 71.0088 55.4419 69.3605 55.4069C67.7122 55.372 67.6772 56.6653 67.6772 57.8887V71.486C66.3796 69.7732 65.3976 68.5148 64.4156 67.2215C63.7493 66.3477 62.9778 65.7534 61.9257 66.4875C60.8034 67.2914 61.1541 68.2702 61.8204 69.2139C63.7493 71.8006 65.6782 74.4221 67.6772 76.9738C68.7994 78.4069 69.8164 78.4769 70.9036 77.0437C72.9377 74.4221 74.9016 71.7656 76.8655 69.144C77.5669 68.2702 77.8826 67.3264 76.8655 66.5574ZM76.8655 66.5574C75.7784 65.7185 74.9367 66.3477 74.2353 67.2914C73.3234 68.4799 72.4467 69.6683 71.3946 71.0316C70.8685 70.1577 71.0439 69.5285 71.0439 68.8993C71.0088 65.2641 71.0439 61.6288 71.0088 57.9586C71.0088 56.7702 71.0088 55.4419 69.3605 55.4069C67.7122 55.372 67.6772 56.6653 67.6772 57.8887V71.486C66.3796 69.7732 65.3976 68.5148 64.4156 67.2215C63.7493 66.3477 62.9778 65.7534 61.9257 66.4875C60.8034 67.2914 61.1541 68.2702 61.8204 69.2139C63.7493 71.8006 65.6782 74.4221 67.6772 76.9738C68.7994 78.4069 69.8164 78.4769 70.9036 77.0437C72.9377 74.4221 74.9016 71.7656 76.8655 69.144C77.5669 68.2702 77.8826 67.3264 76.8655 66.5574ZM76.8655 66.5574C75.7784 65.7185 74.9367 66.3477 74.2353 67.2914C73.3234 68.4799 72.4467 69.6683 71.3946 71.0316C70.8685 70.1577 71.0439 69.5285 71.0439 68.8993C71.0088 65.2641 71.0439 61.6288 71.0088 57.9586C71.0088 56.7702 71.0088 55.4419 69.3605 55.4069C67.7122 55.372 67.6772 56.6653 67.6772 57.8887V71.486C66.3796 69.7732 65.3976 68.5148 64.4156 67.2215C63.7493 66.3477 62.9778 65.7534 61.9257 66.4875C60.8034 67.2914 61.1541 68.2702 61.8204 69.2139C63.7493 71.8006 65.6782 74.4221 67.6772 76.9738C68.7994 78.4069 69.8164 78.4769 70.9036 77.0437C72.9377 74.4221 74.9016 71.7656 76.8655 69.144C77.5669 68.2702 77.8826 67.3264 76.8655 66.5574ZM76.8655 66.5574C75.7784 65.7185 74.9367 66.3477 74.2353 67.2914C73.3234 68.4799 72.4467 69.6683 71.3946 71.0316C70.8685 70.1577 71.0439 69.5285 71.0439 68.8993C71.0088 65.2641 71.0439 61.6288 71.0088 57.9586C71.0088 56.7702 71.0088 55.4419 69.3605 55.4069C67.7122 55.372 67.6772 56.6653 67.6772 57.8887V71.486C66.3796 69.7732 65.3976 68.5148 64.4156 67.2215C63.7493 66.3477 62.9778 65.7534 61.9257 66.4875C60.8034 67.2914 61.1541 68.2702 61.8204 69.2139C63.7493 71.8006 65.6782 74.4221 67.6772 76.9738C68.7994 78.4069 69.8164 78.4769 70.9036 77.0437C72.9377 74.4221 74.9016 71.7656 76.8655 69.144C77.5669 68.2702 77.8826 67.3264 76.8655 66.5574Z" fill="#74BC1F"/>
<path d="M88.9312 66.4894C88.6506 65.9301 88.861 65.3708 88.826 64.8116C88.826 64.7766 88.826 64.7766 88.826 64.7416C88.8961 61.2112 87.844 58.0653 85.6696 55.269C82.2678 50.8997 77.9893 47.9286 72.4833 46.8799C70.4492 46.4954 70.4843 46.4605 70.9402 44.3982C71.2207 43.2097 71.3961 42.0213 71.361 40.7979C71.326 37.0927 71.2558 33.4225 70.7648 29.7523C70.4141 26.886 69.2568 24.9635 66.8721 23.6003C63.856 21.8176 60.5945 20.804 57.0524 20.5243C55.1586 20.3495 53.2298 20.3495 51.336 20H38.4302C36.6065 20.3495 34.7478 20.4195 32.9242 20.5243C29.347 20.769 25.9803 21.6778 22.9642 23.6003C20.5093 25.1383 18.8961 27.1307 19.4923 30.2766C19.5274 30.4863 19.5624 30.696 19.5274 30.9407C18.7558 35.6246 18.8961 40.2736 19.5274 44.9574C19.5975 45.3769 19.5624 45.7614 19.4923 46.1809C18.826 49.7462 19.1065 53.3815 19.1416 56.9818C19.1416 58.1702 19.7729 59.3587 19.5274 60.5122C18.7558 64.2872 19.2117 68.0973 19.1065 71.8723C19.0364 74.5638 20.1937 76.6261 22.4382 78.1641C24.5775 79.5973 26.7869 80.8207 29.2418 81.6246C36.0103 83.8267 42.9542 84.5258 50.0033 83.617C52.1075 83.3374 53.7207 83.8267 55.2989 85.1201C57.6837 87.0775 60.3139 88.3708 63.4702 88.6505C65.6095 88.8252 67.7137 89 69.853 89C78.0244 88.8951 83.7057 84.9103 87.4582 77.8495C88.5805 75.7173 88.5103 73.3754 88.9662 71.1033V66.5942C88.9662 66.5243 88.9312 66.4894 88.9312 66.4894ZM26.7869 26.6763C31.0654 24.8936 35.5895 24.1945 40.1837 23.9498C46.9873 23.5653 53.7558 23.7401 60.3841 25.5578C61.8921 25.9772 63.365 26.5365 64.7328 27.3055C67.2578 28.8085 67.328 30.4514 64.838 31.9894C61.9622 33.7371 58.7007 34.3663 55.4392 34.9255C52.0023 35.4848 48.5304 35.6945 45.0233 35.6945C38.8159 35.5198 32.6085 35.2751 26.7518 32.7584C25.3139 32.1641 23.5604 31.535 23.5604 29.7173C23.5604 27.9347 25.3841 27.2705 26.7869 26.6763ZM22.9642 39.959C23.1045 38.421 22.9993 36.848 22.9993 35.0653C35.4141 42.231 52.7388 42.231 66.9071 35.1353C66.9071 37.4772 67.0825 39.7842 66.837 42.0562C66.6266 44.1535 64.9081 45.3769 63.2248 46.4954C60.3139 48.4179 57.0524 49.3617 53.6506 50.0258C46.5314 51.3891 39.4472 51.0745 32.4682 49.152C30.3991 48.5927 28.4352 47.6839 26.6115 46.5304C24.2268 44.9924 22.6837 43.035 22.9642 39.959ZM23.3149 49.152C27.8741 53.0319 33.1346 54.465 38.6406 55.269C42.7438 55.8632 46.847 55.7933 50.9853 55.3739C52.0374 54.9544 52.1777 55.0243 52.0725 55.7584C50.1787 58.4149 48.9863 61.3161 48.5304 64.5319C48.4252 65.231 48.3199 65.8252 47.338 65.8602C40.7448 66.2097 34.4322 65.4407 28.4702 62.5395C25.0684 60.8617 22.859 58.5198 23.2799 54.3951C23.4552 52.7523 23.3149 51.1094 23.3149 49.152ZM27.4181 75.7523C24.367 74.424 22.4382 72.4316 22.9642 68.8313C23.1396 67.6778 22.9993 66.4544 22.9993 64.8815C26.4362 67.3283 30.0484 68.5517 33.8009 69.2857C38.0795 70.1596 42.3931 70.579 46.7418 70.3343C47.6887 70.2994 48.2498 70.4392 48.4602 71.4878C48.9512 74.0395 50.1085 76.2766 51.9322 78.6185C43.3049 79.3875 35.2037 79.1079 27.4181 75.7523ZM68.5554 85.0152C59.0514 85.0152 51.4061 77.3252 51.4763 67.8176C51.5464 58.31 59.0514 50.8647 68.6256 50.8997C77.849 50.9347 85.4943 58.7994 85.4242 68.2371C85.354 77.5699 77.849 85.0152 68.5554 85.0152Z" fill="#74BC1F"/>
<path d="M76.9034 69.144C74.9395 71.7656 72.9756 74.4571 70.9415 77.0437C69.8543 78.4419 68.8373 78.4069 67.7151 76.9738C65.7511 74.3872 63.7872 71.8005 61.8583 69.2139C61.1569 68.3051 60.8062 67.2914 61.9636 66.4875C63.0157 65.7534 63.8223 66.3477 64.4535 67.2215C65.4355 68.4799 66.3824 69.7732 67.7151 71.486V57.8887C67.7151 56.7002 67.7501 55.372 69.3984 55.4069C71.0467 55.4419 71.0467 56.7701 71.0467 57.9586C71.0818 61.5939 71.0467 65.2291 71.0818 68.8993C71.0818 69.5285 70.9064 70.1577 71.4325 71.0315C72.4495 69.6683 73.3614 68.5148 74.2732 67.2914C74.9746 66.3477 75.8163 65.7185 76.9034 66.5574C77.8854 67.3264 77.5698 68.2701 76.9034 69.144Z" fill="white"/>
<path d="M76.9034 69.144C74.9395 71.7656 72.9756 74.4571 70.9415 77.0437C69.8543 78.4419 68.8373 78.4069 67.7151 76.9738C65.7511 74.3872 63.7872 71.8005 61.8583 69.2139C61.1569 68.3051 60.8062 67.2914 61.9636 66.4875C63.0157 65.7534 63.8223 66.3477 64.4535 67.2215C65.4355 68.4799 66.3824 69.7732 67.7151 71.486V57.8887C67.7151 56.7002 67.7501 55.372 69.3984 55.4069C71.0467 55.4419 71.0467 56.7701 71.0467 57.9586C71.0818 61.5939 71.0467 65.2291 71.0818 68.8993C71.0818 69.5285 70.9064 70.1577 71.4325 71.0315C72.4495 69.6683 73.3614 68.5148 74.2732 67.2914C74.9746 66.3477 75.8163 65.7185 76.9034 66.5574C77.8854 67.3264 77.5698 68.2701 76.9034 69.144Z" fill="#74BC1F"/>
</g>
<defs>
<clipPath id="clip0_9833_30992">
<rect width="70" height="69" fill="white" transform="translate(19 20)"/>
</clipPath>
</defs>
</svg>
