<svg width="110" height="109" viewBox="0 0 110 109" fill="none" xmlns="http://www.w3.org/2000/svg">
<g clip-path="url(#clip0_9833_30994)">
<path d="M55.1742 92.8641L54.5242 92.7016C46.5617 89.4516 40.2242 84.9016 31.9367 76.2891C24.2992 68.1641 20.2367 54.3516 20.3992 37.1266V33.0641L23.9742 32.0891C32.9117 29.6516 42.1742 25.1016 54.1992 17.4641L55.0117 16.9766L55.8242 17.4641C67.0367 24.6141 77.4367 29.4891 86.6992 31.9266L90.2742 32.9016V36.9641C90.4367 49.3141 88.6492 60.2016 84.7492 68.1641L83.2867 67.5141C87.0242 59.7141 88.8117 49.1516 88.6492 36.9641V34.0391L86.3742 33.3891C76.9492 30.7891 66.5492 25.9141 55.0117 18.6016C42.8242 26.2391 33.3992 30.7891 24.2992 33.3891L22.0242 34.0391V36.8016C21.6992 53.5391 25.5992 67.0266 33.0742 74.8266C41.0367 83.2766 47.2117 87.8266 55.0117 90.9141C58.5867 89.4516 61.9992 87.6641 65.2492 85.7141L65.5742 85.5516C65.7367 85.3891 65.8992 85.3891 66.2242 85.2266L67.1992 86.5266C66.8742 86.6891 66.7117 86.8516 66.5492 87.0141L66.2242 87.1766C62.9742 89.2891 59.3992 91.0766 55.6617 92.5391L55.1742 92.8641Z" fill="#74BC1F" stroke="#74BC1F" stroke-width="2"/>
<path d="M64.1109 66.2156H62.4859V64.2656V62.4781C61.8359 56.6281 56.6359 52.2406 50.6234 52.2406C44.7734 52.2406 39.7359 56.6281 39.0859 62.4781V66.2156H37.4609V64.2656V62.1531C38.2734 55.4906 43.9609 50.4531 50.6234 50.4531C57.4484 50.4531 63.2984 55.6531 64.1109 62.1531V66.2156Z" fill="#74BC1F" stroke="#74BC1F" stroke-width="2"/>
<path d="M50.7883 51.9125C45.5883 51.9125 41.3633 47.6875 41.3633 42.4875C41.3633 37.2875 45.5883 33.0625 50.7883 33.0625C55.9883 33.0625 60.2133 37.2875 60.2133 42.4875C60.2133 47.6875 55.9883 51.9125 50.7883 51.9125ZM50.7883 34.6875C46.4008 34.6875 42.9883 38.2625 42.9883 42.4875C42.9883 46.875 46.5633 50.2875 50.7883 50.2875C55.0133 50.2875 58.5883 46.7125 58.5883 42.4875C58.5883 38.2625 55.0133 34.6875 50.7883 34.6875Z" fill="#74BC1F" stroke="#74BC1F" stroke-width="2"/>
<path d="M70.9383 64.5859V62.6359V60.8484C70.4508 56.1359 66.3883 52.5609 61.6758 52.5609V50.9359C64.9258 50.9359 67.6883 48.0109 67.6883 44.7609C67.6883 41.5109 64.9258 38.5859 61.6758 38.5859V36.9609C65.9008 36.9609 69.3133 40.5359 69.3133 44.7609C69.3133 47.6859 67.6883 50.1234 65.2508 51.5859C68.9883 52.8859 71.9133 56.2984 72.4008 60.6859V64.5859H70.9383Z" fill="#74BC1F" stroke="#74BC1F" stroke-width="2"/>
<path d="M38.2734 64.75H63.2984V66.375H38.2734V64.75Z" fill="#74BC1F" stroke="#74BC1F" stroke-width="2"/>
<path d="M76.1359 66.375C82.3109 66.375 87.9984 72.0625 87.9984 78.2375C87.9984 84.4125 82.3109 90.1 76.1359 90.1C69.9609 90.1 64.2734 84.4125 64.2734 78.2375C64.2734 72.0625 69.9609 66.375 76.1359 66.375ZM76.1359 64.75C68.9859 64.75 62.6484 71.0875 62.6484 78.2375C62.6484 85.3875 68.9859 91.725 76.1359 91.725C83.2859 91.725 89.6234 85.225 89.6234 78.2375C89.6234 71.0875 83.2859 64.75 76.1359 64.75Z" fill="#74BC1F" stroke="#74BC1F" stroke-width="2"/>
<path d="M70.9375 78.3984H82.8V76.7734H70.9375V78.3984Z" fill="#74BC1F" stroke="#74BC1F" stroke-width="2"/>
<path d="M71.75 73.0359L75.65 77.0984L76.7875 75.9609L72.8875 71.8984L71.75 73.0359Z" fill="#74BC1F" stroke="#74BC1F" stroke-width="2"/>
<path d="M80.2 71.8984L76.3 75.9609L77.4375 77.0984L81.3375 73.0359L80.2 71.8984ZM70.9375 80.9984H82.8V79.3734H70.9375V80.9984Z" fill="#74BC1F" stroke="#74BC1F" stroke-width="2"/>
<path d="M75.6484 75.9609V84.8984H77.2734V75.9609H75.6484Z" fill="#74BC1F" stroke="#74BC1F" stroke-width="2"/>
</g>
<rect x="1.5" y="1" width="107" height="107" rx="9" stroke="#74BC1F" stroke-width="2"/>
<defs>
<clipPath id="clip0_9833_30994">
<rect width="78" height="78" fill="white" transform="translate(16.5 16)"/>
</clipPath>
</defs>
</svg>
