<svg width="165" height="165" viewBox="0 0 165 165" fill="none" xmlns="http://www.w3.org/2000/svg">
<rect x="2.75" y="2.75" width="159.5" height="159.5" rx="17.875" stroke="white" stroke-width="5.5"/>
<path d="M95.0525 109.945L63.9639 109.945L63.9639 103.153L54.6514 103.153L54.6514 96.0815L44.0784 96.0815L44.0785 49.0985L113.188 49.0985L113.188 80.7473L106.186 80.7473L106.186 56.1005L51.0804 56.1005L51.0804 89.0796L61.6533 89.0796L61.6533 96.1515L70.9659 96.1515L70.9659 102.943L88.0506 102.943L88.0506 95.8714L102.405 95.8714L102.405 102.873L95.0525 102.873L95.0525 109.945Z" fill="white"/>
<path d="M102.408 132.074L41.9112 132.074C34.2091 132.074 27.9073 125.772 27.9073 118.07L27.9074 40.699C27.9074 32.9969 34.2091 26.6951 41.9112 26.6951L115.852 26.6952C123.554 26.6952 129.855 32.9969 129.855 40.699L129.855 79.4897L122.854 79.4897L122.854 40.699C122.854 36.848 119.703 33.6971 115.852 33.6971L41.9812 33.6971C38.1302 33.6971 34.9793 36.8479 34.9793 40.699L34.9793 118.07C34.9793 121.921 38.1302 125.072 41.9812 125.072L102.408 125.072L102.408 132.074Z" fill="white"/>
<path d="M114.802 86.7728L132.517 86.7728L120.684 101.407L137.559 101.407L101.849 138.867L111.932 114.22L99.6081 114.22L114.802 86.7728Z" fill="white"/>
<path d="M60.1051 59.6563L55.3438 59.6562L55.3437 78.4214L60.1051 78.4214L60.1051 59.6563Z" fill="white"/>
<path d="M67.3707 59.6563L62.6094 59.6562L62.6094 78.4214L67.3707 78.4214L67.3707 59.6563Z" fill="white"/>
<path d="M74.5699 59.6563L69.8086 59.6562L69.8086 78.4214L74.5699 78.4214L74.5699 59.6563Z" fill="white"/>
<path d="M81.7691 59.6563L77.0078 59.6562L77.0078 78.4214L81.7691 78.4214L81.7691 59.6563Z" fill="white"/>
<path d="M88.9722 59.6563L84.2109 59.6562L84.2109 78.4214L88.9722 78.4214L88.9722 59.6563Z" fill="white"/>
<path d="M96.1715 59.6563L91.4102 59.6562L91.4101 78.4214L96.1715 78.4214L96.1715 59.6563Z" fill="white"/>
<path d="M103.375 59.6563L98.6133 59.6562L98.6133 78.4214L103.375 78.4214L103.375 59.6563Z" fill="white"/>
</svg>
