<svg width="121" height="120" viewBox="0 0 121 120" fill="none" xmlns="http://www.w3.org/2000/svg">
<rect width="120" height="120" transform="translate(0.835938)" fill="white"/>
<circle cx="32.0859" cy="73.75" r="17.5" fill="white"/>
<rect x="11.8516" y="25" width="98.7125" height="61.6953" fill="black"/>
<rect x="42.1328" y="86.7031" width="39.2607" height="5.60866" fill="black"/>
<rect x="35.4062" y="92.3008" width="51.5997" height="3.3652" fill="black"/>
<path d="M57.3341 61.1723C57.3341 62.5651 56.95 63.7325 56.1817 64.6743C55.425 65.6162 54.3774 66.3226 53.0387 66.7936C51.7117 67.2645 50.1984 67.5 48.4988 67.5C46.811 67.5 45.2918 67.2645 43.9415 66.7936C42.6029 66.3226 41.5436 65.6162 40.7636 64.6743C39.9837 63.7325 39.5938 62.5651 39.5938 61.1723C39.5938 60.2204 39.8149 59.3687 40.2573 58.6172C40.7113 57.8557 41.3398 57.2094 42.1431 56.6784C42.9463 56.1473 43.8833 55.7415 44.9543 55.4609C46.0368 55.1804 47.2067 55.0401 48.4639 55.0401C50.1635 55.0401 51.6826 55.2906 53.0212 55.7916C54.3599 56.2826 55.4134 56.984 56.1817 57.8958C56.95 58.8076 57.3341 59.8998 57.3341 61.1723ZM51.4148 60.7665C51.4148 60.1653 51.2926 59.6593 51.0481 59.2485C50.8037 58.8277 50.4603 58.507 50.0179 58.2866C49.5756 58.0661 49.0576 57.9559 48.4639 57.9559C47.8819 57.9559 47.3639 58.0661 46.9099 58.2866C46.4676 58.507 46.1183 58.8277 45.8622 59.2485C45.6178 59.6593 45.4956 60.1653 45.4956 60.7665C45.4956 61.3477 45.6236 61.8537 45.8797 62.2846C46.1358 62.7054 46.485 63.0311 46.9274 63.2615C47.3813 63.482 47.9052 63.5922 48.4988 63.5922C49.0925 63.5922 49.6047 63.482 50.0354 63.2615C50.4778 63.0311 50.8153 62.7054 51.0481 62.2846C51.2926 61.8537 51.4148 61.3477 51.4148 60.7665ZM56.8103 51.1623C56.8103 52.3046 56.4552 53.3066 55.7451 54.1683C55.0467 55.02 54.0689 55.6864 52.8117 56.1673C51.5662 56.6383 50.1285 56.8737 48.4988 56.8737C46.8808 56.8737 45.4374 56.6383 44.1685 56.1673C42.9113 55.6864 41.9219 55.02 41.2002 54.1683C40.4901 53.3066 40.135 52.3046 40.135 51.1623C40.135 49.8196 40.4901 48.6924 41.2002 47.7806C41.9219 46.8687 42.9113 46.1774 44.1685 45.7064C45.4257 45.2355 46.8575 45 48.4639 45C50.0936 45 51.5371 45.2355 52.7942 45.7064C54.0514 46.1774 55.0351 46.8687 55.7451 47.7806C56.4552 48.6924 56.8103 49.8196 56.8103 51.1623ZM50.9259 51.4329C50.9259 50.9118 50.8328 50.4659 50.6465 50.0952C50.4603 49.7144 50.1867 49.4238 49.8259 49.2234C49.465 49.013 49.011 48.9078 48.4639 48.9078C47.9401 48.9078 47.4977 49.008 47.1369 49.2084C46.776 49.4088 46.5025 49.6994 46.3162 50.0802C46.13 50.4509 46.0368 50.9018 46.0368 51.4329C46.0368 51.9539 46.13 52.4098 46.3162 52.8006C46.5025 53.1914 46.776 53.497 47.1369 53.7174C47.5094 53.9379 47.9634 54.0481 48.4988 54.0481C49.046 54.0481 49.4941 53.9379 49.8433 53.7174C50.2042 53.497 50.4719 53.1914 50.6465 52.8006C50.8328 52.4098 50.9259 51.9539 50.9259 51.4329Z" fill="white"/>
<path d="M66.9202 45.3156V67.1994H60.7914V45.3156H66.9202ZM82.0938 45.3156L72.2458 56.4078L66.4836 61.8337L65.3661 56.994L69.0504 52.1844L74.5331 45.3156H82.0938ZM74.8474 67.1994L68.2821 57.3397L73.049 54.3186L82.0938 67.1994H74.8474Z" fill="white"/>
</svg>
