<svg width="204" height="194" viewBox="0 0 204 194" fill="none" xmlns="http://www.w3.org/2000/svg">
<rect x="13.9453" y="9.37891" width="175.241" height="175.241" rx="0.75" stroke="white" stroke-opacity="0.7" stroke-width="0.5"/>
<rect x="5.0625" y="0.5" width="193" height="193" rx="0.5" stroke="white"/>
<path d="M198.562 54.7773L203.127 55.9185V73.0362L198.562 74.1773V54.7773Z" fill="white"/>
<path d="M198.562 87.8711L203.127 89.0123V106.13L198.562 107.271V87.8711Z" fill="white"/>
<path d="M198.562 120.965L203.127 122.106V139.224L198.562 140.365V120.965Z" fill="white"/>
<path d="M4.5625 140.367L-0.00220575 139.226L-0.00220425 122.108L4.5625 120.967L4.5625 140.367Z" fill="white"/>
<path d="M4.5625 107.273L-0.00220575 106.132L-0.00220425 89.0146L4.5625 87.8734L4.5625 107.273Z" fill="white"/>
<path d="M4.5625 74.1797L-0.00220575 73.0385L-0.00220425 55.9209L4.5625 54.7797L4.5625 74.1797Z" fill="white"/>
<path d="M84.8516 101.633H87.2539C87.0586 103.547 86.5312 105.201 85.6719 106.594C84.8125 107.974 83.6406 109.035 82.1562 109.777C80.6719 110.52 78.8815 110.891 76.7852 110.891C75.1706 110.891 73.7057 110.585 72.3906 109.973C71.0885 109.361 69.9688 108.495 69.0312 107.375C68.0938 106.242 67.3711 104.888 66.8633 103.312C66.3555 101.737 66.1016 99.9857 66.1016 98.0586V94.5039C66.1016 92.5768 66.3555 90.832 66.8633 89.2695C67.3711 87.694 68.1003 86.3398 69.0508 85.207C70.0013 84.0742 71.1406 83.2018 72.4688 82.5898C73.7969 81.9779 75.2943 81.6719 76.9609 81.6719C78.9792 81.6719 80.724 82.043 82.1953 82.7852C83.6667 83.5143 84.8255 84.569 85.6719 85.9492C86.5312 87.3294 87.0586 88.9961 87.2539 90.9492H84.8516C84.6693 89.4128 84.2656 88.1107 83.6406 87.043C83.0156 85.9753 82.1497 85.1615 81.043 84.6016C79.9492 84.0286 78.5885 83.7422 76.9609 83.7422C75.6328 83.7422 74.4479 83.9961 73.4062 84.5039C72.3646 85.0117 71.4792 85.7409 70.75 86.6914C70.0208 87.6289 69.4609 88.7552 69.0703 90.0703C68.6927 91.3854 68.5039 92.8503 68.5039 94.4648V98.0586C68.5039 99.6211 68.6862 101.06 69.0508 102.375C69.4154 103.69 69.9492 104.829 70.6523 105.793C71.3685 106.757 72.2409 107.505 73.2695 108.039C74.2982 108.573 75.4701 108.84 76.7852 108.84C78.4648 108.84 79.8646 108.573 80.9844 108.039C82.1172 107.492 82.9961 106.685 83.6211 105.617C84.2461 104.549 84.6562 103.221 84.8516 101.633ZM102.781 98.918H94.6758V96.8672H102.781C104.474 96.8672 105.848 96.5938 106.902 96.0469C107.97 95.487 108.745 94.7318 109.227 93.7812C109.721 92.8307 109.969 91.763 109.969 90.5781C109.969 89.4193 109.721 88.3516 109.227 87.375C108.745 86.3984 107.97 85.6172 106.902 85.0312C105.848 84.4323 104.474 84.1328 102.781 84.1328H95.5156V110.5H93.1133V82.0625H102.781C104.865 82.0625 106.616 82.4206 108.035 83.1367C109.467 83.8529 110.548 84.849 111.277 86.125C112.007 87.401 112.371 88.8724 112.371 90.5391C112.371 92.2839 112.007 93.7878 111.277 95.0508C110.548 96.3008 109.474 97.2578 108.055 97.9219C106.635 98.5859 104.878 98.918 102.781 98.918ZM134.93 82.0625H137.332V101.32C137.332 103.456 136.883 105.233 135.984 106.652C135.086 108.072 133.875 109.133 132.352 109.836C130.841 110.539 129.168 110.891 127.332 110.891C125.444 110.891 123.745 110.539 122.234 109.836C120.724 109.133 119.526 108.072 118.641 106.652C117.768 105.233 117.332 103.456 117.332 101.32V82.0625H119.715V101.32C119.715 102.974 120.04 104.361 120.691 105.48C121.342 106.6 122.241 107.44 123.387 108C124.533 108.56 125.848 108.84 127.332 108.84C128.803 108.84 130.112 108.56 131.258 108C132.404 107.44 133.302 106.6 133.953 105.48C134.604 104.361 134.93 102.974 134.93 101.32V82.0625Z" fill="white"/>
</svg>
