<svg width="103" height="103" viewBox="0 0 103 103" fill="none" xmlns="http://www.w3.org/2000/svg">
<path d="M73.9245 29.5399V44.8945C73.9245 46.0157 74.8433 46.9345 75.9645 46.9345H78.0513C80.8232 46.9345 83.0812 49.1925 83.0812 51.9644C83.0812 54.7363 80.8232 56.9944 78.0513 56.9944H75.9645C74.8433 56.9944 73.9245 57.9131 73.9245 59.0344V74.3889H29.0755V59.0344C29.0755 57.9131 28.1567 56.9944 27.0355 56.9944H24.9487C22.1768 56.9944 19.9188 54.7363 19.9188 51.9644C19.9188 49.1925 22.1768 46.9345 24.9487 46.9345H27.0355C28.1567 46.9345 29.0755 46.0157 29.0755 44.8945V29.5399H73.9245M74.8433 28.6211H28.1567V44.8945C28.1567 45.5174 27.6584 46.0157 27.0355 46.0157H24.9487C21.6629 46.0157 19 48.6786 19 51.9644C19 55.2502 21.6629 57.9131 24.9487 57.9131H27.0355C27.6584 57.9131 28.1567 58.4115 28.1567 59.0344V75.3077H74.8433V59.0344C74.8433 58.4115 75.3416 57.9131 75.9645 57.9131H78.0513C81.3371 57.9131 84 55.2502 84 51.9644C84 48.6786 81.3371 46.0157 78.0513 46.0157H75.9645C75.3416 46.0157 74.8433 45.5174 74.8433 44.8945V28.6211Z" stroke="white" stroke-width="1.2"/>
<circle cx="51.4109" cy="52.0672" r="13.8812" stroke="white" stroke-width="1.2"/>
<circle cx="51.4161" cy="52.0646" r="10.4333" stroke="white" stroke-width="1.2"/>
<rect x="1.5" y="1.5" width="100" height="100" rx="50" stroke="white" stroke-width="3"/>
</svg>
