<svg width="130" height="130" viewBox="0 0 130 130" fill="none" xmlns="http://www.w3.org/2000/svg">
<rect x="1.5" y="1.5" width="127" height="127" rx="18.5" fill="#00695D"/>
<rect x="1.5" y="1.5" width="127" height="127" rx="18.5" stroke="#00695D" stroke-width="3"/>
<path d="M81.3515 104.387H48.158C46.5082 104.387 45.1884 103.068 45.1884 101.418C45.1884 99.768 46.5082 98.4481 48.158 98.4481H81.3515C83.0013 98.4481 84.3211 99.768 84.3211 101.418C84.3211 103.002 83.0013 104.387 81.3515 104.387ZM106.362 90.6612H23.1473C20.3097 90.6612 18 88.3515 18 85.5139V30.1473C18 27.3097 20.3097 25 23.1473 25H106.362C109.2 25 111.509 27.3097 111.509 30.1473V85.4479C111.575 88.2855 109.266 90.6612 106.362 90.6612ZM24.3351 84.26H105.174V31.4011H24.3351V84.26Z" fill="white"/>
<path d="M56.8125 64.8008H53.6234L53.6438 62.607H56.8125C57.6724 62.607 58.3935 62.4174 58.9758 62.0383C59.5581 61.6523 59.9982 61.1005 60.2961 60.3828C60.594 59.6583 60.743 58.7917 60.743 57.7828V57.0211C60.743 56.2424 60.6583 55.5552 60.4891 54.9594C60.3198 54.3635 60.0693 53.8625 59.7375 53.4563C59.4125 53.05 59.0096 52.7419 58.5289 52.532C58.0482 52.3221 57.4964 52.2172 56.8734 52.2172H53.5625V50.0133H56.8734C57.862 50.0133 58.7625 50.1792 59.575 50.5109C60.3943 50.8427 61.1018 51.3201 61.6977 51.943C62.3003 52.5591 62.7607 53.2971 63.0789 54.157C63.4039 55.0169 63.5664 55.9784 63.5664 57.0414V57.7828C63.5664 58.8391 63.4039 59.8005 63.0789 60.6672C62.7607 61.5271 62.3003 62.2651 61.6977 62.8813C61.1018 63.4974 60.3909 63.9714 59.5648 64.3031C58.7388 64.6349 57.8214 64.8008 56.8125 64.8008ZM55.1875 50.0133V64.8008H52.3945V50.0133H55.1875ZM71.6305 59.4078H67.8219V57.2141H71.6305C72.2534 57.2141 72.7578 57.1125 73.1437 56.9094C73.5365 56.6995 73.8242 56.4151 74.007 56.0563C74.1898 55.6906 74.2812 55.2742 74.2812 54.807C74.2812 54.3534 74.1898 53.9302 74.007 53.5375C73.8242 53.1448 73.5365 52.8266 73.1437 52.5828C72.7578 52.3391 72.2534 52.2172 71.6305 52.2172H68.7359V64.8008H65.943V50.0133H71.6305C72.7815 50.0133 73.7633 50.2198 74.5758 50.6328C75.3951 51.0391 76.018 51.6044 76.4445 52.3289C76.8779 53.0466 77.0945 53.8659 77.0945 54.7867C77.0945 55.7414 76.8779 56.5641 76.4445 57.2547C76.018 57.9453 75.3951 58.4768 74.5758 58.8492C73.7633 59.2216 72.7815 59.4078 71.6305 59.4078Z" fill="white"/>
</svg>
