<svg width="131" height="130" viewBox="0 0 131 130" fill="none" xmlns="http://www.w3.org/2000/svg">
<rect x="2" y="1.5" width="127" height="127" rx="18.5" stroke="#00695D" stroke-width="3"/>
<path d="M81.8515 104.387H48.658C47.0082 104.387 45.6884 103.068 45.6884 101.418C45.6884 99.768 47.0082 98.4481 48.658 98.4481H81.8515C83.5013 98.4481 84.8211 99.768 84.8211 101.418C84.8211 103.002 83.5013 104.387 81.8515 104.387ZM106.862 90.6612H23.6473C20.8097 90.6612 18.5 88.3515 18.5 85.5139V30.1473C18.5 27.3097 20.8097 25 23.6473 25H106.862C109.7 25 112.009 27.3097 112.009 30.1473V85.4479C112.075 88.2855 109.766 90.6612 106.862 90.6612ZM24.8351 84.26H105.674V31.4011H24.8351V84.26Z" fill="#00695D"/>
<path d="M57.3125 64.8008H54.1234L54.1438 62.607H57.3125C58.1724 62.607 58.8935 62.4174 59.4758 62.0383C60.0581 61.6523 60.4982 61.1005 60.7961 60.3828C61.094 59.6583 61.243 58.7917 61.243 57.7828V57.0211C61.243 56.2424 61.1583 55.5552 60.9891 54.9594C60.8198 54.3635 60.5693 53.8625 60.2375 53.4563C59.9125 53.05 59.5096 52.7419 59.0289 52.532C58.5482 52.3221 57.9964 52.2172 57.3734 52.2172H54.0625V50.0133H57.3734C58.362 50.0133 59.2625 50.1792 60.075 50.5109C60.8943 50.8427 61.6018 51.3201 62.1977 51.943C62.8003 52.5591 63.2607 53.2971 63.5789 54.157C63.9039 55.0169 64.0664 55.9784 64.0664 57.0414V57.7828C64.0664 58.8391 63.9039 59.8005 63.5789 60.6672C63.2607 61.5271 62.8003 62.2651 62.1977 62.8813C61.6018 63.4974 60.8909 63.9714 60.0648 64.3031C59.2388 64.6349 58.3214 64.8008 57.3125 64.8008ZM55.6875 50.0133V64.8008H52.8945V50.0133H55.6875ZM72.1305 59.4078H68.3219V57.2141H72.1305C72.7534 57.2141 73.2578 57.1125 73.6437 56.9094C74.0365 56.6995 74.3242 56.4151 74.507 56.0563C74.6898 55.6906 74.7812 55.2742 74.7812 54.807C74.7812 54.3534 74.6898 53.9302 74.507 53.5375C74.3242 53.1448 74.0365 52.8266 73.6437 52.5828C73.2578 52.3391 72.7534 52.2172 72.1305 52.2172H69.2359V64.8008H66.443V50.0133H72.1305C73.2815 50.0133 74.2633 50.2198 75.0758 50.6328C75.8951 51.0391 76.518 51.6044 76.9445 52.3289C77.3779 53.0466 77.5945 53.8659 77.5945 54.7867C77.5945 55.7414 77.3779 56.5641 76.9445 57.2547C76.518 57.9453 75.8951 58.4768 75.0758 58.8492C74.2633 59.2216 73.2815 59.4078 72.1305 59.4078Z" fill="#00695D"/>
</svg>
