<svg width="130" height="130" viewBox="0 0 130 130" fill="none" xmlns="http://www.w3.org/2000/svg">
<rect x="1.5" y="1.5" width="127" height="127" rx="18.5" fill="#00695D"/>
<rect x="1.5" y="1.5" width="127" height="127" rx="18.5" stroke="#00695D" stroke-width="3"/>
<path d="M63.3849 92.161C52.1832 92.161 40.9238 92.161 29.7222 92.161C27.1816 92.161 24.7565 91.6991 22.5046 90.4866C18.1164 88.177 15.3448 84.597 14.3632 79.7468C13.2084 73.8573 15.1716 68.8916 19.7331 65.023C22.6201 62.5979 26.0268 61.5586 29.7799 61.5586C52.5874 61.5586 75.3949 61.5586 98.2024 61.5586C101.898 61.5586 105.189 62.6557 108.076 65.023C111.021 67.4481 112.868 70.6238 113.504 74.4347C114.139 78.2456 113.388 81.7678 111.367 84.9435C108.942 88.7544 105.478 91.064 101.089 91.8723C100.108 92.0456 99.1262 92.1033 98.1446 92.1033C86.5388 92.1033 74.9907 92.1033 63.3849 92.1033V92.161ZM63.5004 88.0615C75.1639 88.0615 86.7698 88.0615 98.4334 88.0615C99.0108 88.0615 99.5882 88.0615 100.108 87.946C103.053 87.5418 105.478 86.0983 107.325 83.7887C109.231 81.3636 110.039 78.5343 109.635 75.474C109.346 73.3376 108.596 71.4322 107.21 69.8155C104.9 67.0439 101.956 65.7159 98.3179 65.7159C75.3372 65.7159 52.4142 65.7159 29.4335 65.7159C27.6435 65.7159 25.9691 66.0624 24.4101 66.8707C20.3682 68.8916 18.0009 73.0489 18.1741 77.2063C18.4051 81.4791 20.3682 84.6548 24.0636 86.7912C25.8536 87.8305 27.8168 88.0615 29.8377 88.0615C41.0393 88.0615 52.2987 88.0615 63.5004 88.0615Z" fill="white"/>
<path d="M73.6238 48.1623V45.9104C75.587 47.0075 77.4924 48.0468 79.3979 49.1439C77.4924 50.241 75.587 51.2803 73.6238 52.3774V50.1255H52.8372C52.8372 50.1255 53.126 50.4142 53.2414 50.5874C54.8582 52.1464 56.4172 53.7054 58.0339 55.2644C58.6113 55.8418 59.3042 56.0728 60.1126 56.0728C61.1519 56.0728 62.1912 56.0728 63.1728 56.0728C63.4038 56.0728 63.4615 55.9573 63.4615 55.7841C63.4615 55.1489 63.4615 54.5138 63.4615 53.8209H69.4665C69.4665 53.8209 69.4665 54.1096 69.4665 54.2251C69.4665 55.8418 69.4665 57.4585 69.4665 59.133C69.4665 59.4795 69.4088 59.5372 69.0623 59.5372C67.2724 59.5372 65.5402 59.5372 63.7502 59.5372C63.4615 59.5372 63.346 59.4795 63.346 59.133C63.346 58.7866 63.346 58.4979 63.346 58.1514C63.346 57.9205 63.2305 57.805 62.9996 57.805C62.1912 57.805 61.3828 57.805 60.5745 57.805C59.7084 57.805 58.8423 57.805 58.0339 57.3431C57.572 57.1121 57.11 56.8234 56.7059 56.477C54.9159 54.918 53.1837 53.359 51.4515 51.7422C51.105 51.3958 50.7586 50.9916 50.4699 50.5874C50.0657 50.0678 49.546 49.7791 48.9109 49.7791C48.3912 49.7791 47.8138 49.7791 47.2942 49.7791C45.1578 49.7791 43.0214 49.7791 40.885 49.7791C40.885 49.7791 40.7695 49.7791 40.7118 49.7791C40.7118 49.9523 40.7118 50.1255 40.7118 50.2987C40.9427 51.6268 40.5963 52.8393 39.7879 53.9364C38.5754 55.5531 36.9586 56.4192 34.9954 56.7657C33.4365 57.0544 31.8775 57.1121 30.3185 56.7079C28.9904 56.3615 28.0088 55.6108 27.7779 54.1096C27.6624 53.4744 27.7779 52.897 27.7779 52.2619C27.7779 52.0309 27.8934 51.8577 28.1821 51.8577C29.2214 51.8577 30.203 51.8577 31.2423 51.8577C31.3001 51.8577 31.4733 52.0309 31.4733 52.1464C31.4733 52.4929 31.4733 52.7816 31.4733 53.128C31.4733 53.8786 31.8775 54.456 32.5126 54.6293C33.9561 55.0912 35.3996 55.2067 36.6699 54.1673C37.0741 53.8209 37.4783 53.359 37.767 52.897C38.3444 51.9732 37.998 50.9339 37.0164 50.5297C36.3235 50.241 35.5729 50.0678 34.88 49.8368C33.9561 49.4904 33.0323 49.2017 32.1662 48.7975C30.203 47.8736 29.8565 46.1414 30.5494 44.236C31.4155 42.0996 33.1478 40.9448 35.3419 40.5406C36.6699 40.2519 38.0557 40.1364 39.3837 40.4251C40.3076 40.6561 41.0582 41.118 41.6933 41.8109C42.3285 42.5615 42.444 43.4853 42.3285 44.4092C42.2707 44.9866 42.213 44.9866 41.6933 44.9289C41.0005 44.9289 40.2498 44.9289 39.5569 44.9289C39.326 44.9289 39.2105 44.9289 39.2682 44.6402C39.2682 43.4276 38.5176 42.6192 37.3051 42.5615C36.7854 42.5615 36.2657 42.5038 35.7461 42.5615C34.5335 42.8502 33.7829 43.6008 33.3787 44.7556C33.0323 45.7372 33.3787 46.6033 34.3603 46.9498C35.6306 47.4694 36.9009 47.8736 38.2867 47.8159C39.6147 47.7581 40.9427 47.8159 42.2707 47.8159C42.6749 47.8159 42.9636 47.7004 43.2523 47.4117C45.331 45.333 47.4674 43.2544 49.546 41.118C50.5276 40.1364 51.6247 39.6745 53.0105 39.6745C54.1653 39.6745 55.2624 39.6745 56.4172 39.6745C56.6481 39.6745 56.8213 39.6167 56.9368 39.3858C57.4565 38.4619 58.3803 38 59.4197 38C60.3435 38 61.1519 38.3464 61.5561 39.2126C62.6531 41.4644 61.6138 43.4276 59.2464 43.9473C58.1494 44.1782 56.7636 43.2544 56.3594 42.1573C56.2439 41.8109 56.0707 41.6954 55.7243 41.6954C54.7427 41.6954 53.7611 41.6954 52.7795 41.8109C52.2021 41.8109 51.6824 42.1573 51.2783 42.5615C49.4883 44.3515 47.6984 46.1414 45.9084 47.9891C45.9084 47.9891 45.8507 48.1046 45.7352 48.2201H73.4506L73.6238 48.1623Z" fill="white"/>
<path d="M94.778 58.7866C94.778 58.7866 94.4893 58.7866 94.3738 58.7866C93.1613 58.7866 91.891 58.7866 90.6784 58.7866C90.4475 58.7866 90.332 58.7288 90.3897 58.4979C90.3897 51.7422 90.3897 44.9289 90.3897 38.1732C90.3897 38.1732 90.3897 38.0577 90.3897 38C90.5629 38 90.6784 38 90.8516 38C95.4131 38 99.9169 38 104.478 38C106.442 38 108.232 38.4042 109.906 39.3858C111.35 40.1941 112.504 41.4067 113.486 42.7347C114.641 44.2937 115.045 46.0837 115.334 47.9891C115.449 48.8552 115.565 49.6636 115.334 50.4719C115.218 50.9339 115.103 51.3958 114.872 51.8577C114.467 52.7238 114.121 53.6477 113.544 54.3983C113.024 55.1489 112.331 55.8418 111.638 56.4769C109.791 58.1514 107.596 58.9598 105.056 58.9598C102.977 58.9598 100.898 58.9598 98.8198 58.9598C98.4734 58.9598 98.3579 58.8443 98.3579 58.4979C98.3579 57.4008 98.3579 56.246 98.3579 55.1489C98.3579 54.8602 98.4734 54.7447 98.7621 54.7447C100.552 54.7447 102.342 54.7447 104.19 54.7447C106.268 54.7447 108.058 53.8786 109.155 52.0887C109.733 51.1648 110.079 50.1255 110.079 49.0284C110.079 47.5849 109.733 46.2569 108.924 45.0443C108.867 44.9289 108.809 44.8134 108.693 44.6979C107.539 43.6008 106.268 42.6192 104.652 42.2151C104.363 42.1573 104.074 42.0996 103.786 42.0996C100.841 42.0996 97.9537 42.0996 95.009 42.0996C94.9512 42.0996 94.8357 42.0996 94.7202 42.0996V58.9598L94.778 58.7866Z" fill="white"/>
<path d="M26.7708 44.9262C26.4243 44.9262 26.0202 44.9262 25.6737 44.9262C25.385 44.9262 25.2695 44.8685 25.2695 44.5798C25.2695 44.4065 25.2695 44.2333 25.2118 44.0601C25.0963 43.2517 24.5766 42.7321 23.826 42.5588C22.8444 42.3279 21.8051 42.3856 20.8813 42.9053C20.1306 43.3095 19.611 43.9446 19.38 44.753C19.149 45.5613 19.3223 46.4852 20.1884 46.8316C21.17 47.1781 22.2093 47.4668 23.1909 47.8132C23.9415 48.0442 24.6921 48.2751 25.385 48.5638C27.0017 49.2567 27.4059 50.758 26.944 52.3747C26.4821 54.0492 25.385 55.2617 23.826 56.0124C21.5741 57.1672 19.2068 57.3404 16.8394 56.8207C14.7608 56.3588 13.8947 55.0885 14.0101 53.0099C14.0101 52.7212 14.1256 52.4325 14.1256 52.1438C14.1256 51.8551 14.2411 51.7973 14.4721 51.7973C15.2804 51.7973 16.0888 51.7973 16.9549 51.7973C17.0126 51.7973 17.1859 51.9705 17.1859 52.0283C17.1859 52.3747 17.1859 52.6634 17.1859 53.0099C17.2436 54.1069 17.7633 54.7421 18.8026 54.9153C19.8419 55.0885 20.8813 55.1463 21.9206 54.6843C22.6712 54.2802 23.2486 53.7027 23.5373 52.8944C23.9415 51.8551 23.6528 50.9312 22.6135 50.527C21.8051 50.2383 20.939 50.0074 20.1306 49.7764C19.0336 49.43 17.9942 49.0835 17.0704 48.3906C16.262 47.8132 15.7424 46.7739 15.9733 45.6768C16.493 42.9053 18.5139 41.0576 21.4009 40.5379C22.729 40.307 24.057 40.1915 25.385 40.5957C26.2511 40.8266 27.0017 41.2885 27.6946 41.8082C28.272 42.2124 28.272 42.8475 28.3298 43.4827C28.3298 43.7136 28.3298 44.0024 28.3298 44.2333C28.2143 44.8685 28.2143 44.8685 27.5792 44.8107C27.2905 44.8107 27.0017 44.8107 26.713 44.8107L26.7708 44.9262Z" fill="white"/>
<path d="M98.9297 52.2615V44.582C98.9297 44.582 99.1606 44.582 99.2761 44.582C100.835 44.582 102.336 44.582 103.895 44.582C104.531 44.582 105.223 44.7553 105.859 44.9285C106.898 45.2172 107.302 46.141 107.591 47.0071C107.879 47.9887 107.822 49.028 107.418 49.9519C106.898 51.1067 105.974 52.0306 104.588 52.0883C102.741 52.2038 100.835 52.2038 98.9297 52.2038V52.2615Z" fill="white"/>
<path d="M64.2443 81.303C54.9481 81.303 45.5942 81.303 36.2979 81.303C35.7205 81.303 35.1431 81.303 34.5657 81.1876C32.8335 80.9566 31.2745 79.5131 30.9858 77.8386C30.5816 75.9332 31.39 74.1432 33.0067 73.1039C33.8151 72.5842 34.6812 72.4688 35.605 72.4688C39.4737 72.4688 43.3423 72.4688 47.2109 72.4688C62.2811 72.4688 77.3514 72.4688 92.4217 72.4688C94.5581 72.4688 96.2903 73.739 96.8677 75.76C97.5606 78.3583 95.6551 81.0721 92.9413 81.2453C92.133 81.2453 91.3246 81.303 90.574 81.303C81.7974 81.303 73.0209 81.303 64.3021 81.303H64.2443Z" fill="white"/>
</svg>
