<svg width="131" height="130" viewBox="0 0 131 130" fill="none" xmlns="http://www.w3.org/2000/svg">
<rect x="2" y="1.5" width="127" height="127" rx="18.5" stroke="#00695D" stroke-width="3"/>
<path d="M56.4795 19.4958C56.8304 19.4293 57.1909 19.433 57.5403 19.5067C57.8897 19.5805 58.2209 19.7229 58.5149 19.9256C58.8089 20.1283 59.0597 20.3873 59.2528 20.6876C59.446 20.988 59.5776 21.3236 59.6401 21.6752C59.7026 22.0268 59.6947 22.3872 59.6169 22.7357C59.5391 23.0842 59.3929 23.4138 59.1868 23.7054C58.9807 23.997 58.7188 24.2448 58.4162 24.4345C58.1137 24.6241 57.7765 24.7519 57.4242 24.8103C40.4769 27.8197 27.203 41.3716 24.5525 58.3972C24.5036 58.7522 24.3844 59.0939 24.202 59.4023C24.0197 59.7108 23.7777 59.9798 23.4902 60.1938C23.2028 60.4077 22.8756 60.5623 22.5278 60.6485C22.18 60.7346 21.8185 60.7507 21.4644 60.6957C21.1103 60.6407 20.7707 60.5157 20.4654 60.328C20.1601 60.1404 19.8953 59.8939 19.6863 59.6028C19.4773 59.3117 19.3283 58.9819 19.2481 58.6327C19.168 58.2834 19.1581 57.9217 19.2192 57.5686C22.2205 38.2623 37.2623 22.9074 56.4795 19.4958ZM21.481 68.7912C21.8312 68.7359 22.1889 68.75 22.5336 68.8329C22.8783 68.9158 23.2033 69.0658 23.4901 69.2743C23.7768 69.4829 24.0197 69.7459 24.2047 70.0483C24.3898 70.3507 24.5135 70.6866 24.5687 71.0368C27.2273 87.8924 40.3176 101.336 57.0706 104.467C57.5268 104.551 57.9829 104.629 58.4417 104.697C58.7923 104.75 59.1289 104.872 59.4324 105.055C59.736 105.238 60.0004 105.479 60.2107 105.765C60.421 106.05 60.573 106.374 60.658 106.719C60.743 107.063 60.7594 107.42 60.7062 107.771C60.6531 108.121 60.5314 108.458 60.3481 108.762C60.1648 109.065 59.9236 109.33 59.6381 109.54C59.3527 109.75 59.0286 109.902 58.6844 109.987C58.3402 110.072 57.9826 110.089 57.632 110.035C57.1132 109.957 56.5958 109.87 56.0801 109.774C37.0815 106.224 22.2529 90.9936 19.2354 71.8789C19.18 71.5287 19.1942 71.1711 19.277 70.8263C19.3599 70.4816 19.5099 70.1566 19.7185 69.8699C19.927 69.5831 20.19 69.3403 20.4924 69.1552C20.7948 68.9701 21.1308 68.8465 21.481 68.7912ZM107.635 68.7643C108.341 68.8758 108.975 69.2634 109.396 69.8419C109.817 70.4204 109.991 71.1424 109.88 71.8493C106.857 91.0935 91.8614 106.397 72.7008 109.833C71.9961 109.959 71.2701 109.8 70.6827 109.391C70.0953 108.981 69.6945 108.356 69.5686 107.651C69.4426 106.946 69.6017 106.22 70.0109 105.633C70.4202 105.045 71.046 104.645 71.7507 104.519C88.6468 101.49 101.88 87.9842 104.55 71.0099C104.652 70.357 104.991 69.7644 105.501 69.3445C106.012 68.9247 106.658 68.7067 107.319 68.7319L107.635 68.7615V68.7643ZM71.5105 19.3069C91.0894 22.2893 106.617 37.6415 109.829 57.1745C109.93 57.8737 109.752 58.5844 109.335 59.1542C108.917 59.724 108.293 60.1075 107.596 60.2223C106.899 60.3371 106.185 60.1741 105.607 59.7683C105.029 59.3625 104.633 58.7462 104.504 58.0517C101.67 40.8237 87.9666 27.2745 70.6981 24.6483C70.0122 24.5503 69.3902 24.1923 68.961 23.6484C68.5318 23.1045 68.3282 22.4163 68.3924 21.7264C68.4565 21.0365 68.7836 20.3977 69.3057 19.9423C69.8279 19.4869 70.5052 19.2497 71.1974 19.2799L71.5105 19.3096V19.3069Z" fill="#00695D"/>
<path d="M58.705 26.9238C59.4037 26.8158 60.1168 26.9863 60.6911 27.3985C61.2654 27.8107 61.6551 28.4317 61.7763 29.1282C61.8976 29.8247 61.7408 30.5409 61.3396 31.1229C60.9384 31.705 60.3248 32.1064 59.6308 32.2409C45.4473 34.7078 34.3515 45.7901 32.1437 59.6956C32.0925 60.0496 31.9715 60.3898 31.7876 60.6965C31.6038 61.0033 31.3608 61.2704 31.0729 61.4825C30.7849 61.6945 30.4577 61.8472 30.1102 61.9317C29.7627 62.0162 29.4019 62.0308 29.0487 61.9746C28.6955 61.9185 28.357 61.7927 28.0529 61.6046C27.7487 61.4165 27.485 61.1699 27.277 60.879C27.069 60.5881 26.9208 60.2587 26.8412 59.9101C26.7616 59.5615 26.752 59.2005 26.8131 58.8481C29.3853 42.6484 42.2651 29.7794 58.705 26.9238ZM29.0587 67.4014C29.4089 67.3464 29.7665 67.361 30.1111 67.4442C30.4556 67.5275 30.7804 67.6778 31.0669 67.8866C31.3534 68.0953 31.5959 68.3585 31.7807 68.661C31.9654 68.9636 32.0888 69.2995 32.1437 69.6497C34.3002 83.3933 44.9021 94.3514 58.4648 96.902C58.8346 96.9695 59.2044 97.0342 59.5714 97.0909C60.2681 97.2104 60.8902 97.5983 61.3039 98.1715C61.7176 98.7447 61.8899 99.4572 61.7839 100.156C61.6778 100.855 61.3019 101.484 60.7367 101.909C60.1716 102.334 59.4625 102.52 58.7617 102.427C58.3286 102.361 57.8967 102.287 57.4662 102.206C41.6579 99.234 29.3232 86.4864 26.8131 70.4864C26.7581 70.1362 26.7727 69.7786 26.8559 69.4341C26.9392 69.0895 27.0895 68.7647 27.2982 68.4782C27.507 68.1917 27.7702 67.9492 28.0727 67.7644C28.3752 67.5797 28.7112 67.4563 29.0614 67.4014H29.0587ZM100.081 67.4014C100.432 67.4575 100.768 67.5822 101.07 67.7682C101.372 67.9542 101.634 68.1979 101.842 68.4854C102.05 68.773 102.199 69.0986 102.281 69.4438C102.363 69.789 102.376 70.147 102.319 70.4972C99.7198 86.6834 86.8534 99.5363 70.4297 102.416C70.0806 102.477 69.7228 102.469 69.3768 102.392C69.0308 102.316 68.7033 102.171 68.4131 101.968C67.8269 101.557 67.428 100.93 67.3042 100.225C67.1804 99.5194 67.3417 98.794 67.7527 98.2079C68.1637 97.6217 68.7907 97.2229 69.4958 97.099C83.6685 94.6132 94.7589 83.5363 96.9883 69.6416C97.0929 68.9883 97.4339 68.3961 97.9464 67.9776C98.4589 67.5592 99.1073 67.3435 99.7683 67.3717L100.081 67.4041V67.4014ZM70.0599 26.8887L70.373 26.9157C86.7023 29.4312 99.6415 42.3812 102.316 58.8427C102.419 59.544 102.242 60.2575 101.823 60.8292C101.404 61.4009 100.777 61.7849 100.078 61.8983C99.378 62.0118 98.6619 61.8454 98.0839 61.4353C97.5059 61.0252 97.1124 60.4042 96.9883 59.7064C94.6887 45.5445 83.5606 34.4109 69.5525 32.2544C68.8706 32.1512 68.254 31.7908 67.8295 31.2473C67.4049 30.7037 67.2045 30.0183 67.2694 29.3317C67.3344 28.645 67.6597 28.0093 68.1786 27.555C68.6976 27.1007 69.3707 26.8623 70.0599 26.8887Z" fill="#00695D"/>
<path d="M69.3511 44.0851L52.6224 63.2807C52.4518 63.476 52.341 63.7162 52.3034 63.9728C52.2657 64.2294 52.3028 64.4913 52.4101 64.7274C52.5175 64.9634 52.6905 65.1635 52.9086 65.3038C53.1267 65.444 53.3806 65.5185 53.6399 65.5182H63.5508L54.9517 82.8164C54.8062 83.1079 54.771 83.4422 54.8527 83.7575C54.9344 84.0729 55.1274 84.348 55.3962 84.5322C55.6649 84.7164 55.9911 84.7972 56.3147 84.7596C56.6383 84.722 56.9374 84.5687 57.1568 84.3279L79.0029 60.4224C79.1792 60.2292 79.2955 59.9889 79.3377 59.7308C79.38 59.4726 79.3463 59.2078 79.2408 58.9684C79.1353 58.7291 78.9625 58.5256 78.7434 58.3826C78.5244 58.2397 78.2685 58.1635 78.0069 58.1633H67.1352L71.6426 45.4238C71.7493 45.1272 71.7489 44.8025 71.6413 44.5062C71.5337 44.2098 71.3258 43.9605 71.0536 43.8015C70.7813 43.6424 70.462 43.5837 70.151 43.6355C69.8401 43.6873 69.557 43.8464 69.3511 44.0851Z" fill="#00695D"/>
</svg>
