<svg width="131" height="130" viewBox="0 0 131 130" fill="none" xmlns="http://www.w3.org/2000/svg">
<rect x="2" y="1.5" width="127" height="127" rx="18.5" stroke="#00695D" stroke-width="3"/>
<path d="M63.8849 92.161C52.6832 92.161 41.4238 92.161 30.2222 92.161C27.6816 92.161 25.2565 91.6991 23.0046 90.4866C18.6164 88.177 15.8448 84.597 14.8632 79.7468C13.7084 73.8573 15.6716 68.8916 20.2331 65.023C23.1201 62.5979 26.5268 61.5586 30.2799 61.5586C53.0874 61.5586 75.8949 61.5586 98.7024 61.5586C102.398 61.5586 105.689 62.6557 108.576 65.023C111.521 67.4481 113.368 70.6238 114.004 74.4347C114.639 78.2456 113.888 81.7678 111.867 84.9435C109.442 88.7544 105.978 91.064 101.589 91.8723C100.608 92.0456 99.6262 92.1033 98.6446 92.1033C87.0388 92.1033 75.4907 92.1033 63.8849 92.1033V92.161ZM64.0004 88.0615C75.6639 88.0615 87.2698 88.0615 98.9334 88.0615C99.5108 88.0615 100.088 88.0615 100.608 87.946C103.553 87.5418 105.978 86.0983 107.825 83.7887C109.731 81.3636 110.539 78.5343 110.135 75.474C109.846 73.3376 109.096 71.4322 107.71 69.8155C105.4 67.0439 102.456 65.7159 98.8179 65.7159C75.8372 65.7159 52.9142 65.7159 29.9335 65.7159C28.1435 65.7159 26.4691 66.0624 24.9101 66.8707C20.8682 68.8916 18.5009 73.0489 18.6741 77.2063C18.9051 81.4791 20.8682 84.6548 24.5636 86.7912C26.3536 87.8305 28.3168 88.0615 30.3377 88.0615C41.5393 88.0615 52.7987 88.0615 64.0004 88.0615Z" fill="#00695D"/>
<path d="M74.1238 48.1623V45.9104C76.087 47.0075 77.9924 48.0468 79.8979 49.1439C77.9924 50.241 76.087 51.2803 74.1238 52.3774V50.1255H53.3372C53.3372 50.1255 53.626 50.4142 53.7414 50.5874C55.3582 52.1464 56.9172 53.7054 58.5339 55.2644C59.1113 55.8418 59.8042 56.0728 60.6126 56.0728C61.6519 56.0728 62.6912 56.0728 63.6728 56.0728C63.9038 56.0728 63.9615 55.9573 63.9615 55.7841C63.9615 55.1489 63.9615 54.5138 63.9615 53.8209H69.9665C69.9665 53.8209 69.9665 54.1096 69.9665 54.2251C69.9665 55.8418 69.9665 57.4585 69.9665 59.133C69.9665 59.4795 69.9088 59.5372 69.5623 59.5372C67.7724 59.5372 66.0402 59.5372 64.2502 59.5372C63.9615 59.5372 63.846 59.4795 63.846 59.133C63.846 58.7866 63.846 58.4979 63.846 58.1514C63.846 57.9205 63.7305 57.805 63.4996 57.805C62.6912 57.805 61.8828 57.805 61.0745 57.805C60.2084 57.805 59.3423 57.805 58.5339 57.3431C58.072 57.1121 57.61 56.8234 57.2059 56.477C55.4159 54.918 53.6837 53.359 51.9515 51.7422C51.605 51.3958 51.2586 50.9916 50.9699 50.5874C50.5657 50.0678 50.046 49.7791 49.4109 49.7791C48.8912 49.7791 48.3138 49.7791 47.7942 49.7791C45.6578 49.7791 43.5214 49.7791 41.385 49.7791C41.385 49.7791 41.2695 49.7791 41.2118 49.7791C41.2118 49.9523 41.2118 50.1255 41.2118 50.2987C41.4427 51.6268 41.0963 52.8393 40.2879 53.9364C39.0754 55.5531 37.4586 56.4192 35.4954 56.7657C33.9365 57.0544 32.3775 57.1121 30.8185 56.7079C29.4904 56.3615 28.5088 55.6108 28.2779 54.1096C28.1624 53.4744 28.2779 52.897 28.2779 52.2619C28.2779 52.0309 28.3934 51.8577 28.6821 51.8577C29.7214 51.8577 30.703 51.8577 31.7423 51.8577C31.8001 51.8577 31.9733 52.0309 31.9733 52.1464C31.9733 52.4929 31.9733 52.7816 31.9733 53.128C31.9733 53.8786 32.3775 54.456 33.0126 54.6293C34.4561 55.0912 35.8996 55.2067 37.1699 54.1673C37.5741 53.8209 37.9783 53.359 38.267 52.897C38.8444 51.9732 38.498 50.9339 37.5164 50.5297C36.8235 50.241 36.0729 50.0678 35.38 49.8368C34.4561 49.4904 33.5323 49.2017 32.6662 48.7975C30.703 47.8736 30.3565 46.1414 31.0494 44.236C31.9155 42.0996 33.6478 40.9448 35.8419 40.5406C37.1699 40.2519 38.5557 40.1364 39.8837 40.4251C40.8076 40.6561 41.5582 41.118 42.1933 41.8109C42.8285 42.5615 42.944 43.4853 42.8285 44.4092C42.7707 44.9866 42.713 44.9866 42.1933 44.9289C41.5005 44.9289 40.7498 44.9289 40.0569 44.9289C39.826 44.9289 39.7105 44.9289 39.7682 44.6402C39.7682 43.4276 39.0176 42.6192 37.8051 42.5615C37.2854 42.5615 36.7657 42.5038 36.2461 42.5615C35.0335 42.8502 34.2829 43.6008 33.8787 44.7556C33.5323 45.7372 33.8787 46.6033 34.8603 46.9498C36.1306 47.4694 37.4009 47.8736 38.7867 47.8159C40.1147 47.7581 41.4427 47.8159 42.7707 47.8159C43.1749 47.8159 43.4636 47.7004 43.7523 47.4117C45.831 45.333 47.9674 43.2544 50.046 41.118C51.0276 40.1364 52.1247 39.6745 53.5105 39.6745C54.6653 39.6745 55.7624 39.6745 56.9172 39.6745C57.1481 39.6745 57.3213 39.6167 57.4368 39.3858C57.9565 38.4619 58.8803 38 59.9197 38C60.8435 38 61.6519 38.3464 62.0561 39.2126C63.1531 41.4644 62.1138 43.4276 59.7464 43.9473C58.6494 44.1782 57.2636 43.2544 56.8594 42.1573C56.7439 41.8109 56.5707 41.6954 56.2243 41.6954C55.2427 41.6954 54.2611 41.6954 53.2795 41.8109C52.7021 41.8109 52.1824 42.1573 51.7783 42.5615C49.9883 44.3515 48.1984 46.1414 46.4084 47.9891C46.4084 47.9891 46.3507 48.1046 46.2352 48.2201H73.9506L74.1238 48.1623Z" fill="#00695D"/>
<path d="M95.278 58.7866C95.278 58.7866 94.9893 58.7866 94.8738 58.7866C93.6613 58.7866 92.391 58.7866 91.1784 58.7866C90.9475 58.7866 90.832 58.7288 90.8897 58.4979C90.8897 51.7422 90.8897 44.9289 90.8897 38.1732C90.8897 38.1732 90.8897 38.0577 90.8897 38C91.0629 38 91.1784 38 91.3516 38C95.9131 38 100.417 38 104.978 38C106.942 38 108.732 38.4042 110.406 39.3858C111.85 40.1941 113.004 41.4067 113.986 42.7347C115.141 44.2937 115.545 46.0837 115.834 47.9891C115.949 48.8552 116.065 49.6636 115.834 50.4719C115.718 50.9339 115.603 51.3958 115.372 51.8577C114.967 52.7238 114.621 53.6477 114.044 54.3983C113.524 55.1489 112.831 55.8418 112.138 56.4769C110.291 58.1514 108.096 58.9598 105.556 58.9598C103.477 58.9598 101.398 58.9598 99.3198 58.9598C98.9734 58.9598 98.8579 58.8443 98.8579 58.4979C98.8579 57.4008 98.8579 56.246 98.8579 55.1489C98.8579 54.8602 98.9734 54.7447 99.2621 54.7447C101.052 54.7447 102.842 54.7447 104.69 54.7447C106.768 54.7447 108.558 53.8786 109.655 52.0887C110.233 51.1648 110.579 50.1255 110.579 49.0284C110.579 47.5849 110.233 46.2569 109.424 45.0443C109.367 44.9289 109.309 44.8134 109.193 44.6979C108.039 43.6008 106.768 42.6192 105.152 42.2151C104.863 42.1573 104.574 42.0996 104.286 42.0996C101.341 42.0996 98.4537 42.0996 95.509 42.0996C95.4512 42.0996 95.3357 42.0996 95.2202 42.0996V58.9598L95.278 58.7866Z" fill="#00695D"/>
<path d="M27.2708 44.9262C26.9243 44.9262 26.5202 44.9262 26.1737 44.9262C25.885 44.9262 25.7695 44.8685 25.7695 44.5798C25.7695 44.4065 25.7695 44.2333 25.7118 44.0601C25.5963 43.2517 25.0766 42.7321 24.326 42.5588C23.3444 42.3279 22.3051 42.3856 21.3813 42.9053C20.6306 43.3095 20.111 43.9446 19.88 44.753C19.649 45.5613 19.8223 46.4852 20.6884 46.8316C21.67 47.1781 22.7093 47.4668 23.6909 47.8132C24.4415 48.0442 25.1921 48.2751 25.885 48.5638C27.5017 49.2567 27.9059 50.758 27.444 52.3747C26.9821 54.0492 25.885 55.2617 24.326 56.0124C22.0741 57.1672 19.7068 57.3404 17.3394 56.8207C15.2608 56.3588 14.3947 55.0885 14.5101 53.0099C14.5101 52.7212 14.6256 52.4325 14.6256 52.1438C14.6256 51.8551 14.7411 51.7973 14.9721 51.7973C15.7804 51.7973 16.5888 51.7973 17.4549 51.7973C17.5126 51.7973 17.6859 51.9705 17.6859 52.0283C17.6859 52.3747 17.6859 52.6634 17.6859 53.0099C17.7436 54.1069 18.2633 54.7421 19.3026 54.9153C20.3419 55.0885 21.3813 55.1463 22.4206 54.6843C23.1712 54.2802 23.7486 53.7027 24.0373 52.8944C24.4415 51.8551 24.1528 50.9312 23.1135 50.527C22.3051 50.2383 21.439 50.0074 20.6306 49.7764C19.5336 49.43 18.4942 49.0835 17.5704 48.3906C16.762 47.8132 16.2424 46.7739 16.4733 45.6768C16.993 42.9053 19.0139 41.0576 21.9009 40.5379C23.229 40.307 24.557 40.1915 25.885 40.5957C26.7511 40.8266 27.5017 41.2885 28.1946 41.8082C28.772 42.2124 28.772 42.8475 28.8298 43.4827C28.8298 43.7136 28.8298 44.0024 28.8298 44.2333C28.7143 44.8685 28.7143 44.8685 28.0792 44.8107C27.7905 44.8107 27.5017 44.8107 27.213 44.8107L27.2708 44.9262Z" fill="#00695D"/>
<path d="M99.4297 52.2615V44.582C99.4297 44.582 99.6606 44.582 99.7761 44.582C101.335 44.582 102.836 44.582 104.395 44.582C105.031 44.582 105.723 44.7553 106.359 44.9285C107.398 45.2172 107.802 46.141 108.091 47.0071C108.379 47.9887 108.322 49.028 107.918 49.9519C107.398 51.1067 106.474 52.0306 105.088 52.0883C103.241 52.2038 101.335 52.2038 99.4297 52.2038V52.2615Z" fill="#00695D"/>
<path d="M64.7443 81.303C55.4481 81.303 46.0942 81.303 36.7979 81.303C36.2205 81.303 35.6431 81.303 35.0657 81.1876C33.3335 80.9566 31.7745 79.5131 31.4858 77.8386C31.0816 75.9332 31.89 74.1432 33.5067 73.1039C34.3151 72.5842 35.1812 72.4688 36.105 72.4688C39.9737 72.4688 43.8423 72.4688 47.7109 72.4688C62.7811 72.4688 77.8514 72.4688 92.9217 72.4688C95.0581 72.4688 96.7903 73.739 97.3677 75.76C98.0606 78.3583 96.1551 81.0721 93.4413 81.2453C92.633 81.2453 91.8246 81.303 91.074 81.303C82.2974 81.303 73.5209 81.303 64.8021 81.303H64.7443Z" fill="#00695D"/>
</svg>
