<svg width="60" height="60" viewBox="0 0 60 60" fill="none" xmlns="http://www.w3.org/2000/svg">
<path d="M16.0322 46.0882C16.2856 46.3414 16.6292 46.4837 16.9875 46.4837C17.3458 46.4837 17.6894 46.3414 17.9429 46.0882L22.003 42.0299C22.1289 41.9047 22.2288 41.756 22.297 41.5921C22.3652 41.4282 22.4003 41.2525 22.4003 41.075C22.4003 40.8975 22.3652 40.7217 22.297 40.5578C22.2288 40.394 22.1289 40.2452 22.003 40.1201L16.7492 34.8681C16.4958 34.6149 16.1522 34.4726 15.7939 34.4726C15.4356 34.4726 15.092 34.6149 14.8386 34.8681L10.7784 38.9264C10.6525 39.0516 10.5526 39.2003 10.4844 39.3642C10.4163 39.5281 10.3812 39.7038 10.3812 39.8813C10.3812 40.0588 10.4163 40.2346 10.4844 40.3985C10.5526 40.5623 10.6525 40.7111 10.7784 40.8362L16.0322 46.0882ZM15.7934 37.7337L19.1365 41.0759L16.9871 43.2244L13.644 39.8822L15.7934 37.7337ZM24.0994 38.0254C24.3529 38.2786 24.6965 38.4209 25.0548 38.4209C25.4131 38.4209 25.7567 38.2786 26.0101 38.0254L30.0702 33.9671C30.1961 33.842 30.296 33.6932 30.3642 33.5293C30.4324 33.3654 30.4675 33.1897 30.4675 33.0122C30.4675 32.8347 30.4324 32.6589 30.3642 32.4951C30.296 32.3312 30.1961 32.1824 30.0702 32.0573L24.8156 26.8054C24.5622 26.5521 24.2185 26.4099 23.8603 26.4099C23.502 26.4099 23.1584 26.5521 22.9049 26.8054L18.8448 30.8637C18.7189 30.9888 18.619 31.1376 18.5508 31.3014C18.4826 31.4653 18.4475 31.6411 18.4475 31.8186C18.4475 31.9961 18.4826 32.1718 18.5508 32.3357C18.619 32.4996 18.7189 32.6483 18.8448 32.7735L24.0994 38.0254ZM23.8598 29.6709L27.2046 33.0131L25.0507 35.1616L21.7068 31.8195L23.8598 29.6709ZM32.1667 29.9626C32.4201 30.2159 32.7637 30.3581 33.122 30.3581C33.4803 30.3581 33.8239 30.2159 34.0774 29.9626L38.1375 25.9043C38.2632 25.7792 38.3631 25.6305 38.4312 25.4667C38.4993 25.3029 38.5343 25.1273 38.5343 24.9499C38.5343 24.7725 38.4993 24.5968 38.4312 24.433C38.3631 24.2692 38.2632 24.1205 38.1375 23.9954L32.8829 18.7435C32.6294 18.4902 32.2858 18.348 31.9275 18.348C31.5692 18.348 31.2256 18.4902 30.9722 18.7435L26.9121 22.8018C26.7862 22.9269 26.6862 23.0757 26.6181 23.2396C26.5499 23.4035 26.5148 23.5792 26.5148 23.7567C26.5148 23.9342 26.5499 24.1099 26.6181 24.2738C26.6862 24.4377 26.7862 24.5865 26.9121 24.7116L32.1667 29.9626ZM31.928 21.6082L35.2719 24.9503L33.1225 27.0988L29.7776 23.7567L31.928 21.6082ZM40.233 21.8999C40.4865 22.1531 40.8301 22.2954 41.1884 22.2954C41.5467 22.2954 41.8903 22.1531 42.1437 21.8999L46.2038 17.8415C46.3297 17.7164 46.4297 17.5677 46.4978 17.4038C46.566 17.2399 46.6011 17.0642 46.6011 16.8867C46.6011 16.7092 46.566 16.5334 46.4978 16.3695C46.4297 16.2056 46.3297 16.0569 46.2038 15.9318L40.9501 10.6798C40.6967 10.4266 40.353 10.2843 39.9948 10.2843C39.6365 10.2843 39.2929 10.4266 39.0394 10.6798L34.9793 14.7381C34.8534 14.8632 34.7535 15.012 34.6853 15.1759C34.6171 15.3398 34.582 15.5155 34.582 15.693C34.582 15.8705 34.6171 16.0463 34.6853 16.2102C34.7535 16.374 34.8534 16.5228 34.9793 16.6479L40.233 21.8999ZM39.9952 13.5454L43.3383 16.8875L41.1888 19.0361L37.8449 15.6939L39.9952 13.5454ZM58.9621 15.7944L54.3671 11.2013C54.1016 10.9363 53.7601 10.7607 53.39 10.6991C53.02 10.6375 52.64 10.6929 52.303 10.8575C51.8636 11.0829 51.364 11.163 50.8761 11.0864C50.3883 11.0098 49.9373 10.7804 49.5881 10.4312C49.239 10.0821 49.0096 9.63109 48.933 9.14324C48.8564 8.65539 48.9365 8.15582 49.1619 7.71642C49.3268 7.37944 49.3823 6.99935 49.3207 6.62927C49.2591 6.25919 49.0834 5.91761 48.8181 5.65226L44.3174 1.1533C43.9851 0.822283 43.5901 0.56086 43.1556 0.384335C42.721 0.20781 42.2557 0.119728 41.7867 0.125244C41.3177 0.13076 40.8545 0.229762 40.4242 0.416457C39.994 0.603153 39.6052 0.873792 39.2808 1.21254L1.1182 39.35C0.464042 39.9986 0.0706165 40.8646 0.0125353 41.7839C-0.0222674 42.2713 0.0484708 42.7604 0.219923 43.2179C0.391376 43.6754 0.659507 44.0906 1.00602 44.435L5.52383 48.9484C5.79376 49.217 6.14187 49.3933 6.5182 49.4518C6.89452 49.5104 7.27972 49.4481 7.6185 49.2741C8.04223 49.0436 8.53213 48.9652 9.00666 49.0519C9.48118 49.1386 9.91169 49.3852 10.2265 49.7507C10.5933 50.0609 10.8419 50.4881 10.9303 50.9603C11.0188 51.4324 10.9417 51.9206 10.712 52.3426C10.5378 52.6764 10.4758 53.0575 10.5353 53.4293C10.5948 53.8012 10.7726 54.1439 11.0423 54.4067L15.6534 58.9541C16.0038 59.2731 16.4139 59.5196 16.8599 59.6793C17.306 59.839 17.7793 59.9089 18.2525 59.8848H18.2642C18.7366 59.91 19.2094 59.8414 19.6552 59.6829C20.101 59.5244 20.5109 59.2791 20.8614 58.9613L32.2726 47.6794C32.4404 47.5125 32.5736 47.3142 32.6645 47.0957C32.7554 46.8772 32.8022 46.6429 32.8022 46.4063C32.8022 46.1697 32.7554 45.9354 32.6645 45.7169C32.5736 45.4984 32.4404 45.3001 32.2726 45.1333L31.0036 43.8598L32.2771 42.5872L33.5515 43.8607C33.8892 44.1984 34.3473 44.3881 34.825 44.3881C35.3026 44.3881 35.7607 44.1984 36.0985 43.8607L59.0249 20.9459C59.3656 20.6 59.6321 20.1882 59.8082 19.7357C59.9843 19.2833 60.0662 18.7997 60.0489 18.3145C60.0232 17.3657 59.6341 16.463 58.9621 15.7926V15.7944ZM53.2893 21.5822L51.3759 19.6706C51.0364 19.3412 50.581 19.1586 50.1081 19.1622C49.6351 19.1658 49.1825 19.3553 48.8481 19.6897C48.5136 20.0242 48.3242 20.4768 48.3206 20.9497C48.317 21.4227 48.4996 21.8781 48.8289 22.2176L50.7396 24.1273L48.8289 26.0371L46.9182 24.1273C46.751 23.9601 46.5526 23.8274 46.3341 23.7369C46.1156 23.6464 45.8815 23.5998 45.645 23.5997C45.4086 23.5997 45.1744 23.6462 44.9559 23.7367C44.7374 23.8271 44.5389 23.9597 44.3717 24.1269C44.2044 24.2941 44.0718 24.4926 43.9812 24.711C43.8907 24.9295 43.8441 25.1636 43.844 25.4001C43.844 25.6365 43.8905 25.8707 43.981 26.0892C44.0714 26.3077 44.204 26.5062 44.3712 26.6734L46.2819 28.5832L44.3757 30.4921L42.4641 28.5823C42.1246 28.253 41.6693 28.0704 41.1963 28.074C40.7233 28.0776 40.2708 28.2671 39.9363 28.6015C39.6019 28.936 39.4124 29.3885 39.4088 29.8615C39.4052 30.3344 39.5878 30.7898 39.9171 31.1293L41.8278 33.0391L39.9171 34.9489L38.0038 33.0382C37.8366 32.871 37.6381 32.7383 37.4196 32.6478C37.2012 32.5572 36.967 32.5106 36.7306 32.5106C36.4941 32.5105 36.26 32.5571 36.0415 32.6475C35.823 32.738 35.6245 32.8706 35.4572 33.0378C35.29 33.2049 35.1573 33.4034 35.0668 33.6219C34.9762 33.8403 34.9296 34.0745 34.9296 34.3109C34.9295 34.5474 34.9761 34.7816 35.0665 35.0001C35.157 35.2185 35.2896 35.4171 35.4568 35.5843L37.3675 37.4941L34.8196 40.0402L33.5452 38.7667C33.2073 38.4292 32.7493 38.2397 32.2717 38.2397C31.7941 38.2397 31.3361 38.4292 30.9982 38.7667L27.1768 42.5863C27.009 42.7531 26.8758 42.9514 26.7849 43.1699C26.694 43.3884 26.6472 43.6227 26.6472 43.8593C26.6472 44.096 26.694 44.3302 26.7849 44.5487C26.8758 44.7672 27.009 44.9656 27.1768 45.1324L28.4503 46.4059L25.9033 48.9528L23.9917 47.0422C23.8246 46.8749 23.6261 46.7422 23.4076 46.6517C23.1892 46.5612 22.955 46.5146 22.7186 46.5145C22.4821 46.5145 22.2479 46.561 22.0294 46.6515C21.811 46.7419 21.6124 46.8745 21.4452 47.0417C21.278 47.2089 21.1453 47.4074 21.0548 47.6258C20.9642 47.8443 20.9176 48.0784 20.9176 48.3149C20.9175 48.5514 20.9641 48.7855 21.0545 49.004C21.145 49.2225 21.2776 49.421 21.4447 49.5882L23.3563 51.4998L22.0828 52.7733L20.1713 50.8626C19.8336 50.5249 19.3756 50.3351 18.8981 50.335C18.4205 50.3349 17.9625 50.5246 17.6247 50.8622C17.287 51.1998 17.0972 51.6578 17.0971 52.1354C17.097 52.6129 17.2866 53.071 17.6243 53.4087L19.5359 55.3203L18.3351 56.522C18.2919 56.5356 18.2462 56.5396 18.2013 56.5337L14.4042 52.7374C14.6142 51.755 14.575 50.7357 14.2901 49.7723C14.0052 48.809 13.4837 47.9323 12.7731 47.2222C12.0625 46.512 11.1855 45.9911 10.222 45.7068C9.25845 45.4225 8.23908 45.3839 7.25682 45.5946L3.62122 41.9607C3.63231 41.9378 3.64717 41.9169 3.66519 41.8988L41.8305 3.76401L45.4697 7.40141C45.2349 8.38718 45.2565 9.41668 45.5325 10.3917C45.8085 11.3668 46.3298 12.2548 47.0465 12.9712C47.7632 13.6876 48.6516 14.2083 49.6267 14.4839C50.6019 14.7594 51.6314 14.7805 52.6171 14.5452L56.4142 18.3414C56.4349 18.3621 56.4474 18.4231 56.4726 18.3998L53.2893 21.5822Z" fill="#053B6C"/>
</svg>
