<svg width="54" height="54" viewBox="0 0 54 54" fill="none" xmlns="http://www.w3.org/2000/svg">
<path d="M21.6154 45.1292C26.0263 38.9653 30.59 33.4937 33.9814 29.6421C35.9835 27.3683 37.864 25.3002 39.6638 23.4398C41.2927 21.7559 42.9077 20.212 44.4601 18.7593C47.1064 16.2826 50.2001 13.5391 52.1456 12.3641L49.661 9.07031C46.0588 11.324 42.5913 13.7312 39.914 15.5809C38.3538 16.659 36.9061 17.6952 35.5417 18.6822C34.1901 19.66 32.7946 20.7338 31.3232 21.8603C28.7687 23.8158 25.4867 26.4445 22.3087 29.1609L14.334 21.6291L4.97266 29.0068L21.6154 45.1292Z" fill="#74BC1F"/>
</svg>
