<svg width="64" height="64" viewBox="0 0 64 64" fill="none" xmlns="http://www.w3.org/2000/svg">
<path d="M55.625 12H7.125V9.5625C7.125 8.69956 6.42544 8 5.5625 8C4.69956 8 4 8.69956 4 9.5625V54.4375C4 55.3004 4.69956 56 5.5625 56C6.42544 56 7.125 55.3004 7.125 54.4375V44H12.125V47.625C12.125 50.0412 14.0837 52 16.5 52H27.75C30.1663 52 32.125 50.0412 32.125 47.625V44H35.25V47.625C35.25 50.0412 37.2088 52 39.625 52H46.5C48.9162 52 50.875 50.0412 50.875 47.625V44H55.625C58.0412 44 60 42.0412 60 39.625V16.375C60 13.9587 58.0412 12 55.625 12ZM29 47.625C29 48.3143 28.4393 48.875 27.75 48.875H16.5C15.8108 48.875 15.25 48.3143 15.25 47.625V44H29V47.625ZM47.75 47.625C47.75 48.3143 47.1893 48.875 46.5 48.875H39.625C38.9357 48.875 38.375 48.3143 38.375 47.625V44H47.75V47.625ZM56.875 39.625C56.875 40.3143 56.3143 40.875 55.625 40.875H7.125V15.125H55.625C56.3143 15.125 56.875 15.6858 56.875 16.375V39.625Z" fill="#053B6C"/>
<path d="M43.4375 17.6875C37.7421 17.6875 33.125 22.3046 33.125 28C33.125 33.6954 37.7421 38.3125 43.4375 38.3125C49.1329 38.3125 53.75 33.6954 53.75 28C53.75 22.3046 49.1329 17.6875 43.4375 17.6875ZM48.5198 33.0823C47.1623 34.4399 45.3574 35.1875 43.4375 35.1875C41.5176 35.1875 39.7127 34.4399 38.3552 33.0823C36.9976 31.7248 36.25 29.9199 36.25 28C36.25 26.0801 36.9976 24.2752 38.3552 22.9177C39.7127 21.5601 41.5176 20.8125 43.4375 20.8125C45.3574 20.8125 47.1623 21.5601 48.5198 22.9177C49.8774 24.2752 50.625 26.0801 50.625 28C50.625 29.9199 49.8774 31.7248 48.5198 33.0823Z" fill="#053B6C"/>
<path d="M46.5625 26.4375H45V24.875C45 24.0121 44.3004 23.3125 43.4375 23.3125C42.5746 23.3125 41.875 24.0121 41.875 24.875V26.4375H40.3125C39.4496 26.4375 38.75 27.1371 38.75 28C38.75 28.8629 39.4496 29.5625 40.3125 29.5625H41.875V31.125C41.875 31.9879 42.5746 32.6875 43.4375 32.6875C44.3004 32.6875 45 31.9879 45 31.125V29.5625H46.5625C47.4254 29.5625 48.125 28.8629 48.125 28C48.125 27.1371 47.4254 26.4375 46.5625 26.4375ZM26.1875 20.1875H13.0625C12.1996 20.1875 11.5 20.8871 11.5 21.75C11.5 22.6129 12.1996 23.3125 13.0625 23.3125H26.1875C27.0504 23.3125 27.75 22.6129 27.75 21.75C27.75 20.8871 27.0504 20.1875 26.1875 20.1875ZM26.1875 26.4375H13.0625C12.1996 26.4375 11.5 27.1371 11.5 28C11.5 28.8629 12.1996 29.5625 13.0625 29.5625H26.1875C27.0504 29.5625 27.75 28.8629 27.75 28C27.75 27.1371 27.0504 26.4375 26.1875 26.4375ZM26.1875 32.6875H13.0625C12.1996 32.6875 11.5 33.3871 11.5 34.25C11.5 35.1129 12.1996 35.8125 13.0625 35.8125H26.1875C27.0504 35.8125 27.75 35.1129 27.75 34.25C27.75 33.3871 27.0504 32.6875 26.1875 32.6875Z" fill="#053B6C"/>
</svg>
