<svg width="80" height="80" viewBox="0 0 80 80" fill="none" xmlns="http://www.w3.org/2000/svg">
<path d="M3.33594 54.7725V26.0608C3.33594 22.7135 6.04945 20 9.39674 20H69.6965C73.0438 20 75.7573 22.7135 75.7573 26.0608V54.7725C75.7573 58.1198 73.0438 60.8333 69.6965 60.8333H9.39673C6.04945 60.8333 3.33594 58.1198 3.33594 54.7725Z" stroke="#053B6C" stroke-width="4" stroke-linecap="round"/>
<path d="M15.3762 47.8322C14.5475 47.8322 13.7983 47.6975 13.1285 47.4282C12.4656 47.152 11.8994 46.7688 11.4298 46.2785C10.9672 45.7882 10.6116 45.2116 10.363 44.5487C10.1144 43.8858 9.99011 43.1711 9.99011 42.4047V41.9904C9.99011 41.1134 10.1179 40.3193 10.3733 39.6081C10.6288 38.8968 10.9845 38.2892 11.4402 37.7851C11.8959 37.2741 12.4346 36.884 13.056 36.6147C13.6775 36.3453 14.3507 36.2107 15.0758 36.2107C15.8768 36.2107 16.5777 36.3453 17.1784 36.6147C17.7792 36.884 18.2764 37.2637 18.67 37.754C19.0705 38.2374 19.3674 38.814 19.5607 39.4838C19.761 40.1536 19.8611 40.8924 19.8611 41.7003V42.7672H11.202V40.9753H17.3959V40.7785C17.3821 40.3297 17.2924 39.9084 17.1266 39.5148C16.9678 39.1212 16.7227 38.8036 16.3912 38.5619C16.0598 38.3202 15.6179 38.1994 15.0654 38.1994C14.6511 38.1994 14.2817 38.2892 13.9571 38.4687C13.6395 38.6413 13.3737 38.8934 13.1596 39.2248C12.9455 39.5563 12.7798 39.9568 12.6624 40.4263C12.5519 40.889 12.4967 41.4103 12.4967 41.9904V42.4047C12.4967 42.8949 12.5623 43.3507 12.6935 43.7719C12.8316 44.1862 13.0319 44.5487 13.2942 44.8595C13.5566 45.1702 13.8743 45.4153 14.2472 45.5949C14.62 45.7675 15.0447 45.8538 15.5212 45.8538C16.1219 45.8538 16.6571 45.733 17.1266 45.4913C17.5962 45.2496 18.0036 44.9078 18.3489 44.4659L19.6643 45.7399C19.4226 46.092 19.1084 46.4304 18.7217 46.7549C18.335 47.0726 17.862 47.3315 17.3027 47.5318C16.7503 47.732 16.1081 47.8322 15.3762 47.8322ZM23.1134 32.544H25.4336L29.7942 44.1759L34.1445 32.544H36.4647L30.7057 47.625H28.862L23.1134 32.544ZM22.057 32.544H24.2632L24.6464 42.6118V47.625H22.057V32.544ZM35.3149 32.544H37.5315V47.625H34.9317V42.6118L35.3149 32.544ZM41.6746 32.544H43.9948L48.3554 44.1759L52.7057 32.544H55.0259L49.2669 47.625H47.4232L41.6746 32.544ZM40.6181 32.544H42.8244L43.2076 42.6118V47.625H40.6181V32.544ZM53.8761 32.544H56.0927V47.625H53.4929V42.6118L53.8761 32.544ZM68.087 42.7154H70.6765C70.5936 43.7028 70.3174 44.5833 69.8479 45.3566C69.3783 46.1231 68.7189 46.7273 67.8695 47.1693C67.0202 47.6112 65.9879 47.8322 64.7725 47.8322C63.8403 47.8322 63.0014 47.6664 62.2556 47.335C61.5098 46.9966 60.8711 46.5202 60.3394 45.9056C59.8077 45.2841 59.4003 44.5349 59.1172 43.658C58.841 42.781 58.7029 41.8005 58.7029 40.7163V39.463C58.7029 38.3789 58.8444 37.3984 59.1275 36.5214C59.4176 35.6445 59.8319 34.8953 60.3705 34.2738C60.9091 33.6454 61.5547 33.1655 62.3074 32.8341C63.067 32.5026 63.9198 32.3369 64.8658 32.3369C66.0673 32.3369 67.0823 32.5578 67.911 32.9998C68.7396 33.4417 69.3818 34.0528 69.8375 34.8331C70.3002 35.6134 70.5833 36.5076 70.6869 37.5158H68.0974C68.0284 36.8667 67.8764 36.3108 67.6417 35.8482C67.4138 35.3855 67.0754 35.0334 66.6266 34.7917C66.1778 34.5431 65.5908 34.4188 64.8658 34.4188C64.2719 34.4188 63.754 34.5293 63.3121 34.7502C62.8702 34.9712 62.5007 35.2958 62.2038 35.7239C61.9069 36.152 61.6825 36.6803 61.5306 37.3086C61.3855 37.9301 61.313 38.6413 61.313 39.4423V40.7163C61.313 41.4759 61.3786 42.1664 61.5098 42.7879C61.6479 43.4025 61.8551 43.9307 62.1313 44.3726C62.4144 44.8146 62.7735 45.1564 63.2085 45.3981C63.6435 45.6398 64.1649 45.7606 64.7725 45.7606C65.5114 45.7606 66.1087 45.6432 66.5644 45.4084C67.0271 45.1737 67.3758 44.8318 67.6106 44.383C67.8523 43.9273 68.0111 43.3714 68.087 42.7154Z" fill="#053B6C"/>
</svg>
