<svg width="289" height="280" viewBox="0 0 289 280" fill="none" xmlns="http://www.w3.org/2000/svg">
<path d="M0 274L28.2739 279.824L19.1806 252.426L0 274ZM15.0384 271.216C18.1341 269.96 21.2376 268.615 24.3469 267.186L22.2588 262.643C19.215 264.042 16.181 265.357 13.1586 266.583L15.0384 271.216ZM33.4698 262.763C36.4424 261.248 39.419 259.661 42.3978 258.005L39.9684 253.635C37.0399 255.263 34.1165 256.822 31.1997 258.308L33.4698 262.763ZM51.1297 252.961C53.9879 251.249 56.8469 249.476 59.7052 247.648L57.011 243.436C54.1922 245.239 51.3747 246.985 48.5601 248.672L51.1297 252.961ZM68.1336 242.095C70.8989 240.22 73.6624 238.296 76.4227 236.326L73.5173 232.256C70.7888 234.204 68.0586 236.105 65.3281 237.956L68.1336 242.095ZM84.5594 230.376C87.228 228.38 89.8924 226.342 92.5515 224.267L89.4749 220.325C86.8418 222.381 84.2044 224.397 81.5641 226.373L84.5594 230.376ZM100.43 217.993C103.027 215.886 105.616 213.745 108.199 211.572L104.98 207.746C102.419 209.901 99.8521 212.023 97.2795 214.111L100.43 217.993ZM115.845 205.03C118.366 202.838 120.877 200.618 123.38 198.373L120.041 194.651C117.557 196.88 115.064 199.083 112.564 201.257L115.845 205.03ZM130.821 191.599C133.28 189.328 135.73 187.034 138.168 184.72L134.726 181.093C132.304 183.392 129.871 185.671 127.429 187.926L130.821 191.599ZM145.412 177.755C147.811 175.418 150.198 173.065 152.572 170.696L149.04 167.156C146.68 169.511 144.308 171.851 141.924 174.173L145.412 177.755ZM159.647 163.552C161.992 161.158 164.322 158.75 166.638 156.332L163.026 152.874C160.723 155.279 158.406 157.673 156.075 160.054L159.647 163.552ZM173.552 149.034C175.847 146.586 178.126 144.129 180.388 141.667L176.706 138.285C174.455 140.735 172.188 143.179 169.904 145.615L173.552 149.034ZM187.143 134.24C189.392 131.741 191.624 129.239 193.835 126.736L190.088 123.426C187.887 125.917 185.666 128.407 183.427 130.894L187.143 134.24ZM200.457 119.171C202.66 116.63 204.842 114.091 207.001 111.555L203.194 108.313C201.044 110.838 198.872 113.366 196.679 115.895L200.457 119.171ZM213.469 103.892C215.636 101.302 217.778 98.7181 219.893 96.1442L216.031 92.9692C213.924 95.5322 211.791 98.1047 209.634 100.684L213.469 103.892ZM226.244 88.3502C228.366 85.7241 230.458 83.1111 232.52 80.5143L228.604 77.4052C226.551 79.9912 224.467 82.5932 222.355 85.2082L226.244 88.3502ZM238.719 72.6398C240.804 69.9676 242.855 67.3163 244.869 64.6893L240.902 61.6465C238.896 64.2624 236.854 66.9026 234.777 69.5636L238.719 72.6398ZM250.96 56.6767C253.008 53.9583 255.014 51.271 256.976 48.6188L252.957 45.6451C251.003 48.2856 249.006 50.9613 246.967 53.668L250.96 56.6767ZM262.917 40.5133C264.925 37.7472 266.88 35.0264 268.78 32.3558L264.706 29.4569C262.815 32.1146 260.869 34.8226 258.87 37.576L262.917 40.5133ZM274.565 24.1398C276.537 21.309 278.438 18.546 280.267 15.8574L276.133 13.0453C274.315 15.7183 272.424 18.4662 270.462 21.2822L274.565 24.1398ZM285.876 7.50174C286.806 6.09734 287.712 4.71821 288.594 3.36553L284.406 0.63447C283.53 1.97723 282.63 3.34668 281.707 4.74167L285.876 7.50174Z" fill="#053B6C"/>
</svg>
