<svg width="272" height="284" viewBox="0 0 272 284" fill="none" xmlns="http://www.w3.org/2000/svg">
<path d="M271.5 269.5L246.97 254.282L246.055 283.135L271.5 269.5ZM0.606681 1.72251C1.08 3.29038 1.57333 4.88567 2.08662 6.50694L6.85342 4.99776C6.34675 3.3974 5.86004 1.8235 5.39332 0.277489L0.606681 1.72251ZM5.27622 16.1585C6.34731 19.2731 7.48411 22.4645 8.68645 25.724L13.3775 23.9937C12.1877 20.7682 11.0633 17.6116 10.0044 14.5325L5.27622 16.1585ZM12.2967 35.2071C13.5081 38.2943 14.7741 41.4316 16.0945 44.6126L20.7125 42.6957C19.4045 39.5447 18.1507 36.4375 16.9512 33.3807L12.2967 35.2071ZM20.072 53.9441C21.4083 56.9993 22.7924 60.0874 24.2242 63.2031L28.7674 61.1152C27.3485 58.0277 25.977 54.9677 24.653 51.9404L20.072 53.9441ZM28.548 72.3891C30.0024 75.4073 31.5003 78.4458 33.0414 81.4998L37.5052 79.2473C35.978 76.2208 34.4936 73.2096 33.0522 70.2185L28.548 72.3891ZM37.6878 90.5019C39.2515 93.4644 40.8552 96.4371 42.4989 99.4158L46.8766 97.0002C45.2481 94.0489 43.6591 91.1034 42.1096 88.1679L37.6878 90.5019ZM47.482 108.249C49.1626 111.163 50.8812 114.079 52.6378 116.992L56.92 114.411C55.1803 111.525 53.4781 108.637 51.8133 105.751L47.482 108.249ZM57.9675 125.639C59.7616 128.485 61.5922 131.326 63.459 134.158L67.6334 131.406C65.7857 128.603 63.9737 125.791 62.1974 122.973L57.9675 125.639ZM69.1317 142.568C71.0488 145.346 73.0014 148.111 74.9894 150.86L79.0411 147.931C77.075 145.212 75.1436 142.476 73.2469 139.728L69.1317 142.568ZM81.0343 159.023C83.0764 161.715 85.1533 164.387 87.2651 167.037L91.1753 163.921C89.0889 161.303 87.0364 158.662 85.0178 156.001L81.0343 159.023ZM93.6927 174.901C95.868 177.495 98.0779 180.063 100.322 182.601L104.068 179.289C101.853 176.784 99.6718 174.249 97.5239 171.688L93.6927 174.901ZM107.157 190.122C109.471 192.599 111.82 195.043 114.203 197.451L117.757 193.933C115.408 191.561 113.093 189.151 110.811 186.709L107.157 190.122ZM121.467 204.571C123.927 206.91 126.421 209.209 128.951 211.464L132.278 207.732C129.79 205.513 127.334 203.25 124.912 200.948L121.467 204.571ZM136.657 218.108C139.268 220.282 141.914 222.41 144.596 224.486L147.657 220.533C145.024 218.494 142.424 216.404 139.857 214.266L136.657 218.108ZM152.765 230.575C155.53 232.555 158.329 234.481 161.164 236.347L163.914 232.172C161.135 230.342 158.389 228.453 155.677 226.511L152.765 230.575ZM169.791 241.778C172.707 243.531 175.659 245.22 178.646 246.844L181.034 242.451C178.111 240.862 175.222 239.209 172.366 237.493L169.791 241.778ZM187.72 251.514C190.779 253.002 193.873 254.419 197.002 255.763L198.975 251.169C195.919 249.856 192.896 248.472 189.907 247.018L187.72 251.514ZM206.483 259.565C209.669 260.753 212.891 261.864 216.147 262.896L217.656 258.129C214.481 257.123 211.339 256.039 208.23 254.88L206.483 259.565ZM225.958 265.728C229.241 266.585 232.558 267.361 235.908 268.05L236.916 263.153C233.652 262.481 230.421 261.726 227.221 260.891L225.958 265.728ZM245.979 269.849C249.332 270.357 252.717 270.779 256.134 271.113L256.62 266.136C253.291 265.811 249.994 265.4 246.727 264.905L245.979 269.849Z" fill="#053B6C"/>
</svg>
