<svg width="68" height="68" viewBox="0 0 68 68" fill="none" xmlns="http://www.w3.org/2000/svg">
<path d="M52.9746 33.0004H45.1371C45.1371 30.739 44.4521 28.6471 43.2882 26.8939L50.3007 22.2828C52.3559 20.9348 52.2675 17.8926 50.1313 16.6625L47.9878 15.4323C46.4114 14.5263 44.4005 15.064 43.4871 16.6404L39.561 23.4098C37.9257 22.4669 36.0253 21.9145 33.9996 21.9145C33.7713 21.9145 33.5576 21.9366 33.3367 21.9513L32.8284 13.5761C32.6811 11.1305 30.0146 9.69416 27.8931 10.9169L25.7349 12.1544C24.1512 13.0678 23.6061 15.0935 24.5268 16.6698L28.4382 23.4172C26.5525 24.5 25.0277 26.1131 24.048 28.0578L16.4978 24.3011C14.3027 23.2109 11.7246 24.802 11.7246 27.2549V29.7151C11.7246 31.5346 13.2052 33.0151 15.0246 33.0151H22.8621C22.8621 35.2765 23.5472 37.3685 24.711 39.1216L17.6985 43.7328C15.6434 45.0808 15.7318 48.123 17.8679 49.3531L20.0114 50.5832C21.5878 51.4893 23.5987 50.9515 24.5121 49.3752L28.4382 42.6058C30.0735 43.5486 31.9739 44.1011 33.9996 44.1011C34.228 44.1011 34.4416 44.079 34.6626 44.0643L35.1708 52.4395C35.3181 54.885 37.9847 56.3214 40.1061 55.0986L42.2643 53.8611C43.848 52.9477 44.3931 50.9221 43.4724 49.3457L39.561 42.5984C41.4467 41.5156 42.9715 39.9024 43.9512 37.9578L51.5014 41.7145C53.6965 42.8046 56.2746 41.2136 56.2746 38.7607V36.3004C56.2746 34.481 54.794 33.0004 52.9746 33.0004ZM39.4652 34.0832C39.0527 36.2562 37.2701 38.0241 35.1045 38.4366C31.1784 39.1879 27.79 35.8216 28.534 31.9102C28.9465 29.7372 30.7291 27.9694 32.8947 27.5569C36.8282 26.8129 40.2092 30.1718 39.4652 34.0832Z" fill="#323333"/>
<path d="M63.7 0H4.3C2.48058 0 1 1.48058 1 3.3V62.7C1 64.5194 2.48058 66 4.3 66H63.7C65.5194 66 67 64.5194 67 62.7V3.3C67 1.48058 65.5194 0 63.7 0ZM8.425 4.95C9.79509 4.95 10.9 6.05491 10.9 7.425C10.9 8.79509 9.79509 9.9 8.425 9.9C7.05491 9.9 5.95 8.79509 5.95 7.425C5.95 6.05491 7.05491 4.95 8.425 4.95ZM8.425 61.05C7.05491 61.05 5.95 59.9451 5.95 58.575C5.95 57.2049 7.05491 56.1 8.425 56.1C9.79509 56.1 10.9 57.2049 10.9 58.575C10.9 59.9451 9.79509 61.05 8.425 61.05ZM37.6462 60.8217C19.2973 63.1346 3.8654 47.7027 6.17835 29.3538C7.75469 16.8536 17.8462 6.75469 30.3538 5.17835C48.7027 2.8654 64.1346 18.2973 61.8217 36.6462C60.2453 49.1464 50.1464 59.2453 37.6462 60.8217ZM59.575 61.05C58.2049 61.05 57.1 59.9451 57.1 58.575C57.1 57.2049 58.2049 56.1 59.575 56.1C60.9451 56.1 62.05 57.2049 62.05 58.575C62.05 59.9451 60.9451 61.05 59.575 61.05ZM59.575 9.9C58.2049 9.9 57.1 8.79509 57.1 7.425C57.1 6.05491 58.2049 4.95 59.575 4.95C60.9451 4.95 62.05 6.05491 62.05 7.425C62.05 8.79509 60.9451 9.9 59.575 9.9Z" fill="#323333"/>
</svg>
