<svg width="165" height="165" viewBox="0 0 165 165" fill="none" xmlns="http://www.w3.org/2000/svg">
<rect x="2.75" y="2.75" width="159.5" height="159.5" rx="17.875" stroke="white" stroke-width="5.5"/>
<path d="M22.902 101.152C22.8519 93.1962 22.8018 85.2398 22.7567 77.2885C22.7567 77.1629 22.7567 77.0372 22.7667 76.9116C22.8168 76.0019 22.9771 75.841 23.879 75.7556C24.4151 75.7053 24.9562 75.7003 25.4823 75.5897C26.1587 75.449 26.4092 75.0218 26.3942 74.2477C26.3742 73.5391 26.0285 73.0163 25.4072 72.9108C24.9412 72.8304 24.4552 72.8404 23.9792 72.8304C23.1024 72.8153 22.7567 72.5188 22.7467 71.6291C22.7216 69.4629 22.7066 67.2916 22.7316 65.1254C22.7467 63.7482 23.0072 63.4517 24.38 63.4215C26.9153 63.3662 29.4505 63.3964 31.9858 63.3964C32.1912 63.3964 32.3966 63.4064 32.7424 63.4165C32.7123 62.929 32.6572 62.4716 32.6572 62.0192C32.6472 60.7074 33.2785 60.044 34.5862 60.044C39.3661 60.0389 44.146 60.059 48.9259 60.059C78.5172 60.059 108.113 60.059 137.705 60.059C138.391 60.059 139.078 60.0339 139.759 60.0791C140.916 60.1545 141.397 60.5717 141.448 61.7327C141.543 63.894 141.588 66.0652 141.583 68.2315C141.583 71.3376 141.508 74.4438 141.483 77.5499C141.483 77.9972 141.392 78.1681 140.881 78.1178C138.672 77.9017 136.868 79.2588 136.372 81.4552C135.886 83.6265 137.048 86.0088 139.028 86.6622C139.774 86.9085 140.616 86.8834 141.623 87.009C141.583 87.783 141.508 88.6325 141.503 89.4768C141.488 93.5832 141.493 97.6895 141.488 101.796C141.488 102.233 141.473 102.67 141.437 103.108C141.327 104.43 140.821 104.917 139.488 104.922C135.956 104.932 132.424 104.922 128.892 104.922C98.1128 104.922 67.339 104.922 36.5603 104.922C35.8338 104.922 35.1073 104.942 34.3808 104.917C33.2684 104.877 32.6872 104.264 32.6622 103.138C32.6522 102.665 32.6722 102.188 32.6772 101.791C29.5057 101.695 26.3742 101.6 23.2477 101.504L22.897 101.152L22.902 101.152ZM127.96 68.9C127.514 68.8346 127.133 68.7341 126.752 68.7341C124.051 68.7442 121.351 68.7894 118.65 68.7894C110.528 68.7994 102.402 68.7894 94.2798 68.7894C83.3722 68.7894 72.4646 68.7994 61.557 68.7894C56.8222 68.7844 52.0824 68.7291 47.3476 68.7039C46.1251 68.6989 46.0449 68.7693 46.0449 69.87C46.0399 78.3943 46.0349 86.9186 46.0399 95.4428C46.0399 96.6742 46.1752 96.7898 47.4077 96.7949C68.3311 96.8049 89.2544 96.82 110.178 96.825C115.849 96.825 121.521 96.815 127.193 96.7999C127.925 96.7999 128.1 96.6139 128.15 95.8851C128.165 95.6992 128.15 95.5082 128.15 95.3222C128.13 92.5277 128.1 89.7382 128.095 86.9437C128.085 81.2541 128.095 75.5646 128.085 69.875C128.085 69.5735 128.005 69.2769 127.955 68.9L127.96 68.9ZM24.8711 91.6733C24.851 92.6684 24.831 93.5329 24.8109 94.5482C26.5545 94.503 28.2831 94.4527 30.2572 94.4024C30.1871 94.9905 30.0768 95.4529 30.0969 95.9002C30.1219 96.443 29.9265 96.5586 29.4155 96.5385C27.8823 96.4832 26.3491 96.4933 24.6857 96.4732C24.7909 97.6041 24.8861 98.6093 24.9763 99.6095C27.3662 99.5944 29.9967 99.5743 32.6321 99.5542C32.6171 88.2304 32.6071 76.8362 32.592 65.442C32.562 65.432 32.5219 65.4068 32.4868 65.4068C30.3274 65.4068 28.1629 65.4068 26.0034 65.4018C24.6907 65.4018 24.7358 65.4018 24.6807 66.6885C24.6506 67.3419 24.8861 67.4524 25.4523 67.4374C26.9804 67.4022 28.5136 67.4173 29.9967 67.4122C30.0067 68.131 30.0167 68.7643 30.0317 69.5885C28.5136 69.5534 27.0005 69.5282 25.4873 69.478C25.0364 69.4629 24.7358 69.5182 24.6857 70.071C24.6356 70.6139 24.821 70.8099 25.342 70.8702C26.1838 70.9657 26.9854 71.2572 27.5516 71.9106C29.2551 73.8658 28.4384 76.7457 25.9783 77.57C25.5475 77.7158 24.9061 77.7308 24.7358 78.0223C24.5203 78.3993 24.6907 78.9924 24.6957 79.495C24.6957 79.5955 24.7057 79.7011 24.7107 79.887C26.4994 79.8669 28.2731 79.8468 29.9365 79.8317C29.9616 80.5857 29.9766 81.224 29.9967 81.812C28.2681 81.8422 26.5295 81.8774 24.5554 81.9126C24.6055 82.6816 24.6957 83.4505 24.6957 84.2145C24.6957 84.702 24.836 84.878 25.332 84.8629C26.5796 84.8327 27.8272 84.8629 29.0698 84.8327C29.3904 84.8277 29.7111 84.702 29.9616 84.6468C29.9867 85.5665 30.0017 86.2049 30.0167 86.9437C28.2531 86.9286 26.4994 86.9085 24.5855 86.8934C24.6205 87.6926 24.6807 88.4415 24.6706 89.1904C24.6656 89.6276 24.836 89.7181 25.2218 89.7131C26.2389 89.693 27.256 89.703 28.2781 89.698C28.8693 89.698 29.4656 89.6779 30.0468 89.6628C30.0518 90.2207 30.0368 90.663 30.0718 91.0953C30.1119 91.5778 29.9566 91.7436 29.4455 91.7285C27.9124 91.6783 26.3742 91.6934 24.861 91.6833L24.8711 91.6733ZM42.7781 65.1806C41.27 63.6678 39.2809 63.6326 37.8229 65.0952C36.3448 66.5779 36.3649 68.719 37.868 70.2118C39.2959 71.6342 41.3652 71.599 42.8333 70.2017C44.2412 68.8598 44.3564 66.3819 42.7781 65.1806Z" fill="white"/>
<path d="M73.9453 88.2774C74.1708 84.5731 74.3962 80.8991 74.6267 77.1546C74.767 77.1395 74.9223 77.1043 75.0726 77.1043C76.2551 77.1194 77.4426 77.1697 78.625 77.1395C79.086 77.1295 79.2212 77.2752 79.3164 77.6974C79.6471 79.1801 80.0229 80.6528 80.3937 82.1254C80.4588 82.3818 80.5841 82.618 80.7444 83.015C80.8697 82.7436 80.9548 82.618 80.9899 82.4823C81.3807 80.8639 81.7715 79.2455 82.1323 77.622C82.2174 77.2451 82.3728 77.1244 82.7586 77.1345C84.0863 77.1747 85.4091 77.1797 86.852 77.2049C87.0725 80.8287 87.293 84.5179 87.5134 88.197C86.3009 88.1668 85.1134 88.1417 83.8859 88.1115C83.8358 86.468 83.7807 84.6887 83.7256 82.9045L83.5452 82.8542C83.4199 83.1357 83.2596 83.4021 83.1845 83.6936C82.8237 85.0858 82.478 86.478 82.1573 87.8803C82.0822 88.2221 81.9319 88.3276 81.6112 88.3176C81.05 88.2975 80.4889 88.2673 79.9277 88.3025C79.5068 88.3276 79.3565 88.1618 79.2613 87.7647C78.8855 86.1865 78.4747 84.6184 78.0739 83.0452C78.0588 82.9949 78.0238 82.9447 77.8484 82.8793C77.7983 83.2462 77.7181 83.6132 77.7031 83.9801C77.648 85.2919 77.6229 86.6037 77.5578 87.9155C77.5528 88.0663 77.3674 88.3276 77.2672 88.3276C76.1699 88.3327 75.0726 88.2975 73.9453 88.2774Z" fill="white"/>
<path d="M57.4883 81.7037C57.5485 80.2763 57.6136 78.7484 57.6787 77.2204C58.7109 77.2355 59.8382 77.2556 60.9555 77.2707C60.9555 80.8694 60.9555 84.5485 60.9555 88.3281C59.9635 88.313 58.9714 88.3231 57.9844 88.2728C57.804 88.2628 57.5835 88.0617 57.4683 87.8959C56.5113 86.5187 55.5694 85.1315 54.6525 83.7795C54.6124 85.232 54.5723 86.7399 54.5272 88.3181C53.4299 88.2728 52.3126 88.2276 51.2304 88.1824C51.2204 84.5988 51.2053 80.9046 51.1953 77.2255C52.2024 77.2054 53.2145 77.1702 54.2216 77.1903C54.3869 77.1903 54.5873 77.4366 54.7076 77.6125C55.6596 78.9946 56.5965 80.3819 57.4883 81.7087L57.4883 81.7037Z" fill="white"/>
<path d="M67.7559 84.4492C67.8511 84.1225 67.9663 83.8008 68.0415 83.4641C68.4573 81.5541 68.8782 79.6442 69.269 77.7293C69.3642 77.2719 69.5346 77.1211 70.0106 77.1563C71.0026 77.2317 71.9947 77.2216 73.0068 77.2518C72.4757 79.408 71.9295 81.6295 71.3834 83.8461C71.0577 85.178 70.717 86.5099 70.4114 87.8468C70.3312 88.1987 70.1859 88.3193 69.8252 88.3143C68.3922 88.2992 66.9592 88.3293 65.5263 88.3092C65.3609 88.3092 65.0803 88.1283 65.0453 87.9825C64.1634 84.4492 63.3067 80.9108 62.4499 77.3774C62.4349 77.3222 62.4599 77.2619 62.48 77.0809C63.5722 77.096 64.6695 77.101 65.7618 77.1563C65.897 77.1613 66.0924 77.4327 66.1275 77.6087C66.5684 79.6844 66.9793 81.7652 67.4052 83.8461C67.4452 84.0521 67.5254 84.2481 67.5855 84.4542C67.6406 84.4542 67.6958 84.4542 67.7509 84.4542L67.7559 84.4492Z" fill="white"/>
<path d="M97.1875 85.7264C97.2977 86.3547 97.438 87.0231 97.5232 87.7017C97.5382 87.8474 97.3578 88.1339 97.2276 88.159C95.494 88.5159 93.7604 88.7773 91.9867 88.3902C90.4285 88.0485 89.5116 87.1036 89.1859 85.5756C88.8953 84.2135 88.8452 82.8464 89.3563 81.5145C89.7671 80.4339 90.5237 79.7252 91.646 79.4086C93.2092 78.9713 94.7725 79.0517 96.3157 79.4739C97.3929 79.7654 97.944 80.5495 97.9891 81.6804C98.0042 81.992 98.0042 82.3036 97.9891 82.6152C97.919 83.7361 97.3478 84.5402 96.2806 84.8167C95.3687 85.0529 94.4017 85.078 93.4598 85.2037C93.1541 85.2439 92.6882 85.0077 92.6932 85.6259C92.7032 86.2391 93.1692 86.1184 93.5099 86.0883C94.7224 85.9878 95.9299 85.8521 97.1925 85.7214L97.1875 85.7264ZM92.8986 83.344C93.4147 83.2887 94.036 83.2234 94.6623 83.148C94.6923 83.148 94.7274 83.0475 94.7374 82.9872C94.7775 82.6605 94.8376 82.3288 94.8276 82.0021C94.8276 81.8865 94.6522 81.6804 94.552 81.6754C94.081 81.6603 93.595 81.6402 93.1391 81.7357C92.7182 81.8211 92.4777 82.9671 92.8986 83.344Z" fill="white"/>
<path d="M116.404 88.452C116.384 86.1702 116.359 83.9687 116.359 81.7673C116.359 81.6416 116.59 81.4104 116.71 81.4104C118.018 81.4305 119.326 81.4456 120.623 81.5562C121.66 81.6416 122.407 82.2548 122.527 83.3053C122.647 84.3457 122.647 85.4162 122.537 86.4617C122.422 87.5574 121.69 88.2258 120.583 88.3062C119.18 88.4068 117.772 88.4118 116.404 88.457L116.404 88.452ZM118.419 86.7884C118.985 86.7683 119.441 86.7984 119.877 86.7079C120.082 86.6677 120.383 86.3963 120.398 86.2204C120.453 85.3559 120.448 84.4814 120.393 83.6169C120.383 83.446 120.062 83.1746 119.867 83.1595C119.416 83.1243 118.96 83.2148 118.509 83.2701C118.484 83.2701 118.459 83.4209 118.459 83.5013C118.444 84.5568 118.434 85.6072 118.424 86.7934L118.419 86.7884Z" fill="white"/>
<path d="M107.867 81.4511C107.777 82.0342 107.737 82.4915 107.621 82.9238C107.591 83.0394 107.326 83.155 107.17 83.155C106.549 83.1449 105.928 83.0595 105.307 83.0695C105.116 83.0695 104.926 83.2957 104.735 83.4163C104.906 83.5621 105.056 83.7832 105.251 83.8385C105.707 83.9642 106.198 83.9742 106.654 84.0949C107.832 84.4065 108.273 85.0599 108.233 86.3566C108.197 87.6131 107.737 88.3118 106.534 88.4223C105.286 88.5379 104.019 88.4073 102.761 88.357C102.661 88.357 102.566 88.156 102.476 88.0404C102.456 88.0152 102.486 87.9599 102.486 87.9197C102.521 86.6833 102.521 86.6984 103.738 86.7889C104.314 86.8291 104.901 86.8391 105.477 86.7889C105.662 86.7738 105.828 86.5325 106.003 86.3918C105.838 86.2661 105.687 86.0651 105.502 86.0249C105.041 85.9193 104.555 85.9193 104.089 85.8238C103.037 85.6027 102.651 85.1503 102.541 84.0898C102.531 83.9843 102.516 83.8838 102.521 83.7782C102.626 81.7979 103.042 81.421 104.81 81.3054C105.793 81.24 106.785 81.3908 107.867 81.4511Z" fill="white"/>
<path d="M109.297 88.3269C109.307 88.1258 109.307 87.9801 109.327 87.8393C109.392 87.4322 109.462 87.0251 109.527 86.6532C110.409 86.7135 111.246 86.7738 112.083 86.8341C112.639 86.8743 112.919 86.6632 112.734 86.0048C112.243 85.9646 111.727 85.9395 111.221 85.8842C110.018 85.7535 109.427 85.085 109.357 83.7983C109.282 82.3458 109.758 81.5165 111.005 81.3808C112.163 81.2551 113.35 81.3758 114.608 81.3808C114.553 82.0593 114.513 82.582 114.468 83.15C113.686 83.1098 112.964 83.0696 112.243 83.0293C111.912 83.0092 111.587 83.0193 111.572 83.4666C111.557 83.9139 111.927 83.8486 112.193 83.8888C112.604 83.9491 113.02 83.9743 113.425 84.0547C114.332 84.2306 114.934 84.8237 115.004 85.7384C115.044 86.3265 114.949 86.9397 114.808 87.5177C114.678 88.0454 114.212 88.2766 113.696 88.3972C112.248 88.729 110.81 88.5581 109.297 88.3218L109.297 88.3269Z" fill="white"/>
<path d="M41.3251 68.6997C40.819 69.1822 39.7819 69.1219 39.2908 68.5841C38.8499 68.1016 38.865 67.0763 39.3159 66.634C39.832 66.1314 40.8992 66.1112 41.3701 66.5988C41.8812 67.1215 41.8562 68.1921 41.3251 68.6997Z" fill="white"/>
</svg>
