<svg width="165" height="165" viewBox="0 0 165 165" fill="none" xmlns="http://www.w3.org/2000/svg">
<rect x="2.75" y="2.75" width="159.5" height="159.5" rx="17.875" stroke="white" stroke-width="5.5"/>
<path d="M109.226 87.3332C118.761 85.9031 117.235 93.4828 115.71 98.0593C114.365 102.939 111.366 107.199 107.227 110.113C103.088 113.026 98.0652 114.41 93.0181 114.029C78.7167 114.029 70.6603 100.014 79.1934 84.3299C83.8624 76.7468 91.1866 71.1729 99.7398 68.6937C101.555 68.1336 103.425 67.7661 105.317 67.5973C106.274 67.4781 107.246 67.5986 108.144 67.9481C109.043 68.2976 109.841 68.8651 110.466 69.5995C111.386 70.5747 112.02 71.7847 112.298 73.0967C112.575 74.4087 112.486 75.7718 112.039 77.0362C103.637 76.9412 95.5351 80.1612 89.4904 85.9984C87.7912 87.7403 86.5966 89.9108 86.0341 92.2783C85.4716 94.6459 85.5623 97.1217 86.2965 99.4418C88.4893 106.259 100.979 109.214 106.938 97.4872L93.3518 99.4894L94.925 93.5782C95.7354 90.2889 97.4039 89.2878 98.5957 88.8111L109.226 87.3332ZM107.081 45.6208L106.08 49.4822C106.092 49.752 106.208 50.0067 106.404 50.1932C106.599 50.3797 106.859 50.4836 107.129 50.4833C112.963 50.8376 118.437 53.4199 122.421 57.6964C126.405 61.9729 128.593 67.6166 128.533 73.4609C128.533 74.3666 129.534 74.3666 129.534 74.3666L132.967 73.8423C133.777 73.8423 135.35 73.2702 134.874 69.0751C134.011 62.8548 131.189 57.0709 126.817 52.5623C122.446 48.0537 116.752 45.0546 110.561 44C108.559 44 107.32 44.7151 107.081 45.6208ZM124.052 72.6028C123.82 68.2183 122.04 64.0583 119.028 60.8633C116.016 57.6683 111.969 55.6456 107.606 55.1551C106.929 54.9923 106.216 55.0697 105.59 55.3741C104.964 55.6784 104.463 56.1908 104.173 56.8236C104.173 57.491 103.601 59.2072 103.267 60.3036C102.934 61.4 103.84 61.2093 104.078 61.1617C104.681 61.1196 105.286 61.1196 105.889 61.1617C107.54 61.1803 109.171 61.5247 110.688 62.1751C112.205 62.8254 113.579 63.769 114.73 64.9516C115.882 66.1342 116.788 67.5325 117.398 69.0664C118.008 70.6003 118.309 72.2395 118.284 73.8899C118.325 74.3976 118.325 74.9077 118.284 75.4154C118.29 75.5138 118.316 75.61 118.36 75.6979C118.405 75.7859 118.467 75.8636 118.543 75.9263C118.619 75.9889 118.708 76.0352 118.802 76.0621C118.897 76.0891 118.997 76.0961 119.094 76.0828L122.05 75.6538C122.813 75.4154 124.147 74.748 124.052 72.6028ZM61.2213 55.7748L31.6175 98.107C28.0898 103.255 30.807 108.595 37.9101 107.641L55.4531 105.019L51.8301 118.939C51.8 119.134 51.819 119.334 51.8851 119.52C51.9513 119.706 52.0626 119.873 52.2092 120.005C52.3557 120.137 52.5328 120.231 52.7246 120.278C52.9164 120.325 53.1168 120.324 53.3079 120.274L56.8356 119.75C61.0783 119.178 62.2224 117.462 62.9852 114.601L65.8455 103.446C67.4641 103.431 69.0203 102.82 70.2164 101.729C71.4125 100.639 72.1646 99.1452 72.3288 97.5349L73.3299 93.7212C73.3299 93.3875 73.3299 92.5294 72.7578 92.6248L68.5151 93.1968L72.9962 76.5118C73.9973 72.5551 70.851 71.7447 68.229 72.2214L63.4619 72.6028L57.789 94.5316L47.921 96.4385C46.7769 96.4385 46.3479 95.4374 47.349 94.1502L69.6592 62.0674C72.2811 58.1107 70.8033 54.0587 65.5594 54.9167L61.2213 55.7748Z" fill="white"/>
</svg>
