<svg width="166" height="166" viewBox="0 0 166 166" fill="none" xmlns="http://www.w3.org/2000/svg">
<rect x="3.25" y="3.25" width="159.5" height="159.5" rx="17.875" stroke="white" stroke-width="5.5"/>
<path d="M97.8084 73.4839L107.801 41.25H116.196L102.048 81.3291H96.4596L97.8084 73.4839ZM88.5869 41.25L98.5241 73.4839L99.9555 81.3291H94.3125L80.2188 41.25H88.5869Z" fill="white"/>
<path d="M57.7842 62.8861L51.9761 61.4822L54.2057 41.25H76.2548V47.2784H60.2341L59.1881 56.6375C59.757 56.2888 60.5828 55.9402 61.6655 55.5915C62.7666 55.2245 64.0053 55.041 65.3817 55.041C67.2902 55.041 68.9968 55.3529 70.5016 55.9769C72.0064 56.5825 73.2819 57.4633 74.3279 58.6194C75.3923 59.7756 76.1905 61.1886 76.7227 62.8586C77.2733 64.5102 77.5485 66.382 77.5485 68.4741C77.5485 70.3092 77.2733 72.0342 76.7227 73.6491C76.1905 75.2457 75.3739 76.6679 74.2728 77.9158C73.1718 79.1453 71.7862 80.1179 70.1163 80.8336C68.4463 81.531 66.4827 81.8796 64.2255 81.8796C62.5189 81.8796 60.8764 81.6319 59.2982 81.1364C57.7384 80.6226 56.3345 79.8794 55.0866 78.9067C53.8387 77.9158 52.8386 76.7046 52.0862 75.2732C51.3521 73.8418 50.9484 72.1994 50.875 70.3459H58.0595C58.188 71.5754 58.5183 72.6214 59.0505 73.4839C59.5827 74.3465 60.28 75.0071 61.1425 75.4659C62.0234 75.9247 63.0419 76.1541 64.198 76.1541C65.244 76.1541 66.1432 75.9614 66.8956 75.576C67.6664 75.1723 68.2995 74.6125 68.795 73.8969C69.2905 73.1812 69.6575 72.337 69.8961 71.3644C70.1346 70.3918 70.2539 69.3274 70.2539 68.1713C70.2539 67.0518 70.1163 66.0333 69.841 65.1158C69.5657 64.1799 69.1437 63.3724 68.5748 62.6934C68.0059 62.0144 67.2902 61.4914 66.4277 61.1244C65.5835 60.7574 64.5925 60.5739 63.4548 60.5739C61.9316 60.5739 60.7571 60.8032 59.9313 61.262C59.1239 61.7208 58.4082 62.2622 57.7842 62.8861Z" fill="white"/>
<path d="M111.76 93.8867L118.341 107.419L124.922 93.8867H130.335L120.794 111.799V122.235H115.869V111.799L106.328 93.8867H111.76Z" fill="white"/>
<path d="M110.226 118.361V122.235H95.9929V118.361H110.226ZM97.3558 93.8867V122.235H92.4688V93.8867H97.3558Z" fill="white"/>
<path d="M86.6443 93.8867V122.235H81.7573L69.0433 101.928V122.235H64.1562V93.8867H69.0433L81.7963 114.233V93.8867H86.6443Z" fill="white"/>
<path d="M59.27 107.285V108.843C59.27 110.984 58.9909 112.905 58.4328 114.606C57.8747 116.306 57.0764 117.753 56.038 118.948C55.0125 120.142 53.7794 121.057 52.3386 121.693C50.8978 122.316 49.3013 122.627 47.549 122.627C45.8096 122.627 44.2195 122.316 42.7787 121.693C41.3509 121.057 40.1113 120.142 39.0599 118.948C38.0085 117.753 37.1908 116.306 36.6067 114.606C36.0356 112.905 35.75 110.984 35.75 108.843V107.285C35.75 105.143 36.0356 103.229 36.6067 101.541C37.1778 99.8408 37.9826 98.3935 39.021 97.1993C40.0724 95.9922 41.312 95.0771 42.7398 94.454C44.1806 93.818 45.7707 93.5 47.51 93.5C49.2623 93.5 50.8589 93.818 52.2997 94.454C53.7405 95.0771 54.9801 95.9922 56.0185 97.1993C57.0569 98.3935 57.8552 99.8408 58.4133 101.541C58.9845 103.229 59.27 105.143 59.27 107.285ZM54.383 108.843V107.246C54.383 105.662 54.2272 104.267 53.9157 103.06C53.6172 101.84 53.1694 100.821 52.5723 100.003C51.9882 99.1723 51.2678 98.5493 50.4111 98.1339C49.5544 97.7056 48.5874 97.4914 47.51 97.4914C46.4327 97.4914 45.4721 97.7056 44.6284 98.1339C43.7847 98.5493 43.0643 99.1723 42.4672 100.003C41.8831 100.821 41.4353 101.84 41.1238 103.06C40.8123 104.267 40.6565 105.662 40.6565 107.246V108.843C40.6565 110.426 40.8123 111.828 41.1238 113.048C41.4353 114.268 41.8896 115.3 42.4867 116.144C43.0968 116.975 43.8236 117.604 44.6674 118.032C45.5111 118.448 46.4716 118.656 47.549 118.656C48.6393 118.656 49.6063 118.448 50.45 118.032C51.2937 117.604 52.0076 116.975 52.5917 116.144C53.1758 115.3 53.6172 114.268 53.9157 113.048C54.2272 111.828 54.383 110.426 54.383 108.843Z" fill="white"/>
</svg>
