<svg width="166" height="166" viewBox="0 0 166 166" fill="none" xmlns="http://www.w3.org/2000/svg">
<rect x="3.25" y="2.97656" width="159.5" height="159.5" rx="17.875" stroke="white" stroke-width="5.5"/>
<path d="M85.2687 124.487V130.852H82.1062V124.487C74.1209 123.702 67.875 116.984 67.875 108.852H71.0375C71.0375 115.766 76.73 121.423 83.6875 121.423C90.645 121.423 96.3375 115.766 96.3375 108.852H99.5C99.5 116.984 93.2541 123.702 85.2687 124.487ZM83.6875 115.137C87.1662 115.137 90.0125 112.309 90.0125 108.852V93.1373C90.0125 89.6801 87.1662 86.8516 83.6875 86.8516C80.2087 86.8516 77.3625 89.6801 77.3625 93.1373V108.852C77.3625 112.309 80.2087 115.137 83.6875 115.137Z" fill="white"/>
<path d="M121.634 66.533H116.071C115.863 48.1318 101.079 33.2266 82.9265 33.2266C64.7741 33.2266 49.9896 48.1318 49.7821 66.533H44.3678C36.8592 66.533 30.75 72.5317 30.75 79.9044V85.8552C30.75 93.2271 36.86 99.2266 44.3678 99.2266H53.9644C54.9983 99.2259 55.9977 98.8619 56.7819 98.2004C57.566 97.5388 58.0831 96.6235 58.2396 95.6201C58.3657 95.2161 58.4298 94.796 58.4298 94.3734V66.9236C58.4298 53.0297 69.4195 41.7271 82.9265 41.7271C96.4342 41.7271 107.423 53.0304 107.423 66.9236V94.3734C107.423 95.1338 107.629 95.8432 107.984 96.46C108.291 97.2717 108.844 97.9718 109.568 98.4662C110.293 98.9607 111.153 99.226 112.036 99.2266H121.634C129.141 99.2266 135.25 93.2279 135.25 85.8552V79.9044C135.251 72.5317 129.141 66.533 121.634 66.533Z" fill="white"/>
</svg>
