<svg width="165" height="165" viewBox="0 0 165 165" fill="none" xmlns="http://www.w3.org/2000/svg">
<rect x="2.75" y="2.75" width="159.5" height="159.5" rx="17.875" stroke="white" stroke-width="5.5"/>
<path d="M132 79.0706V84.7571C131.935 85.0428 131.862 85.3193 131.816 85.6142C131.484 87.9644 131.309 90.3514 130.793 92.6555C128.009 105.134 121.401 115.134 111.051 122.618C104.48 127.373 97.1439 130.313 89.0888 131.447C87.6418 131.65 86.1949 131.825 84.7387 132.009H78.8587C78.5822 131.945 78.2965 131.843 78.0108 131.825C72.4994 131.484 67.2277 130.148 62.1771 127.954C52.4078 123.715 44.7122 117.042 39.081 108.019C35.459 102.213 33.1273 95.9089 32.1688 89.1072C31.9937 87.651 31.8185 86.2041 31.625 84.7571C31.625 82.8586 31.625 80.9692 31.625 79.0706C31.6895 78.7573 31.7632 78.4439 31.8093 78.1214C32.2425 75.3565 32.436 72.5455 33.1273 69.8451C36.5004 56.6473 44.0578 46.4356 55.5414 39.1547C61.3569 35.4682 67.7069 33.1641 74.527 32.1872C75.974 31.9844 77.4209 31.8093 78.8679 31.625C80.831 31.625 82.7848 31.625 84.7479 31.625C84.9967 31.6895 85.2456 31.7632 85.4944 31.8001C87.8446 32.1411 90.2316 32.307 92.5357 32.8323C105.033 35.6618 115.024 42.3712 122.562 52.7027C127.364 59.2832 130.313 66.6562 131.465 74.7298C131.668 76.1767 131.825 77.6237 132 79.0706ZM126.599 81.8724C126.608 57.5137 107.328 37.7262 82.0475 37.5787C56.9883 37.4221 37.1364 57.4768 37.0258 82.2779C36.9152 106.821 56.7303 126.922 81.3932 127.106C106.296 127.29 126.406 107.171 126.599 81.8632V81.8724Z" fill="white"/>
<path d="M41.8594 82.3443C41.9976 60.2159 59.5916 42.4929 81.6923 42.4376C103.664 42.3823 121.461 60.4463 121.691 82.4457C121.922 104.288 104.199 122.233 81.8582 122.279C59.951 122.325 42.0068 104.795 41.8594 82.3443ZM105.535 81.8558C105.535 81.3489 105.563 80.6209 105.535 79.9112C105.498 79.1647 105.443 78.4089 105.305 77.6716C104.06 70.999 100.549 65.801 95.0744 61.8472C93.7749 60.9071 92.5215 60.9348 91.2681 61.6813C90.8073 61.9578 90.3557 62.6029 90.3004 63.1191C90.1713 64.3633 90.54 65.5061 91.6736 66.2618C92.3464 66.7134 93.0468 67.1466 93.6551 67.6811C99.3692 72.7133 101.295 79.1094 99.7563 86.3995C97.6089 96.648 87.7106 101.477 78.78 100.556C73.8861 100.049 69.877 97.6803 66.9646 93.6804C63.7666 89.2842 62.2735 84.3535 63.2689 78.9435C64.1997 73.8561 66.7619 69.6719 70.9922 66.566C71.5912 66.1236 72.0797 65.4416 72.4115 64.7596C72.9645 63.626 72.6695 62.7965 71.665 62.0315C70.4208 61.0823 69.4807 61.0177 68.4577 61.7366C65.4255 63.8656 62.9371 66.4922 61.0846 69.7087C58.9925 73.3584 57.6193 77.2938 57.5824 81.4688C57.5179 88.1414 59.7759 94.1043 64.4394 98.9337C70.1351 104.832 77.1302 107.422 85.342 106.316C92.3188 105.376 97.6366 101.689 101.572 95.9937C104.447 91.8279 105.673 87.1091 105.544 81.8374L105.535 81.8558ZM83.3974 66.7226C83.3974 63.1006 83.3974 59.4694 83.3974 55.8474C83.3974 54.5663 82.8075 53.7553 81.7108 53.3866C79.7108 52.7323 78.0887 53.8843 78.0795 56.0133C78.0611 59.838 78.0795 63.6536 78.0795 67.4784C78.0795 70.87 78.0795 74.2708 78.098 77.6624C78.1072 78.9343 78.7339 79.7177 79.8675 80.0587C81.8029 80.6301 83.3881 79.5057 83.3974 77.4965C83.425 73.9022 83.3974 70.317 83.3974 66.7226Z" fill="white"/>
</svg>
