<svg width="165" height="165" viewBox="0 0 165 165" fill="none" xmlns="http://www.w3.org/2000/svg">
<rect x="2.75" y="2.75" width="159.5" height="159.5" rx="17.875" stroke="white" stroke-width="5.5"/>
<rect x="105.875" y="129.25" width="48.125" height="8.25" transform="rotate(-180 105.875 129.25)" fill="white"/>
<rect x="68.75" y="121" width="26.125" height="8.25" transform="rotate(-180 68.75 121)" fill="white"/>
<rect x="55" y="112.75" width="26.125" height="8.25" transform="rotate(-180 55 112.75)" fill="white"/>
<rect x="28.875" y="104.5" width="68.75" height="9.625" transform="rotate(-90 28.875 104.5)" fill="white"/>
<rect x="125.125" y="104.5" width="68.75" height="9.625" transform="rotate(-90 125.125 104.5)" fill="white"/>
<rect x="110" y="83.875" width="31.625" height="8.25" transform="rotate(-90 110 83.875)" fill="white"/>
<rect x="99" y="83.875" width="31.625" height="8.25" transform="rotate(-90 99 83.875)" fill="white"/>
<rect x="88" y="83.875" width="31.625" height="8.25" transform="rotate(-90 88 83.875)" fill="white"/>
<rect x="78.375" y="83.875" width="31.625" height="8.25" transform="rotate(-90 78.375 83.875)" fill="white"/>
<rect x="67.375" y="83.875" width="31.625" height="8.25" transform="rotate(-90 67.375 83.875)" fill="white"/>
<rect x="56.375" y="83.875" width="31.625" height="8.25" transform="rotate(-90 56.375 83.875)" fill="white"/>
<rect x="45.375" y="83.875" width="31.625" height="8.25" transform="rotate(-90 45.375 83.875)" fill="white"/>
<rect x="119.625" y="121" width="26.125" height="8.25" transform="rotate(-180 119.625 121)" fill="white"/>
<rect x="134.75" y="112.75" width="27.5" height="8.25" transform="rotate(-180 134.75 112.75)" fill="white"/>
<rect x="125.125" y="44" width="86.625" height="8.25" transform="rotate(-180 125.125 44)" fill="white"/>
</svg>
