<svg width="165" height="165" viewBox="0 0 165 165" fill="none" xmlns="http://www.w3.org/2000/svg">
<rect x="2.75" y="2.75" width="159.5" height="159.5" rx="17.875" stroke="white" stroke-width="5.5"/>
<path d="M85.6111 75.4248C85.0596 75.0847 84.459 74.8312 83.8305 74.6733C78.0535 62.8076 106.029 54.6993 101.043 45.8791C91.0321 28.1201 70.6541 34.8836 65.431 40.144C52.1754 54.8575 69.3879 72.577 75.4419 78.0352C75.1111 78.5914 74.8582 79.1903 74.6901 79.8151C62.8194 85.5897 54.7078 57.6262 45.8839 62.6098C28.1175 72.6166 34.8838 92.986 40.1464 98.207C54.8661 111.457 72.5929 94.2517 78.0535 88.2002C78.6098 88.5309 79.209 88.7837 79.8341 88.9517C85.6111 100.817 57.6359 108.926 62.6216 117.746C72.6325 135.505 93.0105 128.741 98.2336 123.481C111.45 108.767 94.2767 91.048 88.1831 85.5898C88.5166 85.035 88.7698 84.4357 88.9349 83.8099C100.806 78.0352 108.917 105.999 117.741 101.015C135.508 91.0084 128.741 70.6389 123.479 65.418C108.64 52.168 90.9133 69.3337 85.6111 75.4248Z" fill="white"/>
</svg>
