<svg width="165" height="165" viewBox="0 0 165 165" fill="none" xmlns="http://www.w3.org/2000/svg">
<rect x="2.75" y="2.75" width="159.5" height="159.5" rx="17.875" stroke="white" stroke-width="5.5"/>
<path d="M68.2099 138.089H109.973M68.2099 19.25H122.299C125.337 19.25 127.799 21.7124 127.799 24.75V140.229C127.799 143.267 125.337 145.729 122.299 145.729H44C40.9624 145.729 38.5 143.267 38.5 140.229V110.587L47.6676 106.173V89.535H38.5V71.03L54.798 61.3531V32.6619L68.2099 19.25Z" stroke="white" stroke-width="4.125" stroke-linecap="round"/>
<path d="M66.6797 33.1953V41.8536" stroke="white" stroke-width="4.125" stroke-linecap="round"/>
<path d="M75.1719 29.4766V41.5623" stroke="white" stroke-width="4.125" stroke-linecap="round"/>
<path d="M83.6562 29.4766V41.5623" stroke="white" stroke-width="4.125" stroke-linecap="round"/>
<path d="M92.1484 29.4766V41.5623" stroke="white" stroke-width="4.125" stroke-linecap="round"/>
<path d="M100.633 29.4766V41.5623" stroke="white" stroke-width="4.125" stroke-linecap="round"/>
<path d="M109.133 29.4766V41.5623" stroke="white" stroke-width="4.125" stroke-linecap="round"/>
<path d="M117.617 29.4766V41.5623" stroke="white" stroke-width="4.125" stroke-linecap="round"/>
<rect x="62.2734" y="122.809" width="55.3452" height="8.48853" stroke="white" stroke-width="4.125"/>
</svg>
