<svg width="165" height="165" viewBox="0 0 165 165" fill="none" xmlns="http://www.w3.org/2000/svg">
<rect x="2.75" y="2.75" width="159.5" height="159.5" rx="17.875" stroke="white" stroke-width="5.5"/>
<path fill-rule="evenodd" clip-rule="evenodd" d="M60.9831 40.6063L70.1407 39.7095L83.6463 50.4144L84.8638 59.5349L56.9317 94.7746L47.7742 95.6715L34.2686 84.9666L33.051 75.8461L60.9831 40.6063Z" stroke="white" stroke-width="4.125" stroke-miterlimit="10"/>
<path fill-rule="evenodd" clip-rule="evenodd" d="M84.8581 59.5321L94.0157 58.6353L107.521 69.3402L108.739 78.4607L80.8067 113.7L71.6492 114.597L58.1436 103.892L56.926 94.7718L84.8581 59.5321Z" stroke="white" stroke-width="4.125" stroke-miterlimit="10"/>
<path fill-rule="evenodd" clip-rule="evenodd" d="M108.741 78.4618L117.899 77.565L131.404 88.2699L132.622 97.3904L104.69 132.63L95.532 133.527L82.0264 122.822L80.8089 113.702L108.741 78.4618Z" stroke="white" stroke-width="4.125" stroke-miterlimit="10"/>
<path d="M74.9796 55.0424L67.2578 48.9219L61.1373 56.6436L68.8591 62.7641L74.9796 55.0424Z" stroke="white" stroke-width="4.125" stroke-miterlimit="10"/>
<path d="M98.8624 73.9721L91.1406 67.8516L85.0202 75.5733L92.7419 81.6938L98.8624 73.9721Z" stroke="white" stroke-width="4.125" stroke-miterlimit="10"/>
<path d="M122.745 92.9057L115.023 86.7852L108.903 94.5069L116.625 100.627L122.745 92.9057Z" stroke="white" stroke-width="4.125" stroke-miterlimit="10"/>
<path d="M56.0343 78.7689L48.3125 72.6484L42.192 80.3702L49.9138 86.4907L56.0343 78.7689Z" stroke="white" stroke-width="4.125" stroke-miterlimit="10"/>
<path d="M79.9093 97.6947L72.1875 91.5742L66.067 99.296L73.7888 105.416L79.9093 97.6947Z" stroke="white" stroke-width="4.125" stroke-miterlimit="10"/>
<path d="M103.792 116.624L96.0703 110.504L89.9498 118.226L97.6716 124.346L103.792 116.624Z" stroke="white" stroke-width="4.125" stroke-miterlimit="10"/>
</svg>
