<svg width="165" height="165" viewBox="0 0 165 165" fill="none" xmlns="http://www.w3.org/2000/svg">
<rect x="2.75" y="2.75" width="159.5" height="159.5" rx="17.875" stroke="white" stroke-width="5.5"/>
<mask id="path-2-inside-1_14219_24063" fill="white">
<path d="M27.5001 51.8397L27.5001 104.562C27.4937 105.997 28.0524 107.376 29.0534 108.396C30.0545 109.416 31.4159 109.993 32.8384 110L132.158 110C135.113 110 137.5 107.567 137.5 104.562L137.5 38.4343C137.5 35.4291 135.116 33 132.158 33L54.9828 33L27.5001 51.8397ZM66.2924 57.8327L66.2924 53.9877C66.292 52.9638 66.4916 51.9498 66.8799 51.0037C67.2682 50.0577 67.8375 49.1981 68.5553 48.4742C69.2732 47.7504 70.1254 47.1763 71.0633 46.785C72.0012 46.3937 73.0064 46.1927 74.0213 46.1937L78.7543 46.1937L78.7543 57.8327L66.2924 57.8327ZM67.1833 60.5186L80.5326 60.5186C82.9953 60.5186 84.9835 62.5313 84.9835 65.0055L84.9835 78.4664C84.9835 79.0558 84.8683 79.6394 84.6445 80.1838C84.4207 80.7282 84.0928 81.2227 83.6794 81.6392C83.266 82.0556 82.7753 82.3857 82.2353 82.6106C81.6954 82.8355 81.1167 82.9508 80.5326 82.9499L67.1833 82.9499L67.1833 82.9534C66.8703 82.9534 66.5745 82.9256 66.289 82.8631L66.289 60.6088C66.5745 60.5533 66.8737 60.5186 67.1833 60.5186ZM87.2089 64.551L98.7902 64.5509L98.7902 77.5954L87.2089 77.5954L87.2089 64.551ZM36.6702 85.1292L36.6702 82.6515L45.4172 79.7018C46.2255 79.4276 46.8412 79.2333 47.2436 79.1049C46.7965 78.9626 46.1326 78.7406 45.259 78.4421L36.6702 75.4578L36.6702 73.2368L49.0219 73.2368L49.0219 74.8331L38.6858 74.8331L49.0219 78.4525L49.0219 79.9412L38.5069 83.5433L49.0219 83.5433L49.0219 85.1292L36.6702 85.1292ZM66.2924 84.7509L79.1842 84.7509L79.1842 95.4981L74.0213 95.4981C73.006 95.4981 72.0007 95.2963 71.0628 94.9042C70.1248 94.5121 69.2727 93.9375 68.5549 93.213C67.8372 92.4886 67.268 91.6286 66.8797 90.6821C66.4915 89.7357 66.292 88.7214 66.2924 87.6971L66.2924 84.7509ZM36.6702 89.6369L36.6702 87.9886L49.0219 87.9886L49.0219 89.6369L36.6702 89.6369ZM48.7399 99.6103C48.4409 100.343 47.9288 100.967 47.2712 101.401C46.6122 101.839 45.8419 102.077 45.0526 102.085L44.9184 100.53C45.5341 100.46 46.0398 100.287 46.4422 100.016C46.8739 99.7003 47.2059 99.2653 47.3984 98.7635C47.6461 98.1944 47.7665 97.5594 47.7665 96.8515C47.7665 96.2234 47.6736 95.6681 47.4913 95.1858C47.3443 94.7607 47.0793 94.3872 46.7277 94.11C46.4218 93.882 46.052 93.758 45.6717 93.7561C45.305 93.75 44.9472 93.8699 44.657 94.0961C44.3165 94.3972 44.0634 94.7858 43.9244 95.2205C43.6846 95.9485 43.4825 96.6887 43.319 97.4379C43.0507 98.5831 42.7962 99.3847 42.5485 99.8428C42.2888 100.381 41.8925 100.841 41.3997 101.175C40.9401 101.465 40.4076 101.616 39.8656 101.609C39.243 101.609 38.6583 101.432 38.1148 101.075C37.554 100.693 37.123 100.147 36.88 99.5096C36.6014 98.8225 36.4569 98.0626 36.4569 97.2228C36.4569 96.2962 36.6014 95.4877 36.9006 94.7763C37.1999 94.0788 37.6333 93.5305 38.2077 93.1557C38.7787 92.7775 39.4253 92.5727 40.1545 92.545L40.2715 94.1204C39.4872 94.2106 38.899 94.4952 38.5 94.9845C38.0976 95.4773 37.8981 96.1991 37.8981 97.1568C37.8981 98.1563 38.0804 98.8815 38.445 99.3326C38.5933 99.5446 38.7895 99.7178 39.0174 99.8379C39.2454 99.958 39.4984 100.022 39.7555 100.023C39.962 100.028 40.167 99.9869 40.356 99.903C40.545 99.819 40.7134 99.6942 40.8493 99.5374C41.1348 99.2181 41.4306 98.3922 41.7299 97.0493C42.0326 95.7098 42.294 94.7936 42.5176 94.2939C42.8478 93.5687 43.2674 93.0343 43.7799 92.6872C44.289 92.3402 44.8703 92.1702 45.5376 92.1702C46.1945 92.1702 46.8102 92.361 47.395 92.7428C47.9728 93.1175 48.4269 93.6693 48.7502 94.3772C49.0801 95.1322 49.2444 95.9501 49.2318 96.7751C49.2318 97.8995 49.0666 98.8468 48.7399 99.6103ZM119.693 84.7544L119.693 87.7006C119.694 88.7245 119.496 89.7387 119.108 90.6851C118.721 91.6315 118.152 92.4915 117.435 93.2161C116.718 93.9406 115.866 94.5154 114.928 94.9075C113.991 95.2997 112.986 95.5016 111.971 95.5016L106.351 95.5016L106.351 84.7544L119.693 84.7544ZM104.122 84.7544L104.572 84.7544L104.572 95.5016L80.9659 95.5016L80.9659 84.7544L81.8706 84.7544C83.2822 84.7544 84.6362 84.1896 85.6356 83.1839C86.6351 82.1782 87.1984 80.8136 87.202 79.3895L98.7868 79.3895C98.7931 80.8134 99.3578 82.1768 100.357 83.1821C101.357 84.1873 102.71 84.7526 104.122 84.7544ZM118.819 60.5221C119.119 60.5221 119.414 60.5602 119.696 60.6123L119.696 82.8666C119.408 82.9272 119.114 82.9563 118.819 82.9534L105.463 82.9534C103.004 82.9534 101.005 80.9441 101.005 78.4699L101.005 65.0055C101.005 62.5313 103.004 60.5186 105.463 60.5186L118.819 60.5186L118.819 60.5221ZM98.8005 63.0171L98.8005 62.7881L87.1676 62.7881C87.0646 61.4413 86.4621 60.1831 85.4803 59.2646C84.4985 58.3461 83.2095 57.8348 81.8706 57.8327L80.5394 57.8327L80.5394 46.1902L105.023 46.1902L105.023 57.8327L104.122 57.8327C102.742 57.8345 101.417 58.3756 100.425 59.3424C99.4326 60.3092 98.8504 61.6263 98.8005 63.0171ZM111.971 46.1832C114.02 46.1851 115.984 47.0074 117.432 48.4695C118.88 49.9317 119.693 51.9139 119.693 53.9808L119.693 57.8223L106.801 57.8223L106.801 46.1832L111.971 46.1832Z"/>
</mask>
<path d="M27.5001 51.8397L27.5001 104.562C27.4937 105.997 28.0524 107.376 29.0534 108.396C30.0545 109.416 31.4159 109.993 32.8384 110L132.158 110C135.113 110 137.5 107.567 137.5 104.562L137.5 38.4343C137.5 35.4291 135.116 33 132.158 33L54.9828 33L27.5001 51.8397ZM66.2924 57.8327L66.2924 53.9877C66.292 52.9638 66.4916 51.9498 66.8799 51.0037C67.2682 50.0577 67.8375 49.1981 68.5553 48.4742C69.2732 47.7504 70.1254 47.1763 71.0633 46.785C72.0012 46.3937 73.0064 46.1927 74.0213 46.1937L78.7543 46.1937L78.7543 57.8327L66.2924 57.8327ZM67.1833 60.5186L80.5326 60.5186C82.9953 60.5186 84.9835 62.5313 84.9835 65.0055L84.9835 78.4664C84.9835 79.0558 84.8683 79.6394 84.6445 80.1838C84.4207 80.7282 84.0928 81.2227 83.6794 81.6392C83.266 82.0556 82.7753 82.3857 82.2353 82.6106C81.6954 82.8355 81.1167 82.9508 80.5326 82.9499L67.1833 82.9499L67.1833 82.9534C66.8703 82.9534 66.5745 82.9256 66.289 82.8631L66.289 60.6088C66.5745 60.5533 66.8737 60.5186 67.1833 60.5186ZM87.2089 64.551L98.7902 64.5509L98.7902 77.5954L87.2089 77.5954L87.2089 64.551ZM36.6702 85.1292L36.6702 82.6515L45.4172 79.7018C46.2255 79.4276 46.8412 79.2333 47.2436 79.1049C46.7965 78.9626 46.1326 78.7406 45.259 78.4421L36.6702 75.4578L36.6702 73.2368L49.0219 73.2368L49.0219 74.8331L38.6858 74.8331L49.0219 78.4525L49.0219 79.9412L38.5069 83.5433L49.0219 83.5433L49.0219 85.1292L36.6702 85.1292ZM66.2924 84.7509L79.1842 84.7509L79.1842 95.4981L74.0213 95.4981C73.006 95.4981 72.0007 95.2963 71.0628 94.9042C70.1248 94.5121 69.2727 93.9375 68.5549 93.213C67.8372 92.4886 67.268 91.6286 66.8797 90.6821C66.4915 89.7357 66.292 88.7214 66.2924 87.6971L66.2924 84.7509ZM36.6702 89.6369L36.6702 87.9886L49.0219 87.9886L49.0219 89.6369L36.6702 89.6369ZM48.7399 99.6103C48.4409 100.343 47.9288 100.967 47.2712 101.401C46.6122 101.839 45.8419 102.077 45.0526 102.085L44.9184 100.53C45.5341 100.46 46.0398 100.287 46.4422 100.016C46.8739 99.7003 47.2059 99.2653 47.3984 98.7635C47.6461 98.1944 47.7665 97.5594 47.7665 96.8515C47.7665 96.2234 47.6736 95.6681 47.4913 95.1858C47.3443 94.7607 47.0793 94.3872 46.7277 94.11C46.4218 93.882 46.052 93.758 45.6717 93.7561C45.305 93.75 44.9472 93.8699 44.657 94.0961C44.3165 94.3972 44.0634 94.7858 43.9244 95.2205C43.6846 95.9485 43.4825 96.6887 43.319 97.4379C43.0507 98.5831 42.7962 99.3847 42.5485 99.8428C42.2888 100.381 41.8925 100.841 41.3997 101.175C40.9401 101.465 40.4076 101.616 39.8656 101.609C39.243 101.609 38.6583 101.432 38.1148 101.075C37.554 100.693 37.123 100.147 36.88 99.5096C36.6014 98.8225 36.4569 98.0626 36.4569 97.2228C36.4569 96.2962 36.6014 95.4877 36.9006 94.7763C37.1999 94.0788 37.6333 93.5305 38.2077 93.1557C38.7787 92.7775 39.4253 92.5727 40.1545 92.545L40.2715 94.1204C39.4872 94.2106 38.899 94.4952 38.5 94.9845C38.0976 95.4773 37.8981 96.1991 37.8981 97.1568C37.8981 98.1563 38.0804 98.8815 38.445 99.3326C38.5933 99.5446 38.7895 99.7178 39.0174 99.8379C39.2454 99.958 39.4984 100.022 39.7555 100.023C39.962 100.028 40.167 99.9869 40.356 99.903C40.545 99.819 40.7134 99.6942 40.8493 99.5374C41.1348 99.2181 41.4306 98.3922 41.7299 97.0493C42.0326 95.7098 42.294 94.7936 42.5176 94.2939C42.8478 93.5687 43.2674 93.0343 43.7799 92.6872C44.289 92.3402 44.8703 92.1702 45.5376 92.1702C46.1945 92.1702 46.8102 92.361 47.395 92.7428C47.9728 93.1175 48.4269 93.6693 48.7502 94.3772C49.0801 95.1322 49.2444 95.9501 49.2318 96.7751C49.2318 97.8995 49.0666 98.8468 48.7399 99.6103ZM119.693 84.7544L119.693 87.7006C119.694 88.7245 119.496 89.7387 119.108 90.6851C118.721 91.6315 118.152 92.4915 117.435 93.2161C116.718 93.9406 115.866 94.5154 114.928 94.9075C113.991 95.2997 112.986 95.5016 111.971 95.5016L106.351 95.5016L106.351 84.7544L119.693 84.7544ZM104.122 84.7544L104.572 84.7544L104.572 95.5016L80.9659 95.5016L80.9659 84.7544L81.8706 84.7544C83.2822 84.7544 84.6362 84.1896 85.6356 83.1839C86.6351 82.1782 87.1984 80.8136 87.202 79.3895L98.7868 79.3895C98.7931 80.8134 99.3578 82.1768 100.357 83.1821C101.357 84.1873 102.71 84.7526 104.122 84.7544ZM118.819 60.5221C119.119 60.5221 119.414 60.5602 119.696 60.6123L119.696 82.8666C119.408 82.9272 119.114 82.9563 118.819 82.9534L105.463 82.9534C103.004 82.9534 101.005 80.9441 101.005 78.4699L101.005 65.0055C101.005 62.5313 103.004 60.5186 105.463 60.5186L118.819 60.5186L118.819 60.5221ZM98.8005 63.0171L98.8005 62.7881L87.1676 62.7881C87.0646 61.4413 86.4621 60.1831 85.4803 59.2646C84.4985 58.3461 83.2095 57.8348 81.8706 57.8327L80.5394 57.8327L80.5394 46.1902L105.023 46.1902L105.023 57.8327L104.122 57.8327C102.742 57.8345 101.417 58.3756 100.425 59.3424C99.4326 60.3092 98.8504 61.6263 98.8005 63.0171ZM111.971 46.1832C114.02 46.1851 115.984 47.0074 117.432 48.4695C118.88 49.9317 119.693 51.9139 119.693 53.9808L119.693 57.8223L106.801 57.8223L106.801 46.1832L111.971 46.1832Z" stroke="white" stroke-width="8.25" mask="url(#path-2-inside-1_14219_24063)"/>
<path d="M84.0514 127.108C84.0514 126.836 84.0079 126.596 83.9209 126.388C83.8392 126.175 83.6923 125.983 83.4801 125.813C83.2734 125.642 82.985 125.479 82.615 125.325C82.2505 125.17 81.788 125.013 81.2276 124.853C80.64 124.683 80.1095 124.493 79.6361 124.286C79.1628 124.072 78.7574 123.83 78.4201 123.558C78.0827 123.286 77.8243 122.975 77.6447 122.623C77.4652 122.271 77.3754 121.869 77.3754 121.416C77.3754 120.963 77.4706 120.544 77.6611 120.161C77.8515 119.777 78.1236 119.444 78.4772 119.161C78.8363 118.874 79.2634 118.65 79.7586 118.49C80.2537 118.33 80.8059 118.25 81.4153 118.25C82.3076 118.25 83.0639 118.418 83.6842 118.754C84.3099 119.084 84.786 119.518 85.1124 120.057C85.4389 120.59 85.6021 121.16 85.6021 121.767H84.0351C84.0351 121.33 83.9399 120.944 83.7495 120.608C83.559 120.267 83.2707 120.001 82.8844 119.809C82.4981 119.612 82.0084 119.513 81.4153 119.513C80.8549 119.513 80.3924 119.596 80.0279 119.761C79.6633 119.926 79.3913 120.15 79.2117 120.432C79.0376 120.715 78.9506 121.037 78.9506 121.4C78.9506 121.645 79.0023 121.869 79.1056 122.071C79.2145 122.268 79.3804 122.452 79.6035 122.623C79.832 122.793 80.1204 122.951 80.4686 123.094C80.8223 123.238 81.2439 123.377 81.7336 123.51C82.4083 123.697 82.9905 123.905 83.4801 124.134C83.9698 124.363 84.3725 124.621 84.688 124.909C85.009 125.192 85.2457 125.514 85.3981 125.876C85.5559 126.234 85.6348 126.639 85.6348 127.092C85.6348 127.566 85.5368 127.995 85.3409 128.379C85.1451 128.762 84.8649 129.09 84.5003 129.362C84.1358 129.634 83.6978 129.844 83.1863 129.993C82.6803 130.137 82.1145 130.209 81.4888 130.209C80.9392 130.209 80.3979 130.135 79.8646 129.985C79.3369 129.836 78.8554 129.612 78.4201 129.314C77.9902 129.016 77.6447 128.648 77.3836 128.211C77.1279 127.768 77 127.257 77 126.676H78.567C78.567 127.076 78.6459 127.419 78.8037 127.707C78.9615 127.99 79.1764 128.224 79.4484 128.411C79.7259 128.597 80.0388 128.736 80.387 128.826C80.7406 128.912 81.1079 128.954 81.4888 128.954C82.0383 128.954 82.5035 128.88 82.8844 128.73C83.2652 128.581 83.5536 128.368 83.7495 128.091C83.9508 127.814 84.0514 127.486 84.0514 127.108Z" fill="white"/>
<path d="M92.8168 128.051V121.4H94.3348V130.049H92.8902L92.8168 128.051ZM93.1024 126.228L93.7309 126.212C93.7309 126.788 93.6683 127.321 93.5431 127.811C93.4234 128.296 93.2276 128.717 92.9555 129.074C92.6835 129.431 92.3271 129.711 91.8864 129.914C91.4457 130.111 90.9097 130.209 90.2786 130.209C89.8487 130.209 89.4543 130.148 89.0952 130.025C88.7415 129.903 88.4368 129.714 88.1811 129.458C87.9254 129.202 87.7268 128.869 87.5853 128.459C87.4493 128.048 87.3813 127.555 87.3813 126.98V121.4H88.8911V126.996C88.8911 127.385 88.9347 127.707 89.0217 127.963C89.1142 128.213 89.2366 128.413 89.389 128.563C89.5468 128.706 89.7209 128.808 89.9113 128.866C90.1072 128.925 90.3085 128.954 90.5153 128.954C91.1573 128.954 91.666 128.834 92.0414 128.594C92.4169 128.349 92.6862 128.022 92.8494 127.611C93.0181 127.195 93.1024 126.734 93.1024 126.228Z" fill="white"/>
<path d="M98.1462 123.063V133.375H96.6281V121.4H98.0156L98.1462 123.063ZM104.096 125.653V125.82C104.096 126.449 104.02 127.033 103.867 127.571C103.715 128.104 103.492 128.568 103.198 128.962C102.91 129.357 102.553 129.663 102.129 129.882C101.705 130.1 101.218 130.209 100.668 130.209C100.108 130.209 99.6125 130.119 99.1827 129.938C98.7528 129.756 98.3883 129.492 98.089 129.146C97.7898 128.8 97.5504 128.384 97.3708 127.899C97.1967 127.414 97.077 126.868 97.0117 126.26V125.365C97.077 124.725 97.1994 124.152 97.379 123.646C97.5585 123.14 97.7952 122.708 98.089 122.351C98.3883 121.989 98.7501 121.714 99.1745 121.528C99.5989 121.336 100.089 121.24 100.644 121.24C101.199 121.24 101.691 121.346 102.121 121.56C102.551 121.767 102.912 122.066 103.206 122.455C103.5 122.844 103.72 123.31 103.867 123.854C104.02 124.392 104.096 124.992 104.096 125.653ZM102.578 125.82V125.653C102.578 125.221 102.532 124.816 102.439 124.438C102.347 124.054 102.202 123.718 102.007 123.43C101.816 123.137 101.571 122.908 101.272 122.743C100.973 122.572 100.616 122.487 100.203 122.487C99.822 122.487 99.4901 122.551 99.2071 122.679C98.9297 122.807 98.693 122.98 98.4971 123.198C98.3012 123.412 98.1407 123.657 98.0156 123.934C97.8959 124.206 97.8061 124.488 97.7463 124.781V126.852C97.8551 127.225 98.0074 127.577 98.2033 127.907C98.3992 128.232 98.6603 128.496 98.9868 128.698C99.3132 128.896 99.724 128.994 100.219 128.994C100.627 128.994 100.978 128.912 101.272 128.746C101.571 128.576 101.816 128.344 102.007 128.051C102.202 127.758 102.347 127.422 102.439 127.044C102.532 126.66 102.578 126.252 102.578 125.82Z" fill="white"/>
<path d="M107.532 123.063V133.375H106.014V121.4H107.401L107.532 123.063ZM113.481 125.653V125.82C113.481 126.449 113.405 127.033 113.253 127.571C113.101 128.104 112.877 128.568 112.584 128.962C112.295 129.357 111.939 129.663 111.515 129.882C111.09 130.1 110.603 130.209 110.054 130.209C109.493 130.209 108.998 130.119 108.568 129.938C108.138 129.756 107.774 129.492 107.475 129.146C107.175 128.8 106.936 128.384 106.756 127.899C106.582 127.414 106.463 126.868 106.397 126.26V125.365C106.463 124.725 106.585 124.152 106.765 123.646C106.944 123.14 107.181 122.708 107.475 122.351C107.774 121.989 108.136 121.714 108.56 121.528C108.984 121.336 109.474 121.24 110.029 121.24C110.584 121.24 111.077 121.346 111.506 121.56C111.936 121.767 112.298 122.066 112.592 122.455C112.886 122.844 113.106 123.31 113.253 123.854C113.405 124.392 113.481 124.992 113.481 125.653ZM111.963 125.82V125.653C111.963 125.221 111.917 124.816 111.825 124.438C111.732 124.054 111.588 123.718 111.392 123.43C111.202 123.137 110.957 122.908 110.658 122.743C110.358 122.572 110.002 122.487 109.588 122.487C109.208 122.487 108.876 122.551 108.593 122.679C108.315 122.807 108.079 122.98 107.883 123.198C107.687 123.412 107.526 123.657 107.401 123.934C107.281 124.206 107.192 124.488 107.132 124.781V126.852C107.241 127.225 107.393 127.577 107.589 127.907C107.785 128.232 108.046 128.496 108.372 128.698C108.699 128.896 109.11 128.994 109.605 128.994C110.013 128.994 110.364 128.912 110.658 128.746C110.957 128.576 111.202 128.344 111.392 128.051C111.588 127.758 111.732 127.422 111.825 127.044C111.917 126.66 111.963 126.252 111.963 125.82Z" fill="white"/>
<path d="M115.008 125.82V125.637C115.008 125.013 115.1 124.435 115.285 123.902C115.47 123.364 115.737 122.897 116.085 122.503C116.433 122.103 116.855 121.794 117.35 121.576C117.845 121.352 118.4 121.24 119.015 121.24C119.635 121.24 120.193 121.352 120.688 121.576C121.188 121.794 121.613 122.103 121.961 122.503C122.315 122.897 122.584 123.364 122.769 123.902C122.954 124.435 123.047 125.013 123.047 125.637V125.82C123.047 126.444 122.954 127.022 122.769 127.555C122.584 128.088 122.315 128.555 121.961 128.954C121.613 129.349 121.191 129.658 120.696 129.882C120.206 130.1 119.651 130.209 119.031 130.209C118.411 130.209 117.853 130.1 117.358 129.882C116.863 129.658 116.439 129.349 116.085 128.954C115.737 128.555 115.47 128.088 115.285 127.555C115.1 127.022 115.008 126.444 115.008 125.82ZM116.517 125.637V125.82C116.517 126.252 116.569 126.66 116.673 127.044C116.776 127.422 116.931 127.758 117.138 128.051C117.35 128.344 117.614 128.576 117.929 128.746C118.245 128.912 118.612 128.994 119.031 128.994C119.445 128.994 119.806 128.912 120.117 128.746C120.432 128.576 120.693 128.344 120.9 128.051C121.107 127.758 121.262 127.422 121.365 127.044C121.474 126.66 121.529 126.252 121.529 125.82V125.637C121.529 125.21 121.474 124.808 121.365 124.43C121.262 124.046 121.104 123.707 120.892 123.414C120.685 123.116 120.424 122.881 120.108 122.711C119.798 122.54 119.434 122.455 119.015 122.455C118.601 122.455 118.237 122.54 117.921 122.711C117.611 122.881 117.35 123.116 117.138 123.414C116.931 123.707 116.776 124.046 116.673 124.43C116.569 124.808 116.517 125.21 116.517 125.637Z" fill="white"/>
<path d="M126.45 122.759V130.049H124.94V121.4H126.409L126.45 122.759ZM129.208 121.352L129.2 122.727C129.075 122.7 128.955 122.684 128.841 122.679C128.732 122.668 128.607 122.663 128.466 122.663C128.118 122.663 127.81 122.716 127.543 122.823C127.277 122.929 127.051 123.078 126.866 123.27C126.681 123.462 126.534 123.691 126.425 123.958C126.322 124.219 126.254 124.507 126.221 124.821L125.797 125.061C125.797 124.539 125.849 124.048 125.952 123.59C126.061 123.132 126.227 122.727 126.45 122.375C126.673 122.018 126.956 121.741 127.299 121.544C127.647 121.341 128.06 121.24 128.539 121.24C128.648 121.24 128.773 121.253 128.915 121.28C129.056 121.301 129.154 121.325 129.208 121.352Z" fill="white"/>
<path d="M134.709 121.4V122.535H129.935V121.4H134.709ZM131.551 119.297H133.061V127.907C133.061 128.2 133.107 128.421 133.199 128.57C133.292 128.72 133.412 128.818 133.558 128.866C133.705 128.914 133.863 128.938 134.032 128.938C134.157 128.938 134.288 128.928 134.424 128.906C134.565 128.88 134.671 128.858 134.742 128.842L134.75 130.049C134.63 130.087 134.473 130.121 134.277 130.153C134.086 130.191 133.855 130.209 133.583 130.209C133.213 130.209 132.873 130.137 132.563 129.993C132.253 129.85 132.005 129.61 131.82 129.274C131.641 128.933 131.551 128.475 131.551 127.899V119.297Z" fill="white"/>
</svg>
