<svg width="165" height="165" viewBox="0 0 165 165" fill="none" xmlns="http://www.w3.org/2000/svg">
<rect x="2.75" y="2.75" width="159.5" height="159.5" rx="17.875" stroke="white" stroke-width="5.5"/>
<path d="M24.75 119.701V111.543C24.75 111.043 25.1586 110.634 25.6584 110.662C32.9287 111.073 34.7382 116.432 34.7546 119.782C34.7569 120.251 34.3616 120.607 33.8928 120.607H25.6564C25.1558 120.607 24.75 120.201 24.75 119.701Z" fill="white"/>
<path fill-rule="evenodd" clip-rule="evenodd" d="M34.7197 48.0947V77.1001H29.2812V46.2819C29.2812 44.2795 30.9045 42.6562 32.9069 42.6562H138.051C140.054 42.6562 141.677 44.2795 141.677 46.2819V112.45C141.677 114.453 140.054 116.076 138.051 116.076H69.1636V110.637H136.238V48.0947H34.7197Z" fill="white"/>
<path d="M25.6641 86.1562C36.5411 87.0627 58.295 95.0391 58.295 119.694" stroke="white" stroke-width="5.4385"/>
<path d="M25.6641 99.7594C32.3111 99.4572 45.6052 103.022 45.6052 119.701" stroke="white" stroke-width="5.4385"/>
<path d="M108.894 72.9448L103.479 67.4972L103.512 78.0527L108.894 72.9448Z" fill="white"/>
<path d="M103.587 82.7659L103.479 82.8625L103.49 93.3872L108.937 87.8979L103.587 82.7659Z" fill="white"/>
<path fill-rule="evenodd" clip-rule="evenodd" d="M103.125 105.875C117.552 105.875 129.25 94.1781 129.25 79.75C129.25 65.3219 117.552 53.625 103.125 53.625C88.6982 53.625 77 65.3219 77 79.75C77 94.1781 88.6982 105.875 103.125 105.875ZM102.566 62.2429L112.374 72.1123C112.664 72.397 112.793 72.7891 112.739 73.165C112.707 73.4403 112.589 73.7062 112.374 73.9143L106.788 79.5405C106.294 80.0414 106.294 80.8578 106.788 81.3506L112.374 86.9688C112.868 87.4696 112.868 88.286 112.374 88.7788L102.577 98.6321C102.201 99.0094 101.707 99.0765 101.288 98.9221C100.826 98.7529 100.461 98.3152 100.461 97.7271V85.1667L94.2627 91.0508C94.2197 91.0951 94.1553 91.1152 94.1016 91.1125C94.0479 91.1112 93.9941 91.087 93.9512 91.0427L92.1895 89.1185C92.1035 89.0299 92.1143 88.8849 92.2002 88.7949L100.461 80.9545V79.7661L92.1895 71.8451C92.1035 71.7565 92.1035 71.6115 92.1895 71.5215L93.9512 69.6067C94.0371 69.5167 94.1768 69.5087 94.2627 69.5986L100.461 75.531V63.1479C100.461 62.024 101.782 61.4507 102.566 62.2429Z" fill="white"/>
</svg>
