<svg width="218" height="218" viewBox="0 0 218 218" fill="none" xmlns="http://www.w3.org/2000/svg">
<path d="M69.9187 77.0995C69.0032 77.0995 68.0814 76.8057 67.3044 76.2011C66.4784 75.5581 65.6545 74.9003 64.8519 74.2489C63.0274 72.765 62.7528 70.0826 64.2366 68.2581C65.7205 66.4337 68.4029 66.159 70.2274 67.6429C70.9831 68.256 71.7602 68.8755 72.5394 69.4822C74.3936 70.9278 74.7257 73.6038 73.2802 75.4581C72.4414 76.5374 71.1875 77.0995 69.9187 77.0995V77.0995Z" fill="#004039"/>
<path d="M141.754 198.573C141.771 198.545 141.786 198.517 141.803 198.49C141.839 198.426 141.873 198.362 141.907 198.298C141.922 198.268 141.937 198.24 141.952 198.211C141.996 198.119 142.037 198.028 142.075 197.934C142.077 197.928 142.079 197.919 142.084 197.913C142.12 197.823 142.15 197.732 142.179 197.64L142.192 197.602C142.439 196.791 148.213 177.503 147.736 155.062C147.451 141.675 144.979 129.954 140.389 120.227C134.526 107.805 125.244 98.6694 112.803 93.0789C102.484 88.4421 93.0018 83.3689 84.6203 77.9998C82.6404 76.731 80.0069 77.308 78.7381 79.2878C77.4693 81.2677 78.0462 83.9012 80.0282 85.17C88.761 90.7626 98.6136 96.0359 109.311 100.845C119.822 105.567 127.673 113.282 132.646 123.773C136.727 132.383 138.939 142.906 139.218 155.049C139.459 165.492 138.209 175.363 136.879 182.695L136.789 182.529C136.651 182.269 136.512 182.01 136.37 181.744C136.336 181.682 136.299 181.618 136.265 181.554C136.123 181.292 135.978 181.028 135.829 180.76C135.797 180.703 135.763 180.643 135.731 180.585C135.578 180.309 135.422 180.032 135.261 179.751L135.163 179.581C134.999 179.293 134.833 179.006 134.662 178.714C134.633 178.665 134.603 178.612 134.573 178.563C133.779 177.207 132.91 175.789 131.959 174.314C129.943 171.186 127.426 167.612 124.333 163.718C123.818 163.069 123.285 162.411 122.736 161.745L122.183 161.076C121.81 160.629 121.429 160.178 121.042 159.722C119.412 157.813 117.738 155.943 116.022 154.112C108.83 146.442 99.6035 138.075 87.886 129.722C81.2928 125.021 75.4 119.375 70.2778 112.865C67.9488 109.906 65.7816 106.768 63.7783 103.457C62.8096 101.854 61.8772 100.213 60.9851 98.5289C58.605 94.0433 56.5017 89.2788 54.69 84.2716C54.4643 83.6457 54.2408 83.0155 54.0236 82.3833C53.1529 79.8499 52.3567 77.2547 51.635 74.6042C51.5413 74.2594 51.4498 73.9166 51.3582 73.5738C51.3327 73.4802 51.3093 73.3865 51.2837 73.2928C51.2156 73.0331 51.1496 72.7755 51.0836 72.5179L51.0133 72.239C50.843 71.5642 50.6791 70.8936 50.5237 70.2293C50.5024 70.1335 50.479 70.0399 50.4577 69.9462C50.4002 69.6971 50.3427 69.4502 50.2874 69.2032C50.2661 69.1117 50.2448 69.0201 50.2257 68.9286C50.1511 68.6029 50.0788 68.2771 50.0106 67.9535C50.0085 67.9408 50.0042 67.928 50.0021 67.9152C49.934 67.6044 49.8701 67.2957 49.8041 66.9891C49.785 66.8955 49.7658 66.8018 49.7445 66.706C49.6956 66.4697 49.6466 66.2334 49.5998 65.9992C49.5806 65.9077 49.5636 65.8161 49.5444 65.7246C49.4827 65.4116 49.4209 65.1008 49.3613 64.7921L49.3485 64.7261C49.2932 64.4387 49.24 64.1513 49.1867 63.8682L49.1357 63.5872L49.0143 62.9165C48.9994 62.8293 48.9824 62.7398 48.9675 62.6526C48.9142 62.3545 48.8632 62.0586 48.8142 61.7648C48.8099 61.7329 48.8035 61.7031 48.7993 61.6711C48.7546 61.405 48.7099 61.1432 48.6673 60.8813L48.6226 60.6088C48.5885 60.3959 48.5545 60.183 48.5225 59.9723L48.4842 59.7232C48.4395 59.44 48.3969 59.159 48.3565 58.8801L48.3437 58.7907C48.3075 58.5395 48.2713 58.2904 48.2351 58.0435C48.2309 58.0094 48.2266 57.9754 48.2202 57.9413C49.6125 59.6359 51.1901 61.4327 52.9783 63.3147C54.5984 65.0199 57.2936 65.088 58.9989 63.4701C60.7041 61.85 60.7723 59.1548 59.1543 57.4516C49.6615 47.4586 46.8684 40.3395 46.7406 40.0074C46.7172 39.9371 46.6874 39.869 46.6597 39.8009C46.6533 39.786 46.6491 39.7711 46.6427 39.7562C45.8976 37.9636 44.0305 36.9098 42.0847 37.2057C40.6158 37.4293 39.4215 38.4022 38.8467 39.6987C17.9408 85.3659 16.1334 122.696 33.4733 150.651C40.2922 161.645 50.0958 171.118 62.6095 178.812C72.4919 184.886 84.0816 189.867 97.0573 193.619C119.034 199.971 137.228 200.599 137.992 200.623H138.124C138.255 200.623 138.387 200.616 138.518 200.601C138.601 200.593 138.682 200.584 138.763 200.572C138.784 200.567 138.805 200.565 138.826 200.563C138.922 200.546 139.018 200.527 139.112 200.503C139.142 200.497 139.171 200.489 139.203 200.48C139.274 200.461 139.344 200.442 139.412 200.418C139.533 200.381 139.651 200.338 139.767 200.288C139.789 200.28 139.81 200.269 139.831 200.261C139.904 200.229 139.974 200.197 140.044 200.161C140.07 200.148 140.097 200.133 140.123 200.12C140.204 200.078 140.283 200.033 140.361 199.984L140.381 199.971C140.466 199.918 140.547 199.863 140.628 199.803C140.649 199.788 140.67 199.771 140.691 199.754C140.755 199.707 140.815 199.656 140.877 199.605C140.971 199.526 141.061 199.443 141.147 199.356C141.164 199.339 141.179 199.322 141.194 199.305C141.247 199.25 141.298 199.192 141.349 199.135L141.413 199.058C141.426 199.041 141.441 199.026 141.454 199.009C141.488 198.966 141.52 198.922 141.551 198.879C141.566 198.858 141.583 198.837 141.598 198.815C141.652 198.737 141.703 198.656 141.754 198.573V198.573ZM67.0589 171.553C55.6842 164.561 46.8151 156.016 40.6988 146.159C26.9993 124.074 26.7183 94.9843 39.8238 59.5252C39.8302 59.5763 39.8387 59.6274 39.8472 59.6785C39.877 59.8829 39.9068 60.0894 39.9388 60.298C39.9516 60.3874 39.9643 60.4768 39.9792 60.5662C40.0239 60.8558 40.0686 61.1453 40.1134 61.4391C40.1134 61.4412 40.1133 61.4455 40.1155 61.4476C40.1623 61.7435 40.2113 62.0416 40.2602 62.3417C40.2751 62.4312 40.2901 62.5227 40.305 62.6142C40.3411 62.8314 40.3773 63.0507 40.4157 63.2699L40.4667 63.5701C40.5072 63.8064 40.5498 64.0449 40.5924 64.2833L40.6307 64.5026C40.686 64.8134 40.7435 65.1242 40.8031 65.4393C40.8159 65.5138 40.8308 65.5883 40.8457 65.6628C40.8904 65.9055 40.9372 66.1504 40.9862 66.3952C41.0075 66.5016 41.0267 66.6081 41.0479 66.7145C41.0926 66.9423 41.1374 67.1701 41.1842 67.4C41.2033 67.5001 41.2246 67.6001 41.2438 67.7002C41.3077 68.0195 41.3737 68.341 41.4418 68.6646C41.4439 68.6731 41.446 68.6795 41.446 68.688C41.5142 69.0137 41.5844 69.3395 41.6568 69.6694C41.6781 69.7716 41.7015 69.8738 41.7249 69.976C41.7782 70.2123 41.8293 70.4507 41.8846 70.6892C41.9101 70.7999 41.9336 70.9106 41.9591 71.0234C42.0187 71.2831 42.0783 71.545 42.1401 71.8069C42.1592 71.8878 42.1763 71.9665 42.1954 72.0474C42.2742 72.3859 42.3572 72.7265 42.4402 73.0672C42.4594 73.1481 42.4807 73.2311 42.4999 73.3141C42.5637 73.5781 42.6297 73.8442 42.6978 74.1103C42.7255 74.2253 42.7553 74.3403 42.7851 74.4531C42.849 74.7022 42.9129 74.9491 42.9767 75.2003L43.0598 75.5239C43.1513 75.8752 43.245 76.2265 43.3408 76.5799C46.4256 87.9865 50.8196 98.465 56.4016 107.724C63.427 119.375 72.3535 129.109 82.9363 136.653C83.6282 137.147 84.3094 137.639 84.9843 138.133C85.6592 138.627 86.3213 139.119 86.977 139.61C88.8891 141.047 90.775 142.518 92.6335 144.024C93.5361 144.756 94.4196 145.486 95.2861 146.214C95.863 146.7 96.4314 147.183 96.9892 147.666C97.2681 147.907 97.547 148.149 97.8216 148.39C110.22 159.226 118.393 169.381 123.547 177.03C123.662 177.2 123.775 177.369 123.886 177.537C124.109 177.871 124.326 178.201 124.537 178.527C124.761 178.87 124.978 179.208 125.191 179.544C125.259 179.653 125.325 179.759 125.393 179.866C125.536 180.092 125.678 180.317 125.817 180.539C125.898 180.668 125.974 180.794 126.053 180.922C126.174 181.12 126.296 181.318 126.415 181.512C126.498 181.65 126.579 181.784 126.662 181.92C126.77 182.101 126.879 182.282 126.985 182.461C127.069 182.602 127.149 182.74 127.23 182.88C127.33 183.051 127.43 183.223 127.528 183.391C127.609 183.532 127.688 183.67 127.767 183.809C127.86 183.973 127.954 184.134 128.044 184.296C128.122 184.437 128.199 184.573 128.276 184.711C128.363 184.867 128.448 185.022 128.533 185.175C128.61 185.314 128.684 185.452 128.759 185.588C128.84 185.735 128.919 185.884 128.997 186.029C129.072 186.165 129.144 186.302 129.214 186.438C129.289 186.578 129.363 186.719 129.436 186.857C129.508 186.993 129.578 187.128 129.647 187.262C129.715 187.394 129.783 187.526 129.851 187.656C129.919 187.79 129.989 187.924 130.055 188.056C130.119 188.181 130.181 188.305 130.243 188.428C130.309 188.56 130.375 188.694 130.439 188.824C130.496 188.941 130.554 189.056 130.609 189.173L130.798 189.565C130.849 189.672 130.901 189.778 130.95 189.882C131.013 190.014 131.075 190.146 131.137 190.276C131.182 190.372 131.224 190.464 131.269 190.557C131.331 190.691 131.394 190.828 131.454 190.96C131.49 191.036 131.522 191.111 131.556 191.185C131.62 191.328 131.686 191.471 131.748 191.611C131.75 191.615 131.752 191.62 131.754 191.626C124.729 190.934 112.726 189.284 99.4076 185.433C87.1749 181.895 76.2899 177.226 67.0589 171.553V171.553Z" fill="#004039"/>
<path d="M106.972 169.487C110.134 173.11 106.614 178.63 101.993 177.306C82.4748 171.716 60.0276 161.224 47.8928 141.6C42.7302 133.25 39.7476 123.677 38.945 112.926C38.5639 107.81 45.3892 105.707 47.9503 110.15C48.3314 110.812 48.7188 111.467 49.1105 112.117C56.7405 124.771 66.4569 135.358 77.9934 143.584C90.5795 152.558 99.9893 161.482 106.972 169.487Z" fill="#B4E7B4"/>
<path d="M188.065 58.3296C188.055 58.319 188.044 58.3104 188.033 58.2998C187.946 58.2146 187.857 58.1359 187.763 58.0571C187.744 58.0422 187.725 58.0273 187.708 58.0124C186.471 57.0203 184.772 56.7478 183.309 57.4057C181.719 58.1231 180.725 59.6815 180.804 61.4229C180.795 61.755 180.657 65.0655 178.377 70.5048C174.321 80.1722 166.772 88.9348 161.152 94.5828C152.342 103.437 150.443 115.806 155.659 130.353C159.357 140.665 165.356 148.482 165.676 148.895C165.686 148.91 165.699 148.923 165.71 148.938C165.771 149.015 165.835 149.089 165.901 149.162C165.92 149.183 165.942 149.204 165.961 149.225C166.038 149.306 166.118 149.385 166.202 149.46C166.208 149.464 166.213 149.469 166.219 149.474C166.302 149.547 166.387 149.617 166.474 149.683C166.489 149.696 166.506 149.707 166.521 149.719C166.612 149.787 166.706 149.851 166.802 149.909C166.819 149.919 166.836 149.928 166.853 149.939C166.938 149.99 167.023 150.037 167.111 150.081L167.174 150.113C167.268 150.16 167.364 150.2 167.46 150.239C167.494 150.254 167.53 150.266 167.564 150.279C167.647 150.311 167.732 150.339 167.817 150.364C167.858 150.377 167.9 150.388 167.941 150.398C168.02 150.42 168.098 150.439 168.179 150.456C168.218 150.464 168.258 150.473 168.296 150.479C168.396 150.496 168.499 150.511 168.601 150.522C168.633 150.526 168.667 150.528 168.699 150.53C168.805 150.539 168.912 150.545 169.018 150.545H169.039C169.167 150.545 169.297 150.539 169.427 150.526C169.444 150.524 169.459 150.524 169.476 150.522C169.482 150.522 169.489 150.522 169.493 150.52C169.537 150.516 169.582 150.505 169.627 150.498C169.718 150.486 169.808 150.475 169.897 150.456C169.976 150.439 170.053 150.418 170.129 150.398C170.187 150.384 170.244 150.371 170.302 150.354C170.406 150.322 170.506 150.283 170.606 150.243C170.634 150.232 170.659 150.226 170.687 150.213C170.691 150.211 170.702 150.207 170.708 150.205C170.721 150.198 170.734 150.194 170.747 150.188C171.571 149.836 179.541 146.373 188.146 139.873C193.428 135.884 197.869 131.562 201.343 127.027C205.803 121.209 208.686 115.025 209.91 108.644C213.008 92.5284 205.657 75.595 188.065 58.3296V58.3296ZM167.187 100.591C174.875 92.8626 180.676 85.1389 184.491 77.5621L184.529 77.9262C185.626 89.1562 183.48 98.9215 178.153 106.952C171.226 117.392 167.839 126.54 166.204 133.427C165.307 131.598 164.432 129.595 163.674 127.479C159.589 116.087 160.771 107.041 167.187 100.591V100.591ZM201.554 107.02C198.501 123.006 182.745 134.034 173.736 139.139C173.855 138.398 174 137.604 174.176 136.754C175.356 131.138 178.234 122.227 185.247 111.661C191.616 102.059 194.292 90.0673 192.99 76.9703C200.479 87.5041 203.359 97.5696 201.554 107.02V107.02Z" fill="#004039"/>
</svg>
