<svg width="199" height="58" viewBox="0 0 199 58" fill="none" xmlns="http://www.w3.org/2000/svg">
<mask id="mask0_15799_24821" style="mask-type:luminance" maskUnits="userSpaceOnUse" x="0" y="3" width="199" height="54">
<path d="M199 3.31445H0V56.257H199V3.31445Z" fill="white"/>
</mask>
<g mask="url(#mask0_15799_24821)">
<path d="M19.473 35.4948L12.3566 49.6387H199.065L195.506 56.2567H0L27.6892 3.96289H37.8452L43.6031 44.5781H35.3222L34.2224 34.1973L33.5108 27.7092L31.6992 10.1266L26.0199 21.7322L22.7077 28.7473L19.5377 35.4948H19.473Z" fill="black"/>
<path d="M78.536 24.3354C80.5415 22.1942 81.8354 19.5342 82.4176 16.4199C82.8705 13.9545 82.8058 11.7486 82.1588 9.86703C81.5118 7.98549 80.3474 6.49323 78.6653 5.45515C76.9833 4.41706 74.9777 3.96289 72.4547 3.96289H56.2164L48.4531 44.5781H56.1516L59.1277 28.942H63.268L70.3844 44.5781H79.5711L71.3549 28.5525C74.1367 27.9038 76.595 26.4765 78.536 24.3354ZM74.7836 16.4199C74.3954 18.4962 73.4898 20.1182 72.1958 21.2212C70.902 22.324 69.1553 22.908 67.085 22.908H60.2275L62.6858 9.99678H69.5435C71.6136 9.99678 73.1016 10.5807 74.0074 11.6837C74.913 12.7218 75.1719 14.3438 74.7836 16.4199Z" fill="#E4007F"/>
<path d="M111.857 3.96289H102.347L81.0625 44.5781H88.8905L93.9366 34.1973L97.1067 27.7092L105.711 10.1266L107.523 27.7092L108.234 34.1973L109.334 44.5781H117.615L111.857 3.96289Z" fill="#E4007F"/>
<path d="M140.838 38.9991C138.703 38.9991 136.956 38.4152 135.533 37.1824C134.11 35.9498 133.204 34.2629 132.686 31.9921C132.234 29.7861 132.234 27.1908 132.816 24.2713C133.398 21.3517 134.304 18.8213 135.662 16.5505C137.021 14.3446 138.574 12.5928 140.45 11.3601C142.326 10.1273 144.331 9.5434 146.466 9.5434C150.866 9.5434 153.324 11.6845 153.842 15.9666L160.699 12.9821C160.376 9.93269 159.146 7.59698 156.882 5.84522C154.618 4.15833 151.577 3.25 147.76 3.25C144.137 3.25 140.709 4.15833 137.539 5.9101C134.368 7.66188 131.716 10.1273 129.517 13.3065C127.317 16.4856 125.894 20.119 125.117 24.2063C124.341 28.3588 124.406 31.9921 125.376 35.1711C126.346 38.3504 128.093 40.8159 130.552 42.5676C133.075 44.3194 136.115 45.1627 139.803 45.1627C143.62 45.1627 146.984 44.3194 149.895 42.5676C152.806 40.8159 155.006 38.4801 156.429 35.4307L150.672 32.5111C148.537 36.8581 145.302 38.9991 140.838 38.9991Z" fill="#E4007F"/>
<path d="M191.623 10.451L192.853 3.96289H167.88L160.117 44.5781H185.089L186.318 38.1549H168.98L171.18 26.4765H187.289L188.518 20.0532H172.409L174.22 10.3861L191.623 10.451Z" fill="#E4007F"/>
</g>
</svg>
