<svg width="141" height="40" viewBox="0 0 141 40" fill="none" xmlns="http://www.w3.org/2000/svg">
<path d="M4.34717 40H0V21.3622C0 16.5203 3.9947 12.5943 8.92223 12.5943H16.1665C18.1039 12.5943 19.6746 14.1385 19.6746 16.0423V19.7142H8.92223C7.99649 19.7142 7.24581 20.4518 7.24581 21.3622V37.1517C7.24581 38.7246 5.94789 40 4.34717 40Z" fill="white"/>
<path d="M70.0207 40H61.298C56.3697 40 52.375 36.0747 52.375 31.2328V21.3622C52.375 16.5203 56.3697 12.5943 61.298 12.5943H65.2533C67.1907 12.5943 68.7622 14.1385 68.7622 16.0423V19.7142H61.298C60.3715 19.7142 59.6208 20.4518 59.6208 21.3622V31.2328C59.6208 32.1424 60.3715 32.8801 61.298 32.8801H70.0207C70.9465 32.8801 71.6972 32.1424 71.6972 31.2328V0.000175476H75.4348C77.3722 0.000175476 78.943 1.54364 78.943 3.44817V31.2328C78.943 36.0747 74.9483 40 70.0207 40Z" fill="white"/>
<path d="M90.546 13.4381C91.6255 14.7777 96.2621 20.5363 97.2454 21.7566L92.7846 26.1406C90.1194 24.068 84.6856 19.8428 81.9928 17.7484C81.9613 17.7244 81.9613 17.6841 81.9897 17.6562L86.7492 12.9794C87.768 11.9783 89.4476 12.0744 90.3418 13.1847L90.546 13.4381Z" fill="white"/>
<path d="M84.3173 32.7242C85.6807 31.6634 91.541 27.1074 92.7829 26.1412L97.2445 30.5244C95.5878 32.5808 92.5811 36.3147 90.3338 39.1057C89.4419 40.2129 87.7687 40.3059 86.7531 39.3071L81.9375 34.5752L84.3173 32.7242Z" fill="white"/>
<path d="M103.942 38.8433C102.862 37.5036 98.2247 31.7451 97.2422 30.5247L101.703 26.1407C104.368 28.2134 109.802 32.4385 112.495 34.5329C112.526 34.5569 112.526 34.5972 112.498 34.6251L107.738 39.302C106.72 40.3031 105.04 40.207 104.146 39.0966L103.942 38.8433Z" fill="white"/>
<path d="M110.169 19.5577C108.806 20.6184 102.946 25.1744 101.704 26.1406L97.2422 21.7574C98.8871 19.7157 101.862 16.0206 104.104 13.2374C105.052 12.0596 106.709 11.9682 107.79 13.0297L112.549 17.7066L110.169 19.5577Z" fill="white"/>
<path d="M132.075 12.5943H119.625C117.687 12.5943 116.116 14.1377 116.116 16.0423V19.7142H132.075C133.002 19.7142 133.753 20.4518 133.753 21.3622V31.232C133.753 32.1417 133.002 32.8801 132.075 32.8801H123.688C122.577 32.8801 121.675 31.9945 121.675 30.9027C121.675 29.811 122.577 28.9261 123.688 28.9261H130.817V26.2491C130.817 24.8242 129.64 23.6681 128.19 23.6681H122.739C118.15 23.6681 114.43 27.3238 114.43 31.8333C114.43 36.342 118.149 39.9977 122.738 39.9985L132.075 40C137.004 40 140.998 36.0739 140.998 31.232V21.3622C140.998 16.5196 137.004 12.5943 132.075 12.5943Z" fill="white"/>
<path d="M39.0129 12.5943H26.5628C24.6246 12.5943 23.0539 14.1377 23.0539 16.0423V19.7142H39.0129C39.9395 19.7142 40.6901 20.4518 40.6901 21.3622V31.232C40.6901 32.1417 39.9395 32.8801 39.0129 32.8801H30.6253C29.5143 32.8801 28.613 31.9945 28.613 30.9027C28.613 29.811 29.5143 28.9261 30.6253 28.9261H37.7544V26.2491C37.7544 24.8242 36.5779 23.6681 35.1278 23.6681H29.6767C25.0875 23.6681 21.3672 27.3238 21.3672 31.8333C21.3672 36.342 25.0867 39.9977 29.6751 39.9985L39.0129 40C43.9412 40 47.9359 36.0739 47.9359 31.232V21.3622C47.9359 16.5196 43.9412 12.5943 39.0129 12.5943Z" fill="white"/>
</svg>
