<svg width="125" height="37" viewBox="0 0 125 37" fill="none" xmlns="http://www.w3.org/2000/svg">
<path d="M3.85387 36.0039H0V19.2299C0 14.8722 3.5414 11.3387 7.90978 11.3387H14.332C16.0495 11.3387 17.4421 12.7286 17.4421 14.4419V17.7467H7.90978C7.08909 17.7467 6.42359 18.4105 6.42359 19.2299V33.4405C6.42359 34.8561 5.27295 36.0039 3.85387 36.0039Z" fill="#74BC1F"/>
<path d="M62.077 36.0039H54.3441C49.975 36.0039 46.4336 32.4711 46.4336 28.1134V19.2299C46.4336 14.8722 49.975 11.3387 54.3441 11.3387H57.8505C59.5681 11.3387 60.9613 12.7286 60.9613 14.4419V17.7467H54.3441C53.5227 17.7467 52.8572 18.4105 52.8572 19.2299V28.1134C52.8572 28.9321 53.5227 29.596 54.3441 29.596H62.077C62.8977 29.596 63.5632 28.9321 63.5632 28.1134V0.00406647H66.8767C68.5942 0.00406647 69.9868 1.39318 69.9868 3.10726V28.1134C69.9868 32.4711 66.4454 36.0039 62.077 36.0039Z" fill="#74BC1F"/>
<path d="M80.2719 12.095C81.2289 13.3008 85.3394 18.4834 86.2111 19.5818L82.2565 23.5273C79.8937 21.6619 75.0766 17.8593 72.6893 15.9744C72.6613 15.9528 72.6613 15.9165 72.6865 15.8914L76.906 11.6822C77.8092 10.7812 79.2981 10.8677 80.0909 11.867L80.2719 12.095Z" fill="#74BC1F"/>
<path d="M74.7504 29.4557C75.959 28.501 81.1544 24.4006 82.2554 23.531L86.2106 27.4759C84.7419 29.3267 82.0764 32.6872 80.0841 35.199C79.2935 36.1955 77.8101 36.2792 76.9097 35.3803L72.6406 31.1216L74.7504 29.4557Z" fill="#74BC1F"/>
<path d="M92.1501 34.9594C91.1931 33.7537 87.082 28.571 86.2109 27.4727L90.1655 23.5271C92.5283 25.3925 97.3454 29.1952 99.7327 31.0801C99.7607 31.1017 99.7607 31.138 99.7355 31.1631L95.516 35.3723C94.6128 36.2732 93.1239 36.1868 92.3311 35.1875L92.1501 34.9594Z" fill="#74BC1F"/>
<path d="M97.6673 17.6027C96.4586 18.5574 91.2633 22.6578 90.1623 23.5273L86.207 19.5825C87.6653 17.7449 90.3028 14.4193 92.2902 11.9144C93.1304 10.8545 94.5998 10.7722 95.5582 11.7275L99.777 15.9367L97.6673 17.6027Z" fill="#74BC1F"/>
<path d="M117.089 11.3387H106.051C104.333 11.3387 102.941 12.7279 102.941 14.4419V17.7467H117.089C117.91 17.7467 118.576 18.4105 118.576 19.2299V28.1127C118.576 28.9314 117.91 29.596 117.089 29.596H109.653C108.668 29.596 107.869 28.7989 107.869 27.8164C107.869 26.8338 108.668 26.0374 109.653 26.0374H115.973V23.6281C115.973 22.3457 114.93 21.3052 113.644 21.3052H108.812C104.743 21.3052 101.445 24.5953 101.445 28.6539C101.445 32.7117 104.743 36.0018 108.811 36.0025L117.089 36.0039C121.458 36.0039 124.999 32.4705 124.999 28.1127V19.2299C124.999 14.8715 121.458 11.3387 117.089 11.3387Z" fill="#74BC1F"/>
<path d="M34.5887 11.3387H23.5514C21.8331 11.3387 20.4406 12.7279 20.4406 14.4419V17.7467H34.5887C35.4101 17.7467 36.0756 18.4105 36.0756 19.2299V28.1127C36.0756 28.9314 35.4101 29.596 34.5887 29.596H27.1529C26.1679 29.596 25.3689 28.7989 25.3689 27.8164C25.3689 26.8338 26.1679 26.0374 27.1529 26.0374H33.473V23.6281C33.473 22.3457 32.43 21.3052 31.1445 21.3052H26.3119C22.2434 21.3052 18.9453 24.5953 18.9453 28.6539C18.9453 32.7117 22.2427 36.0018 26.3105 36.0025L34.5887 36.0039C38.9578 36.0039 42.4992 32.4705 42.4992 28.1127V19.2299C42.4992 14.8715 38.9578 11.3387 34.5887 11.3387Z" fill="#74BC1F"/>
</svg>
