<svg width="140" height="62" viewBox="0 0 140 62" fill="none" xmlns="http://www.w3.org/2000/svg">
<g clip-path="url(#clip0_9160_33988)">
<path d="M65.4726 19.5093L51.2223 19.5093L39.668 36.5828L51.2223 53.6562L65.4726 53.6562L53.9183 36.5828L65.4726 19.5093Z" fill="black"/>
<path d="M-8.05003e-07 36.5837C-1.24943e-06 26.4163 8.2806 18.1674 18.4869 18.1674C28.6933 18.1674 36.9739 26.4163 36.9739 36.5837C36.9739 46.751 28.6933 55 18.4869 55C8.28061 55 -3.60574e-07 46.751 -8.05003e-07 36.5837ZM18.4869 44.6408C22.9161 44.6408 26.575 40.9959 26.575 36.5837C26.575 32.1714 22.9161 28.5265 18.4869 28.5265C14.0578 28.5265 10.3989 32.1714 10.3989 36.5837C10.3989 40.9959 14.0578 44.6408 18.4869 44.6408Z" fill="black"/>
<path d="M114.967 18.3592C108.805 18.3592 103.413 21.4286 99.9465 25.8408L88.007 41.5714C86.2739 43.4898 84.1556 44.6408 81.6522 44.6408C77.223 44.6408 73.5641 40.9959 73.5641 36.5837C73.5641 32.1714 77.223 28.5265 81.6522 28.5265L91.2808 28.5265C94.1694 28.5265 96.4802 26.2245 96.4802 23.3469L96.4802 7.80817L85.311 7.80817L85.311 18.1674L81.4596 18.1674C71.2533 18.1674 62.9727 26.4163 62.9727 36.5837C62.9727 46.751 71.2533 55 81.4596 55C87.4293 55 92.8214 52.1224 96.0951 47.7102L98.2134 44.8327C101.487 50.9714 107.842 55 114.967 55C125.173 55 133.454 46.751 133.454 36.5837C133.454 26.4163 125.173 18.3592 114.967 18.3592ZM114.967 44.6408C110.538 44.6408 106.879 40.9959 106.879 36.5837C106.879 32.1714 110.538 28.5265 114.967 28.5265C119.396 28.5265 123.055 32.1714 123.055 36.5837C123.055 40.9959 119.396 44.6408 114.967 44.6408Z" fill="black"/>
<path d="M136.15 18.5508L136.15 19.1264L134.995 19.1264L134.995 22.0039L134.417 22.0039L134.417 19.1264L133.262 19.1264L133.262 18.5508L136.15 18.5508Z" fill="black"/>
<path d="M137.305 22.0039L136.535 22.0039L136.535 18.5508L137.691 18.5508L138.268 21.2366L138.846 18.5508L140.001 18.5508L140.001 22.0039L139.231 22.0039L139.231 19.7019L139.231 19.51L139.231 19.3182L138.653 22.0039L137.883 22.0039L137.305 19.1264L137.305 19.3182C137.305 19.51 137.305 19.51 137.305 19.51L137.305 22.0039Z" fill="black"/>
</g>
<defs>
<clipPath id="clip0_9160_33988">
<rect width="47" height="140" fill="white" transform="translate(0 55) rotate(-90)"/>
</clipPath>
</defs>
</svg>
