<svg width="68" height="68" viewBox="0 0 68 68" fill="none" xmlns="http://www.w3.org/2000/svg">
<path d="M41.6392 50.4687L22.793 50.4687L22.793 46.3514L17.1476 46.3514L17.1476 42.0644L10.7382 42.0644L10.7382 13.5828L52.6328 13.5828L52.6328 32.7686L48.3882 32.7686L48.3882 17.8274L14.9828 17.8274L14.9828 37.8197L21.3922 37.8197L21.3922 42.1068L27.0376 42.1068L27.0376 46.2241L37.3945 46.2241L37.3945 41.937L46.0961 41.937L46.0961 46.1817L41.6392 46.1817L41.6392 50.4687Z" fill="#74BC1F"/>
<path d="M46.1032 63.8828L9.42946 63.8828C4.76035 63.8828 0.940174 60.0626 0.940175 55.3935L0.940179 8.49021C0.940179 3.8211 4.76036 0.000918088 9.42947 0.000918496L54.2529 0.000922415C58.922 0.000922823 62.7422 3.8211 62.7422 8.49021L62.7422 32.0055L58.4975 32.0055L58.4975 8.49021C58.4975 6.15566 56.5875 4.24557 54.2529 4.24557L9.47191 4.24556C7.13736 4.24556 5.22727 6.15565 5.22727 8.49021L5.22727 55.3935C5.22726 57.7281 7.13736 59.6382 9.47191 59.6382L46.1032 59.6382L46.1032 63.8828Z" fill="#74BC1F"/>
<path d="M53.6112 36.4199L64.3501 36.4199L57.1767 45.2912L67.4063 45.2912L45.7586 68L51.8709 53.0589L44.4003 53.0589L53.6112 36.4199Z" fill="#74BC1F"/>
<path d="M20.4528 19.9805L17.5664 19.9805L17.5664 31.3561L20.4528 31.3561L20.4528 19.9805Z" fill="#74BC1F"/>
<path d="M24.859 19.9805L21.9727 19.9805L21.9727 31.3561L24.859 31.3561L24.859 19.9805Z" fill="#74BC1F"/>
<path d="M29.2262 19.9805L26.3398 19.9805L26.3398 31.3561L29.2262 31.3561L29.2262 19.9805Z" fill="#74BC1F"/>
<path d="M33.5895 19.9805L30.7031 19.9805L30.7031 31.3561L33.5895 31.3561L33.5895 19.9805Z" fill="#74BC1F"/>
<path d="M37.9606 19.9805L35.0742 19.9805L35.0742 31.3561L37.9606 31.3561L37.9606 19.9805Z" fill="#74BC1F"/>
<path d="M42.32 19.9805L39.4336 19.9805L39.4336 31.3561L42.3199 31.3561L42.32 19.9805Z" fill="#74BC1F"/>
<path d="M46.6871 19.9805L43.8008 19.9805L43.8008 31.3561L46.6871 31.3561L46.6871 19.9805Z" fill="#74BC1F"/>
</svg>
