<svg width="242" height="123" viewBox="0 0 242 123" fill="none" xmlns="http://www.w3.org/2000/svg">
<path d="M10.8299 83.3595C17.9754 77.4049 23.6695 72.4552 27.9121 68.5103C32.1548 64.4909 35.6903 60.3227 38.5188 56.0056C41.3472 51.6885 42.7614 47.4459 42.7614 43.2777C42.7614 39.4816 41.8682 36.5043 40.0818 34.3458C38.2955 32.1873 35.5415 31.108 31.8198 31.108C28.0982 31.108 25.2326 32.3733 23.2229 34.904C21.2132 37.3603 20.1712 40.747 20.0967 45.0641H4.91254C5.21027 36.1322 7.85262 29.3588 12.8396 24.744C17.901 20.1292 24.3022 17.8218 32.0431 17.8218C40.5284 17.8218 47.0413 20.092 51.5816 24.6324C56.122 29.0983 58.3922 35.0157 58.3922 42.3845C58.3922 48.1902 56.8291 53.7354 53.703 59.0201C50.5768 64.3048 47.0041 68.9196 42.9847 72.8646C38.9654 76.735 33.7179 81.4243 27.2423 86.9323H60.1786V99.8835H5.02419V88.2721L10.8299 83.3595ZM124.736 33.1177H88.5618V52.2096C90.1248 50.2743 92.3578 48.7112 95.2607 47.5203C98.1635 46.255 101.252 45.6223 104.527 45.6223C110.482 45.6223 115.357 46.9249 119.153 49.53C122.95 52.1351 125.704 55.4846 127.415 59.5784C129.127 63.5977 129.983 67.9148 129.983 72.5296C129.983 81.0893 127.527 87.9743 122.615 93.1846C117.776 98.3949 110.854 101 101.848 101C93.3626 101 86.5893 98.8787 81.5279 94.636C76.4665 90.3934 73.6008 84.8482 72.9309 78.0004H88.1152C88.785 80.9777 90.2737 83.3595 92.5811 85.1459C94.9629 86.9323 97.9774 87.8255 101.625 87.8255C106.016 87.8255 109.328 86.4485 111.561 83.6945C113.794 80.9405 114.911 77.2933 114.911 72.7529C114.911 68.1381 113.757 64.6398 111.45 62.2579C109.217 59.8017 105.904 58.5735 101.513 58.5735C98.3868 58.5735 95.7817 59.3551 93.6976 60.9182C91.6135 62.4812 90.1248 64.5653 89.2316 67.1705H74.2707V19.3849H124.736V33.1177ZM141.88 59.2434C141.88 46.3666 144.187 36.281 148.802 28.9867C153.492 21.6923 161.232 18.0451 172.025 18.0451C182.818 18.0451 190.522 21.6923 195.136 28.9867C199.826 36.281 202.17 46.3666 202.17 59.2434C202.17 72.1947 199.826 82.3547 195.136 89.7235C190.522 97.0923 182.818 100.777 172.025 100.777C161.232 100.777 153.492 97.0923 148.802 89.7235C144.187 82.3547 141.88 72.1947 141.88 59.2434ZM186.763 59.2434C186.763 53.7354 186.391 49.1206 185.646 45.399C184.976 41.603 183.562 38.514 181.404 36.1322C179.32 33.7503 176.193 32.5594 172.025 32.5594C167.857 32.5594 164.694 33.7503 162.535 36.1322C160.451 38.514 159.037 41.603 158.292 45.399C157.623 49.1206 157.288 53.7354 157.288 59.2434C157.288 64.9003 157.623 69.664 158.292 73.5344C158.962 77.3305 160.377 80.4194 162.535 82.8013C164.694 85.1087 167.857 86.2624 172.025 86.2624C176.193 86.2624 179.357 85.1087 181.515 82.8013C183.674 80.4194 185.088 77.3305 185.758 73.5344C186.428 69.664 186.763 64.9003 186.763 59.2434Z" fill="url(#paint0_linear_18370_21315)"/>
<path d="M206.215 27.0254C206.215 24.8367 206.875 23.0986 208.195 21.8111C209.514 20.4915 211.204 19.8316 213.264 19.8316C215.324 19.8316 217.014 20.4915 218.334 21.8111C219.653 23.0986 220.313 24.8367 220.313 27.0254C220.313 29.2463 219.653 31.0166 218.334 32.3363C217.014 33.6238 215.324 34.2675 213.264 34.2675C211.204 34.2675 209.514 33.6238 208.195 32.3363C206.875 31.0166 206.215 29.2463 206.215 27.0254ZM234.411 20.3627L214.857 54.0625H210.512L230.066 20.3627H234.411ZM213.264 22.5354C212.17 22.5354 211.301 22.9216 210.657 23.6941C210.046 24.4344 209.74 25.5448 209.74 27.0254C209.74 28.506 210.046 29.6326 210.657 30.4051C211.301 31.1776 212.17 31.5638 213.264 31.5638C214.359 31.5638 215.228 31.1776 215.871 30.4051C216.515 29.6004 216.837 28.4739 216.837 27.0254C216.837 25.5448 216.515 24.4344 215.871 23.6941C215.228 22.9216 214.359 22.5354 213.264 22.5354ZM224.707 47.3998C224.707 45.1789 225.367 43.4247 226.686 42.1372C228.006 40.8176 229.696 40.1577 231.756 40.1577C233.816 40.1577 235.489 40.8176 236.777 42.1372C238.096 43.4247 238.756 45.1789 238.756 47.3998C238.756 49.5885 238.096 51.3427 236.777 52.6624C235.489 53.982 233.816 54.6419 231.756 54.6419C229.696 54.6419 228.006 53.9981 226.686 52.7106C225.367 51.391 224.707 49.6207 224.707 47.3998ZM231.707 42.9097C230.613 42.9097 229.744 43.296 229.1 44.0684C228.456 44.8087 228.135 45.9192 228.135 47.3998C228.135 48.8482 228.456 49.9587 229.1 50.7311C229.744 51.4714 230.613 51.8416 231.707 51.8416C232.802 51.8416 233.671 51.4714 234.315 50.7311C234.958 49.9587 235.28 48.8482 235.28 47.3998C235.28 45.9192 234.958 44.8087 234.315 44.0684C233.671 43.296 232.802 42.9097 231.707 42.9097Z" fill="url(#paint1_linear_18370_21315)"/>
<path d="M222.668 69.3984L212.01 79.5096H217.307C217.154 86.7751 212.52 96.5835 210.223 100.58H235.369C231.386 97.1406 228.774 85.1 227.965 79.5096H233.199L222.668 69.3984Z" fill="url(#paint2_linear_18370_21315)"/>
<defs>
<linearGradient id="paint0_linear_18370_21315" x1="104.5" y1="16.1311" x2="104.5" y2="105.357" gradientUnits="userSpaceOnUse">
<stop stop-color="#74BC1F"/>
<stop offset="1" stop-color="#86DB21"/>
</linearGradient>
<linearGradient id="paint1_linear_18370_21315" x1="222.688" y1="11.0625" x2="222.688" y2="64.0625" gradientUnits="userSpaceOnUse">
<stop stop-color="#74BC1F"/>
<stop offset="1" stop-color="#85DA21"/>
</linearGradient>
<linearGradient id="paint2_linear_18370_21315" x1="222.293" y1="69.3984" x2="222.293" y2="100.58" gradientUnits="userSpaceOnUse">
<stop stop-color="#74BC1F"/>
<stop offset="1" stop-color="#74BC1F" stop-opacity="0"/>
</linearGradient>
</defs>
</svg>
