<svg width="99" height="99" viewBox="0 0 99 99" fill="none" xmlns="http://www.w3.org/2000/svg">
<rect x="1.64137" y="1.64919" width="95.6529" height="95.6529" rx="10.7197" stroke="white" stroke-width="3.29837"/>
<path d="M59.0251 42.6172V82.0183H50.2031V42.6172H59.0251ZM82.5683 42.6172L67.1434 62.3177L58.1591 72.0598L56.5625 63.8602L62.4889 55.363L71.7438 42.6172H82.5683ZM72.3392 82.0183L61.4606 64.0226L68.1718 58.7998L82.7848 82.0183H72.3392Z" fill="white"/>
<path d="M45.3592 66.9723V73.5211H16.9991L16.5391 68.3794L32.6675 42.6172H39.3516L32.0992 54.6324L24.7657 66.9723H45.3592ZM41.1377 42.6172V82.0183H32.6946V42.6172H41.1377Z" fill="white"/>
<path d="M82.417 33.5111V36.6114H72.7052V33.5111H82.417ZM73.9904 17.3203V36.6114H70.0156V17.3203H73.9904Z" fill="white"/>
<path d="M59.6217 20.6194L54.375 36.6114H50.1484L57.3164 17.3203H60.006L59.6217 20.6194ZM63.9808 36.6114L58.7208 20.6194L58.2968 17.3203H61.0129L68.2206 36.6114H63.9808ZM63.7423 29.4302V32.5439H53.5535V29.4302H63.7423Z" fill="white"/>
<path d="M44.8404 17.3203H48.8019V30.0662C48.8019 31.5501 48.484 32.8 47.848 33.8158C47.2208 34.8316 46.3508 35.5956 45.2379 36.1079C44.1337 36.6202 42.8618 36.8764 41.422 36.8764C39.9823 36.8764 38.7015 36.6202 37.5797 36.1079C36.4668 35.5956 35.5923 34.8316 34.9563 33.8158C34.3292 32.8 34.0156 31.5501 34.0156 30.0662V17.3203H37.9904V30.0662C37.9904 30.9318 38.1274 31.6385 38.4012 32.1861C38.675 32.7338 39.0681 33.1357 39.5804 33.3918C40.1015 33.648 40.7154 33.776 41.422 33.776C42.1463 33.776 42.7602 33.648 43.2637 33.3918C43.776 33.1357 44.1647 32.7338 44.4296 32.1861C44.7035 31.6385 44.8404 30.9318 44.8404 30.0662V17.3203Z" fill="white"/>
<path d="M22.4615 36.6114H18.2615L18.288 33.5111H22.4615C23.5038 33.5111 24.3827 33.277 25.0982 32.8088C25.8136 32.3319 26.3524 31.6385 26.7146 30.7287C27.0856 29.8189 27.2711 28.7192 27.2711 27.4296V26.4889C27.2711 25.4996 27.1651 24.6296 26.9531 23.8788C26.7499 23.128 26.4452 22.4964 26.0389 21.9841C25.6326 21.4718 25.1335 21.0876 24.5417 20.8314C23.9499 20.5664 23.2697 20.4339 22.5013 20.4339H18.182V17.3203H22.5013C23.7909 17.3203 24.9701 17.5411 26.0389 17.9828C27.1165 18.4156 28.0484 19.0383 28.8345 19.8509C29.6206 20.6636 30.2257 21.6352 30.6497 22.7658C31.0825 23.8876 31.2989 25.1374 31.2989 26.5154V27.4296C31.2989 28.7987 31.0825 30.0486 30.6497 31.1792C30.2257 32.3098 29.6206 33.2814 28.8345 34.094C28.0572 34.8978 27.1253 35.5205 26.0389 35.9622C24.9613 36.395 23.7688 36.6114 22.4615 36.6114ZM20.5139 17.3203V36.6114H16.5391V17.3203H20.5139Z" fill="white"/>
</svg>
