<svg width="80" height="80" viewBox="0 0 80 80" fill="none" xmlns="http://www.w3.org/2000/svg">
<rect x="5.1282" y="5.12842" width="69.7436" height="69.7436" rx="3" stroke="white" stroke-width="3"/>
<rect x="12.3077" y="12.3076" width="55.3846" height="55.3846" rx="2" fill="white"/>
<line x1="74.8718" y1="17.9873" x2="80" y2="17.9873" stroke="white" stroke-width="3"/>
<line x1="74.8718" y1="26.1924" x2="80" y2="26.1924" stroke="white" stroke-width="3"/>
<line x1="74.8718" y1="34.3975" x2="80" y2="34.3975" stroke="white" stroke-width="3"/>
<line x1="74.8718" y1="42.6025" x2="80" y2="42.6025" stroke="white" stroke-width="3"/>
<line x1="74.8718" y1="50.8076" x2="80" y2="50.8076" stroke="white" stroke-width="3"/>
<line x1="74.8718" y1="59.0127" x2="80" y2="59.0127" stroke="white" stroke-width="3"/>
<line y1="17.9873" x2="5.12821" y2="17.9873" stroke="white" stroke-width="3"/>
<line y1="26.1924" x2="5.12821" y2="26.1924" stroke="white" stroke-width="3"/>
<line y1="34.3975" x2="5.12821" y2="34.3975" stroke="white" stroke-width="3"/>
<line y1="42.6025" x2="5.12821" y2="42.6025" stroke="white" stroke-width="3"/>
<line y1="50.8076" x2="5.12821" y2="50.8076" stroke="white" stroke-width="3"/>
<line y1="59.0127" x2="5.12821" y2="59.0127" stroke="white" stroke-width="3"/>
<line x1="62.0128" y1="74.8716" x2="62.0128" y2="79.9998" stroke="white" stroke-width="3"/>
<line x1="53.8077" y1="74.8716" x2="53.8077" y2="79.9998" stroke="white" stroke-width="3"/>
<line x1="45.6026" y1="74.8716" x2="45.6026" y2="79.9998" stroke="white" stroke-width="3"/>
<line x1="37.3974" y1="74.8716" x2="37.3974" y2="79.9998" stroke="white" stroke-width="3"/>
<line x1="29.1923" y1="74.8716" x2="29.1923" y2="79.9998" stroke="white" stroke-width="3"/>
<line x1="20.9872" y1="74.8716" x2="20.9872" y2="79.9998" stroke="white" stroke-width="3"/>
<line x1="62.0128" y1="6.55671e-08" x2="62.0128" y2="5.12821" stroke="white" stroke-width="3"/>
<line x1="53.8077" y1="6.55671e-08" x2="53.8077" y2="5.12821" stroke="white" stroke-width="3"/>
<line x1="45.6026" y1="6.55671e-08" x2="45.6026" y2="5.12821" stroke="white" stroke-width="3"/>
<line x1="37.3974" y1="6.55671e-08" x2="37.3974" y2="5.12821" stroke="white" stroke-width="3"/>
<line x1="29.1923" y1="6.55671e-08" x2="29.1923" y2="5.12821" stroke="white" stroke-width="3"/>
<line x1="20.9872" y1="6.55671e-08" x2="20.9872" y2="5.12821" stroke="white" stroke-width="3"/>
<path d="M31.4406 42.1963H33.3156C33.2179 43.0947 32.9607 43.8988 32.5441 44.6084C32.1274 45.318 31.5382 45.8812 30.7765 46.2979C30.0148 46.708 29.0642 46.9131 27.9249 46.9131C27.0916 46.9131 26.3331 46.7568 25.6495 46.4443C24.9725 46.1318 24.3898 45.6891 23.9015 45.1162C23.4132 44.5368 23.0356 43.8434 22.7687 43.0361C22.5083 42.2223 22.3781 41.3174 22.3781 40.3213V38.9053C22.3781 37.9092 22.5083 37.0075 22.7687 36.2002C23.0356 35.3864 23.4165 34.6898 23.9113 34.1104C24.4126 33.5309 25.0148 33.085 25.7179 32.7725C26.421 32.46 27.212 32.3037 28.0909 32.3037C29.1652 32.3037 30.0734 32.5055 30.8156 32.9092C31.5577 33.3128 32.1339 33.8727 32.5441 34.5889C32.9607 35.2985 33.2179 36.1221 33.3156 37.0596H31.4406C31.3494 36.3955 31.1801 35.8258 30.9327 35.3506C30.6853 34.8688 30.3338 34.4977 29.8781 34.2373C29.4223 33.9769 28.8266 33.8467 28.0909 33.8467C27.4594 33.8467 26.9028 33.9671 26.421 34.208C25.9458 34.4489 25.5454 34.7907 25.2198 35.2334C24.9008 35.6761 24.66 36.2067 24.4972 36.8252C24.3344 37.4437 24.2531 38.1305 24.2531 38.8857V40.3213C24.2531 41.0179 24.3247 41.6722 24.4679 42.2842C24.6176 42.8962 24.8422 43.4333 25.1417 43.8955C25.4412 44.3577 25.8221 44.7223 26.2843 44.9893C26.7465 45.2497 27.2934 45.3799 27.9249 45.3799C28.7257 45.3799 29.3637 45.2529 29.839 44.999C30.3142 44.7451 30.6723 44.3805 30.9132 43.9053C31.1606 43.43 31.3364 42.8604 31.4406 42.1963ZM41.1281 41.1416H37.3292V39.6084H41.1281C41.8637 39.6084 42.4594 39.4912 42.9152 39.2568C43.3709 39.0225 43.7029 38.6969 43.9113 38.2803C44.1261 37.8636 44.2335 37.3883 44.2335 36.8545C44.2335 36.3662 44.1261 35.9072 43.9113 35.4775C43.7029 35.0479 43.3709 34.7028 42.9152 34.4424C42.4594 34.1755 41.8637 34.042 41.1281 34.042H37.7687V46.7178H35.8839V32.499H41.1281C42.2023 32.499 43.1105 32.6846 43.8527 33.0557C44.5948 33.4268 45.158 33.9411 45.5421 34.5986C45.9262 35.2497 46.1183 35.9951 46.1183 36.835C46.1183 37.7464 45.9262 38.5244 45.5421 39.1689C45.158 39.8135 44.5948 40.305 43.8527 40.6436C43.1105 40.9756 42.2023 41.1416 41.1281 41.1416ZM56.6359 32.499H58.5109V42.1182C58.5109 43.1859 58.2732 44.0745 57.798 44.7842C57.3227 45.4938 56.6912 46.0277 55.9034 46.3857C55.1222 46.7373 54.2726 46.9131 53.3546 46.9131C52.3911 46.9131 51.5187 46.7373 50.7374 46.3857C49.9627 46.0277 49.3475 45.4938 48.8917 44.7842C48.4425 44.0745 48.2179 43.1859 48.2179 42.1182V32.499H50.0831V42.1182C50.0831 42.8604 50.2198 43.4723 50.4933 43.9541C50.7667 44.4359 51.1476 44.7939 51.6359 45.0283C52.1307 45.2627 52.7036 45.3799 53.3546 45.3799C54.0122 45.3799 54.5851 45.2627 55.0734 45.0283C55.5682 44.7939 55.9523 44.4359 56.2257 43.9541C56.4991 43.4723 56.6359 42.8604 56.6359 42.1182V32.499Z" fill="#80D6F6"/>
</svg>
