<svg width="121" height="120" viewBox="0 0 121 120" fill="none" xmlns="http://www.w3.org/2000/svg">
<circle cx="60.168" cy="60" r="17.5" fill="white"/>
<g clip-path="url(#clip0_19171_27049)">
<path d="M33.8737 101.004C32.3894 97.8006 30.9553 94.7075 29.4661 91.489C27.8451 92.2646 26.2493 93.0289 24.5626 93.8343C19.7741 83.472 15.0089 73.1633 10.2503 62.8632C13.0586 60.9272 13.1728 60.5672 11.9523 57.4636C37.7426 45.0102 63.5382 32.5537 89.3264 20.0997C91.1442 23.185 91.6067 23.3383 94.7317 21.8844C99.5102 32.226 104.288 42.5697 109.111 53.0043C106.744 54.1534 104.463 55.2625 102.092 56.4127C103.544 59.5695 104.987 62.6986 106.478 65.9404C96.1475 70.9309 85.8528 75.9017 75.4436 80.9277C74.6793 79.1269 73.5861 77.5766 71.5324 77.4169C70.5261 77.3391 69.3591 77.5546 68.4702 78.0321C66.1383 79.2831 65.6961 81.6207 67.0156 84.9924C55.9971 90.3133 44.9727 95.6394 33.8727 100.999L33.8737 101.004ZM38.8651 86.9463C39.7466 88.8643 40.5818 90.6818 41.44 92.5461C40.7487 92.8823 40.1805 93.1567 39.5434 93.4645C38.6539 91.5512 37.8093 89.7357 36.9408 87.8686C35.0394 88.7881 33.2221 89.6669 31.3738 90.5622C32.5759 93.1552 33.7207 95.6223 34.8948 98.1536C44.79 93.3737 54.5622 88.6556 64.2945 83.954C64.2643 83.7021 64.2577 83.5942 64.2402 83.4857C63.6934 80.2195 65.0607 77.3104 67.7957 75.9212C70.6384 74.4775 73.6787 75.0619 75.9186 77.5899C76.4484 78.1878 76.8211 77.9062 77.2921 77.6802C84.4668 74.2188 91.6395 70.7569 98.8128 67.2928C100.418 66.5175 102.02 65.7321 103.676 64.9253C102.485 62.3488 101.34 59.8727 100.169 57.3377C98.6957 58.0513 97.2811 58.7354 95.7776 59.4613C96.6392 61.3378 97.4754 63.1601 98.3434 65.0541C97.6842 65.3696 97.0928 65.6558 96.4437 65.9672C95.5539 64.0471 94.7113 62.2321 93.8528 60.3857C93.131 60.7364 92.4986 61.0432 91.8231 61.3701C92.7076 63.2934 93.5392 65.1077 94.3999 66.9794C93.7069 67.2972 93.1074 67.5722 92.4853 67.857C91.6004 65.9517 90.7582 64.1436 89.8952 62.2893C89.1096 62.6792 88.4749 62.9945 87.8124 63.3227C88.6759 65.2087 89.5094 67.0325 90.3708 68.918C89.6891 69.2432 89.0962 69.5268 88.4754 69.8233C87.5821 67.8999 86.7504 66.1104 85.8824 64.2412C85.2685 64.5372 84.7023 64.8122 84.0652 65.12C84.9305 67.0156 85.7625 68.8367 86.6219 70.7217C85.9742 71.0357 85.4028 71.3138 84.7378 71.6345C83.8527 69.7381 82.9996 67.9045 82.129 66.0369C81.3839 66.4084 80.7592 66.7196 80.1119 67.0405C80.9929 68.9606 81.8187 70.7552 82.6733 72.6163C82.0304 72.9294 81.4258 73.2234 80.7802 73.538C79.9077 71.6608 79.0631 69.8453 78.1836 67.9527C77.4291 68.3262 76.7745 68.6497 76.092 68.986C76.9705 70.8987 77.8052 72.7183 78.6574 74.5719C77.9751 74.8993 77.4016 75.1768 76.765 75.4825C75.8835 73.5894 75.0383 71.776 74.1587 69.8924C68.9299 72.4169 63.7726 74.9065 58.5469 77.4273C59.4164 79.324 60.252 81.1484 61.1185 83.0398C60.4643 83.3453 59.8578 83.6298 59.2135 83.9312C58.3356 82.0413 57.4919 80.2305 56.6213 78.3629C55.8922 78.7161 55.2908 79.0064 54.5954 79.3415C55.4684 81.2414 56.3006 83.0536 57.1712 84.9461C56.5068 85.2647 55.9339 85.54 55.2748 85.8555C54.4047 83.9858 53.5445 82.1458 52.666 80.258C51.9103 80.6356 51.2751 80.953 50.5836 81.2982C51.4497 83.1827 52.2864 85.0029 53.145 86.8741C52.4636 87.2062 51.8943 87.4848 51.2607 87.7959C50.3775 85.909 49.5261 84.094 48.6478 82.222C48.0118 82.5257 47.4479 82.7922 46.8303 83.0849C47.7134 85.0056 48.5471 86.8204 49.4102 88.6996C48.7245 89.0147 48.1218 89.2934 47.4971 89.5798C46.6226 87.7021 45.7904 85.9147 44.9164 84.0349C44.222 84.3658 43.5913 84.6663 42.8818 85.0044C43.7552 86.9112 44.5874 88.7234 45.4529 90.61C44.7791 90.9306 44.2073 91.2017 43.5619 91.5074C42.6802 89.6232 41.8203 87.7901 40.9456 85.9213C40.2007 86.2838 39.5929 86.5815 38.8579 86.9399L38.8651 86.9463ZM50.1748 47.5694C47.2615 48.9784 44.4865 50.3184 41.6116 51.7084C44.6271 58.2389 47.6217 64.7232 50.6592 71.2957C53.5462 69.9022 56.3643 68.5421 59.2281 67.1604C56.1836 60.5725 53.1994 54.1158 50.1748 47.5694ZM18.3188 62.9552C21.3668 69.5463 24.3475 75.9997 27.3741 82.5467C30.2675 81.1459 33.0793 79.7841 35.9317 78.4039C32.8802 71.8006 29.8969 65.3487 26.8829 58.8209C24.0112 60.2072 21.2131 61.5591 18.3188 62.9552ZM38.2516 53.3274C35.3489 54.7302 32.5502 56.0842 29.6899 57.4691C32.719 64.0235 35.7126 70.503 38.7422 77.0554C41.6476 75.651 44.4405 74.3022 47.3023 72.92C44.2743 66.3613 41.2916 59.9073 38.2531 53.33L38.2516 53.3274ZM80.7108 32.8299C83.7419 39.3849 86.7401 45.8724 89.7667 52.4194C92.6773 51.0119 95.4761 49.6579 98.3258 48.2792C95.2837 41.6987 92.287 35.2139 89.2734 28.693C86.3628 30.1005 83.5567 31.457 80.7102 32.832L80.7108 32.8299ZM77.3513 34.4467C74.4401 35.8564 71.6388 37.2119 68.7891 38.5906C71.8281 45.1657 74.8218 51.6452 77.8414 58.1768C80.7521 56.7693 83.5534 55.4138 86.4025 54.0372C83.378 47.4908 80.3928 41.0293 77.3513 34.4467ZM57.42 44.0772C60.4759 50.6885 63.4692 57.1611 66.4744 63.664C69.4003 62.2493 72.1937 60.8984 75.0329 59.5259C71.9839 52.93 68.9891 46.4547 65.9779 39.9412C63.0752 41.3441 60.3075 42.6815 57.4179 44.0766L57.42 44.0772Z" fill="black"/>
</g>
<defs>
<clipPath id="clip0_19171_27049">
<rect width="93.75" height="92.5" fill="white" transform="translate(26.2383 3.19531) rotate(15)"/>
</clipPath>
</defs>
</svg>
