<svg width="99" height="100" viewBox="0 0 99 100" fill="none" xmlns="http://www.w3.org/2000/svg">
<rect x="1.64919" y="2.60231" width="95.6528" height="95.6528" rx="10.7197" stroke="white" stroke-width="3.29837"/>
<path d="M50.8374 75.4766V79.2932H48.9408V75.4766C44.152 75.0054 40.4062 70.9766 40.4062 66.0997H42.3028C42.3028 70.2463 45.7166 73.6389 49.8891 73.6389C54.0615 73.6389 57.4753 70.2463 57.4753 66.0997H59.3719C59.3719 70.9766 55.6262 75.0054 50.8374 75.4766ZM49.8891 69.8693C51.9753 69.8693 53.6822 68.173 53.6822 66.0997V56.6758C53.6822 54.6026 51.9753 52.9062 49.8891 52.9062C47.8029 52.9062 46.0959 54.6026 46.0959 56.6758V66.0997C46.0959 68.173 47.8029 69.8693 49.8891 69.8693Z" fill="white"/>
<path d="M72.644 40.7162H69.3079C69.1835 29.6809 60.3172 20.7422 49.4311 20.7422C38.545 20.7422 29.6787 29.6809 29.5543 40.7162H26.3073C21.8044 40.7162 18.1406 44.3136 18.1406 48.7351V52.3038C18.1406 56.7248 21.8048 60.3227 26.3073 60.3227H32.0624C32.6824 60.3223 33.2818 60.104 33.7521 59.7073C34.2223 59.3105 34.5324 58.7616 34.6262 58.1599C34.7019 57.9176 34.7403 57.6656 34.7403 57.4122V40.9505C34.7403 32.6182 41.3309 25.84 49.4311 25.84C57.5318 25.84 64.1219 32.6186 64.1219 40.9505V57.4122C64.1219 57.8682 64.2454 58.2937 64.458 58.6635C64.6425 59.1503 64.9741 59.5702 65.4084 59.8667C65.8427 60.1632 66.3589 60.3223 66.8879 60.3227H72.644C77.146 60.3227 80.8097 56.7253 80.8097 52.3038V48.7351C80.8102 44.3136 77.146 40.7162 72.644 40.7162Z" fill="white"/>
</svg>
