<svg width="80" height="80" viewBox="0 0 80 80" fill="none" xmlns="http://www.w3.org/2000/svg">
<rect x="5.1282" y="5.12793" width="69.7436" height="69.7436" rx="3.07692" stroke="white" stroke-width="3.07692"/>
<rect x="12.3077" y="12.3076" width="55.3846" height="55.3846" rx="2.05128" fill="white"/>
<line x1="74.8718" y1="17.9488" x2="80" y2="17.9488" stroke="white" stroke-width="3.07692"/>
<line x1="74.8718" y1="26.1539" x2="80" y2="26.1539" stroke="white" stroke-width="3.07692"/>
<line x1="74.8718" y1="34.359" x2="80" y2="34.359" stroke="white" stroke-width="3.07692"/>
<line x1="74.8718" y1="42.5641" x2="80" y2="42.5641" stroke="white" stroke-width="3.07692"/>
<line x1="74.8718" y1="50.7692" x2="80" y2="50.7692" stroke="white" stroke-width="3.07692"/>
<line x1="74.8718" y1="58.9742" x2="80" y2="58.9742" stroke="white" stroke-width="3.07692"/>
<line y1="17.9488" x2="5.1282" y2="17.9488" stroke="white" stroke-width="3.07692"/>
<line y1="26.1539" x2="5.1282" y2="26.1539" stroke="white" stroke-width="3.07692"/>
<line y1="34.359" x2="5.1282" y2="34.359" stroke="white" stroke-width="3.07692"/>
<line y1="42.5641" x2="5.1282" y2="42.5641" stroke="white" stroke-width="3.07692"/>
<line y1="50.7692" x2="5.1282" y2="50.7692" stroke="white" stroke-width="3.07692"/>
<line y1="58.9742" x2="5.1282" y2="58.9742" stroke="white" stroke-width="3.07692"/>
<line x1="62.0513" y1="74.8721" x2="62.0513" y2="80.0003" stroke="white" stroke-width="3.07692"/>
<line x1="53.8461" y1="74.8721" x2="53.8461" y2="80.0003" stroke="white" stroke-width="3.07692"/>
<line x1="45.641" y1="74.8721" x2="45.641" y2="80.0003" stroke="white" stroke-width="3.07692"/>
<line x1="37.4359" y1="74.8721" x2="37.4359" y2="80.0003" stroke="white" stroke-width="3.07692"/>
<line x1="29.2308" y1="74.8721" x2="29.2308" y2="80.0003" stroke="white" stroke-width="3.07692"/>
<line x1="21.0256" y1="74.8721" x2="21.0256" y2="80.0003" stroke="white" stroke-width="3.07692"/>
<line x1="62.0513" y1="6.72483e-08" x2="62.0513" y2="5.1282" stroke="white" stroke-width="3.07692"/>
<line x1="53.8461" y1="6.72483e-08" x2="53.8461" y2="5.1282" stroke="white" stroke-width="3.07692"/>
<line x1="45.641" y1="6.72483e-08" x2="45.641" y2="5.1282" stroke="white" stroke-width="3.07692"/>
<line x1="37.4359" y1="6.72483e-08" x2="37.4359" y2="5.1282" stroke="white" stroke-width="3.07692"/>
<line x1="29.2308" y1="6.72483e-08" x2="29.2308" y2="5.1282" stroke="white" stroke-width="3.07692"/>
<line x1="21.0256" y1="6.72483e-08" x2="21.0256" y2="5.1282" stroke="white" stroke-width="3.07692"/>
<path d="M32.345 40.4566V45.7952C32.1647 46.0623 31.8775 46.3628 31.4836 46.6966C31.0896 47.0238 30.5454 47.3109 29.851 47.558C29.1632 47.7984 28.2751 47.9186 27.1867 47.9186C26.2986 47.9186 25.4806 47.765 24.7328 47.4578C23.9916 47.144 23.3472 46.6899 22.7997 46.0957C22.2588 45.4947 21.8381 44.7669 21.5377 43.9122C21.2439 43.0508 21.097 42.0759 21.097 40.9875V39.8557C21.097 38.7673 21.2238 37.7957 21.4776 36.941C21.738 36.0863 22.1186 35.3618 22.6194 34.7675C23.1202 34.1666 23.7345 33.7125 24.4623 33.4054C25.1902 33.0915 26.0248 32.9346 26.9663 32.9346C28.0815 32.9346 29.013 33.1283 29.7608 33.5155C30.5154 33.8961 31.103 34.4237 31.5236 35.0981C31.951 35.7725 32.2248 36.5404 32.345 37.4018H30.4119C30.3251 36.8742 30.1514 36.3935 29.891 35.9594C29.6373 35.5254 29.2734 35.1782 28.7993 34.9178C28.3252 34.6507 27.7142 34.5171 26.9663 34.5171C26.2919 34.5171 25.7077 34.6407 25.2135 34.8877C24.7194 35.1348 24.3121 35.4887 23.9916 35.9494C23.6711 36.4102 23.4307 36.9677 23.2704 37.6221C23.1169 38.2765 23.0401 39.0143 23.0401 39.8356V40.9875C23.0401 41.8288 23.1369 42.58 23.3305 43.2411C23.5309 43.9022 23.8146 44.4664 24.1819 44.9338C24.5491 45.3945 24.9865 45.7451 25.494 45.9855C26.0081 46.2259 26.5757 46.3461 27.1967 46.3461C27.8845 46.3461 28.442 46.2893 28.8694 46.1758C29.2967 46.0556 29.6306 45.9154 29.871 45.7551C30.1114 45.5882 30.295 45.4313 30.4219 45.2844V42.0191H27.0465V40.4566H32.345ZM40.9287 41.9991H37.0325V40.4266H40.9287C41.6832 40.4266 42.2942 40.3064 42.7616 40.066C43.229 39.8256 43.5696 39.4918 43.7833 39.0644C44.0036 38.6371 44.1138 38.1496 44.1138 37.6021C44.1138 37.1013 44.0036 36.6305 43.7833 36.1898C43.5696 35.7491 43.229 35.3952 42.7616 35.1281C42.2942 34.8543 41.6832 34.7175 40.9287 34.7175H37.4832V47.7183H35.5501V33.1349H40.9287C42.0305 33.1349 42.9619 33.3252 43.7232 33.7058C44.4844 34.0865 45.062 34.614 45.4559 35.2884C45.8499 35.9561 46.0469 36.7207 46.0469 37.582C46.0469 38.5169 45.8499 39.3148 45.4559 39.9759C45.062 40.6369 44.4844 41.1411 43.7232 41.4883C42.9619 41.8288 42.0305 41.9991 40.9287 41.9991ZM56.8341 33.1349H58.7572V43.0007C58.7572 44.0958 58.5135 45.0073 58.026 45.7351C57.5386 46.4629 56.8909 47.0105 56.0829 47.3777C55.2817 47.7383 54.4103 47.9186 53.4688 47.9186C52.4805 47.9186 51.5857 47.7383 50.7845 47.3777C49.9899 47.0105 49.3588 46.4629 48.8914 45.7351C48.4307 45.0073 48.2003 44.0958 48.2003 43.0007V33.1349H50.1134V43.0007C50.1134 43.7619 50.2536 44.3896 50.5341 44.8837C50.8145 45.3779 51.2051 45.7451 51.7059 45.9855C52.2134 46.2259 52.801 46.3461 53.4688 46.3461C54.1432 46.3461 54.7308 46.2259 55.2316 45.9855C55.7391 45.7451 56.133 45.3779 56.4135 44.8837C56.6939 44.3896 56.8341 43.7619 56.8341 43.0007V33.1349Z" fill="#7599B9"/>
</svg>
