<svg width="121" height="120" viewBox="0 0 121 120" fill="none" xmlns="http://www.w3.org/2000/svg">
<path d="M19.9398 40.0078H12.9219V46.767H19.9398V40.0078Z" fill="black"/>
<path d="M19.7683 75.22V50.8775H13.125V75.22H19.7683ZM63.9236 75.4606V69.4952C62.9495 69.4952 62.1254 69.4471 61.526 69.3509C60.8267 69.2547 60.3022 69.0141 59.9526 68.6774C59.6029 68.3406 59.3782 67.8595 59.2533 67.2341C59.1534 66.6328 59.1034 65.839 59.1034 64.8768V56.3618H63.9236V50.8775H59.1034V41.3762H52.4352V64.925C52.4352 66.9214 52.61 68.6052 52.9597 69.9522C53.3093 71.2752 53.9087 72.3576 54.7329 73.1754C55.557 73.9933 56.6559 74.5706 57.9796 74.9314C59.3282 75.2922 61.0265 75.4606 63.0494 75.4606H63.9236ZM102.085 75.22V39.5H95.4167V75.22H102.085ZM46.0167 53.2588C44.1686 51.3345 41.5712 50.3724 38.2745 50.3724C36.6762 50.3724 35.2276 50.6851 33.904 51.3105C32.6053 51.9359 31.4814 52.8018 30.6073 53.9083L30.2327 54.3653V53.9564V50.8775H23.6643V75.22H30.2826V62.255V63.145C30.2826 63.0006 30.2826 62.8563 30.2826 62.712C30.3575 60.4269 30.932 58.7431 32.0309 57.6607C33.2047 56.5061 34.6282 55.9288 36.2516 55.9288C38.1746 55.9288 39.6481 56.5061 40.6222 57.6126C41.5712 58.7191 42.0707 60.2826 42.0707 62.279V62.3271V75.196H48.7889V61.389C48.8139 57.9253 47.8648 55.1831 46.0167 53.2588ZM91.9702 63.0006C91.9702 61.2447 91.6455 59.609 91.0211 58.0696C90.3718 56.5542 89.4727 55.2072 88.3488 54.0526C87.2 52.898 85.8264 52.008 84.228 51.3586C82.6296 50.7091 80.8564 50.3964 78.9334 50.3964C77.1102 50.3964 75.387 50.7332 73.7886 51.3826C72.1902 52.0561 70.7916 52.9461 69.6178 54.0767C68.444 55.2072 67.4949 56.5542 66.8206 58.0937C66.1213 59.6331 65.7967 61.2928 65.7967 63.0488C65.7967 64.8047 66.1213 66.4644 66.7707 68.0039C67.42 69.5433 68.3441 70.8903 69.4929 72.0209C70.6418 73.1514 72.0653 74.0654 73.7136 74.7149C75.362 75.3884 77.1851 75.7251 79.1332 75.7251C84.7774 75.7251 88.2739 73.2476 90.3718 70.9384L85.5766 67.4266C84.5777 68.5811 82.1801 70.1446 79.1831 70.1446C77.31 70.1446 75.7616 69.7357 74.5878 68.8938C73.414 68.076 72.6148 66.9214 72.1902 65.5022L72.1153 65.2858H91.9702V63.0006ZM72.1652 60.7636C72.1652 58.9836 74.2881 55.8807 78.8584 55.8566C83.4288 55.8566 85.5766 58.9596 85.5766 60.7396L72.1652 60.7636Z" fill="black"/>
<path d="M109.68 72.0448C109.555 71.7561 109.38 71.5156 109.155 71.2991C108.93 71.0826 108.681 70.9143 108.381 70.794C108.081 70.6737 107.757 70.6016 107.432 70.6016C107.082 70.6016 106.783 70.6737 106.483 70.794C106.183 70.9143 105.933 71.0826 105.709 71.2991C105.484 71.5156 105.309 71.7561 105.184 72.0448C105.059 72.3334 104.984 72.6461 104.984 72.9588C104.984 73.2956 105.059 73.5842 105.184 73.8729C105.309 74.1615 105.484 74.4021 105.709 74.6186C105.933 74.835 106.183 75.0034 106.483 75.1237C106.783 75.244 107.107 75.3161 107.432 75.3161C107.782 75.3161 108.081 75.244 108.381 75.1237C108.681 75.0034 108.93 74.835 109.155 74.6186C109.38 74.4021 109.555 74.1615 109.68 73.8729C109.804 73.5842 109.879 73.2715 109.879 72.9588C109.879 72.6461 109.804 72.3334 109.68 72.0448ZM109.28 73.7286C109.18 73.9691 109.03 74.1856 108.855 74.354C108.681 74.5223 108.456 74.6667 108.206 74.7629C107.956 74.8591 107.707 74.9072 107.407 74.9072C107.132 74.9072 106.857 74.8591 106.608 74.7629C106.358 74.6667 106.133 74.5223 105.958 74.354C105.784 74.1856 105.634 73.9691 105.534 73.7286C105.434 73.488 105.384 73.2475 105.384 72.9588C105.384 72.6943 105.434 72.4297 105.534 72.1891C105.634 71.9486 105.784 71.7321 105.958 71.5637C106.133 71.3953 106.358 71.251 106.608 71.1548C106.857 71.0586 107.107 71.0105 107.407 71.0105C107.682 71.0105 107.956 71.0586 108.206 71.1548C108.456 71.251 108.681 71.3953 108.855 71.5637C109.03 71.7321 109.18 71.9486 109.28 72.1891C109.38 72.4297 109.43 72.6702 109.43 72.9588C109.455 73.2475 109.38 73.488 109.28 73.7286ZM107.881 73.1513C108.081 73.1272 108.231 73.0551 108.356 72.9348C108.481 72.8145 108.556 72.6461 108.556 72.4056C108.556 72.141 108.481 71.9486 108.306 71.8043C108.156 71.6599 107.881 71.5878 107.557 71.5878H106.458V74.3059H106.982V73.1994H107.357L108.056 74.3059H108.606L107.881 73.1513ZM107.607 72.7664C107.532 72.7664 107.457 72.7664 107.357 72.7664H106.982V71.9967H107.357C107.432 71.9967 107.507 71.9967 107.607 71.9967C107.682 71.9967 107.757 72.0207 107.831 72.0448C107.906 72.0688 107.956 72.117 107.981 72.1651C108.006 72.2132 108.031 72.2853 108.031 72.3816C108.031 72.4778 108.006 72.5499 107.981 72.598C107.931 72.6461 107.881 72.6943 107.831 72.7183C107.757 72.7424 107.682 72.7664 107.607 72.7664Z" fill="black"/>
</svg>
