<svg width="80" height="80" viewBox="0 0 80 80" fill="none" xmlns="http://www.w3.org/2000/svg">
<g clip-path="url(#clip0_19786_424)">
<path d="M47.8383 43.899C52.9617 46.6973 56.4435 52.1129 56.4435 58.3321C56.4435 67.4034 49.0435 74.786 39.9304 74.786C30.8174 74.786 23.4 67.4034 23.4 58.3321C23.4 52.1216 26.8817 46.6973 32.0052 43.8973V7.8851C32.0052 3.54423 35.56 0.00683602 39.9217 0.00683594C44.2835 0.00683594 47.8383 3.54423 47.8383 7.8851V43.9007V43.899ZM36.8261 46.8486C34.0651 47.6056 31.6725 49.3386 30.0922 51.7258C28.5119 54.113 27.8512 56.9924 28.2328 59.8298C28.6143 62.6672 30.0122 65.2698 32.167 67.1547C34.3218 69.0397 37.0872 70.079 39.9501 70.0798C42.813 70.0806 45.579 69.0428 47.7348 67.159C49.8906 65.2753 51.2899 62.6735 51.6731 59.8363C52.0562 56.9992 51.3971 54.1194 49.8182 51.7313C48.2392 49.3432 45.8475 47.6089 43.087 46.8503V7.62944C43.0833 6.80161 42.7518 6.00895 42.1652 5.42488C41.5785 4.84082 40.7844 4.51291 39.9565 4.51292C38.2156 4.51292 36.8261 5.90771 36.8261 7.62944V46.8468V46.8486Z" fill="white"/>
<path d="M33.0591 58.3497C33.0446 59.2653 33.2124 60.1746 33.5527 61.0247C33.893 61.8748 34.3991 62.6486 35.0414 63.3012C35.6837 63.9538 36.4495 64.4721 37.2941 64.8259C38.1387 65.1797 39.0452 65.3619 39.9609 65.3619C40.8766 65.3619 41.7831 65.1797 42.6277 64.8259C43.4722 64.4721 44.238 63.9538 44.8803 63.3012C45.5227 62.6486 46.0287 61.8748 46.369 61.0247C46.7094 60.1746 46.8771 59.2653 46.8626 58.3497C46.8338 56.5382 46.0941 54.8106 44.8029 53.5398C43.5117 52.2689 41.7726 51.5566 39.9609 51.5566C38.1492 51.5566 36.4101 52.2689 35.1189 53.5398C33.8277 54.8106 33.0879 56.5382 33.0591 58.3497ZM78.3009 79.6801C73.0939 79.6801 70.36 77.8836 67.9426 76.2975C65.6678 74.8071 63.527 73.3932 59.1704 73.3932C54.8122 73.3932 52.673 74.8071 50.3983 76.2975C47.9896 77.8836 45.247 79.6801 40.04 79.6801C34.8313 79.6801 32.0991 77.8836 29.6817 76.2975C27.407 74.8071 25.2661 73.3932 20.9096 73.3932C16.5513 73.3932 14.4104 74.8071 12.1356 76.2975C9.72869 77.8836 6.98608 79.6801 1.77739 79.6801C0.926954 79.6801 0.239998 78.9253 0.239998 77.9984C0.239998 77.0714 0.926954 76.3166 1.77739 76.3166C6.13565 76.3166 8.27652 74.9027 10.5496 73.4123C12.9583 71.8245 15.7009 70.0279 20.9096 70.0279C26.1165 70.0279 28.8504 71.8245 31.2678 73.4123C33.5409 74.9027 35.6817 76.3166 40.04 76.3166C44.3965 76.3166 46.5374 74.9027 48.8122 73.4123C51.2191 71.8245 53.9617 70.0279 59.1704 70.0279C64.3774 70.0279 67.1113 71.8245 69.5287 73.4123C71.8035 74.9027 73.9443 76.3166 78.3009 76.3166C79.153 76.3166 79.84 77.0714 79.84 77.9984C79.84 78.9253 79.1513 79.6801 78.3009 79.6801ZM77.2748 67.181C73.2035 67.181 71.2035 65.8593 69.0783 64.4679C66.8278 62.9845 64.2661 61.3062 59.4 61.3062C58.2748 61.3062 57.2748 61.3949 56.3739 61.5566C56.113 62.7706 55.7391 63.9392 55.2574 65.0471C56.3913 64.6819 57.7113 64.4575 59.3913 64.4575C63.4609 64.4575 65.4609 65.7793 67.5861 67.1723C69.8365 68.654 72.4 70.3323 77.2661 70.3323C78.0609 70.3323 78.7026 69.6279 78.7026 68.7619C78.7113 67.8871 78.0696 67.181 77.2748 67.181ZM23.2296 61.294C22.5687 61.2245 21.873 61.1706 21.1043 61.1706C16.24 61.1706 13.6852 62.8488 11.4261 64.3306C9.30087 65.7219 7.30087 67.0436 3.22956 67.0436C2.43478 67.0436 1.79304 67.7497 1.79304 68.6158C1.79304 69.4819 2.43652 70.1879 3.22956 70.1879C8.09565 70.1879 10.6504 68.5097 12.9096 67.0262C15.033 65.6349 17.033 64.3132 21.1043 64.3132C22.32 64.3132 23.3548 64.4279 24.2574 64.6349C23.8113 63.5565 23.4678 62.4385 23.2313 61.2958L23.2296 61.294Z" fill="white"/>
<path d="M38.5896 19.1514H41.3722V57.4122H38.5896V19.1514Z" fill="white"/>
<path d="M50.4348 10.4346H57.3913V13.9128H50.4348V10.4346Z" fill="white"/>
<path d="M50.4348 17.3911H57.3913V20.8694H50.4348V17.3911Z" fill="white"/>
<path d="M50.4348 24.3477H57.3913V27.8259H50.4348V24.3477Z" fill="white"/>
</g>
<defs>
<clipPath id="clip0_19786_424">
<rect width="80" height="80" fill="white"/>
</clipPath>
</defs>
</svg>
