<svg width="90" height="113" viewBox="0 0 90 113" fill="none" xmlns="http://www.w3.org/2000/svg">
<path d="M25.0053 0.259055C24.4338 0.276683 23.8184 0.486519 23.1204 1.03397C21.4109 0.378521 19.753 0.150812 18.2701 1.48518C15.9816 1.19001 15.2369 1.79919 14.673 2.51023C14.1705 2.49989 10.9122 1.99669 9.41811 4.21209C5.66311 3.77054 4.47651 6.40741 5.82107 8.86648C5.05419 10.0465 4.25957 11.2124 6.05297 13.462C5.41855 14.715 5.8118 16.0742 7.30626 17.7191C6.91187 19.4804 7.68712 20.7232 9.07765 21.6918C8.81758 24.1021 11.3014 25.5036 12.0431 26.0028C12.3279 27.4073 12.9215 28.7325 15.7586 29.4654C16.2264 31.5585 17.9315 31.9199 19.5826 32.3591C14.1254 35.512 9.44563 39.6606 9.47732 49.8388L8.67797 51.2562C2.42047 55.0389 -3.20918 67.1964 5.59409 77.0785C6.16913 80.1716 7.1335 82.3932 7.99212 84.8521C9.27641 94.7601 17.6581 99.3995 19.8688 99.9482C23.1082 102.401 26.5585 104.728 31.2273 106.358C35.6287 110.87 40.3969 112.59 45.1911 112.587C45.2614 112.587 45.333 112.588 45.4033 112.587C50.1976 112.59 54.9658 110.87 59.3671 106.358C64.036 104.728 67.4862 102.401 70.7257 99.9482C72.9364 99.3995 81.318 94.7601 82.6023 84.8521C83.4609 82.3932 84.4253 80.1716 85.0003 77.0785C93.8036 67.1964 88.174 55.0389 81.9165 51.2562L81.1171 49.8388C81.1488 39.6606 76.469 35.512 71.0119 32.3591C72.6629 31.9199 74.368 31.5585 74.8359 29.4654C77.673 28.7325 78.2665 27.4073 78.5513 26.0028C79.2931 25.5036 81.7769 24.1021 81.5168 21.6918C82.9073 20.7232 83.6826 19.4804 83.2882 17.7191C84.7826 16.0742 85.1759 14.715 84.5415 13.462C86.3349 11.2124 85.5402 10.0465 84.7734 8.86648C86.1179 6.40741 84.9313 3.77054 81.1763 4.21209C79.6823 1.99669 76.4239 2.49989 75.9214 2.51023C75.3576 1.79919 74.6129 1.19001 72.3244 1.48518C70.8415 0.150812 69.1835 0.378521 67.474 1.03397C65.4436 -0.558612 64.0995 0.717993 62.5645 1.20072C60.1055 0.402223 59.5435 1.49592 58.3359 1.9413C55.6556 1.37817 54.8408 2.60416 53.5546 3.8982L52.0596 3.86878C48.0158 6.23756 46.0069 11.0608 45.2948 13.5405C44.5823 11.0604 42.5779 6.23714 38.5349 3.86878L37.0398 3.8982C35.7537 2.60416 34.9389 1.37817 32.2586 1.9413C31.051 1.49592 30.489 0.402223 28.0299 1.20072C27.0226 0.883931 26.0963 0.225402 25.0053 0.259055Z" fill="black"/>
<path d="M16.957 10.6776C27.6856 16.1756 33.9223 20.623 37.3392 24.4109C35.5893 31.382 26.4608 31.7002 23.123 31.5046C23.8065 31.1884 24.3767 30.8097 24.5789 30.2277C23.7413 29.6361 20.7716 30.1654 18.6983 29.0076C19.4948 28.8436 19.8673 28.6839 20.2398 28.0996C18.281 27.4787 16.1711 26.9435 14.9302 25.9148C15.5999 25.923 16.2251 26.0637 17.0997 25.4608C15.3452 24.521 13.473 23.7762 12.0184 22.3396C12.9256 22.3175 13.9036 22.3307 14.188 21.9991C12.5821 21.0102 11.2273 19.9105 10.1058 18.7076C11.3753 18.8599 11.9114 18.7288 12.2183 18.509C11.0044 17.2732 9.46813 16.2297 8.7356 14.7068C9.67817 15.0297 10.5405 15.1533 11.162 14.6784C10.7496 13.7535 8.98225 13.2079 7.96484 11.0465C8.95711 11.1421 10.0095 11.2617 10.22 11.0465C9.7586 9.18062 8.96831 8.13201 8.19322 7.04564C10.3169 7.0143 13.5344 7.05386 13.3887 6.87539L12.0755 5.54178C14.1499 4.98663 16.2725 5.63095 17.8134 6.10928C18.5052 5.56661 17.8011 4.88041 16.957 4.1798C18.7199 4.41375 20.3128 4.81658 21.7528 5.37154C22.5221 4.68109 21.2532 3.99064 20.6395 3.30019C23.3631 3.8138 24.5169 4.53544 25.6637 5.25804C26.4957 4.46534 25.7113 3.79166 25.1498 3.10156C27.2033 3.85757 28.2611 4.83353 29.3747 5.79716C29.7523 5.29069 30.3339 4.91946 29.6316 3.69743C31.0896 4.5328 32.1878 5.51721 33.0001 6.62002C33.9022 6.04907 33.5376 5.26826 33.5425 4.54867C35.0577 5.77386 36.0194 7.07767 37.1964 8.35088C37.4335 8.17927 37.6412 7.59727 37.8245 6.67677C41.4395 10.1628 46.5475 18.9433 39.1376 22.4247C32.8346 17.2538 25.3035 13.4965 16.957 10.6776Z" fill="#75A928"/>
<path d="M73.8848 10.6776C63.1562 16.1756 56.9195 20.623 53.5026 24.4109C55.2524 31.382 64.381 31.7002 67.7187 31.5046C67.0353 31.1884 66.4651 30.8097 66.2629 30.2277C67.1004 29.6361 70.0702 30.1654 72.1435 29.0076C71.347 28.8436 70.9745 28.6839 70.6019 28.0996C72.5607 27.4787 74.6707 26.9435 75.9116 25.9148C75.2419 25.923 74.6167 26.0637 73.7421 25.4608C75.4965 24.521 77.3688 23.7762 78.8233 22.3396C77.9162 22.3175 76.9382 22.3307 76.6538 21.9991C78.2597 21.0102 79.6145 19.9105 80.7359 18.7076C79.4665 18.8599 78.9304 18.7288 78.6235 18.509C79.8374 17.2732 81.3736 16.2297 82.1062 14.7068C81.1636 15.0297 80.3012 15.1533 79.6797 14.6784C80.0922 13.7535 81.8595 13.2079 82.8769 11.0465C81.8847 11.1421 80.8322 11.2617 80.6218 11.0465C81.0832 9.18062 81.8735 8.13201 82.6486 7.04564C80.5249 7.0143 77.3073 7.05386 77.4531 6.87539L78.7662 5.54178C76.6919 4.98663 74.5693 5.63095 73.0284 6.10928C72.3365 5.56661 73.0406 4.88041 73.8848 4.1798C72.1219 4.41375 70.5289 4.81658 69.089 5.37154C68.3197 4.68109 69.5885 3.99064 70.2023 3.30019C67.4787 3.8138 66.3248 4.53544 65.1781 5.25804C64.3461 4.46534 65.1305 3.79166 65.6919 3.10156C63.6384 3.85757 62.5807 4.83353 61.4671 5.79716C61.0895 5.29069 60.5079 4.91946 61.2102 3.69743C59.7521 4.5328 58.654 5.51721 57.8417 6.62002C56.9396 6.04907 57.3042 5.26826 57.2993 4.54867C55.784 5.77386 54.8224 7.07767 53.6453 8.35088C53.4082 8.17927 53.2006 7.59727 53.0173 6.67677C49.4022 10.1628 44.2943 18.9433 51.7042 22.4247C58.0071 17.2538 65.5383 13.4965 73.8848 10.6776Z" fill="#75A928"/>
<path d="M58.4131 81.6696C58.4131 84.7936 57.0591 87.7896 54.6491 89.9986C52.239 92.2076 48.9703 93.4485 45.562 93.4485C42.1537 93.4485 38.885 92.2076 36.4749 89.9986C34.0649 87.7896 32.7109 84.7936 32.7109 81.6696C32.7109 78.5456 34.0649 75.5496 36.4749 73.3406C38.885 71.1316 42.1537 69.8906 45.562 69.8906C48.9703 69.8906 52.239 71.1316 54.6491 73.3406C57.0591 75.5496 58.4131 78.5456 58.4131 81.6696Z" fill="#BC1142"/>
<path d="M38.1247 48.0208C40.6817 49.686 42.3442 52.4712 42.7463 55.7636C43.1483 59.056 42.2571 62.5859 40.2687 65.5769C38.2802 68.5679 35.3574 70.7748 32.1433 71.7123C28.9291 72.6497 25.6868 72.2408 23.1297 70.5756C20.5727 68.9104 18.9102 66.1252 18.5082 62.8328C18.1061 59.5404 18.9973 56.0104 20.9857 53.0195C22.9742 50.0285 25.897 47.8216 29.1112 46.8841C32.3253 45.9467 35.5676 46.3555 38.1247 48.0208Z" fill="#BC1142"/>
<path d="M52.4964 47.3879C49.9394 49.0532 48.2769 51.8383 47.8748 55.1308C47.4728 58.4232 48.364 61.9531 50.3524 64.9441C52.3409 67.935 55.2637 70.142 58.4778 71.0794C61.692 72.0169 64.9343 71.608 67.4913 69.9428C70.0484 68.2776 71.7109 65.4924 72.1129 62.2C72.515 58.9076 71.6238 55.3776 69.6354 52.3866C67.6469 49.3957 64.7241 47.1887 61.5099 46.2513C58.2957 45.3139 55.0535 45.7227 52.4964 47.3879Z" fill="#BC1142"/>
<path d="M11.5116 53.6922C17.2612 52.1609 13.4524 77.3337 8.77474 75.2682C3.62946 71.1543 1.97215 59.1068 11.5116 53.6922Z" fill="#BC1142"/>
<path d="M77.9495 53.3719C72.1999 51.8406 76.0087 77.0134 80.6863 74.9479C85.8316 70.834 87.4889 58.7865 77.9495 53.3719Z" fill="#BC1142"/>
<path d="M58.4161 34.6317C68.3374 32.9665 76.5923 38.8256 76.26 49.5191C75.9336 53.6187 54.7612 35.2421 58.4161 34.6317Z" fill="#BC1142"/>
<path d="M31.0059 34.3192C21.0846 32.654 12.8297 38.5131 13.162 49.2066C13.4884 53.3062 34.6608 34.9296 31.0059 34.3192Z" fill="#BC1142"/>
<path d="M45.2549 31.8241C39.3334 31.671 33.6504 36.1925 33.6368 38.8151C33.6202 42.0017 38.3185 45.2644 45.2953 45.3472C52.42 45.3979 56.9662 42.7356 56.9891 39.447C57.0152 35.7211 50.5093 31.7665 45.2549 31.8241Z" fill="#BC1142"/>
<path d="M45.6187 97.1666C50.7815 96.9426 57.7088 98.8195 57.7224 101.309C57.8081 103.727 51.4398 109.19 45.2762 109.084C38.8929 109.358 32.6337 103.887 32.7157 101.99C32.6202 99.2099 40.4882 97.039 45.6187 97.1666Z" fill="#BC1142"/>
<path d="M26.5463 82.4146C30.222 86.8162 31.8975 94.5493 28.8301 96.8289C25.9281 98.5691 18.8808 97.8524 13.8717 90.7C10.4935 84.6981 10.9289 78.5907 13.3008 76.7964C16.8478 74.6487 22.3282 77.5496 26.5463 82.4146Z" fill="#BC1142"/>
<path d="M63.9498 81.0171C59.9729 85.6472 57.7584 94.092 60.6596 96.8124C63.4335 98.9254 70.88 98.6301 76.3805 91.0438C80.3746 85.9486 79.0363 77.4395 76.7548 75.1806C73.3658 72.575 68.5006 75.9096 63.9498 81.0171Z" fill="#BC1142"/>
</svg>
