<svg width="80" height="81" viewBox="0 0 80 81" fill="none" xmlns="http://www.w3.org/2000/svg">
<g clip-path="url(#clip0_19875_15697)">
<mask id="path-1-inside-1_19875_15697" fill="white">
<path d="M15.1678 42.7857H22.3927V45.2771H15.1678V42.7857ZM41.2126 40.5171C41.8964 40.5171 42.5402 40.6771 43.1157 40.9571C45.325 38.2539 47.8523 35.8287 50.6426 33.7343L52.7052 35.6943C50.6766 38.7742 48.249 41.5701 45.486 44.0085C45.6285 44.7154 45.5942 45.4466 45.3862 46.1369C45.1781 46.8273 44.8028 47.4551 44.2938 47.9645C43.7847 48.4738 43.1578 48.8487 42.469 49.0558C41.7801 49.2628 41.0509 49.2955 40.3465 49.1509C39.642 49.0063 38.9842 48.689 38.4318 48.2272C37.8795 47.7655 37.4498 47.1737 37.1812 46.5047C36.9126 45.8358 36.8134 45.1105 36.8925 44.3937C36.9715 43.677 37.2264 42.991 37.6344 42.3971C34.3923 38.0312 31.6353 33.3233 29.4124 28.3571L31.6004 27.1571C34.8196 31.4886 37.6401 35.9914 39.9534 40.7057C40.3616 40.581 40.7859 40.5174 41.2126 40.5171ZM34.9792 16.7628L34.9678 24.2143L55.5085 12.3857L35.0134 0.5L34.9963 8.13428C27.2928 9.27714 20.1762 12.8714 14.655 18.3914C11.2747 21.7626 8.59301 25.7713 6.76434 30.1865C4.93567 34.6017 3.99619 39.3362 4.00002 44.1171C3.99556 48.8981 4.93476 53.6328 6.76347 58.0481C8.59217 62.4634 11.2742 66.472 14.655 69.8428C18.0311 73.2271 22.0396 75.9104 26.451 77.7391C30.8625 79.5678 35.5902 80.506 40.3636 80.5C45.139 80.5072 49.8688 79.5696 54.2822 77.7409C58.6957 75.9122 62.7061 73.2282 66.0837 69.8428C70.1628 65.7674 73.2156 60.7764 74.9894 55.2828L75.4054 53.9743L67.2575 51.5571L66.8529 52.7971C65.4895 56.9571 63.1663 60.7357 60.0725 63.8257C57.4852 66.4215 54.4124 68.4795 51.0303 69.8817C47.6482 71.284 44.0234 72.0028 40.3636 71.9971C36.7059 72.0013 33.0832 71.2817 29.7031 69.8795C26.3231 68.4774 23.2521 66.4201 20.6662 63.8257C18.0755 61.2436 16.0202 58.1728 14.6188 54.7901C13.2174 51.4075 12.4977 47.7801 12.5012 44.1171C12.5012 36.7 15.4242 29.6543 20.6662 24.4086C24.5737 20.4903 29.5567 17.8285 34.9792 16.7628ZM67.9127 39.9343C67.6485 38.1505 67.2095 36.3973 66.6022 34.7L66.1464 33.4543L74.1177 30.4771L74.5735 31.7514C75.4623 34.2086 76.0834 36.7571 76.4196 39.3514L76.6133 40.8143L68.095 41.1228L67.9184 39.9343H67.9127ZM67.7646 49.2257C68.1076 47.3757 68.2623 45.4956 68.2261 43.6143L68.2033 42.3L76.6931 41.9857L76.7273 43.3571V44.1171C76.7273 46.5628 76.488 49.0028 76.0036 51.4028L75.7131 52.8371L67.5424 50.4143L67.7646 49.2257ZM65.1265 31.3171C64.3757 29.872 63.5006 28.4953 62.5112 27.2028L61.7021 26.1457L68.397 20.9L69.2232 21.9743C70.6819 23.8771 71.9468 25.9171 73.0066 28.06L73.6618 29.3914L65.6735 32.38L65.1265 31.3171ZM60.9215 25.26L60.0668 24.4086C58.8252 23.1684 57.4709 22.0474 56.0213 21.06L54.8248 20.2428L60.1409 13.5571L61.1779 14.2828C63.1341 15.653 64.9527 17.2108 66.6079 18.9343L67.6335 20.0086L60.9215 25.2657V25.26ZM40.3807 68.86V61.6314H42.8707V68.86H40.3807ZM58.6423 61.6428L53.5314 56.5285L55.292 54.7685L60.3973 59.8828L58.6423 61.6428ZM22.3813 61.0485L27.4922 55.9343L29.2529 57.6943L24.1419 62.8085L22.3813 61.0485ZM22.9795 24.7743L28.0848 29.8886L26.3299 31.6486L21.2189 26.5343L22.9795 24.7743ZM59.2349 25.3686L57.4743 23.6086L52.3633 28.7228L54.1296 30.4828L59.2349 25.3686ZM66.4484 43.6314H59.2121V41.14H66.4427V43.6314H66.4484Z"/>
</mask>
<path d="M15.1678 42.7857H22.3927V45.2771H15.1678V42.7857ZM41.2126 40.5171C41.8964 40.5171 42.5402 40.6771 43.1157 40.9571C45.325 38.2539 47.8523 35.8287 50.6426 33.7343L52.7052 35.6943C50.6766 38.7742 48.249 41.5701 45.486 44.0085C45.6285 44.7154 45.5942 45.4466 45.3862 46.1369C45.1781 46.8273 44.8028 47.4551 44.2938 47.9645C43.7847 48.4738 43.1578 48.8487 42.469 49.0558C41.7801 49.2628 41.0509 49.2955 40.3465 49.1509C39.642 49.0063 38.9842 48.689 38.4318 48.2272C37.8795 47.7655 37.4498 47.1737 37.1812 46.5047C36.9126 45.8358 36.8134 45.1105 36.8925 44.3937C36.9715 43.677 37.2264 42.991 37.6344 42.3971C34.3923 38.0312 31.6353 33.3233 29.4124 28.3571L31.6004 27.1571C34.8196 31.4886 37.6401 35.9914 39.9534 40.7057C40.3616 40.581 40.7859 40.5174 41.2126 40.5171ZM34.9792 16.7628L34.9678 24.2143L55.5085 12.3857L35.0134 0.5L34.9963 8.13428C27.2928 9.27714 20.1762 12.8714 14.655 18.3914C11.2747 21.7626 8.59301 25.7713 6.76434 30.1865C4.93567 34.6017 3.99619 39.3362 4.00002 44.1171C3.99556 48.8981 4.93476 53.6328 6.76347 58.0481C8.59217 62.4634 11.2742 66.472 14.655 69.8428C18.0311 73.2271 22.0396 75.9104 26.451 77.7391C30.8625 79.5678 35.5902 80.506 40.3636 80.5C45.139 80.5072 49.8688 79.5696 54.2822 77.7409C58.6957 75.9122 62.7061 73.2282 66.0837 69.8428C70.1628 65.7674 73.2156 60.7764 74.9894 55.2828L75.4054 53.9743L67.2575 51.5571L66.8529 52.7971C65.4895 56.9571 63.1663 60.7357 60.0725 63.8257C57.4852 66.4215 54.4124 68.4795 51.0303 69.8817C47.6482 71.284 44.0234 72.0028 40.3636 71.9971C36.7059 72.0013 33.0832 71.2817 29.7031 69.8795C26.3231 68.4774 23.2521 66.4201 20.6662 63.8257C18.0755 61.2436 16.0202 58.1728 14.6188 54.7901C13.2174 51.4075 12.4977 47.7801 12.5012 44.1171C12.5012 36.7 15.4242 29.6543 20.6662 24.4086C24.5737 20.4903 29.5567 17.8285 34.9792 16.7628ZM67.9127 39.9343C67.6485 38.1505 67.2095 36.3973 66.6022 34.7L66.1464 33.4543L74.1177 30.4771L74.5735 31.7514C75.4623 34.2086 76.0834 36.7571 76.4196 39.3514L76.6133 40.8143L68.095 41.1228L67.9184 39.9343H67.9127ZM67.7646 49.2257C68.1076 47.3757 68.2623 45.4956 68.2261 43.6143L68.2033 42.3L76.6931 41.9857L76.7273 43.3571V44.1171C76.7273 46.5628 76.488 49.0028 76.0036 51.4028L75.7131 52.8371L67.5424 50.4143L67.7646 49.2257ZM65.1265 31.3171C64.3757 29.872 63.5006 28.4953 62.5112 27.2028L61.7021 26.1457L68.397 20.9L69.2232 21.9743C70.6819 23.8771 71.9468 25.9171 73.0066 28.06L73.6618 29.3914L65.6735 32.38L65.1265 31.3171ZM60.9215 25.26L60.0668 24.4086C58.8252 23.1684 57.4709 22.0474 56.0213 21.06L54.8248 20.2428L60.1409 13.5571L61.1779 14.2828C63.1341 15.653 64.9527 17.2108 66.6079 18.9343L67.6335 20.0086L60.9215 25.2657V25.26ZM40.3807 68.86V61.6314H42.8707V68.86H40.3807ZM58.6423 61.6428L53.5314 56.5285L55.292 54.7685L60.3973 59.8828L58.6423 61.6428ZM22.3813 61.0485L27.4922 55.9343L29.2529 57.6943L24.1419 62.8085L22.3813 61.0485ZM22.9795 24.7743L28.0848 29.8886L26.3299 31.6486L21.2189 26.5343L22.9795 24.7743ZM59.2349 25.3686L57.4743 23.6086L52.3633 28.7228L54.1296 30.4828L59.2349 25.3686ZM66.4484 43.6314H59.2121V41.14H66.4427V43.6314H66.4484Z" fill="white" stroke="#C3DEA8" stroke-width="2" mask="url(#path-1-inside-1_19875_15697)"/>
</g>
<defs>
<clipPath id="clip0_19875_15697">
<rect width="80" height="80" fill="white" transform="translate(0 0.5)"/>
</clipPath>
</defs>
</svg>
