<svg width="211" height="35" viewBox="0 0 211 35" fill="none" xmlns="http://www.w3.org/2000/svg">
<path d="M181.902 33.9462C181.282 33.9462 180.749 33.8664 180.303 33.7069C179.857 33.5509 179.485 33.3442 179.188 33.0867C178.894 32.8328 178.66 32.5608 178.486 32.2707L179.509 31.5526C179.625 31.7049 179.772 31.879 179.949 32.0748C180.127 32.2743 180.37 32.4466 180.678 32.5916C180.99 32.7403 181.398 32.8147 181.902 32.8147C182.577 32.8147 183.134 32.6515 183.572 32.3251C184.011 31.9987 184.231 31.4873 184.231 30.791V29.0936H184.122C184.028 29.246 183.893 29.4346 183.719 29.6594C183.549 29.8806 183.302 30.0783 182.979 30.2524C182.66 30.4228 182.229 30.5081 181.685 30.5081C181.01 30.5081 180.404 30.3485 179.868 30.0293C179.335 29.7102 178.912 29.246 178.6 28.6367C178.292 28.0274 178.138 27.2875 178.138 26.4171C178.138 25.5612 178.288 24.8159 178.589 24.1812C178.89 23.5429 179.309 23.0497 179.846 22.7015C180.383 22.3497 181.003 22.1738 181.706 22.1738C182.25 22.1738 182.682 22.2645 183.001 22.4458C183.324 22.6235 183.571 22.8266 183.741 23.0551C183.915 23.28 184.049 23.4649 184.144 23.61H184.274V22.2826H185.514V30.878C185.514 31.5961 185.351 32.18 185.025 32.6297C184.702 33.0831 184.267 33.4149 183.719 33.6253C183.175 33.8392 182.57 33.9462 181.902 33.9462ZM181.859 29.3548C182.374 29.3548 182.809 29.2369 183.164 29.0012C183.52 28.7654 183.79 28.4263 183.975 27.9839C184.16 27.5414 184.252 27.0119 184.252 26.3954C184.252 25.7933 184.162 25.262 183.98 24.8014C183.799 24.3408 183.531 23.9799 183.175 23.7188C182.82 23.4577 182.381 23.3271 181.859 23.3271C181.315 23.3271 180.861 23.4649 180.499 23.7406C180.14 24.0162 179.869 24.3861 179.688 24.8504C179.51 25.3146 179.422 25.8296 179.422 26.3954C179.422 26.9756 179.512 27.4888 179.694 27.9349C179.879 28.3774 180.151 28.7255 180.51 28.9794C180.872 29.2296 181.322 29.3548 181.859 29.3548Z" fill="#00695D"/>
<path d="M170.852 25.612V30.6386H169.568V22.2826H170.808V23.5883H170.917C171.113 23.1639 171.41 22.823 171.809 22.5655C172.208 22.3044 172.723 22.1738 173.354 22.1738C173.92 22.1738 174.415 22.2899 174.84 22.522C175.264 22.7505 175.594 23.0986 175.83 23.5665C176.065 24.0307 176.183 24.6183 176.183 25.3291V30.6386H174.899V25.4161C174.899 24.7597 174.729 24.2483 174.388 23.882C174.047 23.5121 173.579 23.3271 172.985 23.3271C172.575 23.3271 172.208 23.416 171.886 23.5937C171.566 23.7714 171.314 24.0307 171.129 24.3716C170.944 24.7125 170.852 25.126 170.852 25.612Z" fill="#00695D"/>
<path d="M165.933 30.6387V22.2827H167.217V30.6387H165.933ZM166.586 20.89C166.335 20.89 166.12 20.8048 165.938 20.6343C165.761 20.4639 165.672 20.259 165.672 20.0196C165.672 19.7802 165.761 19.5753 165.938 19.4049C166.12 19.2344 166.335 19.1492 166.586 19.1492C166.836 19.1492 167.05 19.2344 167.228 19.4049C167.409 19.5753 167.5 19.7802 167.5 20.0196C167.5 20.259 167.409 20.4639 167.228 20.6343C167.05 20.8048 166.836 20.89 166.586 20.89Z" fill="#00695D"/>
<path d="M158.797 27.5922L158.775 26.0037H159.036L162.692 22.2826H164.28L160.385 26.2213H160.276L158.797 27.5922ZM157.6 30.6387V19.4973H158.884V30.6387H157.6ZM162.909 30.6387L159.645 26.5042L160.559 25.612L164.541 30.6387H162.909Z" fill="#00695D"/>
<path d="M151.9 30.6388V22.2828H153.14V23.5449H153.227C153.38 23.1314 153.655 22.796 154.054 22.5385C154.453 22.281 154.903 22.1522 155.403 22.1522C155.498 22.1522 155.616 22.154 155.757 22.1577C155.899 22.1613 156.005 22.1667 156.078 22.174V23.4796C156.035 23.4687 155.935 23.4524 155.779 23.4306C155.626 23.4053 155.465 23.3926 155.295 23.3926C154.888 23.3926 154.526 23.4778 154.207 23.6483C153.891 23.8151 153.641 24.0472 153.456 24.3446C153.275 24.6384 153.184 24.9738 153.184 25.351V30.6388H151.9Z" fill="#00695D"/>
<path d="M146.154 30.8127C145.4 30.8127 144.738 30.6332 144.168 30.2741C143.603 29.9151 143.16 29.4128 142.841 28.7672C142.525 28.1217 142.368 27.3673 142.368 26.5042C142.368 25.6337 142.525 24.8739 142.841 24.2247C143.16 23.5756 143.603 23.0714 144.168 22.7124C144.738 22.3534 145.4 22.1738 146.154 22.1738C146.908 22.1738 147.568 22.3534 148.134 22.7124C148.704 23.0714 149.146 23.5756 149.462 24.2247C149.781 24.8739 149.94 25.6337 149.94 26.5042C149.94 27.3673 149.781 28.1217 149.462 28.7672C149.146 29.4128 148.704 29.9151 148.134 30.2741C147.568 30.6332 146.908 30.8127 146.154 30.8127ZM146.154 29.6594C146.727 29.6594 147.198 29.5125 147.568 29.2188C147.938 28.925 148.212 28.5388 148.39 28.06C148.568 27.5813 148.656 27.0627 148.656 26.5042C148.656 25.9456 148.568 25.4252 148.39 24.9428C148.212 24.4605 147.938 24.0706 147.568 23.7732C147.198 23.4758 146.727 23.3271 146.154 23.3271C145.581 23.3271 145.109 23.4758 144.74 23.7732C144.37 24.0706 144.096 24.4605 143.918 24.9428C143.74 25.4252 143.652 25.9456 143.652 26.5042C143.652 27.0627 143.74 27.5813 143.918 28.06C144.096 28.5388 144.37 28.925 144.74 29.2188C145.109 29.5125 145.581 29.6594 146.154 29.6594Z" fill="#00695D"/>
<path d="M132.49 30.6388L129.944 22.2828H131.293L133.099 28.6804H133.186L134.97 22.2828H136.341L138.104 28.6586H138.191L139.997 22.2828H141.346L138.8 30.6388H137.538L135.71 24.2195H135.58L133.752 30.6388H132.49Z" fill="#00695D"/>
<path d="M128.665 22.2827V23.3707H124.335V22.2827H128.665ZM125.597 20.2808H126.881V28.2451C126.881 28.6078 126.934 28.8798 127.039 29.0611C127.147 29.2388 127.285 29.3585 127.452 29.4201C127.623 29.4782 127.802 29.5072 127.991 29.5072C128.132 29.5072 128.248 29.4999 128.339 29.4854C128.43 29.4673 128.502 29.4528 128.556 29.4419L128.818 30.5952C128.731 30.6278 128.609 30.6605 128.453 30.6931C128.297 30.7294 128.1 30.7475 127.86 30.7475C127.497 30.7475 127.142 30.6696 126.794 30.5136C126.449 30.3577 126.163 30.1201 125.934 29.8009C125.709 29.4818 125.597 29.0792 125.597 28.5932V20.2808Z" fill="#00695D"/>
<path d="M119.619 30.8127C118.813 30.8127 118.119 30.635 117.535 30.2796C116.955 29.9205 116.507 29.4201 116.191 28.7781C115.879 28.1326 115.723 27.3818 115.723 26.5259C115.723 25.67 115.879 24.9156 116.191 24.2628C116.507 23.6064 116.946 23.095 117.508 22.7287C118.074 22.3588 118.734 22.1738 119.488 22.1738C119.923 22.1738 120.353 22.2464 120.777 22.3914C121.202 22.5365 121.588 22.7722 121.936 23.0986C122.284 23.4214 122.562 23.8494 122.768 24.3825C122.975 24.9156 123.078 25.5721 123.078 26.3518V26.8958H116.637V25.7861H121.773C121.773 25.3146 121.678 24.8939 121.49 24.524C121.305 24.154 121.04 23.8621 120.696 23.6481C120.355 23.4341 119.952 23.3271 119.488 23.3271C118.977 23.3271 118.534 23.4541 118.161 23.7079C117.791 23.9582 117.506 24.2846 117.306 24.6872C117.107 25.0897 117.007 25.5213 117.007 25.9819V26.7218C117.007 27.3528 117.116 27.8878 117.334 28.3266C117.555 28.7618 117.861 29.0936 118.253 29.3221C118.645 29.547 119.1 29.6594 119.619 29.6594C119.956 29.6594 120.26 29.6123 120.532 29.518C120.808 29.4201 121.046 29.275 121.245 29.0828C121.445 28.8869 121.599 28.6439 121.708 28.3538L122.948 28.702C122.817 29.1227 122.598 29.4926 122.29 29.8117C121.981 30.1273 121.601 30.3739 121.147 30.5516C120.694 30.7257 120.184 30.8127 119.619 30.8127Z" fill="#00695D"/>
<path d="M113.589 19.4973V30.6387H112.284L106.213 21.891H106.104V30.6387H104.755V19.4973H106.06L112.153 28.2668H112.262V19.4973H113.589Z" fill="#00695D"/>
<path d="M207.54 11.6635C206.735 11.6635 206.04 11.4858 205.457 11.1304C204.876 10.7714 204.428 10.2709 204.113 9.62895C203.801 8.98339 203.645 8.23265 203.645 7.37674C203.645 6.52083 203.801 5.76647 204.113 5.11366C204.428 4.45722 204.867 3.94585 205.429 3.57955C205.995 3.20962 206.655 3.02466 207.41 3.02466C207.845 3.02466 208.275 3.09719 208.699 3.24226C209.123 3.38733 209.509 3.62307 209.858 3.94948C210.206 4.27226 210.483 4.70021 210.69 5.23334C210.897 5.76647 211 6.42291 211 7.20266V7.74667H204.559V6.63689H209.694C209.694 6.16541 209.6 5.74471 209.412 5.37478C209.227 5.00486 208.962 4.7129 208.617 4.49893C208.276 4.28495 207.874 4.17796 207.41 4.17796C206.898 4.17796 206.456 4.3049 206.082 4.55877C205.712 4.80901 205.428 5.13542 205.228 5.53799C205.029 5.94056 204.929 6.37214 204.929 6.83273V7.57259C204.929 8.20364 205.038 8.73858 205.255 9.17742C205.477 9.61263 205.783 9.94448 206.175 10.173C206.566 10.3978 207.022 10.5102 207.54 10.5102C207.877 10.5102 208.182 10.4631 208.454 10.3688C208.73 10.2709 208.967 10.1258 209.167 9.9336C209.366 9.73775 209.52 9.49476 209.629 9.20462L210.869 9.55279C210.739 9.97349 210.519 10.3434 210.211 10.6626C209.903 10.9781 209.522 11.2247 209.069 11.4024C208.615 11.5765 208.106 11.6635 207.54 11.6635Z" fill="#00695D"/>
<path d="M202.641 3.13367L199.551 11.4897H198.246L195.156 3.13367H196.548L198.855 9.79236H198.942L201.249 3.13367H202.641Z" fill="#00695D"/>
<path d="M192.173 11.4895V3.1335H193.457V11.4895H192.173ZM192.826 1.74083C192.576 1.74083 192.36 1.65561 192.179 1.48515C192.001 1.31469 191.912 1.10978 191.912 0.870417C191.912 0.631053 192.001 0.426142 192.179 0.255685C192.36 0.0852282 192.576 0 192.826 0C193.076 0 193.29 0.0852282 193.468 0.255685C193.649 0.426142 193.74 0.631053 193.74 0.870417C193.74 1.10978 193.649 1.31469 193.468 1.48515C193.29 1.65561 193.076 1.74083 192.826 1.74083Z" fill="#00695D"/>
<path d="M190.242 3.13355V4.22157H185.912V3.13355H190.242ZM187.174 1.13159H188.458V9.09591C188.458 9.45858 188.51 9.73059 188.615 9.91192C188.724 10.0896 188.862 10.2093 189.029 10.271C189.199 10.329 189.379 10.358 189.567 10.358C189.709 10.358 189.825 10.3508 189.916 10.3363C190.006 10.3181 190.079 10.3036 190.133 10.2927L190.394 11.446C190.307 11.4787 190.186 11.5113 190.03 11.544C189.874 11.5802 189.676 11.5984 189.437 11.5984C189.074 11.5984 188.719 11.5204 188.371 11.3644C188.026 11.2085 187.739 10.9709 187.511 10.6518C187.286 10.3326 187.174 9.93006 187.174 9.44408V1.13159Z" fill="#00695D"/>
<path d="M182.973 11.4895V3.1335H184.256V11.4895H182.973ZM183.625 1.74083C183.375 1.74083 183.159 1.65561 182.978 1.48515C182.8 1.31469 182.711 1.10978 182.711 0.870417C182.711 0.631053 182.8 0.426142 182.978 0.255685C183.159 0.0852282 183.375 0 183.625 0C183.876 0 184.09 0.0852282 184.267 0.255685C184.449 0.426142 184.539 0.631053 184.539 0.870417C184.539 1.10978 184.449 1.31469 184.267 1.48515C184.09 1.65561 183.876 1.74083 183.625 1.74083Z" fill="#00695D"/>
<path d="M180.888 5.00486L179.734 5.33126C179.662 5.13905 179.555 4.95227 179.413 4.77093C179.276 4.58597 179.087 4.43365 178.848 4.31396C178.608 4.19428 178.302 4.13444 177.928 4.13444C177.417 4.13444 176.991 4.25231 176.65 4.48805C176.313 4.72016 176.144 5.01574 176.144 5.37478C176.144 5.69394 176.26 5.946 176.492 6.13096C176.724 6.31592 177.087 6.47006 177.58 6.59337L178.821 6.89801C179.568 7.07935 180.124 7.3568 180.491 7.73035C180.857 8.10028 181.04 8.57719 181.04 9.1611C181.04 9.63983 180.902 10.0678 180.627 10.445C180.355 10.8221 179.974 11.1195 179.484 11.3371C178.995 11.5547 178.425 11.6635 177.776 11.6635C176.924 11.6635 176.218 11.4786 175.66 11.1087C175.101 10.7387 174.748 10.1983 174.599 9.48751L175.818 9.18286C175.934 9.63258 176.153 9.96986 176.476 10.1947C176.802 10.4196 177.228 10.532 177.754 10.532C178.353 10.532 178.828 10.4051 179.18 10.1512C179.535 9.8937 179.713 9.58543 179.713 9.22638C179.713 8.93624 179.611 8.69325 179.408 8.49741C179.205 8.29794 178.893 8.14924 178.472 8.05132L177.08 7.72491C176.314 7.54357 175.752 7.2625 175.393 6.88169C175.038 6.49726 174.86 6.01672 174.86 5.44007C174.86 4.96859 174.993 4.55152 175.257 4.18884C175.526 3.82617 175.89 3.54147 176.351 3.33474C176.815 3.12802 177.341 3.02466 177.928 3.02466C178.755 3.02466 179.404 3.206 179.876 3.56867C180.351 3.93134 180.688 4.41007 180.888 5.00486Z" fill="#00695D"/>
<path d="M167.291 6.46281V11.4895H166.008V3.13346H167.248V4.43909H167.357C167.553 4.01476 167.85 3.67384 168.249 3.41635C168.648 3.15522 169.163 3.02466 169.794 3.02466C170.36 3.02466 170.855 3.14071 171.279 3.37282C171.703 3.60131 172.033 3.94948 172.269 4.41733C172.505 4.88155 172.623 5.46908 172.623 6.17992V11.4895H171.339V6.26696C171.339 5.61052 171.168 5.09915 170.828 4.73285C170.487 4.36292 170.019 4.17796 169.424 4.17796C169.014 4.17796 168.648 4.26682 168.325 4.44453C168.006 4.62224 167.754 4.88155 167.569 5.22246C167.384 5.56338 167.291 5.97682 167.291 6.46281Z" fill="#00695D"/>
<path d="M160.595 11.6635C159.79 11.6635 159.095 11.4858 158.511 11.1304C157.931 10.7714 157.483 10.2709 157.167 9.62895C156.856 8.98339 156.7 8.23265 156.7 7.37674C156.7 6.52083 156.856 5.76647 157.167 5.11366C157.483 4.45722 157.922 3.94585 158.484 3.57955C159.05 3.20962 159.71 3.02466 160.464 3.02466C160.899 3.02466 161.329 3.09719 161.753 3.24226C162.178 3.38733 162.564 3.62307 162.912 3.94948C163.26 4.27226 163.538 4.70021 163.745 5.23334C163.951 5.76647 164.055 6.42291 164.055 7.20266V7.74667H157.614V6.63689H162.749C162.749 6.16541 162.655 5.74471 162.466 5.37478C162.281 5.00486 162.016 4.7129 161.672 4.49893C161.331 4.28495 160.928 4.17796 160.464 4.17796C159.953 4.17796 159.51 4.3049 159.137 4.55877C158.767 4.80901 158.482 5.13542 158.283 5.53799C158.083 5.94056 157.983 6.37214 157.983 6.83273V7.57259C157.983 8.20364 158.092 8.73858 158.31 9.17742C158.531 9.61263 158.838 9.94448 159.229 10.173C159.621 10.3978 160.076 10.5102 160.595 10.5102C160.932 10.5102 161.237 10.4631 161.509 10.3688C161.784 10.2709 162.022 10.1258 162.221 9.9336C162.421 9.73775 162.575 9.49476 162.684 9.20462L163.924 9.55279C163.793 9.97349 163.574 10.3434 163.266 10.6626C162.958 10.9781 162.577 11.2247 162.123 11.4024C161.67 11.5765 161.16 11.6635 160.595 11.6635Z" fill="#00695D"/>
<path d="M153.589 3.13358C153.524 2.58232 153.259 2.15436 152.795 1.84972C152.331 1.54507 151.761 1.39275 151.087 1.39275C150.593 1.39275 150.162 1.47253 149.792 1.63211C149.426 1.79169 149.139 2.01111 148.932 2.29036C148.729 2.56962 148.628 2.88696 148.628 3.24238C148.628 3.53977 148.698 3.79546 148.84 4.00944C148.985 4.21979 149.17 4.39569 149.395 4.53713C149.62 4.67494 149.855 4.78919 150.102 4.87986C150.349 4.9669 150.575 5.03762 150.782 5.09202L151.914 5.39667C152.204 5.47283 152.526 5.578 152.882 5.71219C153.241 5.84638 153.584 6.02953 153.91 6.26164C154.24 6.49013 154.512 6.78389 154.726 7.14294C154.94 7.50199 155.047 7.94264 155.047 8.46489C155.047 9.06692 154.889 9.61094 154.574 10.0969C154.262 10.5829 153.805 10.9691 153.203 11.2557C152.604 11.5422 151.877 11.6854 151.021 11.6854C150.223 11.6854 149.533 11.5567 148.949 11.2992C148.368 11.0417 147.911 10.6826 147.578 10.222C147.248 9.76144 147.061 9.2265 147.017 8.61721H148.41C148.446 9.03791 148.588 9.38608 148.834 9.66171C149.085 9.93371 149.4 10.1368 149.781 10.271C150.165 10.4016 150.579 10.4668 151.021 10.4668C151.536 10.4668 151.999 10.3834 152.409 10.2166C152.818 10.0461 153.143 9.81041 153.382 9.50939C153.622 9.20474 153.741 8.84932 153.741 8.44312C153.741 8.0732 153.638 7.77218 153.431 7.54007C153.225 7.30796 152.953 7.11937 152.615 6.9743C152.278 6.82923 151.914 6.70229 151.522 6.59349L150.151 6.2018C149.281 5.95156 148.591 5.59432 148.084 5.1301C147.576 4.66588 147.322 4.0584 147.322 3.30766C147.322 2.68387 147.491 2.13985 147.828 1.67563C148.169 1.20778 148.626 0.845109 149.199 0.587611C149.776 0.326485 150.419 0.195923 151.13 0.195923C151.848 0.195923 152.487 0.324672 153.045 0.58217C153.604 0.836042 154.046 1.18421 154.372 1.62667C154.703 2.06913 154.877 2.57144 154.895 3.13358H153.589Z" fill="#00695D"/>
<path d="M145.063 6.11475V7.31157H140.189V6.11475H145.063Z" fill="#00695D"/>
<path d="M134.863 11.6635C134.058 11.6635 133.363 11.4858 132.779 11.1304C132.199 10.7714 131.751 10.2709 131.436 9.62895C131.124 8.98339 130.968 8.23265 130.968 7.37674C130.968 6.52083 131.124 5.76647 131.436 5.11366C131.751 4.45722 132.19 3.94585 132.752 3.57955C133.318 3.20962 133.978 3.02466 134.732 3.02466C135.168 3.02466 135.597 3.09719 136.022 3.24226C136.446 3.38733 136.832 3.62307 137.18 3.94948C137.529 4.27226 137.806 4.70021 138.013 5.23334C138.22 5.76647 138.323 6.42291 138.323 7.20266V7.74667H131.882V6.63689H137.017C137.017 6.16541 136.923 5.74471 136.734 5.37478C136.549 5.00486 136.285 4.7129 135.94 4.49893C135.599 4.28495 135.197 4.17796 134.732 4.17796C134.221 4.17796 133.779 4.3049 133.405 4.55877C133.035 4.80901 132.75 5.13542 132.551 5.53799C132.351 5.94056 132.252 6.37214 132.252 6.83273V7.57259C132.252 8.20364 132.361 8.73858 132.578 9.17742C132.799 9.61263 133.106 9.94448 133.498 10.173C133.889 10.3978 134.344 10.5102 134.863 10.5102C135.2 10.5102 135.505 10.4631 135.777 10.3688C136.053 10.2709 136.29 10.1258 136.49 9.9336C136.689 9.73775 136.843 9.49476 136.952 9.20462L138.192 9.55279C138.062 9.97349 137.842 10.3434 137.534 10.6626C137.226 10.9781 136.845 11.2247 136.392 11.4024C135.938 11.5765 135.429 11.6635 134.863 11.6635Z" fill="#00695D"/>
<path d="M118.045 11.4895V3.13346H119.285V4.43909H119.394C119.568 3.993 119.849 3.64664 120.237 3.40003C120.625 3.14978 121.091 3.02466 121.635 3.02466C122.187 3.02466 122.645 3.14978 123.012 3.40003C123.382 3.64664 123.67 3.993 123.877 4.43909H123.964C124.178 4.0075 124.499 3.66478 124.927 3.41091C125.354 3.15341 125.868 3.02466 126.466 3.02466C127.213 3.02466 127.824 3.25858 128.299 3.72643C128.775 4.19065 129.012 4.91419 129.012 5.89704V11.4895H127.728V5.89704C127.728 5.28049 127.56 4.83984 127.222 4.57509C126.885 4.31034 126.488 4.17796 126.031 4.17796C125.443 4.17796 124.988 4.35567 124.665 4.71109C124.343 5.06289 124.181 5.50897 124.181 6.04936V11.4895H122.876V5.76647C122.876 5.29137 122.721 4.90875 122.413 4.61861C122.105 4.32484 121.708 4.17796 121.222 4.17796C120.888 4.17796 120.576 4.26682 120.286 4.44453C120 4.62224 119.768 4.86885 119.59 5.18438C119.416 5.49628 119.329 5.85714 119.329 6.26696V11.4895H118.045Z" fill="#00695D"/>
<path d="M114.41 11.4895V3.1335H115.693V11.4895H114.41ZM115.062 1.74083C114.812 1.74083 114.596 1.65561 114.415 1.48515C114.237 1.31469 114.148 1.10978 114.148 0.870417C114.148 0.631053 114.237 0.426142 114.415 0.255685C114.596 0.0852282 114.812 0 115.062 0C115.313 0 115.527 0.0852282 115.704 0.255685C115.886 0.426142 115.976 0.631053 115.976 0.870417C115.976 1.10978 115.886 1.31469 115.704 1.48515C115.527 1.65561 115.313 1.74083 115.062 1.74083Z" fill="#00695D"/>
<path d="M104.146 1.54497V0.348145H112.502V1.54497H108.998V11.4895H107.649V1.54497H104.146Z" fill="#00695D"/>
<path d="M73.7435 20.3192V33.9839H63.8218V0.119263H73.8624L82.8335 13.784C84.1802 15.804 85.21 17.5071 85.9229 18.8934H86.1012V13.1898V0.119263H95.9635V33.9839H85.8635L76.6547 19.7251L73.9812 15.6851H73.8029L73.7435 20.3192Z" fill="#00695D"/>
<path d="M42.9895 9.26822C42.9895 10.1 43.4054 10.7535 44.2372 11.2288C45.1086 11.7041 46.4552 12.219 48.2772 12.7735C50.4556 13.4865 52.238 14.1796 53.6242 14.8529C55.0501 15.5263 56.278 16.5759 57.3078 18.0017C58.3772 19.4276 58.9119 21.2892 58.9119 23.5864C58.9119 30.9535 54.1193 34.637 44.5342 34.637C42.9499 34.637 41.0091 34.4984 38.7119 34.2211C36.4543 33.9439 34.3946 33.5874 32.5331 33.1517C32.6123 32.32 32.7707 31.1119 33.0084 29.5276C33.2856 27.9037 33.5431 26.6957 33.7807 25.9035C35.167 26.1015 37.2464 26.3392 40.019 26.6164C42.8311 26.8937 44.9501 27.0323 46.376 27.0323C47.2078 27.0323 47.7029 26.9729 47.8613 26.8541C48.0989 26.6957 48.2772 26.4382 48.396 26.0817C48.5544 25.6857 48.6337 25.349 48.6337 25.0717C48.6337 24.2796 48.2574 23.6855 47.5048 23.2894C46.7523 22.8537 45.465 22.3388 43.6431 21.7447C41.4646 21.0713 39.6625 20.3782 38.2366 19.6653C36.8107 18.9523 35.5631 17.8433 34.4937 16.3382C33.4243 14.8331 32.8896 12.8527 32.8896 10.397C32.8896 8.6543 33.2856 6.95117 34.0778 5.28764C34.8699 3.58451 35.6819 2.43588 36.5137 1.84176C37.1474 1.40608 38.4544 0.990194 40.4348 0.594116C42.4152 0.198039 44.2768 0 46.0195 0C50.4556 0 54.0797 0.415882 56.8919 1.24765C56.8523 2.0398 56.7136 3.12902 56.476 4.51529C56.278 5.90156 56.0601 7.16901 55.8225 8.31764L54.456 8.25823C49.307 7.90176 46.0195 7.72352 44.5937 7.72352C43.9995 7.72352 43.6629 7.74332 43.5837 7.78293C43.4252 7.86215 43.2866 8.04038 43.1678 8.31764C43.049 8.59489 42.9895 8.91175 42.9895 9.26822Z" fill="#00695D"/>
<path d="M20.2594 33.9839H9.56528V7.54573H0V0.119263H29.8247V7.54573H20.2594V33.9839Z" fill="#00695D"/>
</svg>
