<svg width="80" height="80" viewBox="0 0 80 80" fill="none" xmlns="http://www.w3.org/2000/svg">
<rect width="24.827" height="4.25606" transform="matrix(1 1.74846e-07 1.74846e-07 -1 27.8417 63.5317)" fill="white"/>
<rect width="13.4775" height="4.25606" transform="matrix(1 1.74846e-07 1.74846e-07 -1 46.9935 59.2773)" fill="white"/>
<rect width="13.4775" height="4.25606" transform="matrix(1 1.74846e-07 1.74846e-07 -1 54.0864 55.0234)" fill="white"/>
<rect width="35.4671" height="4.9654" transform="matrix(1.31134e-07 -1 -1 -1.31134e-07 67.5647 50.7612)" fill="white"/>
<rect width="35.4671" height="4.9654" transform="matrix(1.31134e-07 -1 -1 -1.31134e-07 17.9099 50.7612)" fill="white"/>
<rect width="16.3149" height="4.25605" transform="matrix(1.34716e-07 -1 -1 -1.27233e-07 25.7105 40.126)" fill="white"/>
<rect width="16.3149" height="4.25605" transform="matrix(1.34716e-07 -1 -1 -1.27233e-07 31.3882 40.126)" fill="white"/>
<rect width="16.3149" height="4.25605" transform="matrix(1.34716e-07 -1 -1 -1.27233e-07 37.0618 40.126)" fill="white"/>
<rect width="16.3149" height="4.25605" transform="matrix(1.34716e-07 -1 -1 -1.27233e-07 42.0276 40.126)" fill="white"/>
<rect width="16.3149" height="4.25605" transform="matrix(1.34716e-07 -1 -1 -1.27233e-07 47.7011 40.126)" fill="white"/>
<rect width="16.3149" height="4.25605" transform="matrix(1.34716e-07 -1 -1 -1.27233e-07 53.3746 40.126)" fill="white"/>
<rect width="16.3149" height="4.25605" transform="matrix(1.34716e-07 -1 -1 -1.27233e-07 59.0524 40.126)" fill="white"/>
<rect width="13.4775" height="4.25606" transform="matrix(1 1.74846e-07 1.74846e-07 -1 20.7488 59.2773)" fill="white"/>
<rect width="14.1869" height="4.25606" transform="matrix(1 1.74846e-07 1.74846e-07 -1 12.9441 55.0234)" fill="white"/>
<rect width="44.6886" height="4.25606" transform="matrix(1 1.74846e-07 1.74846e-07 -1 17.9099 19.5508)" fill="white"/>
<rect x="2.5" y="2.5" width="75" height="75" rx="7.5" stroke="white" stroke-width="5"/>
</svg>
