<svg width="121" height="120" viewBox="0 0 121 120" fill="none" xmlns="http://www.w3.org/2000/svg">
<circle cx="60.8359" cy="60" r="17.5" fill="white"/>
<path d="M60.7362 95.4595C62.4195 95.4595 64.0338 94.7908 65.224 93.6006C66.4143 92.4103 67.0829 90.796 67.0829 89.1128C67.0829 87.4295 66.4143 85.8152 65.224 84.6249C64.0338 83.4347 62.4195 82.766 60.7362 82.766C59.0529 82.766 57.4386 83.4347 56.2484 84.6249C55.0581 85.8152 54.3895 87.4295 54.3895 89.1128C54.3895 90.796 55.0581 92.4103 56.2484 93.6006C57.4386 94.7908 59.0529 95.4595 60.7362 95.4595ZM75.4869 78.165C74.3132 78.1235 73.1909 77.6736 72.3135 76.893C69.1344 74.0328 65.0093 72.4502 60.733 72.4502C56.4566 72.4502 52.3315 74.0328 49.1524 76.893C48.2238 77.7262 47.0043 78.1601 45.758 78.1006C44.5118 78.041 43.3392 77.493 42.4942 76.575C41.661 75.6464 41.2271 74.4269 41.2867 73.1807C41.3462 71.9344 41.8943 70.7618 42.8122 69.9168C47.7062 65.4547 54.0822 62.9677 60.705 62.9378C67.3278 62.9078 73.726 65.3369 78.6602 69.7546C79.5801 70.5998 80.1294 71.7738 80.189 73.0216C80.2485 74.2694 79.8134 75.4903 78.9782 76.4193C78.5565 76.9448 78.0262 77.3729 77.4236 77.6742C76.8209 77.9755 76.1603 78.1429 75.4869 78.165Z" fill="black"/>
<path d="M88.806 64.8447C87.5829 64.8071 86.408 64.3591 85.4704 63.5727C78.774 57.2651 69.9252 53.747 60.7259 53.7346C51.5209 53.7173 42.6616 57.2396 35.9814 63.5727C34.0735 65.3184 31.0624 65.3184 29.3167 63.417C27.4153 61.3533 27.4153 58.3357 29.3167 56.59C37.8052 48.5805 49.0553 44.1525 60.7259 44.2275C72.3834 44.2286 83.6071 48.6486 92.1351 56.5965C92.5967 57.0156 92.9683 57.5241 93.2274 58.0912C93.4864 58.6583 93.6275 59.2722 93.6421 59.8955C93.6566 60.5188 93.5444 61.1385 93.3121 61.7171C93.0798 62.2957 92.7324 62.821 92.2909 63.2612C91.3803 64.2244 90.1302 64.7947 88.806 64.8512V64.8447Z" fill="black"/>
<path d="M103.56 50.0894C102.338 50.0537 101.163 49.608 100.225 48.824C89.6503 38.5404 75.4801 32.7895 60.7297 32.7949C46.011 32.8019 31.862 38.4852 21.2281 48.6617C20.7825 49.1136 20.2516 49.4724 19.6661 49.7173C19.0807 49.9622 18.4524 50.0884 17.8178 50.0884C17.1832 50.0884 16.555 49.9622 15.9695 49.7173C15.3841 49.4724 14.8532 49.1136 14.4076 48.6617C12.6619 46.7603 12.6619 43.7492 14.5633 42.0035C27.0946 29.946 43.4417 23.2812 60.7297 23.2812C78.0178 23.2812 94.3584 29.946 106.89 41.8412C108.791 43.5934 108.791 46.6045 107.045 48.506C106.617 49.01 106.082 49.4133 105.48 49.687C104.877 49.9607 104.222 50.0981 103.56 50.0894Z" fill="black"/>
</svg>
