<svg width="85" height="85" viewBox="0 0 85 85" fill="none" xmlns="http://www.w3.org/2000/svg">
<path d="M51.2801 68.7618V80.5L68.3901 66.1754H54.0654C52.6728 66.1754 51.2801 67.3691 51.2801 68.7618ZM65.6047 11.0654H12.0864C10.6937 11.0654 9.5 12.6571 9.5 14.0497V78.1126C9.5 79.5052 10.4948 80.5 11.8874 80.5H48.6937V66.1754C48.6937 64.7827 50.0864 63.39 51.2801 63.39H68.3901V13.6518C68.3901 12.4581 66.9974 10.8665 65.6047 11.0654ZM21.8351 59.6099C20.0445 59.6099 18.6518 58.2173 18.6518 56.4267C18.6518 54.6361 20.0445 53.2435 21.8351 53.2435C23.6257 53.2435 25.0183 54.6361 25.0183 56.4267C25.0183 58.0183 23.6257 59.6099 21.8351 59.6099ZM21.8351 45.0864C20.0445 45.0864 18.6518 43.6937 18.6518 41.9031C18.6518 40.1126 20.0445 38.7199 21.8351 38.7199C23.6257 38.7199 25.0183 40.1126 25.0183 41.9031C25.0183 43.6937 23.6257 45.0864 21.8351 45.0864ZM21.8351 30.7618C20.0445 30.7618 18.6518 29.3691 18.6518 27.5785C18.6518 25.788 20.0445 24.3953 21.8351 24.3953C23.6257 24.3953 25.0183 25.788 25.0183 27.5785C25.0183 29.1702 23.6257 30.7618 21.8351 30.7618ZM56.4529 56.8246C56.4529 57.6204 55.856 58.2173 55.0602 58.2173H31.5838C30.788 58.2173 30.1911 57.6204 30.1911 56.8246V55.4319C30.1911 54.6361 30.788 54.0393 31.5838 54.0393H55.0602C55.856 54.0393 56.4529 54.6361 56.4529 55.4319V56.8246ZM56.4529 42.5C56.4529 43.2958 55.856 43.8927 55.0602 43.8927H31.5838C30.788 43.8927 30.1911 43.2958 30.1911 42.5V41.1073C30.1911 40.3115 30.788 39.7147 31.5838 39.7147H55.0602C55.856 39.7147 56.4529 40.3115 56.4529 41.1073V42.5ZM56.4529 28.1754C56.4529 28.9712 55.856 29.5681 55.0602 29.5681H31.5838C30.788 29.5681 30.1911 28.9712 30.1911 28.1754V26.7827C30.1911 25.9869 30.788 25.3901 31.5838 25.3901H55.0602C55.856 25.3901 56.4529 25.9869 56.4529 26.7827V28.1754ZM72.5681 4.5H18.055C16.0654 4.5 14.6728 6.48953 14.6728 8.47906H68.3901C69.7827 8.47906 70.9764 9.87173 70.9764 11.0654V59.6099C72.966 59.6099 74.9555 58.4162 74.9555 56.4267V6.88743C74.7565 5.49476 73.7618 4.5 72.5681 4.5Z" fill="#74BC1F"/>
</svg>
