<svg width="66" height="77" viewBox="0 0 66 77" fill="none" xmlns="http://www.w3.org/2000/svg">
<path d="M42.2801 64.7618V76.5L59.3901 62.1754H45.0654C43.6728 62.1754 42.2801 63.3691 42.2801 64.7618ZM56.6047 7.06544H3.08639C1.69372 7.06544 0.5 8.65707 0.5 10.0497V74.1126C0.5 75.5052 1.49476 76.5 2.88743 76.5H39.6937V62.1754C39.6937 60.7827 41.0864 59.39 42.2801 59.39H59.3901V9.65183C59.3901 8.45811 57.9974 6.86649 56.6047 7.06544ZM12.8351 55.6099C11.0445 55.6099 9.65183 54.2173 9.65183 52.4267C9.65183 50.6361 11.0445 49.2435 12.8351 49.2435C14.6257 49.2435 16.0183 50.6361 16.0183 52.4267C16.0183 54.0183 14.6257 55.6099 12.8351 55.6099ZM12.8351 41.0864C11.0445 41.0864 9.65183 39.6937 9.65183 37.9031C9.65183 36.1126 11.0445 34.7199 12.8351 34.7199C14.6257 34.7199 16.0183 36.1126 16.0183 37.9031C16.0183 39.6937 14.6257 41.0864 12.8351 41.0864ZM12.8351 26.7618C11.0445 26.7618 9.65183 25.3691 9.65183 23.5785C9.65183 21.788 11.0445 20.3953 12.8351 20.3953C14.6257 20.3953 16.0183 21.788 16.0183 23.5785C16.0183 25.1702 14.6257 26.7618 12.8351 26.7618ZM47.4529 52.8246C47.4529 53.6204 46.856 54.2173 46.0602 54.2173H22.5838C21.788 54.2173 21.1911 53.6204 21.1911 52.8246V51.4319C21.1911 50.6361 21.788 50.0393 22.5838 50.0393H46.0602C46.856 50.0393 47.4529 50.6361 47.4529 51.4319V52.8246ZM47.4529 38.5C47.4529 39.2958 46.856 39.8927 46.0602 39.8927H22.5838C21.788 39.8927 21.1911 39.2958 21.1911 38.5V37.1073C21.1911 36.3115 21.788 35.7147 22.5838 35.7147H46.0602C46.856 35.7147 47.4529 36.3115 47.4529 37.1073V38.5ZM47.4529 24.1754C47.4529 24.9712 46.856 25.5681 46.0602 25.5681H22.5838C21.788 25.5681 21.1911 24.9712 21.1911 24.1754V22.7827C21.1911 21.9869 21.788 21.3901 22.5838 21.3901H46.0602C46.856 21.3901 47.4529 21.9869 47.4529 22.7827V24.1754ZM63.5681 0.5H9.05497C7.06545 0.5 5.67277 2.48953 5.67277 4.47906H59.3901C60.7827 4.47906 61.9764 5.87173 61.9764 7.06544V55.6099C63.966 55.6099 65.9555 54.4162 65.9555 52.4267V2.88743C65.7565 1.49476 64.7618 0.5 63.5681 0.5Z" fill="white"/>
</svg>
