<svg width="121" height="120" viewBox="0 0 121 120" fill="none" xmlns="http://www.w3.org/2000/svg">
<rect width="120" height="120" transform="translate(0.164062)" fill="white"/>
<circle cx="60.1641" cy="60" r="17.5" fill="white"/>
<path d="M84.0456 23.685C86.9246 23.685 89.6857 24.8287 91.7215 26.8645C93.7572 28.9002 94.9009 31.6613 94.9009 34.5403V86.6456C94.9009 89.5246 93.7572 92.2856 91.7215 94.3214C89.6857 96.3571 86.9246 97.5008 84.0456 97.5008H36.2825C33.4035 97.5008 30.6424 96.3571 28.6067 94.3214C26.5709 92.2856 25.4272 89.5246 25.4272 86.6456V34.5403C25.4272 31.6613 26.5709 28.9002 28.6067 26.8645C30.6424 24.8287 33.4035 23.685 36.2825 23.685H84.0456ZM84.0456 17.1719H36.2825C31.6761 17.1719 27.2584 19.0018 24.0012 22.259C20.7439 25.5162 18.9141 29.9339 18.9141 34.5403V86.6456C18.9141 91.252 20.7439 95.6697 24.0012 98.9269C27.2584 102.184 31.6761 104.014 36.2825 104.014H84.0456C88.652 104.014 93.0698 102.184 96.327 98.9269C99.5842 95.6697 101.414 91.252 101.414 86.6456V34.5403C101.414 29.9339 99.5842 25.5162 96.327 22.259C93.0698 19.0018 88.652 17.1719 84.0456 17.1719Z" fill="black"/>
<path d="M61.7866 40.4577L72.0557 47.5679L61.7866 54.6781V40.4577ZM61.7866 33.9446C60.0592 33.9446 58.4026 34.6308 57.1811 35.8523C55.9596 37.0737 55.2734 38.7304 55.2734 40.4577V67.1074L75.7627 52.925C76.6293 52.3258 77.3375 51.5254 77.8267 50.5923C78.3159 49.6593 78.5715 48.6215 78.5715 47.5679C78.5715 46.5144 78.3159 45.4766 77.8267 44.5436C77.3375 43.6105 76.6293 42.8101 75.7627 42.2109L65.4937 35.0844C64.4066 34.3269 63.1115 33.9249 61.7866 33.9337V33.9446Z" fill="black"/>
<path d="M61.7866 66.5113L72.0557 73.6215L61.7866 80.7317V66.5113ZM55.2734 54.082V80.7317C55.2734 82.4591 55.9596 84.1157 57.1811 85.3372C58.4026 86.5587 60.0592 87.2449 61.7866 87.2449C63.1065 87.2428 64.3935 86.8334 65.472 86.0725L75.741 78.9677C76.6076 78.3685 77.3158 77.5681 77.805 76.635C78.2942 75.702 78.5497 74.6642 78.5497 73.6106C78.5497 72.5571 78.2942 71.5193 77.805 70.5863C77.3158 69.6532 76.6076 68.8528 75.741 68.2536L55.2734 54.082Z" fill="black"/>
<path d="M44.7964 47.4414C44.1027 47.4396 43.4265 47.6593 42.8664 48.0686C42.3063 48.4779 41.8915 49.0554 41.6825 49.7169C41.4736 50.3784 41.4813 51.0894 41.7046 51.7462C41.9278 52.403 42.355 52.9713 42.9239 53.3684L55.2772 61.9983C55.6271 62.2517 56.024 62.4329 56.4447 62.5313C56.8653 62.6298 57.3014 62.6436 57.7274 62.5719C58.1535 62.5001 58.561 62.3444 58.9262 62.1136C59.2915 61.8829 59.6072 61.5818 59.8549 61.2278C60.1026 60.8738 60.2775 60.4741 60.3692 60.052C60.4609 59.6298 60.4678 59.1936 60.3893 58.7687C60.3107 58.3439 60.1485 57.9389 59.9119 57.5774C59.6754 57.2158 59.3693 56.905 59.0114 56.663L46.6635 48.033C46.1176 47.647 45.4651 47.4402 44.7964 47.4414Z" fill="black"/>
<path d="M57.243 58.5352C56.5752 58.5345 55.9234 58.7391 55.3759 59.1213L42.9249 67.8435C42.2187 68.3392 41.738 69.0948 41.5884 69.9445C41.4388 70.7942 41.6325 71.6686 42.127 72.3756C42.3721 72.7265 42.6838 73.0256 43.0446 73.2559C43.4053 73.4862 43.8079 73.6431 44.2293 73.7177C44.6507 73.7924 45.0827 73.7832 45.5005 73.6907C45.9184 73.5982 46.3139 73.4243 46.6645 73.1789L59.1101 64.4567C59.6762 64.0591 60.101 63.4916 60.3229 62.8363C60.5448 62.1811 60.5523 61.4722 60.3442 60.8124C60.1362 60.1527 59.7235 59.5763 59.1659 59.1668C58.6083 58.7574 57.9348 58.5361 57.243 58.5352Z" fill="black"/>
</svg>
