<svg width="145" height="144" viewBox="0 0 145 144" fill="none" xmlns="http://www.w3.org/2000/svg">
<path d="M41.1439 33.5331V36.3055L27.7638 72.3462H22.7963L36.1764 37.5851H18.8438V33.5331H41.1439Z" fill="white"/>
<path d="M51.3459 33.5331L58.7169 48.4079L66.0346 33.5331H71.7498L61.628 52.753L71.9635 72.3462H66.1948L58.7169 57.1782L51.2123 72.3462H45.417L55.7792 52.753L45.6306 33.5331H51.3459Z" fill="white"/>
<path d="M98.6168 68.2942V72.3462H76.8775V68.8007L87.5869 54.6457C88.9044 52.9041 89.9104 51.4291 90.6048 50.2206C91.2991 48.9944 91.7799 47.9014 92.0469 46.9418C92.314 45.9643 92.4475 44.9691 92.4475 43.9561C92.4475 42.6766 92.2428 41.5214 91.8333 40.4907C91.4238 39.4422 90.8273 38.6069 90.0439 37.9849C89.2605 37.3629 88.3169 37.0519 87.213 37.0519C85.7709 37.0519 84.5869 37.3896 83.661 38.0649C82.753 38.7224 82.0853 39.6466 81.658 40.8372C81.2307 42.0279 81.017 43.3963 81.017 44.9425H76.29C76.29 42.7566 76.6906 40.7573 77.4918 38.9446C78.3108 37.1319 79.5304 35.6924 81.1506 34.6261C82.7708 33.542 84.7916 33 87.213 33C89.2961 33 91.0766 33.4354 92.5544 34.3062C94.0499 35.1592 95.1894 36.3677 95.9728 37.9316C96.774 39.4777 97.1746 41.2904 97.1746 43.3697C97.1746 44.5071 97.0144 45.6622 96.6939 46.8351C96.3912 47.9903 95.9639 49.1454 95.412 50.3006C94.8779 51.4557 94.2458 52.5931 93.5158 53.7127C92.7858 54.8323 92.0024 55.9342 91.1656 57.0182L82.5393 68.2942H98.6168Z" fill="white"/>
<path d="M126.151 59.2841V63.336H102.382V60.4303L116.831 33.5331H120.623L116.831 41.3171L107.644 59.2841H126.151ZM121.825 33.5331V72.3462H117.098V33.5331H121.825Z" fill="white"/>
<path d="M50.7676 88V103H48.9609V88H50.7676ZM50.3379 97.3164L49.5859 97.2871C49.5924 96.5645 49.6999 95.8971 49.9082 95.2852C50.1165 94.6667 50.4095 94.1296 50.7871 93.6738C51.1647 93.2181 51.6139 92.8665 52.1348 92.6191C52.6621 92.3652 53.2448 92.2383 53.8828 92.2383C54.4036 92.2383 54.8724 92.3099 55.2891 92.4531C55.7057 92.5898 56.0605 92.8112 56.3535 93.1172C56.653 93.4232 56.8809 93.8203 57.0371 94.3086C57.1934 94.7904 57.2715 95.3796 57.2715 96.0762V103H55.4551V96.0566C55.4551 95.5033 55.3737 95.0605 55.2109 94.7285C55.0482 94.39 54.8105 94.1458 54.498 93.9961C54.1855 93.8398 53.8014 93.7617 53.3457 93.7617C52.8965 93.7617 52.4863 93.8561 52.1152 94.0449C51.7507 94.2337 51.4349 94.4941 51.168 94.8262C50.9076 95.1582 50.7025 95.5391 50.5527 95.9688C50.4095 96.3919 50.3379 96.8411 50.3379 97.3164Z" fill="white"/>
<path d="M59.498 97.834V97.6094C59.498 96.8477 59.6087 96.1413 59.8301 95.4902C60.0514 94.8327 60.3704 94.263 60.7871 93.7812C61.2038 93.293 61.7083 92.9154 62.3008 92.6484C62.8932 92.375 63.5573 92.2383 64.293 92.2383C65.0352 92.2383 65.7025 92.375 66.2949 92.6484C66.8939 92.9154 67.4017 93.293 67.8184 93.7812C68.2415 94.263 68.5638 94.8327 68.7852 95.4902C69.0065 96.1413 69.1172 96.8477 69.1172 97.6094V97.834C69.1172 98.5957 69.0065 99.3021 68.7852 99.9531C68.5638 100.604 68.2415 101.174 67.8184 101.662C67.4017 102.144 66.8971 102.521 66.3047 102.795C65.7188 103.062 65.0547 103.195 64.3125 103.195C63.5703 103.195 62.903 103.062 62.3105 102.795C61.7181 102.521 61.2103 102.144 60.7871 101.662C60.3704 101.174 60.0514 100.604 59.8301 99.9531C59.6087 99.3021 59.498 98.5957 59.498 97.834ZM61.3047 97.6094V97.834C61.3047 98.3613 61.3665 98.8594 61.4902 99.3281C61.6139 99.7904 61.7995 100.201 62.0469 100.559C62.3008 100.917 62.6165 101.2 62.9941 101.408C63.3717 101.61 63.8112 101.711 64.3125 101.711C64.8073 101.711 65.2402 101.61 65.6113 101.408C65.9889 101.2 66.3014 100.917 66.5488 100.559C66.7962 100.201 66.9818 99.7904 67.1055 99.3281C67.2357 98.8594 67.3008 98.3613 67.3008 97.834V97.6094C67.3008 97.0885 67.2357 96.597 67.1055 96.1348C66.9818 95.666 66.793 95.2526 66.5391 94.8945C66.2917 94.5299 65.9792 94.2435 65.6016 94.0352C65.2305 93.8268 64.7943 93.7227 64.293 93.7227C63.7982 93.7227 63.362 93.8268 62.9844 94.0352C62.6133 94.2435 62.3008 94.5299 62.0469 94.8945C61.7995 95.2526 61.6139 95.666 61.4902 96.1348C61.3665 96.597 61.3047 97.0885 61.3047 97.6094Z" fill="white"/>
<path d="M77.8477 100.559V92.4336H79.6641V103H77.9355L77.8477 100.559ZM78.1895 98.332L78.9414 98.3125C78.9414 99.0156 78.8665 99.6667 78.7168 100.266C78.5736 100.858 78.3392 101.372 78.0137 101.809C77.6882 102.245 77.2617 102.587 76.7344 102.834C76.207 103.075 75.5658 103.195 74.8105 103.195C74.2962 103.195 73.8242 103.12 73.3945 102.971C72.9714 102.821 72.6068 102.59 72.3008 102.277C71.9948 101.965 71.7572 101.558 71.5879 101.057C71.4251 100.555 71.3438 99.9531 71.3438 99.25V92.4336H73.1504V99.2695C73.1504 99.7448 73.2025 100.139 73.3066 100.451C73.4173 100.757 73.5638 101.001 73.7461 101.184C73.9349 101.359 74.1432 101.483 74.3711 101.555C74.6055 101.626 74.8464 101.662 75.0938 101.662C75.862 101.662 76.4707 101.516 76.9199 101.223C77.3691 100.923 77.6914 100.523 77.8867 100.021C78.0885 99.5137 78.1895 98.9505 78.1895 98.332Z" fill="white"/>
<path d="M84.2246 94.0938V103H82.418V92.4336H84.1758L84.2246 94.0938ZM87.5254 92.375L87.5156 94.0547C87.3659 94.0221 87.2227 94.0026 87.0859 93.9961C86.9557 93.9831 86.806 93.9766 86.6367 93.9766C86.2201 93.9766 85.8522 94.0417 85.5332 94.1719C85.2142 94.3021 84.944 94.4844 84.7227 94.7188C84.5013 94.9531 84.3255 95.2331 84.1953 95.5586C84.0716 95.8776 83.9902 96.2292 83.9512 96.6133L83.4434 96.9062C83.4434 96.2682 83.5052 95.6693 83.6289 95.1094C83.7591 94.5495 83.9577 94.0547 84.2246 93.625C84.4915 93.1888 84.8301 92.8503 85.2402 92.6094C85.6569 92.362 86.1517 92.2383 86.7246 92.2383C86.8548 92.2383 87.0046 92.2546 87.1738 92.2871C87.3431 92.3132 87.4603 92.3424 87.5254 92.375Z" fill="white"/>
<path d="M95.3477 100.197C95.3477 99.9368 95.2891 99.696 95.1719 99.4746C95.0612 99.2467 94.8301 99.0417 94.4785 98.8594C94.1335 98.6706 93.6126 98.5078 92.916 98.3711C92.3301 98.2474 91.7995 98.1009 91.3242 97.9316C90.8555 97.7624 90.4551 97.5573 90.123 97.3164C89.7975 97.0755 89.5469 96.7923 89.3711 96.4668C89.1953 96.1413 89.1074 95.7604 89.1074 95.3242C89.1074 94.9076 89.1986 94.5137 89.3809 94.1426C89.5697 93.7715 89.8333 93.4427 90.1719 93.1562C90.5169 92.8698 90.9303 92.6452 91.4121 92.4824C91.8939 92.3197 92.431 92.2383 93.0234 92.2383C93.8698 92.2383 94.5924 92.388 95.1914 92.6875C95.7904 92.987 96.2493 93.3874 96.5684 93.8887C96.8874 94.3835 97.0469 94.9336 97.0469 95.5391H95.2402C95.2402 95.2461 95.1523 94.9629 94.9766 94.6895C94.8073 94.4095 94.5566 94.1784 94.2246 93.9961C93.8991 93.8138 93.4987 93.7227 93.0234 93.7227C92.5221 93.7227 92.1152 93.8008 91.8027 93.957C91.4967 94.1068 91.2721 94.2988 91.1289 94.5332C90.9922 94.7676 90.9238 95.015 90.9238 95.2754C90.9238 95.4707 90.9564 95.6465 91.0215 95.8027C91.0931 95.9525 91.2168 96.0924 91.3926 96.2227C91.5684 96.3464 91.8158 96.4635 92.1348 96.5742C92.4538 96.6849 92.8607 96.7956 93.3555 96.9062C94.2214 97.1016 94.9342 97.3359 95.4941 97.6094C96.054 97.8828 96.4707 98.2181 96.7441 98.6152C97.0176 99.0124 97.1543 99.4941 97.1543 100.061C97.1543 100.523 97.0566 100.946 96.8613 101.33C96.6725 101.714 96.3958 102.046 96.0312 102.326C95.6732 102.6 95.2435 102.814 94.7422 102.971C94.2474 103.12 93.6908 103.195 93.0723 103.195C92.1413 103.195 91.3535 103.029 90.709 102.697C90.0645 102.365 89.5762 101.936 89.2441 101.408C88.9121 100.881 88.7461 100.324 88.7461 99.7383H90.5625C90.5885 100.233 90.7318 100.627 90.9922 100.92C91.2526 101.206 91.5716 101.411 91.9492 101.535C92.3268 101.652 92.7012 101.711 93.0723 101.711C93.5671 101.711 93.9805 101.646 94.3125 101.516C94.651 101.385 94.9082 101.206 95.084 100.979C95.2598 100.751 95.3477 100.49 95.3477 100.197Z" fill="white"/>
</svg>
