<svg width="121" height="120" viewBox="0 0 121 120" fill="none" xmlns="http://www.w3.org/2000/svg">
<rect width="120" height="120" transform="translate(0.167969)" fill="white"/>
<path d="M5.625 54.892V53.1875H21.8182L114.716 62.5625L113.864 64.267L32.0455 97.5057L5.625 54.892Z" fill="#343434"/>
<path d="M5.625 53.1818L85.625 22.5L114.716 62.7167L32.4648 95.7955L5.625 53.1818Z" fill="black"/>
<path d="M41.9629 71.019C41.3475 71.3 40.7494 71.4626 40.1685 71.507C39.5906 71.5443 39.0514 71.4762 38.5507 71.3027C38.0552 71.1268 37.6123 70.8561 37.2223 70.4904C36.8322 70.1248 36.5184 69.6819 36.2808 69.1616L36.1524 68.8804C35.8805 68.2852 35.7293 67.7029 35.6985 67.1335C35.6678 66.5641 35.7436 66.031 35.9258 65.5343C36.1058 65.0329 36.3849 64.5855 36.7629 64.1919C37.1409 63.7984 37.5992 63.4787 38.1376 63.2328C38.7325 62.9611 39.2947 62.8148 39.8243 62.7939C40.3539 62.7729 40.8408 62.8621 41.2851 63.0614C41.7323 63.2537 42.1315 63.5443 42.4827 63.9334C42.8391 64.3201 43.1424 64.7877 43.3929 65.336L43.7235 66.0601L37.2931 68.9967L36.7377 67.7805L41.3374 65.6799L41.2764 65.5463C41.1271 65.2464 40.9298 64.9909 40.6848 64.78C40.4448 64.5667 40.1643 64.4342 39.8433 64.3826C39.5222 64.3309 39.1566 64.3988 38.7463 64.5861C38.4387 64.7266 38.1921 64.9128 38.0068 65.1448C37.8244 65.3696 37.7051 65.6309 37.6489 65.9284C37.5926 66.226 37.5937 66.554 37.6521 66.9126C37.7134 67.2641 37.834 67.6367 38.0138 68.0304L38.1422 68.3116C38.2942 68.6443 38.4842 68.9314 38.7122 69.1728C38.9431 69.4072 39.2042 69.5854 39.4954 69.7073C39.7866 69.8292 40.0984 69.8879 40.431 69.8833C40.7614 69.874 41.1035 69.7886 41.4574 69.627C41.9035 69.4232 42.2635 69.1597 42.5372 68.8365C42.811 68.5132 43.0076 68.143 43.127 67.726L44.4988 68.1446C44.4285 68.4656 44.3 68.8018 44.1135 69.1532C43.9248 69.5 43.6538 69.8361 43.3005 70.1617C42.9523 70.485 42.5064 70.7707 41.9629 71.019Z" fill="white"/>
<path d="M42.97 58.0182L44.693 57.2314L51.5367 63.6477L51.1619 54.2773L52.8849 53.4904L53.2827 65.6797L51.9135 66.3049L42.97 58.0182ZM42.1854 58.3765L43.8238 57.6283L47.229 64.3319L48.7829 67.7345L46.86 68.6127L42.1854 58.3765ZM52.0311 53.8803L53.6771 53.1286L58.3517 63.3648L56.421 64.2465L54.8671 60.8438L52.0311 53.8803Z" fill="white"/>
<path d="M56.7539 51.7236L58.4769 50.9368L65.3206 57.353L64.9458 47.9826L66.6688 47.1958L67.0666 59.385L65.6974 60.0103L56.7539 51.7236ZM55.9693 52.0819L57.6077 51.3337L61.0129 58.0372L62.5668 61.4399L60.6438 62.3181L55.9693 52.0819ZM65.815 47.5857L67.461 46.834L72.1355 57.0702L70.2049 57.9519L68.651 54.5492L65.815 47.5857Z" fill="white"/>
<path d="M79.521 49.6702L81.444 48.792C81.6885 49.4903 81.7563 50.1816 81.6473 50.8658C81.5362 51.5453 81.2337 52.179 80.74 52.767C80.2462 53.355 79.5481 53.8551 78.6456 54.2672C77.9533 54.5833 77.2789 54.7554 76.6223 54.7833C75.9636 54.8066 75.3416 54.6998 74.7563 54.463C74.1688 54.2215 73.634 53.8511 73.152 53.3519C72.675 52.8503 72.2685 52.2316 71.9325 51.4958L71.544 50.6451C71.208 49.9093 71.0092 49.1957 70.9476 48.5045C70.8911 47.8109 70.9666 47.1618 71.1739 46.5574C71.3791 45.9482 71.7099 45.4035 72.1661 44.9233C72.6274 44.4407 73.2093 44.039 73.9119 43.7182C74.8041 43.3107 75.6264 43.1165 76.3788 43.1354C77.1311 43.1544 77.7974 43.3514 78.3777 43.7265C78.9631 44.0992 79.4506 44.6101 79.84 45.2593L77.917 46.1374C77.6645 45.7203 77.3794 45.3945 77.0617 45.1601C76.749 44.9234 76.3886 44.7991 75.9804 44.7872C75.57 44.7707 75.0956 44.8854 74.5572 45.1313C74.1162 45.3327 73.7658 45.5833 73.5061 45.8832C73.2464 46.183 73.0727 46.5286 72.9849 46.9199C72.8971 47.3112 72.8942 47.7458 72.9761 48.2238C73.0611 48.6948 73.2277 49.2022 73.476 49.7459L73.8708 50.6106C74.1063 51.1261 74.369 51.5726 74.6591 51.9499C74.9521 52.3202 75.2697 52.6085 75.6118 52.8148C75.959 53.0187 76.3317 53.129 76.7296 53.1455C77.1276 53.162 77.5522 53.0672 78.0035 52.8611C78.5522 52.6106 78.9593 52.3283 79.225 52.0144C79.4958 51.6982 79.6488 51.3479 79.6841 50.9636C79.7223 50.5723 79.6679 50.1412 79.521 49.6702Z" fill="white"/>
</svg>
