<svg width="142" height="141" viewBox="0 0 142 141" fill="none" xmlns="http://www.w3.org/2000/svg">
<rect x="1.8517" y="1.17201" width="138.297" height="138.297" rx="16.4082" stroke="#A3A3A3" stroke-width="2.34402"/>
<rect width="42.636" height="7.30903" transform="matrix(1 1.74846e-07 1.74846e-07 -1 49.7109 105.84)" fill="white"/>
<rect width="23.1453" height="7.30903" transform="matrix(1 1.74846e-07 1.74846e-07 -1 82.6016 98.5312)" fill="white"/>
<rect width="23.1453" height="7.30903" transform="matrix(1 1.74846e-07 1.74846e-07 -1 94.7812 91.2305)" fill="white"/>
<rect width="60.9086" height="8.5272" transform="matrix(1.31134e-07 -1 -1 -1.31134e-07 117.93 83.9102)" fill="white"/>
<rect width="60.9086" height="8.5272" transform="matrix(1.31134e-07 -1 -1 -1.31134e-07 32.6523 83.9102)" fill="white"/>
<rect width="28.018" height="7.30903" transform="matrix(1.34716e-07 -1 -1 -1.27233e-07 46.0508 65.6445)" fill="white"/>
<rect width="28.018" height="7.30903" transform="matrix(1.34716e-07 -1 -1 -1.27233e-07 55.8008 65.6445)" fill="white"/>
<rect width="28.018" height="7.30903" transform="matrix(1.34716e-07 -1 -1 -1.27233e-07 65.543 65.6445)" fill="white"/>
<rect width="28.018" height="7.30903" transform="matrix(1.34716e-07 -1 -1 -1.27233e-07 74.0742 65.6445)" fill="white"/>
<rect width="28.018" height="7.30903" transform="matrix(1.34716e-07 -1 -1 -1.27233e-07 83.8125 65.6445)" fill="white"/>
<rect width="28.018" height="7.30903" transform="matrix(1.34716e-07 -1 -1 -1.27233e-07 93.5586 65.6445)" fill="white"/>
<rect width="28.018" height="7.30903" transform="matrix(1.34716e-07 -1 -1 -1.27233e-07 103.305 65.6445)" fill="white"/>
<rect width="23.1453" height="7.30903" transform="matrix(1 1.74846e-07 1.74846e-07 -1 37.5273 98.5312)" fill="white"/>
<rect width="24.3634" height="7.30903" transform="matrix(1 1.74846e-07 1.74846e-07 -1 24.125 91.2305)" fill="white"/>
<rect width="76.7449" height="7.30903" transform="matrix(1 1.74846e-07 1.74846e-07 -1 32.6523 30.3086)" fill="white"/>
<path d="M33.7236 130.887V132H26.7437V131.026L30.2373 127.137C30.667 126.658 30.999 126.253 31.2334 125.921C31.4727 125.584 31.6387 125.284 31.7314 125.02C31.8291 124.751 31.8779 124.478 31.8779 124.2C31.8779 123.848 31.8047 123.531 31.6582 123.248C31.5166 122.959 31.3066 122.73 31.0283 122.559C30.75 122.388 30.4131 122.303 30.0176 122.303C29.5439 122.303 29.1484 122.396 28.8311 122.581C28.5186 122.762 28.2842 123.016 28.1279 123.343C27.9717 123.67 27.8936 124.046 27.8936 124.471H26.5386C26.5386 123.87 26.6704 123.321 26.9341 122.823C27.1978 122.325 27.5884 121.929 28.106 121.636C28.6235 121.338 29.2607 121.189 30.0176 121.189C30.6914 121.189 31.2676 121.309 31.7461 121.548C32.2246 121.783 32.5908 122.115 32.8447 122.544C33.1035 122.969 33.2329 123.467 33.2329 124.039C33.2329 124.351 33.1792 124.668 33.0718 124.991C32.9692 125.308 32.8252 125.625 32.6396 125.943C32.459 126.26 32.2466 126.573 32.0024 126.88C31.7632 127.188 31.5068 127.491 31.2334 127.789L28.377 130.887H33.7236ZM35.3423 131.282C35.3423 131.053 35.4131 130.86 35.5547 130.704C35.7012 130.542 35.9111 130.462 36.1846 130.462C36.458 130.462 36.6655 130.542 36.8071 130.704C36.9536 130.86 37.0269 131.053 37.0269 131.282C37.0269 131.507 36.9536 131.697 36.8071 131.854C36.6655 132.01 36.458 132.088 36.1846 132.088C35.9111 132.088 35.7012 132.01 35.5547 131.854C35.4131 131.697 35.3423 131.507 35.3423 131.282ZM40.8428 126.924L39.7588 126.646L40.2935 121.336H45.7646V122.588H41.4434L41.1211 125.489C41.3164 125.376 41.563 125.271 41.8608 125.174C42.1636 125.076 42.5103 125.027 42.9009 125.027C43.394 125.027 43.8359 125.113 44.2266 125.284C44.6172 125.45 44.9492 125.689 45.2227 126.001C45.501 126.314 45.7134 126.69 45.8599 127.129C46.0063 127.569 46.0796 128.06 46.0796 128.602C46.0796 129.114 46.0088 129.585 45.8672 130.015C45.7305 130.445 45.5229 130.821 45.2446 131.143C44.9663 131.46 44.6147 131.707 44.1899 131.883C43.77 132.059 43.2744 132.146 42.7031 132.146C42.2734 132.146 41.8657 132.088 41.48 131.971C41.0991 131.849 40.7573 131.666 40.4546 131.421C40.1567 131.172 39.9126 130.865 39.7222 130.499C39.5366 130.127 39.4194 129.693 39.3706 129.195H40.6597C40.7183 129.595 40.8354 129.932 41.0112 130.206C41.187 130.479 41.4165 130.687 41.6997 130.828C41.9878 130.965 42.3223 131.033 42.7031 131.033C43.0254 131.033 43.311 130.977 43.5601 130.865C43.8091 130.752 44.019 130.591 44.1899 130.381C44.3608 130.171 44.4902 129.917 44.5781 129.62C44.6709 129.322 44.7173 128.987 44.7173 128.616C44.7173 128.279 44.6709 127.967 44.5781 127.679C44.4854 127.391 44.3462 127.139 44.1606 126.924C43.98 126.709 43.7578 126.543 43.4941 126.426C43.2305 126.304 42.9277 126.243 42.5859 126.243C42.1318 126.243 41.7876 126.304 41.5532 126.426C41.3237 126.548 41.0869 126.714 40.8428 126.924ZM55.7988 126.69V130.594C55.667 130.789 55.457 131.009 55.1689 131.253C54.8809 131.492 54.4829 131.702 53.9751 131.883C53.4722 132.059 52.8228 132.146 52.0269 132.146C51.3774 132.146 50.7793 132.034 50.2324 131.81C49.6904 131.58 49.2192 131.248 48.8188 130.813C48.4233 130.374 48.1157 129.842 47.896 129.217C47.6812 128.587 47.5737 127.874 47.5737 127.078V126.25C47.5737 125.455 47.6665 124.744 47.8521 124.119C48.0425 123.494 48.3208 122.964 48.687 122.53C49.0532 122.09 49.5024 121.758 50.0347 121.534C50.5669 121.304 51.1772 121.189 51.8657 121.189C52.6812 121.189 53.3623 121.331 53.9092 121.614C54.4609 121.893 54.8906 122.278 55.1982 122.771C55.5107 123.265 55.7109 123.826 55.7988 124.456H54.3853C54.3218 124.07 54.1948 123.719 54.0044 123.401C53.8188 123.084 53.5527 122.83 53.2061 122.64C52.8594 122.444 52.4126 122.347 51.8657 122.347C51.3726 122.347 50.9453 122.437 50.584 122.618C50.2227 122.798 49.9248 123.057 49.6904 123.394C49.4561 123.731 49.2803 124.139 49.1631 124.617C49.0508 125.096 48.9946 125.635 48.9946 126.236V127.078C48.9946 127.693 49.0654 128.243 49.207 128.726C49.3535 129.209 49.561 129.622 49.8296 129.964C50.0981 130.301 50.418 130.557 50.7891 130.733C51.165 130.909 51.5801 130.997 52.0342 130.997C52.5371 130.997 52.9448 130.955 53.2573 130.872C53.5698 130.784 53.814 130.682 53.9897 130.564C54.1655 130.442 54.2998 130.328 54.3926 130.22V127.833H51.9243V126.69H55.7988ZM68.6382 130.85V132H62.9912V130.85H68.6382ZM63.2769 121.336V132H61.8633V121.336H63.2769ZM67.8911 125.921V127.071H62.9912V125.921H67.8911ZM68.5649 121.336V122.493H62.9912V121.336H68.5649ZM73.5015 124.075V125.115H69.2168V124.075H73.5015ZM70.667 122.149H72.022V130.037C72.022 130.306 72.0635 130.508 72.1465 130.645C72.2295 130.782 72.3369 130.872 72.4688 130.916C72.6006 130.96 72.7422 130.982 72.8936 130.982C73.0059 130.982 73.123 130.972 73.2451 130.953C73.3721 130.928 73.4673 130.909 73.5308 130.894L73.5381 132C73.4307 132.034 73.2891 132.066 73.1133 132.095C72.9424 132.129 72.7349 132.146 72.4907 132.146C72.1587 132.146 71.8535 132.081 71.5752 131.949C71.2969 131.817 71.0747 131.597 70.9087 131.29C70.7476 130.977 70.667 130.557 70.667 130.03V122.149ZM76.4458 120.75V132H75.0908V120.75H76.4458ZM76.1235 127.737L75.5596 127.715C75.5645 127.173 75.645 126.673 75.8013 126.214C75.9575 125.75 76.1772 125.347 76.4604 125.005C76.7437 124.664 77.0806 124.4 77.4712 124.214C77.8667 124.024 78.3037 123.929 78.7822 123.929C79.1729 123.929 79.5244 123.982 79.8369 124.09C80.1494 124.192 80.4155 124.358 80.6353 124.588C80.8599 124.817 81.0308 125.115 81.1479 125.481C81.2651 125.843 81.3237 126.285 81.3237 126.807V132H79.9614V126.792C79.9614 126.377 79.9004 126.045 79.7783 125.796C79.6562 125.542 79.478 125.359 79.2437 125.247C79.0093 125.13 78.7212 125.071 78.3794 125.071C78.0425 125.071 77.7349 125.142 77.4565 125.284C77.1831 125.425 76.9463 125.621 76.7461 125.87C76.5508 126.119 76.397 126.404 76.2847 126.727C76.1772 127.044 76.1235 127.381 76.1235 127.737ZM86.6411 132.146C86.0894 132.146 85.5889 132.054 85.1396 131.868C84.6953 131.678 84.312 131.412 83.9897 131.07C83.6724 130.728 83.4282 130.323 83.2573 129.854C83.0864 129.385 83.001 128.873 83.001 128.316V128.008C83.001 127.364 83.0962 126.79 83.2866 126.287C83.4771 125.779 83.7358 125.35 84.063 124.998C84.3901 124.646 84.7612 124.38 85.1763 124.2C85.5913 124.019 86.021 123.929 86.4653 123.929C87.0317 123.929 87.52 124.026 87.9302 124.222C88.3452 124.417 88.6846 124.69 88.9482 125.042C89.2119 125.389 89.4072 125.799 89.5342 126.272C89.6611 126.741 89.7246 127.254 89.7246 127.811V128.418H83.8066V127.312H88.3696V127.21C88.3501 126.858 88.2769 126.517 88.1499 126.185C88.0278 125.853 87.8325 125.579 87.564 125.364C87.2954 125.149 86.9292 125.042 86.4653 125.042C86.1577 125.042 85.8745 125.108 85.6157 125.24C85.3569 125.367 85.1348 125.557 84.9492 125.811C84.7637 126.065 84.6196 126.375 84.5171 126.741C84.4146 127.107 84.3633 127.53 84.3633 128.008V128.316C84.3633 128.692 84.4146 129.046 84.5171 129.378C84.6245 129.705 84.7783 129.993 84.9785 130.242C85.1836 130.491 85.4302 130.687 85.7183 130.828C86.0112 130.97 86.3433 131.041 86.7144 131.041C87.1929 131.041 87.5981 130.943 87.9302 130.748C88.2622 130.552 88.5527 130.291 88.8018 129.964L89.6221 130.616C89.4512 130.875 89.2339 131.121 88.9702 131.355C88.7065 131.59 88.3818 131.78 87.9961 131.927C87.6152 132.073 87.1636 132.146 86.6411 132.146ZM92.6616 125.32V132H91.3066V124.075H92.625L92.6616 125.32ZM95.1372 124.031L95.1299 125.291C95.0176 125.267 94.9102 125.252 94.8076 125.247C94.71 125.237 94.5977 125.232 94.4707 125.232C94.1582 125.232 93.8823 125.281 93.6431 125.379C93.4038 125.477 93.2012 125.613 93.0352 125.789C92.8691 125.965 92.7373 126.175 92.6396 126.419C92.5469 126.658 92.4858 126.922 92.4565 127.21L92.0757 127.43C92.0757 126.951 92.1221 126.502 92.2148 126.082C92.3125 125.662 92.4614 125.291 92.6616 124.969C92.8618 124.642 93.1157 124.388 93.4233 124.207C93.7358 124.021 94.1069 123.929 94.5366 123.929C94.6343 123.929 94.7466 123.941 94.8735 123.965C95.0005 123.985 95.0884 124.007 95.1372 124.031ZM97.7446 125.767V132H96.3896V124.075H97.6714L97.7446 125.767ZM97.4224 127.737L96.8584 127.715C96.8633 127.173 96.9438 126.673 97.1001 126.214C97.2563 125.75 97.4761 125.347 97.7593 125.005C98.0425 124.664 98.3794 124.4 98.77 124.214C99.1655 124.024 99.6025 123.929 100.081 123.929C100.472 123.929 100.823 123.982 101.136 124.09C101.448 124.192 101.714 124.358 101.934 124.588C102.159 124.817 102.33 125.115 102.447 125.481C102.564 125.843 102.623 126.285 102.623 126.807V132H101.26V126.792C101.26 126.377 101.199 126.045 101.077 125.796C100.955 125.542 100.777 125.359 100.542 125.247C100.308 125.13 100.02 125.071 99.6782 125.071C99.3413 125.071 99.0337 125.142 98.7554 125.284C98.4819 125.425 98.2451 125.621 98.0449 125.87C97.8496 126.119 97.6958 126.404 97.5835 126.727C97.4761 127.044 97.4224 127.381 97.4224 127.737ZM107.969 132.146C107.417 132.146 106.917 132.054 106.468 131.868C106.023 131.678 105.64 131.412 105.318 131.07C105 130.728 104.756 130.323 104.585 129.854C104.415 129.385 104.329 128.873 104.329 128.316V128.008C104.329 127.364 104.424 126.79 104.615 126.287C104.805 125.779 105.064 125.35 105.391 124.998C105.718 124.646 106.089 124.38 106.504 124.2C106.919 124.019 107.349 123.929 107.793 123.929C108.36 123.929 108.848 124.026 109.258 124.222C109.673 124.417 110.013 124.69 110.276 125.042C110.54 125.389 110.735 125.799 110.862 126.272C110.989 126.741 111.053 127.254 111.053 127.811V128.418H105.135V127.312H109.698V127.21C109.678 126.858 109.605 126.517 109.478 126.185C109.356 125.853 109.161 125.579 108.892 125.364C108.624 125.149 108.257 125.042 107.793 125.042C107.486 125.042 107.203 125.108 106.944 125.24C106.685 125.367 106.463 125.557 106.277 125.811C106.092 126.065 105.948 126.375 105.845 126.741C105.743 127.107 105.691 127.53 105.691 128.008V128.316C105.691 128.692 105.743 129.046 105.845 129.378C105.953 129.705 106.106 129.993 106.307 130.242C106.512 130.491 106.758 130.687 107.046 130.828C107.339 130.97 107.671 131.041 108.042 131.041C108.521 131.041 108.926 130.943 109.258 130.748C109.59 130.552 109.881 130.291 110.13 129.964L110.95 130.616C110.779 130.875 110.562 131.121 110.298 131.355C110.035 131.59 109.71 131.78 109.324 131.927C108.943 132.073 108.492 132.146 107.969 132.146ZM115.953 124.075V125.115H111.668V124.075H115.953ZM113.118 122.149H114.473V130.037C114.473 130.306 114.515 130.508 114.598 130.645C114.681 130.782 114.788 130.872 114.92 130.916C115.052 130.96 115.193 130.982 115.345 130.982C115.457 130.982 115.574 130.972 115.696 130.953C115.823 130.928 115.918 130.909 115.982 130.894L115.989 132C115.882 132.034 115.74 132.066 115.564 132.095C115.394 132.129 115.186 132.146 114.942 132.146C114.61 132.146 114.305 132.081 114.026 131.949C113.748 131.817 113.526 131.597 113.36 131.29C113.199 130.977 113.118 130.557 113.118 130.03V122.149Z" fill="white"/>
</svg>
