<svg width="142" height="141" viewBox="0 0 142 141" fill="none" xmlns="http://www.w3.org/2000/svg">
<rect x="1.8517" y="1.45326" width="138.297" height="138.297" rx="16.4082" stroke="#A3A3A3" stroke-width="2.34402"/>
<path d="M90.3413 38.8398C92.505 38.8398 94.1595 39.1421 95.305 39.7467C96.4504 40.3512 97.4368 41.5126 98.2641 43.2308C98.5822 43.9308 99.0913 45.0126 99.7913 46.4762C100.491 47.9398 101.287 49.5944 102.178 51.4398C103.069 53.2853 103.991 55.2421 104.946 57.3103C105.9 59.3785 106.807 61.3353 107.666 63.1808C108.525 65.0262 109.289 66.6648 109.957 68.0967C110.625 69.5285 111.087 70.5626 111.341 71.1989C111.66 71.8989 111.93 72.4239 112.153 72.7739C112.375 73.1239 112.566 73.5058 112.725 73.9194C112.885 74.333 112.996 74.8262 113.06 75.3989C113.123 75.9717 113.155 76.7671 113.155 77.7853C113.155 78.5489 113.139 79.7262 113.107 81.3171C113.075 82.908 113.06 84.5944 113.06 86.3762V91.7217V95.4444C113.06 97.2262 112.535 98.7376 111.485 99.9785C110.435 101.219 108.923 101.84 106.95 101.84H33.6413C31.7959 101.84 30.3959 101.251 29.4413 100.074C28.4868 98.8967 27.9777 97.3853 27.9141 95.5398V92.1989C27.9141 90.7353 27.93 89.1762 27.9618 87.5217C27.9936 85.8671 28.0095 84.2126 28.0095 82.558V78.5489C28.0095 77.4671 28.0254 76.608 28.0572 75.9717C28.0891 75.3353 28.1686 74.7785 28.2959 74.3012C28.4232 73.8239 28.5663 73.3308 28.7254 72.8217C28.8845 72.3126 29.1232 71.6762 29.4413 70.9126C29.6322 70.4035 30.0459 69.433 30.6822 68.0012C31.3186 66.5694 32.0822 64.9308 32.9732 63.0853C33.8641 61.2398 34.8345 59.2671 35.8845 57.1671C36.9345 55.0671 37.9209 53.0785 38.8436 51.2012C39.7663 49.3239 40.6095 47.6535 41.3732 46.1898L42.9004 43.0398C43.7277 41.3853 44.7459 40.2717 45.955 39.6989C47.1641 39.1262 48.5959 38.8398 50.2504 38.8398H90.3413ZM106.855 79.5035C106.855 77.5944 105.964 76.6398 104.182 76.6398L36.6004 76.7353C35.5186 76.7353 34.6913 77.0376 34.1186 77.6421C33.5459 78.2467 33.2595 79.0262 33.2595 79.9808V93.5353C33.2595 94.2989 33.4663 94.9353 33.88 95.4444C34.2936 95.9535 34.9459 96.208 35.8368 96.208L103.8 96.3035C105.073 96.3035 105.9 96.0012 106.282 95.3967C106.664 94.7921 106.855 94.0444 106.855 93.1535V79.5035ZM50.6322 43.8035C49.7413 43.8035 48.9936 44.1058 48.3891 44.7103C47.7845 45.3148 47.4822 46.0626 47.4822 46.9535C47.4822 47.8444 47.7845 48.5921 48.3891 49.1967C48.9936 49.8012 49.7413 50.1035 50.6322 50.1035C51.5232 50.1035 52.255 49.8012 52.8277 49.1967C53.4004 48.5921 53.6868 47.8444 53.6868 46.9535C53.6868 46.0626 53.4004 45.3148 52.8277 44.7103C52.255 44.1058 51.5232 43.8035 50.6322 43.8035ZM43.2822 60.9853C42.3913 60.9853 41.6436 61.2876 41.0391 61.8921C40.4345 62.4967 40.1322 63.2444 40.1322 64.1353C40.1322 65.0262 40.4345 65.7739 41.0391 66.3785C41.6436 66.983 42.3913 67.2853 43.2822 67.2853C44.1732 67.2853 44.9209 66.983 45.5254 66.3785C46.13 65.7739 46.4322 65.0262 46.4322 64.1353C46.4322 63.2444 46.13 62.4967 45.5254 61.8921C44.9209 61.2876 44.1732 60.9853 43.2822 60.9853ZM87.1913 46.9535C87.1913 47.8444 87.4777 48.5921 88.0504 49.1967C88.6231 49.8012 89.355 50.1035 90.2459 50.1035C91.1368 50.1035 91.8845 49.8012 92.4891 49.1967C93.0936 48.5921 93.3959 47.8444 93.3959 46.9535C93.3959 46.0626 93.0936 45.3148 92.4891 44.7103C91.8845 44.1058 91.1368 43.8035 90.2459 43.8035C89.355 43.8035 88.6231 44.1058 88.0504 44.7103C87.4777 45.3148 87.1913 46.0626 87.1913 46.9535ZM94.4459 64.1353C94.4459 65.0262 94.7481 65.7739 95.3527 66.3785C95.9572 66.983 96.705 67.2853 97.5959 67.2853C98.4868 67.2853 99.2186 66.983 99.7913 66.3785C100.364 65.7739 100.65 65.0262 100.65 64.1353C100.65 63.2444 100.364 62.4967 99.7913 61.8921C99.2186 61.2876 98.4868 60.9853 97.5959 60.9853C96.705 60.9853 95.9572 61.2876 95.3527 61.8921C94.7481 62.4967 94.4459 63.2444 94.4459 64.1353ZM45.0004 93.5353H42.1368V79.9808H45.0004V93.5353ZM53.6868 93.5353H50.8232V79.9808H53.6868V93.5353ZM62.4686 93.5353H59.605V79.9808H62.4686V93.5353ZM71.155 93.5353H68.2913V79.9808H71.155V93.5353ZM80.1277 93.5353H77.2641V79.9808H80.1277V93.5353ZM89.005 93.5353H86.1413V79.9808H89.005V93.5353ZM97.405 93.5353H94.5413V79.9808H97.405V93.5353Z" fill="white"/>
</svg>
