<svg width="142" height="142" viewBox="0 0 142 142" fill="none" xmlns="http://www.w3.org/2000/svg">
<rect x="1.8517" y="1.81264" width="138.297" height="138.297" rx="16.4082" stroke="#A3A3A3" stroke-width="2.34402"/>
<path d="M24.3227 46.3646C29.0375 41.59 33.7524 36.8154 38.4672 32.0468C38.5421 31.9718 38.6171 31.8969 38.698 31.828C39.2704 31.3153 39.4619 31.315 40.0507 31.8019C40.4004 32.0916 40.726 32.4113 41.1057 32.6591C41.593 32.9786 41.9972 32.8732 42.4498 32.4026C42.8605 31.9681 42.966 31.4502 42.6585 31.0167C42.4285 30.6909 42.1327 30.4071 41.8549 30.1172C41.341 29.5853 41.3116 29.2023 41.8362 28.6658C43.1131 27.3591 44.3989 26.0553 45.7057 24.7784C46.5359 23.9661 46.8681 23.9446 47.7048 24.7453C49.2497 26.2242 50.7436 27.7541 52.2555 29.266C52.378 29.3885 52.4945 29.517 52.6946 29.7292C52.9675 29.4205 53.2073 29.1149 53.4771 28.8451C54.2534 28.0568 55.0255 28.0377 55.8054 28.8175C58.6588 31.665 61.4973 34.5275 64.3478 37.3779C81.9944 55.0245 99.644 72.6741 117.291 90.3207C117.7 90.7301 118.124 91.1244 118.504 91.5578C119.149 92.2929 119.187 92.8285 118.524 93.5508C117.292 94.8964 116.024 96.2181 114.73 97.507C112.877 99.3593 110.98 101.167 109.113 103.004C108.846 103.271 108.69 103.319 108.416 102.984C107.227 101.538 105.342 101.271 103.736 102.285C102.152 103.29 101.424 105.404 102.215 106.974C102.513 107.566 103.03 108.053 103.556 108.729C103.07 109.166 102.519 109.628 102.012 110.129C99.5546 112.569 97.1087 115.02 94.657 117.466C94.3962 117.727 94.1265 117.979 93.8448 118.219C92.9908 118.941 92.3983 118.93 91.6005 118.138C89.488 116.038 87.3875 113.925 85.281 111.819C66.9263 93.4641 48.5745 75.1123 30.2198 56.7576C29.7865 56.3243 29.3413 55.9031 28.923 55.4548C28.2837 54.7676 28.3028 54.0553 28.9592 53.369C29.235 53.0812 29.5317 52.8084 29.7715 52.5746C27.9371 50.6263 26.1266 48.702 24.3191 46.7805L24.3197 46.3616L24.3227 46.3646ZM106.207 89.7815C105.98 89.4766 105.813 89.1896 105.586 88.9625C103.969 87.358 102.332 85.7745 100.721 84.164C95.8719 79.3266 91.0315 74.4742 86.1881 69.6308C79.6834 63.1261 73.1727 56.6274 66.674 50.1167C63.8534 47.2902 61.0599 44.4306 58.2513 41.5921C57.5252 40.86 57.4354 40.8542 56.779 41.5106C51.6926 46.591 46.6062 51.6714 41.5258 56.7578C40.7915 57.4922 40.8032 57.6418 41.5352 58.3798C54.0068 70.8633 66.4753 83.3498 78.9498 95.8303C82.3321 99.2127 85.7205 102.589 89.1118 105.962C89.548 106.399 89.7635 106.392 90.228 105.987C90.3478 105.886 90.4528 105.763 90.5637 105.652C92.2182 103.973 93.8638 102.292 95.5273 100.622C98.9142 97.2235 102.313 93.8366 105.7 90.4376C105.88 90.2578 106.009 90.0332 106.204 89.7785L106.207 89.7815ZM31.1499 41.8859C30.5444 42.4674 30.017 42.971 29.3996 43.5645C30.4663 44.5773 31.5271 45.5782 32.7343 46.7255C32.3418 47.0343 32.0003 47.2443 31.7455 47.523C31.4368 47.8617 31.2513 47.8141 30.9585 47.4973C30.0772 46.5501 29.1569 45.6418 28.1769 44.6378C27.5652 45.3749 27.0226 46.0312 26.4799 46.6814C27.9141 48.0976 29.4947 49.6543 31.0784 51.214C37.8223 44.4521 44.6112 37.6513 51.3971 30.8474C51.3852 30.8235 51.3762 30.7846 51.3553 30.7637C50.0675 29.4759 48.7768 28.1851 47.492 26.8943C46.7091 26.1115 46.736 26.1384 45.9359 26.8728C45.5283 27.2446 45.6028 27.4509 45.9494 27.7796C46.8817 28.6699 47.787 29.5932 48.6744 30.4746C48.2518 30.9092 47.8801 31.2928 47.3975 31.7934C46.5132 30.8671 45.6258 29.9497 44.7534 29.0174C44.4935 28.7395 44.2812 28.5932 43.9217 28.893C43.5681 29.1868 43.5617 29.4143 43.8365 29.761C44.2815 30.3199 44.5858 30.9718 44.5337 31.6991C44.3837 33.8809 42.1792 35.1114 40.2206 34.1358C39.8767 33.9658 39.4853 33.5923 39.2098 33.6646C38.8566 33.7609 38.6045 34.2162 38.3077 34.5189C38.2478 34.5789 38.1908 34.6478 38.0829 34.7617C39.1616 35.8164 40.2313 36.8621 41.2323 37.8451C40.7976 38.3096 40.4259 38.6992 40.0872 39.0619C39.0384 38.049 37.9806 37.0332 36.7824 35.8769C36.3537 36.3654 35.9489 36.8778 35.4933 37.3334C35.2025 37.6241 35.1813 37.8127 35.4861 38.0995C36.2481 38.8255 36.9741 39.5875 37.733 40.3105C37.9273 40.4987 38.1934 40.615 38.3758 40.7314C37.8422 41.2949 37.4705 41.6845 37.0389 42.1341C35.9961 41.0733 34.9624 40.0156 33.83 38.8652C33.3743 39.3627 32.9636 39.8451 32.511 40.2857C32.2473 40.5435 32.2949 40.6991 32.528 40.9261C33.1465 41.5207 33.747 42.1332 34.3596 42.7398C34.7121 43.0923 35.0797 43.4359 35.4353 43.7735C35.1056 44.1092 34.8329 44.364 34.596 44.6427C34.3322 44.9543 34.1406 44.9606 33.8449 44.6469C32.9605 43.7026 32.0342 42.7943 31.1379 41.8859L31.1499 41.8859ZM57.6274 36.766C57.6302 34.9644 56.465 33.7573 54.7233 33.76C52.9577 33.7628 51.6928 35.0516 51.6989 36.8381C51.7023 38.5379 52.9572 39.7509 54.666 39.7932C56.3058 39.8325 57.8522 38.4235 57.6274 36.766Z" fill="white"/>
<path d="M62.4482 69.1299C64.7917 67.0553 67.1172 64.9988 69.4876 62.9032C69.5803 62.9779 69.6939 63.0496 69.7835 63.1392C70.4796 63.8533 71.1578 64.5914 71.8809 65.2786C72.1618 65.5475 72.1556 65.7151 71.9606 66.0236C71.2736 67.105 70.6195 68.2073 69.9624 69.3067C69.8483 69.4984 69.7822 69.7139 69.641 70.0463C69.8775 69.9592 70.0033 69.935 70.1051 69.875C71.3033 69.1429 72.5015 68.4109 73.6847 67.6579C73.9603 67.4839 74.1249 67.5046 74.349 67.7406C75.1168 68.5564 75.9026 69.3482 76.7481 70.2237C74.7185 72.5162 72.65 74.8477 70.5875 77.1732C69.8824 76.4321 69.1892 75.709 68.4752 74.959C69.4254 73.949 70.4536 72.8551 71.4847 71.7582L71.4072 71.6207C71.1646 71.7138 70.9101 71.777 70.6915 71.9061C69.6461 72.5212 68.6097 73.1453 67.5822 73.7903C67.3336 73.9493 67.181 73.9226 66.9958 73.7254C66.6731 73.3787 66.3564 73.0261 66.0008 72.7124C65.7348 72.4764 65.7441 72.2879 65.9241 71.9943C66.6412 70.8291 67.3313 69.6489 68.0305 68.4718C68.0515 68.4328 68.0605 68.3819 67.9949 68.2384C67.7462 68.4273 67.4796 68.5983 67.2519 68.8081C66.4367 69.5576 65.6395 70.3249 64.8183 71.0684C64.7254 71.1553 64.459 71.2006 64.3992 71.1409C63.7419 70.4895 63.1085 69.8142 62.4482 69.1299Z" fill="white"/>
<path d="M56.547 55.3883C57.4341 54.5729 58.3841 53.7006 59.3341 52.8283C59.9406 53.4528 60.6009 54.137 61.2582 54.8123C59.1122 56.9584 56.9182 59.1524 54.6642 61.4064C54.0816 60.8058 53.484 60.2202 52.9253 59.6016C52.8238 59.488 52.8122 59.2367 52.8424 59.069C53.0929 57.6771 53.3585 56.2881 53.618 54.935C52.7278 55.7774 51.8047 56.6526 50.8367 57.5669C50.2093 56.8856 49.57 56.1923 48.9516 55.5199C51.0827 53.3769 53.2767 51.1649 55.4648 48.9649C56.0773 49.5535 56.7019 50.1361 57.2904 50.7486C57.389 50.8472 57.3617 51.1136 57.3285 51.2902C57.072 52.6822 56.8034 54.0682 56.544 55.3913L56.547 55.3883Z" fill="white"/>
<path d="M61.0278 63.1537C61.2794 63.0156 61.54 62.8925 61.7856 62.7365C63.1726 61.8456 64.5625 60.9576 65.9375 60.0487C66.2671 59.8327 66.4586 59.8444 66.7215 60.1492C67.2681 60.7858 67.8657 61.3714 68.4513 61.9929C66.8487 62.962 65.1982 63.9612 63.5507 64.9573C62.5622 65.5573 61.5648 66.1484 60.5852 66.7635C60.3276 66.9255 60.169 66.9108 59.9569 66.6926C59.1114 65.8291 58.2388 64.9925 57.3963 64.126C57.2977 64.0274 57.2383 63.7522 57.3043 63.6443C58.8855 61.0114 60.4846 58.3903 62.0808 55.7723C62.1048 55.7304 62.1557 55.7094 62.2756 55.6134C62.918 56.2738 63.5693 56.9311 64.1877 57.6154C64.2654 57.6991 64.2201 57.9775 64.1361 58.1033C63.1611 59.6041 62.1652 61.09 61.1783 62.5849C61.0794 62.7317 61.0103 62.8964 60.9232 63.0551C60.9561 63.088 60.989 63.1208 61.0218 63.1537L61.0278 63.1537Z" fill="white"/>
<path d="M77.8229 81.46C77.514 81.9004 77.199 82.3827 76.8451 82.8381C76.7672 82.934 76.4888 82.9973 76.3961 82.9346C75.1495 82.1136 73.9598 81.2356 73.1329 79.9471C72.4074 78.814 72.4241 77.7038 73.1411 76.5984C73.7801 75.6128 74.5655 74.7677 75.6645 74.2781C76.5539 73.8787 77.4277 73.9073 78.2859 74.3877C79.4788 75.0592 80.3631 76.0394 81.0316 77.2114C81.5002 78.0277 81.3613 78.8239 80.7138 79.5252C80.5369 79.72 80.3511 79.9059 80.1563 80.0827C79.4461 80.7093 78.6259 80.8482 77.8246 80.3767C77.1399 79.9737 76.5483 79.412 75.9116 78.9253C75.7054 78.767 75.5684 78.3482 75.2027 78.7199C74.843 79.0915 75.1928 79.2975 75.414 79.4827C76.197 80.1458 76.998 80.7849 77.8289 81.46L77.8229 81.46ZM76.6859 77.4816C77.0267 77.7564 77.4361 78.0879 77.8546 78.4165C77.8725 78.4344 77.9534 78.3954 77.9953 78.3654C78.214 78.1944 78.4477 78.0325 78.6366 77.8317C78.7055 77.7627 78.7238 77.5353 78.6671 77.4725C78.3952 77.1827 78.1174 76.8808 77.7885 76.6659C77.4866 76.4659 76.6598 77.0058 76.6859 77.4816Z" fill="white"/>
<path d="M87.6549 94.5473C89.0037 93.1746 90.3016 91.8469 91.6144 90.534C91.6893 90.4591 91.9647 90.4587 92.0364 90.5304C92.8042 91.3222 93.5751 92.1111 94.283 92.9509C94.8505 93.6203 94.9301 94.4312 94.3753 95.1293C93.8266 95.8215 93.1882 96.4599 92.499 97.0176C91.7769 97.6023 90.942 97.5647 90.2337 96.9523C89.3372 96.1757 88.4946 95.3391 87.6519 94.5503L87.6549 94.5473ZM89.8481 94.7564C90.1978 95.082 90.4517 95.3719 90.7656 95.5779C90.9121 95.6764 91.2532 95.6938 91.3671 95.5979C91.9155 95.1152 92.434 94.5907 92.9167 94.0423C93.0126 93.9344 92.9832 93.5813 92.8757 93.4558C92.6278 93.1659 92.3019 92.948 92 92.712C91.9851 92.6971 91.8802 92.7721 91.8323 92.82C91.1939 93.4405 90.5615 94.061 89.8481 94.7624L89.8481 94.7564Z" fill="white"/>
<path d="M86.74 85.2803C86.3385 85.5742 86.0418 85.823 85.7153 86.0121C85.6285 86.0631 85.4012 85.9737 85.3086 85.881C84.944 85.5045 84.6245 85.0831 84.248 84.7186C84.1345 84.605 83.886 84.6264 83.7006 84.5848C83.7152 84.7733 83.673 84.9948 83.7566 85.1443C83.9535 85.4911 84.2403 85.7899 84.4403 86.1338C84.9566 87.0218 84.8299 87.6744 84.0327 88.4238C83.2625 89.1522 82.571 89.2939 81.7879 88.6427C80.975 87.9677 80.297 87.1338 79.577 86.3539C79.5172 86.2941 79.5804 86.1175 79.5955 85.9947C79.5985 85.9678 79.6494 85.9528 79.6734 85.9288C80.4317 85.2124 80.4227 85.2214 81.0948 86.0014C81.4144 86.369 81.758 86.7245 82.1316 87.0382C82.2511 87.1397 82.4936 87.0945 82.6821 87.1151C82.6584 86.9416 82.6887 86.7321 82.6021 86.5975C82.3902 86.2597 82.1004 85.9699 81.8794 85.635C81.3838 84.8757 81.4235 84.3759 81.9902 83.6777C82.0472 83.6088 82.0982 83.5399 82.1641 83.4799C83.4078 82.3617 83.8806 82.3849 85.0043 83.3707C85.6288 83.9174 86.1305 84.5989 86.74 85.2803Z" fill="white"/>
<path d="M83.4959 90.2385C83.6218 90.1245 83.7087 90.0376 83.8046 89.9657C84.0862 89.7617 84.3708 89.5608 84.6315 89.3778C85.1214 89.9396 85.5844 90.4746 86.0474 91.0095C86.3551 91.3652 86.6483 91.4066 86.9304 90.9034C86.6615 90.5866 86.3688 90.2639 86.1 89.9291C85.4608 89.1341 85.5069 88.3829 86.2323 87.5738C87.0537 86.6627 87.8321 86.452 88.6571 87.1151C89.4222 87.7304 90.0584 88.5104 90.8054 89.2634C90.3679 89.6352 90.0322 89.923 89.6667 90.2348C89.2245 89.7447 88.8182 89.2904 88.412 88.8362C88.2267 88.627 88.0265 88.4388 87.7508 88.6966C87.4751 88.9544 87.7352 89.1365 87.8695 89.3189C88.0786 89.5998 88.3116 89.8628 88.5057 90.1528C88.9416 90.7985 88.9464 91.5107 88.4428 92.0981C88.116 92.4727 87.6935 92.7816 87.2652 93.0426C86.8728 93.2796 86.457 93.1396 86.0773 92.9038C85.016 92.2381 84.2604 91.2787 83.4989 90.2355L83.4959 90.2385Z" fill="white"/>
<path d="M54.6552 37.9988C54.0657 37.9848 53.4832 37.3303 53.5111 36.7168C53.5359 36.1661 54.1563 35.5636 54.689 35.5688C55.2965 35.5768 55.9449 36.2013 55.935 36.7729C55.9281 37.3893 55.2747 38.0128 54.6552 37.9988Z" fill="white"/>
</svg>
