<svg width="254" height="192" viewBox="0 0 254 192" fill="none" xmlns="http://www.w3.org/2000/svg">
<rect x="1" y="1" width="252" height="190" rx="19" stroke="#00695D" stroke-width="2"/>
<path d="M72.5921 130.296H77.0201L82.0241 150.312H82.1681L87.4241 130.296H91.5281L96.7841 150.312H96.9281L101.932 130.296H106.36L98.9441 156H94.7681L89.5481 136.164H89.4041L84.1841 156H79.9721L72.5921 130.296ZM111.409 129.936C112.165 129.936 112.813 130.152 113.317 130.656C113.821 131.124 114.073 131.736 114.073 132.492C114.073 133.248 113.785 133.86 113.281 134.364C112.777 134.832 112.129 135.084 111.409 135.084C110.653 135.084 110.041 134.832 109.537 134.364C109.033 133.86 108.781 133.212 108.781 132.492C108.781 131.736 109.033 131.124 109.537 130.656C110.041 130.152 110.653 129.936 111.409 129.936ZM109.501 137.388H113.317V156H109.501V137.388ZM118.842 130.296H136.302V133.644H122.766V141.132H135.546V144.48H122.766V156H118.842V130.296ZM142.1 129.936C142.856 129.936 143.504 130.152 144.008 130.656C144.512 131.124 144.764 131.736 144.764 132.492C144.764 133.248 144.476 133.86 143.972 134.364C143.468 134.832 142.82 135.084 142.1 135.084C141.344 135.084 140.732 134.832 140.228 134.364C139.724 133.86 139.472 133.212 139.472 132.492C139.472 131.736 139.724 131.124 140.228 130.656C140.732 130.152 141.344 129.936 142.1 129.936ZM140.192 137.388H144.008V156H140.192V137.388ZM170.162 129.792C175.13 129.792 177.974 132.096 178.622 136.776H174.806C174.266 134.256 172.718 133.032 170.126 133.032C168.326 133.032 166.922 133.896 165.878 135.66C164.834 137.316 164.33 139.368 164.33 141.888C164.33 141.996 164.33 142.14 164.366 142.356H164.51C165.23 141.204 166.13 140.376 167.246 139.836C168.254 139.296 169.442 139.044 170.81 139.044C173.33 139.044 175.346 139.836 176.858 141.42C178.334 143.04 179.09 145.128 179.09 147.648C179.09 150.204 178.226 152.328 176.534 153.984C174.806 155.64 172.646 156.504 170.126 156.504C166.958 156.504 164.582 155.352 162.926 153.048C161.342 150.852 160.55 147.792 160.55 143.868C160.55 139.692 161.378 136.308 163.106 133.716C164.834 131.088 167.21 129.792 170.162 129.792ZM170.018 142.212C168.398 142.212 167.138 142.716 166.202 143.724C165.266 144.732 164.798 146.064 164.798 147.756C164.798 149.412 165.266 150.744 166.238 151.752C167.174 152.76 168.434 153.264 169.982 153.264C171.566 153.264 172.826 152.724 173.762 151.68C174.734 150.6 175.238 149.268 175.238 147.648C175.238 145.992 174.77 144.66 173.834 143.724C172.898 142.716 171.602 142.212 170.018 142.212Z" fill="#00695D"/>
<path d="M149.207 71.4275C143.093 66.5843 135.108 63.6527 126.361 63.6527C117.614 63.6527 109.629 66.5843 103.504 71.4374C103.156 71.7148 103.112 72.21 103.417 72.5467L107.333 76.7957C107.649 77.1324 108.204 77.172 108.573 76.8848C113.317 73.0816 119.54 70.7838 126.361 70.7838C133.182 70.7838 139.405 73.0816 144.148 76.8749C144.518 77.1621 145.073 77.1225 145.388 76.7858L149.305 72.5368C149.609 72.21 149.566 71.7148 149.207 71.4275ZM161.979 57.5516C152.329 50.2324 139.916 45.825 126.361 45.825C112.805 45.825 100.392 50.2324 90.7316 57.5516C90.3617 57.829 90.3182 58.3341 90.6228 58.6708L94.5393 62.9198C94.8439 63.2565 95.3988 63.2961 95.7578 63.0188C104.059 56.7395 114.731 52.956 126.361 52.956C137.991 52.956 148.663 56.7395 156.953 63.0188C157.323 63.2961 157.867 63.2565 158.171 62.9198L162.088 58.6708C162.392 58.3341 162.349 57.829 161.979 57.5516Z" fill="#00695D"/>
<path d="M174.674 43.7874C161.467 33.9228 144.561 28 126.143 28C107.844 28 91.0465 33.8435 77.8719 43.5894C77.4911 43.8667 77.4367 44.3718 77.7522 44.7184L81.6687 48.9674C81.9733 49.2942 82.5173 49.3437 82.8763 49.0763C94.7019 40.3506 109.748 35.1311 126.143 35.1311C142.657 35.1311 157.801 40.4299 169.659 49.2645C170.029 49.5418 170.573 49.4923 170.877 49.1556L174.794 44.9066C175.109 44.5699 175.055 44.0648 174.674 43.7874Z" fill="#00695D"/>
<path d="M119.29 87.0301C119.29 88.7112 120.023 90.3235 121.329 91.5122C122.635 92.701 124.406 93.3688 126.253 93.3688C128.099 93.3688 129.87 92.701 131.176 91.5122C132.482 90.3235 133.215 88.7112 133.215 87.0301C133.215 85.3489 132.482 83.7366 131.176 82.5479C129.87 81.3591 128.099 80.6913 126.253 80.6913C124.406 80.6913 122.635 81.3591 121.329 82.5479C120.023 83.7366 119.29 85.3489 119.29 87.0301Z" fill="#00695D"/>
</svg>
