<svg width="103" height="103" viewBox="0 0 103 103" fill="none" xmlns="http://www.w3.org/2000/svg">
<g clip-path="url(#clip0_12549_16831)">
<path d="M46.3708 38.16V50.0113C46.3198 50.0144 46.2741 50.0196 46.2293 50.0196C45.5596 50.0196 44.8898 50.0196 44.2201 50.0196C41.0346 50.0196 37.8502 50.0196 34.6648 50.0196C34.6523 50.0196 34.6388 50.0196 34.6263 50.0196C34.4765 50.0165 34.4661 50.0082 34.4651 49.8562C34.463 49.6412 34.463 49.4261 34.463 49.211C34.463 45.6521 34.463 42.0922 34.463 38.5333C34.463 38.4599 34.4609 38.3865 34.4609 38.3141C34.463 38.1662 34.4693 38.16 34.6128 38.1549C34.6689 38.1528 34.7251 38.1528 34.7813 38.1528C38.5283 38.1528 42.2743 38.1518 46.0213 38.1507C46.0952 38.1507 46.168 38.1476 46.2418 38.1486C46.2834 38.1486 46.325 38.1549 46.3708 38.159V38.16Z" fill="white"/>
<path d="M44.4235 67.7798C44.3362 67.787 44.2686 67.7974 44.201 67.7974C43.3326 67.7974 42.4632 67.7974 41.5948 67.7974C41.5438 67.7974 41.4939 67.8025 41.4419 67.8056C41.4419 68.3495 41.4419 68.882 41.4419 69.4145C41.4419 69.4879 41.4409 69.5613 41.444 69.6337C41.4502 69.764 41.4773 69.7909 41.6094 69.7909C42.4611 69.7909 43.3118 69.7909 44.1636 69.7929C44.2488 69.7929 44.3372 69.7764 44.4204 69.8332V71.6892C44.3632 71.7378 44.2946 71.7388 44.2249 71.7388C43.3607 71.7388 42.4965 71.7388 41.6322 71.7388C41.5854 71.7388 41.5376 71.7388 41.4762 71.7388C41.4638 71.7916 41.443 71.8402 41.443 71.8877C41.4409 72.4688 41.443 73.0499 41.443 73.631C41.443 73.6558 41.4492 73.6817 41.4544 73.7199C41.5064 73.722 41.5574 73.7261 41.6073 73.7261C42.4673 73.7261 43.3274 73.7261 44.1875 73.7261C44.2634 73.7261 44.3404 73.7354 44.4267 73.7416C44.4267 73.7995 44.4267 73.8419 44.4267 73.8843C44.4267 74.4313 44.4267 74.9772 44.4267 75.5242C44.4267 75.6814 44.3736 75.73 44.2208 75.7289C44.0304 75.7269 43.8401 75.7279 43.6508 75.7279C41.9349 75.7279 40.2189 75.7279 38.504 75.7279C37.8769 75.7279 37.2508 75.7248 36.6237 75.7227C36.5811 75.7227 36.5384 75.7227 36.4833 75.7227C36.4771 75.6669 36.4688 75.6214 36.4688 75.5759C36.4688 74.9907 36.4688 74.4054 36.4688 73.8202C36.4688 73.7954 36.4739 73.7706 36.4781 73.7272H39.4379C39.441 73.6713 39.4452 73.6341 39.4452 73.5959C39.4462 73.0323 39.4472 72.4678 39.4472 71.9043C39.4472 71.8743 39.4452 71.8443 39.4379 71.8154C39.4275 71.7699 39.4036 71.7378 39.3495 71.7399C39.3017 71.7409 39.2549 71.7378 39.207 71.7378C38.3854 71.7378 37.5649 71.7378 36.7433 71.7378C36.658 71.7378 36.5727 71.7337 36.4781 71.7316V69.8002C36.5426 69.796 36.606 69.7898 36.6684 69.7898C37.5326 69.7898 38.3969 69.7898 39.2611 69.7919C39.4348 69.7919 39.4483 69.7795 39.4483 69.613C39.4483 69.0578 39.4462 68.5025 39.4462 67.9473C39.4462 67.9049 39.4462 67.8625 39.4462 67.8056C39.3817 67.8025 39.3277 67.7974 39.2725 67.7974C38.425 67.7974 37.5784 67.7974 36.7308 67.7974C36.6497 67.7974 36.5675 67.7974 36.4771 67.7974V65.8142C36.5488 65.8101 36.6112 65.8018 36.6747 65.8018C37.2924 65.8008 37.9112 65.8008 38.5289 65.8008C40.4134 65.8008 42.2978 65.8008 44.1823 65.8008C44.4246 65.8008 44.4256 65.8008 44.4256 66.0438C44.4256 66.5732 44.4256 67.1025 44.4256 67.6319C44.4256 67.6743 44.4256 67.7167 44.4256 67.7788L44.4235 67.7798Z" fill="white"/>
<path d="M34.5017 59.8906H46.3658C46.371 59.9547 46.3793 60.0137 46.3793 60.0726C46.3793 60.3528 46.3814 60.632 46.3772 60.9122C46.3751 61.0321 46.3731 61.1552 46.3471 61.272C46.3138 61.425 46.2576 61.5729 46.2087 61.7228C46.1734 61.8324 46.1391 61.9441 46.0975 62.0516C46.0226 62.2429 45.9467 62.4342 45.8624 62.6224C45.7678 62.8333 45.6732 63.0442 45.5619 63.2458C45.4548 63.4413 45.3424 63.6346 45.1979 63.8073C45.1584 63.8549 45.1136 63.8611 45.0616 63.8611C44.9233 63.86 44.785 63.8569 44.6467 63.8569C41.9542 63.8569 39.2617 63.8569 36.5692 63.8569C36.331 63.8569 36.0939 63.8517 35.8558 63.8631C35.7445 63.8683 35.6738 63.8197 35.6228 63.7401C35.5219 63.5819 35.4304 63.4185 35.3337 63.2572C35.2838 63.1745 35.2318 63.0928 35.1839 63.0091C35.1444 62.9398 35.1205 62.8622 35.0862 62.7899C34.977 62.5593 34.8907 62.3173 34.796 62.0795C34.7482 61.9606 34.7003 61.8417 34.6546 61.7228C34.6421 61.6908 34.6369 61.6566 34.6296 61.6236C34.6223 61.5905 34.6296 61.545 34.6099 61.5243C34.5381 61.4457 34.5475 61.3496 34.536 61.2575C34.5319 61.2275 34.5308 61.1965 34.5225 61.1686C34.4154 60.7829 34.484 60.389 34.4684 60.0002C34.4684 59.9795 34.4747 59.9578 34.4799 59.9372C34.483 59.9247 34.4903 59.9144 34.5007 59.8937L34.5017 59.8906Z" fill="white"/>
<path d="M47.4008 55.9533C47.4008 56.0702 47.4008 56.1643 47.4008 56.2583C47.4008 56.736 47.4008 57.2137 47.4008 57.6914C47.4008 57.9168 47.3831 57.9344 47.1585 57.9344C46.2818 57.9344 45.4041 57.9313 44.5274 57.9313C42.6086 57.9313 40.6898 57.9334 38.7711 57.9344C37.2028 57.9344 35.6335 57.9365 34.0652 57.9365C33.9185 57.9365 33.7709 57.9344 33.6242 57.9272C33.5192 57.922 33.5005 57.9023 33.5005 57.8031C33.4994 57.192 33.5005 56.582 33.5005 55.9585C33.5556 55.9502 33.6045 55.9399 33.6544 55.9357C33.6929 55.9316 33.7324 55.9347 33.7709 55.9347C38.2261 55.9347 42.6814 55.9347 47.1367 55.9347C47.2167 55.9347 47.2979 55.945 47.4008 55.9523V55.9533Z" fill="white"/>
<path d="M47.3801 53.9286C47.2418 53.9565 33.6461 53.9596 33.5078 53.9317V52.0137C33.5692 52.0085 33.6316 51.9992 33.695 51.9982C34.0715 51.9961 34.4469 51.9961 34.8234 51.9961C38.9209 51.9961 43.0184 51.9961 47.1159 51.9961C47.2012 51.9961 47.2865 52.0033 47.3666 52.0064C47.4061 52.1326 47.4165 53.7787 47.3811 53.9275L47.3801 53.9286Z" fill="white"/>
<path d="M39.4542 32.2204V27.2791C39.5082 27.2739 39.553 27.2656 39.5987 27.2656C40.1426 27.2656 40.6876 27.2656 41.2315 27.2667C41.4239 27.2667 41.4384 27.2832 41.4384 27.4735C41.4384 28.9841 41.4384 30.4947 41.4384 32.0043C41.4384 32.0684 41.4301 32.1325 41.4249 32.21C41.3833 32.2152 41.3428 32.2256 41.3022 32.2256C40.7105 32.2266 40.1187 32.2256 39.5259 32.2256C39.5051 32.2256 39.4843 32.2214 39.4531 32.2194L39.4542 32.2204Z" fill="white"/>
<path d="M42.3973 34.2151C42.4347 34.3454 42.4295 36.0514 42.3921 36.1579C42.2277 36.1579 42.0593 36.1579 41.8918 36.1579C40.907 36.1579 39.9231 36.1579 38.9383 36.1579C38.826 36.1579 38.7147 36.1713 38.6024 36.1703C38.4817 36.1703 38.4609 36.1455 38.4609 36.0235C38.4609 35.4693 38.462 34.914 38.4641 34.3598C38.4641 34.2192 38.4734 34.2109 38.6086 34.2109C39.8483 34.2109 41.0869 34.2109 42.3265 34.2109C42.3473 34.2109 42.3692 34.213 42.3973 34.2151Z" fill="white"/>
<path d="M39.439 77.6796V81.4691C39.309 81.5104 37.62 81.5094 37.4568 81.466C37.4536 81.4215 37.4453 81.3719 37.4453 81.3222C37.4453 80.1601 37.4474 78.9979 37.4484 77.8367C37.4484 77.6889 37.4703 77.6641 37.6211 77.6641C38.1785 77.6641 38.7359 77.6641 39.2934 77.6651C39.336 77.6651 39.3776 77.6734 39.439 77.6806V77.6796Z" fill="white"/>
<path d="M43.4041 81.4685C43.2845 81.5129 41.5717 81.5119 41.4458 81.4695C41.4437 81.4271 41.4396 81.3806 41.4396 81.3341C41.4396 80.1853 41.4375 79.0356 41.4375 77.8868C41.4375 77.6645 41.4396 77.6645 41.659 77.6645C42.178 77.6645 42.6959 77.6635 43.2148 77.6645C43.2679 77.6645 43.3479 77.6656 43.3687 77.6976C43.4114 77.7617 43.4478 77.8393 43.4249 77.9282C43.4103 77.9851 43.4051 78.0471 43.4051 78.106C43.4041 79.1689 43.4051 80.2319 43.4041 81.2948C43.4041 81.3537 43.4041 81.4137 43.4041 81.4664V81.4685Z" fill="white"/>
<path d="M41.4265 25.3153H39.4651C39.4588 25.2274 39.4474 25.1427 39.4474 25.0589C39.4464 24.0818 39.4474 23.1058 39.4453 22.1287C39.4453 22.0242 39.4682 21.9549 39.5743 21.9074C39.802 21.804 40.0225 21.6872 40.2461 21.5755C40.2617 21.5682 40.2794 21.5641 40.2929 21.5527C40.3823 21.4773 40.4718 21.4917 40.5695 21.5403C40.8004 21.6572 41.0334 21.7709 41.2653 21.8857C41.3152 21.9105 41.3651 21.9343 41.4286 21.9643C41.4327 22.0149 41.4421 22.0739 41.4421 22.1338C41.4442 23.1368 41.4442 24.1387 41.4442 25.1416C41.4442 25.1964 41.4348 25.2523 41.4286 25.3153H41.4265Z" fill="white"/>
<path d="M42.1172 36.1836H42.1732C42.1732 36.1836 42.1732 36.1889 42.1732 36.191H42.1172C42.1172 36.191 42.1172 36.1857 42.1172 36.1836Z" fill="white"/>
</g>
<g clip-path="url(#clip1_12549_16831)">
<path d="M67.5895 38.16V50.0113C67.5386 50.0144 67.4928 50.0196 67.4481 50.0196C66.7783 50.0196 66.1086 50.0196 65.4389 50.0196C62.2534 50.0196 59.069 50.0196 55.8835 50.0196C55.871 50.0196 55.8575 50.0196 55.845 50.0196C55.6953 50.0165 55.6849 50.0082 55.6838 49.8562C55.6818 49.6412 55.6818 49.4261 55.6818 49.211C55.6818 45.6521 55.6818 42.0922 55.6818 38.5333C55.6818 38.4599 55.6797 38.3865 55.6797 38.3141C55.6818 38.1662 55.688 38.16 55.8315 38.1549C55.8877 38.1528 55.9438 38.1528 56 38.1528C59.747 38.1528 63.4931 38.1518 67.2401 38.1507C67.3139 38.1507 67.3867 38.1476 67.4606 38.1486C67.5022 38.1486 67.5438 38.1549 67.5895 38.159V38.16Z" fill="white"/>
<path d="M65.6423 67.7798C65.5549 67.787 65.4873 67.7974 65.4197 67.7974C64.5514 67.7974 63.6819 67.7974 62.8136 67.7974C62.7626 67.7974 62.7127 67.8025 62.6607 67.8056C62.6607 68.3495 62.6607 68.882 62.6607 69.4145C62.6607 69.4879 62.6596 69.5613 62.6628 69.6337C62.669 69.764 62.696 69.7909 62.8281 69.7909C63.6799 69.7909 64.5306 69.7909 65.3823 69.7929C65.4676 69.7929 65.556 69.7764 65.6392 69.8332V71.6892C65.582 71.7378 65.5133 71.7388 65.4437 71.7388C64.5794 71.7388 63.7152 71.7388 62.851 71.7388C62.8042 71.7388 62.7564 71.7388 62.695 71.7388C62.6825 71.7916 62.6617 71.8402 62.6617 71.8877C62.6596 72.4688 62.6617 73.0499 62.6617 73.631C62.6617 73.6558 62.668 73.6817 62.6732 73.7199C62.7252 73.722 62.7761 73.7261 62.826 73.7261C63.6861 73.7261 64.5462 73.7261 65.4062 73.7261C65.4821 73.7261 65.5591 73.7354 65.6454 73.7416C65.6454 73.7995 65.6454 73.8419 65.6454 73.8843C65.6454 74.4313 65.6454 74.9772 65.6454 75.5242C65.6454 75.6814 65.5924 75.73 65.4395 75.7289C65.2492 75.7269 65.0589 75.7279 64.8696 75.7279C63.1536 75.7279 61.4377 75.7279 59.7227 75.7279C59.0956 75.7279 58.4696 75.7248 57.8425 75.7227C57.7998 75.7227 57.7572 75.7227 57.7021 75.7227C57.6958 75.6669 57.6875 75.6214 57.6875 75.5759C57.6875 74.9907 57.6875 74.4054 57.6875 73.8202C57.6875 73.7954 57.6927 73.7706 57.6969 73.7272H60.6566C60.6598 73.6713 60.6639 73.6341 60.6639 73.5959C60.665 73.0323 60.666 72.4678 60.666 71.9043C60.666 71.8743 60.6639 71.8443 60.6566 71.8154C60.6462 71.7699 60.6223 71.7378 60.5682 71.7399C60.5204 71.7409 60.4736 71.7378 60.4258 71.7378C59.6042 71.7378 58.7836 71.7378 57.9621 71.7378C57.8768 71.7378 57.7915 71.7337 57.6969 71.7316V69.8002C57.7613 69.796 57.8248 69.7898 57.8872 69.7898C58.7514 69.7898 59.6156 69.7898 60.4798 69.7919C60.6535 69.7919 60.667 69.7795 60.667 69.613C60.667 69.0578 60.665 68.5025 60.665 67.9473C60.665 67.9049 60.665 67.8625 60.665 67.8056C60.6005 67.8025 60.5464 67.7974 60.4913 67.7974C59.6437 67.7974 58.7972 67.7974 57.9496 67.7974C57.8685 67.7974 57.7863 67.7974 57.6958 67.7974V65.8142C57.7676 65.8101 57.83 65.8018 57.8934 65.8018C58.5112 65.8008 59.13 65.8008 59.7477 65.8008C61.6321 65.8008 63.5166 65.8008 65.401 65.8008C65.6433 65.8008 65.6444 65.8008 65.6444 66.0438C65.6444 66.5732 65.6444 67.1025 65.6444 67.6319C65.6444 67.6743 65.6444 67.7167 65.6444 67.7788L65.6423 67.7798Z" fill="white"/>
<path d="M55.7204 59.8906H67.5845C67.5897 59.9547 67.5981 60.0137 67.5981 60.0726C67.5981 60.3528 67.6001 60.632 67.596 60.9122C67.5939 61.0321 67.5918 61.1552 67.5658 61.272C67.5325 61.425 67.4764 61.5729 67.4275 61.7228C67.3921 61.8324 67.3578 61.9441 67.3162 62.0516C67.2413 62.2429 67.1654 62.4342 67.0812 62.6224C66.9865 62.8333 66.8919 63.0442 66.7806 63.2458C66.6735 63.4413 66.5612 63.6346 66.4166 63.8073C66.3771 63.8549 66.3324 63.8611 66.2804 63.8611C66.1421 63.86 66.0038 63.8569 65.8654 63.8569C63.1729 63.8569 60.4804 63.8569 57.7879 63.8569C57.5498 63.8569 57.3127 63.8517 57.0745 63.8631C56.9632 63.8683 56.8925 63.8197 56.8415 63.7401C56.7407 63.5819 56.6492 63.4185 56.5524 63.2572C56.5025 63.1745 56.4505 63.0928 56.4027 63.0091C56.3632 62.9398 56.3392 62.8622 56.3049 62.7899C56.1957 62.5593 56.1094 62.3173 56.0148 62.0795C55.9669 61.9606 55.9191 61.8417 55.8733 61.7228C55.8608 61.6908 55.8556 61.6566 55.8484 61.6236C55.8411 61.5905 55.8484 61.545 55.8286 61.5243C55.7568 61.4457 55.7662 61.3496 55.7548 61.2575C55.7506 61.2275 55.7496 61.1965 55.7412 61.1686C55.6341 60.7829 55.7028 60.389 55.6872 60.0002C55.6872 59.9795 55.6934 59.9578 55.6986 59.9372C55.7017 59.9247 55.709 59.9144 55.7194 59.8937L55.7204 59.8906Z" fill="white"/>
<path d="M68.6196 55.9533C68.6196 56.0702 68.6196 56.1643 68.6196 56.2583C68.6196 56.736 68.6196 57.2137 68.6196 57.6914C68.6196 57.9168 68.6019 57.9344 68.3773 57.9344C67.5006 57.9344 66.6228 57.9313 65.7461 57.9313C63.8273 57.9313 61.9086 57.9334 59.9898 57.9344C58.4215 57.9344 56.8522 57.9365 55.2839 57.9365C55.1373 57.9365 54.9896 57.9344 54.843 57.9272C54.7379 57.922 54.7192 57.9023 54.7192 57.8031C54.7182 57.192 54.7192 56.582 54.7192 55.9585C54.7743 55.9502 54.8232 55.9399 54.8731 55.9357C54.9116 55.9316 54.9511 55.9347 54.9896 55.9347C59.4449 55.9347 63.9001 55.9347 68.3554 55.9347C68.4355 55.9347 68.5166 55.945 68.6196 55.9523V55.9533Z" fill="white"/>
<path d="M68.5988 53.9286C68.4605 53.9565 54.8649 53.9596 54.7266 53.9317V52.0137C54.7879 52.0085 54.8503 51.9992 54.9138 51.9982C55.2902 51.9961 55.6657 51.9961 56.0421 51.9961C60.1397 51.9961 64.2372 51.9961 68.3347 51.9961C68.42 51.9961 68.5052 52.0033 68.5853 52.0064C68.6248 52.1326 68.6352 53.7787 68.5999 53.9275L68.5988 53.9286Z" fill="white"/>
<path d="M60.6729 32.2204V27.2791C60.727 27.2739 60.7717 27.2656 60.8175 27.2656C61.3614 27.2656 61.9063 27.2656 62.4502 27.2667C62.6426 27.2667 62.6572 27.2832 62.6572 27.4735C62.6572 28.9841 62.6572 30.4947 62.6572 32.0043C62.6572 32.0684 62.6489 32.1325 62.6437 32.21C62.6021 32.2152 62.5615 32.2256 62.521 32.2256C61.9292 32.2266 61.3375 32.2256 60.7447 32.2256C60.7239 32.2256 60.7031 32.2214 60.6719 32.2194L60.6729 32.2204Z" fill="white"/>
<path d="M63.616 34.2151C63.6534 34.3454 63.6482 36.0514 63.6108 36.1579C63.4465 36.1579 63.278 36.1579 63.1106 36.1579C62.1257 36.1579 61.1419 36.1579 60.157 36.1579C60.0447 36.1579 59.9334 36.1713 59.8211 36.1703C59.7005 36.1703 59.6797 36.1455 59.6797 36.0235C59.6797 35.4693 59.6807 34.914 59.6828 34.3598C59.6828 34.2192 59.6922 34.2109 59.8274 34.2109C61.067 34.2109 62.3056 34.2109 63.5453 34.2109C63.5661 34.2109 63.5879 34.213 63.616 34.2151Z" fill="white"/>
<path d="M60.6577 77.6796V81.4691C60.5277 81.5104 58.8388 81.5094 58.6755 81.466C58.6724 81.4215 58.6641 81.3719 58.6641 81.3222C58.6641 80.1601 58.6661 78.9979 58.6672 77.8367C58.6672 77.6889 58.689 77.6641 58.8398 77.6641C59.3972 77.6641 59.9547 77.6641 60.5121 77.6651C60.5547 77.6651 60.5963 77.6734 60.6577 77.6806V77.6796Z" fill="white"/>
<path d="M64.6229 81.4685C64.5033 81.5129 62.7904 81.5119 62.6646 81.4695C62.6625 81.4271 62.6583 81.3806 62.6583 81.3341C62.6583 80.1853 62.6562 79.0356 62.6562 77.8868C62.6562 77.6645 62.6583 77.6645 62.8778 77.6645C63.3967 77.6645 63.9146 77.6635 64.4336 77.6645C64.4866 77.6645 64.5667 77.6656 64.5875 77.6976C64.6301 77.7617 64.6665 77.8393 64.6436 77.9282C64.6291 77.9851 64.6239 78.0471 64.6239 78.106C64.6229 79.1689 64.6239 80.2319 64.6229 81.2948C64.6229 81.3537 64.6229 81.4137 64.6229 81.4664V81.4685Z" fill="white"/>
<path d="M62.6452 25.3153H60.6838C60.6776 25.2274 60.6661 25.1427 60.6661 25.0589C60.6651 24.0818 60.6661 23.1058 60.6641 22.1287C60.6641 22.0242 60.6869 21.9549 60.793 21.9074C61.0208 21.804 61.2413 21.6872 61.4648 21.5755C61.4804 21.5682 61.4981 21.5641 61.5116 21.5527C61.6011 21.4773 61.6905 21.4917 61.7883 21.5403C62.0192 21.6572 62.2521 21.7709 62.484 21.8857C62.5339 21.9105 62.5839 21.9343 62.6473 21.9643C62.6515 22.0149 62.6608 22.0739 62.6608 22.1338C62.6629 23.1368 62.6629 24.1387 62.6629 25.1416C62.6629 25.1964 62.6535 25.2523 62.6473 25.3153H62.6452Z" fill="white"/>
<path d="M63.3359 36.1836H63.392C63.392 36.1836 63.392 36.1889 63.392 36.191H63.3359C63.3359 36.191 63.3359 36.1857 63.3359 36.1836Z" fill="white"/>
</g>
<rect x="1.5" y="1.5" width="100" height="100" rx="50" stroke="white" stroke-width="3"/>
<defs>
<clipPath id="clip0_12549_16831">
<rect width="13.9024" height="60" fill="white" transform="translate(33.5 21.5)"/>
</clipPath>
<clipPath id="clip1_12549_16831">
<rect width="13.9024" height="60" fill="white" transform="translate(54.7188 21.5)"/>
</clipPath>
</defs>
</svg>
