<svg width="145" height="144" viewBox="0 0 145 144" fill="none" xmlns="http://www.w3.org/2000/svg">
<path d="M36.2943 88.6547C40.4528 62.0916 51.2796 51.9725 64.1763 48.1776C80.4049 43.1181 94.1368 46.913 107.868 39.7451C118.686 34.6855 116.189 39.3235 115.774 44.379C113.693 62.0874 105.37 79.3752 87.0603 87.386C67.0892 95.8226 47.5301 79.3792 33.3814 105.099L32.9656 105.52H30.8848C30.8848 105.52 30.4688 105.099 30.4688 104.677V104.256C35.8783 92.4498 43.3692 82.3304 53.3557 74.3186C62.9275 66.7302 73.3313 60.8237 84.9818 57.0318C85.8149 56.6102 85.3987 54.9235 84.5664 55.3456C75.4111 57.4534 67.0892 60.8237 59.1823 65.886C50.0273 71.7892 42.1206 79.3795 36.2943 88.6547Z" fill="white"/>
</svg>
