<svg width="88" height="51" viewBox="0 0 88 51" fill="none" xmlns="http://www.w3.org/2000/svg">
<path d="M0 0H73C81.2843 0 88 6.71573 88 15V51H15C6.71573 51 0 44.2843 0 36V0Z" fill="#30965F"/>
<path d="M57.4284 28.115C62.4189 27.4181 61.6204 31.1115 60.8219 33.3414C60.1179 35.7191 58.5484 37.7952 56.3819 39.2146C54.2153 40.6341 51.5863 41.3087 48.9445 41.1231C41.4588 41.1231 37.2418 34.2938 41.7083 26.6516C44.1522 22.9565 47.9859 20.2405 52.4628 19.0325C53.4131 18.7596 54.3917 18.5805 55.3823 18.4983C55.8831 18.4401 56.3916 18.4989 56.8621 18.6692C57.3325 18.8395 57.75 19.116 58.0771 19.4739C58.559 19.949 58.8907 20.5387 59.036 21.178C59.1813 21.8172 59.1344 22.4814 58.9006 23.0976C54.5025 23.0512 50.262 24.6203 47.098 27.4646C46.2086 28.3133 45.5833 29.3709 45.2889 30.5246C44.9945 31.6782 45.0419 32.8846 45.4262 34.0151C46.574 37.3368 53.1116 38.777 56.2306 33.0627L49.1192 34.0383L49.9426 31.1579C50.3668 29.5552 51.2402 29.0674 51.864 28.8351L57.4284 28.115ZM56.3055 7.78978L55.7815 9.67131C55.7879 9.80278 55.8486 9.92687 55.9509 10.0177C56.0531 10.1086 56.1891 10.1593 56.3305 10.1591C59.384 10.3317 62.2496 11.59 64.3348 13.6738C66.42 15.7577 67.5653 18.5077 67.5341 21.3554C67.5341 21.7967 68.0581 21.7967 68.0581 21.7967L69.8547 21.5412C70.2789 21.5412 71.1023 21.2625 70.8528 19.2183C70.4011 16.1873 68.9241 13.3691 66.636 11.1721C64.3478 8.97523 61.3674 7.51388 58.127 7C57.079 7 56.4303 7.34843 56.3055 7.78978ZM65.1886 20.9373C65.0671 18.8008 64.1352 16.7738 62.5588 15.217C60.9824 13.6602 58.8638 12.6745 56.58 12.4355C56.2257 12.3562 55.8528 12.3939 55.5251 12.5422C55.1974 12.6905 54.9352 12.9402 54.7834 13.2485C54.7834 13.5737 54.484 14.41 54.3093 14.9442C54.1346 15.4785 54.6087 15.3856 54.7335 15.3624C55.0492 15.3419 55.366 15.3419 55.6817 15.3624C56.5456 15.3714 57.3992 15.5393 58.1933 15.8562C58.9874 16.1731 59.7064 16.6328 60.3092 17.2091C60.912 17.7853 61.3866 18.4667 61.7058 19.2141C62.025 19.9615 62.1825 20.7602 62.1693 21.5645C62.1907 21.8118 62.1907 22.0604 62.1693 22.3078C62.1723 22.3557 62.1859 22.4026 62.2093 22.4454C62.2326 22.4883 62.2652 22.5262 62.3051 22.5567C62.3449 22.5872 62.3911 22.6098 62.4407 22.6229C62.4904 22.636 62.5424 22.6395 62.5935 22.633L64.1406 22.4239C64.5398 22.3078 65.2385 21.9826 65.1886 20.9373ZM32.3012 12.7375L16.8057 33.3647C14.9592 35.8734 16.3815 38.475 20.0995 38.0104L29.282 36.7329L27.3856 43.5157C27.3699 43.6107 27.3797 43.708 27.4144 43.7986C27.449 43.8893 27.5073 43.9705 27.584 44.035C27.6607 44.0995 27.7534 44.1452 27.8538 44.1681C27.9542 44.191 28.0591 44.1903 28.1591 44.1661L30.0056 43.9105C32.2264 43.6318 32.8252 42.7956 33.2245 41.4018L34.7216 35.9663C35.5688 35.9589 36.3834 35.6611 37.0095 35.1296C37.6356 34.5982 38.0292 33.8706 38.1151 33.0859L38.6391 31.2276C38.6391 31.065 38.6391 30.6469 38.3397 30.6934L36.1189 30.9721L38.4645 22.842C38.9885 20.914 37.3416 20.5192 35.9692 20.7514L33.474 20.9373L30.5046 31.6225L25.3395 32.5517C24.7406 32.5517 24.516 32.0639 25.04 31.4367L36.7178 15.8037C38.0902 13.8757 37.3167 11.9013 34.5719 12.3194L32.3012 12.7375Z" fill="white"/>
</svg>
