<svg width="185" height="185" viewBox="0 0 185 185" fill="none" xmlns="http://www.w3.org/2000/svg">
<rect x="1.30282" y="1.30282" width="182.394" height="182.394" rx="24.7535" stroke="black" stroke-width="2.60563"/>
<path d="M64.4085 36.6907C64.3381 35.073 62.9314 33.7367 61.2432 33.8774C59.6958 33.9477 58.5 35.2137 58.4297 36.6907V45.834H64.4085V36.6907Z" fill="black"/>
<path d="M34.0024 122.509C34.0727 124.056 35.3388 125.252 36.8159 125.322H45.9599V119.344H36.8159C35.1981 119.414 33.8617 120.821 34.0024 122.509Z" fill="black"/>
<path d="M34.0888 107.657C34.1592 109.134 35.3549 110.33 36.832 110.4H45.9761V104.422H36.832C35.2142 104.563 33.9481 105.969 34.0888 107.587V107.657Z" fill="black"/>
<path d="M34.0024 92.6884C34.0727 94.2357 35.3388 95.4314 36.8159 95.5017H45.9599V89.5234H36.8159C35.1981 89.5938 33.8617 91.0004 34.0024 92.6884Z" fill="black"/>
<path d="M94.1428 36.6907C94.0725 35.073 92.6657 33.7367 90.9776 33.8774C89.4301 33.9477 88.2344 35.2137 88.1641 36.6907V45.834H94.1428V36.6907Z" fill="black"/>
<path d="M151.567 62.7196C151.567 61.102 150.231 59.7656 148.613 59.7656H139.469V65.7439H148.613C150.231 65.7439 151.567 64.4076 151.567 62.7899V62.7196Z" fill="black"/>
<path d="M123.971 36.6907C123.901 35.073 122.494 33.7367 120.806 33.8774C119.258 33.9477 118.063 35.2137 117.992 36.6907V45.834H123.971V36.6907Z" fill="black"/>
<path d="M34.0024 77.7665C34.0727 79.3139 35.3388 80.5095 36.8159 80.5799H45.9599V74.6016H36.8159C35.1981 74.6719 33.8617 76.0786 34.0024 77.7665Z" fill="black"/>
<path d="M79.2444 36.6907C79.1741 35.073 77.7673 33.7367 76.0792 33.8774C74.5317 33.9477 73.336 35.2137 73.2656 36.6907V45.834H79.2444V36.6907Z" fill="black"/>
<path d="M109.065 36.6907C108.994 35.073 107.588 33.7367 105.899 33.8774C104.352 33.9477 103.156 35.2137 103.086 36.6907V45.834H109.065V36.6907Z" fill="black"/>
<path d="M103.086 148.378C103.156 149.995 104.563 151.332 106.251 151.191C107.799 151.121 108.994 149.855 109.065 148.378V139.234H103.086V148.378Z" fill="black"/>
<path d="M148.613 119.344H139.469V125.322H148.613C150.231 125.252 151.567 123.845 151.426 122.157C151.356 120.61 150.09 119.414 148.613 119.344Z" fill="black"/>
<path d="M148.613 104.422H139.469V110.4H148.613C150.231 110.33 151.567 108.923 151.426 107.235C151.356 105.688 150.09 104.492 148.613 104.422Z" fill="black"/>
<path d="M148.613 89.5234H139.469V95.5017H148.613C150.231 95.4314 151.567 94.0247 151.426 92.3368C151.356 90.7894 150.09 89.5938 148.613 89.5234Z" fill="black"/>
<path d="M148.613 74.6562H139.469V80.6346H148.613C150.231 80.5642 151.567 79.1576 151.426 77.4696C151.356 75.9222 150.09 74.7266 148.613 74.6562Z" fill="black"/>
<path d="M33.875 62.7196C33.875 64.3373 35.2114 65.6736 36.8292 65.6736H45.9732V59.6953H36.8292C35.2114 59.6953 33.875 61.0316 33.875 62.6493V62.7196Z" fill="black"/>
<path d="M73.2656 148.378C73.336 149.995 74.7427 151.332 76.4309 151.191C77.9783 151.121 79.1741 149.855 79.2444 148.378V139.234H73.2656V148.378Z" fill="black"/>
<path d="M58.4297 148.378C58.5 149.995 59.9068 151.332 61.5949 151.191C63.1424 151.121 64.3381 149.855 64.4085 148.378V139.234H58.4297V148.378Z" fill="black"/>
<path d="M88.1641 148.378C88.2344 149.995 89.6412 151.332 91.3293 151.191C92.8767 151.121 94.0725 149.855 94.1428 148.378V139.234H88.1641V148.378Z" fill="black"/>
<path d="M117.992 148.378C118.063 149.995 119.469 151.332 121.157 151.191C122.705 151.121 123.901 149.855 123.971 148.378V139.234H117.992V148.378Z" fill="black"/>
<path d="M131.297 47.6641H54.2055C50.6886 47.6641 47.875 50.4774 47.875 53.994V131.079C47.875 134.596 50.6886 137.409 54.2055 137.409H131.297C134.813 137.409 137.627 134.596 137.627 131.079V53.994C137.627 50.4774 134.813 47.6641 131.297 47.6641Z" fill="black"/>
<path d="M63.15 80.7812C66.1118 80.7812 68.3806 81.7745 67.6491 84.8526C67.3795 86.008 66.4555 87.3631 65.2455 87.8293L64.9375 87.8902C66.285 88.2956 67.2063 89.5494 66.6865 91.7385C66.0128 94.6342 63.3782 95.8504 60.2624 95.8504H54.7266L58.2851 80.7812H63.15ZM63.5735 90.8061C63.8237 89.7521 63.2077 89.4278 61.5357 89.4278H59.6904L58.8241 93.0734H60.3999C62.0527 93.0734 63.227 92.2829 63.5735 90.8061ZM64.3435 84.7107C64.5552 83.8188 64.074 83.535 62.633 83.535H61.0764L60.3257 86.755H61.6154C63.0757 86.755 64.0575 85.924 64.3462 84.7107H64.3435Z" fill="white"/>
<path d="M75.3342 80.7812L76.0272 87.4442C76.1042 88.3158 76.1235 89.2656 76.1235 90.198L76.3352 89.8737C76.8357 88.9413 77.2977 87.9915 77.7377 87.1199L81.4696 80.7812H85.2399L81.6813 95.8475H78.5463L79.7975 90.5223C80.1633 89.0253 80.9526 86.7753 81.4696 85.2985L81.3926 85.4607L79.3933 89.0658L76.1235 94.5734H74.2397L73.6429 89.0658L73.3542 85.4607L73.1424 85.6228C72.9499 87.0996 72.7189 89.3496 72.3531 90.8467L71.1789 95.8475H68.1016L71.6601 80.7812H75.3342Z" fill="white"/>
<path d="M87.5894 93.7499L89.0914 87.3763H87.131L87.4318 85.6892C88.633 85.4629 89.4638 85.1311 90.3233 84.6484L92.2693 84.7088L90.1371 93.7499H92.0545L91.5388 95.9197H84.8125L85.3282 93.7499H87.5894Z" fill="white"/>
<path d="M99.8768 86.6474C98.6756 86.6474 97.4867 87.5977 96.7726 89.9463C97.4888 89.1167 98.4178 88.8172 98.9335 88.8172C100.794 88.8172 101.952 90.0217 101.352 92.5987C100.822 94.8439 99.0051 96.1389 97.2023 96.1389C95.0987 96.1389 93.4391 94.3763 94.4397 90.1574C95.3708 86.2402 97.7159 84.5078 99.8195 84.5078C101.322 84.5078 102.21 85.2167 102.754 85.9385L101.166 87.3391C100.923 86.9469 100.364 86.6453 99.8789 86.6453L99.8768 86.6474ZM99.132 92.088C99.3898 90.9892 98.9887 90.7026 98.3871 90.7026C97.7855 90.7026 97.0713 91.0796 96.4267 91.9372C96.1832 93.6998 96.6416 94.1372 97.2289 94.1372C97.9881 94.1372 98.8025 93.4886 99.132 92.088Z" fill="white"/>
<path d="M102.51 92.8874C102.811 91.6226 103.67 90.8082 104.757 90.2501L104.986 90.1596C104.299 89.511 103.885 88.6082 104.198 87.2809C104.599 85.5485 106.159 84.5078 108.033 84.5078C110.051 84.5078 111.111 85.8028 110.653 87.7614C110.423 88.6965 109.693 89.539 108.878 90.0669L108.664 90.1273C109.537 90.6853 110.166 91.6787 109.764 93.3529C109.392 94.9495 107.718 96.141 105.586 96.141C103.454 96.141 102.052 94.8008 102.508 92.8874H102.51ZM107.548 92.7366C107.763 91.892 107.119 91.5472 106.003 91.0495C105.359 91.5321 104.845 92.2389 104.645 93.0835C104.458 93.8678 104.96 94.2729 105.69 94.2729C106.521 94.2729 107.321 93.7601 107.55 92.7366H107.548ZM108.664 87.4317C108.835 86.753 108.578 86.3609 107.919 86.3609C107.26 86.3609 106.531 86.8586 106.302 87.7916C106.13 88.5457 106.603 88.9508 107.503 89.2826C108.119 88.7396 108.506 88.1385 108.661 87.4296L108.664 87.4317Z" fill="white"/>
<path d="M117.653 93.1186L116.994 95.9218H114.619L115.278 93.1186H110.812L111.214 91.2655L116.479 84.7109H119.642L118.14 91.0845H119.327L118.84 93.1186H117.653ZM116.18 89.322C116.352 88.6131 116.667 87.5444 116.868 86.8355L116.796 87.0768C116.366 87.7103 115.937 88.3567 115.523 88.9902L113.763 91.0845H115.767L116.182 89.322H116.18Z" fill="white"/>
<path d="M121.593 84.7131H124.37L124.714 86.8376C124.814 87.3655 124.929 87.9516 125.043 88.6756L125.172 88.4343C125.588 87.7103 125.96 87.1242 126.259 86.5963L127.517 84.7131H130.294L126.187 90.2722L127.747 95.9218H124.97L124.54 93.6314C124.411 93.0432 124.311 92.442 124.196 91.7482L124.067 91.9895C123.652 92.6833 123.279 93.2694 122.938 93.8576L121.493 95.9218H118.688L123.024 90.1516L121.593 84.7109V84.7131Z" fill="white"/>
</svg>
