<svg width="186" height="185" viewBox="0 0 186 185" fill="none" xmlns="http://www.w3.org/2000/svg">
<rect x="1.81063" y="1.30282" width="182.394" height="182.394" rx="24.7535" stroke="black" stroke-width="2.60563"/>
<path d="M35.7622 103.243C37.8998 103.243 39.6416 103.56 41.0666 104.272C42.4917 104.985 43.5209 106.014 44.1543 107.281C44.7876 108.547 44.8668 110.051 44.5501 111.793C44.2335 113.535 43.5209 115.039 42.4125 116.305C41.3041 117.572 39.9582 118.601 38.2165 119.314C36.5539 120.026 34.5746 120.343 32.5162 120.343H29.2702L27.7659 128.497H21.8281L26.4993 103.164H35.683L35.7622 103.243ZM32.8328 115.435C34.2579 115.435 35.4455 115.118 36.4747 114.643C37.5039 114.089 38.0581 113.139 38.2956 111.872C38.5331 110.606 38.2956 109.656 37.4247 109.101C36.633 108.547 35.5246 108.231 34.0996 108.231H31.4869L30.1411 115.435H32.7537H32.8328Z" fill="black"/>
<path d="M53.4999 112.829H63.9504L65.6922 103.25H71.63L66.959 128.583H61.0212L63.0004 118.054H52.5499L50.5706 128.583H44.6328L49.3038 103.25H55.2416L53.4999 112.829Z" fill="black"/>
<path d="M84.9301 113.139L92.0555 103.243H98.3891L86.5928 118.918L84.7719 128.497H78.8341L80.5757 118.918L74.2422 103.164H81.13L84.7719 113.06L84.9301 113.139Z" fill="black"/>
<path d="M33.2898 75.2218L34.7148 69.1261H46.9863L43.9777 81.7132C42.6318 83.3757 40.7318 84.6423 38.4358 85.5131C36.0607 86.4631 33.6064 86.9381 30.9938 86.9381C27.9853 86.9381 25.4519 86.3048 23.3935 84.959C21.3351 83.6132 19.9891 81.7924 19.2766 79.3383C18.5641 76.9634 18.5641 74.1926 19.2766 71.1052C19.9891 68.0178 21.335 65.2471 23.2351 62.793C25.1352 60.4181 27.4312 58.5973 30.0438 57.2515C32.6564 55.9849 35.4273 55.3516 38.2775 55.3516C40.2567 55.3516 42.0776 55.6682 43.5819 56.3015C45.0861 56.9348 46.2737 57.8057 47.0654 58.914C47.8571 60.0222 48.4114 61.2097 48.4905 62.5555L41.761 65.9596C41.5235 64.6929 40.8901 63.6638 40.0192 62.9513C39.1483 62.2388 37.9608 61.843 36.5357 61.843C35.1106 61.843 33.6856 62.2388 32.2605 62.9513C30.9146 63.6638 29.7271 64.7721 28.6979 66.1971C27.6687 67.622 26.9562 69.2845 26.4811 71.1844C25.7686 74.1135 26.0061 76.4092 27.1936 78.0717C28.3812 79.7341 30.2021 80.605 32.7355 80.605C34.6356 80.605 36.2982 80.13 37.565 79.1008L38.515 75.2218H33.1314H33.2898Z" fill="black"/>
<path d="M53.4685 61.5269C52.9143 60.7352 52.6768 59.7853 52.9935 58.7561C53.3102 57.727 53.8643 56.6979 54.8144 55.9062C55.7644 55.1146 56.7937 54.7188 57.9021 54.7188C59.0105 54.7188 59.8022 55.1146 60.3564 55.9062C60.9106 56.6979 61.1481 57.6478 60.8314 58.7561C60.5147 59.8644 59.9606 60.7352 59.0105 61.5269C58.0605 62.3185 57.0313 62.7143 55.9229 62.7143C54.8145 62.7143 54.0227 62.3185 53.3894 61.5269H53.4685ZM53.706 86.4636H46.9766L52.0435 65.0101H58.7729L53.706 86.4636Z" fill="black"/>
<path d="M85.3852 65.0005L80.8726 83.9207C79.8434 88.3539 77.9433 91.5997 75.1723 93.5788C72.4013 95.5579 69.3137 96.587 65.8302 96.587C63.376 96.587 61.3175 96.0329 59.7341 95.0037C58.1507 93.9746 57.2005 92.5496 56.8047 90.7289L62.5842 87.7206C63.1384 89.6997 64.7218 90.7289 67.1761 90.7289C69.1554 90.7289 70.5804 90.1747 71.6097 89.1456C72.6389 88.1165 73.4306 86.454 74.0639 84.1582C72.243 85.979 70.0262 86.929 67.4928 86.929C65.6718 86.929 64.0885 86.454 62.8217 85.5832C61.4758 84.7124 60.5257 83.3666 60.0507 81.7041C59.4965 79.9625 59.4965 77.9834 60.0507 75.6877C60.6049 73.3919 61.555 71.3336 62.9008 69.592C64.2467 67.8504 65.8301 66.5838 67.5719 65.713C69.3136 64.8422 71.1347 64.3672 72.8764 64.3672C75.7265 64.3672 77.5474 65.5546 78.4183 67.8504C78.735 67.1379 79.0516 66.188 79.3683 64.9213H85.3852V65.0005ZM73.7473 79.8834C74.8557 78.9334 75.6473 77.5084 76.0432 75.7668C76.439 74.0252 76.3599 72.6794 75.7266 71.7295C75.0932 70.7795 74.0639 70.3837 72.7972 70.3837C71.5304 70.3837 70.2638 70.8586 69.1554 71.8086C68.1262 72.7586 67.3345 74.1044 66.9386 75.7668C66.5428 77.4293 66.6219 78.7751 67.2553 79.8042C67.8094 80.8333 68.8386 81.3083 70.1845 81.3083C71.4512 81.3083 72.6389 80.8333 73.7473 79.8834Z" fill="black"/>
<path d="M106.137 67.0713C107.404 68.8129 107.641 71.267 106.929 74.4335L104.078 86.5457H98.3781C98.5364 85.3582 98.6157 84.5666 98.6157 84.2499C97.7448 85.1999 96.7155 85.9124 95.6863 86.3873C94.6571 86.8623 93.3904 87.0998 91.9653 87.0998C90.4611 87.0998 89.1152 86.8623 88.0068 86.3082C86.8984 85.754 86.0275 84.9624 85.5525 84.0124C85.0775 82.9833 84.9983 81.7958 85.315 80.45C85.6317 79.1042 86.3443 77.7585 87.4526 76.6502C88.561 75.5419 89.8277 74.7502 91.3319 74.1169C92.8362 73.4836 94.4196 73.2461 96.0822 73.2461C97.5864 73.2461 99.0115 73.4836 100.357 74.0377C100.832 71.3462 99.8824 70.0004 97.5865 70.0004C95.6864 70.0004 94.1029 70.8712 92.8362 72.6919L88.7194 69.9212C89.907 68.2587 91.4903 66.9921 93.3904 66.0421C95.2905 65.0922 97.349 64.6172 99.5657 64.6172C102.653 64.6172 104.87 65.488 106.137 67.2296V67.0713ZM99.3282 78.1543C98.299 77.8376 97.3489 77.7584 96.3197 77.7584C95.2113 77.7584 94.2613 77.9959 93.4696 78.3918C92.6779 78.7876 92.2029 79.3417 92.0446 80.0542C91.8862 80.6875 92.0445 81.1625 92.4403 81.5583C92.8362 81.9542 93.4696 82.1125 94.2613 82.1125C95.2905 82.1125 96.3197 81.7958 97.349 81.1625C98.3782 80.5292 98.9323 79.7376 99.1698 78.7084L99.3282 78.1543Z" fill="black"/>
<path d="M131.531 65.8075C132.797 66.6783 133.668 68.0241 134.143 69.6865C134.618 71.349 134.539 73.4072 133.985 75.7822C133.431 78.1571 132.481 80.1362 131.214 81.7986C129.947 83.4611 128.443 84.8069 126.781 85.6777C125.118 86.5485 123.376 87.0235 121.555 87.0235C120.13 87.0235 118.863 86.7068 117.834 86.1527C116.805 85.5985 116.093 84.6486 115.538 83.4611C115.143 84.4902 114.826 85.5194 114.509 86.4693H108.492L116.013 54.8828H122.822L119.893 67.3908C121.872 65.4117 124.247 64.4617 126.939 64.4617C128.681 64.4617 130.264 64.9367 131.531 65.8075ZM124.801 79.8195C125.91 78.7904 126.622 77.4446 127.018 75.7822C127.414 74.1197 127.335 72.7739 126.701 71.824C126.147 70.874 125.118 70.399 123.772 70.399C122.426 70.399 121.239 70.874 120.13 71.7448C119.022 72.6156 118.309 73.9614 117.834 75.7822C117.359 77.6029 117.518 78.9487 118.151 79.8987C118.784 80.8487 119.814 81.3237 121.08 81.3237C122.347 81.3237 123.614 80.8487 124.643 79.8195H124.801Z" fill="black"/>
<path d="M141.672 61.5269C141.117 60.7352 140.88 59.7853 141.197 58.7561C141.513 57.727 142.068 56.6979 143.018 55.9062C143.968 55.1146 144.997 54.7188 146.105 54.7188C147.214 54.7188 148.005 55.1146 148.56 55.9062C149.193 56.6979 149.351 57.6478 149.114 58.7561C148.876 59.8644 148.243 60.7352 147.293 61.5269C146.343 62.3185 145.314 62.7143 144.205 62.7143C143.097 62.7143 142.305 62.3185 141.672 61.5269ZM141.988 86.4636H135.18L140.247 65.0101H147.055L141.988 86.4636Z" fill="black"/>
<path d="M163.603 84.9539C161.703 86.3788 159.407 87.0121 156.557 87.0121C154.024 87.0121 152.203 86.3788 150.936 85.033C149.749 83.6872 149.511 81.3915 150.303 78.0666L152.044 70.7043H148.086L149.432 65.0045H153.39L155.053 58.1172H161.862L160.199 65.0045H166.77L165.424 70.7043H158.853L157.428 76.8791C157.111 78.2249 157.032 79.3332 157.27 80.1248C157.507 80.9165 158.22 81.2331 159.328 81.2331C160.278 81.2331 161.307 80.9165 162.337 80.2832L163.603 84.9539Z" fill="black"/>
<path d="M23.9642 28.6236H30.4562V30.1277H21.3516V29.0194L25.9435 23.8737C26.8143 22.9237 27.4477 22.1321 27.7644 21.5779C28.081 21.0238 28.2394 20.3905 28.2394 19.7572C28.2394 18.8864 28.0019 18.253 27.5269 17.8572C27.0518 17.4614 26.4976 17.1447 25.7851 17.1447C25.0726 17.1447 24.4392 17.3822 23.9642 17.8572C23.41 18.3322 23.0142 18.9655 22.7767 19.7572L21.3516 18.9655C21.6682 17.9364 22.2225 17.0656 23.0142 16.5114C23.8851 15.8781 24.8351 15.6406 25.8643 15.6406C26.5769 15.6406 27.2894 15.799 27.9227 16.1156C28.5561 16.4323 29.0311 16.9073 29.427 17.5406C29.8228 18.1739 29.9811 18.8864 29.9811 19.7572C29.9811 20.628 29.7436 21.4196 29.3477 22.1321C28.9519 22.9237 28.1602 23.8737 27.131 24.982L23.8851 28.6236H23.9642Z" fill="black"/>
<path d="M36.3899 23.7988L39.0817 20.0781H40.9817L37.3399 25.1446L40.9817 30.2111H38.9233L36.3107 26.4904L33.6189 30.2111H31.7188L35.4398 25.2238L31.7188 20.0781H33.7773L36.3899 23.7988Z" fill="black"/>
</svg>
