<svg width="105" height="270" viewBox="0 0 105 270" fill="none" xmlns="http://www.w3.org/2000/svg">
<path d="M98.97 98.97H90.35V105H105V90.35H98.97V98.97ZM90.35 0V6.03H98.97V14.65H105V0H90.35ZM0 0V14.65H6.03V6.03H14.65V0H0ZM6.03 98.97V90.35H0V105H14.65V98.97H6.03Z" fill="black"/>
<path d="M49.7498 73.3984V78.9916H37.967H37.717V79.2416V82.2498V82.4998H37.967H65.0408H65.2908V82.2498V79.2416V78.9916H65.0408H53.258V73.3984C62.8719 72.5552 70.5163 64.8401 71.2493 55.195L71.2697 54.9261H71H67.9813H67.7528L67.7323 55.1536C66.9842 63.4594 60.0039 69.967 51.5039 69.967C43.0039 69.967 36.0236 63.4594 35.2755 55.1536L35.255 54.9261H35.0265H32.0078H31.7381L31.7585 55.195C32.4915 64.8401 40.1359 72.5552 49.7498 73.3984ZM61.2527 25.874C58.6672 23.2885 55.1604 21.8359 51.5039 21.8359C47.8474 21.8359 44.3407 23.2885 41.7551 25.874C39.1696 28.4596 37.717 31.9663 37.717 35.6228V53.672C37.717 57.3285 39.1696 60.8352 41.7551 63.4207C44.3407 66.0063 47.8474 67.4588 51.5039 67.4588C55.1604 67.4588 58.6672 66.0063 61.2527 63.4207C63.8382 60.8352 65.2908 57.3285 65.2908 53.672V35.6228C65.2908 31.9663 63.8382 28.4596 61.2527 25.874ZM44.2358 28.3547C46.1634 26.4271 48.7778 25.3441 51.5039 25.3441C52.8537 25.3441 54.1903 25.61 55.4374 26.1265C56.6845 26.6431 57.8176 27.4002 58.772 28.3547C59.7265 29.3091 60.4836 30.4423 61.0002 31.6893C61.5167 32.9364 61.7826 34.273 61.7826 35.6228V53.672C61.7826 56.398 60.6997 59.0125 58.772 60.9401C56.8444 62.8677 54.23 63.9506 51.5039 63.9506C48.7778 63.9506 46.1634 62.8677 44.2358 60.9401C42.3082 59.0125 41.2252 56.398 41.2252 53.672V35.6228C41.2252 32.8967 42.3082 30.2823 44.2358 28.3547Z" fill="black" stroke="black" stroke-width="0.5"/>
<path d="M98.97 263.97H90.35V270H105V255.35H98.97V263.97ZM90.35 165V171.03H98.97V179.65H105V165H90.35ZM0 165V179.65H6.03V171.03H14.65V165H0ZM6.03 263.97V255.35H0V270H14.65V263.97H6.03Z" fill="black"/>
<path d="M21.0124 224.137C19.502 222.658 18.6407 220.641 18.6177 218.528C18.5947 216.414 19.4119 214.378 20.8898 212.867L21.0124 212.745C26.5783 207.23 37.9225 198 51.5637 198C65.2048 198 76.576 207.23 82.1269 212.745C82.8757 213.477 83.4728 214.349 83.8842 215.312C84.2956 216.275 84.5133 217.31 84.5246 218.357C84.536 219.404 84.341 220.443 83.9506 221.415C83.5602 222.387 82.9822 223.272 82.2496 224.02L82.1269 224.137C81.0187 225.263 79.8527 226.332 78.6336 227.337L72.4486 231.988C66.3808 236.412 59.0762 238.819 51.5667 238.867C37.9285 238.87 26.5843 229.64 21.0124 224.137ZM24.3651 216.133C23.7551 216.725 23.4036 217.533 23.3874 218.383C23.3712 219.232 23.6914 220.053 24.2784 220.667L24.3651 220.748C29.4136 225.731 39.6333 234.096 51.5637 234.096C58.0805 234.037 64.4152 231.939 69.6791 228.097L75.6787 223.61C76.9917 222.501 77.8231 221.687 78.7563 220.754C79.3699 220.162 79.7237 219.351 79.7399 218.499C79.7562 217.647 79.4336 216.823 78.843 216.208L78.7563 216.121C73.7257 211.127 63.5031 202.773 51.5637 202.773C39.6243 202.773 29.4166 211.169 24.3711 216.136L24.3651 216.133ZM39.7858 218.436C39.783 216.888 40.0857 215.355 40.6764 213.924C41.2672 212.493 42.1344 211.192 43.2284 210.097C44.3224 209.001 45.6218 208.132 47.0521 207.54C48.4824 206.947 50.0155 206.643 51.5637 206.643V206.661C53.8924 206.661 56.1688 207.352 58.1051 208.646C60.0414 209.939 61.5507 211.778 62.442 213.93C63.3333 216.081 63.5666 218.448 63.1125 220.732C62.6584 223.016 61.5373 225.115 59.8908 226.761C58.2444 228.408 56.1466 229.53 53.8627 229.985C51.5788 230.439 49.2113 230.207 47.0597 229.316C44.9081 228.425 43.0689 226.916 41.7747 224.98C40.4805 223.044 39.7894 220.768 39.7888 218.439L39.7858 218.436ZM44.5412 218.436C44.5383 219.825 44.9473 221.184 45.7167 222.34C46.4861 223.496 47.5812 224.398 48.8634 224.932C50.1456 225.466 51.5573 225.607 52.9198 225.338C54.2824 225.069 55.5345 224.402 56.5178 223.421C57.5011 222.44 58.1714 221.19 58.4438 219.828C58.7162 218.466 58.5785 217.054 58.0481 215.771C57.5177 214.487 56.6185 213.39 55.4642 212.617C54.3099 211.845 52.9525 211.432 51.5637 211.432C49.7063 211.437 47.9262 212.176 46.6117 213.488C45.2972 214.8 44.5551 216.579 44.5472 218.436H44.5412Z" fill="black"/>
</svg>
