<svg width="165" height="166" viewBox="0 0 165 166" fill="none" xmlns="http://www.w3.org/2000/svg">
<rect x="2.75" y="2.97656" width="159.5" height="159.5" rx="17.875" stroke="white" stroke-width="5.5"/>
<path d="M66.6101 48.0104L76.0504 31.5103L85.8191 48.0104L78.6773 48.0104L78.6773 88.3164C79.334 87.988 79.9086 87.6597 80.3191 87.3313C84.2594 85.3612 89.431 82.7343 89.431 71.1597L84.5056 71.1597L84.5056 56.9581L98.543 56.9581L98.543 71.1597L93.946 71.1597C93.6176 85.3612 87.0504 88.891 82.2071 91.5179C80.237 92.503 78.6773 93.488 78.2668 94.7194L78.2668 115.652C81.7967 116.637 84.5056 119.839 84.5056 123.779C84.5056 128.376 80.5653 132.234 75.9683 132.234C71.3713 132.234 67.431 128.705 67.431 123.779C67.431 120.249 69.7295 116.966 72.931 116.063L72.931 103.175C71.2892 102.19 69.7295 101.615 68.334 100.876C61.7668 98.2492 57.4981 96.6895 57.4981 81.8313C53.9683 80.8462 51.6698 77.6447 51.6698 73.7044C51.6698 69.1074 55.1996 65.2492 60.2071 65.2492C64.8041 65.2492 68.7444 68.779 68.7444 73.7044C68.7444 77.5626 66.4459 80.5179 62.9161 81.4209C62.9161 93.0776 66.1175 94.3089 70.7146 96.197C71.7817 96.5254 72.6847 96.8537 73.6698 97.4283L73.6698 48.0104L66.6922 47.9283L66.6101 48.0104Z" fill="white"/>
<path d="M90.5873 117.715C90.5873 118.454 90.8335 119.029 91.1619 119.439C91.7365 120.178 92.8037 120.507 94.1992 120.507C95.0201 120.507 95.841 120.342 96.4977 119.932C97.1544 119.604 97.4828 119.029 97.4828 118.208C97.4828 117.633 97.2365 117.223 96.6619 116.895C96.3335 116.73 95.6768 116.484 94.6918 116.238L92.8037 115.745C91.6544 115.417 90.7514 115.171 90.1768 114.76C89.1917 114.186 88.6992 113.283 88.6992 112.215C88.6992 110.984 89.1917 109.917 90.0947 109.096C90.9977 108.275 92.3111 107.947 93.8709 107.947C95.9231 107.947 97.4828 108.521 98.3858 109.753C98.9604 110.492 99.2067 111.312 99.2067 112.215L97.0724 112.215C97.0724 111.723 96.8261 111.23 96.4977 110.82C95.9231 110.245 95.0201 109.917 93.7067 109.917C92.8037 109.917 92.147 110.081 91.6544 110.409C91.244 110.738 90.9977 111.148 90.9977 111.723C90.9977 112.298 91.3261 112.79 91.9007 113.118C92.2291 113.365 92.7216 113.529 93.4604 113.693L95.0201 114.021C96.6619 114.432 97.8112 114.842 98.3858 115.171C99.2888 115.745 99.6992 116.648 99.6992 117.88C99.6992 119.111 99.2067 120.096 98.3037 120.999C97.4007 121.902 95.9231 122.312 94.035 122.312C91.9828 122.312 90.5052 121.82 89.6843 120.917C88.8634 120.014 88.3708 118.865 88.2888 117.551L90.5052 117.551L90.5873 117.715Z" fill="white"/>
<path d="M103.638 117.715C103.638 118.454 103.884 119.029 104.213 119.439C104.787 120.178 105.854 120.507 107.25 120.507C108.071 120.507 108.892 120.342 109.549 119.932C110.205 119.604 110.534 119.029 110.534 118.208C110.534 117.633 110.287 117.223 109.713 116.895C109.384 116.73 108.728 116.484 107.743 116.238L105.854 115.745C104.705 115.417 103.802 115.171 103.228 114.76C102.243 114.186 101.75 113.283 101.75 112.215C101.75 110.984 102.243 109.917 103.146 109.096C104.048 108.275 105.362 107.947 106.922 107.947C108.974 107.947 110.534 108.521 111.437 109.753C112.011 110.492 112.257 111.312 112.257 112.215L110.123 112.215C110.123 111.723 109.877 111.23 109.549 110.82C108.974 110.245 108.071 109.917 106.757 109.917C105.854 109.917 105.198 110.081 104.705 110.409C104.295 110.738 104.048 111.148 104.048 111.723C104.048 112.298 104.377 112.79 104.951 113.118C105.28 113.365 105.772 113.529 106.511 113.693L108.071 114.021C109.713 114.432 110.862 114.842 111.437 115.171C112.34 115.745 112.75 116.648 112.75 117.88C112.75 119.111 112.257 120.096 111.354 120.999C110.451 121.902 108.974 122.312 107.086 122.312C105.034 122.312 103.556 121.82 102.735 120.917C101.914 120.014 101.422 118.865 101.34 117.551L103.556 117.551L103.638 117.715Z" fill="white"/>
</svg>
