<svg width="120" height="120" viewBox="0 0 120 120" fill="none" xmlns="http://www.w3.org/2000/svg">
<rect x="2" y="2" width="116" height="116" rx="13" stroke="url(#paint0_linear_17639_38900)" stroke-width="4"/>
<path d="M61.65 90.3714V95H59.35V90.3714C53.5425 89.8 49 84.9143 49 79H51.3C51.3 84.0286 55.44 88.1429 60.5 88.1429C65.56 88.1429 69.7 84.0286 69.7 79H72C72 84.9143 67.4575 89.8 61.65 90.3714ZM60.5 83.5714C63.03 83.5714 65.1 81.5143 65.1 79V67.5714C65.1 65.0571 63.03 63 60.5 63C57.97 63 55.9 65.0571 55.9 67.5714V79C55.9 81.5143 57.97 83.5714 60.5 83.5714Z" fill="url(#paint1_linear_17639_38900)"/>
<path d="M88.0973 48.2229H84.0516C83.9006 34.8401 73.1483 24 59.9465 24C46.7448 24 35.9925 34.8401 35.8415 48.2229H31.9039C26.4431 48.2229 22 52.5855 22 57.9475V62.2754C22 67.6368 26.4436 72 31.9039 72H38.8832C39.6351 71.9995 40.362 71.7348 40.9323 71.2537C41.5026 70.7726 41.8786 70.1069 41.9924 69.3771C42.0841 69.0833 42.1308 68.7778 42.1308 68.4705V48.507C42.1308 38.4022 50.1233 30.1822 59.9465 30.1822C69.7704 30.1822 77.7623 38.4028 77.7623 48.507V68.4705C77.7623 69.0234 77.9121 69.5394 78.17 69.9879C78.3937 70.5783 78.7958 71.0874 79.3225 71.447C79.8492 71.8067 80.4752 71.9996 81.1168 72H88.0973C93.5569 72 98 67.6373 98 62.2754V57.9475C98.0006 52.5855 93.5569 48.2229 88.0973 48.2229Z" fill="url(#paint2_linear_17639_38900)"/>
<defs>
<linearGradient id="paint0_linear_17639_38900" x1="60" y1="0" x2="60" y2="120" gradientUnits="userSpaceOnUse">
<stop stop-color="#389FFC"/>
<stop offset="1" stop-color="#0079EA"/>
</linearGradient>
<linearGradient id="paint1_linear_17639_38900" x1="60.5" y1="63" x2="60.5" y2="95" gradientUnits="userSpaceOnUse">
<stop stop-color="#389FFC"/>
<stop offset="1" stop-color="#0079EA"/>
</linearGradient>
<linearGradient id="paint2_linear_17639_38900" x1="60" y1="24" x2="60" y2="72" gradientUnits="userSpaceOnUse">
<stop stop-color="#389FFC"/>
<stop offset="1" stop-color="#0079EA"/>
</linearGradient>
</defs>
</svg>
