<svg width="120" height="120" viewBox="0 0 120 120" fill="none" xmlns="http://www.w3.org/2000/svg">
<rect x="1" y="1" width="118" height="118" rx="14" stroke="white" stroke-width="2"/>
<path d="M23.3909 71.8297H67.497C72.1637 71.8103 76.2357 75.0081 77.4342 79.5852C78.6281 84.1369 76.6945 88.9545 72.6897 91.332C70.8197 92.4448 68.6398 92.9224 66.4758 92.6935C64.3119 92.4645 62.2801 91.5413 60.6844 90.0618L60.2466 89.633L59.8312 89.2026C59.391 88.7464 59.15 88.134 59.1612 87.5001C59.1724 86.8663 59.4349 86.2628 59.8909 85.8225L60.7517 84.9916C61.2079 84.5514 61.8203 84.3104 62.4541 84.3216C63.088 84.3328 63.6914 84.5953 64.1318 85.0514L64.5472 85.4818C65.907 86.8894 67.9841 87.1748 69.6383 86.193C71.3344 85.1859 72.1742 83.0909 71.6527 81.1004C71.1745 79.2774 69.6727 77.9923 67.9199 77.8249L67.5104 77.807H23.3909C22.7568 77.807 22.1487 77.5551 21.7003 77.1067C21.2519 76.6583 21 76.0502 21 75.4161V74.2206C21 73.5865 21.2519 72.9784 21.7003 72.53C22.1487 72.0816 22.7568 71.8297 23.3909 71.8297ZM92.7269 40.5583C94.9594 41.8483 96.715 43.8256 97.7316 46.1951C98.7483 48.5646 98.9716 51.1994 98.3683 53.7062C97.7649 56.213 96.3673 58.4576 94.3838 60.105C92.4003 61.7524 89.9373 62.7144 87.3624 62.8474L86.7631 62.8639H23.3909C22.7568 62.8639 22.1487 62.612 21.7003 62.1636C21.2519 61.7152 21 61.1071 21 60.473V59.2775C21 58.6434 21.2519 58.0353 21.7003 57.5869C22.1487 57.1385 22.7568 56.8866 23.3909 56.8866H86.7572C87.7185 56.8851 88.6653 56.6519 89.5173 56.2066C90.3693 55.7613 91.1014 55.1171 91.6514 54.3287C92.2014 53.5402 92.5533 52.6308 92.677 51.6774C92.8007 50.7241 92.6928 49.755 92.3622 48.8522C92.0317 47.9495 91.4883 47.1398 90.7783 46.4917C90.0682 45.8437 89.2123 45.3765 88.2832 45.1296C87.3541 44.8827 86.3791 44.8636 85.4411 45.0737C84.503 45.2839 83.6294 45.7171 82.8944 46.3368L82.5238 46.6775L82.1009 47.1004C81.8786 47.3221 81.6148 47.498 81.3245 47.6178C81.0342 47.7376 80.7232 47.799 80.4092 47.7986C80.0951 47.7982 79.7843 47.7359 79.4943 47.6153C79.2044 47.4948 78.941 47.3183 78.7193 47.0959L77.875 46.2486C77.6533 46.0262 77.4776 45.7623 77.3579 45.472C77.2383 45.1816 77.1769 44.8706 77.1775 44.5566C77.1781 44.2425 77.2405 43.9317 77.3612 43.6418C77.4819 43.3519 77.6585 43.0886 77.881 42.867L78.3039 42.4456C80.1659 40.5889 82.5881 39.3978 85.1954 39.0566C87.8027 38.7154 90.4498 39.2432 92.7269 40.5583ZM60.8637 28.4349C64.7729 30.8213 66.6467 35.6181 65.4916 40.1443C64.3739 44.5301 60.665 47.6682 56.3225 47.9043L55.7517 47.9193H23.3909C22.7571 47.9193 22.1491 47.6676 21.7008 47.2195C21.2525 46.7714 21.0004 46.1637 21 45.5298V44.3344C21 43.7003 21.2519 43.0922 21.7003 42.6438C22.1487 42.1954 22.7568 41.9435 23.3909 41.9435H55.7652C57.5688 41.951 59.1991 40.636 59.6997 38.6695C60.2137 36.6521 59.3889 34.5392 57.7511 33.5395C56.3106 32.6608 54.5443 32.8267 53.2637 33.9415L52.9544 34.2403L52.5449 34.6737C52.3301 34.9027 52.0722 35.0872 51.786 35.2166C51.4999 35.346 51.191 35.4177 50.8771 35.4277C50.5632 35.4377 50.2505 35.3857 49.9567 35.2748C49.6628 35.1639 49.3938 34.9962 49.1648 34.7813L48.2936 33.9624C48.0647 33.7473 47.8805 33.4893 47.7514 33.203C47.6223 32.9168 47.5508 32.6079 47.5411 32.294C47.5314 31.9801 47.5836 31.6674 47.6948 31.3737C47.8059 31.08 47.9739 30.811 48.189 30.5822L48.5969 30.1474C51.8172 26.718 56.8769 26.0037 60.8652 28.4364L60.8637 28.4349Z" fill="white"/>
</svg>
