<svg width="120" height="120" viewBox="0 0 120 120" fill="none" xmlns="http://www.w3.org/2000/svg">
<rect x="1" y="1" width="118" height="118" rx="14" stroke="white" stroke-width="2"/>
<path d="M58.8704 34.7579C59.2598 35.3571 59.4663 36.0504 59.4661 36.7582V83.242C59.4662 83.915 59.2794 84.5757 58.9252 85.1551C58.5709 85.7344 58.0624 86.2111 57.4525 86.5353C56.8427 86.8595 56.154 87.0194 55.4585 86.9981C54.7629 86.9769 54.0861 86.7754 53.4986 86.4146L36.4273 75.931H27.0901C26.7499 75.931 26.4131 75.8662 26.0989 75.7403C25.7847 75.6144 25.4991 75.4299 25.2586 75.1973C25.0181 74.9646 24.8273 74.6885 24.6972 74.3846C24.567 74.0806 24.5 73.7549 24.5 73.4259V46.6093C24.5 46.2803 24.567 45.9546 24.6972 45.6507C24.8273 45.3467 25.0181 45.0706 25.2586 44.838C25.4991 44.6053 25.7847 44.4208 26.0989 44.2949C26.4131 44.169 26.7499 44.1042 27.0901 44.1042H36.2007L53.5128 33.5767C53.9448 33.314 54.426 33.1361 54.9291 33.0533C55.4321 32.9705 55.9471 32.9843 56.4446 33.094C56.9421 33.2037 57.4124 33.4071 57.8286 33.6925C58.2449 33.978 58.5989 34.34 58.8704 34.7579ZM93.6358 50.2567C93.9761 50.5855 94.1781 51.0248 94.2027 51.4894C94.2273 51.954 94.0729 52.4109 93.7692 52.7717L93.6358 52.9133L85.5832 60.7015L94.9309 69.741C95.2953 70.0934 95.5 70.5715 95.5 71.0699C95.5 71.5684 95.2953 72.0464 94.9309 72.3988C94.7504 72.5734 94.5362 72.7118 94.3004 72.8062C94.0647 72.9007 93.812 72.9493 93.5568 72.9493C93.0415 72.9493 92.5472 72.7513 92.1828 72.3988L82.8365 63.3581L73.4888 72.3988C73.1489 72.7276 72.695 72.9227 72.2149 72.9466C71.7348 72.9704 71.2627 72.8212 70.8897 72.5279L70.7421 72.3988C70.4018 72.07 70.1998 71.6307 70.1752 71.1661C70.1505 70.7015 70.305 70.2446 70.6087 69.8838L70.7421 69.741L80.0884 60.7015L72.0371 52.9133C71.8485 52.7407 71.6976 52.5332 71.5933 52.3033C71.489 52.0733 71.4335 51.8254 71.4299 51.5743C71.4264 51.3232 71.4749 51.074 71.5727 50.8413C71.6704 50.6087 71.8154 50.3973 71.999 50.2198C72.1827 50.0423 72.4013 49.9022 72.6418 49.8077C72.8824 49.7133 73.1402 49.6665 73.3998 49.67C73.6594 49.6736 73.9156 49.7274 74.1534 49.8284C74.3911 49.9294 74.6055 50.0754 74.7839 50.2579L82.8365 58.0436L90.8877 50.2567C91.0681 50.0821 91.2823 49.9436 91.5181 49.8491C91.7539 49.7546 92.0066 49.7059 92.2618 49.7059C92.517 49.7059 92.7697 49.7546 93.0054 49.8491C93.2412 49.9436 93.4554 50.0821 93.6358 50.2567Z" fill="white"/>
</svg>
