<svg width="121" height="120" viewBox="0 0 121 120" fill="none" xmlns="http://www.w3.org/2000/svg">
<rect width="120" height="120" transform="translate(0.5)" fill="white"/>
<rect x="11.75" y="25" width="98.7125" height="61.6953" fill="black"/>
<rect x="42.0312" y="86.7031" width="39.2607" height="5.60866" fill="black"/>
<rect x="35.3047" y="92.3008" width="51.5997" height="3.3652" fill="black"/>
<path d="M32.0211 56.4761L34.1977 47.7058H31.3567L31.7913 45.3843C33.5333 45.0733 34.7347 44.6175 35.9784 43.9531L38.7982 44.0362L35.7081 56.4761H38.4854L37.7399 59.4619H28L28.7455 56.4761H32.0211Z" fill="white"/>
<path d="M41.8684 51.3171C43.1527 46.197 45.8276 43.75 48.9371 43.75C52.3363 43.75 53.9954 46.5698 52.628 52.022C51.3417 57.1421 48.6262 59.7552 45.5167 59.7552C42.1156 59.7552 40.5203 56.8118 41.8684 51.3171ZM49.3118 51.3171C50.3277 47.296 49.7464 46.591 48.7942 46.591C47.5504 46.591 46.2854 47.6282 45.1864 52.022C44.1705 56.0644 44.7094 56.8948 45.6635 56.8948C46.9073 56.8948 48.2341 55.7341 49.3118 51.3171Z" fill="white"/>
<path d="M53.6703 55.2764C54.1049 53.5343 55.3506 52.416 56.9247 51.6473L57.2569 51.5237C56.2622 50.6314 55.6596 49.3876 56.1174 47.5644C56.6987 45.1811 58.9584 43.75 61.6739 43.75C64.598 43.75 66.1315 45.5326 65.4671 48.2288C65.1349 49.5151 64.0784 50.6759 62.8964 51.4001L62.5855 51.4832C63.8505 52.2499 64.7621 53.6193 64.1827 55.9195C63.6439 58.1174 61.2181 59.7552 58.1298 59.7552C55.0416 59.7552 53.0098 57.9107 53.6723 55.2764H53.6703ZM60.9689 55.0697C61.2799 53.909 60.347 53.4319 58.7305 52.7482C57.7977 53.4126 57.0521 54.386 56.7605 55.5467C56.4901 56.6244 57.2163 57.1845 58.2747 57.1845C59.4779 57.1845 60.6387 56.4796 60.9709 55.0697H60.9689ZM62.5855 47.7711C62.8346 46.8382 62.4619 46.2994 61.5078 46.2994C60.5537 46.2994 59.4972 46.9831 59.1651 48.2694C58.9159 49.3065 59.5996 49.8666 60.9071 50.3224C61.7994 49.5769 62.3576 48.7464 62.5874 47.773L62.5855 47.7711Z" fill="white"/>
<path d="M67.1145 51.3171C68.3988 46.197 71.0737 43.75 74.1832 43.75C77.5824 43.75 79.2415 46.5698 77.8741 52.022C76.5878 57.1421 73.8723 59.7552 70.7628 59.7552C67.3617 59.7552 65.7664 56.8118 67.1145 51.3171ZM74.5579 51.3171C75.5738 47.296 74.9925 46.591 74.0403 46.591C72.7965 46.591 71.5315 47.6282 70.4325 52.022C69.4166 56.0644 69.9555 56.8948 70.9096 56.8948C72.1534 56.8948 73.4802 55.7341 74.5579 51.3171Z" fill="white"/>
<path d="M87.7646 44.0391C91.1638 44.0391 93.777 45.4065 92.7823 49.4082C91.9113 52.8905 88.8423 54.3429 85.588 54.3429H83.6392L82.3742 59.4629H78.6641L82.4978 44.0391H87.7646ZM89.3406 48.7033C89.6941 47.3359 88.9254 46.9612 87.1427 46.9612H85.4837L84.3635 51.4188H85.8352C87.6391 51.4188 88.9254 50.4029 89.3387 48.7033H89.3406Z" fill="white"/>
</svg>
