<svg width="84" height="87" viewBox="0 0 84 87" fill="none" xmlns="http://www.w3.org/2000/svg">
<rect x="0.75" y="0.75" width="82.5" height="84.8204" rx="8.99586" stroke="black" stroke-width="1.5"/>
<path d="M31.5983 29.953C31.5983 31.795 31.168 33.3479 30.3075 34.6118C29.447 35.8622 28.2638 36.8101 26.758 37.4555C25.2655 38.0874 23.5714 38.4034 21.6757 38.4034C19.7799 38.4034 18.079 38.0874 16.5732 37.4555C15.0673 36.8101 13.8774 35.8622 13.0035 34.6118C12.1295 33.3479 11.6925 31.795 11.6925 29.953C11.6925 28.716 11.9413 27.6001 12.4388 26.6051C12.9362 25.5967 13.6287 24.7362 14.516 24.0236C15.4169 23.2976 16.4723 22.7463 17.6824 22.3699C18.8925 21.98 20.2101 21.785 21.6353 21.785C23.5445 21.785 25.2521 22.1211 26.758 22.7934C28.2638 23.4657 29.447 24.4136 30.3075 25.6371C31.168 26.8606 31.5983 28.2992 31.5983 29.953ZM25.7496 29.5698C25.7496 28.669 25.5748 27.8959 25.2252 27.2505C24.8891 26.5917 24.4118 26.0875 23.7933 25.7379C23.1748 25.3883 22.4555 25.2135 21.6353 25.2135C20.8152 25.2135 20.0958 25.3883 19.4774 25.7379C18.8589 26.0875 18.3748 26.5917 18.0253 27.2505C17.6891 27.8959 17.5211 28.669 17.5211 29.5698C17.5211 30.4572 17.6891 31.2236 18.0253 31.869C18.3748 32.5143 18.8589 33.0118 19.4774 33.3614C20.1093 33.6975 20.842 33.8656 21.6757 33.8656C22.5093 33.8656 23.2286 33.6975 23.8336 33.3614C24.4521 33.0118 24.9227 32.5143 25.2454 31.869C25.5815 31.2236 25.7496 30.4572 25.7496 29.5698ZM30.9731 16.4203C30.9731 17.9128 30.5764 19.2371 29.7831 20.3934C28.9899 21.5363 27.8874 22.4304 26.4756 23.0758C25.0773 23.7211 23.4773 24.0438 21.6757 24.0438C19.8605 24.0438 18.2471 23.7211 16.8354 23.0758C15.4236 22.4304 14.3211 21.5363 13.5278 20.3934C12.7345 19.2371 12.3379 17.9128 12.3379 16.4203C12.3379 14.6456 12.7345 13.1531 13.5278 11.9431C14.3345 10.7195 15.437 9.79182 16.8354 9.1599C18.2471 8.52797 19.8471 8.21201 21.6353 8.21201C23.4504 8.21201 25.0571 8.52797 26.4554 9.1599C27.8672 9.79182 28.9697 10.7195 29.763 11.9431C30.5697 13.1531 30.9731 14.6456 30.9731 16.4203ZM25.1647 16.6825C25.1647 15.8893 25.0235 15.2035 24.7412 14.6254C24.4588 14.0338 24.0555 13.5767 23.5311 13.254C23.0202 12.9313 22.3883 12.77 21.6353 12.77C20.9093 12.77 20.2841 12.9246 19.7597 13.2338C19.2488 13.5431 18.8521 13.9935 18.5698 14.5851C18.3009 15.1632 18.1664 15.8624 18.1664 16.6825C18.1664 17.4758 18.3009 18.175 18.5698 18.78C18.8521 19.3716 19.2555 19.8354 19.7799 20.1716C20.3042 20.5077 20.9362 20.6758 21.6757 20.6758C22.4151 20.6758 23.0403 20.5077 23.5513 20.1716C24.0756 19.8354 24.4723 19.3716 24.7412 18.78C25.0235 18.175 25.1647 17.4758 25.1647 16.6825ZM38.899 8.63553H44.0217L51.5645 30.195L59.1073 8.63553H64.2299L53.6216 38H49.5074L38.899 8.63553ZM36.136 8.63553H41.2385L42.1662 29.6505V38H36.136V8.63553ZM61.8905 8.63553H67.0131V38H60.9627V29.6505L61.8905 8.63553Z" fill="black"/>
<path d="M19.2143 46.6902V76.0547H13.1841V46.6902H19.2143ZM40.1688 68.3707C40.1688 67.8464 40.0881 67.3758 39.9268 66.959C39.7789 66.5287 39.4965 66.1388 39.0797 65.7892C38.6629 65.4262 38.0781 65.0699 37.3251 64.7203C36.5722 64.3707 35.5974 64.0077 34.4008 63.6313C33.0697 63.201 31.8058 62.717 30.6092 62.1792C29.426 61.6414 28.3773 61.0162 27.463 60.3036C26.5622 59.5775 25.8496 58.7372 25.3252 57.7826C24.8143 56.828 24.5588 55.7187 24.5588 54.4549C24.5588 53.2313 24.8277 52.1221 25.3656 51.1272C25.9034 50.1188 26.6563 49.2583 27.6244 48.5457C28.5924 47.8196 29.7353 47.2616 31.0529 46.8717C32.384 46.4818 33.8428 46.2869 35.4293 46.2869C37.594 46.2869 39.4831 46.6768 41.0965 47.4566C42.71 48.2364 43.9604 49.3053 44.8478 50.6633C45.7486 52.0213 46.199 53.5742 46.199 55.3221H40.189C40.189 54.4616 40.0075 53.7086 39.6444 53.0633C39.2949 52.4045 38.757 51.8868 38.031 51.5103C37.3184 51.1339 36.4176 50.9456 35.3285 50.9456C34.2798 50.9456 33.4058 51.107 32.7067 51.4297C32.0075 51.7389 31.4832 52.1624 31.1336 52.7003C30.784 53.2246 30.6092 53.8162 30.6092 54.475C30.6092 54.9725 30.7302 55.4229 30.9722 55.8263C31.2277 56.2296 31.6042 56.6061 32.1016 56.9557C32.5991 57.3053 33.2109 57.6347 33.9369 57.9439C34.663 58.2532 35.5033 58.5557 36.4579 58.8515C38.0579 59.3355 39.4629 59.88 40.673 60.4851C41.8965 61.0901 42.9184 61.7691 43.7385 62.522C44.5587 63.275 45.1772 64.1287 45.594 65.0833C46.0108 66.038 46.2192 67.1203 46.2192 68.3304C46.2192 69.6077 45.9704 70.7505 45.473 71.7589C44.9755 72.7673 44.2562 73.6211 43.315 74.3202C42.3738 75.0194 41.2511 75.5505 39.947 75.9135C38.6428 76.2765 37.1839 76.458 35.5705 76.458C34.1184 76.458 32.6865 76.2698 31.2748 75.8933C29.863 75.5034 28.579 74.9186 27.4227 74.1387C26.2798 73.3589 25.3656 72.364 24.6798 71.1539C23.9941 69.9438 23.6513 68.5119 23.6513 66.8581H29.7218C29.7218 67.7724 29.863 68.5455 30.1454 69.1774C30.4277 69.8094 30.8243 70.3203 31.3353 70.7102C31.8596 71.1001 32.4781 71.3825 33.1907 71.5572C33.9167 71.732 34.71 71.8194 35.5705 71.8194C36.6192 71.8194 37.4797 71.6715 38.152 71.3757C38.8377 71.0799 39.3419 70.6699 39.6646 70.1455C40.0007 69.6211 40.1688 69.0295 40.1688 68.3707ZM61.7686 65.5875H54.2863V60.8683H61.7686C62.9249 60.8683 63.8661 60.68 64.5921 60.3036C65.3182 59.9136 65.8493 59.3758 66.1854 58.6901C66.5215 58.0044 66.6896 57.2313 66.6896 56.3708C66.6896 55.4969 66.5215 54.6834 66.1854 53.9305C65.8493 53.1776 65.3182 52.5725 64.5921 52.1154C63.8661 51.6582 62.9249 51.4297 61.7686 51.4297H56.3838V76.0547H50.3334V46.6902H61.7686C64.0678 46.6902 66.0375 47.107 67.6778 47.9406C69.3316 48.7608 70.5954 49.8969 71.4694 51.349C72.3433 52.8011 72.7803 54.4616 72.7803 56.3305C72.7803 58.2263 72.3433 59.8666 71.4694 61.2514C70.5954 62.6363 69.3316 63.7052 67.6778 64.4581C66.0375 65.2111 64.0678 65.5875 61.7686 65.5875Z" fill="black"/>
</svg>
