<svg width="121" height="120" viewBox="0 0 121 120" fill="none" xmlns="http://www.w3.org/2000/svg">
<rect width="120" height="120" transform="translate(0.5)" fill="white"/>
<path d="M17.2122 42.4228L17.2122 42.4228L14.9348 45.2696L14.9348 45.2696C14.4915 45.8237 14.25 46.5122 14.25 47.2218V62.9879C14.25 63.871 14.6236 64.7128 15.2784 65.3052L28.5549 77.3173C29.1294 77.8371 29.8767 78.125 30.6515 78.125H91.2998C92.1286 78.125 92.9234 77.7958 93.5095 77.2097L105.503 65.2161C106.089 64.6301 106.418 63.8352 106.418 63.0064V46.6524C106.418 45.7031 105.987 44.8053 105.246 44.2122C105.246 44.2122 105.246 44.2122 105.246 44.2122L102.399 41.9348L100.838 43.8852L102.399 41.9348C101.845 41.4915 101.156 41.25 100.447 41.25H19.6524C18.7031 41.25 17.8053 41.6815 17.2122 42.4228Z" stroke="black" stroke-width="5"/>
<path d="M93.9424 54.8047H26.386L24.25 56.3659V59.5839L28.1389 62.6108H92.695L95.8061 59.5839V56.3659L93.9424 54.8047Z" fill="black"/>
<rect x="29.25" y="45.7031" width="3.90306" height="3.90306" rx="1.25" fill="black"/>
<rect x="35.7539" y="45.7031" width="3.90306" height="3.90306" rx="1.25" fill="black"/>
<rect x="42.2578" y="45.7031" width="3.90306" height="3.90306" rx="1.25" fill="black"/>
<rect x="48.7656" y="45.7031" width="3.90306" height="3.90306" rx="1.25" fill="black"/>
<rect x="55.2695" y="45.7031" width="3.90306" height="3.90306" rx="1.25" fill="black"/>
<rect x="61.7734" y="45.7031" width="3.90306" height="3.90306" rx="1.25" fill="black"/>
<rect x="68.2773" y="45.7031" width="3.90306" height="3.90306" rx="1.25" fill="black"/>
<rect x="74.7891" y="45.7031" width="3.90306" height="3.90306" rx="1.25" fill="black"/>
<rect x="81.2891" y="45.7031" width="3.90306" height="3.90306" rx="1.25" fill="black"/>
<rect x="87.7969" y="45.7031" width="3.90306" height="3.90306" rx="1.25" fill="black"/>
<rect x="29.25" y="70.418" width="3.90306" height="3.90306" rx="0.625" fill="black"/>
<rect x="35.7539" y="70.418" width="3.90306" height="3.90306" rx="0.625" fill="black"/>
<rect x="42.2578" y="70.418" width="3.90306" height="3.90306" rx="0.625" fill="black"/>
<rect x="48.7656" y="70.418" width="3.90306" height="3.90306" rx="0.625" fill="black"/>
<rect x="55.2695" y="70.418" width="3.90306" height="3.90306" rx="0.625" fill="black"/>
<rect x="61.7734" y="70.418" width="3.90306" height="3.90306" rx="0.625" fill="black"/>
<rect x="68.2773" y="70.418" width="3.90306" height="3.90306" rx="0.625" fill="black"/>
<rect x="74.7891" y="70.418" width="3.90306" height="3.90306" rx="0.625" fill="black"/>
<rect x="81.2891" y="70.418" width="3.90306" height="3.90306" rx="0.625" fill="black"/>
<rect x="87.7969" y="70.418" width="3.90306" height="3.90306" rx="0.625" fill="black"/>
</svg>
