<svg width="24" height="25" viewBox="0 0 24 25" fill="none" xmlns="http://www.w3.org/2000/svg">
<path d="M15.2686 13.271C15.2686 13.9626 14.7543 14.5295 14.1029 14.5295C13.4629 14.5295 12.9371 13.9626 12.9371 13.271C12.9371 12.5794 13.4514 12.0125 14.1029 12.0125C14.7543 12.0125 15.2686 12.5794 15.2686 13.271ZM9.93143 12.0125C9.28 12.0125 8.76571 12.5794 8.76571 13.271C8.76571 13.9626 9.29143 14.5295 9.93143 14.5295C10.5829 14.5295 11.0971 13.9626 11.0971 13.271C11.1086 12.5794 10.5829 12.0125 9.93143 12.0125ZM22 4.8356V20.1514C22 21.4485 20.9485 22.5 19.6514 22.5H17.3029H4.34286C3.05143 22.5 2 21.4569 2 20.1644V4.8356C2 3.54308 3.05143 2.5 4.34286 2.5H19.6571C20.9486 2.5 22 3.54308 22 4.8356ZM18.7429 15.5839C18.7429 11.9331 17.0971 8.97392 17.0971 8.97392C15.4514 7.74943 13.8857 7.78345 13.8857 7.78345L13.7257 7.96485C15.6686 8.55442 16.5714 9.40476 16.5714 9.40476C13.8567 7.92867 10.6677 7.9284 8.03429 9.07596C7.61143 9.26871 7.36 9.40476 7.36 9.40476C7.36 9.40476 8.30857 8.50907 10.3657 7.9195L10.2514 7.78345C10.2514 7.78345 8.68571 7.74943 7.04 8.97392C7.04 8.97392 5.39429 11.9331 5.39429 15.5839C5.39429 15.5839 6.35429 17.2279 8.88 17.3073C8.88 17.3073 9.30286 16.7971 9.64571 16.3662C8.19429 15.9354 7.64571 15.0283 7.64571 15.0283C7.81384 15.1451 8.09107 15.2964 8.11429 15.3118C10.0433 16.3835 12.7834 16.7346 15.2457 15.7086C15.6457 15.5612 16.0914 15.3458 16.56 15.0397C16.56 15.0397 15.9886 15.9694 14.4914 16.3889C14.8343 16.8197 15.2457 17.3073 15.2457 17.3073C17.7714 17.2279 18.7429 15.5839 18.7429 15.5839Z" fill="white"/>
</svg>
