<svg width="24" height="25" viewBox="0 0 24 25" fill="none" xmlns="http://www.w3.org/2000/svg">
<path d="M11.999 1.5C5.92513 1.5 1 6.43377 1 12.5214C1 17.392 4.15078 21.5226 8.52304 22.9813C9.07209 23.08 9.24617 22.7551 9.24617 22.4628C9.24617 22.2002 9.25191 21.4689 9.24617 20.5489C6.18722 21.214 5.55304 19.0969 5.55304 19.0969C5.05278 17.8232 4.33348 17.4849 4.33348 17.4849C3.33391 16.8006 4.40713 16.815 4.40713 16.815C5.51 16.8917 6.09252 17.9497 6.09252 17.9497C7.07391 19.6346 8.66652 19.1477 9.29304 18.866C9.39443 18.1548 9.67756 17.667 9.99226 17.3939C7.5493 17.114 4.982 16.17 4.982 11.9445C4.982 10.7417 5.41052 9.75841 6.11452 8.98691C6.00165 8.70994 5.62287 7.58767 6.22165 6.07054C6.22165 6.07054 7.14661 5.7744 9.24617 7.20144C10.144 6.95609 11.0703 6.83105 12.001 6.82959C12.9345 6.83438 13.8757 6.95609 14.7557 7.20144C16.8553 5.77536 17.7774 6.07054 17.7774 6.07054C18.3771 7.58767 17.9993 8.70994 17.8864 8.98691C18.5904 9.75841 19.018 10.7417 19.018 11.9445C19.018 16.1806 16.4459 17.1112 13.9953 17.3824C14.3894 17.7245 14.7481 18.3858 14.7481 19.4142V22.4657C14.7481 22.7608 14.926 23.0857 15.4846 22.9794C19.8521 21.5197 23 17.39 23 12.5214C23 6.43377 18.0758 1.5 11.999 1.5Z" fill="white"/>
</svg>
