<svg width="24" height="25" viewBox="0 0 24 25" fill="none" xmlns="http://www.w3.org/2000/svg">
<path d="M11.1619 2.69531C11.1707 2.69531 11.1794 2.69531 11.1925 2.69531C11.2232 2.70844 11.2538 2.69969 11.2888 2.70406C11.3238 2.70406 11.3544 2.70406 11.3894 2.70406C11.4638 2.70406 11.5382 2.70406 11.6125 2.70406C11.6475 2.70406 11.6825 2.70406 11.7175 2.70406C11.7482 2.70406 11.7744 2.70406 11.805 2.70406C12.7325 2.70406 13.5988 2.94031 14.4082 3.38656C14.885 3.64906 15.3094 3.98594 15.6813 4.37969C16.04 4.75594 16.3375 5.18031 16.5869 5.63531C17.1075 6.58469 17.405 7.60406 17.5538 8.67156C17.5975 8.99531 17.6282 9.32344 17.6457 9.64719C17.6675 10.0366 17.65 10.4259 17.6588 10.8109C17.6588 10.8372 17.6588 10.8634 17.6457 10.8897C17.6325 10.9422 17.5888 10.9509 17.545 10.9641C17.1994 11.0647 16.8494 11.1522 16.4994 11.2266C15.8607 11.3666 15.2132 11.4847 14.5657 11.5722C14.1238 11.6291 13.6775 11.6816 13.2313 11.7166C12.8944 11.7428 12.5532 11.7603 12.2163 11.7778C11.7875 11.7997 11.3588 11.7953 10.9344 11.7866C10.5538 11.7778 10.1732 11.7516 9.79254 11.7209C9.12316 11.6684 8.45379 11.5897 7.79316 11.4803C7.01879 11.3534 6.24879 11.1916 5.49629 10.9772C5.44816 10.9641 5.39566 10.9509 5.37379 10.8984C5.35629 10.8722 5.35629 10.8416 5.35629 10.8153C5.35629 10.4697 5.34316 10.1197 5.36066 9.77406C5.38691 9.12656 5.46566 8.48781 5.60566 7.85781C5.74129 7.24969 5.93379 6.65906 6.19629 6.09469C6.44566 5.55219 6.76066 5.04906 7.15004 4.59406C7.47379 4.21344 7.84129 3.88531 8.25691 3.60531C8.74254 3.28156 9.26754 3.04531 9.82754 2.89656C10.16 2.80906 10.4925 2.74344 10.8382 2.71719C10.93 2.70406 11.0482 2.70844 11.1619 2.69531Z" fill="white"/>
<path d="M11.5119 8.7292C12.1157 8.72482 12.7019 8.75982 13.2882 8.8342C13.8 8.89982 14.3032 8.9917 14.7888 9.17107C14.9069 9.21482 15.0207 9.26295 15.1213 9.33732C15.1475 9.3592 15.1738 9.38107 15.2 9.40295C15.2744 9.48607 15.27 9.5517 15.1869 9.6217C15.0425 9.73982 14.8807 9.82732 14.7144 9.91045C13.9532 10.2911 13.1569 10.5536 12.3125 10.6717C11.6738 10.7636 11.035 10.7417 10.405 10.6192C9.57379 10.4573 8.78629 10.1861 8.05129 9.76607C7.97254 9.72232 7.89379 9.6742 7.82816 9.61295C7.74941 9.54295 7.74504 9.4817 7.81504 9.40295C7.86754 9.3417 7.93316 9.30232 8.00316 9.26295C8.26566 9.12732 8.54566 9.04857 8.83004 8.98295C9.33316 8.86482 9.84504 8.7992 10.3613 8.75982C10.7507 8.74232 11.14 8.72482 11.5119 8.7292Z" fill="white"/>
<path d="M14.1937 6.66743C14.1849 7.10055 14.0843 7.51618 13.8087 7.86618C13.6555 8.06305 13.463 8.20743 13.2093 8.24243C12.9074 8.28618 12.6668 8.16805 12.4655 7.9493C12.2337 7.69993 12.1199 7.39367 12.0718 7.06117C12.0105 6.62805 12.0587 6.20367 12.2555 5.80555C12.3562 5.59992 12.4962 5.42055 12.6887 5.2893C13.008 5.07492 13.3799 5.0968 13.6687 5.34617C13.9399 5.57805 14.0755 5.88868 14.1455 6.22993C14.1805 6.3743 14.1893 6.51868 14.1937 6.66743Z" fill="white"/>
<path d="M10.9574 6.7322C10.9574 7.14345 10.8655 7.52408 10.6161 7.86095C10.4674 8.05783 10.2793 8.2022 10.0299 8.24158C9.76301 8.28533 9.53989 8.19345 9.34301 8.01845C9.08051 7.7822 8.93614 7.47595 8.86614 7.1347C8.76114 6.64033 8.80489 6.15908 9.04551 5.70845C9.12426 5.5597 9.23364 5.42845 9.36926 5.32345C9.70614 5.06533 10.1218 5.09158 10.4368 5.38908C10.6949 5.6297 10.8349 5.93158 10.9093 6.27283C10.9443 6.42158 10.9618 6.5747 10.9574 6.7322Z" fill="white"/>
<path d="M7.14822 20.6406C7.43697 20.8725 7.73447 21.0869 8.05822 21.2662C8.70572 21.6294 9.39259 21.8656 10.1232 21.9925C10.5695 22.0712 11.0201 22.1062 11.4707 22.1106C11.2782 22.1281 11.0857 22.15 10.8976 22.1631C10.1232 22.2156 9.34447 22.2462 8.57009 22.2594C7.98822 22.2681 7.40634 22.2637 6.82447 22.2375C6.45697 22.22 6.08947 22.1937 5.72634 22.1106C5.67822 22.0975 5.63447 22.0844 5.58634 22.0712C5.36759 22.01 5.33697 21.8306 5.38947 21.66C5.42884 21.5287 5.51634 21.4369 5.62134 21.3538C5.86634 21.1613 6.14634 21.0256 6.43509 20.9075C6.66259 20.8069 6.90322 20.7281 7.14822 20.6406Z" fill="white"/>
<path d="M11.5469 22.1126C11.7744 22.1082 12.0062 22.0995 12.2337 22.082C13.4237 21.977 14.5219 21.6226 15.5019 20.9226C15.6287 20.8351 15.7469 20.7345 15.8694 20.6426C16.1712 20.7432 16.4687 20.8482 16.7575 20.9795C16.9806 21.0845 17.1994 21.1982 17.3962 21.3513C17.5231 21.452 17.6237 21.5701 17.65 21.7407C17.6719 21.8938 17.615 21.9988 17.475 22.0557C17.2869 22.1345 17.0856 22.1607 16.8844 22.187C16.1712 22.2701 15.4494 22.2745 14.7319 22.2701C14.1019 22.2657 13.4719 22.2482 12.8419 22.2132C12.4175 22.1913 11.9931 22.1607 11.5687 22.1257C11.56 22.117 11.5556 22.1126 11.5469 22.1126Z" fill="white"/>
<path fill-rule="evenodd" clip-rule="evenodd" d="M17.9631 11.7395C17.8527 11.4638 17.7422 11.1882 17.6328 10.9126C17.6153 10.9213 17.5934 10.9301 17.5672 10.9345C16.7666 11.1663 15.9484 11.337 15.1216 11.4682C14.5528 11.5601 13.9797 11.6301 13.4022 11.6782C12.9078 11.722 12.4091 11.7526 11.9103 11.7613C11.0353 11.7788 10.1603 11.7351 9.28969 11.6476C8.78656 11.5951 8.28781 11.5338 7.78906 11.4507C7.16781 11.3501 6.55094 11.2276 5.94281 11.0701C5.91687 11.0634 5.89093 11.0569 5.865 11.0503C5.70289 11.0094 5.54122 10.9686 5.38281 10.9082C5.37406 10.9344 5.36531 10.9563 5.35657 10.9782L5.35656 10.9782C5.28 11.1707 5.20234 11.3643 5.12469 11.5579C5.04703 11.7515 4.96937 11.9451 4.89281 12.1376C4.82937 12.2995 4.76484 12.4624 4.70031 12.6254C4.63578 12.7884 4.57125 12.9513 4.50781 13.1132C4.50819 13.1133 4.50856 13.1134 4.50894 13.1135C4.49999 13.1143 4.49104 13.1168 4.4821 13.1219C4.42221 13.248 4.37367 13.3809 4.32504 13.514C4.30617 13.5657 4.28729 13.6174 4.26772 13.6688C3.8521 14.7932 3.48022 15.9307 3.31397 17.1207C3.2571 17.5363 3.2221 17.9563 3.27897 18.3763C3.29647 18.4857 3.31835 18.595 3.37522 18.6957C3.42335 18.7788 3.47147 18.7919 3.55897 18.7613C3.61147 18.7438 3.65522 18.7132 3.69897 18.6825L3.69897 18.6825C3.84335 18.5732 3.96585 18.4419 4.08397 18.3019C4.47335 17.8469 4.80585 17.3482 5.1296 16.845L5.13576 16.8344C5.14604 16.8163 5.15575 16.7991 5.17772 16.7882C5.17772 16.7969 5.17881 16.8057 5.17991 16.8144C5.181 16.8232 5.1821 16.8319 5.1821 16.8407C5.18647 17.0638 5.20834 17.2825 5.25209 17.4969C5.42272 18.3544 5.79022 19.1244 6.32834 19.8113C6.56897 20.1175 6.84022 20.3932 7.12897 20.6469C7.13598 20.675 7.15423 20.689 7.17471 20.7047L7.17473 20.7047C7.1798 20.7086 7.18501 20.7126 7.19022 20.7169C7.76334 21.185 8.40209 21.5307 9.1021 21.7669C9.59209 21.9332 10.0952 22.0338 10.6071 22.0907C10.8915 22.1213 11.1715 22.1388 11.4558 22.1169H11.5302C11.7796 22.1388 12.0333 22.1257 12.2871 22.0994C12.6808 22.06 13.0746 21.99 13.4596 21.8894C14.3215 21.6575 15.109 21.2725 15.8002 20.7038L15.8083 20.6975C15.8272 20.6828 15.8445 20.6694 15.8483 20.6425C15.8505 20.6403 15.8516 20.6382 15.8527 20.636C15.8538 20.6338 15.8549 20.6316 15.8571 20.6294C16.4827 20.0957 16.9727 19.4569 17.3227 18.7132C17.5415 18.2494 17.6946 17.7638 17.7602 17.2519C17.7753 17.146 17.7821 17.0381 17.7892 16.9251L17.7892 16.9251L17.7892 16.925C17.7923 16.8747 17.7955 16.8233 17.7996 16.7707L17.8222 16.8064L17.8222 16.8064C17.8964 16.9236 17.9643 17.0309 18.0358 17.1382C18.3421 17.5975 18.6571 18.0525 19.0333 18.4594C19.1427 18.5732 19.2565 18.6869 19.4052 18.7525C19.5015 18.7919 19.5583 18.7744 19.6065 18.6825C19.6458 18.6082 19.6677 18.525 19.6852 18.4419C19.6947 18.4038 19.6985 18.3649 19.7022 18.3262V18.3261C19.7069 18.276 19.7117 18.2263 19.729 18.1794C19.729 18.14 19.729 18.1007 19.7115 18.0744C19.6983 17.9913 19.6983 17.9082 19.7115 17.825V17.7069C19.6982 17.6904 19.7 17.6713 19.7017 17.6536C19.7022 17.6478 19.7027 17.6422 19.7027 17.6369C19.7018 17.6111 19.7011 17.5851 19.7004 17.5591V17.559C19.6976 17.4568 19.6948 17.353 19.6808 17.2519C19.624 16.7838 19.5321 16.32 19.414 15.865C19.2652 15.2744 19.0858 14.6969 18.8802 14.1282C18.7708 13.8219 18.6615 13.5157 18.5433 13.2138C18.5413 13.2083 18.5393 13.2026 18.5374 13.1968C18.5278 13.1688 18.5176 13.1389 18.4914 13.1225C18.4968 13.1208 18.5023 13.1192 18.5078 13.1176L18.5078 13.1176C18.4378 12.9338 18.3678 12.7501 18.2934 12.5663C18.1841 12.2907 18.0736 12.0151 17.9631 11.7395ZM6.86914 13.7036C6.86804 13.7023 6.86697 13.7009 6.86594 13.6995C6.85208 13.6966 6.83823 13.6937 6.82438 13.6907C6.83003 13.6956 6.83534 13.7013 6.84022 13.7082C6.85608 13.7875 6.84204 13.8645 6.82812 13.9408L6.82812 13.9408C6.82284 13.9698 6.81758 13.9987 6.81397 14.0275C6.78772 14.2725 6.76584 14.5132 6.74397 14.7582C6.70897 15.2044 6.70897 15.6463 6.71772 16.0925C6.73522 16.8625 6.83584 17.6194 7.09397 18.3457C7.29959 18.9232 7.58835 19.4569 7.99522 19.9207C8.38905 20.3672 8.84617 20.7082 9.36213 20.9493C9.12966 20.8372 8.90523 20.7027 8.68955 20.5437C8.00705 20.0405 7.53018 19.3755 7.2108 18.5924C6.98768 18.0455 6.85643 17.4812 6.79518 16.8949C6.72518 16.2212 6.7208 15.543 6.7558 14.8649C6.76453 14.472 6.80376 14.0878 6.86914 13.7036Z" fill="white"/>
<path d="M13.1423 6.42773C13.3173 6.43648 13.4923 6.46273 13.6542 6.54586C13.7986 6.62023 13.8161 6.78211 13.6936 6.88711C13.6323 6.93961 13.5711 6.93523 13.5055 6.90023C13.3873 6.83461 13.2605 6.79086 13.1248 6.78211C12.8886 6.76898 12.6961 6.86086 12.5342 7.02273C12.4555 7.10148 12.4073 7.11023 12.3461 7.06211C12.2805 7.00523 12.2673 6.92211 12.3286 6.83898C12.5298 6.56336 12.8055 6.43648 13.1423 6.42773Z" fill="white"/>
<path d="M9.75781 6.80275C9.75781 6.65838 9.79719 6.514 9.88906 6.38713C10.0597 6.15088 10.3441 6.14213 10.5322 6.36088C10.7466 6.60588 10.7422 7.04338 10.5278 7.28838C10.3528 7.48963 10.0903 7.48525 9.91969 7.284C9.80594 7.14838 9.75781 6.9865 9.75781 6.80275Z" fill="white"/>
<path d="M12.0043 17C12.0043 19.2091 10.6611 21 9.00425 21C7.3474 21 6.00425 19.2091 6.00425 17C6.00425 14.7909 5.84342 12.5 7.50028 12.5C9.15713 12.5 12.0043 14.7909 12.0043 17Z" fill="white"/>
</svg>
