<svg width="24" height="25" viewBox="0 0 24 25" fill="none" xmlns="http://www.w3.org/2000/svg">
<path d="M1.07031 11.2732C1.55003 5.76164 6.36551 1.59686 11.4505 1.5C11.8572 1.6153 12.2638 1.60608 12.6658 1.50461C14.0776 1.55996 15.4299 1.8782 16.6726 2.55619C17.3899 2.94361 18.0935 3.34025 18.756 3.8522C21.4653 5.9369 22.8496 8.72726 22.9867 12.0665C23.1283 15.4702 21.8445 18.3851 19.286 20.6728C17.1843 22.5545 14.7035 23.5046 11.9029 23.5C6.37465 23.4908 1.57745 19.1415 1.07488 13.7407C1.16626 12.9197 1.17083 12.0941 1.07031 11.2732Z" fill="white"/>
<path d="M1.0731 11.2754C1.31068 12.0964 1.30154 12.9173 1.07767 13.7429C0.972587 12.9219 0.977156 12.0964 1.0731 11.2754Z" fill="white"/>
<path d="M12.6684 1.50461C12.2618 1.73522 11.8552 1.73983 11.4531 1.5C11.8597 1.5 12.2664 1.50461 12.6684 1.50461Z" fill="white"/>
<path d="M8.24433 14.1309C7.4448 13.8541 6.63613 13.5866 5.84116 13.2961C5.57617 13.1992 5.18326 13.1669 5.16498 12.8256C5.14214 12.4382 5.54876 12.346 5.83202 12.226C8.18494 11.2483 10.5424 10.2843 12.8953 9.32038C13.9233 8.90067 14.9604 8.49019 15.9884 8.06587C16.3539 7.91828 16.7057 7.79375 17.0666 8.06126C17.2402 8.28726 17.2128 8.52248 17.0849 8.7577C16.5595 11.2898 16.0341 13.8172 15.5132 16.3493C15.4219 16.7829 15.3579 17.221 15.2482 17.6453C15.0289 18.5355 14.6223 18.6877 13.8685 18.1481C12.9913 17.5162 12.2192 16.746 11.278 16.1971C10.6292 15.9757 10.1175 15.5837 9.79771 14.9564C10.081 14.0894 10.8394 13.6143 11.4425 13.0378C12.4202 12.1154 13.4025 11.1975 14.1609 10.4873C12.6212 11.608 10.7206 12.738 8.89766 13.9787C8.70578 14.117 8.50018 14.2554 8.24433 14.1309Z" fill="#A5A5A5"/>
<path d="M8.24219 14.1315C10.4215 12.7156 12.6008 11.295 14.8029 9.86523C13.9943 10.7415 13.2541 11.6594 12.3952 12.448C11.5089 13.2644 10.6362 14.0854 9.85496 15.0032C9.97832 15.6212 9.96918 16.2439 9.85039 16.8527C9.78643 17.1709 9.8047 17.5906 9.33412 17.6644C8.82699 16.5344 8.54373 15.3306 8.24219 14.1315Z" fill="#999999"/>
<path d="M9.33594 17.669C9.66489 17.1294 9.66946 16.5252 9.68773 15.9164C9.69687 15.612 9.57351 15.2661 9.85221 15.0078C10.3274 15.4091 10.7979 15.8057 11.2731 16.207C10.967 16.742 10.4873 17.111 10.0532 17.5168C9.87962 17.6736 9.64661 17.9873 9.33594 17.669Z" fill="#666666"/>
<path d="M17.0808 8.76089C17.0762 8.53028 17.0716 8.29506 17.0625 8.06445C17.2864 8.29506 17.4189 8.52106 17.0808 8.76089Z" fill="white"/>
</svg>
