<svg width="24" height="25" viewBox="0 0 24 25" fill="none" xmlns="http://www.w3.org/2000/svg">
<g clip-path="url(#clip0_2744_73682)">
<path d="M16.2173 8.5512C16.4944 8.5512 16.7677 8.57148 17.0383 8.60089C16.301 5.20295 12.6291 2.67773 8.43826 2.67773C3.75255 2.67773 -0.0859375 5.83835 -0.0859375 9.8514C-0.0859375 12.1675 1.19138 14.0697 3.32506 15.5451L2.47263 18.0831L5.45219 16.6041C6.51903 16.8126 7.37403 17.0277 8.43826 17.0277C8.70562 17.0277 8.97035 17.0146 9.2338 16.9937C9.06709 16.4303 8.97035 15.8393 8.97035 15.2268C8.97038 11.5419 12.1683 8.5512 16.2173 8.5512ZM11.6348 6.26393C12.2768 6.26393 12.7016 6.68228 12.7016 7.31703C12.7016 7.94915 12.2768 8.37275 11.6348 8.37275C10.9955 8.37275 10.3549 7.94915 10.3549 7.31703C10.3549 6.68228 10.9955 6.26393 11.6348 6.26393ZM5.66921 8.37272C5.02987 8.37272 4.38532 7.94912 4.38532 7.31701C4.38532 6.68226 5.02987 6.2639 5.66921 6.2639C6.30784 6.2639 6.73342 6.68226 6.73342 7.31701C6.73342 7.94915 6.30784 8.37272 5.66921 8.37272ZM23.9976 15.1254C23.9976 11.753 20.5872 9.00421 16.7572 9.00421C12.7016 9.00421 9.5077 11.753 9.5077 15.1254C9.5077 18.5028 12.7016 21.2457 16.7572 21.2457C17.6057 21.2457 18.4621 21.0352 19.3144 20.8234L21.6528 22.0902L21.0115 19.9827C22.7229 18.712 23.9976 17.0277 23.9976 15.1254ZM14.4065 14.0697C13.9823 14.0697 13.5541 13.652 13.5541 13.2258C13.5541 12.8055 13.9823 12.3825 14.4065 12.3825C15.051 12.3825 15.4733 12.8055 15.4733 13.2258C15.4733 13.652 15.051 14.0697 14.4065 14.0697ZM19.0948 14.0697C18.6739 14.0697 18.2483 13.652 18.2483 13.2258C18.2483 12.8055 18.6739 12.3825 19.0948 12.3825C19.7341 12.3825 20.1616 12.8055 20.1616 13.2258C20.1616 13.652 19.7341 14.0697 19.0948 14.0697Z" fill="white"/>
</g>
<defs>
<clipPath id="clip0_2744_73682">
<rect width="24" height="24" fill="white" transform="translate(0 0.5)"/>
</clipPath>
</defs>
</svg>
