<svg width="70" height="69" viewBox="0 0 70 69" fill="none" xmlns="http://www.w3.org/2000/svg">
<g clip-path="url(#clip0_14802_54687)">
<path d="M34.2765 57.6097C33.9935 57.6134 33.7126 57.5611 33.45 57.4557C33.1874 57.3504 32.9482 57.1941 32.7462 56.9959C32.439 56.697 32.2331 56.3095 32.1573 55.8877C32.0815 55.4659 32.1396 55.031 32.3235 54.6438C33.7603 51.5196 34.1919 48.0265 33.5587 44.6465C32.9256 41.2665 31.2588 38.1664 28.7886 35.7741C25.494 32.583 21.0841 30.8033 16.4974 30.8139C14.0289 30.8112 11.5862 31.3162 9.32118 32.2976C8.92149 32.4765 8.4778 32.5331 8.04601 32.4603C7.61422 32.3875 7.21364 32.1885 6.89472 31.8884C6.58755 31.5896 6.38162 31.2021 6.30581 30.7803C6.23 30.3584 6.28811 29.9235 6.47199 29.5364C7.56642 27.2095 9.06723 25.0966 10.9039 23.2969C15.0156 19.3045 20.5288 17.0832 26.2599 17.1099H27.2093C30.6868 11.1444 36.08 6.53061 42.512 4.01887C46.2109 2.57217 50.1467 1.82675 54.1184 1.82068C56.5338 1.80879 58.9422 2.08322 61.293 2.63824C61.6742 2.71974 62.0248 2.90687 62.3046 3.17822C62.5845 3.44958 62.7824 3.79422 62.8756 4.17274C64.0885 9.16333 63.9661 14.3853 62.5208 19.3136C61.0754 24.2419 58.358 28.7028 54.6418 32.2477C52.6312 34.2056 50.3586 35.875 47.8891 37.208C48.0487 41.4635 46.914 45.6673 44.6347 49.2645C42.3554 52.8617 39.0388 55.683 35.1228 57.3561C34.8772 57.5328 34.5796 57.6221 34.2773 57.6097H34.2765ZM16.3909 26.6212C22.1226 26.5858 27.6379 28.8085 31.7435 32.8083C34.8937 35.8517 37.0148 39.803 37.8105 44.1103C38.2138 46.2872 38.2495 48.5162 37.9161 50.7049C38.1267 50.551 38.2856 50.3464 38.4961 50.1976C40.3413 48.4273 41.7533 46.2554 42.6226 43.8506C43.4918 41.4459 43.7948 38.873 43.508 36.3321C43.456 35.8984 43.5463 35.4596 43.7653 35.0816C43.9842 34.7036 44.32 34.407 44.722 34.2363C47.2775 33.0086 49.6125 31.3672 51.6328 29.3783C54.6655 26.4829 56.9253 22.8745 58.206 18.8819C59.4868 14.8894 59.7479 10.6398 58.9654 6.52057C57.3642 6.22988 55.7389 6.09286 54.1117 6.11137C47.1267 6.07337 40.4044 8.77157 35.384 13.6283C33.3759 15.5876 31.6851 17.8475 30.3721 20.3268C30.1642 20.7082 29.8473 21.0189 29.4619 21.2193C29.0766 21.4197 28.6403 21.5008 28.2086 21.4521C27.5754 21.4014 26.8897 21.3498 26.2641 21.3498C21.6724 21.3148 17.2534 23.098 13.972 26.3101C13.7835 26.4842 13.6083 26.6721 13.4478 26.8723C14.4205 26.6819 15.4109 26.5969 16.4019 26.6187H16.3942L16.3909 26.6212ZM13.4901 54.5897C12.8203 54.5899 12.151 54.5557 11.4847 54.4874C11.0285 54.4195 10.605 54.2103 10.2738 53.8893C9.94259 53.5683 9.72032 53.1515 9.63822 52.6976C9.5858 52.3907 8.53067 44.6658 13.9644 39.3504C16.549 36.8453 18.7125 35.715 20.8752 35.715C23.4606 35.715 25.2538 37.4532 26.2015 38.3739C27.1493 39.2946 28.8393 40.9306 28.945 43.3342C29.0507 45.4816 27.8375 47.6807 25.1971 50.2889C21.3469 54.0216 16.2294 54.5847 13.485 54.5847L13.4901 54.5897ZM20.876 39.9152C20.3518 39.9152 19.1851 40.2221 17.025 42.3188C15.3263 44.0258 14.265 46.2642 14.0185 48.6597C13.9203 49.2344 13.8674 49.8159 13.8604 50.3988C15.9741 50.3472 19.5562 49.8357 22.1958 47.3307C24.4117 45.1832 24.7321 44.0072 24.6755 43.5464C24.4245 42.6917 23.9081 41.939 23.201 41.3973C22.0935 40.272 21.4602 39.9143 20.8777 39.9143L20.876 39.9152ZM48.1504 22.5301C46.9055 22.4907 45.6999 22.0857 44.6838 21.3654C43.6677 20.6452 42.8863 19.6417 42.4369 18.4801C41.9876 17.3186 41.8902 16.0504 42.1571 14.8339C42.4239 13.6173 43.0431 12.5063 43.9373 11.6395C44.8316 10.7726 45.9613 10.1883 47.1855 9.95942C48.4098 9.73056 49.6743 9.86729 50.8213 10.3525C51.9683 10.8378 52.9471 11.6501 53.6354 12.6881C54.3237 13.7261 54.691 14.9437 54.6917 16.1892C54.6649 17.8971 53.961 19.5246 52.7347 20.7136C51.5084 21.9027 49.86 22.5561 48.1521 22.5301H48.1504ZM48.1504 14.0933C47.586 14.0876 47.0423 14.3051 46.6375 14.6985C46.2328 15.0918 45.9998 15.6291 45.9894 16.1934C46.0095 16.7545 46.2458 17.2861 46.6489 17.6769C47.052 18.0677 47.5906 18.2874 48.1521 18.2901C48.7161 18.2961 49.2598 18.0792 49.6649 17.6866C50.07 17.294 50.3038 16.7574 50.3156 16.1934C50.3129 15.6352 50.0888 15.1009 49.6925 14.7078C49.2962 14.3147 48.7601 14.0949 48.2019 14.0967H48.1546L48.1504 14.0933Z" fill="#74BC1F"/>
</g>
<defs>
<clipPath id="clip0_14802_54687">
<rect width="68.7273" height="68.7273" fill="white" transform="translate(0.632812 0.132812)"/>
</clipPath>
</defs>
</svg>
