<svg width="376" height="36" viewBox="0 0 376 36" fill="none" xmlns="http://www.w3.org/2000/svg">
<path d="M6.96221 10.3496C6.79798 14.6033 6.60637 18.8021 6.44214 23.0284C6.30528 27.2272 6.16842 31.426 5.70309 35.4602C3.89652 35.4602 2.39105 35.4327 0.858198 35.4602C0.119147 35.4602 -0.0450865 35.2681 0.00965803 34.4997C0.173892 31.6181 0.228636 28.7091 0.365497 25.8276C0.721337 18.5825 1.10455 11.3375 1.48776 4.11993C1.51513 3.43384 1.56988 2.74776 1.5425 2.06168C1.51513 1.54026 1.73411 1.34815 2.19944 1.34815C4.03338 1.34815 5.83995 1.26582 7.67389 1.32071C7.97499 1.32071 8.41294 1.62259 8.5498 1.89702C11.0407 6.80937 13.5042 11.7492 15.9677 16.7164C16.5699 17.9239 17.0626 19.2137 17.6921 20.6682C18.0206 20.0645 18.267 19.6528 18.4859 19.2412C20.4294 15.207 22.4002 11.1729 24.3436 7.13869C25.1374 5.46465 25.9859 3.81805 26.7524 2.14401C27.0261 1.51281 27.4914 1.3756 28.0662 1.3756C29.1611 1.3756 30.2834 1.45793 31.3783 1.43048C32.0626 1.43048 32.7195 1.29327 33.5407 1.21094C33.5954 1.48537 33.7049 1.81469 33.7323 2.14401C34.006 7.68755 34.2797 13.2585 34.5808 18.8021C34.8546 23.9889 35.1009 29.2031 35.402 34.3899C35.4567 35.2406 35.2651 35.5425 34.3619 35.4876C33.1848 35.4053 32.0078 35.4602 30.8582 35.4876C30.1192 35.4876 29.7086 35.3778 29.6812 34.4997C29.4622 29.999 29.1611 25.4708 28.9695 20.9701C28.8327 18.116 28.8053 15.2619 28.7505 12.4078C28.7505 11.6943 28.8327 10.9533 28.8874 10.2398C28.8053 10.2123 28.7232 10.1849 28.6684 10.1574C28.2852 10.8435 27.8199 11.5022 27.5735 12.2431C26.1228 16.6341 23.5224 20.4487 21.4969 24.5377C21.141 25.2787 20.7031 25.9648 20.3746 26.7058C20.0735 27.4467 19.6082 27.7212 18.8144 27.776C15.8035 27.9133 15.7213 27.8858 14.3801 25.2238C12.9567 22.4795 11.4786 19.79 10.11 17.0183C9.17937 15.1247 8.38557 13.1762 7.53703 11.2552C7.40017 10.9259 7.18119 10.6514 7.01696 10.377L6.96221 10.3496Z" fill="#E39033"/>
<path d="M82.919 31.9472C79.5249 35.5972 75.7475 36.6674 71.3406 35.3776C68.1654 34.472 66.4409 32.0295 65.4829 29.0931C64.0869 24.6747 64.0322 20.2289 65.9482 15.8654C67.5906 12.1606 70.5741 10.2396 74.461 9.71813C76.8971 9.38881 79.388 9.36137 81.7968 10.2396C81.8789 10.267 81.9884 10.2396 82.1526 10.1847C82.1526 9.38881 82.1526 8.59296 82.1526 7.76966C82.1252 5.51931 82.0705 3.2964 82.0157 1.04605C82.0157 0.497187 82.18 0.222754 82.7 0.222754C84.2329 0.222754 85.7657 0.195312 87.2712 0.195312C87.9008 0.195312 87.8187 0.68929 87.8187 1.12838C87.8187 6.94636 87.846 12.7643 87.846 18.5823C87.846 23.9338 87.846 29.3126 87.846 34.6641C87.846 35.1581 87.7365 35.4051 87.2165 35.4051C86.1216 35.4051 84.9993 35.4051 83.9044 35.4051C83.2475 35.4051 83.2201 35.0209 83.1927 34.4994C83.138 33.7036 83.0011 32.8803 82.8643 31.8923L82.919 31.9472ZM82.18 20.9973C82.18 19.241 82.18 17.4846 82.18 15.7282C82.18 15.1519 82.0431 14.8226 81.3862 14.7677C79.8807 14.6579 78.3479 14.3835 76.8424 14.3835C73.9957 14.3561 72.0522 15.8654 70.93 18.4177C69.8077 20.9424 69.9172 23.6593 70.5741 26.1841C71.7511 30.7671 74.0504 31.81 77.9373 30.7397C80.8114 29.9713 82.5358 28.2698 82.2347 25.1138C82.0979 23.7691 82.2347 22.3969 82.2347 21.0248L82.18 20.9973Z" fill="#E39033"/>
<path d="M178.776 20.7738C179.844 20.6366 180.912 20.664 181.87 20.3347C182.636 20.0603 183.512 19.5388 183.922 18.8802C185.264 16.6573 186.413 14.3246 187.618 12.0194C187.672 11.937 187.7 11.8273 187.727 11.7449C188.302 10.1258 188.302 10.1258 189.999 10.0983C191.34 10.0983 192.709 10.0983 194.187 10.0983C193.968 10.8119 193.859 11.4705 193.558 12.0194C191.806 15.4498 189.972 18.8802 188.22 22.3106C188.028 22.6674 187.974 23.2711 188.165 23.6004C190.109 26.976 192.107 30.324 194.105 33.6721C194.406 34.1935 194.735 34.715 195.008 35.1815C194.871 35.3462 194.817 35.4559 194.789 35.4559C192.955 35.4559 191.094 35.4834 189.26 35.3736C188.877 35.3736 188.412 34.8247 188.165 34.4131C186.797 32.1353 185.373 29.885 184.224 27.4974C183.32 25.6038 182.089 24.7531 180.008 25.2196C179.652 25.3019 179.242 25.2196 178.776 25.2196V35.5108C176.943 35.5108 175.191 35.5383 173.466 35.4559C173.275 35.4559 172.946 34.8522 172.946 34.5229C172.891 32.9312 172.946 31.3394 172.946 29.7477C172.946 20.3896 172.946 11.004 172.946 1.6458C172.946 1.17927 173.001 0.685286 173.028 0.21875H178.831V20.7738H178.776Z" fill="#E39033"/>
<path d="M61.5987 24.2324C59.5184 24.2324 57.7119 24.2324 55.8779 24.2324C52.429 24.2324 48.9801 24.2324 45.5312 24.1501C44.6553 24.1501 44.409 24.4794 44.6279 25.2478C44.8469 26.0162 45.0385 26.8121 45.2849 27.5805C45.9692 29.7211 47.6389 30.6541 49.6644 30.9286C52.9217 31.3677 56.1517 31.0384 59.3268 30.1327C59.6553 30.023 60.0111 29.9132 60.367 29.9132C61.0239 29.9132 61.3524 30.1053 61.1608 30.9286C60.9692 31.8342 61.0787 32.7947 60.9418 33.7004C60.9144 34.0022 60.6133 34.4688 60.367 34.5511C56.0422 35.9507 51.5805 36.4172 47.1736 35.3744C41.9455 34.1394 39.8104 31.3128 38.8798 25.879C38.5513 24.0403 38.4692 22.0644 38.7429 20.2531C39.2356 17.1246 40.1936 14.1333 42.8487 11.9927C45.367 9.98934 48.2684 9.41304 51.3615 9.60514C53.4418 9.74236 55.4674 10.0168 57.3013 11.2243C60.367 13.2825 61.4345 16.2739 61.5714 19.7592C61.6261 21.1862 61.5714 22.6133 61.5714 24.2324H61.5987ZM44.6006 20.4178C44.929 20.4178 45.2301 20.4727 45.5586 20.4727C48.6243 20.4178 51.6626 20.308 54.7283 20.308C55.6316 20.308 55.8779 19.9238 55.8506 19.1554C55.7137 16.7953 54.5367 14.3254 51.5257 14.1058C47.1188 13.7765 44.8743 16.1092 44.6006 20.4452V20.4178Z" fill="#E39033"/>
<path d="M167.253 29.7766C167.198 31.1762 167.143 32.5484 167.034 33.8931C167.034 34.1401 166.678 34.5243 166.404 34.5792C163.421 35.2927 160.464 36.0886 157.371 35.8416C155.784 35.7318 154.169 35.6495 152.663 35.2104C148.804 34.0578 146.204 31.533 145.273 27.5263C144.26 23.1354 144.397 18.8268 146.696 14.7651C148.393 11.7738 150.994 10.1272 154.278 9.77047C156.359 9.55092 158.521 9.6607 160.574 9.99002C164.105 10.5389 167.39 14.4358 167.581 18.0583C167.663 19.7598 167.499 21.4888 167.472 23.2177C167.472 24.0135 167.089 24.1782 166.377 24.1782C161.587 24.1508 156.824 24.1782 152.034 24.1508C151.596 24.1508 151.131 24.1508 150.72 24.1508C150.309 25.9895 151.815 29.1454 153.375 30.0511C155.045 31.0116 156.824 31.1488 158.658 31.0939C161.34 31.0116 163.968 30.6548 166.541 29.859C166.705 29.8041 166.924 29.8041 167.253 29.7766ZM150.391 20.2538C151.185 20.2538 151.705 20.2538 152.198 20.2538C155.127 20.2538 158.028 20.2813 160.957 20.2538C161.286 20.2538 161.86 19.9245 161.86 19.7324C161.915 18.1681 161.641 16.6862 160.519 15.4238C159.26 13.9967 157.618 13.9967 155.975 14.0516C154.032 14.134 152.472 15.0121 151.596 16.8234C151.103 17.8662 150.829 18.9914 150.391 20.2538Z" fill="#E39033"/>
<path d="M123.95 35.4065H119.571C119.461 34.3637 119.352 33.3483 119.215 32.1956C118.804 32.5524 118.448 32.8543 118.092 33.1562C114.452 36.2573 110.319 36.6689 106.021 34.9949C103.503 34.0069 102.08 31.8663 101.998 29.0671C101.888 26.1307 103.448 24.1548 105.912 22.8375C107.664 21.9044 109.58 21.4928 111.551 21.4928C113.22 21.4928 114.863 21.5476 116.532 21.6025C117.08 21.6025 117.627 21.6025 118.421 21.6025C118.284 20.0932 118.311 18.5838 117.983 17.1567C117.545 15.3729 115.875 14.8789 114.37 14.6594C111.468 14.2203 108.594 14.7417 105.748 15.318C105.282 15.4278 104.844 15.812 104.242 16.1413C104.16 15.565 104.023 15.0436 103.996 14.5222C103.941 13.644 103.886 12.7658 103.941 11.8876C103.941 11.5583 104.242 11.0918 104.488 10.982C108.512 9.50004 112.7 9.22561 116.888 9.91169C121.295 10.6252 124.087 13.0951 124.142 18.0075C124.197 23.6882 124.142 29.3964 124.087 35.0772C124.087 35.187 124.032 35.3242 123.978 35.4888L123.95 35.4065ZM118.311 25.1976C117.107 25.1153 116.149 25.0055 115.164 24.9781C114.315 24.9506 113.439 24.8408 112.645 25.0329C111.386 25.3074 110.072 25.5818 109.005 26.213C107.144 27.2833 107.39 30.2472 109.306 31.2077C111.66 32.3603 115.93 31.6193 117.819 29.6983C118.038 29.4788 118.284 29.1494 118.284 28.875C118.339 27.6675 118.284 26.4326 118.284 25.225L118.311 25.1976Z" fill="#E39033"/>
<path d="M139.386 35.4009C138.072 35.4009 136.84 35.4009 135.609 35.4009C133.364 35.4009 133.309 35.4009 133.309 33.1505C133.255 24.5333 133.255 15.9161 133.255 7.29894C133.255 7.13429 133.255 6.96963 133.255 6.72264H122.881C122.826 5.04859 122.744 3.37455 122.771 1.70051C122.771 1.5633 123.373 1.34375 123.702 1.34375C127.342 1.34375 130.983 1.34375 134.651 1.34375C139.359 1.34375 144.094 1.34375 148.802 1.34375C150.089 1.34375 150.089 1.34375 150.061 2.66103C150.061 3.70387 150.006 4.74672 150.061 5.78957C150.061 6.42076 149.842 6.66775 149.213 6.66775C146.749 6.66775 144.258 6.64031 141.795 6.66775C141.056 6.66775 140.317 6.75008 139.441 6.77752C139.441 11.5801 139.441 16.3278 139.441 21.0755C139.441 25.8232 139.441 30.4885 139.441 35.4558L139.386 35.4009Z" fill="#E39033"/>
<path d="M92.7501 10.1016C94.6114 10.1016 96.3633 10.1016 98.1151 10.129C98.3067 10.129 98.6351 10.5681 98.6351 10.8151C98.6351 16.1391 98.6078 21.4905 98.6078 26.8145C98.6078 29.4491 98.6078 32.0836 98.6625 34.7182C98.6625 35.4043 98.3341 35.4317 97.814 35.4317C96.3906 35.4317 94.9399 35.4043 93.5165 35.4866C92.8049 35.5141 92.6406 35.2945 92.6406 34.6084C92.6954 26.842 92.7227 19.0755 92.7775 11.2816C92.7775 10.8974 92.7775 10.5132 92.7775 10.1016H92.7501Z" fill="#E39033"/>
<path d="M99.0165 3.23996C99.0165 5.13355 97.5658 6.58804 95.6771 6.53316C93.5147 6.47827 92.1734 5.13355 92.2282 3.10275C92.2555 1.26405 93.7337 -0.0532331 95.7592 0.00165347C97.73 0.0565401 99.0439 1.34638 99.0439 3.23996H99.0165Z" fill="#E39033"/>
<path d="M223.605 17.6958H228.149C228.149 18.1623 228.149 18.6014 228.149 19.0405C228.149 22.4983 228.094 25.9562 228.094 29.4415C228.094 29.9904 227.93 30.2922 227.355 30.402C225.028 30.8411 222.701 31.1979 220.347 31.2253C217.939 31.2253 215.585 31.0881 213.34 29.9904C210.685 28.7005 208.961 26.6423 208.057 23.9528C206.689 19.9187 206.579 15.8022 208.139 11.7406C209.754 7.54174 212.875 5.26395 217.282 4.57787C220.539 4.05644 223.742 4.52298 226.944 5.09929C227.136 5.12673 227.409 5.45605 227.409 5.6756C227.409 6.74589 227.382 7.78874 227.327 8.85902C227.327 9.29812 227.108 9.38045 226.698 9.27067C224.07 8.55715 221.36 8.36504 218.678 8.63947C215.338 8.96879 212.847 10.7801 212.054 14.7868C211.506 17.4488 211.67 20.0833 212.519 22.6356C213.395 25.1878 215.311 26.7246 218.021 26.999C219.718 27.1637 221.47 26.999 223.194 26.9442C223.331 26.9442 223.577 26.6148 223.605 26.4227C223.659 25.5171 223.659 24.584 223.659 23.6784C223.659 21.7299 223.659 19.7815 223.659 17.7232L223.605 17.6958Z" fill="white"/>
<path d="M247.173 26.4785C247.173 27.5488 247.228 28.427 247.146 29.3052C247.119 29.6345 246.818 30.1559 246.516 30.2382C243.122 31.2811 239.646 31.6927 236.142 30.7596C233.049 29.9363 231.188 27.8506 230.449 24.8044C229.792 22.0876 229.874 19.3432 230.75 16.6812C231.9 13.1959 234.473 11.467 237.976 11.1102C239.318 10.973 240.741 11.0279 242.027 11.3298C244.737 11.961 246.462 13.7448 247.31 16.4068C247.83 18.0808 247.639 19.7823 247.611 21.4838C247.611 21.9229 247.365 22.1699 246.9 22.1699C245.586 22.1973 244.272 22.2522 242.958 22.2797C240.166 22.2797 237.374 22.2797 234.582 22.2797C234.117 24.4477 236.033 26.9999 238.442 27.4116C241.179 27.8781 243.807 27.4116 246.434 26.6431C246.653 26.5883 246.872 26.5059 247.173 26.4236V26.4785ZM238.852 19.3158C240.193 19.3158 241.535 19.3158 242.849 19.3158C243.259 19.3158 243.478 19.1511 243.341 18.7395C243.122 17.9436 242.931 17.1752 242.657 16.4068C242.356 15.5012 241.699 14.9249 240.768 14.7053C237.292 13.9095 235.239 15.364 234.527 18.7944C234.418 19.2883 234.664 19.3432 235.047 19.3432C236.307 19.3432 237.566 19.3432 238.825 19.3432L238.852 19.3158Z" fill="white"/>
<path d="M253.959 13.9628C254.342 13.6884 254.561 13.5512 254.753 13.359C257.025 11.2459 259.735 10.7245 262.691 11.2734C264.881 11.685 266.988 14.0726 267.29 16.4601C267.426 17.75 267.481 19.0673 267.481 20.3845C267.481 23.6777 267.454 26.9709 267.426 30.2641C267.426 30.813 267.262 31.0325 266.687 30.9776C266.085 30.9228 265.456 30.9228 264.826 30.8679C263.731 30.7581 263.184 30.2367 263.102 29.1115C263.02 27.8217 262.992 26.5318 262.992 25.242C262.992 23.4856 263.047 21.7293 262.992 19.9729C262.937 18.7928 262.718 17.6128 262.527 16.4601C262.445 15.8838 261.021 15.0056 260.255 14.8959C258.092 14.6214 256.313 15.4722 254.863 16.9816C254.616 17.2286 254.507 17.75 254.507 18.1342C254.507 22.086 254.479 26.0653 254.507 30.0171C254.507 30.6483 254.37 30.9502 253.713 30.8679C252.864 30.7581 251.988 30.7306 251.167 30.5385C250.319 30.3464 250.018 29.6604 250.018 28.8371C250.018 23.6228 250.018 18.3812 250.018 13.1669C250.018 12.8651 250.018 12.5632 250.018 12.2888C249.936 11.3282 249.936 11.3282 250.866 11.3557C251.523 11.3557 252.153 11.3831 252.782 11.3557C253.275 11.3282 253.467 11.5203 253.549 11.9594C253.658 12.5632 253.795 13.1669 253.959 13.9354V13.9628Z" fill="white"/>
<path d="M276.812 20.8225C276.484 15.6632 281.438 10.6685 286.858 10.6411C292.579 10.5862 297.314 15.6357 297.205 21.0695C297.095 26.2289 292.634 31.1687 286.748 31.0589C281.055 30.9766 276.566 25.8172 276.812 20.8225ZM293.427 20.9049C293.427 16.7884 290.225 14.5655 287.351 14.4282C283.382 14.2361 280.508 17.0628 280.535 20.6579C280.562 24.4725 283.354 27.2991 287.05 27.2717C290.608 27.2717 293.427 24.4176 293.427 20.9049Z" fill="white"/>
<path d="M270.359 11.2774C271.263 11.2774 272.002 11.2774 272.741 11.2774C274.192 11.3323 274.903 12.1007 274.903 13.5278C274.903 19.0165 274.903 24.5051 274.903 29.9938C274.903 30.625 274.712 30.8445 274.082 30.7622C273.562 30.7073 273.042 30.7622 272.522 30.7073C271.016 30.6524 270.305 29.8566 270.305 28.3472C270.305 25.054 270.359 21.7608 270.359 18.4676C270.359 16.2996 270.359 14.1041 270.359 11.9361C270.359 11.6891 270.359 11.4421 270.359 11.25V11.2774Z" fill="white"/>
<path d="M306.321 12.0156C307.361 13.6622 307.827 15.5009 308.155 17.3396C308.894 21.3463 308.292 25.2158 306.786 28.9756C306.622 29.3872 306.348 29.5519 305.938 29.3872C305.199 29.0854 304.323 28.8932 304.049 27.9876C303.912 27.576 303.858 27.0545 303.994 26.6429C305.226 22.9381 305.39 19.2332 304.104 15.5009C304.022 15.2814 303.967 15.0618 303.912 14.8697C303.693 13.8543 303.83 13.525 304.706 12.9487C305.171 12.6468 305.637 12.3724 306.102 12.098C306.129 12.098 306.184 12.0705 306.321 12.0156Z" fill="white"/>
<path d="M301.534 14.3516C303.641 16.9587 303.669 24.2037 301.588 27.2774C300.931 26.9206 300.274 26.5364 299.617 26.1796C299.07 25.8777 298.933 25.4661 299.043 24.8898C299.234 24.0116 299.426 23.1609 299.563 22.2827C299.809 20.6635 299.645 19.0993 299.234 17.5075C298.851 16.053 298.933 15.9433 300.22 15.1474C300.658 14.873 301.096 14.626 301.534 14.3516Z" fill="white"/>
<path d="M272.406 9.54714C271.092 9.54714 269.668 8.20242 269.641 6.96747C269.614 5.01899 270.928 4.08592 272.378 4.00359C273.884 3.92126 275.143 5.26599 275.143 6.77537C275.143 8.20242 273.829 9.5197 272.406 9.54714Z" fill="white"/>
<path d="M319.055 15.6664V13.9923L324.611 10.7266H325.843V30.9523H324.228V12.7025L319.055 15.6664Z" fill="white"/>
<path d="M335.233 29.5028H345.142V30.9573H332.742V29.9144L339.832 21.654C340.926 20.3916 341.693 19.3762 342.131 18.5529C342.569 17.7296 342.788 16.8789 342.788 15.9458C342.788 14.7108 342.432 13.7229 341.72 13.0094C341.009 12.2958 340.078 11.9116 338.956 11.9116C337.888 11.9116 336.958 12.2409 336.109 12.927C335.288 13.5857 334.686 14.5462 334.302 15.7537L333.016 15.0127C333.426 13.5308 334.166 12.4056 335.288 11.6098C336.41 10.8139 337.669 10.4297 339.065 10.4297C340.105 10.4297 341.036 10.6492 341.885 11.0883C342.706 11.5274 343.363 12.1586 343.828 12.9819C344.293 13.8052 344.54 14.7657 344.54 15.8635C344.54 16.9612 344.266 18.0589 343.746 19.0743C343.226 20.0623 342.322 21.2698 341.036 22.6968L335.206 29.5028H335.233Z" fill="white"/>
<path d="M358.851 28.5971C357.756 30.3535 356.223 31.2591 354.225 31.2591C352.227 31.2591 350.722 30.381 349.654 28.5971C348.587 26.8408 348.039 24.2611 348.039 20.8581C348.039 17.4552 348.587 14.8755 349.654 13.0917C350.722 11.3079 352.254 10.4297 354.225 10.4297C356.196 10.4297 357.756 11.3079 358.851 13.0917C359.919 14.8481 360.466 17.4552 360.466 20.8856C360.466 24.316 359.919 26.8408 358.851 28.6246V28.5971ZM354.225 29.7223C357.209 29.7223 358.714 26.7584 358.714 20.8581C358.714 14.9578 357.209 11.9116 354.225 11.9116C351.242 11.9116 349.764 14.9029 349.764 20.8581C349.764 26.8133 351.242 29.7223 354.225 29.7223Z" fill="white"/>
<path d="M374.07 28.5971C372.975 30.3535 371.442 31.2591 369.444 31.2591C367.446 31.2591 365.94 30.381 364.873 28.5971C363.805 26.8408 363.258 24.2611 363.258 20.8581C363.258 17.4552 363.805 14.8755 364.873 13.0917C365.94 11.3079 367.473 10.4297 369.444 10.4297C371.415 10.4297 372.975 11.3079 374.07 13.0917C375.137 14.8481 375.685 17.4552 375.685 20.8856C375.685 24.316 375.137 26.8408 374.07 28.6246V28.5971ZM369.444 29.7223C372.428 29.7223 373.933 26.7584 373.933 20.8581C373.933 14.9578 372.428 11.9116 369.444 11.9116C366.46 11.9116 364.982 14.9029 364.982 20.8581C364.982 26.8133 366.46 29.7223 369.444 29.7223Z" fill="white"/>
</svg>
