<svg width="64" height="63" viewBox="0 0 64 63" fill="none" xmlns="http://www.w3.org/2000/svg">
<path d="M34.7078 55.5117C33.5921 56.124 32.7812 56.3966 32.0801 56.3966C31.374 56.3966 30.5865 56.1268 29.4525 55.4911C10.5261 44.91 10.5886 39.1134 10.8211 17.5479C10.8446 15.4036 10.8692 13.1156 10.8766 10.6643C13.9624 9.74409 17.0763 8.92106 20.2138 8.19644C23.7853 7.36599 27.7578 6.82934 32.0189 6.5991C40.1253 7.50917 46.3433 8.7096 53.0786 10.6752C53.0906 13.4455 53.1267 16.0044 53.1577 18.3749C53.4503 40.051 53.5219 45.2021 34.7078 55.5117ZM56.8477 18.3234C56.8117 15.5714 56.7704 12.5698 56.7641 9.27317C56.7649 8.87393 56.6374 8.485 56.4003 8.16378C56.1632 7.84255 55.8292 7.60603 55.4474 7.48912C47.9281 5.20566 41.2151 3.86719 32.2743 2.87008C32.1758 2.85978 32.0766 2.85691 31.9776 2.86149C27.4451 3.09802 23.2092 3.66846 19.3862 4.55619C15.5398 5.45021 11.872 6.43874 8.48894 7.49313C8.11032 7.61316 7.77992 7.85095 7.54587 8.17185C7.31181 8.49274 7.18633 8.87999 7.1877 9.27718C7.1877 12.2445 7.15677 14.9758 7.131 17.5073C6.89676 39.0418 6.8097 47.0995 27.6667 58.7614C29.3866 59.723 30.7067 60.1325 32.0801 60.1325C33.4283 60.1325 34.7817 59.7201 36.4661 58.798C57.2424 47.4094 57.1519 40.6666 56.8477 18.3234ZM45.0186 19.1556L28.3775 36.0602L20.2081 27.7637C19.9811 27.5326 19.7105 27.3489 19.4119 27.2233C19.1134 27.0977 18.7928 27.0328 18.4689 27.0322C18.145 27.0316 17.8242 27.0954 17.5252 27.2199C17.2261 27.3444 16.9548 27.5271 16.727 27.7574C16.2646 28.2266 16.0049 28.8586 16.0039 29.5173C16.0028 30.1761 16.2604 30.8089 16.7213 31.2796L26.6341 41.3453C27.0968 41.8138 27.7228 42.0778 28.3775 42.0778C29.0321 42.0778 29.6598 41.8138 30.1208 41.3442L48.5054 22.6687C48.9664 22.1983 49.2239 21.5655 49.2225 20.9069C49.2211 20.2483 48.9609 19.6166 48.498 19.1481C48.2705 18.9174 47.9994 18.7343 47.7005 18.6096C47.4015 18.4849 47.0807 18.421 46.7567 18.4217C46.4328 18.4224 46.1122 18.4876 45.8138 18.6137C45.5154 18.7397 45.245 18.9239 45.0186 19.1556Z" fill="#74BC1F"/>
</svg>
