<svg width="70" height="69" viewBox="0 0 70 69" fill="none" xmlns="http://www.w3.org/2000/svg">
<g clip-path="url(#clip0_14802_54683)">
<path d="M34.519 10.2656C35.982 10.2656 37.4152 10.6788 38.6536 11.4577C39.892 12.2366 40.8852 13.3495 41.5188 14.6681C42.1524 15.9868 42.4006 17.4576 42.2348 18.9112C42.0691 20.3647 41.4961 21.7419 40.5818 22.8841L53.5236 45.2999C55.0165 45.0722 56.5433 45.2848 57.9173 45.9116C59.2912 46.5383 60.4526 47.5521 61.2592 48.8288C62.0659 50.1054 62.4828 51.5896 62.4589 53.0995C62.435 54.6094 61.9714 56.0797 61.1248 57.3302C60.2783 58.5807 59.0854 59.5573 57.6924 60.1403C56.2993 60.7233 54.7665 60.8875 53.2816 60.6128C51.7966 60.3381 50.424 59.6364 49.3317 58.5936C48.2395 57.5508 47.475 56.2121 47.1318 54.7415H21.9062C21.563 56.2121 20.7985 57.5508 19.7063 58.5936C18.614 59.6364 17.2414 60.3381 15.7564 60.6128C14.2715 60.8875 12.7387 60.7233 11.3456 60.1403C9.95256 59.5573 8.75973 58.5807 7.91315 57.3302C7.06656 56.0797 6.60296 54.6094 6.5791 53.0995C6.55523 51.5896 6.97214 50.1054 7.77878 48.8288C8.58542 47.5521 9.74679 46.5383 11.1207 45.9116C12.4946 45.2848 14.0215 45.0722 15.5144 45.2999L28.4562 22.8841C27.5419 21.7419 26.9689 20.3647 26.8032 18.9112C26.6374 17.4576 26.8856 15.9868 27.5192 14.6681C28.1528 13.3495 29.146 12.2366 30.3844 11.4577C31.6228 10.6788 33.056 10.2656 34.519 10.2656ZM17.4007 51.2116C17.1706 50.807 16.8628 50.4518 16.4949 50.1666C16.127 49.8814 15.7063 49.6717 15.257 49.5498C14.8078 49.4278 14.3388 49.3959 13.8772 49.4559C13.4156 49.5159 12.9704 49.6666 12.5672 49.8994C12.1641 50.1322 11.811 50.4424 11.5282 50.8121C11.2454 51.1819 11.0386 51.604 10.9196 52.0541C10.8006 52.5041 10.7718 52.9732 10.8349 53.4345C10.898 53.8957 11.0516 54.3399 11.2871 54.7415C11.7585 55.5456 12.5288 56.1306 13.43 56.3689C14.3311 56.6071 15.2899 56.4793 16.0971 56.0132C16.9044 55.5471 17.4945 54.7807 17.7387 53.8811C17.9829 52.9816 17.8614 52.0219 17.4007 51.2116ZM56.459 49.9197C56.0574 49.6843 55.6132 49.5306 55.152 49.4676C54.6908 49.4045 54.2216 49.4333 53.7716 49.5523C53.3215 49.6713 52.8995 49.8781 52.5297 50.1609C52.1599 50.4436 51.8497 50.7968 51.6169 51.1999C51.3842 51.6031 51.2334 52.0483 51.1734 52.5099C51.1134 52.9715 51.1453 53.4405 51.2673 53.8897C51.3893 54.339 51.5989 54.7596 51.8841 55.1275C52.1693 55.4955 52.5245 55.8033 52.9292 56.0334C53.7395 56.4941 54.6991 56.6156 55.5987 56.3714C56.4982 56.1272 57.2647 55.537 57.7307 54.7298C58.1968 53.9226 58.3246 52.9638 58.0864 52.0626C57.8481 51.1615 57.2631 50.3911 56.459 49.9197ZM37.1155 25.3521C36.2817 25.6474 35.4035 25.7979 34.519 25.7969C33.6083 25.7969 32.7343 25.6416 31.9239 25.3521L19.3859 47.0676C20.4576 47.9815 21.26 49.1701 21.7071 50.5057H47.3309C47.7802 49.1712 48.5823 47.9832 49.6521 47.0676L37.1141 25.3521H37.1155ZM34.519 14.5014C34.0555 14.5014 33.5964 14.5927 33.1682 14.7701C32.7399 14.9475 32.3508 15.2075 32.023 15.5353C31.6953 15.8631 31.4352 16.2522 31.2579 16.6804C31.0805 17.1087 30.9892 17.5677 30.9892 18.0312C30.9892 18.4948 31.0805 18.9538 31.2579 19.3821C31.4352 19.8103 31.6953 20.1994 32.023 20.5272C32.3508 20.855 32.7399 21.115 33.1682 21.2924C33.5964 21.4698 34.0555 21.5611 34.519 21.5611C35.4552 21.5611 36.353 21.1892 37.015 20.5272C37.6769 19.8652 38.0488 18.9674 38.0488 18.0312C38.0488 17.0951 37.6769 16.1973 37.015 15.5353C36.353 14.8733 35.4552 14.5014 34.519 14.5014Z" fill="#74BC1F"/>
</g>
<defs>
<clipPath id="clip0_14802_54683">
<rect width="68.7273" height="68.7273" fill="white" transform="translate(0.632812 0.132812)"/>
</clipPath>
</defs>
</svg>
