<svg width="280" height="158" viewBox="0 0 280 158" fill="none" xmlns="http://www.w3.org/2000/svg">
<path d="M40.5493 57.5979C42.0351 59.398 48.1783 67.3471 49.5555 68.9357L43.5152 74.9761C39.915 72.1188 32.6002 66.3927 29 63.5354V63.4268L35.3604 57.0664C36.7376 55.6892 38.9663 55.7921 40.235 57.3865L40.555 57.5979H40.5493Z" fill="black"/>
<path d="M32.1773 83.9882C33.9774 82.5024 41.9265 76.3592 43.5152 74.9819L49.5555 81.0223C47.3325 83.8853 43.3037 88.9714 40.2293 92.783C39.0635 94.2688 36.7319 94.3717 35.4575 93.103L29 86.6341L32.1773 83.9825V83.9882Z" fill="black"/>
<path d="M58.5649 92.3601C57.0791 90.56 50.9358 82.611 49.5586 81.0223L55.599 74.9819C59.2049 77.845 66.5139 83.5653 70.1199 86.4283V86.5369L63.7595 92.8973C62.3822 94.2745 60.1535 94.1717 58.8849 92.5773L58.5649 92.3659V92.3601Z" fill="black"/>
<path d="M66.9368 65.97C65.1367 67.4558 57.1876 73.599 55.599 74.9763L49.5586 68.9359C51.7816 66.1814 55.8104 61.0954 58.7763 57.278C60.0507 55.6894 62.2737 55.5808 63.7595 56.958L70.1199 63.3184L66.9425 65.97H66.9368Z" fill="black"/>
<path d="M75.1815 93.737V71.2728C75.1815 70.3699 75.4044 69.5527 75.8558 68.8212C76.3073 68.084 76.8959 67.4954 77.6331 67.044C78.3703 66.5925 79.1875 66.3696 80.0847 66.3696H87.868V71.0613H80.2618C80.1418 71.0613 80.0447 71.1013 79.9589 71.1871C79.8732 71.2728 79.8332 71.3699 79.8332 71.4899V73.1243H87.868V77.7818H79.8332V93.7427H75.1758L75.1815 93.737Z" fill="#040000"/>
<path d="M93.1133 93.0624C92.3646 92.6109 91.7703 92.0109 91.3189 91.268C90.8674 90.5194 90.6445 89.7079 90.6445 88.8336V78.0272C90.6445 77.1243 90.8674 76.3071 91.3189 75.5756C91.7703 74.8384 92.3704 74.2498 93.1133 73.7984C93.8619 73.3469 94.6734 73.124 95.5477 73.124H106.674C107.577 73.124 108.4 73.3412 109.143 73.7812C109.891 74.2212 110.48 74.8098 110.92 75.5585C111.36 76.3071 111.577 77.13 111.577 78.0272V88.8336C111.577 89.7079 111.36 90.5194 110.92 91.268C110.48 92.0166 109.897 92.6109 109.16 93.0624C108.423 93.5138 107.594 93.7367 106.674 93.7367H95.5477C94.6734 93.7367 93.8619 93.5138 93.1133 93.0624ZM95.7248 89.0793H106.497C106.617 89.0793 106.714 89.0393 106.8 88.9536C106.88 88.8736 106.926 88.7707 106.926 88.6507V78.1986C106.926 78.0786 106.886 77.9815 106.8 77.8957C106.714 77.8157 106.617 77.77 106.497 77.77H95.7248C95.6048 77.77 95.5077 77.81 95.422 77.8957C95.3362 77.9815 95.2962 78.0786 95.2962 78.1986V88.6507C95.2962 88.7707 95.3362 88.8678 95.422 88.9536C95.502 89.0393 95.6048 89.0793 95.7248 89.0793Z" fill="#040000"/>
<path d="M118.331 101.543V99.5314C118.331 98.2341 119.382 97.1826 120.68 97.1826H130.737C130.857 97.1826 130.954 97.1426 131.04 97.0569C131.12 96.9712 131.166 96.874 131.166 96.754V94.0682C131.166 93.8853 131.017 93.7367 130.834 93.7367H119.794C118.891 93.7367 118.074 93.5138 117.342 93.0624C116.605 92.6109 116.016 92.0223 115.565 91.2851C115.114 90.5479 114.891 89.7308 114.891 88.8336V78.0272C114.891 77.1243 115.114 76.3071 115.565 75.5756C116.039 74.8041 116.674 74.1869 117.474 73.7298C118.211 73.3069 119.062 73.124 119.914 73.124H130.96C131.863 73.124 132.68 73.3469 133.412 73.7984C134.149 74.2498 134.732 74.8441 135.172 75.5756C135.612 76.3128 135.829 77.13 135.829 78.0272V96.9769C135.829 97.8798 135.618 98.7027 135.189 99.4456C134.76 100.194 134.178 100.783 133.429 101.223C132.68 101.663 131.857 101.88 130.96 101.88H118.674C118.491 101.88 118.342 101.731 118.342 101.549L118.331 101.543ZM119.965 89.0793H130.737C130.857 89.0793 130.954 89.0393 131.04 88.9536C131.12 88.8736 131.166 88.7707 131.166 88.6507V78.1986C131.166 78.0786 131.126 77.9815 131.04 77.8957C130.954 77.8157 130.857 77.77 130.737 77.77H119.965C119.845 77.77 119.748 77.81 119.662 77.8957C119.577 77.9815 119.537 78.0786 119.537 78.1986V88.6507C119.537 88.7707 119.577 88.8678 119.662 88.9536C119.742 89.0393 119.845 89.0793 119.965 89.0793Z" fill="#040000"/>
<path d="M145.849 93.7366L137.746 73.1182H142.689L147.701 85.2732L152.964 73.1182H157.799L163.416 85.3475L168.074 73.1182H173.017L165.268 93.7366H161.639L155.416 79.9814L149.478 93.7366H145.849Z" fill="#040000"/>
<path d="M175.5 71.0555V66.3638H180.157V71.0555H175.5ZM175.5 93.7369V73.1185H180.157V93.7369H175.5Z" fill="black"/>
<path d="M186.715 93.0624C185.966 92.6109 185.372 92.0109 184.92 91.268C184.469 90.5194 184.246 89.7079 184.246 88.8336V88.0507H188.904V88.6564C188.904 88.7764 188.944 88.8736 189.029 88.9593C189.115 89.045 189.212 89.085 189.332 89.085H200.104C200.224 89.085 200.321 89.045 200.407 88.9593C200.487 88.8793 200.533 88.7764 200.533 88.6564V86.2048C200.533 86.0848 200.493 85.9877 200.407 85.9019C200.321 85.8219 200.224 85.7762 200.104 85.7762H189.155C188.275 85.7762 187.469 85.5534 186.721 85.1019C185.972 84.6504 185.378 84.0561 184.926 83.3075C184.475 82.5589 184.252 81.7474 184.252 80.8731V78.0272C184.252 77.1243 184.475 76.3071 184.926 75.5756C185.378 74.8384 185.978 74.2498 186.721 73.7984C187.469 73.3469 188.281 73.124 189.155 73.124H200.281C201.207 73.124 202.036 73.3469 202.767 73.7984C203.504 74.2498 204.093 74.8441 204.544 75.5756C204.996 76.3128 205.219 77.13 205.219 78.0272V78.8101H200.527V78.2043C200.527 78.0843 200.487 77.9872 200.401 77.9015C200.316 77.8215 200.218 77.7757 200.098 77.7757H189.326C189.206 77.7757 189.109 77.8157 189.024 77.9015C188.938 77.9872 188.898 78.0843 188.898 78.2043V80.6559C188.898 80.7759 188.938 80.8731 189.024 80.9588C189.109 81.0445 189.206 81.0845 189.326 81.0845H200.276C201.201 81.0845 202.03 81.3074 202.762 81.7588C203.499 82.2103 204.087 82.8046 204.539 83.5361C204.99 84.2733 205.213 85.0905 205.213 85.9877V88.8336C205.213 89.7079 204.99 90.5194 204.539 91.268C204.087 92.0166 203.493 92.6109 202.762 93.0624C202.024 93.5138 201.196 93.7367 200.276 93.7367H189.149C188.269 93.7367 187.463 93.5138 186.715 93.0624Z" fill="#040000"/>
<path d="M211.169 93.3937C209.901 92.8222 208.975 91.9022 208.409 90.6278C208.164 90.0735 208.066 89.4677 208.066 88.862V78.027C208.066 77.1241 208.289 76.3069 208.741 75.5755C209.295 74.6725 210.072 73.9811 211.078 73.5068C211.667 73.2325 212.318 73.1182 212.964 73.1182H224.096C224.999 73.1182 225.822 73.3353 226.565 73.7753C227.313 74.2154 227.902 74.804 228.342 75.5526C228.782 76.3012 228.999 77.1241 228.999 78.0213V85.7132C228.999 85.7418 228.976 85.7704 228.942 85.7704H212.77C212.741 85.7704 212.712 85.7932 212.712 85.8275V88.6505C212.712 88.7705 212.752 88.8677 212.838 88.9534C212.918 89.0391 213.021 89.0791 213.141 89.0791H226.628C227.936 89.0791 228.993 90.1421 228.993 91.445V93.6794C228.993 93.708 228.971 93.7366 228.936 93.7366H212.924C212.318 93.7366 211.707 93.6394 211.152 93.3937H211.169ZM212.781 81.5815H224.296C224.325 81.5815 224.353 81.5587 224.353 81.5244V78.2042C224.353 78.0842 224.313 77.987 224.227 77.9013C224.142 77.8213 224.045 77.7756 223.925 77.7756H213.152C213.032 77.7756 212.935 77.8156 212.85 77.9013C212.764 77.987 212.724 78.0842 212.724 78.2042V81.5244C212.724 81.553 212.747 81.5815 212.781 81.5815Z" fill="#040000"/>
<path d="M238.404 62.1531C239.372 62.1047 239.439 61.9406 239.439 61.2038V56.4652H238.839C237.573 56.4652 237.446 56.6777 237.156 57.6942H237C237.059 57.1241 237.086 56.5432 237.108 56H237.264C237.331 56.1156 237.398 56.1748 237.476 56.2044C237.554 56.234 237.651 56.234 237.785 56.234H241.685C241.938 56.234 242.005 56.1856 242.139 56.0027L242.303 56.0134C242.284 56.4679 242.341 57.0784 242.389 57.6593L242.225 57.6969C241.994 56.6024 241.626 56.4679 240.803 56.4679H239.942V61.2091C239.942 61.9433 240.009 62.1101 241.015 62.1585V62.2929H238.404V62.1585V62.1531Z" fill="#231815"/>
<path d="M243.166 56.2314H244.395L246.95 61.3599L249.515 56.2314H250.908V56.3659C250.007 56.452 249.921 56.5488 249.959 57.5169L250.026 60.9511C250.056 61.9489 250.093 62.0726 251.002 62.1506V62.285H248.633V62.1506C249.486 62.0833 249.512 61.9569 249.504 60.9511L249.467 56.8876H249.429L246.807 62.1801H246.721L244.341 57.2157H244.322L244.196 59.827C244.166 60.2815 244.158 60.6096 244.158 60.8732C244.158 61.801 244.255 62.0645 245.156 62.1506V62.285H242.824V62.1506C243.424 62.1022 243.628 61.9381 243.704 61.5509C243.771 61.2604 243.849 60.6795 243.916 59.6845L244.051 57.9149C244.061 57.6541 244.069 57.4416 244.069 57.2668C244.069 56.5811 243.905 56.4547 243.168 56.3659V56.2314H243.166Z" fill="#231815"/>
</svg>
