<svg width="280" height="158" viewBox="0 0 280 158" fill="none" xmlns="http://www.w3.org/2000/svg">
<path d="M66.1785 98.3806H70.3256C70.3256 98.8138 70.3256 99.2215 70.3256 99.6291C70.3256 102.84 70.2756 106.05 70.2756 109.286C70.2756 109.796 70.1258 110.076 69.6011 110.178C67.4776 110.585 65.3541 110.917 63.2056 110.942C61.0071 110.942 58.8586 110.815 56.81 109.796C54.3867 108.598 52.8128 106.687 51.9884 104.19C50.7393 100.445 50.6394 96.6225 52.0634 92.8515C53.5373 88.9531 56.3853 86.8383 60.4075 86.2013C63.3805 85.7172 66.3034 86.1504 69.2264 86.6854C69.4013 86.7109 69.6511 87.0167 69.6511 87.2205C69.6511 88.2142 69.6261 89.1825 69.5761 90.1762C69.5761 90.5838 69.3763 90.6603 69.0015 90.5584C66.6032 89.8959 64.1299 89.7175 61.6816 89.9723C58.6338 90.2781 56.3604 91.9597 55.6359 95.6798C55.1362 98.1513 55.2861 100.597 56.0606 102.967C56.86 105.337 58.6088 106.763 61.0821 107.018C62.631 107.171 64.2299 107.018 65.8038 106.967C65.9287 106.967 66.1535 106.662 66.1785 106.483C66.2285 105.642 66.2285 104.776 66.2285 103.935C66.2285 102.126 66.2285 100.317 66.2285 98.4061L66.1785 98.3806Z" fill="black"/>
<path d="M87.6832 106.542C87.6832 107.535 87.7332 108.351 87.6582 109.166C87.6333 109.472 87.3584 109.956 87.0836 110.033C83.9858 111.001 80.813 111.383 77.6152 110.517C74.7922 109.752 73.0934 107.816 72.4189 104.988C71.8193 102.465 71.8942 99.917 72.6937 97.4455C73.743 94.2096 76.0913 92.6044 79.2891 92.2731C80.5132 92.1457 81.8123 92.1967 82.9865 92.477C85.4598 93.063 87.0337 94.7192 87.8081 97.1907C88.2828 98.745 88.1079 100.325 88.0829 101.904C88.0829 102.312 87.8581 102.541 87.4334 102.541C86.2342 102.567 85.0351 102.618 83.8359 102.643C81.2877 102.643 78.7395 102.643 76.1912 102.643C75.7665 104.656 77.5153 107.026 79.7138 107.408C82.212 107.841 84.6104 107.408 87.0087 106.695C87.2086 106.644 87.4084 106.567 87.6832 106.491V106.542ZM80.0885 99.8916C81.3127 99.8916 82.5368 99.8916 83.736 99.8916C84.1107 99.8916 84.3106 99.7387 84.1857 99.3565C83.9858 98.6176 83.8109 97.9041 83.5611 97.1907C83.2863 96.3499 82.6867 95.8148 81.8373 95.611C78.6645 94.8721 76.7908 96.2225 76.1413 99.4074C76.0413 99.8661 76.2662 99.917 76.6159 99.917C77.7651 99.917 78.9143 99.917 80.0635 99.917L80.0885 99.8916Z" fill="black"/>
<path d="M93.8857 94.918C94.2355 94.6632 94.4353 94.5358 94.6102 94.3574C96.6837 92.3955 99.157 91.9113 101.855 92.4209C103.854 92.8031 105.777 95.0199 106.052 97.2366C106.177 98.4342 106.227 99.6572 106.227 100.88C106.227 103.938 106.202 106.995 106.177 110.053C106.177 110.563 106.027 110.766 105.503 110.715C104.953 110.664 104.378 110.664 103.804 110.613C102.804 110.512 102.305 110.027 102.23 108.983C102.155 107.785 102.13 106.588 102.13 105.39C102.13 103.759 102.18 102.129 102.13 100.498C102.08 99.4024 101.88 98.3068 101.705 97.2366C101.63 96.7015 100.331 95.8862 99.6317 95.7843C97.6581 95.5295 96.0342 96.3193 94.7101 97.7207C94.4853 97.95 94.3854 98.4342 94.3854 98.7909C94.3854 102.46 94.3604 106.155 94.3854 109.824C94.3854 110.41 94.2604 110.69 93.6609 110.613C92.8864 110.512 92.087 110.486 91.3375 110.308C90.563 110.129 90.2882 109.492 90.2882 108.728C90.2882 103.887 90.2882 99.0202 90.2882 94.179C90.2882 93.8988 90.2882 93.6185 90.2882 93.3637C90.2133 92.4719 90.2133 92.4719 91.0627 92.4974C91.6623 92.4974 92.2369 92.5229 92.8114 92.4974C93.2611 92.4719 93.436 92.6503 93.511 93.0579C93.6109 93.6185 93.7358 94.179 93.8857 94.8925V94.918Z" fill="black"/>
<path d="M114.748 101.288C114.449 96.4982 118.971 91.8609 123.917 91.8354C129.138 91.7844 133.46 96.4727 133.36 101.518C133.261 106.308 129.188 110.894 123.817 110.792C118.621 110.716 114.524 105.926 114.748 101.288ZM129.913 101.365C129.913 97.5428 126.99 95.479 124.367 95.3516C120.744 95.1732 118.121 97.7976 118.146 101.135C118.171 104.677 120.719 107.302 124.092 107.276C127.34 107.276 129.913 104.626 129.913 101.365Z" fill="black"/>
<path d="M108.855 92.4317C109.679 92.4317 110.354 92.4317 111.028 92.4317C112.352 92.4827 113.002 93.1961 113.002 94.5211C113.002 99.617 113.002 104.713 113.002 109.809C113.002 110.395 112.827 110.599 112.252 110.522C111.778 110.471 111.303 110.522 110.828 110.471C109.454 110.42 108.805 109.682 108.805 108.28C108.805 105.223 108.855 102.165 108.855 99.1074C108.855 97.0945 108.855 95.0561 108.855 93.0432C108.855 92.8139 108.855 92.5846 108.855 92.4062V92.4317Z" fill="black"/>
<path d="M141.681 93.1025C142.63 94.6313 143.055 96.3385 143.355 98.0456C144.029 101.766 143.48 105.358 142.106 108.849C141.956 109.231 141.706 109.384 141.331 109.231C140.657 108.951 139.857 108.773 139.607 107.932C139.482 107.55 139.432 107.065 139.557 106.683C140.682 103.243 140.831 99.8037 139.657 96.3385C139.582 96.1346 139.532 95.9308 139.482 95.7524C139.283 94.8097 139.407 94.5039 140.207 93.9689C140.632 93.6886 141.056 93.4338 141.481 93.179C141.506 93.179 141.556 93.1535 141.681 93.1025Z" fill="black"/>
<path d="M137.297 95.2725C139.221 97.693 139.246 104.42 137.347 107.273C136.748 106.942 136.148 106.585 135.549 106.254C135.049 105.974 134.924 105.592 135.024 105.057C135.199 104.241 135.374 103.451 135.499 102.636C135.724 101.133 135.574 99.6805 135.199 98.2026C134.849 96.8522 134.924 96.7503 136.098 96.0114C136.498 95.7566 136.898 95.5273 137.297 95.2725Z" fill="black"/>
<path d="M110.711 90.8192C109.512 90.8192 108.213 89.5707 108.188 88.4241C108.163 86.615 109.362 85.7487 110.686 85.6723C112.06 85.5958 113.209 86.8443 113.209 88.2457C113.209 89.5707 112.01 90.7937 110.711 90.8192Z" fill="black"/>
<path d="M57.3544 55.6019C57.2045 59.5513 57.0296 63.4497 56.8797 67.3736C56.7548 71.272 56.6299 75.1704 56.2052 78.9159C54.5563 78.9159 53.1823 78.8904 51.7833 78.9159C51.1087 78.9159 50.9588 78.7375 51.0088 78.0241C51.1587 75.3487 51.2087 72.6479 51.3336 69.9725C51.6584 63.2459 52.0081 56.5192 52.3579 49.818C52.3829 49.181 52.4328 48.5441 52.4078 47.9071C52.3829 47.4229 52.5827 47.2446 53.0074 47.2446C54.6813 47.2446 56.3301 47.1681 58.0039 47.2191C58.2787 47.2191 58.6785 47.4994 58.8034 47.7542C61.0768 52.3151 63.3252 56.9014 65.5736 61.5132C66.1233 62.6343 66.573 63.8319 67.1475 65.1823C67.4473 64.6218 67.6722 64.2396 67.872 63.8574C69.6458 60.1118 71.4446 56.3663 73.2183 52.6208C73.9428 51.0665 74.7173 49.5378 75.4168 47.9835C75.6666 47.3975 76.0913 47.2701 76.6159 47.2701C77.6152 47.2701 78.6395 47.3465 79.6388 47.321C80.2634 47.321 80.863 47.1936 81.6125 47.1172C81.6624 47.372 81.7623 47.6777 81.7873 47.9835C82.0372 53.1304 82.287 58.3028 82.5618 63.4497C82.8116 68.2654 83.0365 73.1065 83.3113 77.9222C83.3612 78.7121 83.1864 78.9923 82.3619 78.9414C81.2877 78.8649 80.2134 78.9159 79.1642 78.9414C78.4896 78.9414 78.1149 78.8395 78.0899 78.0241C77.89 73.8454 77.6152 69.6413 77.4404 65.4626C77.3155 62.8127 77.2905 60.1628 77.2405 57.5129C77.2405 56.8504 77.3155 56.1625 77.3654 55.5C77.2905 55.4745 77.2155 55.4491 77.1656 55.4236C76.8158 56.0606 76.3911 56.6721 76.1663 57.36C74.8422 61.4368 72.4688 64.9785 70.6201 68.775C70.2954 69.4629 69.8956 70.0999 69.5958 70.7879C69.321 71.4758 68.8963 71.7306 68.1718 71.7816C65.4238 71.909 65.3488 71.8835 64.1247 69.412C62.8256 66.864 61.4765 64.367 60.2274 61.7935C59.378 60.0354 58.6535 58.2264 57.879 56.4428C57.7541 56.137 57.5542 55.8822 57.4043 55.6274L57.3544 55.6019Z" fill="#F99B1C"/>
<path d="M126.675 75.6539C123.578 79.0427 120.13 80.0364 116.108 78.8389C113.21 77.998 111.636 75.7303 110.762 73.004C109.487 68.9018 109.437 64.774 111.186 60.7228C112.685 57.283 115.408 55.4994 118.956 55.0153C121.179 54.7095 123.453 54.6841 125.651 55.4994C125.726 55.5249 125.826 55.4994 125.976 55.4485C125.976 54.7095 125.976 53.9706 125.976 53.2062C125.951 51.1169 125.901 49.053 125.851 46.9637C125.851 46.4541 126.001 46.1993 126.476 46.1993C127.875 46.1993 129.274 46.1738 130.648 46.1738C131.222 46.1738 131.147 46.6325 131.147 47.0401C131.147 52.4418 131.172 57.8435 131.172 63.2453C131.172 68.2138 131.172 73.2078 131.172 78.1764C131.172 78.635 131.072 78.8643 130.598 78.8643C129.598 78.8643 128.574 78.8643 127.575 78.8643C126.975 78.8643 126.95 78.5076 126.925 78.0235C126.875 77.2846 126.75 76.5202 126.625 75.6029L126.675 75.6539ZM126.001 65.4875C126.001 63.8568 126.001 62.2261 126.001 60.5954C126.001 60.0603 125.876 59.7545 125.276 59.7036C123.902 59.6017 122.503 59.3469 121.129 59.3469C118.531 59.3214 116.757 60.7228 115.733 63.0924C114.709 65.4365 114.809 67.959 115.408 70.3031C116.483 74.5583 118.581 75.5265 122.129 74.5328C124.752 73.8193 126.326 72.2396 126.051 69.3094C125.926 68.0609 126.051 66.7869 126.051 65.513L126.001 65.4875Z" fill="#F99B1C"/>
<path d="M214.164 65.2816C215.138 65.1542 216.112 65.1797 216.987 64.8739C217.686 64.6191 218.486 64.135 218.861 63.5235C220.085 61.4596 221.134 59.2939 222.233 57.1536C222.283 57.0771 222.308 56.9752 222.333 56.8988C222.858 55.3955 222.858 55.3955 224.407 55.37C225.631 55.37 226.88 55.37 228.229 55.37C228.029 56.0324 227.929 56.644 227.654 57.1536C226.056 60.3385 224.382 63.5235 222.783 66.7085C222.608 67.0397 222.558 67.6002 222.733 67.906C224.507 71.04 226.33 74.1485 228.154 77.2571C228.429 77.7412 228.729 78.2253 228.978 78.6585C228.854 78.8113 228.804 78.9132 228.779 78.9132C227.105 78.9132 225.406 78.9387 223.732 78.8368C223.382 78.8368 222.958 78.3272 222.733 77.945C221.484 75.8302 220.185 73.7409 219.135 71.5241C218.311 69.766 217.187 68.9761 215.288 69.4093C214.963 69.4857 214.589 69.4093 214.164 69.4093V78.9642C212.49 78.9642 210.891 78.9897 209.317 78.9132C209.142 78.9132 208.843 78.3527 208.843 78.0469C208.793 76.5691 208.843 75.0913 208.843 73.6135C208.843 64.9249 208.843 56.2108 208.843 47.5222C208.843 47.0891 208.892 46.6304 208.917 46.1973H214.214V65.2816H214.164Z" fill="#F99B1C"/>
<path d="M107.214 68.5085C105.315 68.5085 103.666 68.5085 101.993 68.5085C98.8448 68.5085 95.697 68.5085 92.5492 68.4321C91.7497 68.4321 91.5249 68.7379 91.7248 69.4513C91.9246 70.1647 92.0995 70.9036 92.3243 71.6171C92.9489 73.6045 94.4728 74.4708 96.3216 74.7256C99.2945 75.1333 102.242 74.8275 105.14 73.9867C105.44 73.8848 105.765 73.7829 106.09 73.7829C106.689 73.7829 106.989 73.9612 106.814 74.7256C106.639 75.5664 106.739 76.4582 106.614 77.2991C106.589 77.5793 106.315 78.0125 106.09 78.0889C102.142 79.3884 98.0703 79.8215 94.0481 78.8533C89.2765 77.7067 87.3278 75.0823 86.4784 70.0373C86.1786 68.3302 86.1037 66.4956 86.3535 64.814C86.8032 61.9093 87.6776 59.132 90.1009 57.1446C92.3993 55.2846 95.0474 54.7495 97.8705 54.9278C99.7692 55.0552 101.618 55.31 103.292 56.4311C106.09 58.3421 107.064 61.1194 107.189 64.3553C107.239 65.6803 107.189 67.0052 107.189 68.5085H107.214ZM91.6998 64.9669C91.9996 64.9669 92.2744 65.0178 92.5742 65.0178C95.3722 64.9669 98.1453 64.8649 100.943 64.8649C101.768 64.8649 101.993 64.5082 101.968 63.7948C101.843 61.6035 100.768 59.3104 98.0204 59.1065C93.9982 58.8008 91.9496 60.9665 91.6998 64.9923V64.9669Z" fill="#F99B1C"/>
<path d="M203.641 73.6525C203.591 74.9519 203.541 76.2259 203.441 77.4744C203.441 77.7037 203.116 78.0604 202.866 78.1114C200.143 78.7739 197.445 79.5128 194.622 79.2835C193.173 79.1816 191.699 79.1051 190.325 78.6974C186.803 77.6273 184.429 75.2832 183.58 71.5631C182.655 67.4864 182.78 63.486 184.879 59.715C186.428 56.9377 188.801 55.409 191.799 55.0777C193.698 54.8739 195.671 54.9758 197.545 55.2816C200.768 55.7912 203.766 59.4093 203.941 62.7726C204.016 64.3524 203.866 65.9576 203.841 67.5628C203.841 68.3017 203.491 68.4546 202.841 68.4546C198.469 68.4291 194.122 68.4546 189.75 68.4291C189.351 68.4291 188.926 68.4291 188.551 68.4291C188.177 70.1363 189.551 73.0664 190.975 73.9073C192.499 74.799 194.122 74.9264 195.796 74.8755C198.245 74.799 200.643 74.4678 202.991 73.7289C203.141 73.6779 203.341 73.6779 203.641 73.6525ZM188.252 64.811C188.976 64.811 189.451 64.811 189.9 64.811C192.573 64.811 195.222 64.8365 197.895 64.811C198.195 64.811 198.719 64.5052 198.719 64.3269C198.769 62.8745 198.519 61.4986 197.495 60.3266C196.346 59.0016 194.847 59.0016 193.348 59.0526C191.574 59.129 190.15 59.9444 189.351 61.626C188.901 62.5942 188.651 63.6389 188.252 64.811Z" fill="#F99B1C"/>
<path d="M164.135 78.8732H160.137C160.038 77.905 159.938 76.9622 159.813 75.8921C159.438 76.2233 159.113 76.5036 158.788 76.7839C155.466 79.6631 151.693 80.0453 147.771 78.491C145.473 77.5738 144.174 75.5863 144.099 72.9874C143.999 70.2611 145.423 68.4265 147.671 67.2035C149.27 66.3372 151.019 65.955 152.818 65.955C154.342 65.955 155.84 66.006 157.364 66.0569C157.864 66.0569 158.364 66.0569 159.088 66.0569C158.963 64.6555 158.988 63.2542 158.689 61.9292C158.289 60.273 156.765 59.8144 155.391 59.6105C152.743 59.2029 150.119 59.687 147.521 60.2221C147.097 60.324 146.697 60.6807 146.147 60.9865C146.072 60.4514 145.947 59.9673 145.922 59.4831C145.872 58.6678 145.822 57.8524 145.872 57.0371C145.872 56.7313 146.147 56.2982 146.372 56.1963C150.045 54.8204 153.867 54.5656 157.689 55.2026C161.711 55.865 164.26 58.1582 164.31 62.7191C164.36 67.9934 164.31 73.2932 164.26 78.5675C164.26 78.6694 164.21 78.7968 164.16 78.9497L164.135 78.8732ZM158.988 69.3948C157.889 69.3183 157.015 69.2164 156.115 69.1909C155.341 69.1654 154.541 69.0635 153.817 69.2419C152.668 69.4967 151.469 69.7515 150.494 70.3375C148.795 71.3312 149.02 74.083 150.769 74.9748C152.918 76.045 156.815 75.357 158.539 73.5734C158.738 73.3696 158.963 73.0638 158.963 72.809C159.013 71.6879 158.963 70.5414 158.963 69.4202L158.988 69.3948Z" fill="#F99B1C"/>
<path d="M178.216 78.8733C177.017 78.8733 175.893 78.8733 174.769 78.8733C172.72 78.8733 172.67 78.8733 172.67 76.784C172.62 68.7833 172.62 60.7827 172.62 52.782C172.62 52.6292 172.62 52.4763 172.62 52.247H163.152C163.102 50.6927 163.027 49.1384 163.052 47.5842C163.052 47.4568 163.601 47.2529 163.901 47.2529C167.224 47.2529 170.547 47.2529 173.894 47.2529C178.191 47.2529 182.513 47.2529 186.81 47.2529C187.984 47.2529 187.984 47.2529 187.959 48.476C187.959 49.4442 187.909 50.4124 187.959 51.3806C187.959 51.9667 187.76 52.196 187.185 52.196C184.937 52.196 182.663 52.1705 180.415 52.196C179.74 52.196 179.066 52.2724 178.266 52.2979C178.266 56.7569 178.266 61.1649 178.266 65.5729C178.266 69.9809 178.266 74.3124 178.266 78.9243L178.216 78.8733Z" fill="#F99B1C"/>
<path d="M135.655 55.3809C137.353 55.3809 138.952 55.3809 140.551 55.4063C140.726 55.4063 141.026 55.814 141.026 56.0433C141.026 60.9864 141.001 65.9549 141.001 70.898C141.001 73.3441 141.001 75.7901 141.051 78.2362C141.051 78.8732 140.751 78.8987 140.276 78.8987C138.977 78.8987 137.653 78.8732 136.354 78.9496C135.705 78.9751 135.555 78.7713 135.555 78.1343C135.605 70.9235 135.63 63.7127 135.68 56.4765C135.68 56.1198 135.68 55.7631 135.68 55.3809H135.655Z" fill="#F99B1C"/>
<path d="M141.385 49.0081C141.385 50.7662 140.061 52.1167 138.337 52.0657C136.363 52.0148 135.139 50.7662 135.189 48.8807C135.214 47.1736 136.563 45.9506 138.412 46.0015C140.21 46.0525 141.41 47.25 141.41 49.0081H141.385Z" fill="#F99B1C"/>
<path d="M153.312 96.5082V94.954L158.384 91.9219H159.508V110.7H158.034V93.7564L153.312 96.5082Z" fill="black"/>
<path d="M168.078 109.344H177.122V110.695H165.805V109.726L172.275 102.057C173.274 100.885 173.974 99.9421 174.374 99.1777C174.773 98.4134 174.973 97.6235 174.973 96.7572C174.973 95.6106 174.649 94.6933 173.999 94.0308C173.349 93.3684 172.5 93.0116 171.476 93.0116C170.501 93.0116 169.652 93.3174 168.878 93.9544C168.128 94.5659 167.578 95.4577 167.229 96.5788L166.055 95.8909C166.429 94.515 167.104 93.4703 168.128 92.7314C169.152 91.9925 170.302 91.6357 171.576 91.6357C172.525 91.6357 173.374 91.8396 174.149 92.2473C174.898 92.6549 175.498 93.241 175.923 94.0054C176.347 94.7698 176.572 95.6615 176.572 96.6807C176.572 97.6999 176.322 98.7191 175.848 99.6619C175.373 100.579 174.549 101.7 173.374 103.025L168.053 109.344H168.078Z" fill="black"/>
<path d="M189.634 108.503C188.634 110.134 187.235 110.975 185.412 110.975C183.588 110.975 182.214 110.16 181.24 108.503C180.265 106.873 179.766 104.478 179.766 101.318C179.766 98.1586 180.265 95.7635 181.24 94.1073C182.214 92.4511 183.613 91.6357 185.412 91.6357C187.21 91.6357 188.634 92.4511 189.634 94.1073C190.608 95.738 191.108 98.1586 191.108 101.344C191.108 104.528 190.608 106.873 189.634 108.529V108.503ZM185.412 109.548C188.135 109.548 189.509 106.796 189.509 101.318C189.509 95.8399 188.135 93.0116 185.412 93.0116C182.689 93.0116 181.34 95.7889 181.34 101.318C181.34 106.847 182.689 109.548 185.412 109.548Z" fill="black"/>
<path d="M203.532 108.503C202.533 110.134 201.134 110.975 199.31 110.975C197.486 110.975 196.112 110.16 195.138 108.503C194.164 106.873 193.664 104.478 193.664 101.318C193.664 98.1586 194.164 95.7635 195.138 94.1073C196.112 92.4511 197.511 91.6357 199.31 91.6357C201.109 91.6357 202.533 92.4511 203.532 94.1073C204.506 95.738 205.006 98.1586 205.006 101.344C205.006 104.528 204.506 106.873 203.532 108.529V108.503ZM199.31 109.548C202.033 109.548 203.407 106.796 203.407 101.318C203.407 95.8399 202.033 93.0116 199.31 93.0116C196.587 93.0116 195.238 95.7889 195.238 101.318C195.238 106.847 196.587 109.548 199.31 109.548Z" fill="black"/>
</svg>
