<svg width="280" height="158" viewBox="0 0 280 158" fill="none" xmlns="http://www.w3.org/2000/svg">
<path fill-rule="evenodd" clip-rule="evenodd" d="M40.2354 60.5908H31V98.1056H36.7532V83.9268H40.2354C42.8092 83.9268 44.7774 83.0406 46.5942 81.2682C48.4111 79.4959 49.3195 77.4281 49.3195 74.9173V69.7479C49.3195 67.2371 48.5625 65.0217 46.897 63.397C45.2316 61.6247 42.9606 60.5908 40.2354 60.5908ZM43.5662 75.2127C43.5662 76.0989 43.2634 76.8374 42.6578 77.5758C42.0522 78.1666 41.2952 78.462 40.3868 78.462H36.7532V66.4986H40.2354C41.2952 66.4986 42.0522 66.794 42.6578 67.3848C43.2634 67.9756 43.5662 68.7141 43.5662 69.7479V75.2127ZM65.3679 60.5908H59.7661L53.1045 98.1056H59.1605L60.5231 89.5392H66.5791L67.9417 98.1056H73.9977C73.9977 98.1056 69.6071 71.3726 68.0931 63.1016C67.6389 60.5908 65.3679 60.5908 65.3679 60.5908ZM61.5829 84.0745L63.7025 69.3049L65.8221 84.0745H61.5829ZM83.9902 63.1016C83.9902 60.5908 81.1135 60.5908 81.1135 60.5908H78.0855V98.1056H93.8312V92.4932H83.9902C83.9902 92.4932 83.9902 70.7818 83.9902 63.1016ZM116.39 63.1016C115.027 69.7479 111.696 87.6192 111.696 87.6192C111.696 87.6192 108.063 69.8956 106.7 63.1016C106.246 60.5908 103.824 60.5908 103.824 60.5908H97.7676V98.1056H103.521V74.6219L109.123 98.1056H113.816L118.812 74.6219V98.1056H124.868V60.5908H119.266C119.115 60.5908 116.844 60.5908 116.39 63.1016ZM146.67 83.4837C145.913 82.1544 144.853 80.8252 143.339 79.3482C142.885 78.9051 141.977 78.1666 140.614 76.9851C139.403 76.0989 138.646 75.2127 138.04 74.6219C136.526 72.8496 135.769 71.0772 135.769 69.4526C135.769 68.4187 135.921 67.3848 136.375 66.6463C136.98 65.7602 137.737 65.3171 138.797 65.3171C139.857 65.3171 140.614 65.6125 141.068 66.2032C141.825 67.0894 142.128 68.271 142.431 69.7479L148.033 68.8618C147.881 67.2371 147.427 65.7602 146.67 64.4309C145.913 63.1016 145.005 62.2154 143.945 61.477C142.431 60.5908 140.614 60 138.646 60C136.526 60 134.709 60.5908 133.195 61.6247C130.773 63.397 129.713 65.9078 129.713 69.4526C129.713 71.3726 130.167 73.145 131.076 74.7696C131.833 76.2466 133.195 77.8712 135.164 79.6436C137.435 81.7113 139.1 83.336 140.311 84.3699C141.825 85.8468 142.431 87.4715 142.431 88.9484C142.431 89.9823 142.279 90.8685 141.825 91.4593C141.068 92.6409 140.008 93.2316 138.797 93.2316C137.889 93.2316 137.132 92.9362 136.375 92.1978C135.466 91.1639 134.861 89.6869 134.558 87.4715L128.956 87.7669C129.107 89.8346 129.562 91.607 130.319 93.0839C131.076 94.5609 131.984 95.8902 133.347 96.7763C134.861 97.8102 136.678 98.401 138.949 98.401C140.16 98.401 141.22 98.2533 142.128 97.9579C143.793 97.3671 145.156 96.4809 146.064 95.2994C147.427 93.3793 148.184 91.1639 148.184 88.6531C148.184 87.6192 147.881 86.4376 147.276 85.1083C147.276 84.6653 146.973 84.0745 146.67 83.4837ZM168.169 60.5908H164.989V76.542H158.176C158.176 76.542 158.176 67.5325 158.176 63.1016C158.176 60.5908 155.3 60.5908 155.3 60.5908H152.423V98.1056H158.176V82.3021H165.141V98.1056H171.197C171.197 98.1056 171.197 71.5203 171.197 63.1016C171.045 60.5908 168.169 60.5908 168.169 60.5908ZM188.608 60.5908H174.83V98.1056H191.484V92.3455H180.735V82.1544H188.456V76.542H180.735V66.3509H191.484C191.484 66.3509 191.484 64.7263 191.484 63.1016C191.484 60.4431 188.608 60.5908 188.608 60.5908ZM201.174 63.1016C201.174 60.5908 198.298 60.5908 198.298 60.5908H195.269V98.1056H211.167V92.4932H201.174C201.174 92.4932 201.174 70.6341 201.174 63.1016ZM221.008 92.4932C221.008 92.4932 221.008 70.6341 221.008 63.1016C221.008 60.5908 218.131 60.5908 218.131 60.5908H215.103V98.1056H231V92.4932H221.008Z" fill="black"/>
<path d="M235 66.99C235 65.0215 235.69 63.3678 237.069 62.0287C238.435 60.6762 240.075 60 241.99 60C243.945 60 245.599 60.6896 246.951 62.0689C248.317 63.4347 249 65.0751 249 66.99C249 68.9584 248.31 70.6121 246.931 71.9512C245.579 73.3037 243.932 73.9799 241.99 73.9799C240.771 73.9799 239.613 73.6719 238.515 73.056C237.404 72.4132 236.54 71.5696 235.924 70.5251C235.308 69.4672 235 68.2889 235 66.99ZM248.297 66.99C248.297 65.2224 247.688 63.7293 246.469 62.5108C245.251 61.2922 243.764 60.6829 242.01 60.6829C240.269 60.6829 238.776 61.2922 237.531 62.5108C236.299 63.7427 235.683 65.2358 235.683 66.99C235.683 68.7709 236.306 70.264 237.551 71.4692C238.81 72.6877 240.289 73.297 241.99 73.297C243.771 73.297 245.264 72.6944 246.469 71.4892C247.688 70.2707 248.297 68.7709 248.297 66.99ZM238.093 62.6714H241.93C242.84 62.6714 243.557 62.879 244.079 63.2941C244.615 63.7092 244.882 64.2449 244.882 64.901C244.882 65.9857 244.173 66.7221 242.753 67.1105C243.088 67.5791 243.423 68.0612 243.758 68.5567C244.092 69.0387 244.427 69.5141 244.762 69.9828C244.936 70.2372 245.07 70.418 245.164 70.5251C245.271 70.6322 245.378 70.6992 245.485 70.726L245.947 70.8465V71.2281H244.079L241.187 67.2712H240.504V70.264C240.557 70.4916 240.671 70.6456 240.845 70.726C241.033 70.7929 241.307 70.8264 241.669 70.8264V71.2281H237.993V70.8264L238.495 70.7862C238.682 70.7594 238.81 70.6523 238.877 70.4648C238.957 70.264 238.997 69.9493 238.997 69.5208V64.3989C238.997 63.5954 238.89 63.187 238.676 63.1736L238.093 63.1133V62.6714ZM240.504 66.769H240.765C241.555 66.769 242.157 66.615 242.572 66.307C243.001 65.999 243.215 65.5705 243.215 65.0215C243.215 64.4725 243.034 64.0306 242.673 63.6958C242.311 63.3611 241.849 63.1937 241.287 63.1937C241.033 63.1937 240.771 63.2406 240.504 63.3343V66.769Z" fill="black"/>
</svg>
