<svg width="280" height="158" viewBox="0 0 280 158" fill="none" xmlns="http://www.w3.org/2000/svg">
<path d="M29 95.3613C33.8053 95.142 34.2439 94.2267 34.2439 89.9553V68.2934C34.2439 64.0221 33.8148 63.431 29.2765 63.1068V62.2964H42.0238C47.3726 62.2964 53.2075 63.9172 53.2075 70.8296C53.2075 75.4251 50.7763 78.1233 46.6194 80.0111C47.487 81.6891 49.7561 85.1405 51.4246 87.4097C54.018 90.5941 57.8031 95.2469 60.5585 95.8952L60.3964 96.6007C55.4767 96.6007 52.8834 96.3338 44.7316 82.9858C43.3777 81.0408 41.7569 80.9836 37.1709 80.9836V89.9553C37.1709 94.2267 37.5999 95.142 42.2526 95.3613V96.1145H29V95.3613ZM40.4507 79.9062C43.5874 79.9062 45.5801 79.4772 47.0389 78.2854C48.8218 76.8838 49.8515 74.7196 49.8515 71.64C49.8515 65.8622 46.1236 63.3738 40.5079 63.3738C39.0491 63.3738 38.1338 63.431 37.6476 63.4786C37.3806 63.4786 37.1613 63.6407 37.1613 64.6704V79.9062H40.4602H40.4507Z" fill="#231815"/>
<path d="M100.21 78.7241C100.21 89.4787 91.6196 96.9345 81.3512 96.9345C71.0827 96.9345 63.4648 89.6408 63.4648 79.6489C63.4648 70.5722 70.4916 61.4956 82.5334 61.4956C91.5528 61.4956 100.2 68.2459 100.2 78.7336L100.21 78.7241ZM67.25 78.0757C67.25 88.6111 73.8953 95.6379 82.6478 95.6379C89.9415 95.6379 96.5297 90.6133 96.5297 80.9932C96.5297 68.7321 89.665 62.7827 80.9698 62.7827C73.7809 62.8399 67.25 67.6452 67.25 78.0757Z" fill="#231815"/>
<path d="M139.055 86.2845C138.301 89.1448 137.052 93.5782 136.242 95.4183C134.516 95.6853 129.435 96.9343 125.382 96.9343C111.224 96.9343 105.17 87.8577 105.227 79.6963C105.227 68.894 114.304 61.4858 126.517 61.4858C131.809 61.4858 135.212 62.6776 136.728 63.0018C137.157 65.7 137.434 68.2933 137.758 71.3729L136.843 71.535C135.327 65.2709 131.656 62.8397 124.629 62.8397C113.932 62.8397 109.126 69.9141 109.126 78.3424C109.126 88.8302 115.391 95.6281 124.963 95.6281C132.476 95.6281 135.556 91.576 138.149 86.008L139.064 86.275L139.055 86.2845Z" fill="#231815"/>
<path d="M142.505 95.3613C146.986 95.142 147.424 94.1218 147.424 89.4214V68.9418C147.424 64.3463 146.995 63.3261 142.133 63.0496V62.2964H155.481V63.0496C150.78 63.3166 150.351 64.3463 150.351 68.9418V78.2854C151.429 78.0661 152.725 77.475 154.022 76.5025C158.074 73.2036 164.882 65.8622 164.882 64.4511C164.882 63.6979 164.014 63.5358 161.211 63.0496V62.2964H174.444V63.0496C170.659 63.593 168.714 64.6704 166.016 67.0445C164.338 68.446 159.151 73.1464 154.937 77.3605C159.094 82.0037 166.388 89.574 168.285 91.2425C171.632 94.2648 172.557 95.0276 175.36 95.3517V96.1049H168.657C163.204 90.5369 159.256 86.6469 153.85 80.6022C152.935 79.6869 152.172 79.2007 151.2 79.2007C150.933 79.2007 150.609 79.2579 150.332 79.3055V89.4119C150.389 94.1123 150.761 95.142 155.681 95.3517V96.1049H142.495V95.3517L142.505 95.3613Z" fill="#231815"/>
<path d="M189.512 95.3613C194.155 95.142 194.593 94.2267 194.593 89.9553V68.4555C194.593 64.1365 194.593 63.3261 189.836 63.1068V62.2964H202.64C206.044 62.2964 214.415 62.7254 214.415 71.6972C214.415 79.582 206.902 82.8237 201.82 82.2898L197.501 81.098V90.0697C197.501 94.2839 197.883 95.0371 203.394 95.3613V96.1145H189.512V95.3613ZM197.511 79.9062C198.102 80.1732 199.561 80.7166 202.106 80.7166C206.912 80.7166 210.859 78.2282 210.859 71.9641C210.859 66.072 207.455 63.3738 200.81 63.3738C199.351 63.3738 198.541 63.3738 198.054 63.4786C197.673 63.5358 197.511 63.6979 197.511 64.8325V79.9062Z" fill="#231815"/>
<path d="M218.359 95.3615C221.82 95.0946 222.354 94.389 222.354 91.2523V80.0114C222.354 76.5504 221.973 76.2835 218.893 75.74V75.0345C221.162 74.5482 222.888 73.9571 224.948 72.8702V91.2427C224.948 94.3795 225.491 95.0755 229 95.352V96.1052H218.359V95.352V95.3615ZM225.758 63.2692C225.758 64.4037 224.843 65.4334 223.708 65.4334C222.574 65.4334 221.658 64.4037 221.658 63.2692C221.658 61.9725 222.631 61 223.708 61C224.948 61 225.758 62.1346 225.758 63.2692Z" fill="#231815"/>
<path d="M237 67.99C237 66.0215 237.69 64.3678 239.069 63.0287C240.435 61.6762 242.075 61 243.99 61C245.945 61 247.599 61.6896 248.951 63.0689C250.317 64.4347 251 66.0751 251 67.99C251 69.9584 250.31 71.6121 248.931 72.9512C247.579 74.3037 245.932 74.9799 243.99 74.9799C242.771 74.9799 241.613 74.6719 240.515 74.056C239.404 73.4132 238.54 72.5696 237.924 71.5251C237.308 70.4672 237 69.2889 237 67.99ZM250.297 67.99C250.297 66.2224 249.688 64.7293 248.469 63.5108C247.251 62.2922 245.764 61.6829 244.01 61.6829C242.269 61.6829 240.776 62.2922 239.531 63.5108C238.299 64.7427 237.683 66.2358 237.683 67.99C237.683 69.7709 238.306 71.264 239.551 72.4692C240.81 73.6877 242.289 74.297 243.99 74.297C245.771 74.297 247.264 73.6944 248.469 72.4892C249.688 71.2707 250.297 69.7709 250.297 67.99ZM240.093 63.6714H243.93C244.84 63.6714 245.557 63.879 246.079 64.2941C246.615 64.7092 246.882 65.2449 246.882 65.901C246.882 66.9857 246.173 67.7221 244.753 68.1105C245.088 68.5791 245.423 69.0612 245.758 69.5567C246.092 70.0387 246.427 70.5141 246.762 70.9828C246.936 71.2372 247.07 71.418 247.164 71.5251C247.271 71.6322 247.378 71.6992 247.485 71.726L247.947 71.8465V72.2281H246.079L243.187 68.2712H242.504V71.264C242.557 71.4916 242.671 71.6456 242.845 71.726C243.033 71.7929 243.307 71.8264 243.669 71.8264V72.2281H239.993V71.8264L240.495 71.7862C240.682 71.7594 240.81 71.6523 240.877 71.4648C240.957 71.264 240.997 70.9493 240.997 70.5208V65.3989C240.997 64.5954 240.89 64.187 240.676 64.1736L240.093 64.1133V63.6714ZM242.504 67.769H242.765C243.555 67.769 244.157 67.615 244.572 67.307C245.001 66.999 245.215 66.5705 245.215 66.0215C245.215 65.4725 245.034 65.0306 244.673 64.6958C244.311 64.3611 243.849 64.1937 243.287 64.1937C243.033 64.1937 242.771 64.2406 242.504 64.3343V67.769Z" fill="black"/>
</svg>
