<svg width="121" height="120" viewBox="0 0 121 120" fill="none" xmlns="http://www.w3.org/2000/svg">
<rect width="120" height="120" transform="translate(0.167969)" fill="white"/>
<circle cx="31.418" cy="73.75" r="17.5" fill="white"/>
<path d="M91.418 17.5H35.4201L30.168 24.1576V102.939H91.418V17.5Z" stroke="black" stroke-width="3.75"/>
<rect x="35.168" y="27.5" width="51.25" height="57.5" fill="black"/>
<path d="M40.9886 93.7755C41.2357 93.7755 41.4752 93.834 41.7071 93.9511C41.939 94.0659 42.1156 94.2155 42.2369 94.3997C42.354 94.5752 42.432 94.78 42.471 95.0141C42.5057 95.1744 42.523 95.4302 42.523 95.7812H39.9712C39.982 96.1345 40.0654 96.4184 40.2215 96.633C40.3775 96.8453 40.6191 96.9515 40.9464 96.9515C41.252 96.9515 41.4958 96.8508 41.6778 96.6492C41.7818 96.5322 41.8555 96.3967 41.8989 96.2429H42.4743C42.4591 96.3707 42.4082 96.5138 42.3215 96.672C42.2369 96.828 42.1416 96.9559 42.0354 97.0556C41.8577 97.2289 41.6377 97.346 41.3755 97.4066C41.2346 97.4413 41.0753 97.4587 40.8976 97.4587C40.4642 97.4587 40.0968 97.3015 39.7956 96.9873C39.4944 96.6709 39.3438 96.2288 39.3438 95.661C39.3438 95.1018 39.4955 94.6478 39.7989 94.2989C40.1023 93.95 40.4989 93.7755 40.9886 93.7755ZM41.9216 95.3164C41.8978 95.0628 41.8425 94.8602 41.7558 94.7085C41.5955 94.4268 41.3278 94.2859 40.9529 94.2859C40.6842 94.2859 40.4588 94.3834 40.2767 94.5785C40.0947 94.7713 39.9982 95.0173 39.9874 95.3164H41.9216Z" fill="black"/>
<path d="M43.3065 92.5597H44.2329L45.6048 96.5972L46.9668 92.5597H47.8836V97.3351H47.2692V94.5167C47.2692 94.4192 47.2713 94.2577 47.2757 94.0323C47.28 93.8069 47.2822 93.5653 47.2822 93.3074L45.9201 97.3351H45.2797L43.9079 93.3074V93.4537C43.9079 93.5707 43.91 93.7495 43.9144 93.9901C43.9209 94.2285 43.9241 94.404 43.9241 94.5167V97.3351H43.3065V92.5597Z" fill="black"/>
<path d="M48.8523 92.5597H49.7788L51.1506 96.5972L52.5127 92.5597H53.4294V97.3351H52.815V94.5167C52.815 94.4192 52.8172 94.2577 52.8215 94.0323C52.8258 93.8069 52.828 93.5653 52.828 93.3074L51.4659 97.3351H50.8255L49.4537 93.3074V93.4537C49.4537 93.5707 49.4559 93.7495 49.4602 93.9901C49.4667 94.2285 49.4699 94.404 49.4699 94.5167V97.3351H48.8523V92.5597Z" fill="black"/>
<path d="M56.4266 92.4297C57.0313 92.4297 57.5005 92.589 57.8342 92.9076C58.168 93.2261 58.3533 93.5881 58.3901 93.9933H57.7595C57.6879 93.6856 57.5449 93.4418 57.3303 93.2619C57.118 93.082 56.8189 92.9921 56.4331 92.9921C55.9629 92.9921 55.5825 93.1579 55.2921 93.4894C55.0039 93.8189 54.8598 94.3249 54.8598 95.0076C54.8598 95.5667 54.9898 96.0207 55.2498 96.3696C55.5121 96.7164 55.9022 96.8898 56.4201 96.8898C56.8969 96.8898 57.2599 96.7066 57.5091 96.3404C57.6413 96.1475 57.7399 95.8939 57.805 95.5797H58.4356C58.3793 96.0825 58.1929 96.504 57.8765 96.8443C57.4972 97.2539 56.9858 97.4587 56.3421 97.4587C55.7873 97.4587 55.3214 97.2907 54.9443 96.9548C54.448 96.5105 54.1998 95.8246 54.1998 94.897C54.1998 94.1927 54.3862 93.6151 54.759 93.1644C55.1621 92.6746 55.718 92.4297 56.4266 92.4297Z" fill="black"/>
<path d="M61.0623 92.5597H61.9887L63.3606 96.5972L64.7226 92.5597H65.6394V97.3351H65.025V94.5167C65.025 94.4192 65.0271 94.2577 65.0315 94.0323C65.0358 93.8069 65.038 93.5653 65.038 93.3074L63.6759 97.3351H63.0355L61.6636 93.3074V93.4537C61.6636 93.5707 61.6658 93.7495 61.6701 93.9901C61.6766 94.2285 61.6799 94.404 61.6799 94.5167V97.3351H61.0623V92.5597Z" fill="black"/>
<path d="M67.9279 96.958C68.3158 96.958 68.5813 96.8117 68.7244 96.5192C68.8696 96.2244 68.9422 95.8972 68.9422 95.5374C68.9422 95.2124 68.8901 94.948 68.7861 94.7442C68.6214 94.4235 68.3375 94.2631 67.9344 94.2631C67.5768 94.2631 67.3168 94.3997 67.1542 94.6727C66.9917 94.9458 66.9104 95.2752 66.9104 95.661C66.9104 96.0316 66.9917 96.3404 67.1542 96.5874C67.3168 96.8345 67.5747 96.958 67.9279 96.958ZM67.9507 93.7528C68.3993 93.7528 68.7785 93.9023 69.0884 94.2014C69.3983 94.5004 69.5533 94.9404 69.5533 95.5212C69.5533 96.0825 69.4168 96.5463 69.1437 96.9125C68.8706 97.2788 68.447 97.4619 67.8726 97.4619C67.3937 97.4619 67.0134 97.3004 66.7316 96.9775C66.4499 96.6525 66.309 96.2169 66.309 95.6707C66.309 95.0856 66.4575 94.6196 66.7544 94.2729C67.0513 93.9261 67.45 93.7528 67.9507 93.7528Z" fill="black"/>
<path d="M70.6228 95.635C70.6228 96.0077 70.7019 96.3198 70.8601 96.5712C71.0183 96.8226 71.2719 96.9483 71.6208 96.9483C71.8917 96.9483 72.1138 96.8323 72.2872 96.6004C72.4628 96.3664 72.5505 96.0316 72.5505 95.596C72.5505 95.156 72.4606 94.8309 72.2807 94.6207C72.1008 94.4083 71.8787 94.3021 71.6143 94.3021C71.3196 94.3021 71.0801 94.4148 70.8959 94.6402C70.7138 94.8656 70.6228 95.1972 70.6228 95.635ZM71.5038 93.7918C71.7703 93.7918 71.9936 93.8481 72.1734 93.9608C72.2775 94.0258 72.3956 94.1396 72.5278 94.3021V92.5435H73.0902V97.3351H72.5635V96.8508C72.427 97.0653 72.2655 97.2203 72.0792 97.3156C71.8928 97.411 71.6793 97.4587 71.4388 97.4587C71.0508 97.4587 70.7149 97.2961 70.431 96.971C70.1471 96.6438 70.0052 96.2093 70.0052 95.6675C70.0052 95.1603 70.1341 94.7215 70.392 94.3509C70.6521 93.9781 71.0227 93.7918 71.5038 93.7918Z" fill="black"/>
<path d="M74.5433 93.8535V96.1648C74.5433 96.3425 74.5714 96.4878 74.6278 96.6004C74.7318 96.8085 74.9258 96.9125 75.2097 96.9125C75.6171 96.9125 75.8945 96.7305 76.0419 96.3664C76.1221 96.1713 76.1622 95.9037 76.1622 95.5634V93.8535H76.7473V97.3351H76.1947L76.2012 96.8215C76.1253 96.9537 76.031 97.0653 75.9183 97.1563C75.6951 97.3384 75.4242 97.4294 75.1056 97.4294C74.6094 97.4294 74.2713 97.2636 74.0914 96.932C73.9939 96.7543 73.9451 96.517 73.9451 96.2201V93.8535H74.5433Z" fill="black"/>
<path d="M77.6803 92.5597H78.2654V97.3351H77.6803V92.5597Z" fill="black"/>
<path d="M80.5962 93.7755C80.8433 93.7755 81.0828 93.834 81.3146 93.9511C81.5465 94.0659 81.7232 94.2155 81.8445 94.3997C81.9616 94.5752 82.0396 94.78 82.0786 95.0141C82.1133 95.1744 82.1306 95.4302 82.1306 95.7812H79.5787C79.5896 96.1345 79.673 96.4184 79.829 96.633C79.9851 96.8453 80.2267 96.9515 80.554 96.9515C80.8595 96.9515 81.1033 96.8508 81.2854 96.6492C81.3894 96.5322 81.4631 96.3967 81.5064 96.2429H82.0818C82.0667 96.3707 82.0157 96.5138 81.929 96.672C81.8445 96.828 81.7492 96.9559 81.643 97.0556C81.4653 97.2289 81.2453 97.346 80.9831 97.4066C80.8422 97.4413 80.6829 97.4587 80.5052 97.4587C80.0718 97.4587 79.7044 97.3015 79.4032 96.9873C79.1019 96.6709 78.9513 96.2288 78.9513 95.661C78.9513 95.1018 79.103 94.6478 79.4064 94.2989C79.7098 93.95 80.1064 93.7755 80.5962 93.7755ZM81.5292 95.3164C81.5054 95.0628 81.4501 94.8602 81.3634 94.7085C81.203 94.4268 80.9354 94.2859 80.5605 94.2859C80.2917 94.2859 80.0663 94.3834 79.8843 94.5785C79.7023 94.7713 79.6058 95.0173 79.595 95.3164H81.5292Z" fill="black"/>
</svg>
