<svg width="165" height="166" viewBox="0 0 165 166" fill="none" xmlns="http://www.w3.org/2000/svg">
<rect x="2.75" y="2.97656" width="159.5" height="159.5" rx="17.875" stroke="white" stroke-width="5.5"/>
<path d="M13.3125 73.5706V110.34C13.3125 111.195 14.0056 111.888 14.8607 111.888H82.4969H150.133C150.988 111.888 151.681 111.195 151.681 110.34V73.5706C151.681 72.7155 150.988 72.0224 150.133 72.0224H141.231C140.376 72.0224 139.683 71.3292 139.683 70.4742V54.0247C139.683 53.1697 138.99 52.4766 138.135 52.4766H27.2462C26.3911 52.4766 25.698 53.1697 25.698 54.0247V70.4742C25.698 71.3292 25.0048 72.0224 24.1498 72.0224H14.8607C14.0056 72.0224 13.3125 72.7155 13.3125 73.5706Z" stroke="white" stroke-width="4.125"/>
<path d="M29.957 79.2933V98.9198C29.957 102.126 32.5563 104.725 35.7627 104.725H82.4017H129.041C132.247 104.725 134.846 102.126 134.846 98.9198V79.1466C134.846 76.635 132.81 74.5989 130.299 74.5989C127.787 74.5989 125.751 72.5629 125.751 70.0513V65.6338C125.751 62.4274 123.152 59.8281 119.945 59.8281H45.1514C41.945 59.8281 39.3457 62.4274 39.3457 65.6338V69.9046C39.3457 72.4972 37.244 74.5989 34.6514 74.5989C32.0588 74.5989 29.957 76.7006 29.957 79.2933Z" stroke="white" stroke-width="4.125"/>
<rect x="48.1445" y="73.3789" width="69.2812" height="9.2891" fill="white"/>
<rect x="34.5977" y="91.957" width="12.3855" height="9.2891" fill="white"/>
<rect x="55.4961" y="91.957" width="12.3855" height="9.2891" fill="white"/>
<rect x="76.4023" y="91.957" width="12.3855" height="9.2891" fill="white"/>
<rect x="97.3008" y="91.957" width="12.3855" height="9.2891" fill="white"/>
<rect x="118.199" y="91.957" width="12.3855" height="9.2891" fill="white"/>
</svg>
