<svg width="165" height="166" viewBox="0 0 165 166" fill="none" xmlns="http://www.w3.org/2000/svg">
<path d="M68.2099 138.316H109.973M68.2099 19.4766H122.299C125.337 19.4766 127.799 21.939 127.799 24.9766V140.456C127.799 143.493 125.337 145.956 122.299 145.956H44C40.9624 145.956 38.5 143.493 38.5 140.456V110.813L47.6676 106.399V89.7616H38.5V71.2566L54.798 61.5797V32.8884L68.2099 19.4766Z" stroke="white" stroke-width="4.125" stroke-linecap="round"/>
<path d="M66.6836 33.4219V42.0802" stroke="white" stroke-width="4.125" stroke-linecap="round"/>
<path d="M75.168 29.7031V41.7888" stroke="white" stroke-width="4.125" stroke-linecap="round"/>
<path d="M83.6602 29.7031V41.7888" stroke="white" stroke-width="4.125" stroke-linecap="round"/>
<path d="M92.1484 29.7031V41.7888" stroke="white" stroke-width="4.125" stroke-linecap="round"/>
<path d="M100.637 29.7031V41.7888" stroke="white" stroke-width="4.125" stroke-linecap="round"/>
<path d="M109.125 29.7031V41.7888" stroke="white" stroke-width="4.125" stroke-linecap="round"/>
<path d="M117.609 29.7031V41.7888" stroke="white" stroke-width="4.125" stroke-linecap="round"/>
<rect x="62.2656" y="123.035" width="55.3452" height="8.48853" stroke="white" stroke-width="4.125"/>
<rect x="2.75" y="2.97656" width="159.5" height="159.5" rx="17.875" stroke="white" stroke-width="5.5"/>
</svg>
