<svg width="106" height="107" viewBox="0 0 106 107" fill="none" xmlns="http://www.w3.org/2000/svg">
<path d="M52.163 0.682209C23.5007 0.957826 -1.58732 25.0456 0.0785064 56.6375C1.48606 83.3307 23.7728 106.432 53.1684 106.358C82.5328 106.281 105.754 82.1242 105.686 53.6231C105.7 24.1841 81.8932 0.397926 52.163 0.682209ZM53.0748 103.132C25.6831 103.229 2.77053 80.4982 3.26629 52.6714C3.73605 26.2036 25.5635 4.21842 52.2878 3.9428C80.3782 3.65332 102.653 26.7791 102.367 53.3544C102.739 80.805 79.8737 103.035 53.0748 103.132Z" fill="#74BC1F"/>
<path d="M53.0113 7.58606C27.4501 7.52885 6.88982 28.2989 6.92623 53.3227C6.81529 78.8805 27.4952 99.4477 52.753 99.4668C78.342 99.4876 98.5729 78.9082 98.7913 53.9225C99.0132 28.5416 78.4564 7.64499 53.0113 7.58606ZM43.0978 13.5993H62.6076V33.1802H43.0978V13.5993ZM40.411 34.8391C43.5658 34.8669 46.719 34.8738 49.8721 34.8755C54.724 34.8773 59.5758 34.8703 64.4277 34.8669C65.9722 34.8669 65.9826 34.8669 65.9844 36.4165C65.9913 44.1581 65.9792 51.8979 66.0069 59.6376C66.0156 62.3071 64.7692 63.5777 62.6215 64.0648C61.6716 64.2798 60.6454 64.1636 59.6539 64.1775C58.6467 64.1914 57.6361 64.181 56.5458 64.181C56.5458 64.6109 56.5423 65.0217 56.5458 65.4325C56.551 66.0202 56.2737 66.3651 55.6808 66.3686C53.7844 66.3772 51.8881 66.3703 49.9917 66.3616C49.3624 66.3582 49.1042 66.0566 49.1596 65.3979C49.2931 63.8395 49.151 64.1584 47.9168 64.1619C46.4832 64.1619 45.0497 64.1827 43.6178 64.148C41.4562 64.096 39.8702 62.5984 39.7367 60.4246C39.6552 59.1072 39.7055 57.7794 39.7055 56.4568C39.7037 50.1714 39.7072 43.8859 39.7055 37.6005C39.7055 36.9175 39.7228 36.2328 39.6829 35.5516C39.6483 34.9917 39.8736 34.8339 40.411 34.8391Z" fill="#74BC1F"/>
<path d="M56.5453 64.1801C56.5453 64.61 56.5418 65.0208 56.5453 65.4334C56.5505 66.0193 56.2731 66.366 55.6803 66.3677C53.7839 66.3764 51.8875 66.3694 49.9911 66.3608C49.3619 66.3573 49.1019 66.0557 49.1591 65.397C49.2926 63.8386 49.1504 64.1593 47.9162 64.161C46.4827 64.1645 45.0491 64.1836 43.6156 64.1489C41.454 64.0969 39.8696 62.5992 39.7344 60.4255C39.6529 59.1081 39.7032 57.7802 39.7032 56.4576C39.7032 50.1722 39.7032 43.8868 39.7032 37.6013C39.7032 36.9184 39.7205 36.2336 39.6789 35.5524C39.646 34.9925 39.8696 34.8348 40.4087 34.84C43.5618 34.8677 46.715 34.8746 49.8698 34.8764C54.7217 34.8781 59.5736 34.8712 64.4255 34.8694C65.9699 34.8694 65.9803 34.8694 65.9821 36.4191C65.989 44.1589 65.9769 51.9004 66.0046 59.6402C66.015 62.308 64.7669 63.5803 62.6192 64.0657C61.6693 64.2806 60.6431 64.1645 59.6516 64.1784C58.6427 64.1922 57.6339 64.1818 56.5418 64.1818L56.5453 64.1801ZM53.0108 38.4542C52.4648 39.4318 51.9794 40.2968 51.4472 41.2485C51.7194 41.2762 51.8875 41.3178 52.0505 41.3074C52.4353 41.2831 52.541 41.4669 52.541 41.824C52.548 45.6601 52.567 49.4944 52.5792 53.3305C52.5792 53.4519 52.5601 53.5749 52.548 53.6963C52.496 53.7292 52.4422 53.7621 52.3902 53.7951C51.442 52.8018 50.4626 51.8363 49.5595 50.8032C49.1539 50.3403 49.426 48.9449 49.8247 48.4665C50.0899 48.1476 50.369 47.7541 50.4228 47.3623C50.5042 46.7729 49.8646 46.1524 49.1955 45.9998C48.5975 45.8629 47.9752 46.116 47.7099 46.5996C47.4378 47.0988 47.521 48.1562 47.9596 48.4474C48.4553 48.7751 48.5091 49.1911 48.4831 49.6955C48.4328 50.6784 48.7656 51.4896 49.5144 52.1605C50.187 52.762 50.7677 53.4675 51.4507 54.0568C52.3209 54.8074 52.7196 55.6811 52.5913 56.8425C52.5324 57.3729 52.4058 57.7473 51.9153 58.016C51.2479 58.3835 51.0035 59.1063 51.1733 59.9644C51.3224 60.7115 51.8528 61.2367 52.5809 61.3581C53.5221 61.5141 54.3785 61.124 54.7026 60.3908C55.0996 59.4911 54.8101 58.588 53.9971 57.9363C53.7562 57.7438 53.5066 57.392 53.4996 57.1077C53.4511 55.4557 53.4597 53.802 53.4857 52.1483C53.4892 51.8918 53.6088 51.578 53.7822 51.3943C54.5223 50.609 55.2487 49.7943 56.0824 49.1165C57.1658 48.236 57.7344 47.2236 57.5056 45.8022C57.4761 45.6185 57.7396 45.381 57.8817 45.1782C57.9961 45.0152 58.2423 44.8644 58.2371 44.7136C58.2215 44.1138 58.1314 43.5141 58.062 42.916C58.0603 42.897 57.9857 42.871 57.9441 42.871C57.3721 42.8658 56.8001 42.8536 56.2298 42.8727C56.1275 42.8762 55.9455 43.0166 55.942 43.0981C55.9195 43.7117 55.9074 44.3288 55.9576 44.9407C55.9663 45.0516 56.2818 45.1331 56.4482 45.2406C56.4967 45.2718 56.5453 45.3481 56.5435 45.4001C56.5123 46.2529 56.8434 47.1526 56.0859 47.8979C55.318 48.6554 54.6125 49.4754 53.8723 50.2641C53.796 50.3455 53.6816 50.3923 53.5048 50.5068V41.3785C53.8896 41.3542 54.2242 41.3317 54.6697 41.3039C54.0942 40.3159 53.5811 39.4405 53.0073 38.4576L53.0108 38.4542Z" fill="white"/>
<path d="M62.6114 33.1785H43.1016V13.5977H62.6114V33.1785ZM46.5095 21.3686C46.5095 22.5612 46.532 23.6828 46.4991 24.8008C46.4852 25.3053 46.6967 25.4665 47.1561 25.4665C48.1909 25.4665 49.2275 25.5012 50.2606 25.4821C50.4097 25.4786 50.6801 25.2602 50.6819 25.1354C50.7044 24.0139 50.694 22.8906 50.6559 21.7691C50.6507 21.6321 50.4375 21.3877 50.3179 21.386C49.068 21.3582 47.8165 21.3686 46.5078 21.3686H46.5095ZM59.1566 23.3742C59.1566 23.3742 59.167 23.3742 59.1722 23.3742C59.1722 22.8455 59.2034 22.3134 59.1549 21.7899C59.1376 21.6165 58.914 21.3236 58.7805 21.3218C57.6797 21.3045 56.5773 21.327 55.4783 21.3773C55.3223 21.3842 55.0501 21.6044 55.0484 21.7309C55.0241 22.8317 55.0519 23.9324 55.0588 25.0331C55.0605 25.4232 55.2755 25.4942 55.6187 25.4873C56.6102 25.4665 57.6035 25.4526 58.5933 25.4821C59.0544 25.496 59.1705 25.2966 59.1601 24.8962C59.1462 24.39 59.1566 23.8821 59.1566 23.376V23.3742Z" fill="white"/>
<path d="M53.0123 38.4527C53.5861 39.4355 54.0974 40.3127 54.6747 41.299C54.2292 41.3285 53.8946 41.3493 53.5098 41.3735V50.5018C53.6866 50.3874 53.801 50.3406 53.8773 50.2591C54.6157 49.4704 55.3212 48.6505 56.0909 47.893C56.8484 47.1476 56.5173 46.2479 56.5485 45.3951C56.5502 45.3414 56.5017 45.2651 56.4532 45.2356C56.2868 45.1281 55.9713 45.0484 55.9626 44.9357C55.9123 44.3256 55.9245 43.7067 55.947 43.0931C55.9505 43.0116 56.1325 42.8712 56.2347 42.8677C56.805 42.8469 57.3771 42.8608 57.9491 42.866C57.9907 42.866 58.0653 42.8903 58.067 42.9111C58.1363 43.5091 58.2265 44.1089 58.2421 44.7087C58.2455 44.8595 57.9994 45.0103 57.8867 45.1732C57.7446 45.376 57.4811 45.6135 57.5106 45.7972C57.7394 47.2204 57.1725 48.2327 56.0874 49.1116C55.2536 49.7893 54.5273 50.6041 53.7871 51.3893C53.6138 51.5748 53.4942 51.8868 53.4907 52.1434C53.4664 53.7953 53.456 55.4507 53.5046 57.1027C53.5133 57.3887 53.7629 57.7389 54.0021 57.9313C54.8151 58.5831 55.1045 59.4879 54.7076 60.3858C54.3834 61.1191 53.5271 61.5091 52.5859 61.3531C51.8578 61.2318 51.3274 60.7065 51.1783 59.9594C51.0084 59.1031 51.2529 58.3785 51.9202 58.011C52.4108 57.7406 52.5373 57.3662 52.5963 56.8375C52.7245 55.6761 52.3241 54.8024 51.4557 54.0519C50.7727 53.4625 50.192 52.757 49.5194 52.1555C48.7706 51.4864 48.4378 50.6751 48.488 49.6905C48.514 49.1861 48.4586 48.7701 47.9645 48.4425C47.526 48.153 47.4428 47.0939 47.7149 46.5946C47.9801 46.1093 48.6024 45.8579 49.2005 45.9949C49.8678 46.1474 50.5092 46.768 50.4277 47.3573C50.374 47.7474 50.0949 48.1426 49.8297 48.4615C49.431 48.94 49.1606 50.3354 49.5645 50.7982C50.4676 51.8313 51.447 52.7969 52.3952 53.7901C52.4472 53.7572 52.5009 53.7242 52.5529 53.6913C52.5633 53.57 52.5841 53.4469 52.5841 53.3256C52.5703 49.4895 52.5529 45.6551 52.546 41.819C52.546 41.4602 52.4403 41.2765 52.0554 41.3025C51.8908 41.3129 51.7243 41.273 51.4522 41.2435C51.9844 40.2919 52.4697 39.4269 53.0158 38.4492L53.0123 38.4527Z" fill="#74BC1F"/>
<path d="M46.5095 21.3691C47.8182 21.3691 49.0698 21.3587 50.3196 21.3864C50.4409 21.3899 50.6541 21.6326 50.6576 21.7695C50.6957 22.8911 50.7061 24.0143 50.6836 25.1359C50.6818 25.2589 50.4114 25.4791 50.2624 25.4825C49.2275 25.5016 48.1926 25.4687 47.1578 25.4669C46.6967 25.4669 46.4852 25.3057 46.5008 24.8013C46.532 23.6815 46.5112 22.5617 46.5112 21.3691H46.5095Z" fill="#74BC1F"/>
<path d="M59.1571 23.377C59.1571 23.8832 59.1467 24.3911 59.1605 24.8972C59.1709 25.2994 59.0548 25.4987 58.5937 25.4831C57.6022 25.4537 56.6107 25.4675 55.6191 25.4883C55.2759 25.4953 55.061 25.4242 55.0592 25.0342C55.0523 23.9334 55.0246 22.8327 55.0488 21.732C55.0523 21.6054 55.3245 21.3853 55.4787 21.3784C56.5795 21.3281 57.6802 21.3038 58.7809 21.3229C58.9144 21.3246 59.138 21.6176 59.1553 21.7909C59.2056 22.3144 59.1727 22.8466 59.1727 23.3753C59.1675 23.3753 59.1623 23.3753 59.1571 23.3753V23.377Z" fill="#74BC1F"/>
<path d="M32.8088 72.4805H35.0865V79.3275C35.0865 80.3121 34.8924 81.1684 34.5058 81.8948C34.1193 82.6228 33.5576 83.1827 32.8261 83.5745C32.0929 83.9679 31.2244 84.1638 30.219 84.1638C29.2136 84.1638 28.3296 83.9679 27.5963 83.5745C26.8631 83.1827 26.3032 82.6211 25.9166 81.8948C25.5283 81.1667 25.3359 80.3121 25.3359 79.3275V72.4805H27.6137V78.778C27.6137 79.8874 27.8408 80.7143 28.2966 81.2586C28.7525 81.8029 29.3939 82.075 30.2208 82.075C31.0476 82.075 31.6734 81.8029 32.1293 81.2586C32.5852 80.7143 32.8122 79.8874 32.8122 78.778V72.4805H32.8088Z" fill="white"/>
<path d="M44.5342 82.6168C44.1303 83.1455 43.6068 83.5356 42.9637 83.7869C42.3206 84.0383 41.6307 84.1631 40.8991 84.1631C39.8313 84.1631 38.8676 83.9152 38.0095 83.4177C37.1515 82.9202 36.5812 82.2164 36.2969 81.3046L38.1499 80.2524C38.4013 80.8383 38.767 81.2942 39.2489 81.6184C39.7308 81.9425 40.3063 82.1055 40.9771 82.1055C41.5214 82.1055 41.9531 81.9963 42.272 81.7761C42.591 81.556 42.7505 81.237 42.7505 80.8175C42.7505 80.483 42.643 80.2056 42.428 79.9855C42.2131 79.7653 41.9461 79.5937 41.6272 79.4672C41.3082 79.3407 40.8714 79.195 40.3167 79.0269C39.5731 78.8068 38.9664 78.5901 38.4949 78.3751C38.0234 78.1602 37.6212 77.8395 37.2849 77.4096C36.9504 76.9797 36.7822 76.4146 36.7822 75.7126C36.7822 74.9689 36.9781 74.338 37.3716 73.8197C37.7651 73.3014 38.2817 72.9148 38.9265 72.6583C39.5696 72.4017 40.263 72.2734 41.0066 72.2734C42.0224 72.2734 42.8909 72.504 43.6137 72.9651C44.3365 73.4262 44.8011 74.0485 45.0109 74.8337L43.1578 75.8859C42.9689 75.3936 42.6863 75.0088 42.3102 74.7314C41.934 74.4541 41.4625 74.3154 40.8974 74.3154C40.3843 74.3154 39.9683 74.4333 39.6493 74.669C39.3304 74.9048 39.1709 75.2168 39.1709 75.6034C39.1709 75.8963 39.2697 76.1407 39.4691 76.3331C39.6684 76.5273 39.9215 76.6833 40.23 76.8046C40.5386 76.926 40.9546 77.0647 41.4781 77.2207C42.2322 77.4408 42.8545 77.6627 43.3468 77.888C43.8391 78.1134 44.2603 78.4479 44.6104 78.8934C44.9606 79.3389 45.1374 79.9214 45.1374 80.6442C45.1374 81.4294 44.9363 82.0864 44.5324 82.6151L44.5342 82.6168Z" fill="white"/>
<path d="M55.5921 80.664C55.5921 81.7006 55.2125 82.5119 54.4533 83.0978C53.694 83.6837 52.6297 83.9766 51.2568 83.9766H46.6719V72.4805H50.8338C52.0594 72.4805 53.0561 72.7613 53.8258 73.3212C54.5954 73.8811 54.9802 74.6698 54.9802 75.6839C54.9802 76.6979 54.5503 77.5161 53.6923 78.0084C54.9594 78.4591 55.5921 79.3431 55.5921 80.6623V80.664ZM48.9028 74.4601V77.1763H50.6154C51.2325 77.1763 51.7231 77.0481 52.0837 76.7915C52.4442 76.535 52.6262 76.1918 52.6262 75.7636C52.6262 75.3354 52.4477 75.0234 52.0923 74.7981C51.737 74.5727 51.2447 74.4601 50.6154 74.4601H48.9028ZM51.0696 81.9988C51.7612 81.9988 52.2917 81.874 52.6644 81.6226C53.0353 81.3713 53.2225 81.0159 53.2225 80.5548C53.2225 80.0937 53.037 79.7332 52.6644 79.4714C52.2934 79.2097 51.756 79.0779 51.054 79.0779H48.9028V81.9988H51.0696Z" fill="white"/>
<path d="M64.4822 81.9828H69.0827V83.978H61.1523V82.5011L64.6226 78.6061C65.2189 77.937 65.6349 77.41 65.8707 77.0287C66.1064 76.6473 66.2243 76.2521 66.2243 75.843C66.2243 75.3923 66.0978 75.0317 65.8481 74.7596C65.5968 74.4874 65.257 74.3505 64.8272 74.3505C64.3973 74.3505 64.0003 74.51 63.6658 74.8289C63.3312 75.1479 63.0747 75.6003 62.8961 76.1879L61.1055 75.1514C61.3776 74.2188 61.8699 73.5046 62.5824 73.0071C63.2948 72.5096 64.1164 72.2617 65.0473 72.2617C65.7805 72.2617 66.4167 72.4108 66.9558 72.7089C67.4949 73.0071 67.9092 73.4179 68.197 73.9414C68.4847 74.4649 68.6286 75.0612 68.6286 75.7321C68.6286 76.4029 68.4691 77.0061 68.1502 77.5782C67.8312 78.1485 67.2626 78.8886 66.4462 79.8004L64.4839 81.9828H64.4822Z" fill="white"/>
<path d="M70.9699 83.8051C70.7186 83.5433 70.5938 83.2296 70.5938 82.8621C70.5938 82.4946 70.7186 82.1826 70.9699 81.9191C71.2213 81.6574 71.5246 81.5273 71.88 81.5273C72.2353 81.5273 72.5577 81.6591 72.8143 81.9191C73.0708 82.1809 73.1991 82.4946 73.1991 82.8621C73.1991 83.2296 73.0708 83.5433 72.8143 83.8051C72.5577 84.0668 72.2457 84.1968 71.88 84.1968C71.5142 84.1968 71.2195 84.0651 70.9699 83.8051Z" fill="white"/>
<path d="M81.6805 82.6541C80.9785 83.6647 79.9783 84.1691 78.6817 84.1691C77.385 84.1691 76.3814 83.6647 75.6741 82.6541C74.9669 81.6435 74.6133 80.1701 74.6133 78.2338C74.6133 76.2976 74.9669 74.8051 75.6741 73.7893C76.3814 72.7735 77.3833 72.2656 78.6817 72.2656C79.98 72.2656 80.9802 72.7735 81.6805 73.7893C82.3825 74.8051 82.7327 76.2872 82.7327 78.2338C82.7327 80.1805 82.3825 81.6435 81.6805 82.6541ZM77.4318 81.1304C77.6988 81.7649 78.1148 82.0803 78.6799 82.0803C79.245 82.0803 79.6593 81.7631 79.9211 81.1304C80.1828 80.4977 80.3146 79.5305 80.3146 78.2338C80.3146 76.9372 80.1828 75.9509 79.9211 75.313C79.6593 74.6751 79.245 74.3544 78.6799 74.3544C78.1148 74.3544 77.6988 74.6716 77.4318 75.3043C77.1649 75.9388 77.0314 76.9147 77.0314 78.2338C77.0314 79.553 77.1649 80.4977 77.4318 81.1304Z" fill="white"/>
</svg>
