<svg width="106" height="106" viewBox="0 0 106 106" fill="none" xmlns="http://www.w3.org/2000/svg">
<path d="M52.163 0.00252194C23.5007 0.278138 -1.58732 24.366 0.0785064 55.9578C1.48606 82.651 23.7728 105.752 53.1684 105.678C82.5328 105.602 105.754 81.4445 105.686 52.9434C105.7 23.5044 81.8932 -0.281761 52.163 0.00252194ZM53.0748 102.452C25.6831 102.549 2.77053 79.8185 3.2663 51.9917C3.73606 25.5239 25.5635 3.53873 52.2878 3.26311C80.3782 2.97363 102.653 26.0994 102.367 52.6747C102.739 80.1254 79.8737 102.355 53.0748 102.452Z" fill="#74BC1F"/>
<path d="M53.0113 6.90637C27.4501 6.84916 6.88982 27.6192 6.92623 52.6431C6.81529 78.2008 27.4952 98.768 52.753 98.7871C78.342 98.8079 98.5729 78.2286 98.7914 53.2428C99.0132 27.8619 78.4564 6.9653 53.0113 6.90637ZM43.0978 12.9197H62.6076V32.5005H43.0978V12.9197ZM40.411 34.1594C43.5658 34.1872 46.719 34.1941 49.8721 34.1958C54.724 34.1976 59.5759 34.1906 64.4277 34.1872C65.9722 34.1872 65.9826 34.1872 65.9844 35.7369C65.9913 43.4784 65.9792 51.2182 66.0069 58.958C66.0156 61.6274 64.7692 62.8981 62.6215 63.3852C61.6716 63.6001 60.6454 63.484 59.6538 63.4978C58.6467 63.5117 57.6361 63.5013 56.5458 63.5013C56.5458 63.9312 56.5423 64.342 56.5458 64.7528C56.551 65.3405 56.2737 65.6854 55.6808 65.6889C53.7844 65.6976 51.8881 65.6906 49.9917 65.6819C49.3624 65.6785 49.1042 65.3769 49.1596 64.7182C49.2931 63.1598 49.151 63.4788 47.9168 63.4822C46.4832 63.4822 45.0497 63.503 43.6179 63.4684C41.4563 63.4164 39.8702 61.9187 39.7367 59.7449C39.6552 58.4275 39.7055 57.0997 39.7055 55.7771C39.7038 49.4917 39.7072 43.2062 39.7055 36.9208C39.7055 36.2378 39.7228 35.5531 39.683 34.8719C39.6483 34.312 39.8736 34.1542 40.411 34.1594Z" fill="#74BC1F"/>
<path d="M56.5453 63.5004C56.5453 63.9303 56.5418 64.3411 56.5453 64.7537C56.5505 65.3396 56.2731 65.6863 55.6803 65.688C53.7839 65.6967 51.8875 65.6897 49.9911 65.6811C49.3619 65.6776 49.1019 65.376 49.1591 64.7173C49.2926 63.1589 49.1504 63.4796 47.9162 63.4813C46.4827 63.4848 45.0491 63.5039 43.6156 63.4692C41.454 63.4172 39.8696 61.9195 39.7344 59.7458C39.6529 58.4284 39.7032 57.1006 39.7032 55.7779C39.7032 49.4925 39.7032 43.2071 39.7032 36.9216C39.7032 36.2387 39.7205 35.554 39.6789 34.8727C39.646 34.3128 39.8696 34.1551 40.4087 34.1603C43.5618 34.188 46.7149 34.1949 49.8698 34.1967C54.7217 34.1984 59.5736 34.1915 64.4255 34.1897C65.9699 34.1897 65.9803 34.1897 65.9821 35.7394C65.989 43.4792 65.9769 51.2207 66.0046 58.9605C66.015 61.6283 64.7669 62.9006 62.6192 63.386C61.6693 63.6009 60.6431 63.4848 59.6516 63.4987C58.6427 63.5125 57.6339 63.5021 56.5418 63.5021L56.5453 63.5004ZM53.0108 37.7745C52.4648 38.7522 51.9794 39.6171 51.4472 40.5688C51.7194 40.5965 51.8875 40.6381 52.0505 40.6277C52.4353 40.6035 52.541 40.7872 52.541 41.1443C52.548 44.9804 52.567 48.8147 52.5792 52.6508C52.5792 52.7722 52.5601 52.8952 52.548 53.0166C52.496 53.0495 52.4422 53.0825 52.3902 53.1154C51.442 52.1221 50.4626 51.1566 49.5595 50.1235C49.1539 49.6607 49.426 48.2652 49.8247 47.7868C50.09 47.4679 50.369 47.0744 50.4228 46.6826C50.5042 46.0932 49.8646 45.4727 49.1955 45.3201C48.5975 45.1832 47.9752 45.4363 47.7099 45.9199C47.4378 46.4191 47.521 47.4765 47.9596 47.7677C48.4553 48.0954 48.5091 48.5114 48.483 49.0158C48.4328 49.9987 48.7656 50.8099 49.5144 51.4808C50.187 52.0823 50.7677 52.7878 51.4507 53.3771C52.3209 54.1277 52.7196 55.0014 52.5913 56.1628C52.5324 56.6932 52.4058 57.0676 51.9153 57.3363C51.2479 57.7038 51.0035 58.4266 51.1733 59.2847C51.3224 60.0318 51.8528 60.557 52.5809 60.6784C53.5221 60.8344 54.3785 60.4444 54.7026 59.7111C55.0996 58.8115 54.8101 57.9083 53.9971 57.2566C53.7562 57.0642 53.5065 56.7123 53.4996 56.428C53.4511 54.776 53.4598 53.1223 53.4858 51.4686C53.4892 51.2121 53.6088 50.8983 53.7822 50.7146C54.5223 49.9293 55.2487 49.1146 56.0824 48.4369C57.1658 47.5563 57.7344 46.5439 57.5056 45.1225C57.4761 44.9388 57.7396 44.7013 57.8817 44.4985C57.9961 44.3355 58.2423 44.1847 58.2371 44.0339C58.2215 43.4342 58.1314 42.8344 58.062 42.2364C58.0603 42.2173 57.9857 42.1913 57.9441 42.1913C57.3721 42.1861 56.8001 42.1739 56.2298 42.193C56.1275 42.1965 55.9455 42.3369 55.942 42.4184C55.9195 43.032 55.9074 43.6491 55.9576 44.261C55.9663 44.3719 56.2818 44.4534 56.4482 44.5609C56.4967 44.5921 56.5453 44.6684 56.5435 44.7204C56.5123 45.5732 56.8434 46.4729 56.0859 47.2182C55.318 47.9758 54.6125 48.7957 53.8723 49.5844C53.796 49.6659 53.6816 49.7127 53.5048 49.8271V40.6988C53.8896 40.6745 54.2242 40.652 54.6697 40.6243C54.0942 39.6362 53.5811 38.7608 53.0073 37.778L53.0108 37.7745Z" fill="white"/>
<path d="M62.6114 32.4988H43.1016V12.918H62.6114V32.4988ZM46.5095 20.689C46.5095 21.8816 46.532 23.0031 46.4991 24.1212C46.4852 24.6256 46.6967 24.7868 47.1561 24.7868C48.1909 24.7868 49.2275 24.8215 50.2607 24.8024C50.4097 24.7989 50.6801 24.5805 50.6819 24.4557C50.7044 23.3342 50.694 22.2109 50.6559 21.0894C50.6507 20.9524 50.4375 20.708 50.3179 20.7063C49.068 20.6786 47.8165 20.689 46.5078 20.689H46.5095ZM59.1566 22.6945C59.1566 22.6945 59.1671 22.6945 59.1723 22.6945C59.1723 22.1658 59.2034 21.6337 59.1549 21.1102C59.1376 20.9368 58.914 20.6439 58.7805 20.6422C57.6798 20.6248 56.5773 20.6474 55.4783 20.6976C55.3223 20.7046 55.0501 20.9247 55.0484 21.0512C55.0241 22.152 55.0519 23.2527 55.0588 24.3534C55.0605 24.7435 55.2755 24.8145 55.6187 24.8076C56.6102 24.7868 57.6035 24.7729 58.5933 24.8024C59.0544 24.8163 59.1705 24.6169 59.1601 24.2165C59.1462 23.7103 59.1566 23.2024 59.1566 22.6963V22.6945Z" fill="white"/>
<path d="M53.0123 37.773C53.5861 38.7559 54.0974 39.633 54.6747 40.6193C54.2292 40.6488 53.8946 40.6696 53.5098 40.6938V49.8221C53.6866 49.7077 53.801 49.6609 53.8773 49.5794C54.6157 48.7907 55.3212 47.9708 56.0909 47.2133C56.8484 46.4679 56.5173 45.5683 56.5485 44.7154C56.5502 44.6617 56.5017 44.5854 56.4532 44.5559C56.2868 44.4485 55.9713 44.3687 55.9626 44.256C55.9123 43.6459 55.9245 43.027 55.947 42.4134C55.9505 42.3319 56.1325 42.1915 56.2348 42.1881C56.8051 42.1673 57.3771 42.1811 57.9491 42.1863C57.9907 42.1863 58.0652 42.2106 58.067 42.2314C58.1363 42.8294 58.2265 43.4292 58.2421 44.029C58.2455 44.1798 57.9994 44.3306 57.8867 44.4935C57.7446 44.6963 57.4811 44.9338 57.5106 45.1176C57.7394 46.5407 57.1725 47.553 56.0874 48.4319C55.2536 49.1097 54.5273 49.9244 53.7871 50.7096C53.6138 50.8951 53.4942 51.2071 53.4907 51.4637C53.4665 53.1156 53.4561 54.7711 53.5046 56.423C53.5133 56.709 53.7629 57.0592 54.0021 57.2516C54.8151 57.9034 55.1046 58.8082 54.7076 59.7062C54.3834 60.4394 53.5271 60.8294 52.5859 60.6734C51.8578 60.5521 51.3274 60.0268 51.1783 59.2797C51.0084 58.4234 51.2529 57.6988 51.9202 57.3313C52.4108 57.0609 52.5373 56.6865 52.5963 56.1578C52.7245 54.9964 52.3241 54.1228 51.4557 53.3722C50.7727 52.7828 50.192 52.0773 49.5194 51.4758C48.7706 50.8067 48.4378 49.9954 48.488 49.0109C48.514 48.5064 48.4586 48.0904 47.9645 47.7628C47.526 47.4733 47.4428 46.4142 47.7149 45.9149C47.9801 45.4296 48.6024 45.1782 49.2005 45.3152C49.8678 45.4677 50.5092 46.0883 50.4277 46.6777C50.374 47.0677 50.0949 47.4629 49.8297 47.7819C49.431 48.2603 49.1606 49.6557 49.5645 50.1185C50.4676 51.1517 51.447 52.1172 52.3952 53.1104C52.4472 53.0775 52.5009 53.0446 52.5529 53.0116C52.5633 52.8903 52.5841 52.7672 52.5841 52.6459C52.5703 48.8098 52.5529 44.9754 52.546 41.1393C52.546 40.7805 52.4403 40.5968 52.0554 40.6228C51.8908 40.6332 51.7244 40.5933 51.4522 40.5638C51.9844 39.6122 52.4697 38.7472 53.0158 37.7695L53.0123 37.773Z" fill="#74BC1F"/>
<path d="M46.5095 20.6894C47.8182 20.6894 49.0697 20.679 50.3196 20.7067C50.4409 20.7102 50.6541 20.9529 50.6576 21.0898C50.6957 22.2114 50.7061 23.3346 50.6836 24.4562C50.6818 24.5792 50.4114 24.7994 50.2623 24.8029C49.2275 24.8219 48.1926 24.789 47.1578 24.7873C46.6967 24.7873 46.4852 24.626 46.5008 24.1216C46.532 23.0018 46.5112 21.882 46.5112 20.6894H46.5095Z" fill="#74BC1F"/>
<path d="M59.1532 22.6973C59.1532 23.2035 59.1428 23.7114 59.1566 24.2176C59.167 24.6197 59.0509 24.8191 58.5898 24.8035C57.5983 24.774 56.6067 24.7879 55.6152 24.8087C55.272 24.8156 55.0571 24.7445 55.0553 24.3545C55.0484 23.2538 55.0207 22.153 55.0449 21.0523C55.0484 20.9258 55.3205 20.7056 55.4748 20.6987C56.5755 20.6484 57.6763 20.6241 58.777 20.6432C58.9105 20.6449 59.1341 20.9379 59.1514 21.1112C59.2017 21.6347 59.1688 22.1669 59.1688 22.6956C59.1636 22.6956 59.1584 22.6956 59.1532 22.6956V22.6973Z" fill="#74BC1F"/>
<path d="M32.8127 71.8008H35.0904V78.6479C35.0904 79.6324 34.8963 80.4888 34.5097 81.2151C34.1232 81.9431 33.5615 82.503 32.83 82.8948C32.0968 83.2883 31.2283 83.4841 30.2229 83.4841C29.2175 83.4841 28.3335 83.2883 27.6002 82.8948C26.867 82.503 26.3071 81.9414 25.9205 81.2151C25.5323 80.487 25.3398 79.6324 25.3398 78.6479V71.8008H27.6176V78.0983C27.6176 79.2077 27.8447 80.0346 28.3006 80.5789C28.7564 81.1232 29.3978 81.3953 30.2247 81.3953C31.0515 81.3953 31.6773 81.1232 32.1332 80.5789C32.5891 80.0346 32.8162 79.2077 32.8162 78.0983V71.8008H32.8127Z" fill="white"/>
<path d="M44.5381 81.9372C44.1342 82.4659 43.6107 82.8559 42.9676 83.1072C42.3245 83.3586 41.6346 83.4834 40.903 83.4834C39.8353 83.4834 38.8715 83.2355 38.0134 82.738C37.1554 82.2405 36.5851 81.5367 36.3008 80.6249L38.1538 79.5728C38.4052 80.1587 38.7709 80.6145 39.2528 80.9387C39.7347 81.2629 40.3102 81.4258 40.9811 81.4258C41.5254 81.4258 41.957 81.3166 42.2759 81.0964C42.5949 80.8763 42.7544 80.5573 42.7544 80.1379C42.7544 79.8033 42.6469 79.5259 42.4319 79.3058C42.217 79.0857 41.95 78.914 41.6311 78.7875C41.3121 78.661 40.8753 78.5154 40.3206 78.3472C39.577 78.1271 38.9703 77.9104 38.4988 77.6954C38.0273 77.4805 37.6251 77.1598 37.2888 76.7299C36.9543 76.3 36.7861 75.7349 36.7861 75.0329C36.7861 74.2892 36.982 73.6583 37.3755 73.14C37.769 72.6217 38.2856 72.2351 38.9304 71.9786C39.5735 71.722 40.2669 71.5938 41.0105 71.5938C42.0263 71.5938 42.8948 71.8243 43.6176 72.2854C44.3404 72.7465 44.805 73.3688 45.0148 74.154L43.1617 75.2062C42.9728 74.7139 42.6902 74.3291 42.3141 74.0518C41.9379 73.7744 41.4664 73.6357 40.9013 73.6357C40.3882 73.6357 39.9722 73.7536 39.6532 73.9894C39.3343 74.2251 39.1748 74.5371 39.1748 74.9237C39.1748 75.2166 39.2736 75.461 39.473 75.6535C39.6723 75.8476 39.9254 76.0036 40.2339 76.125C40.5425 76.2463 40.9585 76.385 41.482 76.541C42.2361 76.7611 42.8584 76.983 43.3507 77.2083C43.843 77.4337 44.2642 77.7682 44.6143 78.2137C44.9645 78.6592 45.1413 79.2417 45.1413 79.9645C45.1413 80.7498 44.9402 81.4067 44.5363 81.9354L44.5381 81.9372Z" fill="white"/>
<path d="M55.596 79.9804C55.596 81.017 55.2164 81.8283 54.4572 82.4142C53.6979 83.0001 52.6336 83.293 51.2607 83.293H46.6758V71.7969H50.8378C52.0633 71.7969 53.06 72.0777 53.8297 72.6376C54.5993 73.1975 54.9841 73.9862 54.9841 75.0003C54.9841 76.0143 54.5542 76.8325 53.6962 77.3248C54.9633 77.7755 55.596 78.6595 55.596 79.9787V79.9804ZM48.9067 73.7765V76.4928H50.6193C51.2364 76.4928 51.727 76.3645 52.0876 76.1079C52.4481 75.8514 52.6301 75.5082 52.6301 75.08C52.6301 74.6518 52.4516 74.3398 52.0962 74.1145C51.7409 73.8891 51.2486 73.7765 50.6193 73.7765H48.9067ZM51.0735 81.3152C51.7652 81.3152 52.2956 81.1904 52.6683 80.939C53.0392 80.6877 53.2264 80.3323 53.2264 79.8712C53.2264 79.4101 53.041 79.0496 52.6683 78.7878C52.2973 78.5261 51.76 78.3943 51.0579 78.3943H48.9067V81.3152H51.0735Z" fill="white"/>
<path d="M68.4919 78.3576C68.8264 78.8239 68.9945 79.4029 68.9945 80.0928C68.9945 80.7827 68.8143 81.4136 68.452 81.9215C68.0914 82.4294 67.6043 82.816 66.9907 83.0829C66.3788 83.3499 65.701 83.4834 64.9574 83.4834C64.004 83.4834 63.1754 83.258 62.4682 82.8073C61.7609 82.3566 61.2617 81.7031 60.9688 80.8451L62.775 79.8085C62.9431 80.3528 63.2205 80.7636 63.607 81.0409C63.9936 81.3183 64.4287 81.457 64.9106 81.457C65.3925 81.457 65.7773 81.3218 66.0962 81.0479C66.4152 80.7757 66.5747 80.3996 66.5747 79.9177C66.5747 78.8603 65.7686 78.3316 64.1565 78.3316H63.7318V76.4473H64.3437C64.94 76.4473 65.3977 76.3035 65.7184 76.0157C66.0373 75.728 66.1968 75.3691 66.1968 74.9393C66.1968 74.5423 66.0651 74.2216 65.8033 73.9807C65.5416 73.7397 65.2018 73.6201 64.7823 73.6201C64.3316 73.6201 63.9416 73.764 63.6122 74.0517C63.2829 74.3395 63.0281 74.7503 62.8513 75.2842L61.123 74.2944C61.3952 73.4156 61.8719 72.743 62.5514 72.2767C63.2326 71.8104 64.0387 71.5781 64.9695 71.5781C65.6924 71.5781 66.3285 71.7116 66.878 71.9785C67.4275 72.2455 67.8539 72.6199 68.1573 73.1018C68.4607 73.5837 68.6132 74.1384 68.6132 74.7659C68.6132 75.3518 68.4797 75.8597 68.2128 76.2896C67.9458 76.7195 67.5506 77.054 67.0271 77.295C67.665 77.5359 68.1521 77.8896 68.4884 78.3559L68.4919 78.3576Z" fill="white"/>
<path d="M70.9738 83.1215C70.7225 82.8597 70.5977 82.546 70.5977 82.1785C70.5977 81.811 70.7225 81.499 70.9738 81.2355C71.2252 80.9738 71.5285 80.8438 71.8839 80.8438C72.2392 80.8438 72.5616 80.9755 72.8182 81.2355C73.0747 81.4973 73.203 81.811 73.203 82.1785C73.203 82.546 73.0747 82.8597 72.8182 83.1215C72.5616 83.3832 72.2496 83.5132 71.8839 83.5132C71.5181 83.5132 71.2234 83.3815 70.9738 83.1215Z" fill="white"/>
<path d="M81.6844 81.9705C80.9824 82.9811 79.9822 83.4855 78.6856 83.4855C77.3889 83.4855 76.3853 82.9811 75.678 81.9705C74.9708 80.9599 74.6172 79.4865 74.6172 77.5503C74.6172 75.614 74.9708 74.1215 75.678 73.1057C76.3853 72.0899 77.3872 71.582 78.6856 71.582C79.9839 71.582 80.9841 72.0899 81.6844 73.1057C82.3864 74.1215 82.7366 75.6036 82.7366 77.5503C82.7366 79.4969 82.3864 80.9599 81.6844 81.9705ZM77.4358 80.4468C77.7027 81.0813 78.1187 81.3967 78.6838 81.3967C79.2489 81.3967 79.6632 81.0795 79.925 80.4468C80.1867 79.8141 80.3185 78.8469 80.3185 77.5503C80.3185 76.2536 80.1867 75.2673 79.925 74.6294C79.6632 73.9915 79.2489 73.6708 78.6838 73.6708C78.1187 73.6708 77.7027 73.988 77.4358 74.6207C77.1688 75.2552 77.0353 76.2311 77.0353 77.5503C77.0353 78.8694 77.1688 79.8141 77.4358 80.4468Z" fill="white"/>
</svg>
