<svg width="121" height="120" viewBox="0 0 121 120" fill="none" xmlns="http://www.w3.org/2000/svg">
<rect width="120" height="120" transform="translate(0.5)" fill="white"/>
<circle cx="31.75" cy="73.75" r="17.5" fill="white"/>
<rect x="55.3477" y="32.8203" width="47.1095" height="47.819" rx="23.5548" fill="black"/>
<path d="M82.8717 44.5351H83.1207V46.979H82.8717C81.3462 46.979 80.0698 47.2281 79.0424 47.7262C78.0151 48.2139 77.2005 48.8729 76.5986 49.7031C75.9967 50.5229 75.5608 51.4465 75.291 52.4738C75.0316 53.5012 74.9019 54.5441 74.9019 55.6026V58.9338C74.9019 59.9404 75.0212 60.8328 75.2599 61.6111C75.4986 62.379 75.8255 63.0276 76.2405 63.5569C76.6556 64.0861 77.1226 64.4857 77.6415 64.7555C78.1707 65.0253 78.7207 65.1602 79.2915 65.1602C79.9556 65.1602 80.5472 65.0357 81.066 64.7866C81.5849 64.5272 82.0207 64.1691 82.3736 63.7125C82.7368 63.2456 83.0118 62.6956 83.1986 62.0625C83.3854 61.4295 83.4788 60.7342 83.4788 59.9767C83.4788 59.3022 83.3957 58.6536 83.2297 58.0309C83.0637 57.3979 82.8094 56.8375 82.467 56.3498C82.1245 55.8517 81.6939 55.4625 81.175 55.1823C80.6665 54.8918 80.0594 54.7465 79.3538 54.7465C78.5547 54.7465 77.8075 54.9437 77.1122 55.338C76.4273 55.722 75.8618 56.2304 75.4155 56.8635C74.9797 57.4861 74.7306 58.1658 74.6684 58.9026L73.1429 58.8871C73.2882 57.7248 73.558 56.7337 73.9523 55.9139C74.3571 55.0837 74.8552 54.4092 75.4467 53.8903C76.0486 53.3611 76.7179 52.9771 77.4547 52.7385C78.2019 52.4894 78.9906 52.3649 79.8207 52.3649C80.9519 52.3649 81.9274 52.5776 82.7472 53.0031C83.567 53.4286 84.2415 53.9993 84.7708 54.7153C85.3 55.421 85.6892 56.2201 85.9382 57.1125C86.1976 57.9946 86.3274 58.9026 86.3274 59.8366C86.3274 60.9055 86.1769 61.9069 85.8759 62.8408C85.575 63.7748 85.1236 64.5946 84.5217 65.3003C83.9302 66.0059 83.1986 66.5559 82.3269 66.9503C81.4552 67.3446 80.4434 67.5418 79.2915 67.5418C78.067 67.5418 76.9981 67.2927 76.0849 66.7946C75.1717 66.2861 74.4141 65.6116 73.8122 64.771C73.2104 63.9305 72.7589 62.9965 72.458 61.9691C72.157 60.9418 72.0066 59.8988 72.0066 58.8404V57.4861C72.0066 55.888 72.1674 54.321 72.4891 52.7852C72.8108 51.2493 73.366 49.8587 74.1547 48.6134C74.9538 47.3682 76.0589 46.3771 77.4703 45.6403C78.8816 44.9035 80.6821 44.5351 82.8717 44.5351Z" fill="white"/>
<path d="M8 93.8144V86.3982C8 85.9431 8.37146 85.5714 8.82583 85.5971C15.4352 85.971 17.0802 90.8427 17.0951 93.8885C17.0972 94.3146 16.7378 94.6384 16.3117 94.6384H8.82401C8.36892 94.6384 8 94.2695 8 93.8144Z" fill="black"/>
<path d="M14.5938 55.0827V27.0662C14.5938 26.6111 14.9627 26.2422 15.4178 26.2422H111.003C111.459 26.2422 111.827 26.6111 111.827 27.0662V87.2193C111.827 87.6744 111.459 88.0433 111.003 88.0433H48.3783" stroke="black" stroke-width="4.94409"/>
<path d="M8.82422 63.3164C18.7124 64.1404 38.4887 71.3917 38.4887 93.8049" stroke="black" stroke-width="4.94409"/>
<path d="M8.82422 75.6797C14.867 75.405 26.9525 78.6461 26.9525 93.808" stroke="black" stroke-width="4.94409"/>
</svg>
