<svg width="109" height="109" viewBox="0 0 109 109" fill="none" xmlns="http://www.w3.org/2000/svg">
<rect x="1" y="1" width="107" height="107" rx="9" stroke="#74BC1F" stroke-width="2"/>
<path d="M69.7302 24.1108C71.0785 24.1108 72.3975 24.3039 73.6705 24.6868L66.8044 31.553C66.2288 32.1297 65.9055 32.9113 65.9055 33.7261C65.9055 34.5409 66.2288 35.3224 66.8044 35.8992L71.6185 40.715C71.9025 41.0014 72.2402 41.2288 72.6124 41.3843C72.9845 41.5397 73.3837 41.62 73.787 41.6206C74.1903 41.6212 74.5897 41.5421 74.9623 41.3878C75.3349 41.2335 75.6734 41.0071 75.9582 40.7215L77.5995 39.0803L82.8325 33.8472C83.5504 36.2072 83.6118 38.7183 83.0101 41.1106C82.4084 43.5029 81.1664 45.6861 79.4175 47.4257C78.153 48.6971 76.6489 49.705 74.9922 50.3912C73.3356 51.0774 71.5593 51.4282 69.7662 51.4234C67.4931 51.423 65.2557 50.8579 63.2551 49.7788L61.5745 48.869L60.2802 50.2746L31.1136 81.9677C30.6555 82.493 30.0075 82.7826 29.2875 82.7826C28.5331 82.7826 27.8 82.4652 27.224 81.8892L25.6335 80.297C25.0313 79.6948 24.7138 78.929 24.74 78.1435C24.7629 77.4595 25.0525 76.8426 25.6024 76.3615L57.2447 47.2375L58.6504 45.9432L57.7405 44.2626C54.8835 38.9886 55.8505 32.3417 60.0936 28.1003C61.3565 26.8314 62.8584 25.8254 64.5125 25.1406C66.1665 24.4559 67.94 24.1058 69.7302 24.1108ZM69.7302 21.6563C67.6177 21.6532 65.5255 22.0676 63.5738 22.8759C61.622 23.6841 59.8493 24.8701 58.3575 26.3657C53.1931 31.5301 52.2735 39.3224 55.5822 45.4326L23.9415 74.5566C21.7782 76.4417 21.7029 79.8372 23.8989 82.0332L25.4878 83.6237C25.9835 84.1299 26.5744 84.5331 27.2265 84.81C27.8786 85.0869 28.579 85.2321 29.2875 85.2372C30.6653 85.2372 32.0087 84.6775 32.9644 83.5812L62.0884 51.9388C64.4474 53.2146 67.0875 53.8816 69.7695 53.8795C71.8847 53.8825 73.9796 53.4673 75.9338 52.658C77.8881 51.8487 79.6631 50.6611 81.1569 49.1635C85.9531 44.3674 87.0805 37.3081 84.5655 31.4319C84.4545 31.1749 84.2702 30.9565 84.0356 30.8039C83.8009 30.6514 83.5264 30.5715 83.2465 30.5744C83.0554 30.5739 82.866 30.6113 82.6894 30.6843C82.5127 30.7573 82.3523 30.8646 82.2173 30.9999L74.2285 38.9886C74.1727 39.0451 74.1062 39.09 74.0329 39.1206C73.9596 39.1512 73.8809 39.167 73.8015 39.167C73.7193 39.1667 73.6379 39.1503 73.5621 39.1185C73.4863 39.0868 73.4175 39.0404 73.3596 38.9821L68.5455 34.1679C68.4879 34.1103 68.4422 34.0419 68.411 33.9667C68.3798 33.8915 68.3638 33.8108 68.3638 33.7294C68.3638 33.6479 68.3798 33.5673 68.411 33.492C68.4422 33.4168 68.4879 33.3484 68.5455 33.2908L76.5227 25.3135C77.2345 24.5952 77.0218 23.3564 76.0907 22.9588C74.0804 22.0991 71.9166 21.656 69.7302 21.6563Z" fill="#74BC1F" stroke="#74BC1F"/>
<path d="M43.7267 52.832C43.5655 52.8324 43.4059 52.8008 43.257 52.739C43.1081 52.6772 42.973 52.5864 42.8595 52.472L36.8884 46.5025C36.8299 46.4439 36.7518 46.4089 36.6691 46.4044L31.6978 46.1573C31.2567 46.1346 30.8272 46.0079 30.4444 45.7875C30.0616 45.5671 29.7364 45.2592 29.4953 44.8891L22.5342 34.1447C22.1897 33.6077 22.0384 32.9694 22.1053 32.3349C22.1723 31.7004 22.4534 31.1076 22.9024 30.6544L28.2222 25.3345C28.6758 24.8868 29.268 24.6063 29.9018 24.5391C30.5357 24.4719 31.1735 24.622 31.7109 24.9647L42.4553 31.9258C43.2047 32.4118 43.6793 33.2349 43.7251 34.1267L43.9722 39.098C43.9759 39.1809 44.011 39.2593 44.0704 39.3173L50.4031 45.65C50.5171 45.764 50.6075 45.8993 50.6692 46.0483C50.7309 46.1972 50.7627 46.3569 50.7627 46.5181C50.7627 46.6793 50.7309 46.8389 50.6692 46.9879C50.6075 47.1368 50.5171 47.2722 50.4031 47.3862C50.2891 47.5002 50.1538 47.5906 50.0048 47.6523C49.8559 47.714 49.6962 47.7458 49.535 47.7458C49.3738 47.7458 49.2142 47.714 49.0652 47.6523C48.9163 47.5906 48.7809 47.5002 48.6669 47.3862L42.3342 41.0535C41.8439 40.5647 41.5539 39.9105 41.5209 39.2191L41.2738 34.2495C41.2707 34.1963 41.2552 34.1447 41.2285 34.0986C41.2017 34.0526 41.1646 34.0134 41.12 33.9844L30.3773 27.0265C30.3126 26.9851 30.2357 26.9669 30.1593 26.975C30.0829 26.983 30.0114 27.0168 29.9567 27.0707L24.6369 32.3905C24.5835 32.4456 24.5502 32.5171 24.5425 32.5934C24.5347 32.6697 24.553 32.7465 24.5944 32.8111L31.5538 43.5538C31.6127 43.6438 31.7126 43.7011 31.8206 43.706L36.7886 43.9531C37.4807 43.9875 38.132 44.2755 38.6229 44.7664L44.594 50.7358C44.766 50.9074 44.8832 51.1261 44.9308 51.3643C44.9784 51.6025 44.9542 51.8495 44.8613 52.0739C44.7685 52.2984 44.6111 52.4902 44.4091 52.6252C44.2071 52.7601 43.9697 52.8321 43.7267 52.832ZM71.9311 88.346C71.1784 88.346 70.4257 88.0613 69.8529 87.4902L55.7818 73.4175C55.2271 72.8611 54.9211 72.1231 54.9211 71.3376C54.9211 70.5522 55.2271 69.8142 55.7835 69.2595L57.7144 67.3269L55.2484 64.8609C55.1344 64.7469 55.0439 64.6116 54.9823 64.4626C54.9206 64.3137 54.8888 64.154 54.8888 63.9928C54.8888 63.8316 54.9206 63.672 54.9823 63.523C55.0439 63.3741 55.1344 63.2387 55.2484 63.1247C55.3624 63.0107 55.4977 62.9203 55.6467 62.8586C55.7956 62.7969 55.9553 62.7652 56.1165 62.7652C56.2777 62.7652 56.4373 62.7969 56.5863 62.8586C56.7352 62.9203 56.8706 63.0107 56.9846 63.1247L60.3178 66.458C60.4319 66.572 60.5224 66.7073 60.5841 66.8563C60.6458 67.0052 60.6776 67.1649 60.6776 67.3261C60.6776 67.4873 60.6458 67.647 60.5841 67.7959C60.5224 67.9449 60.4319 68.0802 60.3178 68.1942L57.5197 70.994C57.474 71.0387 57.4377 71.092 57.4129 71.1509C57.3881 71.2097 57.3754 71.2729 57.3754 71.3368C57.3754 71.4007 57.3881 71.4639 57.4129 71.5228C57.4377 71.5817 57.474 71.635 57.5197 71.6796L71.5891 85.7507C71.6804 85.841 71.8036 85.8916 71.9319 85.8916C72.0603 85.8916 72.1835 85.841 72.2747 85.7507L83.3202 74.7053C83.4107 74.6137 83.4613 74.4901 83.461 74.3613C83.4607 74.2325 83.4095 74.1091 83.3186 74.018L69.2491 59.9485C69.1578 59.8583 69.0346 59.8077 68.9063 59.8077C68.7779 59.8077 68.6548 59.8583 68.5635 59.9485L65.7637 62.7484C65.6497 62.8624 65.5144 62.9529 65.3654 63.0146C65.2164 63.0763 65.0568 63.1081 64.8956 63.1081C64.7343 63.1081 64.5747 63.0763 64.4257 63.0146C64.2768 62.9529 64.1414 62.8624 64.0275 62.7484L60.02 58.7409C59.906 58.6269 59.8156 58.4916 59.7539 58.3426C59.6922 58.1937 59.6604 58.034 59.6604 57.8728C59.6604 57.7116 59.6922 57.552 59.7539 57.403C59.8156 57.2541 59.906 57.1187 60.02 57.0047C60.134 56.8907 60.2694 56.8003 60.4183 56.7386C60.5672 56.6769 60.7269 56.6452 60.8881 56.6452C61.0493 56.6452 61.209 56.6769 61.3579 56.7386C61.5069 56.8003 61.6422 56.8907 61.7562 57.0047L64.8964 60.1449L66.8289 58.2124C67.3806 57.6631 68.1274 57.3545 68.906 57.3542C69.6845 57.3539 70.4315 57.6619 70.9837 58.2107L85.0564 72.2835C85.606 72.8355 85.9145 73.5827 85.9145 74.3616C85.9145 75.1406 85.606 75.8878 85.0564 76.4398L74.0109 87.4853C73.7381 87.7587 73.4139 87.9756 73.0569 88.1233C72.7 88.271 72.3174 88.3467 71.9311 88.346Z" fill="#74BC1F" stroke="#74BC1F"/>
</svg>
