<svg width="140" height="63" viewBox="0 0 140 63" fill="none" xmlns="http://www.w3.org/2000/svg">
<g clip-path="url(#clip0_9160_33987)">
<path d="M84.7248 25.599C82.4247 25.6085 80.1245 25.6038 77.8243 25.6038H77.5291C77.6624 24.8355 77.7862 24.0862 77.9148 23.3417C78.1625 21.9522 78.4149 20.5674 78.6625 19.1779C78.9054 17.8121 79.1435 16.4464 79.3816 15.0806C79.334 15.0426 79.2768 15.0569 79.2197 15.0569C77.7767 15.0569 76.3338 15.0569 74.8908 15.0569C74.8337 15.0569 74.7622 15.0237 74.7194 15.0948C74.6146 15.6876 74.5146 16.2804 74.4098 16.8732C74.2622 17.7268 74.1146 18.5757 73.9622 19.4245C73.8336 20.1548 73.7098 20.8852 73.5812 21.6107C73.4574 22.3221 73.324 23.0382 73.2002 23.7495C73.0764 24.4561 72.9621 25.1627 72.8335 25.8693C72.7049 26.5807 72.5716 27.292 72.4383 28.0034C72.424 28.0698 72.4621 28.1694 72.3859 28.1931C72.3002 28.2168 72.2573 28.1172 72.2097 28.0603C71.9239 27.7331 71.6477 27.4011 71.3572 27.0786C71.081 26.7704 70.7524 26.4858 70.9477 25.9974C70.981 25.9168 70.9715 25.8267 71.0001 25.746C71.0382 25.6227 70.9953 25.5943 70.881 25.599C70.6429 25.6038 70.4048 25.5943 70.1667 25.6038C70.0619 25.6085 69.9857 25.5801 69.919 25.4994C69.4428 24.9351 68.8952 24.4419 68.3808 23.9202C67.8951 23.4318 67.4141 22.9386 66.9093 22.4691C66.1616 21.7767 65.3997 21.1033 64.6377 20.4299C64.5377 20.3398 64.5234 20.2544 64.5472 20.1169C64.7092 19.2633 64.852 18.4049 65.0044 17.5466C65.1473 16.7356 65.2949 15.9247 65.4425 15.1185C65.4187 15.0094 65.3283 15.0521 65.2663 15.0521C63.8329 15.0521 62.4042 15.0521 60.9708 15.0521C60.8946 15.0521 60.8089 15.0284 60.7708 15.1327C60.666 15.754 60.5755 16.3847 60.4279 17.0202C58.8278 15.8156 57.2182 14.687 55.5609 13.6152C53.0322 11.9743 50.4034 10.5185 47.7223 9.14318C46.327 8.4271 44.9126 7.74894 43.4839 7.0945C42.0171 6.4211 40.5409 5.78088 39.0407 5.18335C37.1501 4.42458 35.2357 3.7322 33.2975 3.10622C31.2878 2.45178 28.0352 1.57445 26.2542 1.21878C25.4017 1.04805 24.5493 0.877328 23.6873 0.735059C22.0967 0.474232 20.4919 0.279797 18.8775 0.18495C18.3965 0.156496 17.9155 0.142269 17.4298 0.128043C17.3297 0.1233 17.1774 0.175466 17.144 0H17.0488C16.9869 0.0474232 16.9154 0.0474232 16.844 0.0474232C16.2725 0.0284539 15.7011 0.090104 15.1344 0.0758771C14.7867 0.0711347 14.4391 0.109073 14.0914 0.137527C13.1771 0.213404 12.2627 0.32722 11.3579 0.497943C9.29111 0.886813 7.32431 1.54599 5.51942 2.63673C4.52412 3.239 3.63358 3.97406 2.85257 4.83716C2.09538 5.67655 1.48582 6.62027 1.02388 7.64936C0.419076 8.98669 0.0333356 10.3762 0.0238111 11.851V11.8605C0.00952446 11.9838 0.0523845 12.1119 0 12.2352V13.2785C0.0380978 13.4824 0.0380978 13.6911 0 13.895V14.0373C0.0571467 14.061 0.0428601 14.1131 0.0476223 14.1606C0.161916 15.7018 0.476223 17.2051 0.928635 18.6752C2.06681 22.3553 3.90979 25.6844 6.1147 28.8238C8.42914 32.115 11.096 35.1026 14.0057 37.8816C15.8392 39.6315 17.7536 41.2866 19.749 42.8516C22.773 45.2227 25.9494 47.3805 29.2639 49.3296C34.269 52.2745 39.4694 54.8212 44.9031 56.8936C48.9414 58.4301 53.0608 59.6963 57.3087 60.5167C59.4898 60.9388 61.6804 61.247 63.8996 61.3608C64.0567 61.4082 64.2234 61.3419 64.3806 61.3988H66.9046C67.076 61.3466 67.257 61.3845 67.4284 61.375H67.6665C67.6665 61.3703 67.6665 61.3656 67.6665 61.3561C68.5428 61.3181 69.4142 61.2043 70.281 61.0763C70.3286 61.0715 70.3762 61.0668 70.4238 61.0621C70.5286 61.1047 70.6239 61.0858 70.7096 61.0146C70.7667 60.972 70.8334 60.9625 70.9001 60.972C71.5525 60.8107 72.2097 60.6684 72.8526 60.4693C73.9003 60.142 74.9003 59.7058 75.8528 59.1651C75.8718 59.1224 75.9099 59.1224 75.948 59.1177C76.0528 59.1319 76.1242 59.0608 76.2052 59.0086C77.0005 58.506 77.71 57.9084 78.3434 57.2208C78.5149 57.0311 78.7196 56.8556 78.8054 56.5995C78.8339 56.5521 78.8577 56.5047 78.8911 56.4573C79.4911 55.6606 79.9531 54.7927 80.2864 53.8537C80.8007 52.4263 81.0293 50.9467 81.1531 49.4434C81.1865 49.3628 81.1436 49.2774 81.1865 49.1968C81.1865 48.5566 81.1865 47.9164 81.1865 47.2761C81.1436 47.1955 81.1865 47.1102 81.1531 47.0295C81.0722 45.9768 80.9341 44.9382 80.715 43.9044C80.4198 42.5054 80.0054 41.1396 79.4864 39.8117C79.2673 39.2569 79.0387 38.7115 78.8101 38.1614C78.8435 38.0761 78.7911 38.0097 78.7625 37.9385C78.4339 37.2177 78.0767 36.5063 77.691 35.814C77.5862 35.6243 77.5243 35.4014 77.3338 35.2686C77.3148 35.1832 77.3005 35.1026 77.2529 35.0267C77.0576 34.7232 76.8909 34.4008 76.7005 34.0925C76.6433 34.0024 76.5862 33.9028 76.4862 33.8459C76.4671 33.8127 76.4481 33.7843 76.429 33.7511C76.0957 33.2436 75.7623 32.7409 75.4242 32.2335C75.3813 32.2193 75.3766 32.1861 75.3766 32.1482C74.8622 31.4463 74.3479 30.7397 73.8098 29.9999H74.286C74.3812 29.9951 74.4765 29.9904 74.5717 29.9904C77.691 29.9904 80.815 29.9904 83.9343 29.9904C84.0343 29.9904 84.1438 30.0189 84.2295 29.9382C84.2819 29.4356 84.3867 28.9376 84.4819 28.4397C84.6343 27.5766 84.7772 26.7135 84.9343 25.8504C84.9724 25.6654 84.9582 25.599 84.7248 25.599ZM69.9619 30.0046C70.181 30.0094 70.2762 29.962 70.3143 29.7248C70.4524 28.838 70.6191 27.956 70.7762 27.0691C70.8667 27.0502 70.8953 27.1308 70.9334 27.1782C71.362 27.6762 71.7858 28.1741 72.2144 28.672C72.2906 28.7574 72.3097 28.838 72.2906 28.9471C72.2335 29.2411 72.1954 29.5351 72.1382 29.8292C72.1144 29.962 72.1573 29.9999 72.2811 29.9951C72.4621 29.9904 72.6478 30.0189 72.8288 29.9904C73.224 29.924 73.4526 30.1137 73.6193 30.4836H73.3431C71.8287 30.4836 70.3143 30.4646 68.7999 30.4931C68.3999 30.5026 68.1903 30.3413 68.0094 29.9951H68.3189C68.8666 29.9999 69.4142 29.9904 69.9619 30.0046ZM62.7757 31.0669C63.752 32.3473 64.633 33.6847 65.3806 35.1074C65.414 35.169 65.4425 35.2354 65.4949 35.3492C64.9139 35.2307 64.3853 35.1263 63.8615 35.022C60.766 34.396 57.6706 33.77 54.5799 33.1488C52.6893 32.7647 50.7939 32.3853 48.9033 32.0059C48.8319 31.9917 48.7652 31.9727 48.7271 31.9016C48.5509 31.5601 48.3509 31.2329 48.1366 30.9057C48.2366 30.8488 48.3271 30.8725 48.4081 30.8725C53.0655 30.8725 57.723 30.8772 62.3804 30.8772C62.5614 30.8725 62.6709 30.9246 62.7757 31.0669ZM44.6316 16.5127C43.8125 19.5478 43.0029 22.5877 42.1886 25.6275C42.1743 25.6796 42.1505 25.7271 42.1267 25.7887C41.5123 25.4757 40.9028 25.1722 40.2646 24.9351C40.1646 24.8972 40.1503 24.8308 40.1313 24.7359C39.898 23.3749 39.6646 22.0186 39.4313 20.6575C39.136 18.9408 38.8455 17.2241 38.5502 15.5074C38.4312 14.8103 38.3121 14.1084 38.1835 13.3686C38.5502 13.5109 38.8836 13.6342 39.217 13.7669C41.0171 14.483 42.7648 15.294 44.4792 16.1903C44.6268 16.2661 44.6792 16.3278 44.6316 16.5127ZM44.9602 16.7878C45.0412 16.489 45.0412 16.489 45.3126 16.6455C45.9317 16.9965 46.5508 17.3521 47.1651 17.7078C47.2223 17.741 47.2746 17.7884 47.3318 17.8264C47.2937 17.8975 47.2651 17.9544 47.2365 18.0113C45.9841 20.2781 44.7316 22.545 43.4791 24.8165C43.2744 25.1912 43.0696 25.5658 42.8553 25.931C42.8172 26.0021 42.8267 26.1634 42.66 26.097C42.5172 26.0401 42.5172 25.95 42.5553 25.8124C42.8267 24.8165 43.0886 23.8159 43.3553 22.82C43.8887 20.8093 44.4268 18.7985 44.9602 16.7878ZM38.5741 18.0303C38.8836 19.8466 39.1979 21.6629 39.5074 23.4792C39.5694 23.8444 39.6313 24.2095 39.6979 24.5747C39.717 24.6838 39.6932 24.7264 39.5789 24.6838C38.9741 24.4703 38.355 24.3139 37.7216 24.1906C37.6121 24.1716 37.5883 24.1004 37.5502 24.0198C35.6405 20.0505 33.7261 16.0859 31.8164 12.1166C31.7164 11.9032 31.6117 11.6946 31.4879 11.429C32.0307 11.5475 32.5213 11.6519 33.0118 11.7704C34.5262 12.1403 36.0167 12.5908 37.4883 13.1078C37.6788 13.1742 37.7645 13.2643 37.7978 13.4587C38.0502 14.9857 38.3121 16.508 38.5741 18.0303ZM34.4119 18.4286C35.2976 20.2687 36.1834 22.1134 37.0692 23.9534C37.0835 23.9866 37.0978 24.0246 37.1216 24.0862C36.6073 24.0435 36.112 23.9961 35.6167 23.9961C35.5167 23.9961 35.4834 23.8918 35.431 23.8254C34.2214 22.2509 33.0118 20.6812 31.8022 19.1068C29.7496 16.4369 27.6924 13.7669 25.6398 11.097C25.5684 11.0069 25.497 10.9121 25.416 10.803C25.6113 10.7271 25.7922 10.7935 25.9684 10.7983C27.5828 10.8077 29.1734 11.0211 30.7592 11.2915C30.9021 11.3152 31.0116 11.3578 31.0878 11.5143C32.1927 13.8239 33.3023 16.1239 34.4119 18.4286ZM35.0024 23.925C35.0262 23.9534 35.0452 23.9866 35.0738 24.0388C34.8024 24.0957 34.55 24.1431 34.2928 24.1953C34.2071 24.2143 34.1642 24.1431 34.1166 24.0957C33.1356 23.1852 32.1593 22.2747 31.1783 21.3641C28.7258 19.0831 26.278 16.802 23.8302 14.521C22.7635 13.5298 21.6967 12.5387 20.6252 11.5523C20.5776 11.5096 20.53 11.4669 20.4585 11.4053C20.8776 11.2535 21.2824 11.1824 21.6777 11.1065C22.6587 10.9216 23.654 10.8172 24.6541 10.7983C24.816 10.7935 24.9303 10.8314 25.035 10.969C28.3591 15.2892 31.6831 19.6047 35.0024 23.925ZM24.6683 15.8536C26.8828 17.9117 29.0925 19.9746 31.3069 22.0328C32.0879 22.7584 32.8737 23.4839 33.6594 24.2095C33.7023 24.2522 33.7452 24.2996 33.7975 24.3518C33.4928 24.4893 33.207 24.6268 32.9641 24.8308C32.8308 24.9446 32.7594 24.8213 32.6832 24.7644C31.5641 23.9582 30.4497 23.152 29.3353 22.341C25.216 19.3724 21.1014 16.3989 16.9916 13.4208C16.7202 13.2263 16.7202 13.2216 16.9964 13.0177C17.8679 12.368 18.8346 11.908 19.868 11.5665C19.9775 11.5286 20.0537 11.5428 20.1395 11.6234C21.6443 13.0366 23.1587 14.4451 24.6683 15.8536ZM28.7353 22.4169C29.9592 23.3037 31.1878 24.1906 32.4117 25.0774C32.4641 25.1153 32.5403 25.1343 32.5546 25.2149C32.4641 25.3429 32.3927 25.4805 32.2831 25.5801C32.2022 25.6512 32.1117 25.5374 32.0355 25.4994C26.2685 22.4454 20.5062 19.3961 14.7391 16.3515C14.5819 16.2661 14.5677 16.195 14.6296 16.0433C14.9915 15.1043 15.563 14.3076 16.2868 13.6199C16.3916 13.5203 16.4487 13.5298 16.563 13.6104C20.6157 16.5412 24.6731 19.4814 28.7353 22.4169ZM14.6772 16.7593C17.6631 18.3433 20.649 19.9272 23.6397 21.5064C26.397 22.967 29.1544 24.4229 31.9117 25.8788C32.0593 25.9547 32.126 26.0258 32.0688 26.206C32.0117 26.391 31.9831 26.5902 32.0117 26.8368C31.2259 26.5475 30.4735 26.2772 29.7258 26.0021C24.6874 24.1574 19.6442 22.3173 14.6058 20.4773C14.4391 20.4157 14.3391 20.3588 14.3105 20.1501C14.1629 19.0546 14.1581 17.9639 14.3819 16.8779C14.4248 16.6313 14.5105 16.674 14.6772 16.7593ZM16.8154 21.7103C21.8253 23.5409 26.8352 25.3761 31.845 27.2019C31.9831 27.2493 32.0403 27.311 32.0593 27.4627C32.0974 27.7757 32.1879 28.0793 32.2974 28.378C32.3498 28.5203 32.3308 28.5677 32.1736 28.5345C30.7211 28.2452 29.2687 27.9607 27.8209 27.6762C25.035 27.1308 22.2444 26.5807 19.4585 26.0353C18.3536 25.8172 17.2536 25.599 16.1535 25.3856C16.0439 25.3619 15.9725 25.3287 15.9201 25.2196C15.282 23.8586 14.7629 22.4549 14.4581 20.98C14.4534 20.9516 14.4486 20.9231 14.4343 20.8472C15.2534 21.1412 16.0344 21.4258 16.8154 21.7103ZM18.6965 26.2867C21.4062 26.8178 24.1159 27.3489 26.8256 27.8801C28.6829 28.2452 30.5354 28.6104 32.3927 28.9708C32.5022 28.9945 32.5736 29.0419 32.6213 29.1463C32.7737 29.483 32.9594 29.8102 33.1642 30.1184C33.2689 30.2797 33.2308 30.3081 33.0594 30.3081C31.9736 30.3034 30.8878 30.2939 29.7973 30.3081C26.2923 30.3556 22.7873 30.3271 19.2823 30.3508C19.0965 30.3508 18.987 30.2939 18.8775 30.1422C17.9155 28.8048 17.0393 27.4153 16.2868 25.95C16.2678 25.9168 16.2535 25.8788 16.2154 25.7982C17.0726 25.9689 17.8869 26.1302 18.6965 26.2867ZM19.4013 30.7776C19.4442 30.7018 19.5442 30.7302 19.6204 30.7302C21.911 30.7302 24.2064 30.7302 26.497 30.7302V30.716C28.7734 30.716 31.0497 30.716 33.3261 30.7112C33.4928 30.7112 33.6023 30.7539 33.7023 30.8914C33.9976 31.304 34.3309 31.6834 34.6881 32.0438C34.7928 32.1482 34.8357 32.2051 34.6405 32.2715C31.5021 33.2673 28.3686 34.2727 25.2303 35.2733C24.8064 35.4061 24.3874 35.5389 23.9683 35.6812C23.835 35.7286 23.7397 35.7096 23.6349 35.6053C22.1539 34.1494 20.7586 32.6176 19.4966 30.9673C19.4585 30.9152 19.3585 30.863 19.4013 30.7776ZM30.1306 34.1352C31.726 33.623 33.3261 33.1156 34.9214 32.5987C35.1024 32.5418 35.2119 32.5607 35.35 32.6935C35.812 33.1346 36.312 33.5377 36.8501 33.9265C36.3644 34.3818 35.8929 34.8228 35.4215 35.2639C33.5785 36.9995 31.7307 38.7305 29.8925 40.4662C29.7782 40.5705 29.702 40.6179 29.5544 40.5089C27.6685 39.1668 25.878 37.7109 24.1921 36.127C24.1778 36.1127 24.1683 36.089 24.1445 36.0463C26.1494 35.4061 28.14 34.7707 30.1306 34.1352ZM30.1925 40.7223C31.5498 39.4513 32.907 38.1756 34.2595 36.9047C35.1881 36.0321 36.1167 35.1643 37.0454 34.2917C37.093 34.249 37.1311 34.1968 37.2073 34.1874C37.2502 34.2111 37.2978 34.2395 37.3406 34.2727C37.8645 34.6189 38.3978 34.9366 38.9598 35.2164C39.0931 35.2828 39.1217 35.354 39.0836 35.4915C38.2216 38.4744 37.3644 41.4621 36.512 44.4497C36.4691 44.6062 36.4168 44.6489 36.2548 44.5635C34.1738 43.4776 32.1498 42.3015 30.2116 40.9783C30.0878 40.8882 30.0639 40.8456 30.1925 40.7223ZM36.8835 44.611C37.7359 41.6518 38.5883 38.6878 39.4313 35.7239C39.4884 35.5294 39.5455 35.501 39.7313 35.5958C40.2265 35.8472 40.7361 36.0606 41.2647 36.236C41.4219 36.2882 41.4933 36.3688 41.5171 36.5301C41.66 37.5117 41.8124 38.4934 41.96 39.475C42.16 40.7839 42.36 42.0928 42.5553 43.4017C42.7648 44.7959 42.9744 46.1854 43.1887 47.6223C42.5696 47.3805 41.979 47.1576 41.3981 46.9252C39.917 46.3277 38.4598 45.6638 37.0263 44.9572C36.8501 44.8623 36.8311 44.7817 36.8835 44.611ZM42.4648 40.1484C42.2838 38.9344 42.0933 37.7204 41.9029 36.4731C42.4029 36.6107 42.8696 36.7814 43.3601 36.8478C43.6744 36.8905 43.8173 37.0565 43.9506 37.3268C45.5174 40.5847 47.0937 43.838 48.67 47.0912C49.0367 47.8452 49.3986 48.5992 49.7605 49.3533C49.7891 49.4102 49.8081 49.4671 49.8558 49.5857C49.2272 49.4339 48.6509 49.3011 48.0795 49.1541C46.646 48.7795 45.2316 48.3432 43.8363 47.85C43.6696 47.7931 43.603 47.703 43.5792 47.537C43.2077 45.071 42.8362 42.6097 42.4648 40.1484ZM47.2223 43.1978C46.2508 41.1918 45.284 39.1905 44.3173 37.1845C44.2982 37.1418 44.284 37.0991 44.2554 37.028C44.7792 37.1039 45.2793 37.1466 45.7888 37.1323C45.8936 37.1276 45.9317 37.2224 45.9841 37.2888C48.0318 39.954 50.0748 42.6239 52.1226 45.2891C53.3941 46.9442 54.6656 48.604 55.9324 50.2591C55.9562 50.2923 55.98 50.3207 56.0371 50.4061C55.6466 50.3871 55.3085 50.3729 54.9752 50.3492C53.5036 50.2353 52.0512 50.0172 50.6034 49.7374C50.4463 49.709 50.3415 49.6473 50.2653 49.4908C49.251 47.39 48.2366 45.2939 47.2223 43.1978ZM46.9222 37.8484C46.7698 37.6492 46.6175 37.4453 46.4603 37.2461C46.3889 37.156 46.3746 37.0944 46.5174 37.0849C46.7556 37.0707 46.9889 37.028 47.2175 36.9616C47.3318 36.9284 47.3794 36.9948 47.4413 37.0517C48.2461 37.8057 49.0462 38.555 49.8462 39.3091C52.275 41.5901 54.7037 43.8712 57.1277 46.157C58.423 47.3757 59.7183 48.5993 61.0184 49.818C61.0565 49.856 61.1089 49.8797 61.1565 49.9081C61.147 49.9318 61.1375 49.9556 61.128 49.9793C60.6422 50.1215 60.1374 50.1927 59.6374 50.2591C58.6945 50.3871 57.742 50.425 56.7896 50.4203C56.6229 50.4203 56.5181 50.3776 56.4134 50.2401C53.2512 46.1048 50.0891 41.979 46.9222 37.8484ZM57.5134 45.9673C55.0942 43.691 52.6702 41.4146 50.251 39.1383C49.4557 38.389 48.6605 37.6398 47.8652 36.8952C47.7794 36.8146 47.7556 36.7814 47.8842 36.7198C48.0556 36.6391 48.2271 36.5443 48.37 36.4257C48.4938 36.3214 48.5747 36.3404 48.6938 36.4257C50.713 37.8626 52.7322 39.2948 54.7561 40.727C58.123 43.1124 61.4851 45.493 64.852 47.8784C64.8901 47.9069 64.9282 47.9353 64.9711 47.959C65.1187 48.0397 65.114 48.1061 64.9854 48.2104C64.0377 48.9834 62.9471 49.4718 61.7804 49.818C61.7613 49.8228 61.7423 49.8275 61.7423 49.8275C61.6185 49.8512 61.5709 49.7753 61.5137 49.7232C60.1755 48.476 58.8421 47.2192 57.5134 45.9673ZM54.9609 40.3856C53.0227 39.0103 51.0844 37.6398 49.1462 36.2645C49.0605 36.2076 48.9843 36.1364 48.8938 36.0843C48.8081 36.0321 48.8128 35.9799 48.8652 35.9136C48.889 35.8851 48.9128 35.8519 48.9319 35.814C49.1367 35.4773 49.1367 35.482 49.4843 35.667C51.713 36.8383 53.9418 38.0097 56.1705 39.181C59.7088 41.04 63.2519 42.899 66.7903 44.758C66.8712 44.8007 66.9998 44.8149 66.9998 44.9904C66.9284 45.2038 66.8522 45.4551 66.7664 45.7017C66.5045 46.4415 66.0807 47.0865 65.5616 47.6698C65.4616 47.7836 65.3902 47.7788 65.2663 47.6935C61.8375 45.2559 58.3992 42.8231 54.9609 40.3856ZM66.9379 44.3786C65.4997 43.6246 64.0663 42.8705 62.6281 42.1118C60.3851 40.9357 58.1421 39.7596 55.899 38.5835C53.7465 37.4548 51.5987 36.3214 49.4415 35.1927C49.2843 35.1121 49.2319 35.0362 49.27 34.8513C49.3224 34.5999 49.3557 34.3391 49.3224 34.0261C49.9843 34.268 50.6082 34.4956 51.2321 34.7232C56.4562 36.6391 61.6756 38.5598 66.9046 40.4757C67.1189 40.5563 67.2474 40.6274 67.276 40.9025C67.3855 42.0501 67.3617 43.1883 67.1522 44.3217C67.1093 44.5303 67.0141 44.4213 66.9379 44.3786ZM67.1331 40.139C66.3902 39.8686 65.6664 39.6031 64.9377 39.3375C59.7898 37.4453 54.6418 35.5531 49.4938 33.6704C49.3319 33.6088 49.2557 33.5282 49.2319 33.3575C49.1891 33.0445 49.07 32.7504 48.9652 32.4232C49.3986 32.5086 49.8081 32.5892 50.2177 32.6746C53.4179 33.3195 56.6229 33.9692 59.8231 34.6142C61.7137 34.9983 63.6091 35.3777 65.4997 35.7571C65.6616 35.7903 65.7569 35.8614 65.8283 36.0179C66.4188 37.2983 66.8712 38.6262 67.1284 40.0109C67.1379 40.0441 67.1331 40.0821 67.1331 40.139ZM48.9367 33.5234C49.0557 34.0878 49.0224 34.6568 48.8509 35.207C48.5843 36.0558 47.9128 36.4494 47.108 36.6439C46.0412 36.9047 44.965 36.8336 43.8982 36.6249C41.0123 36.0558 38.4264 34.8323 36.1644 32.9686C34.6928 31.7593 33.4689 30.3366 32.7213 28.5582C32.4974 28.0271 32.3498 27.4722 32.3308 26.8842C32.307 25.9073 32.7784 25.2339 33.6213 24.7928C34.1357 24.5273 34.6928 24.404 35.2643 24.3613C37.1549 24.219 38.9217 24.7217 40.6361 25.4378C41.2457 25.6939 41.8267 25.9974 42.4029 26.3151C42.5648 26.4005 42.5696 26.4716 42.4838 26.6186C41.9028 27.6572 41.3266 28.7052 40.7504 29.7485C40.617 29.9904 40.617 29.9904 40.9028 29.9904C41.6076 29.9904 42.3172 29.9904 43.022 29.9904C43.722 29.9904 44.4173 29.9809 45.1174 29.9951C45.3078 29.9999 45.4031 29.9335 45.4745 29.7628C45.5793 29.5067 45.7126 29.2648 45.8269 29.0135C45.865 28.9281 45.8984 28.876 45.9936 28.9661C47.3366 30.2607 48.5366 31.636 48.9367 33.5234ZM46.1222 28.6436C46.0222 28.5582 46.0888 28.4918 46.1222 28.416C46.2412 28.1646 46.3603 27.918 46.4794 27.6667C46.5127 27.5955 46.546 27.5291 46.646 27.5291C47.7128 27.5339 48.7843 27.5291 49.851 27.5291C49.851 27.5434 49.851 27.5623 49.851 27.5766C48.6986 27.956 47.5413 28.3353 46.3889 28.7242C46.2698 28.7716 46.2079 28.7147 46.1222 28.6436ZM48.189 24.5178C49.051 23.6167 49.8701 22.7536 50.7273 21.8573C50.9177 22.7347 51.0892 23.5409 51.2702 24.3471C51.294 24.4656 51.2797 24.5178 51.1416 24.5178C50.1844 24.5178 49.2224 24.5178 48.189 24.5178ZM50.4749 21.5443C49.951 22.0944 49.4272 22.6398 48.9081 23.1899C48.8938 23.1757 48.8748 23.1567 48.8605 23.1425C49.37 22.2462 49.8796 21.3499 50.4177 20.4014C50.4939 20.7429 50.5606 21.0274 50.6177 21.3167C50.6368 21.421 50.5368 21.4779 50.4749 21.5443ZM49.7605 15.0711C49.5319 15.0711 49.3034 15.0806 49.0795 15.0663C48.9271 15.0569 48.8367 15.1043 48.7605 15.2465C48.389 15.9342 48.0033 16.6123 47.6318 17.3C47.5651 17.4233 47.527 17.4517 47.3889 17.3711C46.6937 16.9633 45.9888 16.5649 45.284 16.176C45.165 16.1096 45.1602 16.048 45.1888 15.9342C45.4555 14.962 45.7174 13.9898 45.9746 13.0129C46.0079 12.8801 46.0317 12.8137 46.1889 12.9038C47.3842 13.5725 48.5652 14.2649 49.7224 14.9905C49.7415 15.0047 49.7605 15.0189 49.7796 15.0331C49.7748 15.0426 49.7701 15.0569 49.7605 15.0711ZM45.6174 12.8185C45.3555 13.7764 45.0983 14.7344 44.8507 15.6971C44.803 15.8868 44.7411 15.882 44.584 15.8014C42.5458 14.7296 40.4504 13.7812 38.2836 12.9845C38.1883 12.9513 38.1026 12.9228 38.0835 12.79C37.8692 11.5143 37.6502 10.2434 37.4311 8.97246C37.4264 8.93452 37.4311 8.89658 37.4311 8.82545C38.4502 9.20958 39.4217 9.61267 40.3837 10.0347C42.1171 10.7935 43.8125 11.6282 45.484 12.5197C45.6221 12.5908 45.665 12.6572 45.6174 12.8185ZM37.6597 12.6715C37.6597 12.6857 37.6549 12.6999 37.6502 12.7379C37.1644 12.5766 36.6834 12.4106 36.1977 12.2589C34.669 11.7657 33.1213 11.3484 31.5402 11.0449C31.3831 11.0164 31.2593 10.9737 31.1735 10.803C30.4878 9.35659 29.7877 7.91493 29.0972 6.47326C29.0829 6.44481 29.0734 6.41635 29.0401 6.33099C29.6639 6.47326 30.2402 6.6013 30.8116 6.74357C32.8356 7.24152 34.8167 7.86276 36.7692 8.57885C36.9025 8.62627 36.9739 8.68792 36.9978 8.83493C37.2168 10.1106 37.4406 11.391 37.6597 12.6715ZM30.7116 10.7556C30.7259 10.7888 30.7402 10.8267 30.764 10.8836C30.2259 10.803 29.7115 10.7224 29.1972 10.6512C28.4591 10.5469 27.7209 10.4805 26.978 10.4331C26.4018 10.3952 25.8208 10.3809 25.2446 10.3904C25.1398 10.3904 25.0684 10.3572 25.0017 10.2766C23.7969 8.71163 22.592 7.14193 21.3872 5.57696C21.3776 5.56748 21.3776 5.54851 21.3681 5.51531C21.811 5.51531 22.2491 5.49634 22.6873 5.52006C23.5826 5.56274 24.4731 5.62913 25.3589 5.7382C26.3732 5.8615 27.3828 6.01326 28.3829 6.20769C28.4877 6.22666 28.5496 6.26934 28.5924 6.36419C29.302 7.82482 30.0068 9.2902 30.7116 10.7556ZM24.5112 10.2908C24.5255 10.3098 24.535 10.3288 24.5636 10.3857C23.8635 10.4378 23.1825 10.4758 22.5111 10.5706C21.7729 10.675 21.0443 10.8125 20.3252 11.0164C20.1776 11.0591 20.0823 11.0449 19.968 10.9358C18.3917 9.46092 16.8107 7.98606 15.2296 6.52068C15.082 6.38316 15.082 6.34048 15.282 6.28357C16.5726 5.91841 17.8869 5.69078 19.2251 5.59119C19.6918 5.55799 20.1585 5.52954 20.6252 5.50109C20.7347 5.49634 20.83 5.50109 20.9109 5.61016C22.111 7.17038 23.3111 8.7306 24.5112 10.2908ZM18.8727 10.4615C19.1299 10.7034 19.3918 10.9453 19.6728 11.2061C19.2346 11.3721 18.8299 11.5238 18.4393 11.704C17.7536 12.0218 17.1059 12.4059 16.5249 12.8801C16.4154 12.9702 16.3487 12.956 16.2392 12.8801C14.3962 11.5428 12.5485 10.2055 10.7007 8.87287C10.5579 8.77328 10.5293 8.72112 10.6864 8.59782C11.8199 7.68255 13.0914 7.02337 14.4581 6.53491C14.601 6.48275 14.6724 6.53965 14.7629 6.62502C16.1297 7.90544 17.5012 9.18587 18.8727 10.4615ZM15.4772 12.8185C15.6392 12.9323 15.7963 13.0509 15.9582 13.1647C16.0535 13.2311 16.063 13.2785 15.9725 13.3638C15.2153 14.0894 14.6153 14.9241 14.2486 15.9152C14.2295 15.9674 14.2248 16.029 14.1391 16.0243C14.101 16.0053 14.0581 15.9863 14.02 15.9626C12.0151 14.9004 10.0054 13.8381 7.99578 12.7805C7.8672 12.7141 7.85768 12.6478 7.9053 12.5245C8.37676 11.2345 9.11014 10.1154 10.0816 9.14318C10.1959 9.02937 10.2721 9.04834 10.3817 9.1337C12.077 10.362 13.7771 11.5902 15.4772 12.8185ZM7.92435 13.1884C9.9102 14.2459 11.896 15.2987 13.8867 16.342C14.0343 16.4179 14.0724 16.489 14.0295 16.655C13.7581 17.7552 13.7486 18.8744 13.8914 19.9936C13.9105 20.1596 13.9105 20.2307 13.7105 20.1548C11.6675 19.4008 9.62446 18.6563 7.58147 17.9117C7.46717 17.869 7.42908 17.8074 7.41479 17.6888C7.34812 17.1719 7.31955 16.6503 7.32431 16.1808C7.31002 15.1707 7.42431 14.2269 7.66243 13.2975C7.71005 13.1172 7.76243 13.0983 7.92435 13.1884ZM7.54813 18.3196C8.00054 18.4855 8.44819 18.6468 8.9006 18.8128C10.534 19.4103 12.1675 20.0078 13.8009 20.6054C13.9057 20.6433 13.9914 20.6718 14.0152 20.814C14.301 22.3079 14.801 23.7353 15.4296 25.1153C15.4439 25.1438 15.4487 25.1722 15.4677 25.2386C15.0677 25.1627 14.6915 25.0916 14.3105 25.0205C12.7294 24.7075 11.1436 24.3945 9.56256 24.091C9.41016 24.0625 9.33397 23.9961 9.2673 23.8586C8.48153 22.1561 7.8672 20.3967 7.53385 18.5472C7.52432 18.4808 7.50051 18.4097 7.54813 18.3196ZM11.2103 24.8165C12.6247 25.0916 14.0343 25.3761 15.4487 25.6464C15.6249 25.6796 15.7344 25.746 15.8201 25.9168C16.544 27.3964 17.4107 28.7906 18.3679 30.1279C18.4108 30.1896 18.4727 30.2417 18.4822 30.3413C18.4155 30.3461 18.3536 30.3508 18.2965 30.3508C16.6964 30.3556 15.0915 30.3508 13.4914 30.365C13.3104 30.365 13.2057 30.3034 13.1009 30.1611C11.8341 28.4586 10.6864 26.685 9.72447 24.7928C9.68161 24.7122 9.6197 24.6363 9.62446 24.513C10.1578 24.6126 10.6864 24.7122 11.2103 24.8165ZM16.2392 30.7587C17.0393 30.7587 17.8393 30.7587 18.6441 30.7587C18.7489 30.7587 18.8346 30.7634 18.9108 30.863C20.2347 32.6224 21.6967 34.2632 23.2682 35.8045C23.2825 35.8187 23.2968 35.8424 23.3111 35.8661C23.2254 35.9468 23.1111 35.9562 23.0111 35.9894C21.8872 36.3499 20.7633 36.7055 19.6442 37.0754C19.4918 37.1228 19.3918 37.1086 19.268 36.9948C17.2488 35.0931 15.363 33.0682 13.6533 30.8867C13.6343 30.863 13.62 30.8345 13.5724 30.7634H16.2392V30.7587ZM20.0109 37.3694C21.1633 36.9995 22.3206 36.6344 23.473 36.2692C23.5254 36.2503 23.5778 36.236 23.6111 36.2266C23.7254 36.2171 23.773 36.2977 23.8254 36.3451C24.6874 37.1513 25.5684 37.9338 26.4828 38.6783C27.3685 39.3992 28.2686 40.0963 29.202 40.7507C29.3687 40.8645 29.4163 40.9262 29.2401 41.0874C28.5257 41.7371 27.8209 42.401 27.1257 43.065C27.0018 43.1835 26.9304 43.1314 26.8256 43.0602C25.297 41.9979 23.8111 40.8788 22.3729 39.6979C21.5538 39.0245 20.7538 38.3274 19.9633 37.6208C19.768 37.4453 19.768 37.4453 20.0109 37.3694ZM29.3401 41.5285C29.4734 41.4052 29.602 41.2012 29.7449 41.1823C29.9211 41.1633 30.0782 41.3625 30.2402 41.4763C32.1117 42.7425 34.0595 43.8759 36.0739 44.905C36.2739 45.0093 36.3358 45.0947 36.2644 45.3318C35.9977 46.2044 35.75 47.0865 35.5072 47.9685C35.4596 48.144 35.4167 48.1962 35.2262 48.0966C32.9641 46.9205 30.7497 45.6495 28.6115 44.26C28.1876 43.985 27.7686 43.7052 27.3304 43.4159C28.0162 42.7757 28.6781 42.1497 29.3401 41.5285ZM35.8643 48.1487C36.1406 47.2429 36.3977 46.3372 36.6549 45.4219C36.6977 45.2607 36.7454 45.2464 36.8882 45.3176C38.9026 46.3277 40.9742 47.224 43.0934 47.997C43.2125 48.0397 43.2696 48.1013 43.2887 48.2294C43.4553 49.3675 43.6315 50.5057 43.803 51.6438C43.8125 51.7102 43.8316 51.7813 43.7887 51.8762C43.2315 51.6628 42.6696 51.4494 42.1124 51.2312C40.0456 50.4108 38.0216 49.4908 36.0263 48.5044C35.8548 48.419 35.8024 48.3432 35.8643 48.1487ZM43.7077 48.3669C43.703 48.3289 43.703 48.291 43.6934 48.2199C45.0888 48.7131 46.4698 49.1446 47.8747 49.505C48.5271 49.671 49.1795 49.8228 49.8367 49.9745C50.0129 50.0125 50.1177 50.0883 50.1987 50.2591C50.8225 51.5632 51.4511 52.8626 52.0797 54.162C52.1035 54.2094 52.1178 54.2616 52.1416 54.3137C52.0273 54.3801 51.9321 54.3137 51.8369 54.29C49.3176 53.721 46.8508 52.9764 44.4221 52.1038C44.3316 52.0706 44.2554 52.0422 44.2363 51.9189C44.0649 50.738 43.8839 49.5525 43.7077 48.3669ZM50.6654 50.3065C50.6511 50.2733 50.6368 50.2354 50.5987 50.1452C51.0606 50.2259 51.4797 50.3017 51.8988 50.3729C52.8988 50.5389 53.9037 50.6669 54.9133 50.7333C55.3466 50.7618 55.78 50.7902 56.2181 50.8139C56.3134 50.8187 56.38 50.8424 56.4419 50.9182C57.5753 52.4026 58.7088 53.8822 59.8422 55.3665C59.8469 55.3713 59.8469 55.3808 59.8565 55.414C59.7088 55.4519 59.5612 55.4282 59.4183 55.4187C57.2372 55.2812 55.0752 54.9777 52.9322 54.5319C52.7893 54.5034 52.675 54.4702 52.5988 54.3185C51.9559 52.9764 51.3083 51.6438 50.6654 50.3065ZM56.9658 50.9514C56.942 50.923 56.9086 50.8945 56.9277 50.8376C57.2753 50.8234 57.6277 50.7997 57.9801 50.7902C59.1231 50.757 60.2517 50.6053 61.3613 50.3397C61.4899 50.3112 61.5661 50.3302 61.6566 50.4156C62.89 51.5822 64.1282 52.7488 65.3663 53.9154C65.714 54.2426 66.0664 54.5698 66.4474 54.9302C64.9949 55.2527 63.5853 55.4092 62.1566 55.4472C61.6518 55.4614 61.1423 55.4566 60.6375 55.4709C60.4994 55.4756 60.3993 55.4329 60.3089 55.3191C59.1993 53.8632 58.0801 52.4073 56.9658 50.9514ZM62.109 50.2923C62.0756 50.2591 62.0471 50.2259 61.9995 50.1784C62.5947 49.984 63.1662 49.7801 63.7139 49.505C64.2901 49.2158 64.833 48.879 65.314 48.4522C65.433 48.3432 65.5092 48.3479 65.633 48.438C67.1665 49.5335 68.7047 50.6195 70.2429 51.7102C70.5858 51.9521 70.9191 52.2082 71.2715 52.4358C71.4477 52.5496 71.4096 52.6018 71.2715 52.7108C70.081 53.683 68.7094 54.2948 67.2474 54.7311C66.9903 54.8069 66.8379 54.7548 66.6522 54.5793C65.1378 53.1376 63.6234 51.715 62.109 50.2923ZM65.9188 48.1535C65.7949 48.0681 65.7711 48.0159 65.8902 47.8926C66.595 47.1481 67.0665 46.2708 67.3284 45.2844C67.376 45.0994 67.4284 45.0899 67.5903 45.1753C69.6047 46.2423 71.6239 47.2999 73.6431 48.3574C73.7288 48.4048 73.8526 48.4285 73.805 48.5708C73.6145 49.3865 73.3145 50.1547 72.8716 50.8661C72.5859 51.3308 72.243 51.7576 71.8668 52.1512C71.7715 52.2508 71.7049 52.2556 71.5906 52.175C69.7047 50.8329 67.8094 49.4908 65.9188 48.1535ZM73.7479 47.959C71.8096 46.9394 69.8667 45.9198 67.9284 44.9002C67.4951 44.6726 67.4951 44.6631 67.576 44.1889C67.7522 43.1503 67.776 42.1023 67.676 41.0542C67.6713 40.9973 67.6665 40.9452 67.6665 40.8882C67.6665 40.8598 67.6713 40.8266 67.676 40.7697C67.8856 40.8456 68.0856 40.9167 68.2856 40.9878C70.1429 41.6707 71.9954 42.3536 73.8574 43.0318C74.005 43.0839 74.0765 43.1598 74.0908 43.3068C74.267 44.8291 74.2622 46.3419 73.9717 47.8547C73.9288 48.0491 73.8812 48.0302 73.7479 47.959ZM73.7622 42.5813C71.7573 41.8415 69.7524 41.1064 67.7475 40.3713C67.6665 40.3429 67.5855 40.3239 67.5713 40.2101C67.3379 38.7305 66.8617 37.322 66.2283 35.9136C67.0331 36.0748 67.7903 36.2218 68.5523 36.3783C69.6905 36.6107 70.8334 36.8478 71.9716 37.0707C72.0954 37.0944 72.1621 37.1466 72.2144 37.2556C73.0002 38.9107 73.605 40.6227 73.9479 42.4248C73.9765 42.586 73.9622 42.6524 73.7622 42.5813ZM66.1855 35.4915C66.0712 35.4678 65.995 35.4251 65.9378 35.3113C65.1854 33.808 64.2853 32.3995 63.2757 31.0574C63.2376 31.01 63.1852 30.9673 63.19 30.8725H63.371C64.8949 30.8725 66.4188 30.8725 67.9427 30.8677C68.0903 30.8677 68.1951 30.9009 68.2856 31.0242C69.6238 32.7552 70.8381 34.562 71.843 36.5063C71.862 36.5395 71.8763 36.5775 71.9001 36.6391C69.9667 36.255 68.0761 35.8709 66.1855 35.4915ZM66.5093 22.6493C67.5046 23.5978 68.4951 24.551 69.4333 25.5611C69.4381 25.5658 69.4333 25.5753 69.4333 25.5895C69.3619 25.6275 69.2809 25.6085 69.2095 25.6085C67.5379 25.6085 65.8664 25.6085 64.1901 25.6085C63.7996 25.6085 63.6139 25.3856 63.6853 25.011C63.7758 24.5178 63.8662 24.0198 63.9472 23.5219C63.9663 23.3938 64.0186 23.3275 64.1377 23.2895C64.8377 23.0619 65.5378 22.8343 66.2331 22.5971C66.3426 22.5545 66.4283 22.5687 66.5093 22.6493ZM66.0616 22.232C65.414 22.4454 64.8187 22.6493 64.2187 22.839C64.0139 22.9054 64.0901 22.7347 64.0996 22.6588C64.1758 22.1846 64.2615 21.7151 64.352 21.2408C64.3758 21.1033 64.3758 20.961 64.4568 20.7998C64.9901 21.2693 65.5092 21.734 66.0616 22.232ZM61.4899 29.9999C61.9899 29.9999 61.9995 30.0046 62.2661 30.4599C62.1947 30.5168 62.1137 30.4883 62.0423 30.4883C59.2421 30.4883 56.4419 30.4931 53.6417 30.4883C51.7797 30.4883 49.9129 30.4836 48.0461 30.4836C47.889 30.4836 47.7842 30.4457 47.689 30.3176C47.3651 29.8908 46.9984 29.4972 46.5841 29.0894C47.7318 28.71 48.8367 28.3448 49.9415 27.9797C50.332 27.8516 50.7225 27.7236 51.1178 27.5955C51.1654 27.5813 51.2082 27.5623 51.2559 27.5529C51.694 27.4628 51.7702 27.5244 51.8178 27.9607C51.8892 28.5867 51.9797 29.2127 52.0464 29.8387C52.0654 30.0236 52.175 30.0046 52.294 30.0046H55.6038C55.9705 30.0046 56.3324 29.9951 56.6991 30.0094C56.8896 30.0189 56.9324 29.9572 56.8943 29.777C56.6467 28.563 56.4134 27.3489 56.1657 26.1396C56.1372 25.9974 56.1514 25.9262 56.3038 25.8788C56.6848 25.765 57.0563 25.637 57.4325 25.5042C57.5468 25.4615 57.623 25.4852 57.7039 25.5658C58.023 25.8741 58.3468 26.1776 58.6707 26.4811C58.7516 26.5522 58.7707 26.6234 58.7516 26.7324C58.5659 27.7331 58.3897 28.7337 58.2135 29.7343C58.1659 29.9999 58.1706 30.0094 58.4564 30.0094H61.4899V29.9999ZM58.9945 24.5699C58.5992 24.6932 58.2087 24.8165 57.823 24.9541C57.7039 24.9967 57.6325 24.9635 57.5515 24.8877C56.9467 24.3281 56.3276 23.7875 55.6895 23.2705C55.5943 23.1947 55.5609 23.0951 55.5371 22.986C55.2323 21.4495 54.9275 19.913 54.6275 18.3717C54.6228 18.3575 54.6323 18.3433 54.6418 18.2959C54.999 18.5567 55.3514 18.808 55.6943 19.0689C56.9277 19.9936 58.1373 20.9563 59.3278 21.9332C59.504 22.0802 59.5421 22.2178 59.4993 22.4406C59.3707 23.0809 59.2659 23.7258 59.1564 24.3708C59.1374 24.4751 59.104 24.5367 58.9945 24.5699ZM59.0421 24.9683C58.9754 25.3477 58.9183 25.6986 58.8516 26.0922C58.5659 25.8267 58.3087 25.5848 58.0135 25.3097C58.3802 25.1912 58.6945 25.0869 59.0421 24.9683ZM57.0991 25.1912C56.7896 25.2908 56.4848 25.3951 56.18 25.4994C56.0752 25.5374 56.0324 25.4852 56.0181 25.3951C55.9181 24.8877 55.8181 24.3802 55.7181 23.8728C55.7371 23.8633 55.7514 23.8586 55.7705 23.8491C56.2276 24.2522 56.68 24.6506 57.1372 25.0537C57.2039 25.1106 57.2087 25.1532 57.0991 25.1912ZM57.2753 15.2371C58.2754 15.9342 59.2659 16.6455 60.2422 17.3758C60.3755 17.4754 60.3565 17.5845 60.3327 17.7078C60.1374 18.827 59.9374 19.9414 59.7374 21.0606C59.7041 21.2503 59.6707 21.4448 59.6279 21.6771C58.2373 20.5153 56.8562 19.4293 55.4419 18.3907C55.218 18.2247 54.999 18.0587 54.7704 17.9022C54.6561 17.8216 54.6228 17.7742 54.7418 17.6556C55.5085 16.8684 56.2657 16.0717 57.0229 15.275C57.1086 15.1707 57.1706 15.1612 57.2753 15.2371ZM47.1984 9.31865C50.4415 10.9642 53.6036 12.7473 56.6181 14.7865C56.7277 14.8624 56.8134 14.9051 56.6753 15.0474C55.9657 15.7777 55.2609 16.5175 54.5561 17.2573C54.5228 17.2905 54.4847 17.3142 54.4275 17.3664C54.3323 16.8874 54.237 16.4321 54.1465 15.9769C54.1037 15.754 54.0322 15.5311 54.018 15.3035C54.0037 15.0853 53.8989 15.0616 53.7132 15.0616C52.7464 15.0711 51.7797 15.0616 50.8082 15.0663C50.6749 15.0663 50.5653 15.0379 50.4511 14.9667C49.1033 14.1036 47.7271 13.288 46.327 12.5197C46.1889 12.4438 46.1412 12.3774 46.1841 12.2115C46.4413 11.2867 46.6889 10.3572 46.927 9.42772C46.9794 9.24277 47.0365 9.23803 47.1984 9.31865ZM36.7787 4.73757C36.8596 4.76603 36.9216 4.78974 36.9787 4.80871C40.1932 6.01326 43.3268 7.39801 46.3984 8.91555C46.5651 8.99617 46.627 9.06731 46.5698 9.26648C46.3127 10.177 46.0698 11.0875 45.8317 12.0075C45.7841 12.1972 45.7269 12.202 45.565 12.1166C42.9553 10.7129 40.2742 9.47515 37.5026 8.42235C37.3644 8.37019 37.3073 8.29431 37.2835 8.15204C37.1025 7.08028 36.9216 6.00851 36.7406 4.93675C36.7263 4.86562 36.6644 4.77077 36.7787 4.73757ZM28.5257 2.15301C31.0688 2.78848 33.5689 3.57096 36.0358 4.45778C36.2025 4.51943 36.2787 4.60005 36.3072 4.785C36.4787 5.83305 36.6644 6.8811 36.8454 7.92915C36.8835 8.15678 36.8644 8.17575 36.6358 8.09513C34.2023 7.20832 31.7212 6.478 29.1829 5.95635C28.9353 5.90418 28.7686 5.82356 28.6543 5.57222C28.1114 4.40561 27.5447 3.24849 26.9875 2.09136C26.9399 1.99177 26.8971 1.89218 26.8352 1.74991C27.4257 1.88744 27.9781 2.01548 28.5257 2.15301ZM18.9441 0.583305C19.8585 0.649697 20.7728 0.735059 21.6872 0.848875C23.2016 1.03857 24.7064 1.30414 26.2018 1.61239C26.2875 1.63136 26.3399 1.67404 26.378 1.74991C27.0161 3.07776 27.6543 4.41035 28.2924 5.7382C28.2924 5.74294 28.2876 5.75243 28.2829 5.7714C27.459 5.62439 26.6351 5.48686 25.8018 5.38253C25.0874 5.29242 24.3731 5.22129 23.654 5.17387C22.8254 5.1217 21.992 5.09325 21.1633 5.0885C21.0586 5.0885 20.9871 5.05057 20.9205 4.96995C19.8156 3.52828 18.706 2.08662 17.6012 0.644955C17.5774 0.616501 17.5583 0.583305 17.5155 0.516912C18.0203 0.540624 18.4822 0.550109 18.9441 0.583305ZM13.1199 0.706605C14.3438 0.564336 15.5677 0.507428 16.7964 0.516912C16.9392 0.516912 17.0297 0.559593 17.1154 0.673409C18.206 2.0961 19.3013 3.5188 20.3966 4.94149C20.4347 4.98892 20.4871 5.0316 20.4823 5.11696C19.968 5.13119 19.4585 5.16912 18.9489 5.21655C17.5964 5.33985 16.2678 5.56748 14.9677 5.97058C14.7724 6.03223 14.6581 5.99429 14.5105 5.85676C12.9628 4.40561 11.4055 2.96869 9.85305 1.52228C9.81019 1.4796 9.76733 1.43218 9.70066 1.36104C10.8484 1.04331 11.977 0.834648 13.1199 0.706605ZM4.40982 3.99777C5.70515 2.94024 7.17668 2.20043 8.74821 1.64084C9.12919 1.50806 9.35302 1.57445 9.63399 1.84002C10.7531 2.91178 11.896 3.95983 13.0295 5.01737C13.4342 5.39201 13.839 5.7714 14.2772 6.1745C13.5581 6.44006 12.8961 6.71986 12.2627 7.06605C11.5722 7.44069 10.9198 7.87699 10.3245 8.38916C10.215 8.47926 10.1531 8.47926 10.0435 8.39864C8.14817 7.02337 6.25281 5.6481 4.34791 4.27757C4.12409 4.11633 4.32887 4.06416 4.40982 3.99777ZM1.02864 8.86813C1.59535 7.20832 2.50969 5.76666 3.78121 4.55262C3.87645 4.46252 3.87645 4.46252 3.92408 4.46726C3.96217 4.49572 4.0098 4.52417 4.05742 4.55737C5.9385 5.91841 7.81482 7.27945 9.6959 8.63576C9.84353 8.74009 9.87686 8.797 9.72923 8.94401C8.77203 9.90196 8.0434 11.0117 7.57671 12.2873C7.5148 12.4628 7.45765 12.5007 7.28145 12.4059C5.24321 11.3199 3.20022 10.2387 1.15246 9.16215C1.01435 9.08628 0.976257 9.02463 1.02864 8.86813ZM0.552419 15.1612C0.400027 13.9946 0.347643 12.8232 0.461936 11.6471C0.528607 10.969 0.638139 10.3051 0.800054 9.64587C0.842914 9.4704 0.900061 9.4704 1.03817 9.54628C3.09069 10.637 5.14797 11.723 7.20525 12.809C7.32907 12.8754 7.35288 12.9418 7.31478 13.0698C7.00524 14.17 6.88618 15.2987 6.91952 16.4369C6.92904 16.8447 6.9719 17.2525 7.00048 17.6936C5.82421 17.2668 4.6908 16.8494 3.55262 16.4369C2.62399 16.0954 1.69535 15.754 0.766719 15.422C0.628614 15.3698 0.571467 15.3082 0.552419 15.1612ZM2.87162 22.5497C1.89537 20.4631 1.1096 18.3148 0.695285 16.0385C0.685761 15.9769 0.642901 15.9057 0.685761 15.8583C0.74767 15.7919 0.819103 15.863 0.881012 15.882C2.89543 16.6171 4.90986 17.3521 6.92428 18.0919C7.01952 18.1251 7.08143 18.1631 7.10048 18.2816C7.38622 20.1738 7.99102 21.9711 8.76726 23.7163C8.79584 23.7827 8.82441 23.8444 8.87203 23.9534C8.08626 23.8017 7.34336 23.6547 6.60045 23.5124C5.49561 23.2943 4.39554 23.0761 3.2907 22.8627C3.09069 22.82 2.96211 22.7489 2.87162 22.5497ZM7.57671 30.1469C5.98136 28.0271 4.53364 25.8124 3.32404 23.4508C3.30022 23.4033 3.27641 23.3512 3.23355 23.2611C3.6431 23.3369 4.02408 23.4081 4.4003 23.4792C5.9004 23.7732 7.39574 24.0767 8.89584 24.366C9.04347 24.3945 9.11491 24.4609 9.17681 24.5794C10.1388 26.5617 11.3151 28.416 12.6247 30.1848C12.658 30.2275 12.7009 30.2655 12.6961 30.3603C12.5485 30.3603 12.4151 30.3603 12.2818 30.3603C10.8865 30.3698 9.49112 30.3745 8.09579 30.3888C7.86244 30.3935 7.71957 30.3366 7.57671 30.1469ZM15.0772 38.3511C12.8818 36.3072 10.8103 34.1399 8.90537 31.8162C8.63392 31.4842 8.372 31.1523 8.05769 30.7681H10.0912C11.0103 30.7681 11.9341 30.7729 12.8533 30.7634C13.0056 30.7634 13.0961 30.8108 13.1866 30.9294C14.8915 33.1488 16.7964 35.188 18.8251 37.1134C18.9965 37.2746 18.9203 37.3031 18.7584 37.3552C17.6345 37.7109 16.5106 38.0666 15.3868 38.4317C15.2629 38.4697 15.1772 38.446 15.0772 38.3511ZM24.1445 45.5926C23.154 44.9097 22.1777 44.2031 21.2205 43.4823C19.2966 42.0311 17.4488 40.4994 15.663 38.887C15.6392 38.868 15.6058 38.8538 15.5201 38.8064C16.4297 38.5123 17.2583 38.2468 18.0869 37.9859C18.4584 37.8674 18.8251 37.7583 19.1918 37.6303C19.2966 37.5923 19.368 37.6113 19.4442 37.6824C21.6777 39.7359 24.0493 41.6186 26.5447 43.3448C26.6685 43.4301 26.6828 43.4775 26.5637 43.5866C25.8399 44.26 25.116 44.9334 24.4017 45.6163C24.2874 45.7302 24.2255 45.6495 24.1445 45.5926ZM31.3498 50.0741C29.1258 48.8221 26.9495 47.499 24.8398 46.0716C24.6731 45.9578 24.6731 45.9056 24.816 45.7728C25.5208 45.1279 26.2208 44.4687 26.9114 43.8095C27.0161 43.7099 27.078 43.7147 27.1923 43.7905C29.7544 45.5357 32.4213 47.0959 35.1786 48.5139C35.2548 48.5518 35.331 48.5755 35.2976 48.7036C35.0071 49.7042 34.7214 50.7001 34.4309 51.7339C33.3689 51.1886 32.3546 50.6384 31.3498 50.0741ZM44.2649 56.2154C43.0791 55.7554 41.9029 55.2669 40.7361 54.7548C38.8169 53.9154 36.9216 53.0096 35.05 52.0659C34.8452 51.9616 34.7881 51.8667 34.8595 51.6343C35.131 50.7523 35.3738 49.8655 35.6262 48.9786C35.6691 48.8316 35.7024 48.7747 35.8739 48.8601C38.4312 50.15 41.0599 51.2929 43.7506 52.2793C43.8982 52.3362 43.9173 52.431 43.9363 52.5449C44.0697 53.4317 44.203 54.3232 44.3411 55.21C44.3887 55.523 44.4364 55.8313 44.484 56.149C44.484 56.3909 44.3316 56.2439 44.2649 56.2154ZM52.6369 59.0181C50.1177 58.3257 47.6413 57.5101 45.1983 56.5853C45.0031 56.5142 44.9173 56.4193 44.8888 56.2059C44.7173 54.9966 44.5221 53.7921 44.3411 52.5828C44.3411 52.5686 44.3459 52.5543 44.3554 52.5117C44.7507 52.6444 45.1412 52.7772 45.5364 52.9148C47.6937 53.6498 49.8843 54.2758 52.1131 54.7595C52.3274 54.8069 52.4464 54.9018 52.5417 55.101C53.2417 56.5663 53.9513 58.027 54.6894 59.554C53.9656 59.3643 53.2989 59.1983 52.6369 59.0181ZM63.0852 60.9198C62.1328 60.8392 61.1803 60.7348 60.2279 60.6068C58.6992 60.3981 57.1848 60.0946 55.6752 59.7864C55.3133 59.7105 55.1133 59.554 54.9561 59.2173C54.3275 57.8657 53.6656 56.5284 53.0179 55.1863C52.9846 55.1152 52.956 55.0441 52.9131 54.9492C53.4132 55.0393 53.8846 55.1294 54.3608 55.2148C55.6228 55.4377 56.8896 55.6226 58.1706 55.7222C58.804 55.7696 59.4326 55.8123 60.066 55.8503C60.1565 55.855 60.2279 55.8692 60.2898 55.9498C61.5613 57.6144 62.8376 59.2742 64.1472 60.9814C63.7615 60.9577 63.4234 60.9482 63.0852 60.9198ZM70.4143 60.6447C68.5904 60.9625 66.7474 61.0526 64.8997 61.0146C64.7758 61.0146 64.6711 61.0052 64.5853 60.8913C63.3138 59.2268 62.0376 57.567 60.7137 55.8408C61.3375 55.8408 61.8994 55.8597 62.4614 55.836C63.8615 55.7744 65.2568 55.6226 66.6188 55.2907C66.7283 55.2622 66.8188 55.2669 66.9141 55.3618C68.5951 56.9505 70.2762 58.5297 71.962 60.1136C72.0049 60.1563 72.0668 60.1847 72.0763 60.2748C71.5334 60.4313 70.9763 60.5499 70.4143 60.6447ZM74.086 59.5967C73.6574 59.7769 73.2145 59.9286 72.7716 60.0804C72.6335 60.1278 72.5478 60.1136 72.4383 60.0093C70.7715 58.4348 69.0999 56.8651 67.4236 55.2954C67.2712 55.1531 67.2951 55.1152 67.4808 55.0583C69.0142 54.6078 70.4429 53.9438 71.662 52.8863C71.7858 52.782 71.8525 52.8436 71.9478 52.9053C73.3574 53.9059 74.7622 54.9018 76.1718 55.8977C76.6766 56.2533 77.1767 56.609 77.6815 56.9694C77.7291 57.0026 77.7958 57.0263 77.8148 57.1022C77.7672 57.1544 77.7196 57.2066 77.6672 57.254C76.629 58.2878 75.4194 59.0323 74.086 59.5967ZM80.3959 52.0042C80.1674 53.0997 79.8292 54.1335 79.2959 55.1057C79.0006 55.6416 78.6577 56.1395 78.272 56.6138C78.1625 56.7466 78.0863 56.775 77.9291 56.6659C76.0337 55.3144 74.1336 53.9723 72.2335 52.6302C72.1001 52.5354 72.1001 52.4832 72.2144 52.3694C73.1812 51.3877 73.8145 50.2211 74.1479 48.8933C74.2003 48.6941 74.2431 48.6704 74.4289 48.7652C76.3719 49.7943 78.3244 50.8139 80.2721 51.8383C80.334 51.8714 80.4388 51.8904 80.3959 52.0042ZM80.6293 45.7539C80.7388 46.5695 80.7864 47.39 80.7912 48.2056C80.7912 49.2632 80.7103 50.316 80.5245 51.3593C80.4864 51.5774 80.3769 51.4399 80.3102 51.402C79.5245 50.9941 78.7387 50.5815 77.9577 50.169C76.8005 49.5619 75.648 48.9549 74.486 48.3527C74.3431 48.2768 74.3003 48.2009 74.3336 48.0444C74.6527 46.4842 74.6908 44.9145 74.486 43.34C74.486 43.3353 74.4908 43.3258 74.5098 43.2831C75.1432 43.5155 75.7766 43.7431 76.4052 43.9755C77.7291 44.4592 79.0482 44.9477 80.3721 45.4266C80.5436 45.4883 80.6055 45.5689 80.6293 45.7539ZM80.515 44.9666C80.5198 44.9809 80.5102 44.9951 80.5055 45.052C79.7149 44.7627 78.9339 44.4782 78.1577 44.1889C76.9767 43.7573 75.8004 43.3163 74.6146 42.8942C74.4098 42.8231 74.3955 42.6903 74.367 42.5196C74.0574 40.7792 73.505 39.1146 72.7716 37.507C72.7335 37.4216 72.6954 37.3363 72.6383 37.2035C73.0335 37.2793 73.3859 37.3457 73.7383 37.4169C75.2099 37.7156 76.6814 38.0144 78.1577 38.3037C78.372 38.3464 78.4911 38.4412 78.5815 38.6451C79.4673 40.6843 80.1435 42.7757 80.515 44.9666ZM74.0717 31.0385C75.6051 33.1251 76.9814 35.3065 78.1101 37.6398C78.1529 37.7251 78.1863 37.8105 78.2387 37.9196C77.3338 37.7393 76.4623 37.5639 75.5861 37.3837C74.6003 37.1845 73.6145 36.9853 72.6335 36.7909C72.5049 36.7672 72.4049 36.734 72.3383 36.5965C71.3715 34.6426 70.1762 32.8311 68.8523 31.1001C68.8047 31.0385 68.738 30.991 68.7332 30.9009C68.7952 30.844 68.8713 30.8725 68.938 30.8725C70.5429 30.8725 72.143 30.8725 73.7431 30.8677C73.8907 30.8725 73.9812 30.9199 74.0717 31.0385Z" fill="#0064AE"/>
<path d="M137.528 13.3389C137.571 13.3247 137.599 13.3152 137.628 13.3057C138.137 13.1303 138.366 12.7983 138.299 12.3383C138.223 11.8166 137.947 11.5843 137.366 11.5653C136.88 11.5511 136.399 11.5653 135.914 11.5511C135.747 11.5463 135.699 11.5985 135.699 11.7645C135.709 12.6086 135.704 13.4527 135.704 14.2969C135.704 14.7521 135.704 14.7474 136.161 14.7332C136.294 14.7284 136.342 14.6952 136.342 14.5577C136.333 14.2826 136.337 14.0029 136.337 13.7278C136.337 13.3863 136.423 13.3247 136.756 13.429C136.88 13.4717 136.975 13.5476 137.052 13.6567C137.261 13.9649 137.471 14.2684 137.68 14.5767C137.728 14.6431 137.757 14.7332 137.871 14.7284C138.09 14.7237 138.304 14.7284 138.571 14.7284C138.237 14.2352 138.014 13.7041 137.528 13.3389ZM136.852 12.8979C136.337 12.8979 136.337 12.8979 136.337 12.4189C136.337 12.1012 136.337 12.1012 136.656 12.1012C136.875 12.1012 137.099 12.0917 137.318 12.1296C137.509 12.1628 137.609 12.2719 137.623 12.4616C137.633 12.656 137.566 12.7983 137.361 12.8552C137.185 12.9026 136.999 12.8884 136.852 12.8979Z" fill="#368DCD"/>
<path d="M139.999 12.9475C139.937 12.8574 140.008 12.7483 139.956 12.6629C139.913 12.3831 139.851 12.1081 139.722 11.852C139.127 10.6522 138.156 10.0262 136.808 10.0641C135.465 10.0973 134.403 10.913 134.032 12.1697C133.698 13.3031 133.912 14.3702 134.803 15.238C135.527 15.9446 136.394 16.2339 137.394 16.0774C138.727 15.8735 139.737 14.8586 139.956 13.526C140.008 13.4217 139.937 13.2984 139.999 13.1941V12.9475ZM136.894 15.698C135.489 15.6885 134.279 14.4935 134.298 13.085C134.317 11.539 135.546 10.4388 136.97 10.4388C138.408 10.4388 139.589 11.6386 139.584 13.085C139.575 14.5456 138.384 15.7075 136.894 15.698Z" fill="#368DCD"/>
<path d="M0 13.2734C0.0714334 13.4774 0.0857201 13.686 0 13.8899C0 13.686 0 13.4821 0 13.2734Z" fill="#368DCD"/>
<path d="M66.9062 61.4053C67.0729 61.3104 67.2587 61.3721 67.4349 61.3626C67.4491 61.3721 67.4539 61.3816 67.4491 61.391C67.4444 61.4005 67.4396 61.4053 67.4349 61.4053C67.2539 61.4053 67.0825 61.4053 66.9062 61.4053Z" fill="#368DCD"/>
<path d="M103.013 15.1697C102.723 16.8058 102.432 18.4419 102.142 20.078C101.861 21.6619 101.575 23.2411 101.294 24.825C101.051 26.205 100.813 27.5898 100.57 28.9698C100.523 29.2496 100.466 29.5247 100.432 29.8045C100.413 29.9515 100.361 30.0036 100.209 30.0036C98.8656 29.9989 97.5274 29.9989 96.1844 30.0036C96.032 30.0036 95.9654 29.942 95.9035 29.8139C94.7034 27.4333 93.4985 25.0574 92.2937 22.6815C92.1651 22.4254 92.0365 22.1741 91.8556 21.9275C91.746 22.5582 91.6317 23.1842 91.5222 23.8149C91.3365 24.8582 91.146 25.8968 90.965 26.9401C90.7983 27.8886 90.6364 28.8418 90.4745 29.7902C90.4507 29.9183 90.4221 30.0036 90.2602 30.0036C88.8887 29.9989 87.5124 29.9989 86.1409 29.9989C86.1171 29.9989 86.098 29.9894 86.0742 29.9847C86.2266 29.0836 86.379 28.1873 86.5362 27.2958C86.6838 26.4516 86.8457 25.6075 86.9933 24.7681C87.1457 23.9098 87.2886 23.0467 87.441 22.1883C87.5648 21.4912 87.6934 20.7941 87.8172 20.0969C87.9458 19.3666 88.0744 18.641 88.1982 17.9107C88.3458 17.0571 88.4934 16.2082 88.6506 15.3546C88.6696 15.2598 88.6268 15.146 88.7125 15.0653C90.1316 15.0464 91.5555 15.0606 92.9747 15.0559C92.9985 15.0559 93.0175 15.0701 93.0414 15.0796C94.1557 17.2895 95.2701 19.4994 96.3892 21.7093C96.6035 22.1314 96.8178 22.5535 97.0321 22.9708C97.0654 23.0372 97.0797 23.1225 97.1988 23.1842C97.675 20.4716 98.1465 17.7827 98.6227 15.0891C98.6703 15.0227 98.737 15.0511 98.7989 15.0511C100.137 15.0511 101.475 15.0464 102.818 15.0511C102.89 15.0559 103.033 14.9895 103.013 15.1697Z" fill="#0064AE"/>
<path d="M117.521 15.0806C117.317 16.2425 117.102 17.4091 116.907 18.5757C116.878 18.7417 116.793 18.7322 116.678 18.7322C115.345 18.7322 114.016 18.7322 112.683 18.7322C111.583 18.7322 110.478 18.737 109.378 18.7417C109.245 18.737 109.064 18.6706 109.097 18.9219C108.997 19.3914 108.887 19.8609 108.859 20.3446C108.94 20.4205 109.04 20.3825 109.13 20.3825C111.33 20.3825 113.535 20.3825 115.735 20.3873C115.84 20.3873 115.94 20.3968 116.045 20.4015C115.94 20.9611 115.835 21.5207 115.735 22.0803C115.612 22.7632 115.497 23.4508 115.378 24.1337C115.283 24.1385 115.188 24.1432 115.093 24.1432C112.878 24.1432 110.664 24.1432 108.449 24.1432C108.359 24.1432 108.259 24.1147 108.173 24.1764C108.087 24.5178 108.011 24.8593 107.992 25.2102C107.992 25.2102 107.992 25.2102 107.992 25.215C107.935 25.3051 108.073 25.4331 107.93 25.5042C107.849 25.8884 107.849 25.8884 108.225 25.8884C110.683 25.8884 113.145 25.8884 115.602 25.8836C115.788 25.8836 115.859 25.8931 115.816 26.1207C115.583 27.3537 115.364 28.5867 115.155 29.8197C115.131 29.9668 115.074 30.0094 114.94 30C114.902 29.9952 114.859 30 114.821 30C110.802 30 106.778 30 102.758 30.0047C102.563 30.0047 102.473 30.0094 102.52 29.7439C102.811 28.2168 103.073 26.6803 103.339 25.1486C103.506 24.1954 103.658 23.2422 103.825 22.289C104.02 21.1793 104.235 20.0695 104.43 18.9551C104.644 17.7268 104.849 16.4986 105.059 15.2703C105.068 15.2087 105.087 15.1518 105.101 15.0901C105.197 15.0806 105.292 15.0664 105.382 15.0664C109.345 15.0664 113.302 15.0664 117.264 15.0664C117.345 15.0711 117.436 15.0759 117.521 15.0806Z" fill="#0064AE"/>
<path d="M122.756 21.4773C122.694 21.8093 122.632 22.1412 122.575 22.4732C122.475 22.5586 122.546 22.6676 122.527 22.7625C122.108 25.1668 121.684 27.5712 121.261 29.985C121.294 29.9898 121.322 29.9992 121.356 29.9992C122.818 29.9992 124.275 29.9993 125.737 30.004C125.904 30.004 125.932 29.9186 125.951 29.7906C126.251 28.0454 126.551 26.3002 126.861 24.5551C127.19 22.7008 127.528 20.8513 127.847 18.9971C127.88 18.7979 127.961 18.76 128.137 18.76C128.932 18.7694 129.723 18.7647 130.518 18.7647C131.128 18.7647 131.742 18.76 132.352 18.7694C132.518 18.7694 132.614 18.7457 132.633 18.5513C132.657 18.3094 132.714 18.0723 132.757 17.8352C132.918 16.9342 133.08 16.0284 133.242 15.1274C133.195 15.0467 133.118 15.0752 133.047 15.0752C128.466 15.0752 123.885 15.0752 119.303 15.0752C119.265 15.0752 119.222 15.0799 119.184 15.0847C119.122 15.1605 119.156 15.2507 119.141 15.336C118.951 16.403 118.779 17.4701 118.565 18.5276C118.513 18.7932 118.608 18.7694 118.784 18.7694C120.199 18.7647 121.608 18.7694 123.023 18.7647C123.184 18.7647 123.237 18.7837 123.204 18.9686C123.056 19.7416 122.927 20.5194 122.794 21.2971L122.756 21.4773Z" fill="#0064AE"/>
<path d="M137.528 13.3389C137.571 13.3247 137.599 13.3152 137.628 13.3057C138.137 13.1303 138.366 12.7983 138.299 12.3383C138.223 11.8166 137.947 11.5843 137.366 11.5653C136.88 11.5511 136.399 11.5653 135.914 11.5511C135.747 11.5463 135.699 11.5985 135.699 11.7645C135.709 12.6086 135.704 13.4527 135.704 14.2969C135.704 14.7521 135.704 14.7474 136.161 14.7332C136.294 14.7284 136.342 14.6952 136.342 14.5577C136.333 14.2826 136.337 14.0029 136.337 13.7278C136.337 13.3863 136.423 13.3247 136.756 13.429C136.88 13.4717 136.975 13.5476 137.052 13.6567C137.261 13.9649 137.471 14.2684 137.68 14.5767C137.728 14.6431 137.757 14.7332 137.871 14.7284C138.09 14.7237 138.304 14.7284 138.571 14.7284C138.237 14.2352 138.014 13.7041 137.528 13.3389ZM136.852 12.8979C136.337 12.8979 136.337 12.8979 136.337 12.4189C136.337 12.1012 136.337 12.1012 136.656 12.1012C136.875 12.1012 137.099 12.0917 137.318 12.1296C137.509 12.1628 137.609 12.2719 137.623 12.4616C137.633 12.656 137.566 12.7983 137.361 12.8552C137.185 12.9026 136.999 12.8884 136.852 12.8979Z" fill="#368DCD"/>
</g>
<defs>
<clipPath id="clip0_9160_33987">
<rect width="140" height="61.4035" fill="white"/>
</clipPath>
</defs>
</svg>
