<svg width="265" height="76" viewBox="0 0 265 76" fill="none" xmlns="http://www.w3.org/2000/svg">
<mask id="mask0_15139_40129" style="mask-type:luminance" maskUnits="userSpaceOnUse" x="33" y="12" width="199" height="54">
<path d="M232 12.3145H33V65.257H232V12.3145Z" fill="white"/>
</mask>
<g mask="url(#mask0_15139_40129)">
<path d="M52.473 44.4948L45.3566 58.6387H232.065L228.506 65.2567H33L60.6892 12.9629H70.8452L76.6031 53.5781H68.3222L67.2224 43.1973L66.5108 36.7092L64.6992 19.1266L59.0199 30.7322L55.7077 37.7473L52.5377 44.4948H52.473Z" fill="black"/>
<path d="M111.536 33.3354C113.542 31.1942 114.835 28.5342 115.418 25.4199C115.871 22.9545 115.806 20.7486 115.159 18.867C114.512 16.9855 113.347 15.4932 111.665 14.4551C109.983 13.4171 107.978 12.9629 105.455 12.9629H89.2164L81.4531 53.5781H89.1516L92.1277 37.942H96.268L103.384 53.5781H112.571L104.355 37.5525C107.137 36.9038 109.595 35.4765 111.536 33.3354ZM107.784 25.4199C107.395 27.4962 106.49 29.1182 105.196 30.2212C103.902 31.324 102.155 31.908 100.085 31.908H93.2275L95.6858 18.9968H102.543C104.614 18.9968 106.102 19.5807 107.007 20.6837C107.913 21.7218 108.172 23.3438 107.784 25.4199Z" fill="#E4007F"/>
<path d="M144.857 12.9629H135.347L114.062 53.5781H121.89L126.937 43.1973L130.107 36.7092L138.711 19.1266L140.523 36.7092L141.234 43.1973L142.334 53.5781H150.615L144.857 12.9629Z" fill="#E4007F"/>
<path d="M173.838 47.9991C171.703 47.9991 169.956 47.4152 168.533 46.1824C167.11 44.9498 166.204 43.2629 165.686 40.9921C165.234 38.7861 165.234 36.1908 165.816 33.2713C166.398 30.3517 167.304 27.8213 168.662 25.5505C170.021 23.3446 171.574 21.5928 173.45 20.3601C175.326 19.1273 177.331 18.5434 179.466 18.5434C183.866 18.5434 186.324 20.6845 186.842 24.9666L193.699 21.9821C193.376 18.9327 192.146 16.597 189.882 14.8452C187.618 13.1583 184.577 12.25 180.76 12.25C177.137 12.25 173.709 13.1583 170.539 14.9101C167.368 16.6619 164.716 19.1273 162.517 22.3065C160.317 25.4856 158.894 29.119 158.117 33.2063C157.341 37.3588 157.406 40.9921 158.376 44.1711C159.346 47.3504 161.093 49.8159 163.552 51.5676C166.075 53.3194 169.115 54.1627 172.803 54.1627C176.62 54.1627 179.984 53.3194 182.895 51.5676C185.806 49.8159 188.006 47.4801 189.429 44.4307L183.672 41.5111C181.537 45.8581 178.302 47.9991 173.838 47.9991Z" fill="#E4007F"/>
<path d="M224.623 19.451L225.853 12.9629H200.88L193.117 53.5781H218.089L219.318 47.1549H201.98L204.18 35.4765H220.289L221.518 29.0532H205.409L207.22 19.3861L224.623 19.451Z" fill="#E4007F"/>
</g>
</svg>
