<svg width="265" height="76" viewBox="0 0 265 76" fill="none" xmlns="http://www.w3.org/2000/svg">
<path d="M17.6016 59.5H13.0078V39.4644C13.0078 34.2594 17.2292 30.0388 22.4363 30.0388H30.0915C32.1389 30.0388 33.7987 31.6989 33.7987 33.7454V37.6927H22.4363C21.458 37.6927 20.6647 38.4857 20.6647 39.4644V56.4381C20.6647 58.129 19.2932 59.5 17.6016 59.5Z" fill="#74BC1F"/>
<path d="M86.9985 59.5H77.7808C72.5729 59.5 68.3516 55.2803 68.3516 50.0753V39.4644C68.3516 34.2593 72.5729 30.0388 77.7808 30.0388H81.9605C84.0079 30.0388 85.6686 31.6989 85.6686 33.7454V37.6927H77.7808C76.8018 37.6927 76.0085 38.4857 76.0085 39.4644V50.0753C76.0085 51.0531 76.8018 51.8461 77.7808 51.8461H86.9985C87.9767 51.8461 88.77 51.0531 88.77 50.0753V16.5002H92.7197C94.7671 16.5002 96.4269 18.1594 96.4269 20.2068V50.0753C96.4269 55.2803 92.2056 59.5 86.9985 59.5Z" fill="#74BC1F"/>
<path d="M108.689 30.9463C109.83 32.3865 114.729 38.5769 115.768 39.8888L111.055 44.6016C108.238 42.3734 102.496 37.8314 99.6504 35.58C99.6171 35.5541 99.6171 35.5108 99.6471 35.4808L104.677 30.4532C105.753 29.377 107.528 29.4803 108.473 30.6739L108.689 30.9463Z" fill="#74BC1F"/>
<path d="M102.109 51.6785C103.549 50.5382 109.742 45.6405 111.055 44.6018L115.769 49.3138C114.018 51.5244 110.841 55.5383 108.466 58.5386C107.524 59.7289 105.756 59.8288 104.683 58.7552L99.5938 53.6684L102.109 51.6785Z" fill="#74BC1F"/>
<path d="M122.853 58.2579C121.712 56.8177 116.812 50.6273 115.773 49.3154L120.487 44.6026C123.304 46.8307 129.046 51.3728 131.891 53.6242C131.925 53.65 131.925 53.6933 131.895 53.7233L126.865 58.751C125.789 59.8271 124.014 59.7238 123.069 58.5302L122.853 58.2579Z" fill="#74BC1F"/>
<path d="M129.434 37.5249C127.993 38.6652 121.8 43.5629 120.488 44.6016L115.773 39.8896C117.512 37.6948 120.656 33.7225 123.025 30.7306C124.026 29.4645 125.778 29.3662 126.92 30.5073L131.949 35.535L129.434 37.5249Z" fill="#74BC1F"/>
<path d="M152.577 30.0388H139.42C137.372 30.0388 135.712 31.6981 135.712 33.7454V37.6927H152.577C153.556 37.6927 154.349 38.4857 154.349 39.4644V50.0744C154.349 51.0523 153.556 51.8461 152.577 51.8461H143.713C142.539 51.8461 141.587 50.894 141.587 49.7204C141.587 48.5468 142.539 47.5956 143.713 47.5956H151.247V44.7178C151.247 43.186 150.003 41.9432 148.471 41.9432H142.711C137.861 41.9432 133.93 45.8731 133.93 50.7208C133.93 55.5677 137.86 59.4975 142.709 59.4983L152.577 59.5C157.785 59.5 162.006 55.2795 162.006 50.0744V39.4644C162.006 34.2585 157.785 30.0388 152.577 30.0388Z" fill="#74BC1F"/>
<path d="M54.2329 30.0388H41.0764C39.0282 30.0388 37.3683 31.6981 37.3683 33.7454V37.6927H54.2329C55.2119 37.6927 56.0052 38.4857 56.0052 39.4644V50.0744C56.0052 51.0523 55.2119 51.8461 54.2329 51.8461H45.3694C44.1953 51.8461 43.2429 50.894 43.2429 49.7204C43.2429 48.5468 44.1953 47.5956 45.3694 47.5956H52.903V44.7178C52.903 43.186 51.6597 41.9432 50.1273 41.9432H44.3669C39.5173 41.9432 35.5859 45.8731 35.5859 50.7208C35.5859 55.5677 39.5165 59.4975 44.3653 59.4983L54.2329 59.5C59.4408 59.5 63.6621 55.2795 63.6621 50.0744V39.4644C63.6621 34.2585 59.4408 30.0388 54.2329 30.0388Z" fill="#74BC1F"/>
<line x1="182.258" y1="18" x2="182.258" y2="58" stroke="#A3A3A3" stroke-width="0.5"/>
<path d="M211.598 62.7771C206.388 61.7422 203.295 58.6026 202.237 53.4166C201.854 52.9166 202.051 52.3584 202.121 51.8236C202.214 42.6143 202.202 33.4166 202.121 24.2073C202.051 23.7654 201.877 23.3003 202.214 22.8817C202.807 19.7189 204.168 17.0329 206.9 15.1608C208.423 14.1143 210.144 13.6608 211.888 13.2073C212.307 12.8584 212.761 13.0329 213.214 13.1143C222.4 13.2073 231.598 13.1957 240.784 13.1143C241.237 13.0445 241.691 12.8584 242.109 13.2073C245.54 13.8817 248.354 15.4747 250.226 18.5445C251.051 19.8933 251.388 21.3933 251.784 22.8817C252.133 23.3003 251.958 23.7538 251.877 24.2073C251.784 33.405 251.784 42.591 251.877 51.7771C251.947 52.2305 252.121 52.684 251.784 53.1143C251.121 56.7073 249.47 59.6259 246.179 61.4864C244.993 62.1608 243.679 62.405 242.412 62.7887C241.9 63.1375 241.354 62.9747 240.807 62.8933C231.598 62.8003 222.388 62.8003 213.179 62.8933C212.656 62.9631 212.098 63.1491 211.598 62.7771Z" fill="#FD7F00"/>
<path d="M224.146 41.7305C224.483 42.4514 224.065 43.1607 224.135 43.8816C224.286 45.37 225.297 46.0677 226.832 45.6723C226.576 44.8468 226.728 43.9979 226.716 43.1607C226.693 40.7072 226.704 40.7421 224.17 40.684C222.96 40.6607 221.728 40.9747 220.553 40.4514C220.542 40.3468 220.53 40.2537 220.507 40.1491C220.321 38.8468 220.332 37.7072 222.297 38.1491C220.716 36.2886 220.728 36.2886 222.17 34.2654C222.635 33.6142 223.053 32.9398 223.449 32.2421C223.565 32.0328 223.937 31.7886 223.588 31.4747C223.286 31.1956 223.018 31.4747 222.763 31.5561C221.786 31.8584 221.228 32.6956 220.693 33.4398C219.832 34.6258 218.96 34.7421 217.832 33.87C217.402 33.5328 216.914 33.2886 216.367 32.9398C218.553 30.5095 220.193 27.8119 221.181 24.7421C221.425 23.9863 221.867 23.8584 222.542 24.1142C223.007 24.2886 223.495 24.4165 223.972 24.5561C226.17 25.1723 226.17 25.1723 225.321 27.3235C228.39 26.5444 231.414 25.9979 234.449 25.5561C234.995 25.2654 235.542 25.2654 236.088 25.5561C237.483 25.9398 238.949 25.9165 240.344 26.37C243.344 27.3584 244.902 29.3002 245.228 32.4747C245.542 35.5793 245.437 38.6723 245.553 41.7654C245.646 42.6607 245.856 43.5677 245.449 44.4514C245.274 45.3235 245.111 46.1956 244.937 47.0677C244.39 49.6607 242.797 51.2654 240.274 51.9747C237.856 52.6491 235.449 52.4979 233.018 52.0095C232.367 51.8816 231.937 51.7305 232.263 50.9979C232.553 50.3468 232.076 49.1026 233.518 49.3119C233.914 49.37 234.297 49.463 234.681 49.5328C235.576 49.3933 236.472 49.4979 237.367 49.5561C238.623 49.2421 239.635 48.6723 239.821 47.2188C239.6 43.9514 239.658 40.6723 239.658 37.3933C239.658 35.4514 239.67 33.5095 239.646 31.5677C239.553 29.9282 238.623 29.0328 237.076 28.6723C235.646 28.2886 234.228 28.4863 232.809 28.684C231.03 28.8933 229.402 29.7305 227.449 29.9863C229.332 30.0095 229.483 30.3584 228.495 32.0561C228.425 32.2305 228.367 32.3933 228.542 32.5444C231.274 32.7072 233.995 32.5677 236.704 32.6258C237.379 32.6375 238.1 32.4979 238.693 33.0095C239.297 34.8933 238.879 35.5328 236.96 35.6258C235.96 35.6723 234.96 35.6142 233.949 35.6607C233.263 35.6956 232.774 35.9282 232.809 36.7305C232.844 37.4747 233.332 37.6142 233.937 37.6491C234.89 37.6956 235.844 37.6491 236.797 37.684C238.879 37.7537 239.332 38.3933 238.763 40.4514C237.693 40.9282 236.565 40.5328 235.46 40.684C234.681 40.7886 233.879 40.6026 233.111 40.8119C232.297 41.777 232.693 42.9049 232.751 43.9514C232.786 44.5328 233.297 44.3816 233.67 44.184C234.111 43.9514 234.356 43.5444 234.239 43.0677C233.89 41.6491 234.786 41.2188 235.867 40.8816C236.379 40.7421 236.867 40.5328 237.414 40.7188C238.763 42.0909 238.995 43.9863 239.751 45.6258C239.751 46.1375 240.17 46.6491 239.786 47.1723C238.96 47.2188 238.309 47.6956 237.588 47.9979C236.146 48.5793 235.949 48.4747 235.635 46.8468C235.6 46.6607 235.553 46.4863 235.472 46.184C233.356 47.6375 231.065 48.4514 228.646 48.9398C228.076 49.3119 227.472 49.1491 226.867 49.0444C226.076 49.0444 225.274 49.0561 224.483 49.0444C220.867 48.9514 218.914 46.6142 219.437 43.0095C219.495 42.6142 219.576 42.2305 219.646 41.8351C221.146 41.4282 222.646 41.5909 224.146 41.7305Z" fill="#FEFEFE"/>
<path d="M208.234 48.4857C210.06 46.695 211.781 45.0322 213.479 43.3229C213.932 42.8694 214.327 42.3345 214.688 41.788C215.932 39.9043 215.699 38.5903 213.862 37.2996C213.13 36.7764 212.339 36.3461 211.572 35.8694C209.897 34.8112 209.897 34.7996 210.932 33.1717C212.013 31.474 212.025 31.4624 213.572 32.7531C214.502 33.5205 215.362 34.3578 216.304 35.1019C218.269 36.6601 218.525 38.6601 217.944 40.9159C217.013 44.5322 215.095 47.7298 213.641 51.1136C213.327 51.8577 212.955 51.5089 212.618 51.288C211.211 50.4275 209.839 49.5205 208.234 48.4857Z" fill="#FEFEFE"/>
<path d="M215.688 24.463C216.723 24.8002 217.502 25.4514 218.002 26.4398C218.502 27.0095 218.328 27.6026 218.084 28.2072C216.642 30.5328 215.328 30.9049 213.281 29.9979C212.223 29.5328 211.502 28.7421 211.456 27.4979C211.409 26.277 212.002 25.4282 213.014 24.8235C213.305 24.6491 213.618 24.4979 213.921 24.3351C214.525 24.1142 215.142 23.8933 215.688 24.463Z" fill="#FEFDFD"/>
<path d="M202.227 51.9865C202.227 42.6609 202.227 33.3353 202.227 24.0098C202.587 24.3819 202.471 24.8586 202.471 25.3005C202.471 33.7656 202.471 42.2307 202.471 50.7074C202.471 51.1377 202.587 51.6144 202.227 51.9865Z" fill="#FE7300"/>
<path d="M220.562 40.4513C222.307 40.4513 224.051 40.4862 225.795 40.4397C226.586 40.4164 226.993 40.5676 226.935 41.4862C226.842 42.8699 226.865 44.2653 226.83 45.6606C226.307 44.9978 226.586 44.2187 226.562 43.4978C226.481 40.428 226.969 40.8932 223.83 40.8467C223.086 40.835 222.342 40.8467 221.586 40.8467C221.202 40.8467 220.783 40.9164 220.562 40.4513Z" fill="#FD7900"/>
<path d="M224.141 41.7297C222.641 41.7646 221.141 41.7879 219.641 41.8228C221.129 41.1484 222.629 41.3693 224.141 41.7297Z" fill="#FE7300"/>
<path d="M236.108 25.5451C235.561 25.5451 235.015 25.5451 234.468 25.5451C234.27 25.5219 234.084 25.4986 233.887 25.4638C233.887 25.4172 233.875 25.3707 233.875 25.3242C234.828 25.3242 235.782 25.3242 236.747 25.3242C236.608 25.6033 236.317 25.4638 236.108 25.5451Z" fill="#FD7A00"/>
<path d="M237.389 49.5445C236.494 49.8352 235.598 49.7421 234.703 49.5212C235.598 49.1491 236.494 49.1259 237.389 49.5445Z" fill="#FD7800"/>
<path d="M245.461 44.4517C245.496 43.5563 245.531 42.661 245.566 41.7656C245.926 42.6842 246.089 43.5796 245.461 44.4517Z" fill="#FD7800"/>
<path d="M218.089 28.2069C218.066 27.6139 218.031 27.0208 218.008 26.4395C218.671 26.986 218.578 27.5906 218.089 28.2069Z" fill="#FD7600"/>
<path d="M215.689 24.4628C215.096 24.4162 214.503 24.3814 213.922 24.3348C214.55 23.8581 215.154 23.7302 215.689 24.4628Z" fill="#FD7700"/>
<path d="M226.867 49.0324C227.46 48.9975 228.053 48.9626 228.646 48.9277C228.088 49.4975 227.483 49.3812 226.867 49.0324Z" fill="#FD7600"/>
<path d="M239.482 45.7075C238.772 44.1029 238.051 42.4866 237.342 40.8819C237.61 40.3471 238.261 40.8587 238.563 40.4401C238.598 40.0447 238.621 39.6494 238.679 39.254C238.83 38.3122 238.412 38.0564 237.505 38.0912C236.063 38.161 234.61 38.0796 233.156 38.1145C231.9 38.1494 232.319 37.2424 232.319 36.6494C232.319 36.0564 231.9 35.1378 233.156 35.1843C234.307 35.2192 235.458 35.1959 236.598 35.1959C238.761 35.1959 238.761 35.1959 238.586 33.0098C238.447 32.8936 238.284 32.8122 238.11 32.7657C235.261 32.6726 232.412 32.754 229.563 32.7192C228.982 32.7075 228.319 32.8587 228.017 32.1145C228.993 30.4866 228.993 30.4866 227.133 29.8354C228.982 29.2192 230.714 28.568 232.551 28.2773C234.144 28.3936 235.737 28.2075 237.33 28.2889C238.737 28.6378 239.737 29.4052 240.005 30.9168C239.784 35.3005 239.982 39.6843 239.9 44.0796C239.935 44.661 240.168 45.3238 239.482 45.7075Z" fill="#FD8001"/>
<path d="M235.934 41.1841C234.911 41.5562 234.097 41.9864 234.713 43.3585C234.981 43.9399 233.306 45.2422 232.62 45.0911C232.388 45.0446 232.26 44.9167 232.283 44.6957C232.423 43.3004 231.981 41.8701 232.551 40.498C233.283 40.6027 234.016 40.5446 234.748 40.5562C235.248 40.5678 235.737 40.6027 235.934 41.1841Z" fill="#FD8002"/>
<path d="M226.855 37.8469C225.553 38.5678 224.157 37.9166 222.773 38.2073C223.89 36.0562 225.413 35.0329 226.82 35.4515C226.657 36.2538 226.599 37.0445 226.855 37.8469Z" fill="#FD8002"/>
<path d="M239.484 45.7069C239.856 45.1139 239.81 44.4627 239.81 43.8115C239.81 40.0557 239.798 36.2883 239.822 32.5325C239.822 31.9976 239.647 31.4162 240.054 30.9395C240.31 36.1488 240.147 41.3697 240.124 46.579C240.124 46.8232 240.124 47.0906 239.845 47.2185L239.798 47.172C239.694 46.6836 239.589 46.1953 239.484 45.7069Z" fill="#FD7700"/>
<path d="M235.938 41.1845C234.915 40.4287 233.555 41.3357 232.555 40.4985C234.555 40.2659 236.566 40.3822 238.578 40.4404C238.334 41.0334 237.787 40.8008 237.357 40.8822C236.88 40.9752 236.415 41.0799 235.938 41.1845Z" fill="#FD7A02"/>
<path d="M238.595 32.7067C238.595 32.8114 238.607 32.9044 238.607 33.009C235.235 33.009 231.851 33.0207 228.479 32.9858C228.247 32.9858 227.27 33.4974 227.747 32.416C230.421 32.7649 233.107 32.4858 235.781 32.5788C236.723 32.6253 237.677 32.4393 238.595 32.7067Z" fill="#FDA76D"/>
<path d="M238.599 32.7063C235.448 32.7063 232.297 32.7179 229.145 32.7063C228.68 32.7063 228.134 32.904 227.75 32.4156C227.855 32.311 227.948 32.2179 228.052 32.1133C229.855 32.7528 231.727 32.2644 233.564 32.4156C235.238 32.5784 236.948 32.1017 238.599 32.7063Z" fill="#FD7C01"/>
<path d="M237.381 28.3013C235.788 28.6269 234.195 28.6501 232.602 28.2896C234.195 28.0106 235.788 27.871 237.381 28.3013Z" fill="#FD7900"/>
<path d="M226.852 37.8465C226.376 37.0558 226.422 36.2535 226.817 35.4512C226.992 36.2419 226.934 37.0442 226.852 37.8465Z" fill="#FD7700"/>
</svg>
