<svg width="305" height="216" viewBox="0 0 305 216" fill="none" xmlns="http://www.w3.org/2000/svg">
<path d="M0 0H305V216H0V0Z" fill="white"/>
<g clip-path="url(#clip0_2744_85051)">
<path d="M167.363 68.1793C168.33 68.1793 169.283 68.2524 170.227 68.3584C167.655 56.1057 154.848 47 140.231 47C123.888 47 110.5 58.3969 110.5 72.8677C110.5 81.2192 114.955 88.0786 122.397 93.3987L119.424 102.551L129.816 97.2174C133.537 97.9693 136.519 98.7447 140.231 98.7447C141.164 98.7447 142.087 98.6978 143.006 98.6224C142.425 96.5905 142.087 94.4597 142.087 92.2509C142.087 78.9634 153.241 68.1793 167.363 68.1793ZM151.38 59.9315C153.619 59.9315 155.101 61.4401 155.101 63.729C155.101 66.0083 153.619 67.5358 151.38 67.5358C149.151 67.5358 146.916 66.0083 146.916 63.729C146.916 61.4401 149.151 59.9315 151.38 59.9315ZM130.573 67.5357C128.343 67.5357 126.095 66.0082 126.095 63.7289C126.095 61.44 128.343 59.9314 130.573 59.9314C132.801 59.9314 134.285 61.44 134.285 63.7289C134.285 66.0083 132.801 67.5357 130.573 67.5357ZM194.5 91.8855C194.5 79.7248 182.605 69.8128 169.247 69.8128C155.101 69.8128 143.961 79.7248 143.961 91.8855C143.961 104.064 155.101 113.955 169.247 113.955C172.206 113.955 175.193 113.195 178.166 112.432L186.322 117L184.085 109.4C190.054 104.818 194.5 98.7447 194.5 91.8855ZM161.048 88.0786C159.568 88.0786 158.075 86.5724 158.075 85.0354C158.075 83.5198 159.568 81.9947 161.048 81.9947C163.296 81.9947 164.769 83.5198 164.769 85.0354C164.769 86.5724 163.296 88.0786 161.048 88.0786ZM177.4 88.0786C175.932 88.0786 174.447 86.5724 174.447 85.0354C174.447 83.5198 175.932 81.9947 177.4 81.9947C179.63 81.9947 181.121 83.5198 181.121 85.0354C181.121 86.5724 179.63 88.0786 177.4 88.0786Z" fill="#20BF64"/>
</g>
<path d="M111.047 158.984L114.998 145.094H116.912L115.805 150.494L111.553 165H109.652L111.047 158.984ZM106.959 145.094L110.104 158.711L111.047 165H109.16L104.334 145.094H106.959ZM122.025 158.697L125.102 145.094H127.74L122.928 165H121.041L122.025 158.697ZM117.199 145.094L121.041 158.984L122.436 165H120.535L116.434 150.494L115.312 145.094H117.199ZM135.984 165.273C134.954 165.273 134.02 165.1 133.182 164.754C132.352 164.398 131.637 163.902 131.035 163.264C130.443 162.626 129.987 161.869 129.668 160.994C129.349 160.119 129.189 159.162 129.189 158.123V157.549C129.189 156.346 129.367 155.275 129.723 154.336C130.078 153.388 130.561 152.586 131.172 151.93C131.783 151.273 132.475 150.777 133.25 150.439C134.025 150.102 134.827 149.934 135.656 149.934C136.714 149.934 137.625 150.116 138.391 150.48C139.165 150.845 139.799 151.355 140.291 152.012C140.783 152.659 141.148 153.424 141.385 154.309C141.622 155.184 141.74 156.141 141.74 157.18V158.314H130.693V156.25H139.211V156.059C139.174 155.402 139.038 154.764 138.801 154.145C138.573 153.525 138.208 153.014 137.707 152.613C137.206 152.212 136.522 152.012 135.656 152.012C135.082 152.012 134.553 152.135 134.07 152.381C133.587 152.618 133.173 152.973 132.826 153.447C132.48 153.921 132.211 154.5 132.02 155.184C131.828 155.867 131.732 156.656 131.732 157.549V158.123C131.732 158.825 131.828 159.486 132.02 160.105C132.22 160.716 132.507 161.254 132.881 161.719C133.264 162.184 133.724 162.548 134.262 162.812C134.809 163.077 135.428 163.209 136.121 163.209C137.014 163.209 137.771 163.027 138.391 162.662C139.01 162.298 139.553 161.81 140.018 161.199L141.549 162.416C141.23 162.899 140.824 163.359 140.332 163.797C139.84 164.234 139.234 164.59 138.514 164.863C137.803 165.137 136.96 165.273 135.984 165.273ZM157.094 158.67H159.719C159.582 159.928 159.222 161.053 158.639 162.047C158.055 163.04 157.23 163.829 156.164 164.412C155.098 164.986 153.767 165.273 152.172 165.273C151.005 165.273 149.943 165.055 148.986 164.617C148.038 164.18 147.223 163.56 146.539 162.758C145.855 161.947 145.327 160.976 144.953 159.846C144.589 158.706 144.406 157.439 144.406 156.045V154.062C144.406 152.668 144.589 151.406 144.953 150.275C145.327 149.136 145.86 148.161 146.553 147.35C147.255 146.538 148.098 145.914 149.082 145.477C150.066 145.039 151.174 144.82 152.404 144.82C153.908 144.82 155.18 145.103 156.219 145.668C157.258 146.233 158.064 147.017 158.639 148.02C159.222 149.013 159.582 150.166 159.719 151.479H157.094C156.966 150.549 156.729 149.751 156.383 149.086C156.036 148.411 155.544 147.892 154.906 147.527C154.268 147.163 153.434 146.98 152.404 146.98C151.52 146.98 150.741 147.149 150.066 147.486C149.401 147.824 148.84 148.302 148.385 148.922C147.938 149.542 147.601 150.285 147.373 151.15C147.145 152.016 147.031 152.978 147.031 154.035V156.045C147.031 157.02 147.132 157.936 147.332 158.793C147.542 159.65 147.856 160.402 148.275 161.049C148.695 161.696 149.228 162.206 149.875 162.58C150.522 162.945 151.288 163.127 152.172 163.127C153.293 163.127 154.186 162.949 154.852 162.594C155.517 162.238 156.018 161.728 156.355 161.062C156.702 160.397 156.948 159.6 157.094 158.67ZM165.461 144V165H162.932V144H165.461ZM164.859 157.043L163.807 157.002C163.816 155.99 163.966 155.056 164.258 154.199C164.549 153.333 164.96 152.581 165.488 151.943C166.017 151.305 166.646 150.813 167.375 150.467C168.113 150.111 168.929 149.934 169.822 149.934C170.551 149.934 171.208 150.034 171.791 150.234C172.374 150.426 172.871 150.736 173.281 151.164C173.701 151.592 174.02 152.148 174.238 152.832C174.457 153.507 174.566 154.331 174.566 155.307V165H172.023V155.279C172.023 154.505 171.91 153.885 171.682 153.42C171.454 152.946 171.121 152.604 170.684 152.395C170.246 152.176 169.708 152.066 169.07 152.066C168.441 152.066 167.867 152.199 167.348 152.463C166.837 152.727 166.395 153.092 166.021 153.557C165.657 154.021 165.37 154.555 165.16 155.156C164.96 155.749 164.859 156.378 164.859 157.043ZM187.076 162.471V154.855C187.076 154.272 186.958 153.766 186.721 153.338C186.493 152.9 186.146 152.563 185.682 152.326C185.217 152.089 184.643 151.971 183.959 151.971C183.321 151.971 182.76 152.08 182.277 152.299C181.803 152.518 181.43 152.805 181.156 153.16C180.892 153.516 180.76 153.898 180.76 154.309H178.23C178.23 153.78 178.367 153.256 178.641 152.736C178.914 152.217 179.306 151.747 179.816 151.328C180.336 150.9 180.956 150.562 181.676 150.316C182.405 150.061 183.216 149.934 184.109 149.934C185.185 149.934 186.133 150.116 186.953 150.48C187.783 150.845 188.43 151.396 188.895 152.135C189.368 152.864 189.605 153.78 189.605 154.883V161.773C189.605 162.266 189.646 162.79 189.729 163.346C189.82 163.902 189.952 164.38 190.125 164.781V165H187.486C187.359 164.708 187.258 164.321 187.186 163.838C187.113 163.346 187.076 162.89 187.076 162.471ZM187.514 156.031L187.541 157.809H184.984C184.264 157.809 183.622 157.868 183.057 157.986C182.492 158.096 182.018 158.264 181.635 158.492C181.252 158.72 180.96 159.007 180.76 159.354C180.559 159.691 180.459 160.087 180.459 160.543C180.459 161.008 180.564 161.432 180.773 161.814C180.983 162.197 181.298 162.503 181.717 162.73C182.145 162.949 182.669 163.059 183.289 163.059C184.064 163.059 184.747 162.895 185.34 162.566C185.932 162.238 186.402 161.837 186.748 161.363C187.104 160.889 187.295 160.429 187.322 159.982L188.402 161.199C188.339 161.582 188.165 162.006 187.883 162.471C187.6 162.936 187.222 163.382 186.748 163.811C186.283 164.23 185.727 164.581 185.08 164.863C184.442 165.137 183.722 165.273 182.92 165.273C181.917 165.273 181.038 165.077 180.281 164.686C179.534 164.294 178.951 163.77 178.531 163.113C178.121 162.448 177.916 161.705 177.916 160.885C177.916 160.092 178.071 159.395 178.381 158.793C178.691 158.182 179.137 157.676 179.721 157.275C180.304 156.865 181.006 156.555 181.826 156.346C182.646 156.136 183.562 156.031 184.574 156.031H187.514ZM199.777 150.207V152.148H191.779V150.207H199.777ZM194.486 146.611H197.016V161.336C197.016 161.837 197.093 162.215 197.248 162.471C197.403 162.726 197.604 162.895 197.85 162.977C198.096 163.059 198.36 163.1 198.643 163.1C198.852 163.1 199.071 163.081 199.299 163.045C199.536 162.999 199.714 162.963 199.832 162.936L199.846 165C199.645 165.064 199.381 165.123 199.053 165.178C198.734 165.242 198.346 165.273 197.891 165.273C197.271 165.273 196.701 165.15 196.182 164.904C195.662 164.658 195.247 164.248 194.938 163.674C194.637 163.09 194.486 162.307 194.486 161.322V146.611Z" fill="black"/>
<defs>
<clipPath id="clip0_2744_85051">
<rect x="110.5" y="40" width="84" height="84" rx="8" fill="white"/>
</clipPath>
</defs>
</svg>
