<svg width="1210" height="1060" viewBox="0 0 1210 1060" fill="none" xmlns="http://www.w3.org/2000/svg">
<path d="M5.89032 1053.3H1061.14C1140.1 1053.3 1204.11 975.902 1204.11 880.432C1204.11 784.962 1140.1 707.568 1061.14 707.568H148.86C67.7513 707.568 2 628.068 2 530C2 431.932 67.7513 352.432 148.86 352.432H1061.14C1140.1 352.432 1204.11 275.038 1204.11 179.568C1204.11 84.0977 1140.1 6.70379 1061.14 6.70379H5.89032V2H1061.14C1142.25 2 1208 81.4999 1208 179.568C1208 277.636 1142.25 357.136 1061.14 357.136H148.86C69.8999 357.136 5.89032 434.53 5.89032 530C5.89032 625.47 69.8999 702.864 148.86 702.864H1061.14C1142.25 702.864 1208 782.364 1208 880.432C1208 978.5 1142.25 1058 1061.14 1058H5.89032" stroke="#DDDDDD" stroke-width="3"/>
</svg>
