<svg width="110" height="110" viewBox="0 0 110 110" fill="none" xmlns="http://www.w3.org/2000/svg">
<rect x="5" y="5" width="100" height="100" rx="50" fill="#74BC1F"/>
<mask id="path-3-inside-1_9608_31721" fill="white">
<path d="M68.4525 51.2266C69.25 52.0241 70.321 52.4571 71.4527 52.4571C72.5844 52.4571 73.6554 52.0165 74.4529 51.2266L83.2713 42.4614C84.0688 41.6639 84.5093 40.6081 84.5093 39.4764C84.5093 38.3447 84.0688 37.2889 83.2713 36.4914L73.9136 27.1945C72.311 25.607 69.5158 25.607 67.9132 27.1945L59.1024 35.9597C58.3049 36.7572 57.8644 37.813 57.8644 38.9447C57.8644 40.0764 58.3049 41.1322 59.1024 41.9297L68.4525 51.2266ZM61.6697 38.5118L70.4881 29.7466C70.64 29.5947 70.8223 29.5719 70.9134 29.5719C71.0046 29.5719 71.1868 29.5947 71.3388 29.7466L80.6964 39.0511C80.8483 39.203 80.8711 39.3853 80.8711 39.4764C80.8711 39.5675 80.8483 39.7498 80.6964 39.9017L71.8856 48.6669C71.7337 48.8188 71.5514 48.8416 71.4603 48.8416C71.3691 48.8416 71.1868 48.8188 71.0349 48.6669L61.6697 39.3701C61.5178 39.2182 61.495 39.0359 61.495 38.9447C61.495 38.8536 61.5178 38.6637 61.6697 38.5118ZM40.1213 60.8045C38.5187 59.2171 35.7159 59.2171 34.1209 60.8045L32.9588 61.959C31.7967 63.1211 30.5662 65.1795 30.1105 66.7518L26.2292 80.0211C25.9026 81.1301 26.0469 82.163 26.6317 82.9378C27.1634 83.6442 28.0141 84.0467 28.9635 84.0467C29.3433 84.0467 29.7459 83.986 30.1484 83.8568L44.0026 79.5958C45.5673 79.1172 47.6257 77.8792 48.7802 76.7323L49.4638 76.0563C50.2613 75.2587 50.7018 74.203 50.7018 73.0712C50.7018 71.9395 50.2613 70.8837 49.4638 70.0862L40.1213 60.8045ZM46.8965 73.5042L46.2129 74.1802C45.4837 74.9093 43.9191 75.8436 42.9316 76.1474L34.645 78.6919L31.508 74.9321L33.6044 67.7696C33.893 66.7898 34.8121 65.2403 35.5336 64.5263L36.6957 63.3718C36.8477 63.2199 37.0299 63.1971 37.1211 63.1971C37.2122 63.1971 37.3945 63.2199 37.5464 63.3718L46.8889 72.6611C47.0408 72.813 47.0636 72.9953 47.0636 73.0864C47.0712 73.1776 47.0484 73.3599 46.8965 73.5042ZM40.7214 27.1945C39.1187 25.607 36.3236 25.607 34.7209 27.1945L25.3709 36.4914C24.5734 37.2889 24.1328 38.3447 24.1328 39.4764C24.1328 40.6081 24.5734 41.6639 25.3709 42.4614L67.9208 84.7683C68.7183 85.5658 69.7893 85.9988 70.921 85.9988C72.0527 85.9988 73.1237 85.5582 73.9212 84.7683L83.2789 75.4638C84.0764 74.6663 84.5169 73.6105 84.5169 72.4788C84.5169 71.3471 84.0764 70.2913 83.2789 69.4938L40.7214 27.1945ZM80.6964 72.9041L71.3464 82.2086C71.1944 82.3605 71.0122 82.3833 70.921 82.3833C70.8299 82.3833 70.6476 82.3605 70.4957 82.2086L27.9457 39.9017C27.7938 39.7498 27.7711 39.5675 27.7711 39.4764C27.7711 39.3853 27.7938 39.203 27.9457 39.0511L37.2958 29.7466C37.4477 29.5947 37.63 29.5719 37.7211 29.5719C37.8123 29.5719 37.9946 29.5947 38.1465 29.7466L39.4149 31.0074L35.0779 35.3293C34.3639 36.0356 34.3639 37.1826 35.0779 37.8889C35.4349 38.2383 35.8982 38.4206 36.3615 38.4206C36.8249 38.4206 37.2958 38.2459 37.6452 37.8889L41.9898 33.5671L44.1013 35.6711L42.2253 37.5396C41.5189 38.2459 41.5189 39.3928 42.2253 40.0992C42.5822 40.4486 43.0456 40.6309 43.5089 40.6309C43.9722 40.6309 44.4431 40.4562 44.7925 40.0992L46.6686 38.2307L48.7802 40.3347L44.4355 44.6565C43.7216 45.3629 43.7216 46.5098 44.4355 47.2162C44.7925 47.5656 45.2559 47.7479 45.7192 47.7479C46.1825 47.7479 46.6458 47.5732 47.0028 47.2162L51.3474 42.8944L53.4666 44.9983L51.5905 46.8668C50.8841 47.5732 50.8841 48.7201 51.5905 49.4265C51.9475 49.7835 52.4108 49.9582 52.8741 49.9582C53.3375 49.9582 53.8084 49.7835 54.1578 49.4265L56.0339 47.558L58.153 49.6619L53.8084 53.9838C53.102 54.6902 53.102 55.8371 53.8084 56.5435C54.1654 56.8928 54.6287 57.0751 55.092 57.0751C55.5553 57.0751 56.0263 56.9004 56.3756 56.5435L60.7203 52.2216L62.8394 54.3256L60.9633 56.1941C60.2569 56.9004 60.2569 58.0474 60.9633 58.7537C61.3203 59.1107 61.7836 59.2854 62.247 59.2854C62.7103 59.2854 63.1812 59.1107 63.5306 58.7537L65.4067 56.8853L67.5182 58.9892L63.1736 63.311C62.4596 64.0174 62.4596 65.1643 63.1736 65.8707C63.5306 66.2277 63.9939 66.4024 64.4572 66.4024C64.9206 66.4024 65.3839 66.2277 65.7409 65.8707L70.0855 61.5489L72.1971 63.6528L70.321 65.5213C69.6146 66.2277 69.6146 67.3746 70.321 68.081C70.678 68.4304 71.1413 68.6127 71.6046 68.6127C72.0679 68.6127 72.5388 68.438 72.8882 68.081L74.7643 66.2125L76.8835 68.3165L72.5388 72.6383C71.8249 73.3447 71.8249 74.4916 72.5388 75.198C72.8958 75.5474 73.3592 75.7297 73.8225 75.7297C74.2858 75.7297 74.7567 75.555 75.1061 75.198L79.4507 70.8761L80.6584 72.0838C80.8103 72.2357 80.8331 72.418 80.8331 72.5092C80.8331 72.6003 80.8483 72.7522 80.6964 72.9041Z"/>
</mask>
<path d="M68.4525 51.2266C69.25 52.0241 70.321 52.4571 71.4527 52.4571C72.5844 52.4571 73.6554 52.0165 74.4529 51.2266L83.2713 42.4614C84.0688 41.6639 84.5093 40.6081 84.5093 39.4764C84.5093 38.3447 84.0688 37.2889 83.2713 36.4914L73.9136 27.1945C72.311 25.607 69.5158 25.607 67.9132 27.1945L59.1024 35.9597C58.3049 36.7572 57.8644 37.813 57.8644 38.9447C57.8644 40.0764 58.3049 41.1322 59.1024 41.9297L68.4525 51.2266ZM61.6697 38.5118L70.4881 29.7466C70.64 29.5947 70.8223 29.5719 70.9134 29.5719C71.0046 29.5719 71.1868 29.5947 71.3388 29.7466L80.6964 39.0511C80.8483 39.203 80.8711 39.3853 80.8711 39.4764C80.8711 39.5675 80.8483 39.7498 80.6964 39.9017L71.8856 48.6669C71.7337 48.8188 71.5514 48.8416 71.4603 48.8416C71.3691 48.8416 71.1868 48.8188 71.0349 48.6669L61.6697 39.3701C61.5178 39.2182 61.495 39.0359 61.495 38.9447C61.495 38.8536 61.5178 38.6637 61.6697 38.5118ZM40.1213 60.8045C38.5187 59.2171 35.7159 59.2171 34.1209 60.8045L32.9588 61.959C31.7967 63.1211 30.5662 65.1795 30.1105 66.7518L26.2292 80.0211C25.9026 81.1301 26.0469 82.163 26.6317 82.9378C27.1634 83.6442 28.0141 84.0467 28.9635 84.0467C29.3433 84.0467 29.7459 83.986 30.1484 83.8568L44.0026 79.5958C45.5673 79.1172 47.6257 77.8792 48.7802 76.7323L49.4638 76.0563C50.2613 75.2587 50.7018 74.203 50.7018 73.0712C50.7018 71.9395 50.2613 70.8837 49.4638 70.0862L40.1213 60.8045ZM46.8965 73.5042L46.2129 74.1802C45.4837 74.9093 43.9191 75.8436 42.9316 76.1474L34.645 78.6919L31.508 74.9321L33.6044 67.7696C33.893 66.7898 34.8121 65.2403 35.5336 64.5263L36.6957 63.3718C36.8477 63.2199 37.0299 63.1971 37.1211 63.1971C37.2122 63.1971 37.3945 63.2199 37.5464 63.3718L46.8889 72.6611C47.0408 72.813 47.0636 72.9953 47.0636 73.0864C47.0712 73.1776 47.0484 73.3599 46.8965 73.5042ZM40.7214 27.1945C39.1187 25.607 36.3236 25.607 34.7209 27.1945L25.3709 36.4914C24.5734 37.2889 24.1328 38.3447 24.1328 39.4764C24.1328 40.6081 24.5734 41.6639 25.3709 42.4614L67.9208 84.7683C68.7183 85.5658 69.7893 85.9988 70.921 85.9988C72.0527 85.9988 73.1237 85.5582 73.9212 84.7683L83.2789 75.4638C84.0764 74.6663 84.5169 73.6105 84.5169 72.4788C84.5169 71.3471 84.0764 70.2913 83.2789 69.4938L40.7214 27.1945ZM80.6964 72.9041L71.3464 82.2086C71.1944 82.3605 71.0122 82.3833 70.921 82.3833C70.8299 82.3833 70.6476 82.3605 70.4957 82.2086L27.9457 39.9017C27.7938 39.7498 27.7711 39.5675 27.7711 39.4764C27.7711 39.3853 27.7938 39.203 27.9457 39.0511L37.2958 29.7466C37.4477 29.5947 37.63 29.5719 37.7211 29.5719C37.8123 29.5719 37.9946 29.5947 38.1465 29.7466L39.4149 31.0074L35.0779 35.3293C34.3639 36.0356 34.3639 37.1826 35.0779 37.8889C35.4349 38.2383 35.8982 38.4206 36.3615 38.4206C36.8249 38.4206 37.2958 38.2459 37.6452 37.8889L41.9898 33.5671L44.1013 35.6711L42.2253 37.5396C41.5189 38.2459 41.5189 39.3928 42.2253 40.0992C42.5822 40.4486 43.0456 40.6309 43.5089 40.6309C43.9722 40.6309 44.4431 40.4562 44.7925 40.0992L46.6686 38.2307L48.7802 40.3347L44.4355 44.6565C43.7216 45.3629 43.7216 46.5098 44.4355 47.2162C44.7925 47.5656 45.2559 47.7479 45.7192 47.7479C46.1825 47.7479 46.6458 47.5732 47.0028 47.2162L51.3474 42.8944L53.4666 44.9983L51.5905 46.8668C50.8841 47.5732 50.8841 48.7201 51.5905 49.4265C51.9475 49.7835 52.4108 49.9582 52.8741 49.9582C53.3375 49.9582 53.8084 49.7835 54.1578 49.4265L56.0339 47.558L58.153 49.6619L53.8084 53.9838C53.102 54.6902 53.102 55.8371 53.8084 56.5435C54.1654 56.8928 54.6287 57.0751 55.092 57.0751C55.5553 57.0751 56.0263 56.9004 56.3756 56.5435L60.7203 52.2216L62.8394 54.3256L60.9633 56.1941C60.2569 56.9004 60.2569 58.0474 60.9633 58.7537C61.3203 59.1107 61.7836 59.2854 62.247 59.2854C62.7103 59.2854 63.1812 59.1107 63.5306 58.7537L65.4067 56.8853L67.5182 58.9892L63.1736 63.311C62.4596 64.0174 62.4596 65.1643 63.1736 65.8707C63.5306 66.2277 63.9939 66.4024 64.4572 66.4024C64.9206 66.4024 65.3839 66.2277 65.7409 65.8707L70.0855 61.5489L72.1971 63.6528L70.321 65.5213C69.6146 66.2277 69.6146 67.3746 70.321 68.081C70.678 68.4304 71.1413 68.6127 71.6046 68.6127C72.0679 68.6127 72.5388 68.438 72.8882 68.081L74.7643 66.2125L76.8835 68.3165L72.5388 72.6383C71.8249 73.3447 71.8249 74.4916 72.5388 75.198C72.8958 75.5474 73.3592 75.7297 73.8225 75.7297C74.2858 75.7297 74.7567 75.555 75.1061 75.198L79.4507 70.8761L80.6584 72.0838C80.8103 72.2357 80.8331 72.418 80.8331 72.5092C80.8331 72.6003 80.8483 72.7522 80.6964 72.9041Z" stroke="white" stroke-width="4.44444" mask="url(#path-3-inside-1_9608_31721)"/>
<rect x="2.77778" y="2.77778" width="104.444" height="104.444" rx="52.2222" stroke="#74BC1F" stroke-opacity="0.5" stroke-width="4.44444"/>
</svg>
