<svg width="110" height="110" viewBox="0 0 110 110" fill="none" xmlns="http://www.w3.org/2000/svg">
<rect x="5" y="5" width="100" height="100" rx="50" fill="#74BC1F"/>
<path d="M45.1248 79.8078C44.8908 79.8078 44.6568 79.7141 44.4696 79.5737H44.4228C41.6147 77.1401 40.0234 73.6299 40.0234 69.8857C40.0234 62.8187 45.7801 57.0152 52.8471 57.0152C59.9142 57.0152 65.6709 62.7719 65.6709 69.8857C65.6709 73.5363 64.1264 76.9996 61.4119 79.4334C61.2247 79.6206 60.8971 79.6673 60.7099 79.6673C60.3822 79.6673 60.1483 79.5269 60.0078 79.3865L59.9611 79.3397L59.9143 79.2929C59.7271 79.1057 59.5867 78.7781 59.6334 78.4973C59.6334 78.2165 59.7739 77.9356 59.9611 77.7484C62.2076 75.6892 63.518 72.8342 63.518 69.7922C63.518 66.984 62.4416 64.2695 60.4291 62.257C58.4166 60.1977 55.7489 59.1213 52.894 59.1213C46.9969 59.1213 42.1763 63.9419 42.1763 69.8389C42.1763 72.9279 43.5336 75.8296 45.8269 77.8889C46.2949 78.2633 46.3417 78.9185 45.9205 79.3865C45.7801 79.6673 45.4992 79.8078 45.1248 79.8078ZM70.3042 59.2149C65.2496 59.2149 61.1311 55.0964 61.1311 50.0417C61.1311 44.9871 65.2496 40.8686 70.3042 40.8686C75.312 40.8686 79.4306 44.9871 79.4306 50.0417C79.3837 55.1431 75.312 59.2149 70.3042 59.2149ZM70.3042 43.0683C66.4664 43.0683 63.2839 46.204 63.2839 50.0886C63.2839 53.9731 66.4196 57.1088 70.3042 57.1088C74.1888 57.1088 77.3245 53.9731 77.3245 50.0886C77.3245 46.204 74.142 43.0683 70.3042 43.0683ZM55.0936 36.7032C52.3323 36.7032 50.1326 34.4567 50.1326 31.7422C50.1326 29.0277 52.3323 26.7812 55.0936 26.7812C57.855 26.7812 60.0546 29.0277 60.0546 31.7422C60.0546 34.4567 57.8549 36.7032 55.0936 36.7032ZM55.0936 28.8873C53.5491 28.8873 52.2855 30.151 52.2855 31.6954C52.2855 33.2399 53.5492 34.5036 55.0936 34.5036C56.6381 34.5036 57.9017 33.2399 57.9017 31.6954C57.9017 30.151 56.638 28.8873 55.0936 28.8873Z" fill="white"/>
<path d="M52.944 75.7317C49.7146 75.7317 47.0938 73.1108 47.0938 69.8814C47.0938 66.6521 49.7146 64.0312 52.944 64.0312C56.1733 64.0312 58.7942 66.6521 58.7942 69.8814C58.7474 73.1108 56.1265 75.7317 52.944 75.7317ZM52.944 66.1841C50.9315 66.1841 49.2467 67.8221 49.2467 69.8814C49.2467 71.9407 50.8847 73.5788 52.9439 73.5788C55.0031 73.5788 56.6413 71.9407 56.6413 69.8814C56.5946 67.869 54.9096 66.1841 52.944 66.1841ZM64.6913 70.9579C64.5041 70.9579 64.3636 70.9111 64.27 70.8643L64.1297 70.8175L64.0828 70.7706C63.8488 70.6303 63.6616 70.3495 63.6616 70.0687C63.6148 69.7878 63.7084 69.507 63.8488 69.273L72.5072 56.9641C72.7412 56.6833 73.0688 56.4961 73.3964 56.4961C73.5836 56.4961 73.724 56.5429 73.8176 56.5897L73.958 56.6365L74.0048 56.6834C74.2388 56.8237 74.4261 57.1045 74.4261 57.3853C74.4728 57.6662 74.3792 57.9469 74.2388 58.181L65.5804 70.4898C65.3933 70.8175 65.0657 70.9579 64.6913 70.9579ZM48.3574 60.053C48.0766 60.053 47.7489 59.9126 47.515 59.6786L47.4681 59.6318C47.3278 59.3978 47.2341 59.1638 47.2341 58.9298C47.2341 58.6022 47.3745 58.3213 47.6554 58.1341L61.4619 47.2761C61.696 47.1357 61.9299 47.0421 62.1171 47.0421C62.398 47.0421 62.7256 47.1825 62.9596 47.4165L63.0064 47.4633L63.0532 47.5102C63.1936 47.7441 63.2872 47.9781 63.2872 48.2122C63.2872 48.5398 63.1468 48.8206 62.866 49.0078L49.0126 59.8189C48.7786 60.0062 48.5446 60.053 48.3574 60.053V60.053ZM70.3075 53.9688C68.1546 53.9688 66.3761 52.1903 66.3761 50.0374C66.3761 47.8845 68.1546 46.1061 70.3075 46.1061C72.4604 46.1061 74.2388 47.8846 74.2388 50.0374C74.2388 52.1903 72.4603 53.9688 70.3075 53.9688ZM70.3075 48.3057C69.3246 48.3057 68.5758 49.1014 68.5758 50.0374C68.5758 50.9734 69.3714 51.7691 70.3075 51.7691C71.2903 51.7691 72.0392 50.9735 72.0392 50.0374C72.0392 49.1014 71.2435 48.3057 70.3075 48.3057ZM74.7536 36.9329C71.852 36.9329 69.5118 34.5928 69.5118 31.6911C69.5118 28.8362 71.852 26.4961 74.7536 26.4961C77.6553 26.4961 79.9954 28.8362 79.9954 31.7379C79.9954 34.5928 77.6554 36.9329 74.7536 36.9329ZM74.7536 28.6489C73.0688 28.6489 71.6647 30.053 71.6647 31.7379C71.6647 33.4228 73.0688 34.8268 74.7536 34.8268C76.4385 34.8268 77.8426 33.4228 77.8426 31.7379C77.8426 30.053 76.4385 28.649 74.7536 28.649V28.6489Z" fill="white"/>
<path d="M77.6515 47.9337C77.0431 47.9337 76.5751 47.4657 76.5751 46.8105L77.3707 33.7528C77.3707 33.1912 77.8387 32.7231 78.4472 32.7231C78.7748 32.7231 79.0556 32.8635 79.2428 33.0976C79.43 33.3316 79.5236 33.6124 79.4768 33.8932L78.6812 46.9041C78.728 47.5126 78.26 47.9337 77.6515 47.9337ZM67.6359 43.0663C67.4019 43.0663 67.168 42.9728 67.1211 42.926H67.0275C66.7935 42.7856 66.6531 42.5515 66.5595 42.3175C66.4659 42.0367 66.5127 41.7091 66.6531 41.4751L70.4909 34.7357C70.6313 34.408 71.0525 34.174 71.4269 34.174C71.6609 34.174 71.8949 34.2676 71.9417 34.3144H72.0353C72.2693 34.4548 72.4097 34.6888 72.5033 34.9228C72.597 35.2037 72.5501 35.5312 72.4097 35.7653L68.572 42.5047C68.3379 42.8791 68.0104 43.0663 67.6359 43.0663ZM58.2287 30.1958C57.6671 30.1958 57.1523 29.7278 57.1523 29.1195C57.1523 28.5578 57.6203 28.043 58.2287 28.043H70.6313C71.1929 28.043 71.7077 28.511 71.7077 29.1194C71.7077 29.681 71.2397 30.1958 70.6313 30.1958H58.2288H58.2287Z" fill="white"/>
<path d="M59.1665 34.6419C58.6049 34.6419 58.0901 34.1738 58.0901 33.5654C58.0901 33.0038 58.5581 32.489 59.1665 32.489H70.2117C70.7734 32.489 71.2882 32.957 71.2882 33.5654C71.2882 34.1271 70.8202 34.6418 70.2117 34.6418H59.1666L59.1665 34.6419ZM46.8109 32.5826C46.2492 32.5826 45.7344 32.1146 45.7344 31.5062C45.7344 30.9445 46.2024 30.4297 46.8108 30.4297H50.7422C51.3038 30.4297 51.8186 30.8977 51.8186 31.5062C51.8186 32.0678 51.3506 32.5825 50.7422 32.5825H46.8108L46.8109 32.5826Z" fill="white"/>
<path d="M30.8968 84.9064C30.3352 84.9064 29.8203 84.4384 29.8203 83.83V78.8689C29.8203 78.3073 30.2884 77.7926 30.8968 77.7926H75.2181C75.7797 77.7926 76.2945 78.2605 76.2945 78.8689V83.8299C76.2945 84.3916 75.8265 84.9064 75.2181 84.9064H30.8968ZM74.0949 82.7068V79.8518H31.9732V82.7067L74.0949 82.7068ZM41.2868 38.2917C39.8359 38.2917 38.4787 37.8237 37.2618 36.9812C36.981 36.794 36.8406 36.5132 36.8406 36.1856C36.8406 35.9516 36.8406 35.6707 37.1214 35.3899C37.3087 35.2028 37.5427 35.0155 37.9638 35.0155C38.1979 35.0155 38.4787 35.1091 38.6191 35.2496C39.4615 35.8579 40.3508 36.1388 41.3336 36.1388C43.8141 36.1388 45.7798 34.1263 45.7798 31.6926C45.7798 29.2121 43.7205 27.1528 41.2868 27.1528C40.2103 27.1528 39.2275 27.4804 38.4319 28.1356C38.1979 28.3697 37.9171 28.3697 37.7766 28.3697C37.449 28.3697 37.1214 28.1825 36.9342 27.9484C36.7938 27.7145 36.7002 27.4804 36.7002 27.2465C36.7002 26.9188 36.8406 26.638 37.1214 26.4508C38.2915 25.468 39.7423 25 41.3336 25C44.9841 25 47.9795 27.9953 47.9795 31.6459C47.8859 35.2964 44.8906 38.2917 41.2868 38.2917Z" fill="white"/>
<rect x="2.77778" y="2.77778" width="104.444" height="104.444" rx="52.2222" stroke="#74BC1F" stroke-opacity="0.5" stroke-width="4.44444"/>
</svg>
