<svg width="110" height="110" viewBox="0 0 110 110" fill="none" xmlns="http://www.w3.org/2000/svg">
<rect x="5" y="5" width="100" height="100" rx="50" fill="#74BC1F"/>
<path d="M64.2623 72.2856L64.2478 72.8822L64.2295 73.6398L64.33 73.6391L65.1164 73.6338L65.6733 73.6301L65.6738 73.63L70.9175 73.5946C70.9176 73.5946 70.9176 73.5946 70.9176 73.5946C71.0573 73.5936 71.1949 73.5744 71.3274 73.5383L71.1778 72.4422M64.2623 72.2856L72.0845 73.0813L71.8844 73.2612C71.7192 73.3888 71.5304 73.4827 71.3294 73.5377L71.1778 72.4422M64.2623 72.2856L64.7575 72.3533M64.2623 72.2856L64.2623 72.2853L64.7575 72.3533M71.1778 72.4422L65.6159 73.2117M71.1778 72.4422C71.6489 72.3779 72.086 72.1611 72.4222 71.825L85.4368 58.808L65.6159 73.2117M72.643 73.7024C72.5586 73.7459 72.4726 73.7862 72.3851 73.8233L72.9607 74.5349M72.643 73.7024L71.4062 74.0931C71.7283 74.0489 72.0413 73.9643 72.3384 73.8428L72.9607 74.5349M72.643 73.7024L73.2375 74.286M72.643 73.7024L73.2375 74.286M72.9607 74.5349L73.2375 74.286M72.9607 74.5349C72.3892 74.9971 71.673 75.2561 70.9289 75.2612L73.2375 74.286M73.2375 74.286L79.2051 68.2072V67.3981L73.6009 73.0034L73.6005 73.0038C73.3303 73.2739 73.0233 73.5003 72.6905 73.6776L73.2375 74.286ZM65.6159 73.2117C65.4994 73.2277 65.3808 73.2165 65.2694 73.179C65.158 73.1415 65.0567 73.0787 64.9736 72.9956C64.8904 72.9125 64.8277 72.8112 64.7902 72.6998C64.7527 72.5883 64.7415 72.4698 64.7575 72.3533M65.6159 73.2117L65.5194 66.7812L64.7575 72.3533M82.1369 48.1306L82.5384 47.7217V47.0403V34.6822C82.5384 33.1292 82.2326 31.5915 81.6383 30.1568C81.044 28.7221 80.1729 27.4184 79.0749 26.3203C77.9768 25.2223 76.6731 24.3512 75.2384 23.7569C73.8037 23.1626 72.266 22.8568 70.713 22.8568H40.2369C37.1006 22.8568 34.0927 24.1027 31.875 26.3203C29.6573 28.538 28.4115 31.5459 28.4115 34.6822V75.3171C28.4115 78.4534 29.6573 81.4612 31.875 83.6789C34.0927 85.8966 37.1006 87.1425 40.2369 87.1425H70.713C72.266 87.1425 73.8037 86.8366 75.2384 86.2423C76.6731 85.648 77.9768 84.777 79.0749 83.6789C80.1729 82.5808 81.044 81.2772 81.6383 79.8425C82.2326 78.4077 82.5384 76.87 82.5384 75.3171V66.5095V64.0641L86.6153 59.9865L86.6182 59.9894L87.7967 58.8076L88.6909 57.9109C88.6912 57.9106 88.6914 57.9104 88.6917 57.9101C89.0824 57.5196 89.3924 57.056 89.6039 56.5456C89.8156 56.035 89.9246 55.4876 89.9246 54.9349C89.9246 54.3821 89.8156 53.8347 89.6039 53.3241L88.0643 53.9623L89.6039 53.3241C89.3922 52.8134 89.082 52.3495 88.6909 51.9589L85.9995 49.2675L85.9993 49.2673C85.2105 48.4787 84.1408 48.0357 83.0254 48.0357C82.7244 48.0357 82.4267 48.068 82.1369 48.1306ZM63.2105 73.2312C63.2619 73.3838 63.3281 73.5305 63.408 73.6691L63.1062 72.1275C63.0554 72.4985 63.0911 72.8762 63.2105 73.2312ZM80.8718 66.5095H80.0936L80.8718 34.6822C80.8718 33.3481 80.609 32.0271 80.0985 30.7946C79.588 29.5621 78.8397 28.4422 77.8963 27.4989C76.953 26.5555 75.8331 25.8072 74.6006 25.2967C73.3681 24.7862 72.0471 24.5234 70.713 24.5234H40.2369C37.5426 24.5234 34.9587 25.5937 33.0535 27.4989C31.1484 29.404 30.0781 31.9879 30.0781 34.6822V75.3171C30.0781 78.0113 31.1484 80.5953 33.0535 82.5004C34.9587 84.4055 37.5426 85.4758 40.2369 85.4758H70.713C72.0471 85.4758 73.3681 85.2131 74.6006 84.7025C75.8331 84.192 76.953 83.4437 77.8963 82.5004C78.8397 81.5571 79.588 80.4372 80.0985 79.2047C80.609 77.9721 80.8718 76.6511 80.8718 75.3171V68.8885L82.0611 67.677L80.8718 66.5095ZM42.1099 68.2584L40.8318 69.3281L42.1099 68.2584C41.9671 68.0877 41.8948 67.869 41.9078 67.6469C41.9209 67.4247 42.0182 67.216 42.18 67.0632C42.3414 66.9109 42.5547 66.8257 42.7765 66.825C42.7766 66.825 42.7766 66.825 42.7766 66.825C42.7772 66.825 42.7778 66.825 42.7784 66.825L50.3953 66.825C50.3954 66.825 50.3955 66.825 50.3956 66.825C50.627 66.8251 50.8489 66.9171 51.0125 67.0808C51.1762 67.2445 51.2682 67.4665 51.2682 67.698C51.2682 67.9296 51.1762 68.1516 51.0125 68.3153C50.8489 68.479 50.627 68.5709 50.3956 68.5711C50.3955 68.5711 50.3954 68.5711 50.3953 68.5711H42.8264L42.6405 68.5599C42.4335 68.5266 42.245 68.4197 42.1099 68.2584ZM42.7784 54.1266H60.5543C60.7859 54.1266 61.0079 54.2186 61.1716 54.3823C61.3354 54.546 61.4273 54.7681 61.4273 54.9996C61.4273 55.2312 61.3353 55.4532 61.1716 55.6169C61.0079 55.7807 60.7859 55.8726 60.5543 55.8726H42.8264L42.6404 55.8615C42.4335 55.8282 42.245 55.7213 42.1099 55.56C41.9671 55.3893 41.8948 55.1706 41.9078 54.9485C41.9209 54.7263 42.0182 54.5176 42.18 54.3648C42.3418 54.2121 42.5559 54.1269 42.7784 54.1266ZM42.7784 41.4282L68.1731 41.4282C68.1732 41.4282 68.1733 41.4282 68.1734 41.4282C68.4048 41.4283 68.6267 41.5203 68.7903 41.6839C68.954 41.8477 69.046 42.0697 69.046 42.3012C69.046 42.5327 68.954 42.7548 68.7903 42.9185C68.6267 43.0821 68.4048 43.1741 68.1734 43.1742C68.1733 43.1742 68.1732 43.1742 68.1731 43.1742H42.8263L42.6405 43.1631C42.4335 43.1298 42.245 43.0229 42.1099 42.8615C41.9671 42.6909 41.8948 42.4722 41.9078 42.2501C41.9209 42.0279 42.0182 41.8192 42.18 41.6664C42.3416 41.5139 42.5552 41.4287 42.7773 41.4282C42.7777 41.4282 42.778 41.4282 42.7784 41.4282Z" stroke="white" stroke-width="3.33333"/>
<rect x="2.77778" y="2.77778" width="104.444" height="104.444" rx="52.2222" stroke="#74BC1F" stroke-opacity="0.5" stroke-width="4.44444"/>
</svg>
