<svg width="110" height="110" viewBox="0 0 110 110" fill="none" xmlns="http://www.w3.org/2000/svg">
<rect x="5" y="5" width="100" height="100" rx="50" fill="#74BC1F"/>
<path d="M64.4882 72.8997H46.5869V81.8504H30.4758V85.4306H80.5993V81.8504H64.4882V72.8997ZM80.9573 24.5664H30.1178C27.4326 24.5664 25.1055 26.7146 25.1055 29.5788V62.696C25.1055 65.3812 27.4326 67.7084 30.1178 67.7084H80.7783C83.6425 67.7084 85.7907 65.5602 85.7907 62.696V29.5788C85.9697 26.7146 83.6425 24.5664 80.9573 24.5664ZM82.5684 62.517C82.5684 63.4121 81.8524 64.1281 80.9573 64.1281H30.1178C29.2228 64.1281 28.5067 63.4121 28.5067 62.517V29.5788C28.5067 28.6837 29.2228 27.9676 30.1178 27.9676H80.7783C81.6734 27.9676 82.3894 28.6837 82.3894 29.5788V62.517H82.5684Z" fill="white"/>
<path d="M62.1627 51.0599C63.5948 49.4488 64.4899 47.4796 64.4899 45.1525H60.9096C60.9096 48.1957 58.5825 50.5229 55.5393 50.5229C52.496 50.5229 50.1689 48.1957 50.1689 45.1525C50.1689 42.1093 52.496 39.7821 55.5393 39.7821V36.2019C53.2121 36.2019 51.0639 37.0969 49.4528 38.708L42.4714 31.7266H32.8047V35.3068H41.0393L47.4837 41.7513C46.9467 42.8253 46.7676 44.0784 46.7676 45.1525C46.7676 50.1648 50.7059 54.1031 55.7183 54.1031C57.1504 54.1031 58.4034 53.7451 59.4775 53.208L66.638 60.3685H77.7368V56.7883H68.2491L62.1627 51.0599Z" fill="white"/>
<path d="M32.8047 44.2574H41.7553V47.8377H32.8047V44.2574ZM32.8047 56.7883H43.5454V60.3685H32.8047V56.7883ZM61.4467 35.4858C61.0886 35.3068 60.7306 35.3068 60.5516 35.3068C58.5825 35.3068 56.9714 36.9179 56.9714 38.8871C56.9714 40.8562 58.5825 42.4673 60.5516 42.4673C62.5207 42.4673 64.1318 40.8562 64.1318 38.8871C64.1318 38.529 64.1318 38.35 63.9528 37.992L66.638 35.3068H77.5578V31.7266H65.2059L61.4467 35.4858Z" fill="white"/>
<rect x="2.77778" y="2.77778" width="104.444" height="104.444" rx="52.2222" stroke="#74BC1F" stroke-opacity="0.5" stroke-width="4.44444"/>
</svg>
