<svg width="110" height="110" viewBox="0 0 110 110" fill="none" xmlns="http://www.w3.org/2000/svg">
<rect x="5" y="5" width="100" height="100" rx="50" fill="#74BC1F"/>
<path d="M74.3746 66.7126H74.4999C75.2513 66.7126 75.8566 67.3176 75.8566 68.0694V81.7407C75.8566 82.492 75.2513 83.0975 74.4999 83.0975H74.3746C73.6232 83.0975 73.0179 82.4921 73.0179 81.7407V68.0694C73.0179 67.3388 73.6232 66.7126 74.3746 66.7126ZM82.6194 74.8529V74.9779C82.6194 75.7294 82.0142 76.3347 81.2626 76.3347H67.591C66.8398 76.3347 66.2342 75.7294 66.2342 74.9779V74.8529C66.2342 74.1014 66.8397 73.4961 67.591 73.4961H81.2626C82.0142 73.4961 82.6194 74.1014 82.6194 74.8529H82.6194ZM52.2601 38.5447C57.1753 38.5447 63.7294 40.0788 63.7294 53.3331C63.7294 54.4187 64.6272 55.3161 65.7125 55.3161C66.7979 55.3161 67.6955 54.4188 67.6955 53.3331C67.6955 37.8456 59.3256 34.6207 52.3018 34.6207C45.2784 34.6207 36.9083 37.8767 36.9083 53.3331C36.9083 59.8767 39.9139 66.2013 44.5999 69.7494V70.0416C34.1845 71.5344 27.5469 75.7817 27.5469 81.0415C27.5469 82.1269 28.4445 83.0247 29.5298 83.0247C30.6152 83.0247 31.5127 82.1269 31.5127 81.0415C31.5127 78.2657 37.2318 74.7485 46.8123 73.6944C47.8038 73.6005 48.5654 72.7343 48.5654 71.7427V68.7058C48.5654 68.0379 48.2106 67.4328 47.6678 67.0467C43.6083 64.3956 40.8634 58.8749 40.8634 53.3124C40.8323 40.0373 47.3447 38.5449 52.2601 38.5449V38.5447ZM76.6289 48.1566L74.1346 47.5201C73.3413 36.1549 63.8233 27.1484 52.2601 27.1484C40.4775 27.1484 30.8655 36.4785 30.3541 48.1253L28.8829 49.3672C28.4339 49.7532 28.1835 50.296 28.1835 50.8699V58.6657C28.1835 59.7511 29.0812 60.6488 30.1666 60.6488C31.2519 60.6488 32.1495 59.7511 32.1495 58.6657V51.7987L33.6209 50.5881C34.0697 50.202 34.3201 49.6594 34.3201 49.0854C34.3201 39.1501 42.3978 31.1036 52.3019 31.1036C62.206 31.1036 70.2838 39.1813 70.2838 49.0854C70.2838 49.983 70.8892 50.7761 71.7866 51.0057L74.2496 51.6111V58.6974C74.2496 59.7828 75.1471 60.6802 76.2326 60.6802C77.3179 60.6802 78.2154 59.7828 78.2154 58.6974V50.077C78.1318 49.1483 77.5266 48.3445 76.6291 48.1566H76.6289ZM69.2504 56.2031C68.8957 57.2573 65.6081 59.9391 54.5874 59.9391C53.5021 59.9391 52.6045 60.8368 52.6045 61.9223C52.6045 63.0075 53.5022 63.9049 54.5874 63.9049C71.3482 63.9049 72.9866 58.0608 73.1432 56.8814L71.1918 56.631L69.2506 56.203L69.2504 56.2031ZM59.9932 69.9998V68.6849C59.9932 67.5993 59.0959 66.7019 58.0104 66.7019C56.9251 66.7019 56.0274 67.5993 56.0274 68.6849V71.7217C56.0274 72.7135 56.7891 73.5691 57.7806 73.6735C58.8034 73.7987 59.7948 73.9239 60.7237 74.0908V70.0937C60.5048 70.0937 60.2439 70.0625 59.9932 69.9997L59.9932 69.9998Z" fill="white"/>
<rect x="2.77778" y="2.77778" width="104.444" height="104.444" rx="52.2222" stroke="#74BC1F" stroke-opacity="0.5" stroke-width="4.44444"/>
</svg>
