<svg width="110" height="110" viewBox="0 0 110 110" fill="none" xmlns="http://www.w3.org/2000/svg">
<rect x="5" y="5" width="100" height="100" rx="50" fill="#74BC1F"/>
<path d="M62.332 51.8613C62.6141 50.3553 63.0535 48.8809 63.6015 47.1155C63.9474 46.001 64.8238 45.5697 65.8951 45.1038C66.3498 44.9078 66.8169 44.7416 67.2932 44.6062C67.2053 51.6336 73.7134 51.6336 73.6256 44.6062C74.1018 44.7416 74.5687 44.9079 75.0234 45.1038C76.0952 45.5696 76.9713 46.0013 77.3177 47.1155C77.8651 48.8809 78.3043 50.3552 78.5873 51.8613H62.332ZM72.9545 41.4194C72.4092 41.4351 71.7953 41.3851 71.1057 41.2924C71.0501 41.009 70.8195 40.7921 70.4979 40.7921C70.1759 40.792 69.8775 41.07 69.8775 41.4141C69.8775 41.7556 70.2115 42.0336 70.4979 42.0336C70.784 42.0335 70.929 41.9092 71.0361 41.7212C71.6069 41.7979 72.1336 41.8456 72.617 41.8509H72.6175C71.9652 42.6158 71.2128 43.1162 70.4603 43.1162C69.4984 43.1159 68.5365 42.3008 67.7838 41.1547C67.1655 40.2151 66.6972 39.0612 66.4815 37.9414C66.4684 37.3749 67.0419 36.9912 67.5037 36.1865C67.5197 36.991 67.4685 37.1977 67.2906 37.9546C68.1779 37.841 69.156 36.6948 69.5302 35.6387C69.6554 36.4856 69.7059 36.9172 69.5687 37.772C70.8924 38.0181 72.3657 38.0314 73.6856 37.8195C73.9482 37.4148 74.1715 36.9223 74.3374 36.4777C74.4373 36.8906 74.5599 37.4121 74.3885 38.1797C74.1559 39.2252 73.7114 40.2814 73.1366 41.1547C73.0771 41.2446 73.0166 41.3347 72.9545 41.4194ZM76.4809 38.9444C77.9595 39.0398 79.3246 37.0415 78.0431 35.5592C77.6434 35.0959 77.2283 34.9478 76.6679 34.8471C74.829 28.5979 66.0898 28.5979 64.251 34.8471C63.6906 34.9477 63.2753 35.0959 62.8757 35.5592C61.5267 37.1208 63.111 39.2515 64.6731 38.9101C64.9701 38.8467 65.1478 38.5475 65.0641 38.2563C64.4112 35.988 64.9389 33.6374 66.862 32.1184C68.9729 30.4507 71.9459 30.4507 74.0561 32.1184C75.9805 33.6374 76.5081 35.988 75.8546 38.2563C75.824 38.362 75.8275 38.4747 75.8647 38.5783C75.9019 38.682 75.9708 38.7712 76.0617 38.8334C75.9768 39.1351 75.8806 39.4049 75.7731 39.6459C75.6842 39.3468 75.624 39.0238 75.5957 38.6744C75.5398 37.9808 75.7446 37.2929 75.7446 36.5728C75.7446 33.6559 73.3773 31.2898 70.4598 31.2898C67.5419 31.2897 65.1743 33.6561 65.1743 36.5728C65.1743 37.2928 65.3794 37.9811 65.323 38.6744C65.2188 39.9556 64.6985 40.8502 63.872 41.676C64.8717 42.6633 66.1229 43.1848 67.9648 42.7373C69.5787 44.3732 71.3406 44.3732 72.9545 42.7373C74.796 43.1847 76.047 42.6633 77.0467 41.676C76.5928 41.2232 76.231 40.7471 75.9803 40.199H75.9805C76.1773 39.8497 76.3437 39.4343 76.4809 38.9444Z" fill="white"/>
<path d="M44.0689 55.032C42.3391 54.8149 40.7018 54.7886 39.8839 54.7886C39.0501 54.7886 37.3649 54.8152 35.5973 55.0453C34.2231 54.4499 29.9695 49.405 29.9695 42.2928C29.9695 36.8161 34.4088 32.3776 39.8839 32.3776C45.3598 32.3776 49.7983 36.8165 49.7983 42.2928C49.7983 49.4499 45.4378 54.4392 44.0689 55.0321V55.032ZM55.3076 25.3633H85.6149C87.6569 25.3633 89.3298 27.0362 89.3298 29.0768V52.941C89.3298 54.9816 87.6538 56.6573 85.6149 56.6573H55.3076C53.2622 56.6573 51.593 54.9873 51.593 52.941V48.5366C52.5656 48.571 53.4775 48.3064 54.268 47.8352V52.9411C54.268 53.5103 54.7384 53.9814 55.3076 53.9814C65.4103 53.9812 75.5123 53.9814 85.6148 53.9814C85.7515 53.9818 85.887 53.9551 86.0133 53.903C86.1397 53.8509 86.2545 53.7742 86.3512 53.6776C86.4479 53.5809 86.5244 53.4661 86.5766 53.3397C86.6287 53.2133 86.6553 53.0778 86.6549 52.9411V29.0768C86.6549 28.5051 86.1882 28.0366 85.6148 28.0366H55.3076C54.7386 28.0366 54.2681 28.5079 54.2681 29.0768V38.1954C53.8995 37.9889 53.5086 37.8327 53.0852 37.711C52.6871 36.6019 52.1826 35.5935 51.5931 34.6829V29.0768C51.593 27.0307 53.2618 25.3633 55.3076 25.3633ZM79.8342 61.366C80.2264 61.366 80.5587 61.0351 80.5587 60.6409L80.5589 58.6398C80.5589 58.2481 80.227 57.9147 79.8341 57.9147L61.0883 57.9146C60.6956 57.9146 60.3637 58.2481 60.3637 58.6399V60.6407C60.3637 61.0352 60.6954 61.3661 61.0883 61.3661H79.8342V61.366ZM29.2709 46.5595C29.3792 46.4321 29.4542 46.2798 29.4893 46.1163C29.5243 45.9528 29.5182 45.7831 29.4716 45.6226C28.2121 41.2445 29.2303 36.7131 32.9421 33.7803C37.0146 30.5617 42.7535 30.5617 46.8262 33.7803C50.5381 36.7131 51.5571 41.2445 50.2972 45.6226C50.1351 46.1862 50.4783 46.7632 51.0505 46.8875C54.0658 47.5465 57.1232 43.4308 54.5191 40.4187C53.7484 39.5267 52.9472 39.2355 51.8658 39.0449C48.3171 26.983 31.451 26.9832 27.9026 39.0449C26.8212 39.2353 26.0197 39.5266 25.249 40.4187C22.8452 43.2002 25.2666 46.9195 28.0245 46.9565C28.364 46.9617 29.0508 46.8161 29.2706 46.5594H29.2709V46.5595ZM31.5288 58.7666C28.5827 59.6111 24.7439 60.9188 24.256 62.4938C22.6251 67.7555 21.8877 76.4823 21.7854 82.2447C21.7794 82.5968 21.9003 82.8985 22.1461 83.1498C22.3917 83.3986 22.6938 83.5257 23.0442 83.5257H56.724C57.0746 83.5257 57.3765 83.3986 57.6221 83.1498C57.8678 82.8981 57.9886 82.5968 57.9823 82.2447C57.8806 76.4822 57.1435 67.7558 55.5134 62.4938C55.0252 60.9187 51.1863 59.6111 48.2398 58.7669C48.7297 57.9382 45.7411 56.6387 39.8839 56.6387C34.0266 56.6387 31.038 57.941 31.5288 58.7669V58.7666H31.5288Z" fill="white"/>
<rect x="2.77778" y="2.77778" width="104.444" height="104.444" rx="52.2222" stroke="#74BC1F" stroke-opacity="0.5" stroke-width="4.44444"/>
</svg>
