<svg width="110" height="110" viewBox="0 0 110 110" fill="none" xmlns="http://www.w3.org/2000/svg">
<rect x="5" y="5" width="100" height="100" rx="50" fill="#74BC1F"/>
<g clip-path="url(#clip0_9608_31790)">
<path d="M43.7454 35.8033L42.0398 34.0977L36.4355 39.7019L32.6588 35.9251L30.9531 37.6308L36.4355 43.1132L38.1412 41.4075L43.7454 35.8033Z" fill="white"/>
<path d="M82.3697 48.4729V48.3511H82.2479L76.7655 42.2595H66.5316V41.0412C66.5316 37.6299 63.8513 34.9496 60.4401 34.9496H50.2062C48.6224 29.3454 43.5055 25.2031 37.2921 25.2031C29.8604 25.2031 23.8906 31.1729 23.8906 38.6046C23.8906 43.356 26.3273 47.4983 29.9822 49.8131V69.0625C29.9822 72.4737 32.6625 75.154 36.0738 75.154H37.2921C37.2921 79.9055 41.0689 83.6822 45.8203 83.6822C50.5717 83.6822 54.3485 79.9055 54.3485 75.154H66.5316C66.5316 79.9055 70.3084 83.6822 75.0598 83.6822C79.8113 83.6822 83.5881 79.9055 83.5881 75.154H87.243V53.9554L82.3697 48.4729ZM84.8064 58.0976H73.8415C71.7704 58.0976 70.1866 56.5138 70.1866 54.4427C70.1866 52.3715 71.7704 50.7877 73.8415 50.7877H81.1514L84.8064 54.93V58.0976ZM26.3273 38.6046C26.3273 32.513 31.2005 27.6398 37.2921 27.6398C43.3837 27.6398 48.2569 32.513 48.2569 38.6046C48.2569 44.6962 43.3837 49.5694 37.2921 49.5694C31.2005 49.5694 26.3273 44.6962 26.3273 38.6046ZM45.8203 81.2456C42.409 81.2456 39.7287 78.5653 39.7287 75.154C39.7287 71.7427 42.409 69.0625 45.8203 69.0625C49.2316 69.0625 51.9119 71.7427 51.9119 75.154C51.9119 78.5653 49.2316 81.2456 45.8203 81.2456ZM53.983 72.7174C53.0083 69.1843 49.7189 66.6258 45.8203 66.6258C41.9217 66.6258 38.6322 69.1843 37.6576 72.7174H36.0738C34.0026 72.7174 32.4188 71.1336 32.4188 69.0625V51.0314C33.8808 51.6406 35.5864 52.0061 37.2921 52.0061C44.7238 52.0061 50.6936 46.0363 50.6936 38.6046C50.6936 38.2391 50.6936 37.7518 50.5717 37.3863H60.4401C62.5112 37.3863 64.095 38.9701 64.095 41.0412V72.7174H53.983ZM75.0598 81.2456C71.6486 81.2456 68.9683 78.5653 68.9683 75.154C68.9683 71.7427 71.6486 69.0625 75.0598 69.0625C78.4711 69.0625 81.1514 71.7427 81.1514 75.154C81.1514 78.5653 78.4711 81.2456 75.0598 81.2456ZM83.2226 72.7174C82.2479 69.1843 78.9585 66.6258 75.0598 66.6258C71.1612 66.6258 67.8718 69.1843 66.8971 72.7174H66.5316V44.6962H75.7908L78.9585 48.3511H73.8415C70.4302 48.3511 67.75 51.0314 67.75 54.4427C67.75 57.854 70.4302 60.5343 73.8415 60.5343H84.8064V72.7174H83.2226Z" fill="white"/>
</g>
<rect x="2.77778" y="2.77778" width="104.444" height="104.444" rx="52.2222" stroke="#74BC1F" stroke-opacity="0.5" stroke-width="4.44444"/>
<defs>
<clipPath id="clip0_9608_31790">
<rect width="63.3333" height="63.3333" fill="white" transform="translate(23.8906 22.7773)"/>
</clipPath>
</defs>
</svg>
