<svg width="110" height="110" viewBox="0 0 110 110" fill="none" xmlns="http://www.w3.org/2000/svg">
<rect x="5" y="5" width="100" height="100" rx="50" fill="#74BC1F"/>
<g clip-path="url(#clip0_9608_31770)">
<path d="M30.1486 42.0494H80.9932V35.5885C80.9647 34.5447 80.5229 33.555 79.765 32.8368C79.007 32.1186 77.9949 31.7308 76.9511 31.7585H34.1907C33.1469 31.7308 32.1348 32.1186 31.3768 32.8368C30.6189 33.555 30.1771 34.5447 30.1486 35.5885V42.0523V42.0494ZM30.1486 46.6749V73.2992C30.1771 74.343 30.6189 75.3328 31.3768 76.0509C32.1348 76.7691 33.1469 77.157 34.1907 77.1292H76.9511C77.9949 77.157 79.007 76.7691 79.765 76.0509C80.5229 75.3328 80.9647 74.343 80.9932 73.2992V46.6719H30.1486V46.6749ZM34.1907 27.9285H76.9511C79.0382 27.8738 81.0616 28.6499 82.5769 30.0862C84.0922 31.5224 84.9754 33.5015 85.0324 35.5885V73.2992C84.9754 75.3863 84.0922 77.3653 82.5769 78.8016C81.0616 80.2378 79.0382 81.0139 76.9511 80.9592H34.1907C32.1036 81.0139 30.0801 80.2378 28.5649 78.8016C27.0496 77.3653 26.1664 75.3863 26.1094 73.2992V35.5885C26.1664 33.5015 27.0496 31.5224 28.5649 30.0862C30.0801 28.6499 32.1036 27.8738 34.1907 27.9285ZM37.1368 63.0908C36.8764 63.1053 36.6158 63.0665 36.3709 62.9767C36.126 62.887 35.9019 62.7483 35.7125 62.5691C35.523 62.3898 35.3721 62.1738 35.2689 61.9343C35.1658 61.6947 35.1126 61.4366 35.1126 61.1758C35.1126 60.915 35.1658 60.6569 35.2689 60.4174C35.3721 60.1778 35.523 59.9618 35.7125 59.7826C35.9019 59.6033 36.126 59.4646 36.3709 59.3749C36.6158 59.2852 36.8764 59.2464 37.1368 59.2608H45.8928C46.2464 59.2562 46.5951 59.3433 46.9049 59.5137C47.2147 59.6841 47.4751 59.932 47.6605 60.233L50.6862 65.2975L53.7796 60.2213L58.5848 52.249C58.7683 51.9524 59.024 51.7071 59.3279 51.5362C59.6319 51.3652 59.9743 51.2742 60.3231 51.2715C60.6718 51.2689 61.0156 51.3547 61.3221 51.521C61.6287 51.6873 61.8881 51.9287 62.076 52.2225L66.4717 59.2608H73.6632C73.9236 59.2464 74.1843 59.2852 74.4292 59.3749C74.6741 59.4646 74.8981 59.6033 75.0876 59.7826C75.277 59.9618 75.428 60.1778 75.5311 60.4174C75.6342 60.6569 75.6874 60.915 75.6874 61.1758C75.6874 61.4366 75.6342 61.6947 75.5311 61.9343C75.428 62.1738 75.277 62.3898 75.0876 62.5691C74.8981 62.7483 74.6741 62.887 74.4292 62.9767C74.1843 63.0665 73.9236 63.1053 73.6632 63.0908H65.3227C64.9769 63.0927 64.6363 63.0076 64.332 62.8434C64.0278 62.6791 63.7697 62.441 63.5815 62.151L60.3702 57.007L57.2856 62.1245L52.4185 70.1027C52.2323 70.4003 51.9732 70.6455 51.6657 70.815C51.3582 70.9845 51.0126 71.0727 50.6615 71.0712C50.3104 71.0698 49.9654 70.9787 49.6594 70.8066C49.3533 70.6345 49.0963 70.3871 48.9126 70.0879L44.7261 63.082H37.1486L37.1368 63.0908ZM69.8804 38.7762C69.5067 38.7555 69.1473 38.6257 68.8466 38.403C68.5459 38.1802 68.317 37.8743 68.1883 37.5229C68.0596 37.1715 68.0366 36.79 68.1223 36.4257C68.208 36.0615 68.3985 35.7302 68.6703 35.4731C68.9422 35.2159 69.2835 35.044 69.6519 34.9786C70.0204 34.9132 70.4 34.9573 70.7437 35.1053C71.0874 35.2532 71.3803 35.4987 71.586 35.8113C71.7918 36.1239 71.9014 36.4899 71.9014 36.8642C71.8868 37.3857 71.6657 37.88 71.2867 38.2386C70.9077 38.5971 70.4019 38.7905 69.8804 38.7762ZM75.6047 38.7762C75.2311 38.7555 74.8717 38.6257 74.571 38.403C74.2702 38.1802 74.0414 37.8743 73.9127 37.5229C73.7839 37.1715 73.761 36.79 73.8467 36.4257C73.9323 36.0615 74.1229 35.7302 74.3947 35.4731C74.6666 35.2159 75.0078 35.044 75.3763 34.9786C75.7448 34.9132 76.1244 34.9573 76.4681 35.1053C76.8118 35.2532 77.1046 35.4987 77.3104 35.8113C77.5161 36.1239 77.6258 36.4899 77.6258 36.8642C77.6112 37.3857 77.39 37.88 77.0111 38.2386C76.6321 38.5971 76.1262 38.7905 75.6047 38.7762Z" fill="white"/>
</g>
<rect x="2.77778" y="2.77778" width="104.444" height="104.444" rx="52.2222" stroke="#74BC1F" stroke-opacity="0.5" stroke-width="4.44444"/>
<defs>
<clipPath id="clip0_9608_31770">
<rect width="58.8889" height="58.8889" fill="white" transform="translate(26.1094 25)"/>
</clipPath>
</defs>
</svg>
