<svg width="110" height="110" viewBox="0 0 110 110" fill="none" xmlns="http://www.w3.org/2000/svg">
<rect x="5" y="5" width="100" height="100" rx="50" fill="#74BC1F"/>
<path d="M64.3086 38.2578H33.6836C32.8086 38.2578 32.3711 37.8203 32.3711 36.9453C32.3711 36.0703 32.8086 35.6328 33.6836 35.6328H64.3086C65.1836 35.6328 65.6211 36.0703 65.6211 36.9453C65.6211 37.8203 65.1836 38.2578 64.3086 38.2578ZM64.3086 49.1953H33.6836C32.8086 49.1953 32.3711 48.7578 32.3711 47.8828C32.3711 47.0078 32.8086 46.5703 33.6836 46.5703H64.3086C65.1836 46.5703 65.6211 47.0078 65.6211 47.8828C65.6211 48.7578 65.1836 49.1953 64.3086 49.1953Z" fill="white" stroke="white" stroke-width="0.555556"/>
<path d="M53.3672 85.0703H35.4297C29.7422 85.0703 25.3672 81.1328 25.3672 76.3203V32.5703C25.3672 27.7578 29.7422 23.8203 35.4297 23.8203H70.4297C76.1172 23.8203 80.4922 27.7578 80.4922 32.5703V46.5703C80.4922 47.4453 80.0547 47.8828 79.1797 47.8828C78.3047 47.8828 77.4297 47.4453 77.4297 46.5703V32.5703C77.4297 29.0703 73.9297 26.4453 69.9922 26.4453H34.9922C31.0547 26.4453 27.5547 29.0703 27.5547 32.5703V76.3203C27.5547 79.8203 31.0547 82.4453 34.9922 82.4453H52.9297C53.8047 82.4453 54.2422 82.8828 54.2422 83.7578C54.2422 84.6328 53.8047 85.0703 53.3672 85.0703Z" fill="white" stroke="white" stroke-width="0.555556"/>
<path d="M48.9922 75.4453C45.4922 75.4453 45.4922 71.0703 45.4922 67.5703C45.4922 65.8203 45.4922 62.3203 44.6172 62.3203C43.3047 62.3203 43.3047 62.7578 42.4297 64.5078C41.9922 66.2578 41.1172 68.8828 38.0547 68.8828C34.1172 68.8828 33.6797 65.3828 33.6797 63.1953C33.6797 61.8828 33.2422 60.5703 32.8047 60.1328C32.3672 59.6953 32.3672 58.8203 32.8047 58.3828C33.2422 57.9453 34.1172 57.9453 34.5547 58.3828C35.8672 59.6953 35.8672 61.4453 36.3047 63.1953C36.7422 66.2578 36.7422 66.6953 38.0547 66.6953C39.3672 66.6953 39.3672 66.2578 40.2422 64.5078C40.6797 62.7578 41.5547 60.1328 44.6172 60.1328C48.1172 60.1328 48.1172 64.5078 48.1172 68.0078C48.1172 69.7578 48.1172 73.2578 48.9922 73.2578C50.3047 73.2578 51.1797 70.1953 52.0547 67.5703C53.3672 64.0703 54.6797 60.1328 57.7422 60.1328C63.4297 60.1328 63.4297 69.3203 63.4297 70.1953C63.4297 71.0703 62.9922 71.5078 62.1172 71.5078C61.2422 71.5078 60.8047 71.0703 60.8047 70.1953C60.8047 68.4453 60.3672 62.7578 57.7422 62.7578C56.4297 62.7578 55.5547 65.8203 54.6797 68.4453C53.3672 71.5078 52.0547 75.4453 48.9922 75.4453ZM70.8672 81.5703C70.4297 81.5703 70.4297 81.5703 69.9922 81.1328C69.5547 80.6953 69.1172 79.8203 69.5547 79.3828L82.6797 61.0078C83.1172 60.1328 83.1172 59.2578 82.2422 58.8203L80.0547 57.0703C79.6172 56.6328 79.1797 56.6328 78.7422 56.6328C78.3047 56.6328 77.8672 57.0703 77.8672 57.0703L64.7422 76.3203C64.3047 76.7578 63.4297 77.1953 62.9922 76.7578C62.5547 76.3203 62.1172 75.4453 62.5547 75.0078L76.1172 56.1953C76.5547 55.3203 77.8672 54.8828 78.7422 54.4453C80.0547 54.4453 80.9297 54.4453 81.8047 55.3203L83.9922 57.0703C85.7422 58.3828 86.1797 61.0078 84.8672 62.7578L71.7422 81.1328C71.7422 81.5703 71.3047 81.5703 70.8672 81.5703Z" fill="white" stroke="white" stroke-width="0.555556"/>
<path d="M82.2422 65.3843C81.8047 65.3843 81.8047 65.3843 81.3672 64.9468L74.3672 60.1343C73.9297 59.6968 73.4922 58.8218 73.9297 58.3843C74.3672 57.9468 75.2422 57.5093 75.6797 57.9468L82.6797 62.7593C83.1172 63.1968 83.5547 64.0718 83.1172 64.5093C83.1172 65.3843 82.6797 65.3843 82.2422 65.3843ZM62.9922 85.0718C62.1172 85.0718 61.6797 84.1968 61.6797 83.7593L62.1172 75.4468C62.1172 74.5718 62.5547 74.1343 63.4297 74.1343C64.3047 74.1343 64.7422 75.0093 64.7422 75.4468L64.3047 83.7593C64.3047 84.6343 63.8672 85.0718 62.9922 85.0718Z" fill="white" stroke="white" stroke-width="0.555556"/>
<path d="M62.9959 85.0701C62.5584 85.0701 62.1209 84.6326 61.6834 84.1951C61.2459 83.3201 61.6834 82.8826 62.5584 82.4451L69.9959 79.3826C70.8709 78.9451 71.3084 79.3826 71.7459 80.2576C72.1834 81.1326 71.7459 81.5701 70.8709 82.0076L63.4334 85.0701H62.9959Z" fill="white" stroke="white" stroke-width="0.555556"/>
<rect x="2.77778" y="2.77778" width="104.444" height="104.444" rx="52.2222" stroke="#74BC1F" stroke-opacity="0.5" stroke-width="4.44444"/>
</svg>
