<svg width="110" height="110" viewBox="0 0 110 110" fill="none" xmlns="http://www.w3.org/2000/svg">
<rect x="5" y="5" width="100" height="100" rx="50" fill="#74BC1F"/>
<path d="M53.1509 28.0262C53.9895 27.7361 54.9012 27.7361 55.7397 28.0262L75.5314 34.8741C76.3092 35.1433 76.9838 35.6482 77.4612 36.3186C77.9387 36.9891 78.1953 37.7917 78.1953 38.6147V58.5093C78.1953 67.0554 70.8843 75.1818 56.2622 82.8887C55.7005 83.1846 55.0759 83.341 54.441 83.3448C53.8062 83.3486 53.1798 83.1996 52.6146 82.9105C38.0024 75.4431 30.6953 67.3087 30.6953 58.5074V38.6147C30.6953 37.7917 30.9519 36.9891 31.4294 36.3186C31.9069 35.6482 32.5814 35.1433 33.3593 34.8741L53.1509 28.0262ZM54.4453 31.7708L34.6536 38.6128V58.5093C34.6536 65.474 40.985 72.5218 54.4156 79.3856C67.8759 72.2922 74.237 65.2227 74.237 58.5093V38.6128L54.4453 31.7688V31.7708ZM66.0571 46.4186L66.1857 46.5453C66.5398 46.8997 66.7388 47.3802 66.7388 47.8812C66.7388 48.3822 66.5398 48.8627 66.1857 49.2171L54.8609 60.54C54.5065 60.8941 54.026 61.093 53.525 61.093C53.024 61.093 52.5435 60.8941 52.1891 60.54L45.0641 53.415C44.7099 53.0605 44.511 52.58 44.511 52.079C44.511 51.578 44.7099 51.0975 45.0641 50.7431L45.1927 50.6164C45.5471 50.2623 46.0276 50.0634 46.5286 50.0634C47.0297 50.0634 47.5102 50.2623 47.8646 50.6164L53.525 56.2808L63.3852 46.4186C63.7396 46.0645 64.2201 45.8656 64.7211 45.8656C65.2222 45.8656 65.7027 46.0645 66.0571 46.4186Z" fill="white"/>
<rect x="2.77778" y="2.77778" width="104.444" height="104.444" rx="52.2222" stroke="#74BC1F" stroke-opacity="0.5" stroke-width="4.44444"/>
</svg>
