<svg width="110" height="110" viewBox="0 0 110 110" fill="none" xmlns="http://www.w3.org/2000/svg">
<rect x="5" y="5" width="100" height="100" rx="50" fill="#74BC1F"/>
<path d="M68.5318 40.7847H45.3142C44.2216 40.7847 43.2656 39.8287 43.2656 38.7361C43.2656 37.6435 44.2216 36.6875 45.3142 36.6875H68.5318C69.6244 36.6875 70.5804 37.6435 70.5804 38.7361C70.5804 39.8287 69.6244 40.7847 68.5318 40.7847ZM68.5318 55.8079H45.3142C44.2216 55.8079 43.2656 54.8519 43.2656 53.7593C43.2656 52.6667 44.2216 51.7106 45.3142 51.7106H68.5318C69.6244 51.7106 70.5804 52.6667 70.5804 53.7593C70.5804 54.8519 69.6244 55.8079 68.5318 55.8079ZM60.3374 70.831H45.3142C44.2216 70.831 43.2656 69.875 43.2656 68.7824C43.2656 67.6898 44.2216 66.7338 45.3142 66.7338H60.3374C61.43 66.7338 62.386 67.6898 62.386 68.7824C62.386 69.875 61.43 70.831 60.3374 70.831ZM73.5851 81.6204H67.849V78.4792H73.5851V75.8843H67.849V72.8796H71.2633L67.849 66.5972H71.9462L75.4971 72.7431L78.9115 66.5972H82.7355L79.3212 72.8796H82.8721V75.8843H77.4091V78.4792H82.8721V81.6204H77.4091V85.8542H73.5851V81.6204Z" fill="white"/>
<path d="M61.0185 85.8553H34.3866C30.2894 85.8553 26.875 82.441 26.875 78.3437V30.5428C26.875 26.4456 30.2894 23.0312 34.3866 23.0312H76.7245C80.8218 23.0312 84.2361 26.4456 84.2361 30.5428V58.5405C84.2361 59.6331 83.2801 60.5891 82.1875 60.5891C81.0949 60.5891 80.1389 59.6331 80.1389 58.5405V30.5428C80.1389 28.6308 78.6366 27.1285 76.7245 27.1285H34.3866C32.4745 27.1285 30.9722 28.6308 30.9722 30.5428V78.3437C30.9722 80.2558 32.4745 81.7581 34.3866 81.7581H61.0185C62.1111 81.7581 63.0671 82.7141 63.0671 83.8067C63.0671 84.8993 62.1111 85.8553 61.0185 85.8553Z" fill="white"/>
<rect x="2.77778" y="2.77778" width="104.444" height="104.444" rx="52.2222" stroke="#74BC1F" stroke-opacity="0.5" stroke-width="4.44444"/>
</svg>
