<svg width="110" height="110" viewBox="0 0 110 110" fill="none" xmlns="http://www.w3.org/2000/svg">
<rect x="5" y="5" width="100" height="100" rx="50" fill="#74BC1F"/>
<path d="M81.5075 32.6745L77.2799 28.4464C76.3059 27.4866 74.7485 27.4866 73.7889 28.4464L69.3657 32.8691L77.0848 40.5882L81.5075 36.179C82.4675 35.1917 82.4675 33.634 81.5075 32.6745ZM68.0586 34.1902L44.1369 58.8769L42.1761 67.7784L51.077 65.8171L75.6385 41.7563L68.0586 34.1902ZM73.3298 54.4264V75.2884C73.3298 75.9978 72.7877 76.6933 72.0505 76.6933C71.3132 76.6933 34.6377 76.6792 34.6377 76.6792C33.859 76.6792 33.2746 75.9283 33.2746 75.2884V38.015C33.2746 37.3195 33.9282 36.6241 34.749 36.6241H55.5274L59.9779 32.1737H32.0789C30.2707 32.1737 28.8242 33.6062 28.8242 35.4143V77.8756C28.8242 79.6693 30.2846 81.1298 32.0789 81.1298H74.5399C76.3339 81.1298 77.7803 79.6694 77.7803 77.8756V49.976L73.3298 54.4264Z" fill="white"/>
<rect x="2.77778" y="2.77778" width="104.444" height="104.444" rx="52.2222" stroke="#74BC1F" stroke-opacity="0.5" stroke-width="4.44444"/>
</svg>
