<svg width="121" height="120" viewBox="0 0 121 120" fill="none" xmlns="http://www.w3.org/2000/svg">
<rect width="120" height="120" transform="translate(0.5)" fill="white"/>
<path d="M92.4994 26.4147C90.3464 24.2617 87.4263 23.0522 84.3816 23.0522H36.6184C33.5737 23.0522 30.6536 24.2617 28.5007 26.4147C26.3477 28.5677 25.1382 31.4877 25.1382 34.5325V86.6377C25.1382 89.6825 26.3477 92.6026 28.5007 94.7555C30.6536 96.9085 33.5737 98.118 36.6184 98.118H84.3816C87.4263 98.118 90.3464 96.9085 92.4994 94.7555C94.6523 92.6026 95.8618 89.6825 95.8618 86.6377V34.5325C95.8618 31.4877 94.6523 28.5677 92.4994 26.4147ZM36.6184 17.7891H84.3816C88.8222 17.7891 93.081 19.5531 96.221 22.6931C99.361 25.8331 101.125 30.0918 101.125 34.5325V86.6377C101.125 91.0784 99.361 95.3371 96.221 98.4771C93.081 101.617 88.8222 103.381 84.3816 103.381H36.6184C32.1778 103.381 27.919 101.617 24.779 98.4771C21.639 95.3371 19.875 91.0784 19.875 86.6377V34.5325C19.875 30.0919 21.639 25.8331 24.779 22.6931C27.919 19.5531 32.1778 17.7891 36.6184 17.7891Z" fill="black" stroke="black" stroke-width="1.25"/>
<path d="M64.2188 59.6053L76.5206 47.8201C76.8264 47.5341 77.0643 47.1833 77.2168 46.7933C77.3693 46.4034 77.4325 45.9842 77.4018 45.5667C77.3712 45.1491 77.2474 44.7437 77.0395 44.3802C76.8317 44.0167 76.5451 43.7044 76.2008 43.4662L62.2511 35.5206C61.8202 35.2189 61.315 35.041 60.7902 35.0063C60.2654 34.9715 59.7411 35.0812 59.2743 35.3235C58.8221 35.5582 58.4418 35.9108 58.1734 36.3438C57.9049 36.7768 57.7584 37.2743 57.7493 37.7837V55.4971L47.44 43.1953C46.5569 42.1357 44.9821 41.9927 43.9225 42.8758C42.8626 43.7586 42.7195 45.3337 43.6027 46.3933L54.6006 59.6053L43.529 72.9647C42.6915 74.0257 42.8674 75.5637 43.9226 76.4086C44.371 76.712 44.907 76.859 45.4475 76.8269C45.817 76.8252 46.1814 76.7402 46.5136 76.5783C46.8458 76.4165 47.1372 76.1819 47.3663 75.892L57.7493 63.4426V81.3776C57.7628 82.944 59.0363 84.2066 60.6028 84.2066C61.1924 84.2088 61.7682 84.0283 62.2511 83.69L76.1271 75.8674C76.4674 75.6269 76.7514 75.3153 76.9595 74.9543C77.1676 74.5932 77.2947 74.1913 77.3322 73.7762C77.3646 73.3647 77.3065 72.9511 77.1621 72.5644C77.0176 72.1777 76.7902 71.8274 76.4959 71.5379L64.2188 59.6053ZM62.6691 41.7934L71.2808 46.049L62.6691 54.3164V41.7934ZM62.6691 77.4418V64.968L71.2069 73.2846L62.6691 77.4418Z" fill="black"/>
</svg>
