<svg width="121" height="120" viewBox="0 0 121 120" fill="none" xmlns="http://www.w3.org/2000/svg">
<rect width="120" height="120" transform="translate(0.5)" fill="white"/>
<rect x="18" y="17.5" width="85" height="85" rx="3.75" stroke="black" stroke-width="3.75"/>
<rect x="26.75" y="26.25" width="67.5" height="67.5" rx="2.5" fill="black"/>
<line x1="103" y1="33.125" x2="109.25" y2="33.125" stroke="black" stroke-width="3.75"/>
<line x1="103" y1="43.125" x2="109.25" y2="43.125" stroke="black" stroke-width="3.75"/>
<line x1="103" y1="53.125" x2="109.25" y2="53.125" stroke="black" stroke-width="3.75"/>
<line x1="103" y1="63.125" x2="109.25" y2="63.125" stroke="black" stroke-width="3.75"/>
<line x1="103" y1="73.125" x2="109.25" y2="73.125" stroke="black" stroke-width="3.75"/>
<line x1="103" y1="83.125" x2="109.25" y2="83.125" stroke="black" stroke-width="3.75"/>
<line x1="11.75" y1="33.125" x2="18" y2="33.125" stroke="black" stroke-width="3.75"/>
<line x1="11.75" y1="43.125" x2="18" y2="43.125" stroke="black" stroke-width="3.75"/>
<line x1="11.75" y1="53.125" x2="18" y2="53.125" stroke="black" stroke-width="3.75"/>
<line x1="11.75" y1="63.125" x2="18" y2="63.125" stroke="black" stroke-width="3.75"/>
<line x1="11.75" y1="73.125" x2="18" y2="73.125" stroke="black" stroke-width="3.75"/>
<line x1="11.75" y1="83.125" x2="18" y2="83.125" stroke="black" stroke-width="3.75"/>
<line x1="87.375" y1="102.5" x2="87.375" y2="108.75" stroke="black" stroke-width="3.75"/>
<line x1="77.375" y1="102.5" x2="77.375" y2="108.75" stroke="black" stroke-width="3.75"/>
<line x1="67.375" y1="102.5" x2="67.375" y2="108.75" stroke="black" stroke-width="3.75"/>
<line x1="57.375" y1="102.5" x2="57.375" y2="108.75" stroke="black" stroke-width="3.75"/>
<line x1="47.375" y1="102.5" x2="47.375" y2="108.75" stroke="black" stroke-width="3.75"/>
<line x1="37.375" y1="102.5" x2="37.375" y2="108.75" stroke="black" stroke-width="3.75"/>
<line x1="87.375" y1="11.25" x2="87.375" y2="17.5" stroke="black" stroke-width="3.75"/>
<line x1="77.375" y1="11.25" x2="77.375" y2="17.5" stroke="black" stroke-width="3.75"/>
<line x1="67.375" y1="11.25" x2="67.375" y2="17.5" stroke="black" stroke-width="3.75"/>
<line x1="57.375" y1="11.25" x2="57.375" y2="17.5" stroke="black" stroke-width="3.75"/>
<line x1="47.375" y1="11.25" x2="47.375" y2="17.5" stroke="black" stroke-width="3.75"/>
<line x1="37.375" y1="11.25" x2="37.375" y2="17.5" stroke="black" stroke-width="3.75"/>
<path d="M52.4277 59.7285H54.3027C54.2051 60.627 53.9479 61.431 53.5312 62.1406C53.1146 62.8503 52.5254 63.4134 51.7637 63.8301C51.002 64.2402 50.0514 64.4453 48.9121 64.4453C48.0788 64.4453 47.3203 64.2891 46.6367 63.9766C45.9596 63.6641 45.377 63.2214 44.8887 62.6484C44.4004 62.069 44.0228 61.3757 43.7559 60.5684C43.4954 59.7546 43.3652 58.8496 43.3652 57.8535V56.4375C43.3652 55.4414 43.4954 54.5397 43.7559 53.7324C44.0228 52.9186 44.4036 52.222 44.8984 51.6426C45.3997 51.0632 46.002 50.6172 46.7051 50.3047C47.4082 49.9922 48.1992 49.8359 49.0781 49.8359C50.1523 49.8359 51.0605 50.0378 51.8027 50.4414C52.5449 50.8451 53.1211 51.4049 53.5312 52.1211C53.9479 52.8307 54.2051 53.6543 54.3027 54.5918H52.4277C52.3366 53.9277 52.1673 53.3581 51.9199 52.8828C51.6725 52.401 51.321 52.0299 50.8652 51.7695C50.4095 51.5091 49.8138 51.3789 49.0781 51.3789C48.4466 51.3789 47.89 51.4993 47.4082 51.7402C46.9329 51.9811 46.5326 52.3229 46.207 52.7656C45.888 53.2083 45.6471 53.7389 45.4844 54.3574C45.3216 54.9759 45.2402 55.6628 45.2402 56.418V57.8535C45.2402 58.5501 45.3118 59.2044 45.4551 59.8164C45.6048 60.4284 45.8294 60.9655 46.1289 61.4277C46.4284 61.89 46.8092 62.2546 47.2715 62.5215C47.7337 62.7819 48.2806 62.9121 48.9121 62.9121C49.7129 62.9121 50.3509 62.7852 50.8262 62.5312C51.3014 62.2773 51.6595 61.9128 51.9004 61.4375C52.1478 60.9622 52.3236 60.3926 52.4277 59.7285ZM62.1152 58.6738H58.3164V57.1406H62.1152C62.8509 57.1406 63.4466 57.0234 63.9023 56.7891C64.3581 56.5547 64.6901 56.2292 64.8984 55.8125C65.1133 55.3958 65.2207 54.9206 65.2207 54.3867C65.2207 53.8984 65.1133 53.4395 64.8984 53.0098C64.6901 52.5801 64.3581 52.235 63.9023 51.9746C63.4466 51.7077 62.8509 51.5742 62.1152 51.5742H58.7559V64.25H56.8711V50.0312H62.1152C63.1895 50.0312 64.0977 50.2168 64.8398 50.5879C65.582 50.959 66.1452 51.4733 66.5293 52.1309C66.9134 52.7819 67.1055 53.5273 67.1055 54.3672C67.1055 55.2786 66.9134 56.0566 66.5293 56.7012C66.1452 57.3457 65.582 57.8372 64.8398 58.1758C64.0977 58.5078 63.1895 58.6738 62.1152 58.6738ZM77.623 50.0312H79.498V59.6504C79.498 60.7181 79.2604 61.6068 78.7852 62.3164C78.3099 63.026 77.6784 63.5599 76.8906 63.918C76.1094 64.2695 75.2598 64.4453 74.3418 64.4453C73.3783 64.4453 72.5059 64.2695 71.7246 63.918C70.9499 63.5599 70.3346 63.026 69.8789 62.3164C69.4297 61.6068 69.2051 60.7181 69.2051 59.6504V50.0312H71.0703V59.6504C71.0703 60.3926 71.207 61.0046 71.4805 61.4863C71.7539 61.9681 72.1348 62.3262 72.623 62.5605C73.1178 62.7949 73.6908 62.9121 74.3418 62.9121C74.9993 62.9121 75.5723 62.7949 76.0605 62.5605C76.5553 62.3262 76.9395 61.9681 77.2129 61.4863C77.4863 61.0046 77.623 60.3926 77.623 59.6504V50.0312Z" fill="white"/>
</svg>
