<svg width="121" height="120" viewBox="0 0 121 120" fill="none" xmlns="http://www.w3.org/2000/svg">
<rect width="120" height="120" transform="translate(0.835938)" fill="white"/>
<path d="M97.1678 66.8631H86.1596V58.6222H97.1678C98.668 58.6222 99.8844 58.3688 100.817 57.862C101.749 57.3551 102.429 56.6557 102.854 55.7637C103.3 54.8514 103.523 53.8277 103.523 52.6924C103.523 51.476 103.3 50.3509 102.854 49.3169C102.429 48.283 101.749 47.4518 100.817 46.8234C99.8844 46.1747 98.668 45.8503 97.1678 45.8503H90.1737V81.8853H79.5V37.6094H97.1678C100.716 37.6094 103.767 38.2581 106.321 39.5556C108.896 40.853 110.872 42.637 112.251 44.9076C113.629 47.1579 114.319 49.7325 114.319 52.6316C114.319 55.49 113.629 57.9836 112.251 60.1122C110.872 62.2409 108.896 63.9033 106.321 65.0994C103.767 66.2752 100.716 66.8631 97.1678 66.8631Z" fill="black"/>
<path d="M67.9081 70.1157C67.9081 69.4264 67.8067 68.8081 67.604 68.2607C67.4013 67.6931 67.0262 67.166 66.4788 66.6795C65.9315 66.1929 65.1408 65.7064 64.1069 65.2198C63.0933 64.713 61.7553 64.1859 60.0929 63.6385C58.1467 62.9898 56.2715 62.26 54.4672 61.4491C52.6629 60.6179 51.0512 59.6549 49.6321 58.5602C48.213 57.4452 47.0879 56.1477 46.2567 54.6678C45.4255 53.1676 45.0099 51.4241 45.0099 49.4374C45.0099 47.5317 45.4356 45.8187 46.2871 44.2982C47.1385 42.7575 48.3245 41.4499 49.845 40.3754C51.3857 39.2807 53.19 38.4495 55.2578 37.8819C57.3256 37.294 59.5861 37 62.0391 37C65.2827 37 68.1412 37.5676 70.6145 38.7029C73.1081 39.8179 75.0543 41.4093 76.4531 43.4772C77.8722 45.5247 78.5817 47.9473 78.5817 50.745H67.9689C67.9689 49.63 67.7358 48.6468 67.2695 47.7953C66.8235 46.9438 66.1443 46.2748 65.2321 45.7883C64.3198 45.3017 63.1744 45.0585 61.7958 45.0585C60.4578 45.0585 59.3327 45.2612 58.4204 45.6666C57.5081 46.0721 56.8188 46.6195 56.3525 47.3087C55.8863 47.9778 55.6531 48.7177 55.6531 49.5286C55.6531 50.1976 55.8356 50.8058 56.2005 51.3532C56.5857 51.8803 57.1229 52.377 57.8122 52.8432C58.5217 53.3095 59.3732 53.7555 60.3666 54.1812C61.3802 54.607 62.5155 55.0226 63.7724 55.428C66.1241 56.1781 68.2122 57.0194 70.0367 57.952C71.8816 58.8643 73.4324 59.9083 74.6893 61.0842C75.9665 62.2397 76.9295 63.5574 77.5782 65.0374C78.2472 66.5173 78.5817 68.1898 78.5817 70.0549C78.5817 72.0416 78.1965 73.8054 77.4262 75.3461C76.6558 76.8868 75.5509 78.1944 74.1116 79.2689C72.6722 80.3231 70.949 81.1239 68.942 81.6712C66.935 82.2186 64.6948 82.4923 62.2215 82.4923C59.951 82.4923 57.7108 82.2085 55.5011 81.6408C53.3116 81.0529 51.3249 80.1609 49.5409 78.9648C47.7569 77.7484 46.3276 76.1976 45.2532 74.3122C44.199 72.4065 43.6719 70.1461 43.6719 67.5309H54.3759C54.3759 68.8284 54.5483 69.9231 54.8929 70.8151C55.2375 71.7071 55.7444 72.4268 56.4134 72.9742C57.0824 73.5013 57.9034 73.8865 58.8765 74.1297C59.8496 74.3527 60.9646 74.4642 62.2215 74.4642C63.5798 74.4642 64.6746 74.2716 65.5057 73.8865C66.3369 73.481 66.9451 72.9539 67.3303 72.3052C67.7155 71.6362 67.9081 70.9063 67.9081 70.1157Z" fill="black"/>
<path d="M22.3836 81.8853H12.5614L12.6222 73.6748H22.3836C24.4109 73.6748 26.1239 73.1882 27.5228 72.2151C28.9419 71.242 30.0163 69.7925 30.7461 67.8666C31.4962 65.9204 31.8713 63.5282 31.8713 60.69V58.7742C31.8713 56.6456 31.6584 54.7805 31.2327 53.1789C30.8272 51.5571 30.219 50.209 29.4081 49.1345C28.5972 48.0398 27.5836 47.2187 26.3672 46.6713C25.1711 46.124 23.7926 45.8503 22.2315 45.8503H12.3789V37.6094H22.2315C25.2319 37.6094 27.9789 38.1263 30.4725 39.1602C32.9863 40.1739 35.1555 41.6335 36.98 43.5392C38.8249 45.4246 40.244 47.6647 41.2373 50.2596C42.251 52.8343 42.7578 55.6928 42.7578 58.8351V60.69C42.7578 63.812 42.251 66.6705 41.2373 69.2654C40.244 71.8604 38.835 74.1005 37.0105 75.9859C35.1859 77.8713 33.0268 79.3309 30.5333 80.3648C28.06 81.3785 25.3434 81.8853 22.3836 81.8853ZM18.6737 37.6094V81.8853H8V37.6094H18.6737Z" fill="black"/>
</svg>
