<svg width="121" height="120" viewBox="0 0 121 120" fill="none" xmlns="http://www.w3.org/2000/svg">
<rect width="120" height="120" transform="translate(0.164062)" fill="white"/>
<rect x="8.91406" y="16.25" width="70.7752" height="44.2345" fill="black"/>
<rect x="30.6328" y="60.4844" width="28.1492" height="4.02132" fill="black"/>
<rect x="25.7969" y="64.5" width="36.9961" height="2.41279" fill="black"/>
<path d="M42.3219 38.1117V40.9841H26.9036L26.6094 38.7083L35.216 28.3125H39.1294L34.8776 33.538L31.3467 38.1117H42.3219ZM40.1593 28.3125V44.3978H35.2013V28.3125H40.1593Z" fill="white"/>
<path d="M50.0164 28.3125V44.3978H44.8524V28.3125H50.0164ZM62.8012 28.3125L54.5036 36.4656L49.6486 40.4538L48.707 36.8965L51.8113 33.3612L56.4309 28.3125H62.8012ZM56.6957 44.3978L51.1639 37.1506L55.1803 34.93L62.8012 44.3978H56.6957Z" fill="white"/>
<path d="M41.8984 52.4141H112.674V96.6486H41.8984V52.4141Z" fill="black"/>
<rect x="63.6172" y="96.6562" width="28.1492" height="4.02132" fill="black"/>
<rect x="58.7812" y="100.664" width="36.9961" height="2.41279" fill="black"/>
<rect x="41.8906" y="51.625" width="70.7752" height="0.804264" fill="white"/>
<rect x="41.0859" y="51.625" width="0.804264" height="45.0388" fill="white"/>
<path d="M75.7126 76.7992V79.6716H60.2942L60 77.3958L68.6066 67H72.52L68.2682 72.2255L64.7373 76.7992H75.7126ZM73.5499 67V83.0853H68.5919V67H73.5499Z" fill="white"/>
<path d="M83.407 67V83.0853H78.2431V67H83.407ZM96.1919 67L87.8942 75.1531L83.0392 79.1413L82.0976 75.584L85.2019 72.0487L89.8215 67H96.1919ZM90.0863 83.0853L84.5546 75.8381L88.571 73.6175L96.1919 83.0853H90.0863Z" fill="white"/>
</svg>
