<svg width="121" height="120" viewBox="0 0 121 120" fill="none" xmlns="http://www.w3.org/2000/svg">
<rect width="120" height="120" transform="translate(0.5)" fill="white"/>
<circle cx="60.5" cy="60" r="17.5" fill="white"/>
<rect width="26.3787" height="4.52206" transform="matrix(1 1.74846e-07 1.74846e-07 -1 47.5859 85)" fill="black"/>
<rect width="14.3199" height="4.52206" transform="matrix(1 1.74846e-07 1.74846e-07 -1 67.9375 80.4766)" fill="black"/>
<rect width="14.3199" height="4.52206" transform="matrix(1 1.74846e-07 1.74846e-07 -1 75.4609 75.9609)" fill="black"/>
<rect width="37.6838" height="5.27573" transform="matrix(1.31134e-07 -1 -1 -1.31134e-07 89.7891 71.4375)" fill="black"/>
<rect width="37.6838" height="5.27573" transform="matrix(1.31134e-07 -1 -1 -1.31134e-07 37.0234 71.4375)" fill="black"/>
<rect width="17.3346" height="4.52206" transform="matrix(1.34716e-07 -1 -1 -1.27233e-07 45.3203 60.125)" fill="black"/>
<rect width="17.3346" height="4.52206" transform="matrix(1.34716e-07 -1 -1 -1.27233e-07 51.3516 60.125)" fill="black"/>
<rect width="17.3346" height="4.52206" transform="matrix(1.34716e-07 -1 -1 -1.27233e-07 57.375 60.125)" fill="black"/>
<rect width="17.3346" height="4.52206" transform="matrix(1.34716e-07 -1 -1 -1.27233e-07 62.6484 60.125)" fill="black"/>
<rect width="17.3346" height="4.52206" transform="matrix(1.34716e-07 -1 -1 -1.27233e-07 68.6875 60.125)" fill="black"/>
<rect width="17.3346" height="4.52206" transform="matrix(1.34716e-07 -1 -1 -1.27233e-07 74.7109 60.125)" fill="black"/>
<rect width="17.3346" height="4.52206" transform="matrix(1.34716e-07 -1 -1 -1.27233e-07 80.75 60.125)" fill="black"/>
<rect width="14.3199" height="4.52206" transform="matrix(1 1.74846e-07 1.74846e-07 -1 40.0469 80.4766)" fill="black"/>
<rect width="15.0735" height="4.52206" transform="matrix(1 1.74846e-07 1.74846e-07 -1 31.75 75.9609)" fill="black"/>
<rect width="47.4816" height="4.52206" transform="matrix(1 1.74846e-07 1.74846e-07 -1 37.0234 38.2734)" fill="black"/>
<rect x="21.125" y="20.625" width="78.75" height="78.75" rx="9.375" stroke="black" stroke-width="6.25"/>
</svg>
