<svg width="121" height="120" viewBox="0 0 121 120" fill="none" xmlns="http://www.w3.org/2000/svg">
<rect width="120" height="120" transform="translate(0.164062)" fill="white"/>
<rect x="17.6641" y="17.5" width="85" height="85" rx="3.75" stroke="black" stroke-width="3.75"/>
<rect x="26.4141" y="26.25" width="67.5" height="67.5" rx="2.5" fill="black"/>
<line x1="102.664" y1="33.125" x2="108.914" y2="33.125" stroke="black" stroke-width="3.75"/>
<line x1="102.664" y1="43.125" x2="108.914" y2="43.125" stroke="black" stroke-width="3.75"/>
<line x1="102.664" y1="53.125" x2="108.914" y2="53.125" stroke="black" stroke-width="3.75"/>
<line x1="102.664" y1="63.125" x2="108.914" y2="63.125" stroke="black" stroke-width="3.75"/>
<line x1="102.664" y1="73.125" x2="108.914" y2="73.125" stroke="black" stroke-width="3.75"/>
<line x1="102.664" y1="83.125" x2="108.914" y2="83.125" stroke="black" stroke-width="3.75"/>
<line x1="11.4141" y1="33.125" x2="17.6641" y2="33.125" stroke="black" stroke-width="3.75"/>
<line x1="11.4141" y1="43.125" x2="17.6641" y2="43.125" stroke="black" stroke-width="3.75"/>
<line x1="11.4141" y1="53.125" x2="17.6641" y2="53.125" stroke="black" stroke-width="3.75"/>
<line x1="11.4141" y1="63.125" x2="17.6641" y2="63.125" stroke="black" stroke-width="3.75"/>
<line x1="11.4141" y1="73.125" x2="17.6641" y2="73.125" stroke="black" stroke-width="3.75"/>
<line x1="11.4141" y1="83.125" x2="17.6641" y2="83.125" stroke="black" stroke-width="3.75"/>
<line x1="87.0391" y1="102.5" x2="87.0391" y2="108.75" stroke="black" stroke-width="3.75"/>
<line x1="77.0391" y1="102.5" x2="77.0391" y2="108.75" stroke="black" stroke-width="3.75"/>
<line x1="67.0391" y1="102.5" x2="67.0391" y2="108.75" stroke="black" stroke-width="3.75"/>
<line x1="57.0391" y1="102.5" x2="57.0391" y2="108.75" stroke="black" stroke-width="3.75"/>
<line x1="47.0391" y1="102.5" x2="47.0391" y2="108.75" stroke="black" stroke-width="3.75"/>
<line x1="37.0391" y1="102.5" x2="37.0391" y2="108.75" stroke="black" stroke-width="3.75"/>
<line x1="87.0391" y1="11.25" x2="87.0391" y2="17.5" stroke="black" stroke-width="3.75"/>
<line x1="77.0391" y1="11.25" x2="77.0391" y2="17.5" stroke="black" stroke-width="3.75"/>
<line x1="67.0391" y1="11.25" x2="67.0391" y2="17.5" stroke="black" stroke-width="3.75"/>
<line x1="57.0391" y1="11.25" x2="57.0391" y2="17.5" stroke="black" stroke-width="3.75"/>
<line x1="47.0391" y1="11.25" x2="47.0391" y2="17.5" stroke="black" stroke-width="3.75"/>
<line x1="37.0391" y1="11.25" x2="37.0391" y2="17.5" stroke="black" stroke-width="3.75"/>
<path d="M50.8501 60.3999V66.9062C50.6304 67.2318 50.2804 67.598 49.8003 68.0049C49.3201 68.4036 48.6569 68.7536 47.8105 69.0547C46.9723 69.3477 45.89 69.4941 44.5635 69.4941C43.4811 69.4941 42.4842 69.307 41.5728 68.9326C40.6694 68.5501 39.8841 67.9967 39.2168 67.2725C38.5576 66.54 38.0449 65.653 37.6787 64.6113C37.3206 63.5615 37.1416 62.3734 37.1416 61.0469V59.6675C37.1416 58.341 37.2962 57.1569 37.6055 56.1152C37.9229 55.0736 38.3867 54.1906 38.9971 53.4663C39.6074 52.7339 40.3561 52.1805 41.2432 51.8062C42.1302 51.4237 43.1475 51.2324 44.2949 51.2324C45.654 51.2324 46.7892 51.4684 47.7007 51.9404C48.6203 52.4043 49.3364 53.0472 49.8491 53.8691C50.37 54.6911 50.7036 55.627 50.8501 56.6768H48.4941C48.3883 56.0339 48.1768 55.4479 47.8594 54.9189C47.5501 54.39 47.1066 53.9668 46.5288 53.6494C45.951 53.3239 45.2064 53.1611 44.2949 53.1611C43.473 53.1611 42.7609 53.3117 42.1587 53.6128C41.5565 53.9139 41.0601 54.3452 40.6694 54.9067C40.2788 55.4683 39.9858 56.1478 39.7905 56.9453C39.6034 57.7428 39.5098 58.6421 39.5098 59.6431V61.0469C39.5098 62.0723 39.6278 62.9878 39.8638 63.7935C40.1079 64.5991 40.4538 65.2868 40.9014 65.8564C41.349 66.418 41.882 66.8452 42.5005 67.1382C43.1271 67.4312 43.8188 67.5776 44.5757 67.5776C45.4139 67.5776 46.0934 67.5085 46.6143 67.3701C47.1351 67.2236 47.542 67.0527 47.835 66.8574C48.1279 66.654 48.3517 66.4627 48.5063 66.2837V62.3042H44.3926V60.3999H50.8501ZM61.3115 62.2798H56.563V60.3633H61.3115C62.2311 60.3633 62.9757 60.2168 63.5454 59.9238C64.1151 59.6309 64.5301 59.224 64.7905 58.7031C65.0591 58.1823 65.1934 57.5882 65.1934 56.9209C65.1934 56.3105 65.0591 55.7368 64.7905 55.1997C64.5301 54.6626 64.1151 54.2313 63.5454 53.9058C62.9757 53.5721 62.2311 53.4053 61.3115 53.4053H57.1123V69.25H54.7563V51.4766H61.3115C62.6543 51.4766 63.7896 51.7085 64.7173 52.1724C65.645 52.6362 66.349 53.2791 66.8291 54.1011C67.3092 54.9149 67.5493 55.8467 67.5493 56.8965C67.5493 58.0358 67.3092 59.0083 66.8291 59.814C66.349 60.6196 65.645 61.234 64.7173 61.6572C63.7896 62.0723 62.6543 62.2798 61.3115 62.2798ZM80.6963 51.4766H83.04V63.5005C83.04 64.8351 82.743 65.946 82.1489 66.833C81.5549 67.7201 80.7655 68.3874 79.7808 68.835C78.8042 69.2744 77.7422 69.4941 76.5947 69.4941C75.3903 69.4941 74.2998 69.2744 73.3232 68.835C72.3548 68.3874 71.5858 67.7201 71.0161 66.833C70.4546 65.946 70.1738 64.8351 70.1738 63.5005V51.4766H72.5054V63.5005C72.5054 64.4282 72.6763 65.1932 73.0181 65.7954C73.3599 66.3976 73.8359 66.8452 74.4463 67.1382C75.0648 67.4312 75.7809 67.5776 76.5947 67.5776C77.4167 67.5776 78.1328 67.4312 78.7432 67.1382C79.3617 66.8452 79.8418 66.3976 80.1836 65.7954C80.5254 65.1932 80.6963 64.4282 80.6963 63.5005V51.4766Z" fill="white"/>
</svg>
