<svg width="121" height="120" viewBox="0 0 121 120" fill="none" xmlns="http://www.w3.org/2000/svg">
<rect width="120" height="120" transform="translate(0.835938)" fill="white"/>
<path d="M17.5482 42.4228L17.5482 42.4228L15.2707 45.2696L15.2707 45.2696C14.8274 45.8237 14.5859 46.5122 14.5859 47.2218V62.9879C14.5859 63.871 14.9595 64.7128 15.6143 65.3052L28.8908 77.3173C29.4654 77.8371 30.2126 78.125 30.9874 78.125H91.6357C92.4645 78.125 93.2594 77.7958 93.8454 77.2097L105.839 65.2161C106.425 64.6301 106.754 63.8352 106.754 63.0064V46.6524C106.754 45.7031 106.323 44.8053 105.581 44.2122C105.581 44.2122 105.581 44.2122 105.581 44.2122L102.735 41.9348L101.174 43.8852L102.735 41.9348C102.181 41.4915 101.492 41.25 100.783 41.25H19.9884C19.039 41.25 18.1412 41.6815 17.5482 42.4228Z" stroke="black" stroke-width="5"/>
<path d="M94.2783 54.8047H26.7219L24.5859 56.3659V59.5839L28.4749 62.6108H93.0309L96.1421 59.5839V56.3659L94.2783 54.8047Z" fill="black"/>
<rect x="29.5859" y="45.7031" width="3.90306" height="3.90306" rx="1.25" fill="black"/>
<rect x="36.0938" y="45.7031" width="3.90306" height="3.90306" rx="1.25" fill="black"/>
<rect x="42.5938" y="45.7031" width="3.90306" height="3.90306" rx="1.25" fill="black"/>
<rect x="49.0938" y="45.7031" width="3.90306" height="3.90306" rx="1.25" fill="black"/>
<rect x="55.6016" y="45.7031" width="3.90306" height="3.90306" rx="1.25" fill="black"/>
<rect x="62.1172" y="45.7031" width="3.90306" height="3.90306" rx="1.25" fill="black"/>
<rect x="68.6172" y="45.7031" width="3.90306" height="3.90306" rx="1.25" fill="black"/>
<rect x="75.125" y="45.7031" width="3.90306" height="3.90306" rx="1.25" fill="black"/>
<rect x="81.625" y="45.7031" width="3.90306" height="3.90306" rx="1.25" fill="black"/>
<rect x="88.1328" y="45.7031" width="3.90306" height="3.90306" rx="1.25" fill="black"/>
<rect x="29.5859" y="70.4219" width="3.90306" height="3.90306" rx="0.625" fill="black"/>
<rect x="36.0938" y="70.4219" width="3.90306" height="3.90306" rx="0.625" fill="black"/>
<rect x="42.5938" y="70.4219" width="3.90306" height="3.90306" rx="0.625" fill="black"/>
<rect x="49.0938" y="70.4219" width="3.90306" height="3.90306" rx="0.625" fill="black"/>
<rect x="55.6016" y="70.4219" width="3.90306" height="3.90306" rx="0.625" fill="black"/>
<rect x="62.1172" y="70.4219" width="3.90306" height="3.90306" rx="0.625" fill="black"/>
<rect x="68.6172" y="70.4219" width="3.90306" height="3.90306" rx="0.625" fill="black"/>
<rect x="75.125" y="70.4219" width="3.90306" height="3.90306" rx="0.625" fill="black"/>
<rect x="81.625" y="70.4219" width="3.90306" height="3.90306" rx="0.625" fill="black"/>
<rect x="88.1328" y="70.4219" width="3.90306" height="3.90306" rx="0.625" fill="black"/>
</svg>
