<svg width="121" height="120" viewBox="0 0 121 120" fill="none" xmlns="http://www.w3.org/2000/svg">
<path d="M68.7734 75.1788V45H74.6034V75.1788H68.7734Z" fill="black"/>
<path d="M42.8359 75.1788V45H52.0268L54.5645 63.3988L57.0852 45H66.3617V75.1788H60.8404V53.4364L57.3767 75.1788H51.9582L48.2887 53.4364V75.1788H42.8359Z" fill="black"/>
<path d="M25.5312 75.1788V45H33.8304C36.0024 45 37.6371 45.6059 38.7345 46.8176C39.8319 48.0179 40.3806 49.7783 40.3806 52.0989V66.2281C40.3806 69.0859 39.8776 71.2922 38.8717 72.8468C37.8771 74.4015 36.1281 75.1788 33.6247 75.1788H25.5312ZM31.6013 69.8461H32.6473C33.7561 69.8461 34.3105 69.3088 34.3105 68.2343V52.6647C34.3105 51.6588 34.1734 51.0129 33.899 50.7271C33.6361 50.4299 33.0931 50.2813 32.27 50.2813H31.6013V69.8461Z" fill="black"/>
<path d="M8 75.1788V45H14.0015V55.7855H16.8479V45H22.8494V75.1788H16.8479V61.4955H14.0015V75.1788H8Z" fill="black"/>
<path d="M97.0078 75.0415L100.232 59.1251L97.6731 45H103.542L105.094 55.3209L106.476 45H112.361L109.802 59.1251L113.009 75.0415H106.936L105.043 63.3047L103.098 75.0415H97.0078Z" fill="black"/>
<path d="M81.2344 75.0401V45.0156H90.4464C91.9818 45.0156 93.1418 45.3682 93.9265 46.0733C94.7113 46.7671 95.2344 47.7451 95.496 49.0075C95.7689 50.2585 95.9054 51.7313 95.9054 53.4259C95.9054 55.0636 95.695 56.3715 95.2742 57.3495C94.8648 58.3276 94.0858 59.0043 92.9371 59.3796C93.881 59.5729 94.5407 60.0449 94.916 60.7955C95.3027 61.5348 95.496 62.4958 95.496 63.6786V75.0401H89.5764V63.2862C89.5764 62.4105 89.3944 61.8703 89.0305 61.6656C88.6779 61.4495 88.1036 61.3414 87.3075 61.3414V75.0401H81.2344ZM87.3416 56.1383H88.7917C89.6219 56.1383 90.037 55.2342 90.037 53.4259C90.037 52.2545 89.946 51.4868 89.7641 51.1229C89.5821 50.7589 89.2409 50.577 88.7405 50.577H87.3416V56.1383Z" fill="black"/>
</svg>
