<svg width="121" height="120" viewBox="0 0 121 120" fill="none" xmlns="http://www.w3.org/2000/svg">
<rect width="120" height="120" transform="translate(0.835938)" fill="white"/>
<path d="M39.8236 89.4879H27.8027C27.8027 89.8948 27.8027 90.2586 27.8027 90.6224C27.8027 94.2806 27.7821 97.9368 27.8171 101.595C27.8253 102.475 27.5561 102.847 26.6415 102.777C25.7927 102.711 24.9336 102.744 24.0787 102.769C23.419 102.787 23.1312 102.493 23.1579 101.85C23.1641 101.679 23.1579 101.509 23.1579 101.338C23.1579 92.3487 23.1579 83.3593 23.1579 74.3678C23.1579 72.9538 23.1908 72.923 24.5884 72.9168C25.17 72.9168 25.7496 72.9168 26.3312 72.9168C27.7184 72.9209 27.8006 72.997 27.8006 74.3514C27.8027 77.5308 27.8006 80.7101 27.8006 83.8875V85.0898H39.8215C39.8215 84.6849 39.8215 84.2882 39.8215 83.8936C39.8215 80.6464 39.8462 77.3992 39.8071 74.152C39.7948 73.2148 40.1174 72.8367 41.0567 72.9066C41.7698 72.96 42.4953 72.96 43.2085 72.9066C44.16 72.8367 44.4375 73.2354 44.4334 74.1664C44.4005 81.002 44.4169 87.8396 44.4169 94.6752C44.4169 96.9996 44.3923 99.3241 44.4293 101.649C44.4436 102.495 44.1436 102.832 43.2927 102.775C42.5446 102.723 41.7842 102.705 41.0382 102.779C40.0907 102.871 39.7907 102.528 39.803 101.577C39.8503 97.9882 39.8215 94.3978 39.8215 90.8094C39.8215 90.4004 39.8215 89.9935 39.8215 89.49L39.8236 89.4879Z" fill="black"/>
<path d="M79.8113 85.2169C82.3988 85.2169 84.9514 85.2169 87.506 85.2169C90.0606 85.2169 90.0112 85.2169 89.9928 87.6996C89.9784 89.5616 90.3832 89.5616 88.1102 89.5554C85.7179 89.5493 83.3277 89.5554 80.9355 89.5554C80.5697 89.5554 80.2038 89.5554 79.7291 89.5554C79.7291 90.0363 79.7291 90.4022 79.7291 90.768C79.7291 94.4242 79.7147 98.0804 79.7414 101.735C79.7476 102.472 79.5277 102.807 78.7508 102.766C77.9 102.721 77.0429 102.729 76.19 102.764C75.4707 102.795 75.2364 102.485 75.2364 101.79C75.2488 92.4964 75.2508 83.2049 75.2344 73.9113C75.2344 73.1262 75.5755 72.9042 76.2846 72.9063C80.6909 72.9186 85.0993 72.9207 89.5057 72.9063C90.2969 72.9042 90.6258 73.233 90.5867 74.0181C90.5538 74.6655 90.5292 75.3211 90.5908 75.9644C90.6854 76.9406 90.3298 77.2921 89.3228 77.2695C86.5565 77.2119 83.7881 77.2489 81.0218 77.2489C80.6478 77.2489 80.2737 77.2489 79.8154 77.2489V85.219L79.8113 85.2169Z" fill="black"/>
<path d="M50.8215 91.9236C50.8215 88.6805 50.8483 85.4374 50.8051 82.1964C50.7928 81.3065 51.0599 80.9448 51.9704 81.027C52.6815 81.0907 53.407 81.0866 54.1181 81.027C54.9998 80.953 55.2854 81.3661 55.2361 82.1676C55.2155 82.5067 55.234 82.8499 55.234 83.1911C55.234 89.2334 55.234 95.2736 55.234 101.316C55.234 102.777 55.2258 102.779 53.7379 102.781C53.2261 102.781 52.7144 102.781 52.2026 102.781C51.286 102.78 50.8263 102.335 50.8236 101.447C50.8236 98.2721 50.8236 95.0989 50.8236 91.9236H50.8215Z" fill="black"/>
<path d="M98.8098 92.0008C98.8098 95.248 98.7872 98.4931 98.8263 101.74C98.8366 102.556 98.557 102.854 97.7596 102.786C96.7197 102.696 95.3407 103.031 94.7323 102.486C94.2041 102.012 94.5104 100.569 94.5083 99.5536C94.496 93.7785 94.5227 88.0034 94.4816 82.2283C94.4754 81.2788 94.7467 80.9191 95.6962 81.026C96.2696 81.0897 96.8574 81.0363 97.437 81.0383C98.3508 81.0383 98.8085 81.4809 98.8098 82.366C98.8098 85.5783 98.8098 88.7905 98.8098 92.0028V92.0008Z" fill="black"/>
<path d="M64.9102 89.4268C63.4777 89.4268 62.0432 89.3959 60.6107 89.4391C59.8359 89.4638 59.5769 89.1575 59.6221 88.4156C59.6674 87.6326 59.6509 86.8454 59.6263 86.0624C59.6078 85.4479 59.9058 85.1766 60.4812 85.1766C63.451 85.1725 66.4187 85.1684 69.3884 85.1766C70.0009 85.1766 70.3195 85.4767 70.2927 86.1364C70.2599 86.9544 70.2701 87.7744 70.2886 88.5924C70.303 89.213 70.0091 89.4391 69.4152 89.4309C67.9149 89.4144 66.4125 89.4247 64.9102 89.4268Z" fill="black"/>
<path d="M39.1823 33.7947C40.3435 33.7947 41.5047 33.7865 42.6659 33.7967C44.0182 33.8091 44.4436 34.2365 44.4498 35.5621C44.4498 35.8704 44.4539 36.1766 44.4498 36.4849C44.4354 37.5023 43.9278 38.0818 42.9063 38.0941C40.3805 38.1229 37.8526 38.127 35.3268 38.09C34.5026 38.0777 33.8737 37.7468 33.9806 36.7213C34.0299 36.2486 33.9888 35.7656 33.9888 35.2888C33.9929 34.1132 34.2848 33.8132 35.4953 33.7967C36.7243 33.7823 37.9533 33.7926 39.1823 33.7926V33.7947Z" fill="black"/>
<path d="M67.8833 33.7962C69.1452 33.7962 70.4091 33.7839 71.671 33.8003C72.6596 33.8127 73.1425 34.3162 73.1693 35.3171C73.1693 35.352 73.1693 35.3849 73.1693 35.4198C73.2042 37.8778 72.9781 38.108 70.5448 38.108C68.4629 38.108 66.3809 38.1162 64.299 38.1039C63.0659 38.0978 62.696 37.7381 62.7104 36.5358C62.7371 34.1024 62.1123 33.7387 65.4232 33.7942C66.2412 33.8086 67.0612 33.7942 67.8812 33.7962H67.8833Z" fill="black"/>
<path d="M82.3382 33.7926C83.5652 33.7926 84.7922 33.7823 86.0191 33.7967C87.0097 33.8091 87.4968 34.3105 87.5256 35.3011C87.6016 37.8516 87.357 38.1044 84.8168 38.1044C82.7719 38.1044 80.727 38.1126 78.682 38.1024C77.4017 38.0962 77.0687 37.7468 77.0626 36.4603C77.0543 34.6818 77.9264 33.7926 79.6788 33.7926C80.5646 33.7926 81.4504 33.7926 82.3362 33.7926H82.3382Z" fill="black"/>
<path d="M96.7551 57.2553C97.9862 57.2553 99.2172 57.2409 100.446 57.2594C101.564 57.2779 101.871 57.6129 101.883 58.7454C101.912 61.3781 101.751 61.5343 99.059 61.5343C97.1456 61.5343 95.2302 61.5404 93.3168 61.5343C91.7158 61.5281 91.4219 61.226 91.4219 59.6291C91.4219 58.0466 92.2083 57.2553 93.7812 57.2553C94.7718 57.2553 95.7645 57.2553 96.7551 57.2553Z" fill="black"/>
<path d="M82.1676 49.7124C81.0064 49.7124 79.8452 49.7124 78.684 49.7124C77.2577 49.7103 77.0666 49.5212 77.0625 48.1463C77.0625 47.838 77.0625 47.5318 77.0625 47.2235C77.0625 45.9431 77.4797 45.4437 78.7889 45.417C81.1112 45.3697 83.4336 45.3738 85.756 45.4149C87.1186 45.4396 87.5214 45.9308 87.5235 47.318C87.5235 47.5914 87.5235 47.8647 87.5235 48.1381C87.5152 49.3856 87.2131 49.7 85.9574 49.7103C84.6935 49.7226 83.4295 49.7124 82.1656 49.7124H82.1676Z" fill="black"/>
<path d="M67.9367 27.9468C69.1657 27.9468 70.3947 27.9365 71.6258 27.9509C72.674 27.9632 73.124 28.401 73.1672 29.406C73.2823 32.0325 73.0768 32.2442 70.4132 32.2442C68.467 32.2442 66.5207 32.2483 64.5744 32.2442C62.9919 32.2401 62.7412 31.9565 62.7001 30.4315C62.6343 28.029 62.7412 27.8892 65.1725 27.9468C66.0932 27.9694 67.016 27.9509 67.9388 27.9509L67.9367 27.9468Z" fill="black"/>
<path d="M82.2071 57.2464C83.4711 57.2464 84.733 57.2381 85.9969 57.2484C87.1108 57.2587 87.5034 57.6636 87.5321 58.7939C87.5917 61.2848 87.3575 61.5253 84.8624 61.5253C82.8833 61.5253 80.9021 61.5335 78.9229 61.5232C77.3548 61.515 77.0835 61.2232 77.0671 59.6818C77.0424 57.3676 76.8472 57.1868 79.5456 57.2422C80.4335 57.2607 81.3213 57.2443 82.2092 57.2443L82.2071 57.2464Z" fill="black"/>
<path d="M39.2014 43.8982C37.9374 43.8982 36.6714 43.9188 35.4075 43.8921C34.273 43.8674 33.9914 43.5529 33.9873 42.4185C33.9873 41.9396 34.0346 41.4566 33.977 40.9839C33.8496 39.942 34.495 39.6398 35.3129 39.6275C37.8408 39.5926 40.3708 39.5946 42.8987 39.6234C43.9633 39.6357 44.4318 40.1619 44.4462 41.2059C44.4524 41.6149 44.4586 42.0259 44.4462 42.437C44.4154 43.3577 43.9098 43.8797 42.9932 43.8921C41.7293 43.9105 40.4653 43.8962 39.1993 43.8962L39.2014 43.8982Z" fill="black"/>
<path d="M96.6147 49.7149C95.3158 49.7149 94.019 49.7108 92.7201 49.7149C91.8569 49.719 91.3575 49.3779 91.4192 48.4366C91.4438 48.0625 91.4233 47.6864 91.4233 47.3103C91.4233 45.919 91.8035 45.4442 93.1661 45.4175C95.4885 45.3702 97.8108 45.3723 100.133 45.4175C101.461 45.4422 101.882 45.9354 101.886 47.2343C101.886 47.5426 101.886 47.8488 101.886 48.1571C101.878 49.3923 101.57 49.7026 100.304 49.7129C99.0748 49.7231 97.8437 49.7149 96.6147 49.7129V49.7149Z" fill="black"/>
<path d="M53.4488 57.2418C54.7436 57.2418 56.0405 57.2315 57.3352 57.2459C58.2662 57.2562 58.7615 57.7535 58.8047 58.6743C58.9239 61.2351 58.6464 61.5228 56.0466 61.5228C54.1373 61.5228 52.2281 61.5269 50.3188 61.5228C48.6212 61.5187 48.3622 61.2453 48.3396 59.6032C48.3067 57.3918 48.1875 57.1863 50.6887 57.2418C51.6094 57.2624 52.5302 57.2459 53.4509 57.2459L53.4488 57.2418Z" fill="black"/>
<path d="M53.4604 67.2925C52.1985 67.2925 50.9345 67.2945 49.6726 67.2925C48.7868 67.2904 48.236 66.9739 48.3409 65.9546C48.3943 65.449 48.3943 64.927 48.3409 64.4214C48.236 63.4061 48.8464 63.0547 49.6747 63.0423C52.1985 63.0053 54.7243 63.0095 57.2501 63.0382C58.2901 63.0506 58.7957 63.6116 58.8121 64.6248C58.8183 64.966 58.8162 65.3072 58.8121 65.6483C58.8018 66.8609 58.3867 67.2802 57.1453 67.2945C55.9163 67.3069 54.6894 67.2966 53.4604 67.2966V67.2925Z" fill="black"/>
<path d="M39.1368 67.2903C37.8749 67.2903 36.6109 67.3068 35.349 67.2862C34.2495 67.2677 33.9988 66.9882 33.9947 65.8825C33.9926 65.4057 34.0419 64.9207 33.9844 64.45C33.8631 63.443 34.4612 63.0546 35.2853 63.0402C37.8441 62.995 40.4028 63.0011 42.9615 63.034C43.9398 63.0463 44.4351 63.6239 44.4536 64.5836C44.4618 64.9597 44.4597 65.3338 44.4536 65.7099C44.4392 66.8135 44.024 67.2616 42.9224 67.2842C41.6606 67.3088 40.3966 67.2903 39.1347 67.2903H39.1368Z" fill="black"/>
<path d="M24.6805 67.2906C23.4186 67.2906 22.1567 67.3009 20.8948 67.2865C20.0604 67.2783 19.5261 66.9679 19.6206 65.9979C19.672 65.4574 19.6761 64.9025 19.6206 64.364C19.5158 63.3754 20.1591 63.0589 20.9051 63.0446C23.4618 62.9932 26.0205 63.0014 28.5772 63.0343C29.5924 63.0466 30.0795 63.6303 30.0919 64.6641C30.096 64.9703 30.096 65.2786 30.0919 65.5848C30.0713 66.8713 29.6644 67.2783 28.3634 67.2885C27.1365 67.2988 25.9075 67.2906 24.6805 67.2885V67.2906Z" fill="black"/>
<path d="M68.0408 63.0243C69.1999 63.0243 70.3611 63.0182 71.5202 63.0243C72.6239 63.0305 73.1459 63.5402 73.1685 64.6068C73.2199 67.1676 73.0986 67.2909 70.4906 67.2909C68.3758 67.2909 66.261 67.2992 64.1462 67.2868C62.9953 67.2807 62.7178 66.9806 62.7055 65.8276C62.7014 65.3837 62.7034 64.9418 62.7055 64.4979C62.7096 63.4313 63.0652 63.049 64.1524 63.0284C65.4471 63.0038 66.744 63.0223 68.0408 63.0223V63.0243Z" fill="black"/>
<path d="M96.5218 67.2865C95.2948 67.2865 94.0699 67.2988 92.843 67.2824C91.7393 67.268 91.4495 66.97 91.4269 65.9033C91.3694 63.0302 91.3817 63.0178 94.2549 63.0178C96.2649 63.0178 98.2749 63.0117 100.283 63.0199C101.362 63.024 101.869 63.5522 101.888 64.6435C101.888 64.7113 101.888 64.7792 101.888 64.847C101.896 67.1159 101.728 67.2865 99.4833 67.2865C98.4948 67.2865 97.5083 67.2865 96.5197 67.2865H96.5218Z" fill="black"/>
<path d="M82.1116 67.2997C80.8846 67.2997 79.6597 67.2894 78.4328 67.3038C77.5203 67.3141 77.0702 66.9338 77.0517 65.9761C76.9941 63.068 77.0106 63.0331 79.9331 63.0331C81.9081 63.0331 83.8832 63.029 85.8603 63.0331C87.0132 63.0372 87.5106 63.5428 87.5229 64.6998C87.527 65.041 87.527 65.3801 87.5229 65.7213C87.5085 66.8208 87.0913 67.273 85.9939 67.2935C84.6991 67.3182 83.4043 67.2997 82.1116 67.2997Z" fill="black"/>
<path d="M82.2468 32.2395C81.0178 32.2395 79.7888 32.2683 78.5618 32.2313C77.3822 32.1963 77.0677 31.8387 77.0615 30.6775C77.0595 30.2336 77.1027 29.7856 77.0533 29.3478C76.9362 28.3305 77.5548 27.9749 78.3769 27.9606C80.9685 27.9215 83.5621 27.9421 86.1558 27.9503C86.351 27.9503 86.5586 27.9996 86.7395 28.0757C87.5081 28.4045 87.8041 29.5369 87.5143 31.1091C87.3663 31.9086 86.7867 32.223 86.0345 32.2333C84.7727 32.2518 83.5108 32.2374 82.2468 32.2374V32.2395Z" fill="black"/>
<path d="M24.8239 57.2438C26.0858 57.2438 27.3477 57.2335 28.6096 57.2479C29.5447 57.2582 30.0441 57.7514 30.0914 58.666C30.2188 61.2062 29.9105 61.5248 27.3292 61.5248C25.4199 61.5248 23.5086 61.5289 21.5993 61.5248C19.875 61.5207 19.6489 61.2802 19.6283 59.6217C19.5996 57.3712 19.4537 57.1883 22.0638 57.2418C22.9845 57.2603 23.9052 57.2459 24.8259 57.2459L24.8239 57.2438Z" fill="black"/>
<path d="M67.9275 57.2455C69.1894 57.2455 70.4533 57.2331 71.7152 57.2496C72.7141 57.2619 73.1169 57.675 73.1662 58.6718C73.2916 61.2305 73.0059 61.5244 70.4081 61.5244C68.4968 61.5244 66.5855 61.5285 64.6741 61.5244C62.9745 61.5203 62.7237 61.251 62.6991 59.5966C62.6662 57.3934 62.5449 57.1879 65.0605 57.2413C66.0162 57.2619 66.9718 57.2455 67.9275 57.2455Z" fill="black"/>
<path d="M82.2972 43.8972C81.0353 43.8972 79.7713 43.9157 78.5094 43.891C77.3647 43.8705 77.0667 43.554 77.0626 42.4483C77.053 40.5575 78.0093 39.6121 79.9316 39.6121C81.843 39.6121 83.7522 39.6059 85.6636 39.6121C87.1063 39.6183 87.5235 40.0478 87.5256 41.5008C87.5256 41.7742 87.5297 42.0475 87.5256 42.3188C87.5071 43.369 87.0138 43.8808 85.9842 43.891C84.7552 43.9034 83.5282 43.8931 82.2992 43.8931L82.2972 43.8972Z" fill="black"/>
<path d="M39.0873 57.2434C40.3821 57.2434 41.6769 57.2332 42.9716 57.2475C43.9047 57.2578 44.4021 57.7531 44.4473 58.6677C44.5706 61.2079 44.2664 61.5244 41.6851 61.5244C39.7758 61.5244 37.8686 61.5285 35.9593 61.5244C34.2617 61.5203 34.0048 61.247 33.9801 59.6048C33.9473 57.3914 33.8301 57.1879 36.3251 57.2414C37.2459 57.2619 38.1645 57.2455 39.0853 57.2455L39.0873 57.2434Z" fill="black"/>
<path d="M67.8238 49.7128C66.5619 49.7128 65.3 49.7025 64.0402 49.7169C63.1174 49.7272 62.6303 49.347 62.7064 48.3707C62.7351 47.9987 62.7454 47.6165 62.7064 47.2465C62.5666 45.9333 62.953 45.5243 64.4142 45.44C66.7592 45.3064 69.1186 45.3681 71.4697 45.4174C72.7707 45.4441 73.1735 45.9538 73.1755 47.2733C73.1755 47.6473 73.2043 48.0255 73.1694 48.3975C73.0913 49.2051 72.709 49.721 71.8171 49.7148C70.4873 49.7066 69.1576 49.7128 67.8279 49.7148L67.8238 49.7128Z" fill="black"/>
<path d="M53.5224 49.7089C52.2256 49.7089 50.9287 49.7048 49.6319 49.7089C48.7584 49.7131 48.2857 49.3452 48.3495 48.4142C48.3782 48.0072 48.3536 47.5962 48.3536 47.1852C48.3536 45.8369 48.483 45.4958 49.7717 45.4608C52.4208 45.3869 55.0741 45.5061 57.7253 45.578C58.4549 45.5985 58.8022 46.0712 58.8145 46.7926C58.8618 49.4562 58.8597 49.8322 56.0832 49.713C55.2323 49.6761 54.3774 49.7069 53.5224 49.7069V49.7089Z" fill="black"/>
<path d="M82.1396 20.4867C80.8777 20.4867 79.6158 20.4929 78.3519 20.4846C77.5051 20.4785 77.0078 20.1126 77.0571 19.1899C77.0818 18.7131 77.1044 18.2301 77.053 17.7574C76.94 16.7277 77.5257 16.2653 78.4053 16.2571C81.0277 16.2304 83.6502 16.2859 86.2747 16.3126C87.181 16.3229 87.5098 16.8387 87.5304 17.6896C87.5962 20.4106 87.5325 20.4867 84.8032 20.4867C83.9153 20.4867 83.0295 20.4867 82.1417 20.4867H82.1396Z" fill="black"/>
<path d="M67.8411 43.8951C66.6471 43.8951 65.453 43.9054 64.2589 43.8931C62.9826 43.8787 62.7072 43.5951 62.7031 42.3517C62.699 40.5253 63.6198 39.6121 65.4653 39.6121C67.4095 39.6121 69.3538 39.6059 71.3 39.6121C72.7469 39.6183 73.1641 40.0478 73.1662 41.4947C73.1662 41.7331 73.1662 41.9715 73.1662 42.2119C73.1559 43.3937 72.6811 43.8849 71.5261 43.8931C70.2971 43.8993 69.0701 43.8931 67.8411 43.8931V43.8951Z" fill="black"/>
<path d="M53.5311 43.8955C52.3021 43.8955 51.0751 43.9099 49.8461 43.8914C48.6295 43.8729 48.3479 43.5811 48.3438 42.3993C48.3369 40.5414 49.2755 39.6125 51.1594 39.6125C53.1036 39.6125 55.0478 39.6043 56.9941 39.6145C58.369 39.6207 58.8027 40.0708 58.8068 41.4478C58.8068 41.7211 58.8109 41.9945 58.8068 42.2657C58.7924 43.3756 58.3033 43.8832 57.2161 43.8914C55.9871 43.8996 54.7601 43.8914 53.5311 43.8914V43.8955Z" fill="black"/>
<path d="M39.1331 49.7126C37.8712 49.7126 36.6093 49.7023 35.3474 49.7167C34.441 49.7249 33.919 49.3837 33.991 48.3911C34.0197 47.9841 33.9951 47.5731 33.9951 47.1641C33.9951 45.8344 34.1369 45.4932 35.4378 45.4583C38.0849 45.3905 40.7382 45.5015 43.3873 45.6042C43.6915 45.6166 44.195 45.9988 44.2382 46.2701C44.3779 47.121 44.4458 48.0109 44.3368 48.8617C44.2587 49.4742 43.6894 49.7372 43.0215 49.7228C41.7267 49.6941 40.4299 49.7146 39.1331 49.7146V49.7126Z" fill="black"/>
<path d="M24.7337 49.7186C23.4739 49.7186 22.212 49.7083 20.9521 49.7227C20.0252 49.733 19.5505 49.3405 19.6265 48.3683C19.6574 47.9614 19.6882 47.5422 19.6204 47.1434C19.4292 46.0254 20.054 45.4849 20.9973 45.4746C23.7102 45.4459 26.4251 45.5281 29.14 45.6062C29.3846 45.6123 29.808 45.898 29.8285 46.0871C29.9292 47.0407 30.0361 48.0231 29.8943 48.9561C29.847 49.2665 29.0784 49.6467 28.616 49.6816C27.3294 49.7803 26.0285 49.7166 24.7337 49.7166V49.7186Z" fill="black"/>
<path d="M96.5869 55.564C95.325 55.564 94.0652 55.5722 92.8033 55.562C91.7634 55.5537 91.4387 55.2064 91.4284 54.148C91.4017 51.4803 91.1756 51.355 94.131 51.3961C96.1759 51.4249 98.2208 51.3961 100.266 51.4043C101.573 51.4105 101.883 51.7331 101.889 53.03C101.889 53.4389 101.893 53.8479 101.889 54.2569C101.879 55.1201 101.474 55.5763 100.576 55.5681C99.2464 55.5537 97.9166 55.564 96.589 55.564H96.5869Z" fill="black"/>
<path d="M67.8683 55.5639C66.6064 55.5639 65.3466 55.5722 64.0847 55.5619C63.0427 55.5537 62.7118 55.2043 62.7016 54.1561C62.6769 51.4844 62.4426 51.3549 65.3959 51.396C67.4758 51.4248 69.5536 51.3919 71.6335 51.4063C72.8193 51.4145 73.1502 51.7618 73.1625 52.9189C73.1831 54.6823 72.3041 55.5639 70.5257 55.5639C69.6399 55.5639 68.7541 55.5639 67.8663 55.5639H67.8683Z" fill="black"/>
<path d="M82.2893 26.2637C80.9555 26.2637 79.6237 26.2637 78.2899 26.2637C77.4719 26.2637 77.0054 25.9246 77.0588 25.0326C77.0897 24.488 77.0897 23.9372 77.0588 23.3926C77.0095 22.4945 77.4945 22.1759 78.3063 22.1759C80.9041 22.1759 83.5019 22.1636 86.0976 22.1821C87.2074 22.1903 87.5136 22.5397 87.526 23.6762C87.5438 25.4026 86.6868 26.2657 84.9549 26.2657C84.0671 26.2657 83.1772 26.2657 82.2893 26.2657V26.2637Z" fill="black"/>
<path d="M82.2985 55.5655C81.0038 55.5655 79.709 55.5614 78.4122 55.5655C77.5038 55.5696 77.0516 55.1832 77.0578 54.2214C77.0742 51.4695 76.7433 51.3503 79.9022 51.3976C81.8793 51.4263 83.8564 51.3976 85.8335 51.4058C87.2166 51.4099 87.5249 51.7202 87.529 53.0623C87.529 53.4034 87.5331 53.7446 87.529 54.0858C87.5146 55.2017 87.1694 55.5593 86.0822 55.5655C84.8203 55.5717 83.5604 55.5655 82.2985 55.5655Z" fill="black"/>
<path d="M53.5454 55.5623C52.2465 55.5623 50.9476 55.5664 49.6508 55.5623C48.7999 55.5582 48.3026 55.1985 48.3478 54.2696C48.3725 53.7578 48.3766 53.244 48.3478 52.7323C48.2923 51.7478 48.8102 51.3964 49.7145 51.3984C52.2424 51.4046 54.7724 51.3902 57.3002 51.4067C58.4553 51.4128 58.7882 51.7766 58.8129 52.9583C58.819 53.2666 58.817 53.5728 58.8129 53.8811C58.7985 55.2273 58.4655 55.5623 57.1338 55.5623C55.9376 55.5623 54.7415 55.5623 53.5454 55.5623Z" fill="black"/>
<path d="M24.7514 51.4022C26.0482 51.4022 27.3471 51.3857 28.6439 51.4063C29.6345 51.4227 30.0476 51.8523 30.0929 52.8429C30.2121 55.3893 30.0456 55.564 27.4786 55.564C25.3268 55.564 23.1771 55.5701 21.0253 55.5619C19.8888 55.5557 19.6401 55.3029 19.6319 54.1993C19.6134 51.4823 19.3298 51.3405 22.3941 51.4001C23.1792 51.4145 23.9643 51.4022 24.7493 51.4042L24.7514 51.4022Z" fill="black"/>
<path d="M39.1456 55.5668C37.8837 55.5668 36.6218 55.5627 35.3599 55.5668C34.4618 55.5709 33.9809 55.2133 33.9871 54.2392C34.0076 51.4832 33.6582 51.3516 36.815 51.3968C38.827 51.4277 40.8391 51.3968 42.8511 51.4051C44.037 51.4112 44.4336 51.8161 44.4583 52.9917C44.5076 55.4394 44.3822 55.5648 41.9078 55.5648C40.9871 55.5648 40.0663 55.5648 39.1456 55.5648V55.5668Z" fill="black"/>
<path d="M53.097 71.2972C54.6301 71.324 55.8715 72.6126 55.8489 74.156C55.8263 75.683 54.4945 76.949 52.9778 76.8894C51.4713 76.8298 50.2608 75.5679 50.2896 74.0841C50.3204 72.5016 51.5597 71.2726 53.099 71.2972H53.097Z" fill="black"/>
<path d="M99.4216 74.1125C99.4216 75.7073 98.2173 76.9117 96.6492 76.8891C95.1489 76.8665 93.9281 75.6313 93.9219 74.1289C93.9137 72.569 95.153 71.301 96.6862 71.2969C98.2276 71.2948 99.4237 72.5238 99.4237 74.1125H99.4216Z" fill="black"/>
</svg>
