<svg width="121" height="120" viewBox="0 0 121 120" fill="none" xmlns="http://www.w3.org/2000/svg">
<rect width="120" height="120" transform="translate(0.835938)" fill="white"/>
<circle cx="32.0859" cy="73.75" r="17.5" fill="white"/>
<mask id="path-2-inside-1_14614_38785" fill="white">
<rect x="24.1094" y="23.2734" width="73.4559" height="73.4559" rx="4.76103"/>
</mask>
<rect x="24.1094" y="23.2734" width="73.4559" height="73.4559" rx="4.76103" stroke="black" stroke-width="14.9632" mask="url(#path-2-inside-1_14614_38785)"/>
<path d="M31.5859 52.5198H39.7477C40.1233 52.5198 40.4278 52.2152 40.4278 51.8396V40.9573C40.4278 40.5816 40.7324 40.2771 41.108 40.2771H54.0308C54.4064 40.2771 54.7109 39.9726 54.7109 39.597V29.0547" stroke="black" stroke-width="2.04044"/>
<path d="M67.9807 27.6953V37.9615C67.9807 38.1385 67.9116 38.3086 67.7882 38.4356L56.0781 50.4802" stroke="black" stroke-width="2.04044"/>
<path d="M31.5859 79.0335H46.3029C46.462 79.0335 46.6161 78.9778 46.7383 78.8759L50.4409 75.7905C50.5631 75.6886 50.7172 75.6328 50.8763 75.6328H59.812" stroke="black" stroke-width="2.04044"/>
<path d="M81.2413 89.5804V76.2592C81.2413 76.0788 81.1696 75.9058 81.0421 75.7783L77.0195 71.7557C76.892 71.6282 76.8203 71.4552 76.8203 71.2748V63.0547" stroke="black" stroke-width="2.04044"/>
<path d="M89.4062 103.869C89.4062 105.184 88.3405 106.25 87.0257 106.25C85.711 106.25 84.6452 105.184 84.6452 103.869L84.6452 96.7279L89.4062 96.7279L89.4062 103.869Z" fill="black"/>
<path d="M79.2031 103.869C79.2031 105.184 78.1373 106.25 76.8226 106.25C75.5079 106.25 74.4421 105.184 74.4421 103.869L74.4421 96.7279L79.2031 96.7279L79.2031 103.869Z" fill="black"/>
<path d="M69.0078 103.869C69.0078 105.184 67.942 106.25 66.6273 106.25C65.3126 106.25 64.2468 105.184 64.2468 103.869L64.2468 96.7279L69.0078 96.7279L69.0078 103.869Z" fill="black"/>
<path d="M58.7969 103.869C58.7969 105.184 57.7311 106.25 56.4164 106.25C55.1016 106.25 54.0358 105.184 54.0358 103.869L54.0358 96.7279L58.7969 96.7279L58.7969 103.869Z" fill="black"/>
<path d="M48.5937 103.869C48.5937 105.184 47.528 106.25 46.2132 106.25C44.8985 106.25 43.8327 105.184 43.8327 103.869L43.8327 96.7279L48.5937 96.7279L48.5937 103.869Z" fill="black"/>
<path d="M38.3984 103.869C38.3984 105.184 37.3326 106.25 36.0179 106.25C34.7032 106.25 33.6374 105.184 33.6374 103.869L33.6374 96.7279L38.3984 96.7279L38.3984 103.869Z" fill="black"/>
<path d="M33.6328 16.1305C33.6328 14.8158 34.6986 13.75 36.0133 13.75C37.328 13.75 38.3938 14.8158 38.3938 16.1305L38.3938 23.2721L33.6328 23.2721L33.6328 16.1305Z" fill="black"/>
<path d="M43.8359 16.1305C43.8359 14.8158 44.9017 13.75 46.2165 13.75C47.5312 13.75 48.597 14.8158 48.597 16.1305L48.597 23.2721L43.8359 23.2721L43.8359 16.1305Z" fill="black"/>
<path d="M54.0312 16.1305C54.0312 14.8158 55.097 13.75 56.4118 13.75C57.7265 13.75 58.7923 14.8158 58.7923 16.1305L58.7923 23.2721L54.0312 23.2721L54.0312 16.1305Z" fill="black"/>
<path d="M64.2344 16.1305C64.2344 14.8158 65.3002 13.75 66.6149 13.75C67.9296 13.75 68.9954 14.8158 68.9954 16.1305L68.9954 23.2721L64.2344 23.2721L64.2344 16.1305Z" fill="black"/>
<path d="M74.4453 16.1305C74.4453 14.8158 75.5111 13.75 76.8258 13.75C78.1405 13.75 79.2063 14.8158 79.2063 16.1305L79.2063 23.2721L74.4453 23.2721L74.4453 16.1305Z" fill="black"/>
<path d="M84.6406 16.1305C84.6406 14.8158 85.7064 13.75 87.0211 13.75C88.3359 13.75 89.4017 14.8158 89.4017 16.1305L89.4017 23.2721L84.6406 23.2721L84.6406 16.1305Z" fill="black"/>
<path d="M16.9665 87.875C15.6517 87.875 14.5859 86.8092 14.5859 85.4945C14.5859 84.1798 15.6517 83.114 16.9665 83.114L24.108 83.114L24.108 87.875L16.9665 87.875Z" fill="black"/>
<path d="M16.9665 77.6719C15.6517 77.6719 14.5859 76.6061 14.5859 75.2914C14.5859 73.9766 15.6517 72.9108 16.9665 72.9108L24.108 72.9108L24.108 77.6719L16.9665 77.6719Z" fill="black"/>
<path d="M16.9665 67.4766C15.6517 67.4766 14.5859 66.4108 14.5859 65.096C14.5859 63.7813 15.6517 62.7155 16.9665 62.7155L24.108 62.7155L24.108 67.4766L16.9665 67.4766Z" fill="black"/>
<path d="M16.9665 57.2578C15.6517 57.2578 14.5859 56.192 14.5859 54.8773C14.5859 53.5626 15.6517 52.4968 16.9665 52.4968L24.108 52.4968L24.108 57.2578L16.9665 57.2578Z" fill="black"/>
<path d="M16.9665 47.0625C15.6517 47.0625 14.5859 45.9967 14.5859 44.682C14.5859 43.3673 15.6517 42.3015 16.9665 42.3015L24.108 42.3015L24.108 47.0625L16.9665 47.0625Z" fill="black"/>
<path d="M16.9665 36.8594C15.6517 36.8594 14.5859 35.7936 14.5859 34.4789C14.5859 33.1641 15.6517 32.0983 16.9665 32.0983L24.108 32.0983L24.108 36.8594L16.9665 36.8594Z" fill="black"/>
<path d="M104.705 32.125C106.02 32.125 107.086 33.1908 107.086 34.5055C107.086 35.8202 106.02 36.886 104.705 36.886L97.5639 36.886L97.5639 32.125L104.705 32.125Z" fill="black"/>
<path d="M104.705 42.3281C106.02 42.3281 107.086 43.3939 107.086 44.7086C107.086 46.0234 106.02 47.0892 104.705 47.0892L97.5639 47.0892L97.5639 42.3281L104.705 42.3281Z" fill="black"/>
<path d="M104.705 52.5234C106.02 52.5234 107.086 53.5892 107.086 54.904C107.086 56.2187 106.02 57.2845 104.705 57.2845L97.5639 57.2845L97.5639 52.5234L104.705 52.5234Z" fill="black"/>
<path d="M104.705 62.7422C106.02 62.7422 107.086 63.808 107.086 65.1227C107.086 66.4374 106.02 67.5032 104.705 67.5032L97.5639 67.5032L97.5639 62.7422L104.705 62.7422Z" fill="black"/>
<path d="M104.705 72.9375C106.02 72.9375 107.086 74.0033 107.086 75.318C107.086 76.6327 106.02 77.6985 104.705 77.6985L97.5639 77.6985L97.5639 72.9375L104.705 72.9375Z" fill="black"/>
<path d="M104.705 83.1406C106.02 83.1406 107.086 84.2064 107.086 85.5211C107.086 86.8359 106.02 87.9017 104.705 87.9017L97.5639 87.9017L97.5639 83.1406L104.705 83.1406Z" fill="black"/>
<circle cx="53.3543" cy="53.1903" r="3.06066" stroke="black" stroke-width="2.04044"/>
<circle cx="62.8778" cy="75.6434" r="3.06066" stroke="black" stroke-width="2.04044"/>
<circle cx="77.1512" cy="60.6824" r="3.06066" stroke="black" stroke-width="2.04044"/>
<path d="M80.2215 27.6953V46.3994C80.2215 46.775 79.917 47.0795 79.5414 47.0795H71.3212C71.1409 47.0795 70.9679 47.1512 70.8403 47.2787L64.0972 54.0218C63.9696 54.1494 63.898 54.3224 63.898 54.5028V59.3805C63.898 59.5609 63.8263 59.7339 63.6988 59.8614L57.9759 65.5843C57.8483 65.7119 57.6753 65.7835 57.4949 65.7835H29.8906" stroke="black" stroke-width="2.04044"/>
</svg>
