<svg width="121" height="120" viewBox="0 0 121 120" fill="none" xmlns="http://www.w3.org/2000/svg">
<rect width="120" height="120" transform="translate(0.5)" fill="white"/>
<rect x="8" y="34.8359" width="103.79" height="50.3226" fill="black" stroke="black" stroke-width="3.75"/>
<line x1="73.8281" y1="27.5" x2="73.8281" y2="34.8387" stroke="black" stroke-width="3.75"/>
<line x1="86.4062" y1="27.5" x2="86.4062" y2="34.8387" stroke="black" stroke-width="3.75"/>
<line x1="99" y1="27.5" x2="99" y2="34.8387" stroke="black" stroke-width="3.75"/>
<line x1="61.25" y1="27.5" x2="61.25" y2="34.8387" stroke="black" stroke-width="3.75"/>
<line x1="48.6719" y1="27.5" x2="48.6719" y2="34.8387" stroke="black" stroke-width="3.75"/>
<line x1="36.0859" y1="27.5" x2="36.0859" y2="34.8387" stroke="black" stroke-width="3.75"/>
<line x1="23.5078" y1="27.5" x2="23.5078" y2="34.8387" stroke="black" stroke-width="3.75"/>
<line x1="73.8281" y1="85.1563" x2="73.8281" y2="92.495" stroke="black" stroke-width="3.75"/>
<line x1="86.4062" y1="85.1563" x2="86.4062" y2="92.495" stroke="black" stroke-width="3.75"/>
<line x1="99" y1="85.1563" x2="99" y2="92.495" stroke="black" stroke-width="3.75"/>
<line x1="61.25" y1="85.1563" x2="61.25" y2="92.495" stroke="black" stroke-width="3.75"/>
<line x1="48.6719" y1="85.1563" x2="48.6719" y2="92.495" stroke="black" stroke-width="3.75"/>
<line x1="36.0859" y1="85.1563" x2="36.0859" y2="92.495" stroke="black" stroke-width="3.75"/>
<line x1="23.5078" y1="85.1563" x2="23.5078" y2="92.495" stroke="black" stroke-width="3.75"/>
<path d="M34.293 51.4766H40.1768C41.5114 51.4766 42.6385 51.68 43.5581 52.0869C44.4858 52.4938 45.1898 53.096 45.6699 53.8936C46.1582 54.6829 46.4023 55.6554 46.4023 56.811C46.4023 57.6248 46.2355 58.3695 45.9019 59.0449C45.5763 59.7122 45.1043 60.2819 44.4858 60.7539C43.8755 61.2178 43.1431 61.5636 42.2886 61.7915L41.6294 62.0479H36.0996L36.0752 60.1313H40.25C41.0964 60.1313 41.8003 59.9849 42.3618 59.6919C42.9233 59.3908 43.3465 58.988 43.6313 58.4834C43.9162 57.9788 44.0586 57.4214 44.0586 56.811C44.0586 56.1274 43.9243 55.5293 43.6558 55.0166C43.3872 54.5039 42.964 54.1092 42.3862 53.8325C41.8166 53.5477 41.0801 53.4053 40.1768 53.4053H36.6489V69.25H34.293V51.4766ZM44.6812 69.25L40.3599 61.1934L42.8135 61.1812L47.1958 69.1035V69.25H44.6812ZM56.2778 53.0513L50.394 69.25H47.9893L54.7642 51.4766H56.3145L56.2778 53.0513ZM61.2095 69.25L55.3135 53.0513L55.2769 51.4766H56.8271L63.6265 69.25H61.2095ZM60.9043 62.6704V64.5991H50.9189V62.6704H60.9043ZM66.7515 51.4766H69.0342L74.8569 65.9663L80.6675 51.4766H82.9624L75.7358 69.25H73.9536L66.7515 51.4766ZM66.0068 51.4766H68.021L68.3506 62.3164V69.25H66.0068V51.4766ZM81.6807 51.4766H83.6948V69.25H81.3511V62.3164L81.6807 51.4766Z" fill="white"/>
</svg>
