<svg width="121" height="120" viewBox="0 0 121 120" fill="none" xmlns="http://www.w3.org/2000/svg">
<rect width="120" height="120" transform="translate(0.5)" fill="white"/>
<rect x="18" y="17.5" width="85" height="85" rx="3.75" stroke="black" stroke-width="3.75"/>
<rect x="26.75" y="26.25" width="67.5" height="67.5" rx="2.5" fill="black"/>
<line x1="103" y1="33.125" x2="109.25" y2="33.125" stroke="black" stroke-width="3.75"/>
<line x1="103" y1="43.125" x2="109.25" y2="43.125" stroke="black" stroke-width="3.75"/>
<line x1="103" y1="53.125" x2="109.25" y2="53.125" stroke="black" stroke-width="3.75"/>
<line x1="103" y1="63.125" x2="109.25" y2="63.125" stroke="black" stroke-width="3.75"/>
<line x1="103" y1="73.125" x2="109.25" y2="73.125" stroke="black" stroke-width="3.75"/>
<line x1="103" y1="83.125" x2="109.25" y2="83.125" stroke="black" stroke-width="3.75"/>
<line x1="11.75" y1="33.125" x2="18" y2="33.125" stroke="black" stroke-width="3.75"/>
<line x1="11.75" y1="43.125" x2="18" y2="43.125" stroke="black" stroke-width="3.75"/>
<line x1="11.75" y1="53.125" x2="18" y2="53.125" stroke="black" stroke-width="3.75"/>
<line x1="11.75" y1="63.125" x2="18" y2="63.125" stroke="black" stroke-width="3.75"/>
<line x1="11.75" y1="73.125" x2="18" y2="73.125" stroke="black" stroke-width="3.75"/>
<line x1="11.75" y1="83.125" x2="18" y2="83.125" stroke="black" stroke-width="3.75"/>
<line x1="87.375" y1="102.5" x2="87.375" y2="108.75" stroke="black" stroke-width="3.75"/>
<line x1="77.375" y1="102.5" x2="77.375" y2="108.75" stroke="black" stroke-width="3.75"/>
<line x1="67.375" y1="102.5" x2="67.375" y2="108.75" stroke="black" stroke-width="3.75"/>
<line x1="57.375" y1="102.5" x2="57.375" y2="108.75" stroke="black" stroke-width="3.75"/>
<line x1="47.375" y1="102.5" x2="47.375" y2="108.75" stroke="black" stroke-width="3.75"/>
<line x1="37.375" y1="102.5" x2="37.375" y2="108.75" stroke="black" stroke-width="3.75"/>
<line x1="87.375" y1="11.25" x2="87.375" y2="17.5" stroke="black" stroke-width="3.75"/>
<line x1="77.375" y1="11.25" x2="77.375" y2="17.5" stroke="black" stroke-width="3.75"/>
<line x1="67.375" y1="11.25" x2="67.375" y2="17.5" stroke="black" stroke-width="3.75"/>
<line x1="57.375" y1="11.25" x2="57.375" y2="17.5" stroke="black" stroke-width="3.75"/>
<line x1="47.375" y1="11.25" x2="47.375" y2="17.5" stroke="black" stroke-width="3.75"/>
<line x1="37.375" y1="11.25" x2="37.375" y2="17.5" stroke="black" stroke-width="3.75"/>
<path d="M50.2949 51.4766H52.6387V63.5005C52.6387 64.8351 52.3416 65.946 51.7476 66.833C51.1535 67.7201 50.3641 68.3874 49.3794 68.835C48.4028 69.2744 47.3408 69.4941 46.1934 69.4941C44.9889 69.4941 43.8984 69.2744 42.9219 68.835C41.9535 68.3874 41.1844 67.7201 40.6147 66.833C40.0532 65.946 39.7725 64.8351 39.7725 63.5005V51.4766H42.104V63.5005C42.104 64.4282 42.2749 65.1932 42.6167 65.7954C42.9585 66.3976 43.4346 66.8452 44.0449 67.1382C44.6634 67.4312 45.3796 67.5776 46.1934 67.5776C47.0153 67.5776 47.7314 67.4312 48.3418 67.1382C48.9603 66.8452 49.4404 66.3976 49.7822 65.7954C50.124 65.1932 50.2949 64.4282 50.2949 63.5005V51.4766ZM58.6934 51.4766V69.25H56.3374V51.4766H58.6934ZM66.1396 59.4722V61.4009H58.1807V59.4722H66.1396ZM67.3481 51.4766V53.4053H58.1807V51.4766H67.3481ZM79.6284 64.7578C79.6284 64.3428 79.5633 63.9766 79.4331 63.6592C79.311 63.3337 79.0913 63.0407 78.7739 62.7803C78.4647 62.5199 78.0334 62.2716 77.48 62.0356C76.9347 61.7996 76.243 61.5596 75.4048 61.3154C74.5259 61.055 73.7324 60.7661 73.0244 60.4487C72.3164 60.1232 71.7101 59.7529 71.2056 59.3379C70.701 58.9229 70.3145 58.4468 70.0459 57.9097C69.7773 57.3726 69.6431 56.7581 69.6431 56.0664C69.6431 55.3747 69.7855 54.7358 70.0703 54.1499C70.3551 53.564 70.762 53.0553 71.291 52.624C71.8281 52.1846 72.467 51.8428 73.2075 51.5986C73.9481 51.3545 74.7741 51.2324 75.6855 51.2324C77.0202 51.2324 78.1514 51.4888 79.0791 52.0015C80.015 52.506 80.7271 53.1693 81.2153 53.9912C81.7036 54.805 81.9478 55.6758 81.9478 56.6035H79.604C79.604 55.9362 79.4616 55.3462 79.1768 54.8335C78.8919 54.3127 78.4606 53.9058 77.8828 53.6128C77.305 53.3117 76.5726 53.1611 75.6855 53.1611C74.8473 53.1611 74.1556 53.2873 73.6104 53.5396C73.0651 53.7918 72.6582 54.1336 72.3896 54.5649C72.1292 54.9963 71.999 55.4886 71.999 56.042C71.999 56.4163 72.0763 56.7581 72.231 57.0674C72.3937 57.3685 72.6419 57.6493 72.9756 57.9097C73.3174 58.1701 73.7487 58.4102 74.2695 58.6299C74.7985 58.8496 75.4292 59.0612 76.1616 59.2646C77.1707 59.5495 78.0415 59.8669 78.7739 60.2168C79.5063 60.5667 80.1086 60.9614 80.5806 61.4009C81.0607 61.8322 81.4147 62.3245 81.6426 62.8779C81.8786 63.4232 81.9966 64.0417 81.9966 64.7334C81.9966 65.4577 81.8501 66.1128 81.5571 66.6987C81.2642 67.2847 80.8451 67.7852 80.2998 68.2002C79.7546 68.6152 79.0994 68.9367 78.3345 69.1646C77.5776 69.3843 76.7313 69.4941 75.7954 69.4941C74.9735 69.4941 74.1637 69.3802 73.3662 69.1523C72.5768 68.9245 71.8566 68.5827 71.2056 68.127C70.5627 67.6712 70.0459 67.1097 69.6553 66.4424C69.2728 65.7669 69.0815 64.9857 69.0815 64.0986H71.4253C71.4253 64.709 71.5433 65.2339 71.7793 65.6733C72.0153 66.1047 72.3368 66.4627 72.7437 66.7476C73.1587 67.0324 73.6266 67.244 74.1475 67.3823C74.6764 67.5125 75.2257 67.5776 75.7954 67.5776C76.6174 67.5776 77.3132 67.4637 77.8828 67.2358C78.4525 67.008 78.8838 66.6825 79.1768 66.2593C79.4779 65.8361 79.6284 65.3356 79.6284 64.7578Z" fill="white"/>
</svg>
