<svg width="121" height="120" viewBox="0 0 121 120" fill="none" xmlns="http://www.w3.org/2000/svg">
<rect width="120" height="120" transform="translate(0.164062)" fill="white"/>
<path d="M59.1302 84.2277C48.9494 84.2277 38.716 84.2277 28.5352 84.2277C26.2261 84.2277 24.022 83.8079 21.9754 82.7059C17.987 80.6067 15.468 77.353 14.5759 72.9448C13.5263 67.592 15.3106 63.0789 19.4564 59.5628C22.0803 57.3587 25.1766 56.4141 28.5877 56.4141C49.3167 56.4141 70.0458 56.4141 90.7748 56.4141C94.1335 56.4141 97.1247 57.4112 99.7487 59.5628C102.425 61.7669 104.104 64.6532 104.682 68.1168C105.259 71.5804 104.577 74.7816 102.74 77.6679C100.536 81.1315 97.3871 83.2306 93.3988 83.9653C92.5066 84.1228 91.6145 84.1753 90.7224 84.1753C80.1741 84.1753 69.6784 84.1753 59.1302 84.1753V84.2277ZM59.2352 80.5018C69.8359 80.5018 80.3841 80.5018 90.9848 80.5018C91.5095 80.5018 92.0343 80.5018 92.5066 80.3968C95.183 80.0294 97.3871 78.7175 99.0665 76.6183C100.798 74.4142 101.533 71.8428 101.166 69.0614C100.903 67.1197 100.221 65.3879 98.9615 63.9185C96.8624 61.3995 94.186 60.1925 90.8798 60.1925C69.9933 60.1925 49.1593 60.1925 28.2728 60.1925C26.646 60.1925 25.1241 60.5074 23.7072 61.2421C20.0336 63.0788 17.882 66.8573 18.0395 70.6358C18.2494 74.5192 20.0336 77.4055 23.3923 79.3472C25.0191 80.2918 26.8034 80.5018 28.6401 80.5018C38.821 80.5018 49.0543 80.5018 59.2352 80.5018Z" fill="black"/>
<path d="M68.4256 44.2362V42.1896C70.2099 43.1867 71.9417 44.1313 73.6735 45.1284C71.9417 46.1255 70.2099 47.0701 68.4256 48.0672V46.0205H49.5333C49.5333 46.0205 49.7957 46.2829 49.9007 46.4403C51.3701 47.8573 52.787 49.2742 54.2564 50.6911C54.7812 51.2159 55.4109 51.4258 56.1456 51.4258C57.0902 51.4258 58.0348 51.4258 58.927 51.4258C59.1369 51.4258 59.1894 51.3209 59.1894 51.1634C59.1894 50.5862 59.1894 50.0089 59.1894 49.3791H64.6472C64.6472 49.3791 64.6472 49.6415 64.6472 49.7465C64.6472 51.2159 64.6472 52.6853 64.6472 54.2072C64.6472 54.5221 64.5947 54.5745 64.2798 54.5745C62.653 54.5745 61.0786 54.5745 59.4518 54.5745C59.1894 54.5745 59.0844 54.5221 59.0844 54.2072C59.0844 53.8923 59.0844 53.6299 59.0844 53.315C59.0844 53.1051 58.9795 53.0002 58.7696 53.0002C58.0348 53.0002 57.3001 53.0002 56.5654 53.0002C55.7783 53.0002 54.9911 53.0002 54.2564 52.5803C53.8366 52.3704 53.4167 52.108 53.0494 51.7932C51.4225 50.3762 49.8482 48.9593 48.2738 47.4899C47.959 47.175 47.6441 46.8077 47.3817 46.4403C47.0143 45.968 46.542 45.7056 45.9648 45.7056C45.4925 45.7056 44.9677 45.7056 44.4954 45.7056C42.5537 45.7056 40.6119 45.7056 38.6702 45.7056C38.6702 45.7056 38.5653 45.7056 38.5128 45.7056C38.5128 45.8631 38.5128 46.0205 38.5128 46.1779C38.7227 47.385 38.4078 48.487 37.6731 49.4841C36.5711 50.9535 35.1017 51.7407 33.3174 52.0556C31.9005 52.3179 30.4836 52.3704 29.0666 52.0031C27.8596 51.6882 26.9675 51.006 26.7576 49.6415C26.6526 49.0643 26.7576 48.5395 26.7576 47.9622C26.7576 47.7523 26.8625 47.5949 27.1249 47.5949C28.0695 47.5949 28.9617 47.5949 29.9063 47.5949C29.9588 47.5949 30.1162 47.7523 30.1162 47.8573C30.1162 48.1721 30.1162 48.4345 30.1162 48.7494C30.1162 49.4316 30.4836 49.9564 31.0608 50.1138C32.3728 50.5337 33.6848 50.6386 34.8393 49.694C35.2066 49.3791 35.574 48.9593 35.8364 48.5395C36.3612 47.6998 36.0463 46.7552 35.1542 46.3879C34.5244 46.1255 33.8422 45.968 33.2125 45.7581C32.3728 45.4432 31.5331 45.1809 30.746 44.8135C28.9617 43.9738 28.6468 42.3995 29.2766 40.6677C30.0637 38.726 31.6381 37.6764 33.6323 37.3091C34.8393 37.0467 36.0988 36.9417 37.3058 37.2041C38.1454 37.414 38.8277 37.8338 39.4049 38.4636C39.9822 39.1458 40.0872 39.9855 39.9822 40.8251C39.9297 41.3499 39.8772 41.3499 39.4049 41.2974C38.7752 41.2974 38.093 41.2974 37.4632 41.2974C37.2533 41.2974 37.1484 41.2974 37.2008 41.035C37.2008 39.933 36.5186 39.1983 35.4166 39.1458C34.9443 39.1458 34.4719 39.0933 33.9996 39.1458C32.8976 39.4082 32.2154 40.0904 31.848 41.14C31.5331 42.0321 31.848 42.8193 32.7401 43.1342C33.8947 43.6065 35.0492 43.9738 36.3087 43.9214C37.5157 43.8689 38.7227 43.9214 39.9297 43.9214C40.2971 43.9214 40.5595 43.8164 40.8219 43.554C42.7111 41.6648 44.6528 39.7756 46.542 37.8338C47.4342 36.9417 48.4313 36.5219 49.6907 36.5219C50.7403 36.5219 51.7374 36.5219 52.787 36.5219C52.9969 36.5219 53.1543 36.4694 53.2593 36.2595C53.7316 35.4198 54.5713 35 55.5159 35C56.3555 35 57.0902 35.3149 57.4576 36.1021C58.4547 38.1487 57.5101 39.933 55.3584 40.4053C54.3613 40.6152 53.1019 39.7756 52.7345 38.7785C52.6296 38.4636 52.4721 38.3586 52.1572 38.3586C51.2651 38.3586 50.373 38.3586 49.4808 38.4636C48.956 38.4636 48.4837 38.7785 48.1164 39.1458C46.4896 40.7726 44.8627 42.3995 43.2359 44.0788C43.2359 44.0788 43.1834 44.1838 43.0784 44.2887H68.2682L68.4256 44.2362Z" fill="black"/>
<path d="M87.658 53.8923C87.658 53.8923 87.3956 53.8923 87.2906 53.8923C86.1886 53.8923 85.0341 53.8923 83.932 53.8923C83.7221 53.8923 83.6171 53.8398 83.6696 53.6299C83.6696 47.4899 83.6696 41.2974 83.6696 35.1574C83.6696 35.1574 83.6696 35.0525 83.6696 35C83.8271 35 83.932 35 84.0895 35C88.2353 35 92.3286 35 96.4744 35C98.2587 35 99.8855 35.3673 101.407 36.2595C102.719 36.9942 103.769 38.0962 104.661 39.3032C105.711 40.7202 106.078 42.347 106.34 44.0788C106.445 44.866 106.55 45.6007 106.34 46.3354C106.235 46.7552 106.13 47.175 105.921 47.5949C105.553 48.382 105.238 49.2217 104.714 49.9039C104.241 50.5862 103.612 51.2159 102.982 51.7932C101.302 53.315 99.3083 54.0497 96.9992 54.0497C95.11 54.0497 93.2207 54.0497 91.3315 54.0497C91.0166 54.0497 90.9117 53.9448 90.9117 53.6299C90.9117 52.6328 90.9117 51.5833 90.9117 50.5862C90.9117 50.3238 91.0166 50.2188 91.279 50.2188C92.9059 50.2188 94.5327 50.2188 96.212 50.2188C98.1012 50.2188 99.7281 49.4316 100.725 47.8048C101.25 46.9651 101.565 46.0205 101.565 45.0234C101.565 43.7115 101.25 42.5044 100.515 41.4024C100.463 41.2974 100.41 41.1925 100.305 41.0875C99.2558 40.0904 98.1012 39.1983 96.6318 38.8309C96.3695 38.7785 96.1071 38.726 95.8447 38.726C93.1683 38.726 90.5443 38.726 87.8679 38.726C87.8154 38.726 87.7105 38.726 87.6055 38.726V54.0497L87.658 53.8923Z" fill="black"/>
<path d="M25.8492 41.2962C25.5343 41.2962 25.167 41.2962 24.8521 41.2962C24.5897 41.2962 24.4847 41.2438 24.4847 40.9814C24.4847 40.8239 24.4847 40.6665 24.4323 40.5091C24.3273 39.7744 23.855 39.3021 23.1728 39.1446C22.2806 38.9347 21.336 38.9872 20.4964 39.4595C19.8141 39.8268 19.3418 40.4041 19.1319 41.1388C18.922 41.8735 19.0794 42.7132 19.8666 43.028C20.7588 43.3429 21.7034 43.6053 22.5955 43.9202C23.2777 44.1301 23.96 44.34 24.5897 44.6024C26.0591 45.2321 26.4264 46.5966 26.0066 48.066C25.5868 49.5879 24.5897 50.6899 23.1728 51.3721C21.1261 52.4217 18.9745 52.5791 16.8229 52.1068C14.9336 51.687 14.1464 50.5325 14.2514 48.6432C14.2514 48.3809 14.3564 48.1185 14.3564 47.8561C14.3564 47.5937 14.4613 47.5412 14.6712 47.5412C15.4059 47.5412 16.1406 47.5412 16.9278 47.5412C16.9803 47.5412 17.1377 47.6986 17.1377 47.7511C17.1377 48.066 17.1377 48.3284 17.1377 48.6432C17.1902 49.6403 17.6625 50.2176 18.6071 50.375C19.5517 50.5325 20.4964 50.585 21.441 50.1651C22.1232 49.7978 22.648 49.273 22.9104 48.5383C23.2777 47.5937 23.0153 46.754 22.0707 46.3867C21.336 46.1243 20.5488 45.9144 19.8141 45.7044C18.817 45.3896 17.8724 45.0747 17.0328 44.445C16.2981 43.9202 15.8258 42.9756 16.0357 41.9785C16.508 39.4595 18.3447 37.7802 20.9687 37.3079C22.1757 37.098 23.3827 36.993 24.5897 37.3603C25.3769 37.5703 26.0591 37.9901 26.6888 38.4624C27.2136 38.8297 27.2136 39.407 27.2661 39.9843C27.2661 40.1942 27.2661 40.4566 27.2661 40.6665C27.1611 41.2438 27.1611 41.2438 26.5839 41.1913C26.3215 41.1913 26.0591 41.1913 25.7967 41.1913L25.8492 41.2962Z" fill="black"/>
<path d="M91.4375 47.9562V40.9766C91.4375 40.9766 91.6474 40.9766 91.7524 40.9766C93.1693 40.9766 94.5337 40.9766 95.9507 40.9766C96.5279 40.9766 97.1577 41.134 97.7349 41.2914C98.6795 41.5538 99.0469 42.3935 99.3093 43.1807C99.5717 44.0728 99.5192 45.0174 99.1519 45.8571C98.6795 46.9066 97.8399 47.7463 96.5804 47.7988C94.9011 47.9037 93.1693 47.9037 91.4375 47.9037V47.9562Z" fill="black"/>
<path d="M59.9072 74.3574C51.4582 74.3574 42.9566 74.3574 34.5076 74.3574C33.9828 74.3574 33.458 74.3574 32.9332 74.2524C31.3589 74.0425 29.9419 72.7305 29.6796 71.2086C29.3122 69.4768 30.0469 67.85 31.5163 66.9054C32.251 66.4331 33.0382 66.3281 33.8778 66.3281C37.3939 66.3281 40.91 66.3281 44.426 66.3281C58.123 66.3281 71.8199 66.3281 85.5168 66.3281C87.4585 66.3281 89.0329 67.4827 89.5577 69.3194C90.1874 71.6809 88.4556 74.1474 85.9891 74.3049C85.2544 74.3049 84.5197 74.3574 83.8375 74.3574C75.8607 74.3574 67.884 74.3574 59.9597 74.3574H59.9072Z" fill="black"/>
</svg>
