<svg width="121" height="120" viewBox="0 0 121 120" fill="none" xmlns="http://www.w3.org/2000/svg">
<rect width="120" height="120" transform="translate(0.5)" fill="white"/>
<circle cx="60.5" cy="60" r="17.5" fill="white"/>
<path d="M60.4081 95.4595C62.0913 95.4595 63.7057 94.7908 64.8959 93.6006C66.0861 92.4103 66.7548 90.796 66.7548 89.1128C66.7548 87.4295 66.0861 85.8152 64.8959 84.6249C63.7057 83.4347 62.0913 82.766 60.4081 82.766C58.7248 82.766 57.1105 83.4347 55.9203 84.6249C54.73 85.8152 54.0613 87.4295 54.0613 89.1128C54.0613 90.796 54.73 92.4103 55.9203 93.6006C57.1105 94.7908 58.7248 95.4595 60.4081 95.4595ZM75.1587 78.165C73.9851 78.1235 72.8628 77.6736 71.9854 76.893C68.8063 74.0328 64.6812 72.4502 60.4048 72.4502C56.1284 72.4502 52.0033 74.0328 48.8243 76.893C47.8957 77.7262 46.6762 78.1601 45.4299 78.1006C44.1837 78.041 43.0111 77.493 42.1661 76.575C41.3328 75.6464 40.899 74.4269 40.9585 73.1807C41.018 71.9344 41.5661 70.7618 42.4841 69.9168C47.3781 65.4547 53.7541 62.9677 60.3769 62.9378C66.9997 62.9078 73.3979 65.3369 78.3321 69.7546C79.252 70.5998 79.8013 71.7738 79.8608 73.0216C79.9204 74.2694 79.4853 75.4903 78.6501 76.4193C78.2284 76.9448 77.6981 77.3729 77.0954 77.6742C76.4928 77.9755 75.8321 78.1429 75.1587 78.165Z" fill="black"/>
<path d="M88.4779 64.8447C87.2548 64.8071 86.0799 64.3591 85.1423 63.5727C78.4459 57.2651 69.5971 53.747 60.3978 53.7346C51.1928 53.7173 42.3335 57.2396 35.6533 63.5727C33.7454 65.3184 30.7342 65.3184 28.9886 63.417C27.0871 61.3533 27.0871 58.3357 28.9886 56.59C37.4771 48.5805 48.7272 44.1525 60.3978 44.2275C72.0553 44.2286 83.279 48.6486 91.807 56.5965C92.2686 57.0156 92.6402 57.5241 92.8992 58.0912C93.1583 58.6583 93.2994 59.2722 93.314 59.8955C93.3285 60.5188 93.2163 61.1385 92.984 61.7171C92.7517 62.2957 92.4043 62.821 91.9628 63.2612C91.0522 64.2244 89.8021 64.7947 88.4779 64.8512V64.8447Z" fill="black"/>
<path d="M103.232 50.0894C102.01 50.0537 100.835 49.608 99.8968 48.824C89.3221 38.5404 75.152 32.7895 60.4016 32.7949C45.6829 32.8019 31.5339 38.4852 20.9 48.6617C20.4544 49.1136 19.9235 49.4724 19.338 49.7173C18.7526 49.9622 18.1243 50.0884 17.4897 50.0884C16.8551 50.0884 16.2268 49.9622 15.6414 49.7173C15.056 49.4724 14.525 49.1136 14.0795 48.6617C12.3338 46.7603 12.3338 43.7492 14.2352 42.0035C26.7665 29.946 43.1135 23.2812 60.4016 23.2812C77.6897 23.2812 94.0302 29.946 106.561 41.8412C108.463 43.5934 108.463 46.6045 106.717 48.506C106.289 49.01 105.754 49.4133 105.152 49.687C104.549 49.9607 103.894 50.0981 103.232 50.0894Z" fill="black"/>
</svg>
