<svg width="165" height="165" viewBox="0 0 165 165" fill="none" xmlns="http://www.w3.org/2000/svg">
<rect x="2.75" y="2.75" width="159.5" height="159.5" rx="17.875" stroke="white" stroke-width="5.5"/>
<path d="M44.4864 77.9771C43.1223 79.536 41.4562 80.6857 39.4686 81.4262C37.481 82.1667 35.4154 82.537 33.2524 82.537C30.1053 82.537 27.3479 81.8062 24.9803 80.335C22.6126 78.8735 21.1609 76.7981 20.625 74.109L26.432 71.0106C26.9777 72.7352 27.913 74.0798 29.2284 75.0346C30.5437 75.9894 32.1903 76.4669 34.1585 76.4669C35.7661 76.4669 37.0717 76.1453 38.085 75.4925C39.0983 74.8397 39.6732 73.9044 39.8096 72.667C39.9168 71.6829 39.6927 70.8645 39.1373 70.2117C38.5722 69.5589 37.8415 69.0522 36.9451 68.682C36.0487 68.3117 34.8015 67.883 33.2231 67.3861C31.0991 66.7333 29.3843 66.1 28.0689 65.4667C26.7536 64.8333 25.6623 63.8882 24.8244 62.6216C23.9767 61.355 23.6649 59.6889 23.8988 57.6233C24.1423 55.431 24.9316 53.57 26.2566 52.0403C27.5817 50.5106 29.2381 49.3707 31.2257 48.6107C33.2036 47.8507 35.2984 47.4805 37.4907 47.4805C40.4819 47.4805 42.9664 48.1625 44.9541 49.5168C46.932 50.8711 48.1012 52.7126 48.4617 55.0218L42.6547 58.1202C42.2649 56.6684 41.5537 55.5382 40.5306 54.7198C39.5076 53.9013 38.163 53.4921 36.4969 53.4921C34.9867 53.4921 33.72 53.8429 32.697 54.5346C31.6739 55.2264 31.1088 56.152 30.9822 57.292C30.8847 58.1592 31.0991 58.8704 31.6252 59.4453C32.1514 60.0201 32.8431 60.4781 33.72 60.8386C34.5872 61.1893 35.7759 61.5985 37.2666 62.0662C39.4199 62.719 41.1834 63.3718 42.5572 64.0344C43.931 64.6969 45.0613 65.681 45.9577 66.9964C46.8443 68.3117 47.1756 70.0265 46.932 72.1603C46.6787 74.4792 45.8602 76.4084 44.5059 77.9673L44.4864 77.9771Z" fill="white"/>
<path d="M68.7126 58.8132C70.2618 59.7583 71.392 61.0834 72.113 62.7982C72.834 64.513 73.0679 66.4812 72.8243 68.7027C72.7171 69.6867 72.5125 70.6903 72.2105 71.7134H56.2801C56.3581 73.5061 56.855 74.8507 57.7709 75.7666C58.6867 76.6727 59.9046 77.1307 61.4149 77.1307C62.4964 77.1307 63.4902 76.8871 64.3866 76.4096C65.2927 75.9322 66.0235 75.2112 66.5983 74.2564L71.012 77.0332C70.1644 78.7968 68.7711 80.1511 66.8322 81.1059C64.8932 82.0608 62.7887 82.5382 60.538 82.5382C58.2873 82.5382 56.4263 82.0608 54.6822 81.1059C52.9382 80.1511 51.6033 78.7188 50.6972 76.7994C49.7813 74.8897 49.4793 72.5903 49.7716 69.9011C50.0639 67.2119 50.8823 64.9807 52.2172 63.1003C53.552 61.2198 55.1889 59.7973 57.1083 58.8424C59.0375 57.8876 61.0641 57.4102 63.1979 57.4102C65.3317 57.4102 67.1634 57.8778 68.7126 58.8229V58.8132ZM59.057 63.8408C58.0729 64.6397 57.3422 65.7699 56.8745 67.2217H66.4132C66.4522 65.7407 66.1111 64.6105 65.3804 63.8213C64.6496 63.0321 63.6656 62.6423 62.4282 62.6423C61.1908 62.6423 60.0411 63.0418 59.057 63.8505V63.8408Z" fill="white"/>
<path d="M93.6072 57.8213C94.3769 58.1039 94.9518 58.4546 95.3415 58.8833L92.2919 63.8329C91.5514 63.2776 90.6745 62.995 89.6514 62.995C87.9853 62.995 86.5725 63.6868 85.4131 65.0801C84.2536 66.4734 83.5424 68.3831 83.2696 70.8189L82.0322 81.975H75.6016L78.2712 57.9967H83.9224C83.8736 59.8479 83.8639 61.1145 83.9224 61.7966C84.7895 60.3448 85.8418 59.2536 87.0695 58.5131C88.2971 57.7726 89.632 57.4023 91.0837 57.4023C92.0093 57.4023 92.857 57.5388 93.6267 57.8213H93.6072Z" fill="white"/>
<path d="M99.1226 53.764C98.4503 52.9748 98.1775 52.0589 98.2944 51.0066C98.4113 49.9543 98.8887 48.9995 99.7169 48.2298C100.545 47.46 101.48 47.0703 102.533 47.0703C103.585 47.0703 104.452 47.46 105.134 48.2493C105.816 49.0385 106.099 49.9543 105.982 51.0066C105.865 52.0589 105.378 52.9748 104.52 53.764C103.663 54.5532 102.708 54.9429 101.656 54.9429C100.604 54.9429 99.7949 54.5532 99.1226 53.764ZM101.938 81.9807H95.5078L98.1775 58.0023H104.608L101.938 81.9807Z" fill="white"/>
<path d="M128.062 60.1577C129.679 61.9992 130.303 64.6104 129.923 68.0011L128.364 81.9828H122.946C122.946 81.7392 122.946 81.33 122.966 80.7551C122.985 80.1803 122.966 79.6834 122.927 79.2547C122.089 80.3654 121.085 81.1936 119.897 81.7295C118.708 82.2653 117.315 82.5381 115.707 82.5381C114.099 82.5381 112.55 82.2459 111.245 81.6613C109.939 81.0767 108.945 80.2192 108.263 79.089C107.581 77.9588 107.338 76.624 107.503 75.0845C107.669 73.5451 108.292 72.0836 109.335 70.8949C110.377 69.7062 111.703 68.7903 113.32 68.1375C114.937 67.4847 116.672 67.1632 118.523 67.1632C120.189 67.1632 121.875 67.4457 123.57 67.9914C123.872 64.4448 122.557 62.6715 119.624 62.6715C117.276 62.6715 115.444 63.7238 114.138 65.8186L109.851 63.1782C110.913 61.3854 112.394 59.9726 114.304 58.9398C116.204 57.907 118.367 57.3906 120.774 57.3906C124.018 57.3906 126.444 58.3065 128.062 60.148V60.1577ZM123.102 72.2687C121.602 71.8984 120.277 71.7133 119.137 71.7133C117.626 71.7133 116.418 71.9861 115.532 72.522C114.635 73.0579 114.138 73.8276 114.031 74.8117C113.934 75.7081 114.187 76.3999 114.791 76.8968C115.395 77.3937 116.233 77.6373 117.276 77.6373C118.669 77.6373 119.926 77.2475 121.066 76.4583C122.206 75.6691 122.849 74.5876 123.005 73.1943L123.112 72.2687H123.102Z" fill="white"/>
<path d="M140.462 81.9819H134.031L137.948 46.75H144.379L140.462 81.9819Z" fill="white"/>
<path d="M37.0337 94.9688C38.9336 94.9688 40.551 95.2903 41.8956 95.9528C43.2402 96.6056 44.234 97.5312 44.877 98.7199C45.5201 99.9086 45.7539 101.302 45.5786 102.89C45.4032 104.478 44.8673 105.842 43.9612 107.031C43.055 108.22 41.8566 109.136 40.3659 109.779C38.8752 110.422 37.1798 110.743 35.2896 110.743H31.7918L30.8856 118.918H26.1406L28.8006 94.9785H37.0434L37.0337 94.9688ZM35.2019 106.709C36.6829 106.709 37.9106 106.388 38.8752 105.745C39.8397 105.102 40.3951 104.147 40.5315 102.88C40.6679 101.614 40.3367 100.649 39.5085 99.9866C38.69 99.324 37.5403 98.9927 36.0496 98.9927H33.0779L32.2205 106.709H35.1922H35.2019Z" fill="white"/>
<path d="M47.4996 105.762C48.4447 104.408 49.6237 103.365 51.0365 102.634C52.4492 101.903 53.9302 101.543 55.4794 101.543C57.0286 101.543 58.3927 101.903 59.6301 102.634C60.8675 103.365 61.8126 104.408 62.4556 105.762C63.0987 107.116 63.3228 108.675 63.1279 110.439C62.9331 112.202 62.3582 113.761 61.4131 115.115C60.468 116.47 59.2988 117.503 57.8958 118.224C56.4927 118.945 55.0312 119.305 53.5113 119.305C51.9913 119.305 50.559 118.945 49.3119 118.224C48.0647 117.503 47.1099 116.47 46.4668 115.115C45.8238 113.761 45.5997 112.202 45.7945 110.439C45.9894 108.675 46.5643 107.116 47.5094 105.762H47.4996ZM51.2216 114.024C51.8744 114.911 52.7708 115.349 53.901 115.349C55.0312 115.349 56.025 114.911 56.863 114.024C57.7009 113.138 58.2075 111.949 58.3732 110.439C58.5388 108.928 58.305 107.74 57.6619 106.843C57.0189 105.947 56.1322 105.499 55.002 105.499C53.8718 105.499 52.8779 105.947 52.0205 106.843C51.1729 107.74 50.6565 108.938 50.4908 110.439C50.3252 111.939 50.5688 113.138 51.2216 114.024Z" fill="white"/>
<path d="M76.0247 101.546C76.697 101.546 77.2719 101.672 77.7493 101.935L77.3011 105.989C76.7944 105.657 76.1806 105.501 75.4596 105.501C72.8387 105.501 71.3284 107.343 70.9192 111.026L70.0423 118.908H65.4922L67.3727 101.965H71.3674C71.3284 103.299 71.3187 104.157 71.3382 104.547C72.4782 102.54 74.0371 101.536 76.0247 101.536V101.546ZM90.8833 117.934C89.6654 118.85 88.0772 119.308 86.1188 119.308C84.2871 119.308 82.8645 118.821 81.8512 117.856C80.8379 116.891 80.4677 115.147 80.7502 112.634L81.5102 105.794H78.6359L79.0646 101.965H81.9389L82.5138 96.7617H87.0639L86.4891 101.965H91.5556L91.1269 105.794H86.0604L85.3881 111.874C85.2614 113.033 85.3588 113.9 85.6901 114.475C86.0214 115.05 86.606 115.342 87.4536 115.342C88.2136 115.342 88.9639 115.108 89.6849 114.65L90.893 117.924L90.8833 117.934Z" fill="white"/>
</svg>
