<svg width="121" height="120" viewBox="0 0 121 120" fill="none" xmlns="http://www.w3.org/2000/svg">
<rect width="120" height="120" transform="translate(0.5)" fill="white"/>
<circle cx="31.75" cy="73.75" r="17.5" fill="white"/>
<path d="M69.8452 82.8437L44.6824 82.8437L44.6824 77.3465L37.145 77.3465L37.145 71.6225L28.5874 71.6225L28.5874 33.5951L84.5234 33.5951L84.5234 59.2112L78.8562 59.2112L78.8562 39.2624L34.2546 39.2624L34.2546 65.9552L42.8122 65.9552L42.8122 71.6792L50.3497 71.6792L50.3497 77.1765L64.1779 77.1765L64.1779 71.4525L75.7958 71.4525L75.7958 77.1198L69.8452 77.1198L69.8452 82.8437Z" fill="black"/>
<path d="M75.8038 100.75L26.8385 100.75C20.6045 100.75 15.5039 95.6494 15.5039 89.4154L15.5039 26.792C15.5039 20.5579 20.6045 15.4574 26.8385 15.4574L86.685 15.4574C92.919 15.4574 98.0195 20.558 98.0195 26.792L98.0195 58.1887L92.3523 58.1887L92.3523 26.792C92.3523 23.675 89.802 21.1247 86.685 21.1247L26.8951 21.1247C23.7781 21.1247 21.2279 23.675 21.2279 26.792L21.2279 89.4154C21.2279 92.5324 23.7781 95.0827 26.8951 95.0827L75.8038 95.0827L75.8038 100.75Z" fill="black"/>
<path d="M85.8313 64.0854L100.17 64.0854L90.5919 75.93L104.25 75.93L75.3469 106.25L83.5077 86.3012L73.5333 86.3012L85.8313 64.0854Z" fill="black"/>
<path d="M41.5608 42.1406L37.707 42.1406L37.707 57.3289L41.5608 57.3289L41.5608 42.1406Z" fill="black"/>
<path d="M47.4397 42.1406L43.5859 42.1406L43.5859 57.3289L47.4397 57.3289L47.4397 42.1406Z" fill="black"/>
<path d="M53.2717 42.1406L49.418 42.1406L49.418 57.3289L53.2717 57.3289L53.2717 42.1406Z" fill="black"/>
<path d="M59.0998 42.1406L55.2461 42.1406L55.2461 57.3289L59.0998 57.3289L59.0998 42.1406Z" fill="black"/>
<path d="M64.928 42.1328L61.0742 42.1328L61.0742 57.3211L64.928 57.3211L64.928 42.1328Z" fill="black"/>
<path d="M70.7522 42.1328L66.8984 42.1328L66.8984 57.3211L70.7522 57.3211L70.7522 42.1328Z" fill="black"/>
<path d="M76.5803 42.1328L72.7266 42.1328L72.7266 57.3211L76.5803 57.3211L76.5803 42.1328Z" fill="black"/>
</svg>
