<svg width="52" height="52" viewBox="0 0 52 52" fill="none" xmlns="http://www.w3.org/2000/svg">
<g clip-path="url(#clip0_9993_30875)">
<path d="M0 0H52V52H0V0Z" fill="#74BC1F"/>
<path d="M15.153 34.3411C15.1621 34.4026 15.1736 34.4637 15.1875 34.5243L15.1896 34.5331L15.1917 34.5419L15.2006 34.5774L15.2014 34.5805C15.231 34.6977 15.2702 34.8124 15.3185 34.9232C15.4407 35.2079 15.6186 35.4653 15.8419 35.6803C16.0663 35.8964 16.332 36.0651 16.6232 36.1763L16.6428 36.1837L16.6584 36.189C16.9086 36.2803 17.1772 36.3289 17.4523 36.3289H38.6471H38.6474C39.1935 36.3287 39.7218 36.1359 40.1398 35.785C40.5578 35.4341 40.8389 34.9475 40.935 34.4107L40.935 34.4103L43.9641 17.4473L43.9683 17.4241L43.9713 17.4008L43.9863 17.2856L43.9889 17.2655L43.9907 17.2454C44.0195 16.9237 43.9812 16.5996 43.8782 16.2935C43.7752 15.9874 43.6097 15.706 43.3921 15.4672C43.1745 15.2284 42.9095 15.0374 42.6139 14.9067C42.3182 14.776 41.9986 14.7085 41.6753 14.7085H16.6211L15.8355 9.94917L15.8316 9.92506L15.8264 9.90117L15.8008 9.78244L15.7963 9.76182L15.791 9.74141C15.6615 9.24362 15.3709 8.80232 14.9641 8.48697C14.5572 8.17158 14.0571 8.00011 13.5421 8H13.5419H9H8V9V11.6582V12.6582H9H11.5694L15.153 34.3411ZM21.1697 38.7562C20.4855 38.0698 19.5569 37.6835 18.588 37.6835C17.6191 37.6835 16.6905 38.0698 16.0063 38.7562C15.3223 39.4425 14.9387 40.3726 14.9387 41.3418C14.9387 42.3109 15.3223 43.241 16.0063 43.9273C16.6905 44.6138 17.6191 45 18.588 45C19.557 45 20.4855 44.6138 21.1697 43.9273C21.8537 43.241 22.2374 42.3109 22.2374 41.3418C22.2374 40.3726 21.8537 39.4425 21.1697 38.7562ZM39.8414 38.7562C39.1573 38.0698 38.2287 37.6835 37.2597 37.6835C36.2908 37.6835 35.3622 38.0698 34.6781 38.7562C33.9941 39.4425 33.6104 40.3726 33.6104 41.3418C33.6104 42.3109 33.9941 43.241 34.6781 43.9273C35.3622 44.6138 36.2908 45 37.2597 45C38.2287 45 39.1573 44.6138 39.8414 43.9273C40.5254 43.241 40.9091 42.3109 40.9091 41.3418C40.9091 40.3726 40.5254 39.4425 39.8414 38.7562Z" stroke="white" stroke-width="2"/>
</g>
<defs>
<clipPath id="clip0_9993_30875">
<rect width="52" height="52" fill="white"/>
</clipPath>
</defs>
</svg>
