<svg width="48" height="48" viewBox="0 0 48 48" fill="none" xmlns="http://www.w3.org/2000/svg">
<g clip-path="url(#clip0_20149_19021)">
<ellipse cx="23.5" cy="24" rx="14.5" ry="13" fill="#79797E"/>
<path d="M40.9697 7.02858C37.6131 3.67237 33.3367 1.38683 28.6813 0.460985C24.0258 -0.464862 19.2003 0.0105611 14.815 1.82714C10.4297 3.64371 6.68161 6.71985 4.04456 10.6666C1.40751 14.6133 0 19.2534 0 24C0 28.7467 1.40751 33.3867 4.04456 37.3334C6.68161 41.2802 10.4297 44.3563 14.815 46.1729C19.2003 47.9895 24.0258 48.4649 28.6813 47.539C33.3367 46.6132 37.6131 44.3277 40.9697 40.9714C43.1986 38.7428 44.9666 36.097 46.1729 33.185C47.3791 30.273 48 27.1519 48 24C48 20.8481 47.3791 17.727 46.1729 14.815C44.9666 11.9031 43.1986 9.25722 40.9697 7.02858ZM32.244 29.82C32.357 29.9323 32.4467 30.0659 32.5078 30.213C32.569 30.3601 32.6005 30.5178 32.6005 30.6772C32.6005 30.8365 32.569 30.9942 32.5078 31.1413C32.4467 31.2884 32.357 31.422 32.244 31.5343L31.5154 32.2629C31.4031 32.3759 31.2695 32.4655 31.1224 32.5267C30.9753 32.5879 30.8176 32.6194 30.6583 32.6194C30.4989 32.6194 30.3412 32.5879 30.1941 32.5267C30.047 32.4655 29.9134 32.3759 29.8011 32.2629L23.9983 26.4257L18.1783 32.2457C18.0659 32.3587 17.9324 32.4484 17.7853 32.5096C17.6382 32.5708 17.4804 32.6023 17.3211 32.6023C17.1618 32.6023 17.0041 32.5708 16.857 32.5096C16.7099 32.4484 16.5763 32.3587 16.464 32.2457L15.7354 31.5172C15.6224 31.4048 15.5327 31.2713 15.4716 31.1242C15.4104 30.9771 15.3789 30.8193 15.3789 30.66C15.3789 30.5007 15.4104 30.3429 15.4716 30.1958C15.5327 30.0487 15.6224 29.9152 15.7354 29.8029L21.5726 24L15.7526 18.18C15.6396 18.0677 15.5499 17.9341 15.4887 17.787C15.4275 17.6399 15.396 17.4822 15.396 17.3229C15.396 17.1635 15.4275 17.0058 15.4887 16.8587C15.5499 16.7116 15.6396 16.578 15.7526 16.4657L16.4811 15.7372C16.5934 15.6242 16.727 15.5345 16.8741 15.4733C17.0212 15.4121 17.1789 15.3806 17.3383 15.3806C17.4976 15.3806 17.6553 15.4121 17.8024 15.4733C17.9495 15.5345 18.0831 15.6242 18.1954 15.7372L23.9983 21.5743L29.8183 15.7543C29.9306 15.6413 30.0641 15.5516 30.2112 15.4904C30.3583 15.4293 30.5161 15.3978 30.6754 15.3978C30.8347 15.3978 30.9925 15.4293 31.1396 15.4904C31.2867 15.5516 31.4202 15.6413 31.5326 15.7543L32.2611 16.4829C32.3741 16.5952 32.4638 16.7287 32.525 16.8758C32.5862 17.0229 32.6177 17.1807 32.6177 17.34C32.6177 17.4993 32.5862 17.6571 32.525 17.8042C32.4638 17.9513 32.3741 18.0848 32.2611 18.1972L26.424 24L32.244 29.82Z" fill="#EBEBEF"/>
</g>
<defs>
<clipPath id="clip0_20149_19021">
<rect width="48" height="48" fill="white"/>
</clipPath>
</defs>
</svg>
