<?xml version="1.0" standalone="no"?><!DOCTYPE svg PUBLIC "-//W3C//DTD SVG 1.1//EN" "http://www.w3.org/Graphics/SVG/1.1/DTD/svg11.dtd"><svg t="1705904662810" class="icon" viewBox="0 0 1024 1024" version="1.1" xmlns="http://www.w3.org/2000/svg" p-id="4230" xmlns:xlink="http://www.w3.org/1999/xlink" width="200" height="200"><path d="M962.56 225.28c0-17.408-11.264-32.768-26.624-37.888-3.072-2.048-6.144-3.072-10.24-3.072H139.264c-4.096 0-7.168 1.024-10.24 3.072-15.36 6.144-26.624 20.48-26.624 37.888 0 17.408 11.264 32.768 26.624 37.888 3.072 2.048 6.144 3.072 10.24 3.072h787.456c4.096 0 7.168-1.024 10.24-3.072 14.336-5.12 25.6-20.48 25.6-37.888zM962.56 512c0-17.408-11.264-32.768-26.624-37.888-3.072-2.048-6.144-3.072-10.24-3.072H139.264c-4.096 0-7.168 1.024-10.24 3.072-15.36 6.144-26.624 20.48-26.624 37.888 0 17.408 11.264 32.768 26.624 37.888 3.072 2.048 6.144 3.072 10.24 3.072h787.456c4.096 0 7.168-1.024 10.24-3.072 14.336-5.12 25.6-20.48 25.6-37.888zM962.56 808.96c0-17.408-11.264-32.768-26.624-37.888-3.072-2.048-6.144-3.072-10.24-3.072H139.264c-4.096 0-7.168 1.024-10.24 3.072-15.36 6.144-26.624 20.48-26.624 37.888 0 17.408 11.264 32.768 26.624 37.888 3.072 2.048 6.144 3.072 10.24 3.072h787.456c4.096 0 7.168-1.024 10.24-3.072 14.336-5.12 25.6-20.48 25.6-37.888z" fill="#2c2c2c" p-id="4231"></path></svg>