<svg width="74" height="30" viewBox="0 0 74 30" fill="none" xmlns="http://www.w3.org/2000/svg">
<path d="M0 0H74V30H15C6.71573 30 0 23.2843 0 15V0Z" fill="#74BC1F"/>
<path d="M30.0435 9.33594V20H28.2051L23.4224 12.3608V20H21.584V9.33594H23.4224L28.2197 16.9897V9.33594H30.0435ZM39.2134 18.5425V20H33.5518V18.5425H39.2134ZM34.0718 9.33594V20H32.2334V9.33594H34.0718ZM38.4736 13.7891V15.2246H33.5518V13.7891H38.4736ZM39.1768 9.33594V10.8008H33.5518V9.33594H39.1768ZM43.3882 17.605L45.5122 9.33594H46.6255L46.501 11.4673L44.2305 20H43.0732L43.3882 17.605ZM41.7988 9.33594L43.52 17.5391L43.6738 20H42.4434L39.9751 9.33594H41.7988ZM49.0352 17.5171L50.7344 9.33594H52.5654L50.0972 20H48.8667L49.0352 17.5171ZM47.0576 9.33594L49.1597 17.627L49.4673 20H48.3101L46.0762 11.4673L45.959 9.33594H47.0576Z" fill="white"/>
</svg>
