<svg width="480" height="61" viewBox="0 0 480 61" fill="none" xmlns="http://www.w3.org/2000/svg">
<path d="M38.9886 32.5928C38.9886 34.4948 37.5743 36.0537 35.7829 36.0537C34.0229 36.0537 32.5771 34.4948 32.5771 32.5928C32.5771 30.6909 33.9914 29.132 35.7829 29.132C37.5743 29.132 38.9886 30.6909 38.9886 32.5928ZM24.3114 29.132C22.52 29.132 21.1057 30.6909 21.1057 32.5928C21.1057 34.4948 22.5514 36.0537 24.3114 36.0537C26.1029 36.0537 27.5171 34.4948 27.5171 32.5928C27.5486 30.6909 26.1029 29.132 24.3114 29.132ZM57.5 9.39556V51.5141C57.5 55.0811 54.6084 57.9727 51.0414 57.9727H44.5829H8.94286C5.39143 57.9727 2.5 55.1042 2.5 51.5497V9.39556C2.5 5.84114 5.39143 2.97266 8.94286 2.97266H51.0571C54.6086 2.97266 57.5 5.84114 57.5 9.39556ZM48.5429 38.9534C48.5429 28.9137 44.0171 20.7759 44.0171 20.7759C39.4914 17.4086 35.1857 17.5021 35.1857 17.5021L34.7457 18.001C40.0886 19.6223 42.5714 21.9608 42.5714 21.9608C35.1058 17.9015 26.3361 17.9008 19.0943 21.0566C17.9314 21.5866 17.24 21.9608 17.24 21.9608C17.24 21.9608 19.8486 19.4976 25.5057 17.8763L25.1914 17.5021C25.1914 17.5021 20.8857 17.4086 16.36 20.7759C16.36 20.7759 11.8343 28.9137 11.8343 38.9534C11.8343 38.9534 14.4743 43.4744 21.42 43.6926C21.42 43.6926 22.5829 42.2895 23.5257 41.1047C19.5343 39.9199 18.0257 37.4256 18.0257 37.4256C18.4881 37.7467 19.2504 38.1628 19.3143 38.2051C24.6191 41.1522 32.1543 42.1178 38.9257 39.2963C40.0257 38.891 41.2514 38.2986 42.54 37.4568C42.54 37.4568 40.9686 40.0135 36.8514 41.1671C37.7943 42.3519 38.9257 43.6926 38.9257 43.6926C45.8714 43.4744 48.5429 38.9534 48.5429 38.9534Z" fill="#5562EA"/>
<path d="M86.6875 27.4056C87.8868 13.6268 99.9255 3.21479 112.638 2.97266C113.655 3.26092 114.671 3.23786 115.676 2.98419C119.206 3.12255 122.587 3.91815 125.693 5.61312C127.487 6.58167 129.246 7.57329 130.902 8.85316C137.675 14.0649 141.136 21.0408 141.478 29.3888C141.832 37.8983 138.623 45.1855 132.227 50.9045C126.973 55.609 120.77 57.9842 113.769 57.9727C99.9483 57.9496 87.9553 47.0765 86.6989 33.5744C86.9274 31.5219 86.9388 29.458 86.6875 27.4056Z" fill="#349BD1"/>
<path d="M86.6828 27.4102C87.2767 29.4626 87.2538 31.515 86.6942 33.5789C86.4315 31.5265 86.4429 29.4626 86.6828 27.4102Z" fill="#2697CE"/>
<path d="M115.675 2.98419C114.658 3.56071 113.642 3.57224 112.637 2.97266C113.653 2.97266 114.67 2.98419 115.675 2.98419Z" fill="#2697CF"/>
<path d="M104.599 34.5508C102.6 33.859 100.579 33.1902 98.5912 32.4638C97.9287 32.2217 96.9464 32.1409 96.9007 31.2877C96.8436 30.3191 97.8602 30.0885 98.5683 29.7887C104.451 27.3443 110.344 24.9344 116.227 22.5246C118.797 21.4753 121.389 20.4491 123.959 19.3883C124.873 19.0193 125.752 18.708 126.655 19.3768C127.089 19.9418 127.02 20.5298 126.701 21.1179C125.387 27.4481 124.073 33.7667 122.771 40.0969C122.543 41.1808 122.383 42.2762 122.109 43.337C121.561 45.5623 120.544 45.9428 118.659 44.5938C116.466 43.0141 114.536 41.0885 112.183 39.7164C110.561 39.163 109.282 38.1829 108.483 36.6147C109.191 34.447 111.087 33.2594 112.594 31.8181C115.039 29.512 117.494 27.2175 119.39 25.4418C115.541 28.2437 110.79 31.0686 106.232 34.1703C105.753 34.5162 105.239 34.8621 104.599 34.5508Z" fill="#FBFDFF"/>
<path d="M104.605 34.5523C110.054 31.0125 115.502 27.4611 121.007 23.8867C118.986 26.0775 117.135 28.372 114.988 30.3437C112.772 32.3846 110.591 34.437 108.637 36.7316C108.946 38.2767 108.923 39.8333 108.626 41.3553C108.466 42.1509 108.512 43.2001 107.335 43.3846C106.067 40.5597 105.359 37.5503 104.605 34.5523Z" fill="#D7E3EB"/>
<path d="M107.344 43.3952C108.166 42.0462 108.178 40.5357 108.223 39.0137C108.246 38.2527 107.938 37.3879 108.634 36.7422C109.822 37.7453 110.999 38.7369 112.187 39.7401C111.421 41.0776 110.222 42.0001 109.137 43.0147C108.703 43.4068 108.12 44.1908 107.344 43.3952Z" fill="#A0BBD2"/>
<path d="M126.698 21.1239C126.687 20.5474 126.675 19.9593 126.652 19.3828C127.212 19.9593 127.543 20.5243 126.698 21.1239Z" fill="#2697CF"/>
<path d="M186.157 9.8961C187.962 12.131 195.728 21.7442 197.371 23.7793L189.904 31.0946C185.443 27.6349 176.343 20.5823 171.837 17.0893C171.784 17.0486 171.784 16.982 171.833 16.9339L179.803 9.13016C181.511 7.45766 184.321 7.62047 185.817 9.47058L186.157 9.8961Z" fill="#74BC1F"/>
<path d="M175.735 42.0797C178.016 40.311 187.83 32.7033 189.907 31.0938L197.375 38.4091C194.602 41.8429 189.567 48.074 185.805 52.7289C184.313 54.579 181.51 54.7307 179.811 53.0656L171.75 45.1694L175.735 42.0797Z" fill="#74BC1F"/>
<path d="M208.594 52.2962C206.788 50.0612 199.022 40.4481 197.379 38.413L204.847 31.0977C209.308 34.5574 218.407 41.61 222.913 45.103C222.966 45.1437 222.966 45.2103 222.917 45.2584L214.947 53.0621C213.24 54.7346 210.429 54.5718 208.934 52.7217L208.594 52.2962Z" fill="#74BC1F"/>
<path d="M219.019 20.1061C216.737 21.8748 206.924 29.4824 204.846 31.092L197.375 23.7767C200.129 20.3688 205.111 14.2043 208.862 9.5568C210.448 7.59199 213.224 7.44028 215.034 9.20898L223 17.0164L219.019 20.1061Z" fill="#74BC1F"/>
<path d="M281.139 4.79688C281.162 4.79688 281.185 4.79688 281.22 4.79688C281.3 4.83125 281.38 4.80833 281.472 4.81979C281.563 4.81979 281.644 4.81979 281.735 4.81979C281.93 4.81979 282.125 4.81979 282.32 4.81979C282.411 4.81979 282.503 4.81979 282.595 4.81979C282.675 4.81979 282.744 4.81979 282.824 4.81979C285.253 4.81979 287.522 5.43854 289.642 6.60729C290.89 7.29479 292.002 8.17708 292.976 9.20833C293.916 10.1937 294.695 11.3052 295.348 12.4969C296.711 14.9833 297.49 17.6531 297.88 20.449C297.995 21.2969 298.075 22.1562 298.121 23.0042C298.178 24.024 298.132 25.0438 298.155 26.0521C298.155 26.1208 298.155 26.1896 298.121 26.2583C298.086 26.3958 297.972 26.4188 297.857 26.4531C296.952 26.7167 296.035 26.9458 295.119 27.1406C293.446 27.5073 291.75 27.8167 290.054 28.0458C288.897 28.1948 287.728 28.3323 286.559 28.424C285.677 28.4927 284.783 28.5385 283.901 28.5844C282.778 28.6417 281.655 28.6302 280.544 28.6073C279.547 28.5844 278.55 28.5156 277.553 28.4354C275.8 28.2979 274.047 28.0917 272.317 27.8052C270.288 27.4729 268.272 27.049 266.301 26.4875C266.175 26.4531 266.037 26.4188 265.98 26.2812C265.934 26.2125 265.934 26.1323 265.934 26.0635C265.934 25.1583 265.9 24.2417 265.946 23.3365C266.014 21.6406 266.221 19.9677 266.587 18.3177C266.943 16.725 267.447 15.1781 268.134 13.7C268.787 12.2792 269.612 10.9615 270.632 9.76979C271.48 8.77292 272.443 7.91354 273.531 7.18021C274.803 6.33229 276.178 5.71354 277.645 5.32396C278.516 5.09479 279.386 4.92292 280.292 4.85417C280.532 4.81979 280.842 4.83125 281.139 4.79688Z" fill="#040000"/>
<path d="M303.577 45.3426C303.497 45.5604 303.52 45.801 303.463 46.0301C303.417 46.2479 303.359 46.4656 303.256 46.6604C303.13 46.901 302.981 46.9468 302.729 46.8437C302.34 46.6718 302.042 46.3739 301.755 46.076C300.77 45.0104 299.945 43.8187 299.143 42.6156C298.937 42.3062 298.742 41.9968 298.524 41.6531C298.49 42.0999 298.478 42.5124 298.421 42.9135C298.249 44.2541 297.848 45.526 297.275 46.7406C296.358 48.6885 295.075 50.3614 293.437 51.7593C293.425 51.7708 293.425 51.7822 293.414 51.7937C293.402 51.8739 293.345 51.9083 293.288 51.9541C291.477 53.4437 289.415 54.452 287.157 55.0593C286.149 55.3229 285.118 55.5062 284.087 55.6093C283.422 55.6781 282.757 55.7124 282.104 55.6551C282.036 55.6551 281.978 55.6551 281.909 55.6551C281.165 55.7124 280.431 55.6666 279.687 55.5864C278.346 55.4374 277.028 55.1739 275.745 54.7385C273.912 54.1197 272.239 53.2145 270.738 51.9885C270.669 51.9312 270.6 51.8968 270.577 51.8051C269.821 51.1406 269.111 50.4187 268.48 49.6166C267.071 47.8176 266.108 45.801 265.662 43.5551C265.547 42.9937 265.49 42.4208 265.478 41.8364C265.478 41.7906 265.467 41.7447 265.467 41.6989C265.398 41.7333 265.375 41.7906 265.341 41.8479C264.493 43.1656 263.622 44.4718 262.602 45.6635C262.293 46.0301 261.972 46.3739 261.594 46.6604C261.479 46.7406 261.365 46.8208 261.227 46.8666C260.998 46.9468 260.872 46.9124 260.746 46.6947C260.597 46.4312 260.54 46.1447 260.494 45.8583C260.345 44.7583 260.437 43.6583 260.586 42.5697C261.021 39.4531 261.995 36.4739 263.083 33.5291C263.267 33.0479 263.427 32.5551 263.645 32.0968C263.725 32.051 263.805 32.0854 263.886 32.1083C265.65 32.6354 267.449 33.0708 269.248 33.4489C269.363 33.4718 269.489 33.4947 269.603 33.5176C269.683 33.5291 269.764 33.552 269.821 33.6322C269.878 33.9187 269.787 34.1937 269.752 34.4687C269.683 35.1104 269.626 35.7406 269.569 36.3822C269.477 37.551 269.477 38.7083 269.5 39.877C269.546 41.8937 269.809 43.876 270.486 45.7781C271.024 47.2906 271.78 48.6885 272.846 49.9031C274.473 51.7479 276.513 52.9051 278.919 53.4322C279.767 53.6156 280.626 53.7072 281.486 53.7416C282.883 53.7989 284.247 53.6499 285.588 53.2947C287.249 52.8593 288.739 52.0801 290.033 50.9572C291.076 50.052 291.901 48.9749 292.566 47.7718C293.494 46.0645 294.009 44.2312 294.25 42.3176C294.33 41.676 294.365 41.0343 294.411 40.3812C294.468 39.3958 294.456 38.4104 294.433 37.4249C294.399 36.2562 294.296 35.0989 294.124 33.9531C294.113 33.8614 294.09 33.7812 294.113 33.6895C294.147 33.552 294.273 33.552 294.376 33.5291C295.637 33.277 296.897 32.9791 298.134 32.6583C298.765 32.4979 299.395 32.3145 300.025 32.1312C300.117 32.1083 300.208 32.0624 300.312 32.0854C300.415 32.1312 300.438 32.2458 300.472 32.3374C300.781 33.1281 301.068 33.9301 301.354 34.7322C301.893 36.2218 302.363 37.7343 302.752 39.2812C303.062 40.4729 303.302 41.6874 303.451 42.9135C303.497 43.2458 303.497 43.5895 303.508 43.9218C303.508 43.9791 303.486 44.0479 303.531 44.1051C303.531 44.2083 303.531 44.3114 303.531 44.4145C303.497 44.6322 303.497 44.8499 303.531 45.0676C303.577 45.1364 303.577 45.2395 303.577 45.3426Z" fill="#040000"/>
<path d="M282.333 4.83125C282.127 4.83125 281.921 4.83125 281.715 4.83125C281.703 4.81979 281.703 4.81979 281.703 4.80833C281.703 4.79687 281.715 4.79688 281.715 4.79688C281.921 4.79688 282.127 4.79688 282.333 4.79688C282.345 4.80833 282.345 4.81979 282.345 4.81979C282.333 4.83125 282.333 4.83125 282.333 4.83125Z" fill="#040000"/>
<path d="M281.716 4.79688C281.716 4.80833 281.716 4.81979 281.716 4.83125C281.624 4.83125 281.533 4.83125 281.441 4.83125C281.43 4.81979 281.43 4.81979 281.43 4.80833C281.43 4.79687 281.441 4.79688 281.441 4.79688C281.533 4.79688 281.624 4.79688 281.716 4.79688Z" fill="#040000"/>
<path d="M282.332 4.83125C282.332 4.81979 282.332 4.80833 282.332 4.79688C282.424 4.79688 282.515 4.79688 282.596 4.79688C282.607 4.79688 282.607 4.80833 282.607 4.81979C282.607 4.83125 282.607 4.83125 282.596 4.83125C282.504 4.83125 282.424 4.83125 282.332 4.83125Z" fill="#040000"/>
<path d="M281.44 4.79688C281.44 4.80833 281.44 4.81979 281.44 4.83125C281.36 4.81979 281.28 4.88854 281.211 4.79688C281.291 4.79688 281.371 4.79688 281.44 4.79688Z" fill="#040000"/>
<path d="M282.594 4.83125C282.594 4.81979 282.594 4.80833 282.594 4.79688C282.674 4.79688 282.743 4.79688 282.823 4.79688C282.823 4.80833 282.823 4.81979 282.823 4.83125C282.754 4.83125 282.674 4.83125 282.594 4.83125Z" fill="#040000"/>
<path d="M298.051 26.3161C298.624 27.7599 299.208 29.2036 299.781 30.6474C299.976 31.1286 300.159 31.6099 300.342 32.0911C298.337 32.687 296.321 33.1797 294.27 33.5922C294.235 33.6036 294.189 33.6036 294.166 33.638C294.121 33.6953 294.04 33.7068 293.972 33.7182C292.001 34.1078 290.007 34.4057 288.013 34.6234C287.016 34.738 286.008 34.8182 285.011 34.8755C284.633 34.8984 284.255 34.9328 283.877 34.9214C283.166 34.9099 282.456 34.9786 281.746 34.9557C281.001 34.9328 280.245 34.9214 279.5 34.887C278.938 34.8641 279.03 34.8526 279.03 35.3339C279.03 37.3276 279.03 39.3328 279.03 41.3266C279.03 41.7391 279.007 41.7505 278.595 41.8078C277.495 41.9453 276.395 41.9453 275.295 41.9109C274.24 41.8766 273.198 41.762 272.166 41.5901C271.868 41.5443 271.834 41.4984 271.834 41.1776C271.834 39.2297 271.834 37.2703 271.834 35.3224C271.834 34.9672 271.834 34.6234 271.834 34.2682C271.834 34.1078 271.777 34.0391 271.616 34.0047C271.101 33.913 270.597 33.8328 270.092 33.7182C270.012 33.6953 269.909 33.6953 269.852 33.6151C269.302 33.5005 268.752 33.3745 268.213 33.2599C266.689 32.9161 265.177 32.5266 263.676 32.0797C264.008 31.2318 264.352 30.3724 264.684 29.5245C265.085 28.5161 265.498 27.4964 265.899 26.488C265.922 26.4307 265.945 26.3734 265.967 26.3047C266.449 26.488 266.941 26.6026 267.434 26.7286C269.027 27.1411 270.642 27.462 272.27 27.7255C273.576 27.9432 274.882 28.1036 276.2 28.2411C278.48 28.4703 280.772 28.5849 283.063 28.5391C284.37 28.5161 285.676 28.4359 286.971 28.3214C288.483 28.1953 289.984 28.012 291.474 27.7714C293.639 27.4276 295.782 26.9807 297.879 26.3734C297.948 26.362 298.005 26.3391 298.051 26.3161Z" fill="#DC2525"/>
<path d="M282.023 20.5916C283.604 20.5802 285.139 20.6718 286.675 20.8666C288.015 21.0385 289.333 21.2791 290.605 21.7489C290.914 21.8635 291.212 21.9895 291.476 22.1843C291.545 22.2416 291.613 22.2989 291.682 22.3562C291.877 22.5739 291.865 22.7458 291.648 22.9291C291.27 23.2385 290.846 23.4677 290.41 23.6854C288.416 24.6822 286.331 25.3697 284.12 25.6791C282.447 25.9197 280.774 25.8625 279.124 25.5416C276.947 25.1177 274.884 24.4072 272.959 23.3072C272.753 23.1927 272.547 23.0666 272.375 22.9062C272.168 22.7229 272.157 22.5625 272.34 22.3562C272.478 22.1958 272.65 22.0927 272.833 21.9895C273.521 21.6343 274.254 21.4281 274.999 21.2562C276.316 20.9468 277.657 20.775 279.009 20.6718C280.029 20.626 281.049 20.5802 282.023 20.5916Z" fill="#F0A71A"/>
<path d="M289.044 15.1929C289.022 16.3272 288.758 17.4158 288.036 18.3324C287.635 18.8481 287.131 19.2262 286.466 19.3179C285.676 19.4325 285.045 19.1231 284.518 18.5502C283.911 17.897 283.613 17.0949 283.487 16.2241C283.327 15.0897 283.453 13.9783 283.968 12.9356C284.232 12.397 284.599 11.9272 285.103 11.5835C285.939 11.022 286.913 11.0793 287.669 11.7324C288.38 12.3397 288.735 13.1533 288.918 14.047C289.01 14.4252 289.033 14.8033 289.044 15.1929Z" fill="white"/>
<path d="M280.602 15.3796C280.602 16.4567 280.361 17.4536 279.708 18.3359C279.319 18.8515 278.826 19.2296 278.173 19.3328C277.474 19.4473 276.889 19.2067 276.374 18.7484C275.686 18.1296 275.308 17.3276 275.125 16.4338C274.85 15.139 274.964 13.8786 275.595 12.6984C275.801 12.3088 276.087 11.9651 276.443 11.6901C277.325 11.014 278.413 11.0828 279.238 11.8619C279.914 12.4921 280.281 13.2828 280.476 14.1765C280.568 14.5661 280.613 14.9671 280.602 15.3796Z" fill="white"/>
<path d="M270.61 51.7969C271.366 52.4042 272.145 52.9656 272.993 53.4354C274.689 54.3865 276.488 55.0052 278.402 55.3375C279.57 55.5437 280.751 55.6354 281.931 55.6469C281.427 55.6927 280.922 55.75 280.43 55.7844C278.402 55.9219 276.362 56.0021 274.334 56.0365C272.81 56.0594 271.286 56.0479 269.762 55.9792C268.799 55.9333 267.837 55.8646 266.886 55.6469C266.76 55.6125 266.645 55.5781 266.519 55.5438C265.946 55.3833 265.866 54.9135 266.004 54.4667C266.107 54.1229 266.336 53.8823 266.611 53.6646C267.253 53.1604 267.986 52.8052 268.742 52.4958C269.338 52.2323 269.968 52.026 270.61 51.7969Z" fill="#F0A71A"/>
<path d="M282.117 55.6547C282.713 55.6432 283.32 55.6203 283.916 55.5745C287.033 55.2995 289.909 54.3714 292.476 52.538C292.808 52.3089 293.117 52.0453 293.438 51.8047C294.229 52.0682 295.008 52.3432 295.764 52.687C296.348 52.962 296.921 53.2599 297.437 53.6609C297.769 53.9245 298.033 54.2339 298.102 54.6807C298.159 55.0818 298.01 55.3568 297.643 55.5057C297.151 55.712 296.623 55.7807 296.096 55.8495C294.229 56.0672 292.338 56.0786 290.459 56.0672C288.809 56.0557 287.159 56.0099 285.509 55.9182C284.397 55.8609 283.286 55.7807 282.174 55.6891C282.152 55.6661 282.14 55.6547 282.117 55.6547Z" fill="#F0A71A"/>
<path d="M269.87 33.6094C270.523 33.724 271.176 33.85 271.829 33.9646C271.898 33.976 271.909 34.0104 271.909 34.0677C271.909 34.1135 271.909 34.1594 271.909 34.2052C271.909 36.5427 271.909 38.8802 271.909 41.2177C271.909 41.4125 271.955 41.4812 272.161 41.5156C273.754 41.7792 275.347 41.8938 276.962 41.8479C277.581 41.8365 278.2 41.7792 278.819 41.7104C278.968 41.6875 279.002 41.6417 279.002 41.5042C279.002 39.7167 279.002 37.9292 279.002 36.1417C279.002 35.7521 279.013 35.3625 279.002 34.9729C279.002 34.8354 279.036 34.801 279.174 34.8125C280.778 34.8927 282.382 34.9042 283.998 34.8583C285.545 34.8125 287.092 34.675 288.627 34.4917C290.449 34.274 292.259 33.999 294.07 33.6323C294.115 33.6208 294.161 33.6323 294.207 33.6323C294.379 34.6979 294.482 35.775 294.539 36.8521C294.608 38.101 294.597 39.35 294.539 40.599C294.402 43.3375 293.829 45.95 292.385 48.3104C290.701 51.0604 288.272 52.7563 285.132 53.4667C283.643 53.799 282.142 53.8677 280.629 53.7302C278.44 53.524 276.424 52.8479 274.636 51.5302C272.849 50.2125 271.6 48.4708 270.763 46.4198C270.179 44.9875 269.835 43.5094 269.675 41.974C269.492 40.2094 269.48 38.4333 269.572 36.6573C269.595 35.626 269.698 34.6177 269.87 33.6094Z" fill="white"/>
<path d="M286.321 14.5625C286.779 14.5854 287.237 14.6542 287.661 14.8719C288.039 15.0667 288.085 15.4906 287.764 15.7656C287.604 15.9031 287.444 15.8917 287.272 15.8C286.962 15.6281 286.63 15.5135 286.275 15.4906C285.656 15.4563 285.152 15.6969 284.728 16.1208C284.522 16.3271 284.396 16.35 284.235 16.224C284.063 16.075 284.029 15.8573 284.189 15.6396C284.717 14.9177 285.438 14.5854 286.321 14.5625Z" fill="#040000"/>
<path d="M277.426 15.5548C277.426 15.1767 277.529 14.7986 277.77 14.4663C278.216 13.8475 278.961 13.8246 279.454 14.3975C280.015 15.0392 280.004 16.185 279.442 16.8267C278.984 17.3538 278.297 17.3423 277.85 16.8152C277.552 16.46 277.426 16.0361 277.426 15.5548Z" fill="#040000"/>
<path d="M376.617 20.6007C377.307 20.6007 377.988 20.6529 378.662 20.7287C376.825 11.9768 367.677 5.47266 357.237 5.47266C345.563 5.47266 336 13.6133 336 23.9496C336 29.915 339.182 34.8145 344.498 38.6146L342.374 45.1517L349.797 41.3422C352.455 41.8793 354.585 42.4332 357.237 42.4332C357.903 42.4332 358.562 42.3996 359.219 42.3458C358.803 40.8945 358.562 39.3724 358.562 37.7947C358.562 28.3037 366.529 20.6007 376.617 20.6007ZM365.2 14.7095C366.8 14.7095 367.858 15.787 367.858 17.4219C367.858 19.05 366.8 20.1411 365.2 20.1411C363.608 20.1411 362.012 19.05 362.012 17.4219C362.012 15.787 363.608 14.7095 365.2 14.7095ZM350.338 20.141C348.745 20.141 347.139 19.05 347.139 17.4218C347.139 15.7869 348.745 14.7094 350.338 14.7094C351.929 14.7094 352.989 15.7869 352.989 17.4218C352.989 19.05 351.929 20.141 350.338 20.141ZM396 37.5337C396 28.8475 387.504 21.7675 377.962 21.7675C367.858 21.7675 359.901 28.8475 359.901 37.5337C359.901 46.2326 367.858 53.2974 377.962 53.2974C380.076 53.2974 382.209 52.7551 384.333 52.2097L390.158 55.4727L388.561 50.0444C392.824 46.7713 396 42.4332 396 37.5337ZM372.105 34.8145C371.049 34.8145 369.982 33.7386 369.982 32.6408C369.982 31.5583 371.049 30.4689 372.105 30.4689C373.711 30.4689 374.763 31.5583 374.763 32.6408C374.763 33.7386 373.711 34.8145 372.105 34.8145ZM383.786 34.8145C382.737 34.8145 381.677 33.7386 381.677 32.6408C381.677 31.5583 382.737 30.4689 383.786 30.4689C385.378 30.4689 386.443 31.5583 386.443 32.6408C386.443 33.7386 385.378 34.8145 383.786 34.8145Z" fill="#20BF64"/>
<path d="M449.998 2.97266C434.813 2.97266 422.5 15.3071 422.5 30.5263C422.5 42.7026 430.377 53.0292 441.308 56.6758C442.68 56.9226 443.115 56.1104 443.115 55.3796C443.115 54.7231 443.13 52.895 443.115 50.5949C435.468 52.2577 433.883 46.965 433.883 46.965C432.632 43.7808 430.834 42.935 430.834 42.935C428.335 41.2243 431.018 41.2602 431.018 41.2602C433.775 41.4519 435.231 44.097 435.231 44.097C437.685 48.3091 441.666 47.092 443.233 46.3876C443.486 44.6098 444.194 43.3902 444.981 42.7074C438.873 42.0077 432.455 39.6477 432.455 29.0839C432.455 26.077 433.526 23.6187 435.286 21.6899C435.004 20.9975 434.057 18.1918 435.554 14.399C435.554 14.399 437.867 13.6587 443.115 17.2263C445.36 16.6129 447.676 16.3003 450.002 16.2966C452.336 16.3086 454.689 16.6129 456.889 17.2263C462.138 13.6611 464.443 14.399 464.443 14.399C465.943 18.1918 464.998 20.9975 464.716 21.6899C466.476 23.6187 467.545 26.077 467.545 29.0839C467.545 39.6741 461.115 42.0005 454.988 42.6786C455.973 43.534 456.87 45.1872 456.87 47.758V55.3868C456.87 56.1248 457.315 56.937 458.712 56.671C469.63 53.022 477.5 42.6978 477.5 30.5263C477.5 15.3071 465.19 2.97266 449.998 2.97266Z" fill="black"/>
</svg>
