<svg width="94" height="86" viewBox="0 0 94 86" fill="none" xmlns="http://www.w3.org/2000/svg">
<path d="M85.7719 22.8829C81.6297 26.1547 63.8245 40.2073 60.0512 43.1875L46.4961 29.6678C51.4936 23.3705 60.5327 11.973 67.3438 3.38851C70.2235 -0.244139 75.2594 -0.526151 78.5439 2.74801L93.0022 17.1734L85.7719 22.8829Z" fill="#74BC1F"/>
<path d="M66.8621 82.3652C63.5823 78.2331 49.4929 60.4713 46.5078 56.7072L60.0605 43.1852C68.1581 49.5782 84.6672 62.6103 92.8487 69.0702C92.9445 69.1443 92.9445 69.2686 92.8583 69.3546L78.3976 83.78C75.3023 86.8678 70.1993 86.5714 67.4825 83.1467L66.8621 82.3652Z" fill="#74BC1F"/>
<path d="M7.23035 63.5036C11.3726 60.2318 29.1777 46.1792 32.951 43.199L46.5062 56.7187C41.4727 63.0615 32.3377 74.5784 25.5099 83.1868C22.8003 86.602 17.7165 86.8888 14.6308 83.8082L0 69.2131L7.23035 63.5036Z" fill="#74BC1F"/>
<path d="M26.1535 4.00749C29.4333 8.13963 43.5202 25.9014 46.5077 29.6655L32.955 43.1875C24.8574 36.7945 8.34833 23.7624 0.166867 17.3025C0.0710374 17.2284 0.0710381 17.1041 0.157285 17.0181L14.618 2.59267C17.7133 -0.495079 22.8162 -0.198728 25.533 3.226L26.1535 4.00749Z" fill="#74BC1F"/>
</svg>
