<svg width="188" height="64" viewBox="0 0 188 64" fill="none" xmlns="http://www.w3.org/2000/svg">
<path d="M87.9219 15.7734L68.7857 15.7734L53.0113 38.7862L68.7857 61.7989L87.9219 61.7989L72.1475 38.7862L87.9219 15.7734Z" fill="black"/>
<path d="M0.00167165 38.7837C0.00167225 25.0795 11.1213 13.9609 24.827 13.9609C38.5326 13.9609 49.6523 25.0795 49.6523 38.7837C49.6523 52.4879 38.5326 63.6064 24.827 63.6064C11.1213 63.3478 0.00167105 52.4879 0.00167165 38.7837ZM24.827 49.3851C30.7747 49.3851 35.6881 44.4722 35.6881 38.5251C35.6881 32.578 30.7747 27.6652 24.827 27.6652C18.8793 27.6652 13.9659 32.578 13.9659 38.5251C13.9659 44.7308 18.8793 49.3851 24.827 49.3851Z" fill="black"/>
<path d="M154.383 13.9628C146.108 13.9628 138.867 18.0999 134.212 24.047L117.92 45.2498C115.593 47.8355 112.749 49.3869 109.387 49.3869C103.439 49.3869 98.5257 44.4741 98.5257 38.527C98.5257 32.5798 103.439 27.667 109.387 27.667L122.317 27.667C126.196 27.667 129.299 24.5642 129.299 20.6856L129.299 -2.15919e-06L114.3 -2.8148e-06L114.3 13.9628L109.128 13.9628C95.4225 13.9628 84.3028 25.0813 84.3028 38.7855C84.3028 52.4898 95.4225 63.6083 109.128 63.6083C117.145 63.6083 124.385 59.7297 128.782 53.7826L131.626 49.904C135.764 57.9197 144.039 63.6083 153.865 63.6083C167.571 63.6083 178.691 52.4898 178.691 38.7855C178.949 25.0813 168.088 13.9628 154.383 13.9628ZM154.383 49.3869C148.435 49.3869 143.522 44.4741 143.522 38.527C143.522 32.5798 148.435 27.667 154.383 27.667C160.33 27.667 165.244 32.5798 165.244 38.527C164.985 44.7326 160.33 49.3869 154.383 49.3869Z" fill="black"/>
<path d="M182.57 14.2227L182.57 15.2569L181.277 15.2569L181.277 19.1355L180.243 19.1355L180.243 15.2569L178.95 15.2569L178.95 14.2227L182.57 14.2227Z" fill="black"/>
<path d="M184.121 19.1355L183.345 19.1355L183.345 14.2227L184.897 14.2227L185.673 18.1012L186.448 14.4812L188 14.4812L188 19.1355L186.966 19.1355L186.966 15.7741L186.966 15.5155L186.966 15.2569L185.931 19.1355L184.897 19.1355L184.121 15.2569L184.121 15.5155C184.121 15.7741 184.121 15.7741 184.121 15.7741L184.121 19.1355Z" fill="black"/>
</svg>
