<svg width="121" height="120" viewBox="0 0 121 120" fill="none" xmlns="http://www.w3.org/2000/svg">
<rect width="120" height="120" transform="translate(0.164062)" fill="white"/>
<circle cx="60.1641" cy="60" r="17.5" fill="white"/>
<g clip-path="url(#clip0_13067_18127)">
<path d="M33.8619 101C32.3776 97.7967 30.9436 94.7036 29.4544 91.4851C27.8333 92.2607 26.2375 93.025 24.5509 93.8304C19.7624 83.4681 14.9972 73.1594 10.2386 62.8593C13.0469 60.9232 13.161 60.5633 11.9405 57.4597C37.7309 45.0063 63.5264 32.5498 89.3147 20.0958C91.1324 23.1811 91.595 23.3344 94.72 21.8805C99.4985 32.2221 104.276 42.5658 109.099 53.0003C106.732 54.1495 104.452 55.2586 102.08 56.4088C103.533 59.5655 104.975 62.6947 106.467 65.9365C96.1358 70.927 85.8411 75.8978 75.4318 80.9238C74.6676 79.123 73.5744 77.5727 71.5207 77.413C70.5144 77.3352 69.3474 77.5507 68.4585 78.0282C66.1266 79.2792 65.6844 81.6168 67.0039 84.9885C55.9854 90.3094 44.961 95.6355 33.861 100.996L33.8619 101ZM38.8534 86.9424C39.7349 88.8604 40.5701 90.6779 41.4283 92.5422C40.737 92.8784 40.1688 93.1528 39.5316 93.4606C38.6422 91.5473 37.7976 89.7318 36.9291 87.8647C35.0277 88.7842 33.2104 89.663 31.3621 90.5583C32.5641 93.1513 33.7089 95.6184 34.8831 98.1497C44.7783 93.3698 54.5505 88.6517 64.2827 83.9501C64.2526 83.6982 64.246 83.5903 64.2285 83.4818C63.6816 80.2155 65.049 77.3065 67.7839 75.9173C70.6267 74.4736 73.667 75.058 75.9069 77.586C76.4366 78.1839 76.8094 77.9023 77.2803 77.6763C84.4551 74.2149 91.6278 70.753 98.8011 67.2889C100.406 66.5136 102.008 65.7282 103.664 64.9214C102.473 62.3449 101.328 59.8688 100.157 57.3338C98.6839 58.0473 97.2693 58.7315 95.7659 59.4574C96.6275 61.3339 97.4637 63.1562 98.3316 65.0502C97.6725 65.3657 97.0811 65.6519 96.432 65.9633C95.5422 64.0431 94.6996 62.2282 93.841 60.3818C93.1193 60.7325 92.4869 61.0393 91.8114 61.3662C92.6959 63.2895 93.5275 65.1038 94.3882 66.9755C93.6952 67.2933 93.0957 67.5683 92.4736 67.8531C91.5887 65.9478 90.7465 64.1397 89.8834 62.2854C89.0979 62.6753 88.4632 62.9906 87.8007 63.3187C88.6642 65.2048 89.4977 67.0286 90.3591 68.9141C89.6774 69.2393 89.0845 69.5229 88.4637 69.8194C87.5703 67.896 86.7387 66.1065 85.8707 64.2373C85.2567 64.5333 84.6906 64.8082 84.0535 65.1161C84.9188 67.0117 85.7508 68.8328 86.6101 70.7178C85.9625 71.0318 85.391 71.3099 84.7261 71.6306C83.841 69.7342 82.9879 67.9006 82.1173 66.033C81.3722 66.4045 80.7475 66.7156 80.1002 67.0366C80.9812 68.9566 81.807 70.7513 82.6616 72.6124C82.0186 72.9255 81.4141 73.2195 80.7685 73.5341C79.896 71.6569 79.0514 69.8414 78.1719 67.9488C77.4174 68.3223 76.7628 68.6458 76.0803 68.9821C76.9588 70.8947 77.7935 72.7144 78.6457 74.568C77.9634 74.8954 77.3899 75.1729 76.7533 75.4786C75.8718 73.5855 75.0266 71.7721 74.147 69.8885C68.9182 72.413 63.7608 74.9026 58.5352 77.4234C59.4047 79.3201 60.2403 81.1445 61.1068 83.0359C60.4525 83.3414 59.8461 83.6258 59.2018 83.9273C58.3239 82.0374 57.4802 80.2266 56.6096 78.359C55.8805 78.7122 55.2791 79.0025 54.5837 79.3376C55.4567 81.2375 56.2889 83.0497 57.1595 84.9421C56.4951 85.2608 55.9222 85.5361 55.263 85.8516C54.393 83.9819 53.5328 82.1419 52.6542 80.2541C51.8986 80.6317 51.2634 80.9491 50.5719 81.2943C51.438 83.1788 52.2747 84.999 53.1333 86.8702C52.4519 87.2023 51.8825 87.4809 51.249 87.7919C50.3658 85.9051 49.5144 84.0901 48.6361 82.2181C48.0001 82.5217 47.4362 82.7883 46.8186 83.081C47.7016 85.0017 48.5354 86.8165 49.3984 88.6957C48.7128 89.0108 48.1101 89.2895 47.4854 89.5759C46.6108 87.6982 45.7786 85.9108 44.9046 84.031C44.2103 84.3619 43.5796 84.6624 42.8701 85.0005C43.7435 86.9073 44.5757 88.7195 45.4412 90.6061C44.7674 90.9267 44.1956 91.1978 43.5502 91.5035C42.6685 89.6193 41.8086 87.7862 40.9339 85.9174C40.1889 86.2799 39.5812 86.5776 38.8462 86.936L38.8534 86.9424ZM50.1631 47.5655C47.2498 48.9745 44.4748 50.3145 41.5999 51.7045C44.6154 58.235 47.61 64.7193 50.6475 71.2918C53.5345 69.8982 56.3526 68.5382 59.2164 67.1565C56.1719 60.5686 53.1877 54.1119 50.1631 47.5655ZM18.307 62.9512C21.3551 69.5424 24.3358 75.9958 27.3624 82.5428C30.2557 81.142 33.0676 79.7802 35.92 78.4C32.8685 71.7967 29.8852 65.3448 26.8712 58.817C23.9995 60.2033 21.2013 61.5552 18.307 62.9512ZM38.2399 53.3235C35.3371 54.7263 32.5384 56.0803 29.6782 57.4652C32.7072 64.0196 35.7009 70.4991 38.7305 77.0514C41.6359 75.6471 44.4288 74.2983 47.2905 72.916C44.2626 66.3574 41.2799 59.9034 38.2414 53.3261L38.2399 53.3235ZM80.699 32.826C83.7302 39.381 86.7284 45.8685 89.7549 52.4155C92.6656 51.008 95.4643 49.654 98.314 48.2753C95.272 41.6948 92.2753 35.21 89.2617 28.6891C86.351 30.0966 83.545 31.4531 80.6985 32.8281L80.699 32.826ZM77.3396 34.4428C74.4284 35.8524 71.627 37.208 68.7773 38.5867C71.8164 45.1618 74.81 51.6413 77.8297 58.1729C80.7403 56.7654 83.5417 55.4099 86.3908 54.0333C83.3663 47.4869 80.3811 41.0254 77.3396 34.4428ZM57.4083 44.0733C60.4642 50.6846 63.4575 57.1572 66.4627 63.6601C69.3886 62.2454 72.182 60.8945 75.0212 59.522C71.9722 52.9261 68.9774 46.4508 65.9662 39.9373C63.0635 41.3402 60.2958 42.6776 57.4062 44.0727L57.4083 44.0733Z" fill="black"/>
</g>
<defs>
<clipPath id="clip0_13067_18127">
<rect width="93.75" height="92.5" fill="white" transform="translate(26.2266 3.19531) rotate(15)"/>
</clipPath>
</defs>
</svg>
