<svg width="150" height="150" viewBox="0 0 150 150" fill="none" xmlns="http://www.w3.org/2000/svg">
<rect x="1.5" y="1.5" width="147" height="147" rx="18.5" stroke="black" stroke-width="3"/>
<path d="M28.6641 99.9844L29.8336 95.2266H48.4732L47.3037 99.9844H40.8712L36.1199 119.089H30.4184L35.1697 99.9844H28.7372H28.6641Z" fill="#0050AE"/>
<path d="M47.1544 106.501C49.0549 98.9614 54.3179 94.7891 60.5311 94.7891C67.2559 94.7891 70.6915 99.4737 68.7179 107.599C66.8174 115.138 61.5544 119.53 55.2681 119.53C48.5432 119.53 45.1808 114.626 47.1544 106.501ZM63.1625 106.501C64.259 102.182 63.1625 99.6933 60.2387 99.6933C56.8762 99.6933 54.0255 102.694 52.7828 107.599C51.6864 111.991 52.7828 114.626 55.6336 114.626C58.996 114.626 61.9199 111.478 63.1625 106.501Z" fill="#0050AE"/>
<path d="M84.2923 95.3047C89.5553 95.3047 93.5756 97.4274 92.0406 103.576C90.7248 108.92 85.9736 111.189 80.9299 111.189H77.933L75.9593 119.094H70.2578L76.1786 95.3047H84.2923ZM86.7045 102.478C87.2162 100.355 86.0467 99.7698 83.3421 99.7698H80.7837L79.1025 106.65H81.3685C84.1462 106.65 86.1198 105.04 86.7776 102.478H86.7045Z" fill="#0050AE"/>
<path d="M91.159 115.94L95.0332 112.354C96.3489 113.818 98.3225 114.623 100.004 114.623C102.343 114.623 103.805 113.598 104.17 111.988C104.463 110.89 103.366 110.597 101.612 109.719L98.8342 108.474C96.5682 107.449 94.5946 105.254 95.5448 101.52C96.4951 97.7873 100.588 94.8594 105.413 94.8594C108.41 94.8594 111.041 96.1037 112.649 98.1533L109.287 101.374C108.044 100.203 106.729 99.6905 105.047 99.6905C103.074 99.6905 101.539 100.642 101.173 102.179C100.881 103.204 102.124 103.57 103.951 104.375L106.656 105.546C109.287 106.717 110.749 108.84 109.799 112.5C108.848 116.16 104.974 119.454 99.4189 119.454C96.0565 119.454 93.0595 118.136 91.0859 115.867L91.159 115.94Z" fill="#0050AE"/>
<path d="M28.375 80.8801L35.9039 73.3407C38.4623 76.5614 41.7517 78.3181 45.6258 78.3181C51.3273 78.3181 55.9324 75.5366 57.175 70.6323C58.1984 66.46 56.8095 64.1909 45.041 64.1909L46.3567 54.7483C55.9324 54.7483 60.3913 51.2348 61.5608 46.0377C62.3649 42.8902 61.0491 41.353 57.3943 41.353C53.0816 41.353 49.573 43.549 45.6258 46.4769L40.1435 37.4003C46.4298 33.0084 52.4238 30.8125 58.5639 30.8125C70.6979 30.8125 77.3497 36.8879 74.6451 47.5749C73.4025 52.4792 69.8938 56.5051 63.4613 58.9206L62.2187 59.2134C67.9933 61.1166 71.8674 66.094 69.8938 73.9994C67.4816 83.808 57.1019 89.0783 46.4298 89.0783C37.0004 89.0783 31.5182 85.4916 28.4481 80.8069L28.375 80.8801Z" fill="#0050AE"/>
<path d="M107.103 48.0893C108.2 43.6242 106.445 41.4283 102.498 41.4283C98.1123 41.4283 94.1651 44.4294 90.9489 47.2841L84.8088 39.1591C91.7529 33.3765 97.3083 30.9609 104.764 30.9609C116.167 30.9609 122.307 38.5004 119.457 49.9193C117.191 58.9226 106.738 69.39 95.4809 77.9542C98.0392 77.149 101.986 76.8562 104.472 76.8562H115.29L112.512 88.2019H73.625L75.2331 80.0769C92.4108 67.3404 104.837 56.9463 107.03 48.1625L107.103 48.0893Z" fill="#0050AE"/>
</svg>
