<svg width="185" height="185" viewBox="0 0 185 185" fill="none" xmlns="http://www.w3.org/2000/svg">
<rect x="1.30282" y="1.30282" width="182.394" height="182.394" rx="24.7535" stroke="black" stroke-width="2.60563"/>
<path d="M64.4085 36.6907C64.3381 35.073 62.9314 33.7367 61.2432 33.8774C59.6958 33.9477 58.5 35.2137 58.4297 36.6907V45.834H64.4085V36.6907Z" fill="black"/>
<path d="M34.0024 122.509C34.0727 124.056 35.3388 125.252 36.8159 125.322H45.9599V119.344H36.8159C35.1981 119.414 33.8617 120.821 34.0024 122.509Z" fill="black"/>
<path d="M34.0888 107.657C34.1592 109.134 35.3549 110.33 36.832 110.4H45.9761V104.422H36.832C35.2142 104.563 33.9481 105.969 34.0888 107.587V107.657Z" fill="black"/>
<path d="M34.0024 92.6884C34.0727 94.2357 35.3388 95.4314 36.8159 95.5017H45.9599V89.5234H36.8159C35.1981 89.5938 33.8617 91.0004 34.0024 92.6884Z" fill="black"/>
<path d="M94.1428 36.6907C94.0725 35.073 92.6657 33.7367 90.9776 33.8774C89.4301 33.9477 88.2344 35.2137 88.1641 36.6907V45.834H94.1428V36.6907Z" fill="black"/>
<path d="M151.567 62.7196C151.567 61.102 150.231 59.7656 148.613 59.7656H139.469V65.7439H148.613C150.231 65.7439 151.567 64.4076 151.567 62.7899V62.7196Z" fill="black"/>
<path d="M123.971 36.6907C123.901 35.073 122.494 33.7367 120.806 33.8774C119.258 33.9477 118.063 35.2137 117.992 36.6907V45.834H123.971V36.6907Z" fill="black"/>
<path d="M34.0024 77.7665C34.0727 79.3139 35.3388 80.5095 36.8159 80.5799H45.9599V74.6016H36.8159C35.1981 74.6719 33.8617 76.0786 34.0024 77.7665Z" fill="black"/>
<path d="M79.2444 36.6907C79.1741 35.073 77.7673 33.7367 76.0792 33.8774C74.5317 33.9477 73.336 35.2137 73.2656 36.6907V45.834H79.2444V36.6907Z" fill="black"/>
<path d="M109.065 36.6907C108.994 35.073 107.588 33.7367 105.899 33.8774C104.352 33.9477 103.156 35.2137 103.086 36.6907V45.834H109.065V36.6907Z" fill="black"/>
<path d="M103.086 148.378C103.156 149.995 104.563 151.332 106.251 151.191C107.799 151.121 108.994 149.855 109.065 148.378V139.234H103.086V148.378Z" fill="black"/>
<path d="M148.613 119.344H139.469V125.322H148.613C150.231 125.252 151.567 123.845 151.426 122.157C151.356 120.61 150.09 119.414 148.613 119.344Z" fill="black"/>
<path d="M148.613 104.422H139.469V110.4H148.613C150.231 110.33 151.567 108.923 151.426 107.235C151.356 105.688 150.09 104.492 148.613 104.422Z" fill="black"/>
<path d="M148.613 89.5234H139.469V95.5017H148.613C150.231 95.4314 151.567 94.0247 151.426 92.3368C151.356 90.7894 150.09 89.5938 148.613 89.5234Z" fill="black"/>
<path d="M148.613 74.6562H139.469V80.6346H148.613C150.231 80.5642 151.567 79.1576 151.426 77.4696C151.356 75.9222 150.09 74.7266 148.613 74.6562Z" fill="black"/>
<path d="M33.875 62.7196C33.875 64.3373 35.2114 65.6736 36.8292 65.6736H45.9732V59.6953H36.8292C35.2114 59.6953 33.875 61.0316 33.875 62.6493V62.7196Z" fill="black"/>
<path d="M73.2656 148.378C73.336 149.995 74.7427 151.332 76.4309 151.191C77.9783 151.121 79.1741 149.855 79.2444 148.378V139.234H73.2656V148.378Z" fill="black"/>
<path d="M58.4297 148.378C58.5 149.995 59.9068 151.332 61.5949 151.191C63.1424 151.121 64.3381 149.855 64.4085 148.378V139.234H58.4297V148.378Z" fill="black"/>
<path d="M88.1641 148.378C88.2344 149.995 89.6412 151.332 91.3293 151.191C92.8767 151.121 94.0725 149.855 94.1428 148.378V139.234H88.1641V148.378Z" fill="black"/>
<path d="M117.992 148.378C118.063 149.995 119.469 151.332 121.157 151.191C122.705 151.121 123.901 149.855 123.971 148.378V139.234H117.992V148.378Z" fill="black"/>
<path d="M131.297 47.6641H54.2055C50.6886 47.6641 47.875 50.4774 47.875 53.994V131.079C47.875 134.596 50.6886 137.409 54.2055 137.409H131.297C134.813 137.409 137.627 134.596 137.627 131.079V53.994C137.627 50.4774 134.813 47.6641 131.297 47.6641Z" fill="black"/>
<path d="M71.8295 90.4545C71.7784 90.0227 71.571 89.6875 71.2074 89.4489C70.8438 89.2102 70.3977 89.0909 69.8693 89.0909C69.483 89.0909 69.1449 89.1534 68.8551 89.2784C68.5682 89.4034 68.3438 89.5753 68.1818 89.794C68.0227 90.0128 67.9432 90.2614 67.9432 90.5398C67.9432 90.7727 67.9986 90.973 68.1094 91.1406C68.223 91.3054 68.3679 91.4432 68.544 91.554C68.7202 91.6619 68.9048 91.7514 69.098 91.8224C69.2912 91.8906 69.4688 91.946 69.6307 91.9886L70.517 92.2273C70.7443 92.2869 70.9972 92.3693 71.2756 92.4744C71.5568 92.5795 71.8253 92.723 72.081 92.9048C72.3395 93.0838 72.5526 93.3139 72.7202 93.5952C72.8878 93.8764 72.9716 94.2216 72.9716 94.6307C72.9716 95.1023 72.848 95.5284 72.6009 95.9091C72.3565 96.2898 71.9986 96.5923 71.527 96.8168C71.0582 97.0412 70.4886 97.1534 69.8182 97.1534C69.1932 97.1534 68.652 97.0526 68.1946 96.8509C67.7401 96.6491 67.3821 96.3679 67.1207 96.0071C66.8622 95.6463 66.7159 95.2273 66.6818 94.75H67.7727C67.8011 95.0795 67.9119 95.3523 68.1051 95.5682C68.3011 95.7812 68.5483 95.9403 68.8466 96.0455C69.1477 96.1477 69.4716 96.1989 69.8182 96.1989C70.2216 96.1989 70.5838 96.1335 70.9048 96.0028C71.2259 95.8693 71.4801 95.6847 71.6676 95.4489C71.8551 95.2102 71.9489 94.9318 71.9489 94.6136C71.9489 94.3239 71.8679 94.0881 71.706 93.9062C71.544 93.7244 71.331 93.5767 71.0668 93.4631C70.8026 93.3494 70.517 93.25 70.2102 93.1648L69.1364 92.858C68.4545 92.6619 67.9148 92.3821 67.517 92.0185C67.1193 91.6548 66.9205 91.179 66.9205 90.5909C66.9205 90.1023 67.0526 89.6761 67.3168 89.3125C67.5838 88.946 67.9418 88.6619 68.3906 88.4602C68.8423 88.2557 69.3466 88.1534 69.9034 88.1534C70.4659 88.1534 70.9659 88.2543 71.4034 88.456C71.8409 88.6548 72.1875 88.9276 72.4432 89.2741C72.7017 89.6207 72.8381 90.0142 72.8523 90.4545H71.8295ZM80.6751 91C80.5813 90.7131 80.4577 90.456 80.3043 90.2287C80.1538 89.9986 79.9734 89.8026 79.7631 89.6406C79.5558 89.4787 79.32 89.3551 79.0558 89.2699C78.7915 89.1847 78.5018 89.142 78.1864 89.142C77.6694 89.142 77.1992 89.2756 76.7759 89.5426C76.3526 89.8097 76.016 90.2031 75.766 90.723C75.516 91.2429 75.391 91.8807 75.391 92.6364C75.391 93.392 75.5174 94.0298 75.7702 94.5497C76.0231 95.0696 76.3654 95.4631 76.7972 95.7301C77.229 95.9972 77.7148 96.1307 78.2546 96.1307C78.7546 96.1307 79.195 96.0241 79.5756 95.8111C79.9592 95.5952 80.2575 95.2912 80.4705 94.8991C80.6864 94.5043 80.7944 94.0398 80.7944 93.5057L81.1183 93.5739H78.4933V92.6364H81.8171V93.5739C81.8171 94.2926 81.6637 94.9176 81.3569 95.4489C81.0529 95.9801 80.6325 96.392 80.0955 96.6847C79.5614 96.9744 78.9478 97.1193 78.2546 97.1193C77.4819 97.1193 76.8029 96.9375 76.2177 96.5739C75.6353 96.2102 75.1808 95.6932 74.854 95.0227C74.5302 94.3523 74.3683 93.5568 74.3683 92.6364C74.3683 91.946 74.4606 91.3253 74.6452 90.7741C74.8327 90.2202 75.0969 89.7486 75.4379 89.3594C75.7788 88.9702 76.1822 88.6719 76.6481 88.4645C77.114 88.2571 77.6268 88.1534 78.1864 88.1534C78.6467 88.1534 79.0756 88.223 79.4734 88.3622C79.8739 88.4986 80.2305 88.6932 80.543 88.946C80.8583 89.196 81.1211 89.4957 81.3313 89.8452C81.5415 90.1918 81.6864 90.5767 81.766 91H80.6751ZM83.4737 97V96.233L86.3544 93.0795C86.6925 92.7102 86.9709 92.3892 87.1896 92.1165C87.4084 91.8409 87.5703 91.5824 87.6754 91.3409C87.7834 91.0966 87.8374 90.8409 87.8374 90.5739C87.8374 90.267 87.7635 90.0014 87.6158 89.777C87.4709 89.5526 87.272 89.3793 87.0192 89.2571C86.7663 89.1349 86.4822 89.0739 86.1669 89.0739C85.8317 89.0739 85.5391 89.1435 85.2891 89.2827C85.0419 89.419 84.8501 89.6108 84.7138 89.858C84.5803 90.1051 84.5135 90.3949 84.5135 90.7273H83.5078C83.5078 90.2159 83.6257 89.767 83.8615 89.3807C84.0973 88.9943 84.4183 88.6932 84.8246 88.4773C85.2337 88.2614 85.6925 88.1534 86.201 88.1534C86.7124 88.1534 87.1655 88.2614 87.5604 88.4773C87.9553 88.6932 88.2649 88.9844 88.4893 89.3509C88.7138 89.7173 88.826 90.125 88.826 90.5739C88.826 90.8949 88.7678 91.2088 88.6513 91.5156C88.5376 91.8196 88.3388 92.1591 88.0547 92.5341C87.7734 92.9062 87.3828 93.3608 86.8828 93.8977L84.9226 95.9943V96.0625H88.9794V97H83.4737ZM93.6882 97.1193C93.1257 97.1193 92.6243 97.0227 92.1839 96.8295C91.7464 96.6364 91.3984 96.3679 91.1399 96.0241C90.8842 95.6776 90.745 95.2756 90.7223 94.8182H91.7962C91.8189 95.0994 91.9155 95.3423 92.0859 95.5469C92.2564 95.7486 92.4794 95.9048 92.755 96.0156C93.0305 96.1264 93.3359 96.1818 93.6712 96.1818C94.0462 96.1818 94.3786 96.1165 94.6683 95.9858C94.9581 95.8551 95.1854 95.6733 95.3501 95.4403C95.5149 95.2074 95.5973 94.9375 95.5973 94.6307C95.5973 94.3097 95.5178 94.027 95.3587 93.7827C95.1996 93.5355 94.9666 93.3423 94.6598 93.2031C94.353 93.0639 93.978 92.9943 93.5348 92.9943H92.8359V92.0568H93.5348C93.8814 92.0568 94.1854 91.9943 94.4467 91.8693C94.7109 91.7443 94.9169 91.5682 95.0646 91.3409C95.2152 91.1136 95.2905 90.8466 95.2905 90.5398C95.2905 90.2443 95.2251 89.9872 95.0945 89.7685C94.9638 89.5497 94.7791 89.3793 94.5405 89.2571C94.3047 89.1349 94.0263 89.0739 93.7053 89.0739C93.4041 89.0739 93.12 89.1293 92.853 89.2401C92.5888 89.348 92.3729 89.5057 92.2053 89.7131C92.0376 89.9176 91.9467 90.1648 91.9325 90.4545H90.9098C90.9268 89.9972 91.0646 89.5966 91.3232 89.2528C91.5817 88.9062 91.9197 88.6364 92.3374 88.4432C92.7578 88.25 93.2195 88.1534 93.7223 88.1534C94.2621 88.1534 94.7251 88.2628 95.1115 88.4815C95.4979 88.6974 95.7947 88.983 96.0021 89.3381C96.2095 89.6932 96.3132 90.0767 96.3132 90.4886C96.3132 90.9801 96.1839 91.3991 95.9254 91.7457C95.6697 92.0923 95.3217 92.3324 94.8814 92.4659V92.5341C95.4325 92.625 95.8629 92.8594 96.1726 93.2372C96.4822 93.6122 96.6371 94.0767 96.6371 94.6307C96.6371 95.1051 96.5078 95.5312 96.2493 95.9091C95.9936 96.2841 95.6442 96.5795 95.201 96.7955C94.7578 97.0114 94.2536 97.1193 93.6882 97.1193ZM101.227 97.1193C100.585 97.1193 100.038 96.9446 99.5859 96.5952C99.1342 96.2429 98.7891 95.733 98.5504 95.0653C98.3118 94.3949 98.1925 93.5852 98.1925 92.6364C98.1925 91.6932 98.3118 90.8878 98.5504 90.2202C98.7919 89.5497 99.1385 89.0384 99.5902 88.6861C100.045 88.331 100.59 88.1534 101.227 88.1534C101.863 88.1534 102.407 88.331 102.859 88.6861C103.313 89.0384 103.66 89.5497 103.898 90.2202C104.14 90.8878 104.261 91.6932 104.261 92.6364C104.261 93.5852 104.141 94.3949 103.903 95.0653C103.664 95.733 103.319 96.2429 102.867 96.5952C102.415 96.9446 101.869 97.1193 101.227 97.1193ZM101.227 96.1818C101.863 96.1818 102.357 95.875 102.71 95.2614C103.062 94.6477 103.238 93.7727 103.238 92.6364C103.238 91.8807 103.157 91.2372 102.995 90.706C102.836 90.1747 102.606 89.7699 102.305 89.4915C102.006 89.2131 101.647 89.0739 101.227 89.0739C100.596 89.0739 100.103 89.3849 99.7479 90.0071C99.3928 90.6264 99.2152 91.5028 99.2152 92.6364C99.2152 93.392 99.2947 94.0341 99.4538 94.5625C99.6129 95.0909 99.8416 95.4929 100.14 95.7685C100.441 96.044 100.803 96.1818 101.227 96.1818ZM108.727 97.1193C108.085 97.1193 107.538 96.9446 107.086 96.5952C106.634 96.2429 106.289 95.733 106.05 95.0653C105.812 94.3949 105.692 93.5852 105.692 92.6364C105.692 91.6932 105.812 90.8878 106.05 90.2202C106.292 89.5497 106.638 89.0384 107.09 88.6861C107.545 88.331 108.09 88.1534 108.727 88.1534C109.363 88.1534 109.907 88.331 110.359 88.6861C110.813 89.0384 111.16 89.5497 111.398 90.2202C111.64 90.8878 111.761 91.6932 111.761 92.6364C111.761 93.5852 111.641 94.3949 111.403 95.0653C111.164 95.733 110.819 96.2429 110.367 96.5952C109.915 96.9446 109.369 97.1193 108.727 97.1193ZM108.727 96.1818C109.363 96.1818 109.857 95.875 110.21 95.2614C110.562 94.6477 110.738 93.7727 110.738 92.6364C110.738 91.8807 110.657 91.2372 110.495 90.706C110.336 90.1747 110.106 89.7699 109.805 89.4915C109.506 89.2131 109.147 89.0739 108.727 89.0739C108.096 89.0739 107.603 89.3849 107.248 90.0071C106.893 90.6264 106.715 91.5028 106.715 92.6364C106.715 93.392 106.795 94.0341 106.954 94.5625C107.113 95.0909 107.342 95.4929 107.64 95.7685C107.941 96.044 108.303 96.1818 108.727 96.1818ZM114.147 90.4545L115.715 93.1307L117.283 90.4545H118.442L116.329 93.7273L118.442 97H117.283L115.715 94.4602L114.147 97H112.988L115.067 93.7273L112.988 90.4545H114.147Z" fill="white"/>
</svg>
