<svg width="186" height="185" viewBox="0 0 186 185" fill="none" xmlns="http://www.w3.org/2000/svg">
<rect x="1.47469" y="1.30282" width="182.394" height="182.394" rx="24.7535" stroke="black" stroke-width="2.60563"/>
<path d="M34.0817 93.8433L41.1492 65.0882H31.9249L33.3403 57.4766C38.9924 56.4558 42.9016 54.9588 46.9457 52.7812L56.1025 53.0534L46.0694 93.8433H55.0915L52.6651 103.632H21.0156L23.4421 93.8433H34.0817Z" fill="black"/>
<path d="M91.8502 61.7625C86.1982 61.7625 80.6039 66.0495 77.2435 76.6455C80.6135 72.9029 84.9849 71.5516 87.4114 71.5516C96.1638 71.5516 101.623 76.9858 98.7925 88.6122C96.2986 98.7416 87.7484 104.584 79.2655 104.584C69.3672 104.584 61.5584 96.6322 66.2668 77.5982C70.6382 59.9252 81.6823 52.1094 91.5806 52.1094C98.648 52.1094 102.827 55.3076 105.388 58.5642L97.9163 64.8829C96.7704 63.1137 94.1418 61.7527 91.8598 61.7527L91.8502 61.7625ZM88.3454 86.3083C89.5586 81.3505 87.6713 80.0576 84.8405 80.0576C82.0097 80.0576 78.6493 81.7588 75.6162 85.6278C74.4704 93.5797 76.6273 95.5531 79.3907 95.5531C82.9629 95.5531 86.7951 92.6271 88.3454 86.3083Z" fill="black"/>
<path d="M107.266 87.5881C109.803 77.4003 117.997 71.6875 126.102 71.6875C130.999 71.6875 133.831 73.9068 135.559 76.0772L130.746 80.4243C129.604 79.0159 128.209 78.205 125.89 78.205C120.95 78.205 116.349 82.2107 114.743 88.777C113.263 94.7032 114.954 98.026 120.485 98.026C121.923 98.026 123.275 97.5138 124.073 97.0017L125.51 92.0998H120.528L122.092 85.8749H133.747L130.244 100.971C127.539 103.105 123.36 104.592 119.266 104.592C110.231 104.592 104.567 98.7088 107.272 87.582L107.266 87.5881Z" fill="black"/>
<path d="M154.144 72.2734C160.648 72.2734 165.63 74.3647 164.023 80.8456C163.432 83.2783 161.409 86.1316 158.745 87.1132L158.069 87.2412C161.022 88.0948 163.051 90.7347 161.91 95.344C160.43 101.441 154.645 104.002 147.803 104.002H135.641L143.455 72.2734H154.138H154.144ZM155.074 93.3808C155.623 91.1615 154.271 90.4787 150.599 90.4787H146.547L144.645 98.1546H148.105C151.734 98.1546 154.313 96.4902 155.074 93.3808ZM156.765 80.5469C157.23 78.669 156.173 78.0716 153.008 78.0716H149.59L147.942 84.8513H150.774C153.981 84.8513 156.137 83.1015 156.771 80.5469H156.765Z" fill="black"/>
<path d="M30.7142 113.852L26.7715 129.676H34.4702L33.4836 133.672H21.0156L25.9449 113.852H30.7142Z" fill="black"/>
<path d="M48.6282 113.852C52.9975 113.852 56.3535 115.611 55.0736 120.75C53.9536 125.226 50.011 127.089 45.8283 127.089H43.3256L41.699 133.668H36.9297L41.8628 113.852H48.6282ZM50.6509 119.844C51.1042 118.084 50.1176 117.608 47.8282 117.608H45.6988L44.2589 123.337H46.1521C48.4682 123.337 50.1214 122.03 50.6547 119.847L50.6509 119.844Z" fill="black"/>
<path d="M65.6602 113.852C71.7056 113.852 75.1187 116.968 73.3322 124.106C71.6827 130.765 67.1534 133.672 61.3708 133.672H55.2188L60.1442 113.852H65.6602ZM68.6695 123.203C69.8161 118.728 68.0029 117.634 64.8069 117.634H63.9802L60.9442 129.836H61.3975C64.5935 129.836 67.4467 128.156 68.6695 123.203Z" fill="black"/>
<path d="M85.0977 113.852C91.1431 113.852 94.5562 116.968 92.7697 124.106C91.1202 130.765 86.5909 133.672 80.8083 133.672H74.6562L79.5817 113.852H85.0977ZM88.107 123.203C89.2536 118.728 87.4404 117.634 84.2444 117.634H83.4177L80.3817 129.836H80.835C84.031 129.836 86.8842 128.156 88.107 123.203Z" fill="black"/>
<path d="M102.9 126.693H100.557L98.824 133.672H94.0547L98.984 113.852H106.069C110.305 113.852 113.608 115.505 112.355 120.537C111.688 123.2 110.065 124.933 107.692 125.893L110.008 133.672H104.812L102.892 126.693H102.9ZM103.433 122.937C105.696 122.937 107.376 121.737 107.909 119.634C108.309 118.008 107.403 117.611 105.14 117.611H102.824L101.491 122.941H103.433V122.937Z" fill="black"/>
<path d="M125.172 128.716L123.946 133.672H119.523L120.749 128.716H112.438L113.184 125.44L122.989 113.852H128.879L126.083 125.12H128.292L127.385 128.716H125.176H125.172ZM122.429 122.004C122.749 120.75 123.336 118.861 123.709 117.608L123.576 118.034C122.776 119.154 121.976 120.297 121.207 121.417L117.931 125.12H121.66L122.433 122.004H122.429Z" fill="black"/>
<path d="M132.487 113.855H137.657L138.297 117.611C138.483 118.545 138.697 119.581 138.91 120.861L139.15 120.434C139.923 119.154 140.617 118.118 141.173 117.185L143.515 113.855H148.685L141.039 123.683L143.942 133.672H138.773L137.973 129.622C137.733 128.582 137.546 127.519 137.333 126.293L137.093 126.72C136.32 127.946 135.626 128.982 134.99 130.022L132.301 133.672H127.078L135.15 123.47L132.487 113.852V113.855Z" fill="black"/>
</svg>
