<svg width="186" height="185" viewBox="0 0 186 185" fill="none" xmlns="http://www.w3.org/2000/svg">
<rect x="1.63875" y="1.30282" width="182.394" height="182.394" rx="24.7535" stroke="black" stroke-width="2.60563"/>
<g clip-path="url(#clip0_14938_39821)">
<path d="M48.9135 54.2313C43.1075 54.2313 37.3609 58.6467 33.9089 69.5601C37.3708 65.7054 41.8612 64.3137 44.3538 64.3137C53.3446 64.3137 58.9528 69.9105 56.0449 81.8853C53.4831 92.3181 44.6999 98.3355 35.986 98.3355C25.8181 98.3355 17.7966 90.1454 22.6333 70.5413C27.1237 52.339 38.4687 44.2891 48.6365 44.2891C55.8965 44.2891 60.1892 47.5831 62.8202 50.9372L55.1448 57.4452C53.9678 55.623 51.2675 54.2213 48.9234 54.2213L48.9135 54.2313ZM45.3132 79.5123C46.5594 74.4061 44.6208 73.0744 41.7129 73.0744C38.8049 73.0744 35.353 74.8266 32.2374 78.8115C31.0603 87.0015 33.2759 89.034 36.1146 89.034C39.7841 89.034 43.7207 86.0203 45.3132 79.5123Z" fill="black"/>
<path d="M92.7685 84.3336L89.5837 97.3596H78.1003L81.2852 84.3336H59.7031L61.6417 75.723L87.0911 45.2656H102.373L95.1127 74.882H100.849L98.4954 84.3336H92.7587H92.7685ZM85.6471 66.692C86.4779 63.3979 88.0011 58.4318 88.9704 55.1378L88.6242 56.2591C86.5471 59.2027 84.47 62.2064 82.4721 65.1501L73.9659 74.882H83.6491L85.657 66.692H85.6471Z" fill="black"/>
<path d="M106.857 81.1076C109.418 70.7849 117.687 65.0078 125.877 65.0078C130.822 65.0078 133.681 67.2506 135.431 69.4533L130.565 73.8587C129.418 72.4369 128.003 71.6159 125.659 71.6159C120.674 71.6159 116.025 75.6709 114.403 82.3191C112.91 88.3165 114.621 91.6906 120.199 91.6906C121.653 91.6906 123.018 91.17 123.829 90.6593L125.283 85.6932H120.249L121.831 79.3855H133.602L130.061 94.6642C127.331 96.8269 123.107 98.3388 118.973 98.3388C109.844 98.3388 104.127 92.3814 106.857 81.1176V81.1076Z" fill="black"/>
<path d="M154.192 65.6172C160.759 65.6172 165.794 67.7298 164.172 74.2979C163.578 76.7609 161.531 79.6544 158.841 80.6457L158.158 80.7758C161.145 81.6369 163.193 84.3202 162.035 88.9759C160.542 95.1535 154.696 97.7367 147.792 97.7367H135.508L143.401 65.6172H154.192ZM155.131 86.9834C155.685 84.7407 154.32 84.0498 150.611 84.0498H146.516L144.598 91.8194H148.099C151.769 91.8194 154.37 90.1373 155.131 86.9834ZM156.843 73.9875C157.307 72.0851 156.249 71.4844 153.044 71.4844H149.593L147.931 78.3528H150.789C154.034 78.3528 156.21 76.5807 156.843 73.9975V73.9875Z" fill="black"/>
<path d="M24.2102 128.177C25.9411 121.168 31.8756 116.953 37.0288 116.953C43.7547 116.953 45.9208 122.009 44.3086 128.577C44.1107 129.448 43.7151 130.73 43.448 131.241H30.1546C30.0359 134.344 31.6877 135.306 34.2495 135.306C36.1386 135.306 37.83 134.665 39.6005 133.714L41.3314 138.329C38.5817 140.001 35.3968 140.722 33.0329 140.722C26.3466 140.722 22.3012 136.027 24.22 128.177H24.2102ZM36.9101 122.36C34.7044 122.36 32.4295 123.912 31.2822 126.615L38.9872 125.974C39.5807 123.701 39.185 122.35 36.9002 122.35L36.9101 122.36Z" fill="black"/>
<path d="M61.301 110.557L62.7154 123.653C62.8737 125.365 62.9132 127.237 62.9132 129.07L63.3484 128.429C64.3672 126.597 65.3167 124.724 66.2168 123.012L73.8427 110.547H81.5478L74.268 140.163H67.8587L70.4106 129.69C71.1623 126.747 72.7745 122.321 73.8328 119.418L73.6746 119.738L69.5797 126.827L62.8934 137.66H59.036L57.8194 126.827L57.2259 119.738L56.7907 120.059C56.3951 122.962 55.9302 127.388 55.1785 130.331L52.775 140.163H46.4844L53.7641 110.547H61.2713L61.301 110.557Z" fill="black"/>
<path d="M95.7854 110.557L97.1998 123.653C97.358 125.365 97.3976 127.237 97.3976 129.07L97.8328 128.429C98.8516 126.597 99.8011 124.724 100.701 123.012L108.327 110.547H116.032L108.752 140.163H102.343L104.895 129.69C105.647 126.747 107.259 122.321 108.317 119.418L108.159 119.738L104.064 126.827L97.3778 137.66H93.5204L92.3038 126.827L91.7103 119.738L91.2751 120.059C90.8795 122.962 90.4047 127.388 89.6629 130.331L87.2594 140.163H80.9688L88.2485 110.547H95.7557L95.7854 110.557Z" fill="black"/>
<path d="M117.905 124.84C120.269 115.329 127.855 109.992 135.016 109.992C139.111 109.992 141.742 112.025 143.354 114.097L138.913 118.162C137.815 116.811 136.509 116.09 134.699 116.09C130.644 116.09 126.361 119.834 124.868 125.962C123.493 131.499 125.145 134.602 129.002 134.602C131.594 134.602 133.918 133.171 135.57 131.659L138.478 136.595C135.293 139.498 131.831 140.74 128.29 140.74C120.585 140.74 115.392 135.243 117.905 124.85V124.84Z" fill="black"/>
</g>
<defs>
<clipPath id="clip0_14938_39821">
<rect width="143.31" height="96.4085" fill="white" transform="translate(21.1797 44.2969)"/>
</clipPath>
</defs>
</svg>
