<svg width="121" height="120" viewBox="0 0 121 120" fill="none" xmlns="http://www.w3.org/2000/svg">
<rect width="120" height="120" transform="translate(0.5)" fill="white"/>
<g clip-path="url(#clip0_13334_17756)">
<path d="M90.1431 31.7916C90.6299 31.7916 91.1057 31.6473 91.5104 31.3768C91.9151 31.1064 92.2305 30.7221 92.4168 30.2724C92.603 29.8227 92.6517 29.3279 92.5568 28.8505C92.4618 28.3732 92.2275 27.9347 91.8833 27.5905C91.5391 27.2463 91.1006 27.0119 90.6232 26.917C90.1459 26.822 89.6511 26.8708 89.2014 27.057C88.7517 27.2433 88.3674 27.5587 88.0969 27.9634C87.8265 28.3681 87.6822 28.8439 87.6822 29.3306C87.6822 29.9833 87.9415 30.6093 88.403 31.0708C88.8645 31.5323 89.4905 31.7916 90.1431 31.7916ZM90.1431 87.1627C89.6564 87.1627 89.1806 87.307 88.7759 87.5774C88.3712 87.8478 88.0558 88.2322 87.8695 88.6819C87.6833 89.1315 87.6345 89.6263 87.7295 90.1037C87.8244 90.5811 88.0588 91.0196 88.403 91.3638C88.7472 91.7079 89.1857 91.9423 89.663 92.0373C90.1404 92.1322 90.6352 92.0835 91.0849 91.8972C91.5346 91.711 91.9189 91.3955 92.1893 90.9908C92.4597 90.5861 92.6041 90.1103 92.6041 89.6236C92.6041 88.9709 92.3448 88.345 91.8833 87.8835C91.4218 87.422 90.7958 87.1627 90.1431 87.1627ZM93.1172 20H29.1328C27.1748 20 25.2969 20.7778 23.9124 22.1624C22.5278 23.5469 21.75 25.4248 21.75 27.3828V91.3672C21.75 93.3252 22.5278 95.2031 23.9124 96.5876C25.2969 97.9722 27.1748 98.75 29.1328 98.75H93.1172C95.0752 98.75 96.9531 97.9722 98.3376 96.5876C99.7222 95.2031 100.5 93.3252 100.5 91.3672V27.3828C100.5 25.4248 99.7222 23.5469 98.3376 22.1624C96.9531 20.7778 95.0752 20 93.1172 20ZM95.5781 91.3672C95.5781 92.0199 95.3188 92.6458 94.8573 93.1073C94.3958 93.5688 93.7699 93.8281 93.1172 93.8281H29.1328C28.4801 93.8281 27.8542 93.5688 27.3927 93.1073C26.9312 92.6458 26.6719 92.0199 26.6719 91.3672V27.3828C26.6719 26.7301 26.9312 26.1042 27.3927 25.6427C27.8542 25.1812 28.4801 24.9219 29.1328 24.9219H93.1172C93.7699 24.9219 94.3958 25.1812 94.8573 25.6427C95.3188 26.1042 95.5781 26.7301 95.5781 27.3828V91.3672ZM61.125 27.2807C54.7771 27.2807 48.5717 29.1631 43.2935 32.6898C38.0154 36.2166 33.9017 41.2293 31.4725 47.0941C29.0433 52.9588 28.4077 59.4123 29.6462 65.6382C30.8848 71.8642 33.9417 77.583 38.4305 82.0716C42.9192 86.5602 48.6382 89.6169 54.8642 90.8552C61.0902 92.0935 67.5436 91.4577 73.4083 89.0283C79.273 86.5989 84.2855 82.4849 87.8121 77.2067C91.3386 71.9284 93.2208 65.7229 93.2205 59.375C93.2108 50.8658 89.8261 42.708 83.8091 36.6912C77.7921 30.6745 69.6342 27.2901 61.125 27.2807ZM61.125 86.5474C55.7509 86.5472 50.4975 84.9534 46.0291 81.9675C41.5608 78.9816 38.0782 74.7377 36.0218 69.7726C33.9654 64.8075 33.4275 59.344 34.4761 54.0732C35.5246 48.8023 38.1127 43.9608 41.9128 40.1607C45.713 36.3607 50.5547 33.7729 55.8256 32.7246C61.0965 31.6762 66.5599 32.2144 71.525 34.2711C76.49 36.3277 80.7337 39.8105 83.7194 44.2789C86.7051 48.7474 88.2987 54.0009 88.2987 59.375C88.2905 66.5793 85.4249 73.4862 80.3306 78.5803C75.2363 83.6744 68.3293 86.5396 61.125 86.5474ZM82.2989 58.1445H70.6255C71.9885 56.8987 73.078 55.3835 73.825 53.6948C74.5721 52.006 74.9604 50.1806 74.9653 48.334C74.9653 41.2145 69.144 36.0478 61.125 36.0478C60.4723 36.0478 59.8464 36.3071 59.3849 36.7686C58.9233 37.2301 58.6641 37.856 58.6641 38.5087V50.5501C56.1132 48.3077 52.8319 47.073 49.4355 47.0777C42.1561 47.0777 36.8725 52.7662 36.8725 60.6055C36.8725 61.2581 37.1317 61.8841 37.5933 62.3456C38.0548 62.8071 38.6807 63.0664 39.3334 63.0664H49.5463C48.0687 65.252 47.2786 67.8295 47.2773 70.4677C47.2773 77.5872 53.0987 82.7539 61.1176 82.7539C61.7703 82.7539 62.3962 82.4946 62.8578 82.0331C63.3193 81.5716 63.5786 80.9456 63.5786 80.293V70.7728C65.9572 72.884 69.0119 74.0758 72.1918 74.1332C79.7075 74.1332 84.7549 67.1393 84.7549 60.6055C84.7549 59.9536 84.4963 59.3284 84.0359 58.8671C83.5754 58.4057 82.9507 58.1458 82.2989 58.1445ZM42.0626 58.1445C42.3379 56.4008 43.2372 54.8165 44.5932 53.6862C45.9492 52.5558 47.6695 51.9565 49.4343 51.9996C51.1852 51.9876 52.9009 52.4917 54.367 53.4489C55.8332 54.4061 56.9849 55.7739 57.6785 57.3816C57.794 57.6305 57.8966 57.8851 57.9861 58.1445H42.0663H42.0626ZM58.6641 63.0664V77.5773C55.2335 76.8526 52.2066 74.5614 52.2066 70.4677C52.2377 68.9475 52.6698 67.4624 53.4591 66.1628C54.2484 64.8632 55.3669 63.795 56.7015 63.0664C57.2752 62.7336 57.8839 62.465 58.5164 62.2654C58.5669 62.2494 58.6124 62.2248 58.6641 62.21V63.0418L58.6714 63.0664H58.6641ZM63.5859 41.2244C67.0165 41.9491 70.0434 44.239 70.0434 48.334C69.9952 50.221 69.3414 52.0425 68.1786 53.5294C67.0158 55.0164 65.4057 56.09 63.5859 56.5917V41.2244ZM72.1992 69.2114C68.2457 69.2114 65.0514 66.0601 63.8234 63.0664H79.4504C78.5447 66.1032 76.042 69.2114 72.1992 69.2114ZM31.0831 87.1627C30.5964 87.1627 30.1206 87.307 29.7159 87.5774C29.3112 87.8478 28.9958 88.2322 28.8095 88.6819C28.6232 89.1315 28.5745 89.6263 28.6695 90.1037C28.7644 90.5811 28.9988 91.0196 29.343 91.3638C29.6871 91.7079 30.1256 91.9423 30.603 92.0373C31.0804 92.1322 31.5752 92.0835 32.0249 91.8972C32.4745 91.711 32.8589 91.3955 33.1293 90.9908C33.3997 90.5861 33.544 90.1103 33.544 89.6236C33.544 89.3002 33.4803 88.98 33.3565 88.6813C33.2327 88.3825 33.0512 88.1112 32.8224 87.8826C32.5936 87.654 32.322 87.4728 32.0232 87.3493C31.7243 87.2258 31.404 87.1624 31.0806 87.1627H31.0831ZM31.0831 31.7916C31.5698 31.7916 32.0456 31.6473 32.4503 31.3768C32.855 31.1064 33.1705 30.7221 33.3567 30.2724C33.543 29.8227 33.5917 29.3279 33.4968 28.8505C33.4018 28.3732 33.1674 27.9347 32.8233 27.5905C32.4791 27.2463 32.0406 27.0119 31.5632 26.917C31.0858 26.822 30.591 26.8708 30.1413 27.057C29.6917 27.2433 29.3073 27.5587 29.0369 27.9634C28.7665 28.3681 28.6222 28.8439 28.6222 29.3306C28.6222 29.9829 28.8811 30.6085 29.3421 31.0699C29.8031 31.5314 30.4284 31.7909 31.0806 31.7916H31.0831Z" fill="black"/>
</g>
<defs>
<clipPath id="clip0_13334_17756">
<rect width="78.75" height="78.75" fill="white" transform="translate(21.75 20)"/>
</clipPath>
</defs>
</svg>
