<svg width="165" height="166" viewBox="0 0 165 166" fill="none" xmlns="http://www.w3.org/2000/svg">
<rect x="2.75" y="2.97656" width="159.5" height="159.5" rx="17.875" stroke="white" stroke-width="5.5"/>
<path d="M48.4504 122.473L37.1094 110.23L22.4448 123.816L33.7858 136.058L48.4504 122.473Z" stroke="white" stroke-width="4.125"/>
<path d="M139.429 38.2933L128.301 26.2812L119.152 34.7567L130.28 46.7688L139.429 38.2933Z" stroke="white" stroke-width="4.125"/>
<path fill-rule="evenodd" clip-rule="evenodd" d="M37.7646 110.416L48.3293 121.82L129.133 46.9631L118.569 35.559L103.128 49.8633L98.3326 44.6871L46.7092 92.5109L51.5044 97.687L37.7646 110.416Z" stroke="white" stroke-width="4.125"/>
<path d="M48.5884 113.096L52.8203 117.664L123.699 52.0021L119.467 47.4339L48.5884 113.096Z" stroke="white" stroke-width="4.125"/>
<path d="M131.889 59.6002L132.04 59.4601L131.9 59.3088L123.878 50.6489L123.738 50.4976L123.586 50.6378L120.399 53.5904L120.248 53.7306L120.388 53.8819L128.41 62.5417L128.551 62.693L128.702 62.5529L131.889 59.6002ZM129.871 59.3811L128.638 60.5235L122.418 53.8095L123.651 52.6671L129.871 59.3811Z" fill="white" stroke="white" stroke-width="0.4125"/>
<path d="M126.991 64.1354L127.142 63.9952L127.002 63.8439L118.979 55.1841L118.839 55.0327L118.688 55.1729L115.501 58.1256L115.349 58.2657L115.49 58.417L123.512 67.0769L123.652 67.2282L123.804 67.088L126.991 64.1354ZM124.972 63.9163L123.739 65.0587L117.519 58.3447L118.752 57.2022L124.972 63.9163Z" fill="white" stroke="white" stroke-width="0.4125"/>
<path d="M122.081 68.6901L122.232 68.5499L122.092 68.3986L114.069 59.7387L113.929 59.5874L113.778 59.7276L110.591 62.6802L110.439 62.8204L110.579 62.9717L118.602 71.6316L118.742 71.7829L118.893 71.6427L122.081 68.6901ZM120.062 68.4709L118.829 69.6134L112.609 62.8994L113.842 61.7569L120.062 68.4709Z" fill="white" stroke="white" stroke-width="0.4125"/>
<path d="M117.182 73.2213L117.333 73.0812L117.193 72.9299L109.171 64.27L109.031 64.1187L108.879 64.2589L105.692 67.2115L105.541 67.3517L105.681 67.503L113.703 76.1628L113.844 76.3141L113.995 76.174L117.182 73.2213ZM115.164 73.0022L113.93 74.1446L107.711 67.4306L108.944 66.2882L115.164 73.0022Z" fill="white" stroke="white" stroke-width="0.4125"/>
<path d="M112.272 77.7721L112.423 77.6319L112.283 77.4806L104.261 68.8208L104.121 68.6695L103.969 68.8096L100.782 71.7623L100.631 71.9025L100.771 72.0538L108.793 80.7137L108.933 80.865L109.085 80.7248L112.272 77.7721ZM110.254 77.553L109.02 78.6955L102.8 71.9814L104.034 70.839L110.254 77.553Z" fill="white" stroke="white" stroke-width="0.4125"/>
<path d="M107.374 82.3112L107.525 82.171L107.385 82.0197L99.3622 73.3598L99.2221 73.2085L99.0708 73.3487L95.8835 76.3014L95.7322 76.4415L95.8724 76.5929L103.895 85.2527L104.035 85.404L104.186 85.2639L107.374 82.3112ZM105.355 82.092L104.122 83.2345L97.902 76.5205L99.1352 75.378L105.355 82.092Z" fill="white" stroke="white" stroke-width="0.4125"/>
<path d="M102.463 86.858L102.615 86.7179L102.475 86.5666L94.4521 77.9067L94.3119 77.7554L94.1606 77.8956L90.9733 80.8483L90.822 80.9884L90.9622 81.1397L98.9847 89.7996L99.1248 89.9509L99.2761 89.8107L102.463 86.858ZM100.445 86.6389L99.2117 87.7814L92.9918 81.0674L94.2251 79.9249L100.445 86.6389Z" fill="white" stroke="white" stroke-width="0.4125"/>
<path d="M97.5611 91.401L97.7124 91.2608L97.5722 91.1095L89.5497 82.4497L89.4096 82.2984L89.2583 82.4385L86.071 85.3912L85.9197 85.5314L86.0599 85.6827L94.0823 94.3426L94.2225 94.4939L94.3738 94.3537L97.5611 91.401ZM95.5426 91.1819L94.3093 92.3244L88.0895 85.6103L89.3227 84.4679L95.5426 91.1819Z" fill="white" stroke="white" stroke-width="0.4125"/>
<path d="M92.647 95.9518L92.7983 95.8116L92.6581 95.6603L84.6357 87.0005L84.4955 86.8492L84.3442 86.9893L81.1569 89.942L81.0056 90.0822L81.1458 90.2335L89.1683 98.8933L89.3084 99.0446L89.4597 98.9045L92.647 95.9518ZM90.6285 95.7327L89.3953 96.8752L83.1754 90.1611L84.4087 89.0186L90.6285 95.7327Z" fill="white" stroke="white" stroke-width="0.4125"/>
<path d="M87.7486 100.487L87.8999 100.347L87.7597 100.195L79.7372 91.5356L79.5971 91.3843L79.4458 91.5245L76.2585 94.4772L76.1072 94.6173L76.2474 94.7686L84.2698 103.428L84.41 103.58L84.5613 103.44L87.7486 100.487ZM85.7301 100.268L84.4968 101.41L78.277 94.6963L79.5102 93.5538L85.7301 100.268Z" fill="white" stroke="white" stroke-width="0.4125"/>
<path d="M82.8384 105.042L82.9897 104.901L82.8495 104.75L74.8271 96.0903L74.6869 95.939L74.5356 96.0792L71.3484 99.0318L71.1971 99.172L71.3372 99.3233L79.3597 107.983L79.4999 108.134L79.6512 107.994L82.8384 105.042ZM80.8199 104.823L79.5867 105.965L73.3669 99.2509L74.6001 98.1085L80.8199 104.823Z" fill="white" stroke="white" stroke-width="0.4125"/>
<path d="M77.9556 109.561L78.1069 109.421L77.9667 109.27L69.9443 100.61L69.8041 100.459L69.6528 100.599L66.4656 103.551L66.3143 103.692L66.4544 103.843L74.4769 112.503L74.6171 112.654L74.7684 112.514L77.9556 109.561ZM75.9371 109.342L74.7039 110.484L68.4841 103.77L69.7173 102.628L75.9371 109.342Z" fill="white" stroke="white" stroke-width="0.4125"/>
<path d="M73.0533 114.108L73.2046 113.968L73.0644 113.817L65.0419 105.157L64.9018 105.005L64.7505 105.146L61.5632 108.098L61.4119 108.238L61.552 108.39L69.5745 117.05L69.7147 117.201L69.866 117.061L73.0533 114.108ZM71.0348 113.889L69.8015 115.031L63.5817 108.317L64.8149 107.175L71.0348 113.889Z" fill="white" stroke="white" stroke-width="0.4125"/>
<path d="M68.1392 118.655L68.2905 118.515L68.1503 118.363L60.1279 109.704L59.9877 109.552L59.8364 109.692L56.6491 112.645L56.4978 112.785L56.638 112.937L64.6604 121.596L64.8006 121.748L64.9519 121.608L68.1392 118.655ZM66.1207 118.436L64.8875 119.578L58.6676 112.864L59.9009 111.722L66.1207 118.436Z" fill="white" stroke="white" stroke-width="0.4125"/>
<path d="M62.9673 123.44L63.1186 123.3L62.9785 123.149L54.956 114.489L54.8158 114.337L54.6645 114.478L51.4772 117.43L51.3259 117.57L51.4661 117.722L59.4886 126.382L59.6287 126.533L59.78 126.393L62.9673 123.44ZM60.9488 123.221L59.7156 124.363L53.4957 117.649L54.729 116.507L60.9488 123.221Z" fill="white" stroke="white" stroke-width="0.4125"/>
</svg>
