<svg width="151" height="150" viewBox="0 0 151 150" fill="none" xmlns="http://www.w3.org/2000/svg">
<rect x="2" y="1.5" width="147" height="147" rx="18.5" stroke="black" stroke-width="3"/>
<path d="M18.1172 96.9148L19.2227 92.5156H36.5684L35.4629 96.9148H29.4354L25.0134 114.59H19.6965L24.1184 96.9148H18.1172Z" fill="#0050AE"/>
<path d="M54.1542 92.5156L53.0487 96.9148H44.2311L43.0466 101.759H50.6272L49.4953 106.184H41.9148L39.8354 114.616H34.4922L40.0197 92.5418H54.1805L54.1542 92.5156Z" fill="#0050AE"/>
<path d="M63.3395 92.5156L58.9175 110.138H67.5245L66.419 114.59H52.4688L57.9962 92.5156H63.3395Z" fill="#0050AE"/>
<path d="M70.8888 102.916C72.6523 95.9508 77.5481 92.1016 83.3914 92.1016C89.6559 92.1016 92.8671 96.4483 90.9983 103.937C89.2348 110.903 84.3127 114.988 78.4694 114.988C72.2049 114.988 69.0463 110.431 70.8888 102.916ZM85.7867 102.916C86.8132 98.9098 85.7604 96.6316 83.0493 96.6316C79.917 96.6316 77.2323 99.3811 76.1004 103.937C75.0739 107.97 76.0741 110.431 78.7852 110.431C81.9174 110.431 84.6549 107.499 85.7867 102.916Z" fill="#0050AE"/>
<path d="M105.527 92.5156C110.423 92.5156 114.16 94.4795 112.739 100.188C111.476 105.163 107.08 107.258 102.395 107.258H99.6047L97.7885 114.59H92.4453L97.9728 92.5156H105.553H105.527ZM107.791 99.1929C108.291 97.229 107.185 96.7053 104.632 96.7053H102.237L100.631 103.095H102.737C105.343 103.095 107.185 101.654 107.764 99.2191L107.791 99.1929Z" fill="#0050AE"/>
<path d="M111.977 111.688L115.583 108.337C116.846 109.672 118.662 110.431 120.215 110.431C122.4 110.431 123.769 109.462 124.111 107.996C124.374 106.975 123.4 106.713 121.715 105.927L119.162 104.749C117.083 103.833 115.24 101.764 116.083 98.2813C116.951 94.851 120.768 92.1016 125.269 92.1016C128.033 92.1016 130.507 93.2537 132.033 95.1914L128.875 98.1766C127.69 97.0768 126.453 96.6316 124.953 96.6316C123.11 96.6316 121.663 97.5219 121.321 98.9621C121.084 99.9048 122.216 100.245 123.953 101.005L126.48 102.104C128.954 103.204 130.27 105.194 129.428 108.572C128.559 111.976 124.927 114.988 119.768 114.988C116.662 114.988 113.845 113.783 111.977 111.662V111.688Z" fill="#0050AE"/>
<path d="M46.8732 75.7353L53.8347 47.7236H44.7737L46.155 40.3201C51.7352 39.3256 55.5475 37.8891 59.5255 35.7344L68.5312 36.0106L58.6415 75.7905H67.5367L65.161 85.3488H34L36.3757 75.7905H46.818L46.8732 75.7353Z" fill="#0050AE"/>
<path d="M101.383 50.0832C102.378 46.1605 100.776 44.2267 97.3502 44.2267C93.4827 44.2267 90.002 46.8787 87.2395 49.4202L81.8802 42.2377C87.9577 37.1547 92.875 35 99.4497 35C109.45 35 114.864 41.63 112.378 51.6302C110.389 59.531 101.162 68.7024 91.328 76.2717C93.5932 75.5534 97.0187 75.2772 99.2287 75.2772H108.787L106.356 85.2222H72.1562L73.5375 78.0397C88.6207 66.8239 99.5602 57.763 101.494 50.028L101.383 50.0832Z" fill="#0050AE"/>
</svg>
