<svg width="150" height="150" viewBox="0 0 150 150" fill="none" xmlns="http://www.w3.org/2000/svg">
<rect x="1.5" y="1.5" width="147" height="147" rx="18.5" stroke="black" stroke-width="3"/>
<path d="M28.6719 99.9844L29.8414 95.2266H48.481L47.3115 99.9844H40.879L36.1277 119.089H30.4262L35.1775 99.9844H28.745H28.6719Z" fill="#0050AE"/>
<path d="M47.1622 106.501C49.0627 98.9614 54.3257 94.7891 60.5389 94.7891C67.2637 94.7891 70.6993 99.4737 68.7257 107.599C66.8252 115.138 61.5622 119.53 55.2759 119.53C48.551 119.53 45.1886 114.626 47.1622 106.501ZM63.1703 106.501C64.2668 102.182 63.1703 99.6933 60.2465 99.6933C56.884 99.6933 54.0333 102.694 52.7906 107.599C51.6942 111.991 52.7906 114.626 55.6414 114.626C59.0038 114.626 61.9277 111.478 63.1703 106.501Z" fill="#0050AE"/>
<path d="M84.3002 95.3047C89.5631 95.3047 93.5834 97.4274 92.0484 103.576C90.7327 108.92 85.9814 111.189 80.9377 111.189H77.9408L75.9672 119.094H70.2656L76.1865 95.3047H84.3002ZM86.7123 102.478C87.224 100.355 86.0545 99.7698 83.3499 99.7698H80.7915L79.1103 106.65H81.3763C84.154 106.65 86.1276 105.04 86.7854 102.478H86.7123Z" fill="#0050AE"/>
<path d="M91.1668 115.94L95.041 112.354C96.3567 113.818 98.3303 114.623 100.012 114.623C102.351 114.623 103.813 113.598 104.178 111.988C104.47 110.89 103.374 110.597 101.62 109.719L98.842 108.474C96.576 107.449 94.6024 105.254 95.5526 101.52C96.5029 97.7873 100.596 94.8594 105.421 94.8594C108.418 94.8594 111.049 96.1037 112.657 98.1533L109.295 101.374C108.052 100.203 106.736 99.6905 105.055 99.6905C103.082 99.6905 101.547 100.642 101.181 102.179C100.889 103.204 102.131 103.57 103.959 104.375L106.663 105.546C109.295 106.717 110.757 108.84 109.806 112.5C108.856 116.16 104.982 119.454 99.4267 119.454C96.0643 119.454 93.0674 118.136 91.0938 115.867L91.1668 115.94Z" fill="#0050AE"/>
<path d="M62.1711 47.5399C63.2617 43.2383 61.5047 41.1178 57.7483 41.1178C53.5073 41.1178 49.6904 44.026 46.6611 46.8129L40.7843 38.9367C47.4487 33.3628 52.8409 31 60.0506 31C71.0166 31 76.9541 38.2703 74.2277 49.2363C72.0466 57.9001 61.9288 67.9574 51.1445 76.2577C53.6285 75.47 57.3848 75.1671 59.8083 75.1671H70.2896L67.6238 86.0726H30L31.5146 78.1964C48.0546 65.8975 60.0506 55.9614 62.1711 47.4794V47.5399Z" fill="#0050AE"/>
<path d="M110.864 72.6179L107.532 86.1285H95.4753L98.8076 72.6179H76.1484L78.1478 63.6512L104.927 32.0859H120.982L113.348 62.803H119.407L116.923 72.6179H110.864ZM103.351 54.321C104.2 50.9281 105.836 45.7178 106.865 42.325L106.502 43.4761C104.321 46.5054 102.14 49.6558 100.019 52.6851L91.0526 62.803H101.231L103.351 54.321Z" fill="#0050AE"/>
</svg>
