<svg width="186" height="185" viewBox="0 0 186 185" fill="none" xmlns="http://www.w3.org/2000/svg">
<rect x="1.9825" y="1.30282" width="182.394" height="182.394" rx="24.7535" stroke="black" stroke-width="2.60563"/>
<path d="M84.1929 73.3092H69.703C67.8112 73.3092 66.5062 71.4104 67.1794 69.6389L81.5775 31.7435C81.7723 31.2308 82.1179 30.7896 82.5684 30.4782C83.0189 30.1669 83.5531 30.0001 84.1002 30H108.397C110.314 30 111.62 31.9475 110.897 33.728L102.513 54.3615H118.296C120.617 54.3615 121.855 57.1049 120.324 58.8538L81.6297 103.065C79.7487 105.214 76.2613 103.352 76.9911 100.587L84.1929 73.3092Z" fill="black"/>
<path d="M44.7964 113C48.8322 113 51.9257 114.618 50.7375 119.371C49.7131 123.51 46.0665 125.21 42.2151 125.21H39.9001L38.4046 131.274H34L38.548 113H44.7964ZM46.6607 118.531C47.0704 116.913 46.169 116.462 44.0589 116.462H42.0922L40.7605 121.748H42.5019C44.6325 121.748 46.169 120.539 46.6607 118.531Z" fill="#231815"/>
<path d="M51.0132 123.893C52.1195 119.468 55.848 116.969 59.2488 116.969C62.9568 116.969 65.6815 119.878 64.4728 124.733C63.3666 129.138 59.638 131.637 56.2577 131.637C52.5292 131.637 49.8045 128.728 50.9927 123.893H51.0132ZM60.2321 123.893C60.7443 121.783 60.4984 120.492 59.0439 120.492C57.2206 120.492 55.889 122.172 55.2539 124.713C54.7417 126.802 54.9876 128.072 56.4626 128.072C58.2654 128.072 59.5766 126.393 60.2116 123.873L60.2321 123.893Z" fill="#231815"/>
<path d="M72.0239 117.305L71.6756 123.758C71.5527 125.131 71.3478 126.544 71.1634 127.937L71.4298 127.548C72.0444 126.155 72.618 124.721 73.2531 123.369L76.2236 117.305H80.0136L79.8907 123.758C79.8702 125.131 79.7883 126.544 79.6653 127.937L79.9317 127.548C80.5258 126.155 80.997 124.741 81.5501 123.369L84.2953 117.305H88.4131L81.632 131.276H76.5309L76.7358 125.745C76.7767 124.434 76.8792 123.164 77.084 121.648L76.7972 122.037C76.2031 123.553 75.691 124.844 75.1583 126.134L72.7204 131.276H67.7422L67.7832 117.305H72.0444H72.0239Z" fill="#231815"/>
<path d="M88.1804 123.893C89.2662 119.571 92.9742 116.969 96.1906 116.969C100.39 116.969 101.742 120.083 100.739 124.139C100.616 124.672 100.37 125.471 100.206 125.778H91.9089C91.827 127.704 92.8718 128.277 94.4697 128.277C95.6579 128.277 96.7028 127.888 97.809 127.294L98.8948 130.142C97.1739 131.166 95.1868 131.617 93.7117 131.617C89.5325 131.617 87.0126 128.708 88.2009 123.873L88.1804 123.893ZM96.1086 120.308C94.7361 120.308 93.302 121.271 92.585 122.93L97.3993 122.541C97.7681 121.148 97.5222 120.308 96.1086 120.308Z" fill="#231815"/>
<path d="M108.792 117.312L108.444 119.75L108.547 119.586C110.042 117.722 111.702 116.984 112.91 116.984C113.914 116.984 114.365 117.189 114.734 117.353L113.381 121C112.91 120.877 112.521 120.836 112.07 120.836C110.862 120.836 109.284 121.696 108.096 123.54L106.109 131.325H101.766L105.228 117.353H108.792V117.312Z" fill="#231815"/>
<path d="M58.4148 145.165C59.8898 139.286 64.6222 136.008 69.1087 136.008C71.6696 136.008 73.3085 137.257 74.3123 138.548L71.5261 141.047C70.8296 140.208 70.0306 139.777 68.9039 139.777C66.3635 139.777 63.7003 142.092 62.7579 145.862C61.8975 149.283 62.9218 151.188 65.3392 151.188C66.9577 151.188 68.4122 150.307 69.4365 149.365L71.2598 152.417C69.2726 154.22 67.1011 154.978 64.8885 154.978C60.0742 154.978 56.8373 151.578 58.3943 145.165H58.4148Z" fill="#231815"/>
<path d="M74.0366 147.237C75.1429 142.812 78.8714 140.312 82.2722 140.312C85.9803 140.312 88.705 143.222 87.4963 148.077C86.39 152.481 82.6614 154.981 79.2812 154.981C75.5526 154.981 72.8279 152.072 74.0161 147.237H74.0366ZM83.2556 147.237C83.7677 145.127 83.5219 143.836 82.0673 143.836C80.244 143.836 78.9124 145.516 78.2773 148.056C77.7652 150.146 78.011 151.416 79.486 151.416C81.2889 151.416 82.6 149.736 83.2351 147.216L83.2556 147.237Z" fill="#231815"/>
<path d="M103.486 146.187L101.396 154.648H97.0323L99.1014 146.351C99.5726 144.425 99.3268 144.057 98.3844 144.057C97.2371 144.057 96.4382 144.651 95.3934 145.45L92.9759 154.648H88.6328L92.095 140.676H95.6392L95.5368 142.274C96.9913 141.148 98.5483 140.328 100.269 140.328C103.486 140.328 104.366 142.705 103.486 146.208V146.187Z" fill="#231815"/>
<path d="M106.714 149.256L108.025 144.073H106.141L106.96 140.836L109.132 140.672L110.525 136.984H114.192L113.249 140.672H116.548L115.708 144.093H112.41L111.037 149.625C110.648 151.161 111.119 151.591 111.979 151.591C112.594 151.591 113.127 151.366 113.475 151.263L113.7 154.541C112.922 154.767 111.856 155.012 110.607 155.012C106.919 155.012 105.936 152.616 106.755 149.297L106.714 149.256Z" fill="#231815"/>
<path d="M122.777 140.656L122.429 143.094L122.531 142.93C124.027 141.066 125.686 140.328 126.895 140.328C127.898 140.328 128.349 140.533 128.718 140.697L127.366 144.343C126.895 144.221 126.505 144.18 126.055 144.18C124.846 144.18 123.269 145.04 122.08 146.884L120.093 154.669H115.75L119.212 140.697H122.777V140.656Z" fill="#231815"/>
<path d="M127.912 147.237C129.018 142.812 132.746 140.312 136.147 140.312C139.855 140.312 142.58 143.222 141.371 148.077C140.265 152.481 136.536 154.981 133.156 154.981C129.428 154.981 126.703 152.072 127.891 147.237H127.912ZM137.131 147.237C137.643 145.127 137.397 143.836 135.942 143.836C134.119 143.836 132.787 145.516 132.152 148.056C131.64 150.146 131.886 151.416 133.361 151.416C135.164 151.416 136.475 149.736 137.11 147.216L137.131 147.237Z" fill="#231815"/>
<path d="M143.703 149.894L147.411 135H151.754L147.902 150.447C147.677 151.348 147.923 151.43 148.107 151.43C148.435 151.43 148.558 151.389 148.763 151.328V154.667C148.271 154.872 147.534 154.954 146.755 154.954C143.58 154.954 142.965 152.782 143.703 149.873V149.894Z" fill="#231815"/>
</svg>
