<svg width="104" height="104" viewBox="0 0 104 104" fill="none" xmlns="http://www.w3.org/2000/svg">
<path d="M82.2759 46.7802L81.7312 46.2355L79.0075 42.9671H78.8259C77.918 41.8776 77.918 41.8776 77.918 40.0618V37.5197C77.918 34.6144 75.5575 32.2539 72.6522 32.2539H32.1601C29.2549 32.2539 26.8943 34.6144 26.8943 37.5197V40.0618C26.8943 41.8776 26.8943 41.8776 25.9864 42.9671L23.2627 46.2355L22.8996 46.7802C21.447 48.596 20.5391 49.5039 20.5391 51.8644V65.4829C20.5391 68.3881 22.8996 70.7486 25.8049 70.7486H79.3706C82.2759 70.7486 84.6364 68.3881 84.6364 65.4829V51.8644C84.6364 49.5039 83.9101 48.596 82.2759 46.7802ZM79.3706 68.2065H25.6233C24.1706 68.2065 22.8996 66.9355 22.8996 65.4829V51.8644C22.8996 50.4118 23.0812 50.2302 24.5338 48.4144L25.0785 47.8697L27.8022 44.6013C29.2549 42.9671 29.2549 42.6039 29.2549 40.0618V37.5197C29.2549 36.0671 30.5259 34.796 31.9785 34.796H72.6522C74.1049 34.796 75.3759 36.0671 75.3759 37.5197V39.8802C75.3759 42.4223 75.5575 42.7855 77.0101 44.6013L79.7338 47.8697L80.2785 48.4144C81.7312 50.0486 81.9127 50.4118 81.9127 51.8644V65.4829C82.0943 67.1171 80.8233 68.2065 79.3706 68.2065Z" fill="white" stroke="white"/>
<path d="M71.2014 50.5938H34.5225C32.8882 50.5938 31.6172 51.8648 31.6172 53.499V60.399C31.6172 62.0332 32.8882 63.3043 34.5225 63.3043H71.2014C72.8356 63.3043 74.1067 62.0332 74.1067 60.399V53.499C74.1067 51.8648 72.8356 50.5938 71.2014 50.5938ZM71.5646 60.399C71.5646 60.5806 71.383 60.7622 71.2014 60.7622H34.5225C34.3409 60.7622 34.3409 60.5806 34.3409 60.399V53.499C34.3409 53.3174 34.3409 53.1359 34.5225 53.1359H71.2014C71.383 53.1359 71.5646 53.3174 71.5646 53.499V60.399Z" fill="white" stroke="white"/>
<rect x="2" y="2" width="100" height="100" rx="50" stroke="white" stroke-width="3"/>
</svg>
