<svg width="103" height="103" viewBox="0 0 103 103" fill="none" xmlns="http://www.w3.org/2000/svg">
<g clip-path="url(#clip0_12549_16827)">
<path d="M81.5 64.625V30.875C81.5 29.8379 80.6621 29 79.625 29H23.375C22.3379 29 21.5 29.8379 21.5 30.875V64.625C21.5 65.6621 22.3379 66.5 23.375 66.5H43.7656C43.8945 66.5 44 66.6055 44 66.7344V73.0625H36.7344C36.6055 73.0625 36.5 73.168 36.5 73.2969V75.6406C36.5 75.7695 36.6055 75.875 36.7344 75.875H66.2656C66.3945 75.875 66.5 75.7695 66.5 75.6406V73.2969C66.5 73.168 66.3945 73.0625 66.2656 73.0625H59V66.7344C59 66.6055 59.1055 66.5 59.2344 66.5H79.625C80.6621 66.5 81.5 65.6621 81.5 64.625ZM55.25 73.0625H47.75V67.4375C47.75 66.9219 48.1719 66.5 48.6875 66.5H54.3125C54.8281 66.5 55.25 66.9219 55.25 67.4375V73.0625ZM25.25 61.8125V33.6875C25.25 33.1719 25.6719 32.75 26.1875 32.75H76.8125C77.3281 32.75 77.75 33.1719 77.75 33.6875V61.8125C77.75 62.3281 77.3281 62.75 76.8125 62.75H26.1875C25.6719 62.75 25.25 62.3281 25.25 61.8125Z" fill="white"/>
</g>
<rect x="1.5" y="1.5" width="100" height="100" rx="50" stroke="white" stroke-width="3"/>
<defs>
<clipPath id="clip0_12549_16827">
<rect width="60" height="60" fill="white" transform="translate(21.5 21.5)"/>
</clipPath>
</defs>
</svg>
