<svg width="145" height="144" viewBox="0 0 145 144" fill="none" xmlns="http://www.w3.org/2000/svg">
<path d="M53.8217 108.081C45.4681 108.081 38.6797 101.284 38.6797 92.9389C38.6797 88.4594 40.6081 84.3172 43.998 81.4289V43.7339C43.998 38.3205 48.4083 33.9102 53.8217 33.9102C59.2351 33.9102 63.6454 38.3205 63.6454 43.7339V81.4289C67.0439 84.3172 68.9637 88.4594 68.9637 92.9389C68.9724 101.284 62.1753 108.081 53.8217 108.081ZM53.8217 37.8362C50.5702 37.8362 47.924 40.4824 47.924 43.7339V83.3573L47.1371 83.9454C44.2574 86.09 42.6057 89.3674 42.6057 92.9303C42.6057 99.1133 47.6386 104.146 53.8217 104.146C60.0048 104.146 65.0377 99.1133 65.0377 92.9303C65.0377 89.3674 63.386 86.09 60.5063 83.9454L59.7194 83.3573V43.7339C59.7194 40.4824 57.0732 37.8362 53.8217 37.8362Z" fill="white"/>
<path d="M53.9943 88.5142C52.9133 88.5142 52.0312 87.6322 52.0312 86.5512V50.2052C52.0312 49.1242 52.9133 48.2422 53.9943 48.2422C55.0752 48.2422 55.9573 49.1242 55.9573 50.2052V86.5599C55.9573 87.6408 55.0839 88.5142 53.9943 88.5142Z" fill="white"/>
<path d="M103.672 67.3898H102.359L103.008 66.2661C103.076 66.1496 103.12 66.021 103.137 65.8875C103.155 65.7541 103.146 65.6185 103.111 65.4885C103.076 65.3586 103.016 65.2367 102.934 65.1301C102.852 65.0234 102.749 64.934 102.633 64.867C102.516 64.7991 102.388 64.7549 102.254 64.737C102.12 64.7191 101.985 64.7279 101.855 64.7627C101.724 64.7975 101.602 64.8578 101.496 64.94C101.389 65.0222 101.299 65.1247 101.232 65.2417L99.9931 67.3898H96.2283L98.4168 63.6035C98.4281 63.5845 98.4271 63.5625 98.4368 63.5436C98.466 63.4837 98.4808 63.4217 98.4987 63.3567C98.5166 63.2876 98.5356 63.2211 98.5397 63.1525C98.5407 63.1315 98.5515 63.1146 98.5515 63.0936C98.5515 63.0496 98.5315 63.0117 98.5264 62.9687C98.52 62.8991 98.5059 62.8304 98.4844 62.7639C98.4622 62.7024 98.4337 62.6434 98.3994 62.5878C98.3684 62.5317 98.3323 62.4785 98.2914 62.4291C98.2448 62.3777 98.1926 62.3316 98.1358 62.2919C98.101 62.2648 98.0779 62.2279 98.0385 62.2059C98.0196 62.1951 97.9986 62.1957 97.9786 62.1859C97.9197 62.1562 97.8568 62.1409 97.7917 62.123C97.7216 62.104 97.6545 62.0851 97.5839 62.081C97.565 62.08 97.5481 62.0697 97.5281 62.0697H93.1541L95.0365 58.8092L97.5194 58.8112C97.7914 58.8105 98.0521 58.7022 98.2444 58.5098C98.4368 58.3175 98.5452 58.0568 98.5458 57.7848C98.5456 57.6502 98.5189 57.5169 98.4672 57.3927C98.4155 57.2684 98.3399 57.1555 98.2446 57.0605C98.1492 56.9655 98.0361 56.8902 97.9117 56.8388C97.7873 56.7875 97.654 56.7612 97.5194 56.7614L96.2201 56.7604L96.8774 55.6223C96.9447 55.5059 96.9883 55.3773 97.0059 55.2439C97.0235 55.1106 97.0146 54.9751 96.9798 54.8452C96.945 54.7152 96.885 54.5934 96.8031 54.4867C96.7212 54.38 96.6192 54.2905 96.5027 54.2232C96.3862 54.1559 96.2576 54.1123 96.1243 54.0947C95.9909 54.0771 95.8554 54.086 95.7255 54.1208C95.5956 54.1556 95.4738 54.2157 95.3671 54.2975C95.2604 54.3794 95.1708 54.4815 95.1035 54.5979L94.4467 55.7355L93.7986 54.6123C93.7315 54.4955 93.642 54.3932 93.5352 54.3111C93.4284 54.2291 93.3065 54.1689 93.1764 54.134C93.0463 54.0992 92.9107 54.0903 92.7772 54.108C92.6437 54.1257 92.515 54.1695 92.3985 54.237C92.2815 54.304 92.179 54.3935 92.0967 54.5003C92.0145 54.6071 91.9542 54.7291 91.9193 54.8593C91.8844 54.9895 91.8757 55.1253 91.8935 55.2589C91.9113 55.3925 91.9554 55.5212 92.0232 55.6377L93.2647 57.7848L91.3823 61.0453L89.1968 57.2565C89.186 57.2375 89.1666 57.2262 89.1548 57.2083C89.1174 57.1546 89.0714 57.1106 89.0243 57.0624C88.9731 57.0112 88.9244 56.9626 88.8656 56.9237C88.8487 56.9129 88.8394 56.8945 88.8215 56.8848C88.7836 56.8628 88.7417 56.8607 88.7017 56.8438C88.6382 56.8148 88.5718 56.7923 88.5036 56.7768C88.4375 56.7656 88.3704 56.7613 88.3034 56.764C88.2415 56.764 88.1816 56.765 88.1197 56.7768C88.0465 56.7906 87.9814 56.8167 87.9139 56.8459C87.876 56.8617 87.835 56.8638 87.7976 56.8848C87.7797 56.895 87.7695 56.9129 87.7536 56.9237C87.6947 56.9616 87.6477 57.0107 87.5975 57.0619C87.5483 57.1111 87.5007 57.1571 87.4628 57.214C87.4521 57.2309 87.4326 57.2411 87.4229 57.259L85.2364 61.0463L83.354 57.7868L84.5965 55.6377C84.7322 55.4021 84.7689 55.1224 84.6985 54.8598C84.6282 54.5972 84.4565 54.3732 84.2212 54.237C84.1047 54.1698 83.976 54.1262 83.8426 54.1087C83.7092 54.0912 83.5736 54.1002 83.4437 54.1352C83.3137 54.1701 83.192 54.2303 83.0853 54.3124C82.9786 54.3944 82.8892 54.4967 82.8221 54.6133L82.1719 55.7386L81.5141 54.5995C81.3742 54.3724 81.1514 54.2088 80.8928 54.1435C80.6342 54.0782 80.3604 54.1162 80.1294 54.2496C79.8985 54.383 79.7287 54.6012 79.6561 54.8578C79.5835 55.1145 79.6139 55.3893 79.7407 55.6239L80.3981 56.7619H79.1008C78.9661 56.7616 78.8327 56.7878 78.7082 56.8392C78.5837 56.8905 78.4706 56.966 78.3753 57.0611C78.2801 57.1563 78.2045 57.2694 78.1531 57.3938C78.1016 57.5183 78.0752 57.6516 78.0754 57.7863C78.0752 57.921 78.1016 58.0545 78.153 58.179C78.2045 58.3035 78.28 58.4166 78.3753 58.5118C78.4705 58.6071 78.5837 58.6826 78.7082 58.7341C78.8327 58.7855 78.9661 58.8119 79.1008 58.8117L81.5817 58.8107L83.4641 62.0712L79.0901 62.0692C79.068 62.0692 79.0501 62.0805 79.0291 62.081C78.9621 62.0861 78.8991 62.104 78.8331 62.1219C78.765 62.1398 78.6989 62.1557 78.638 62.1869C78.6191 62.1972 78.5981 62.1962 78.5802 62.2069C78.5413 62.2289 78.5182 62.2658 78.4829 62.2929C78.4266 62.3349 78.3733 62.3759 78.3273 62.4291C78.2822 62.4803 78.2495 62.5361 78.2162 62.5939C78.1855 62.6487 78.1553 62.702 78.1343 62.7619C78.1127 62.8297 78.0986 62.8998 78.0923 62.9707C78.0872 63.0127 78.0672 63.0496 78.0672 63.0936C78.0672 63.1146 78.0785 63.1325 78.079 63.1545C78.0831 63.2206 78.101 63.284 78.1189 63.3501C78.1368 63.4202 78.1547 63.4878 78.187 63.5513C78.1962 63.5692 78.1952 63.5881 78.2049 63.6055L80.3904 67.3918H76.6256L75.3851 65.2427C75.319 65.1242 75.23 65.0199 75.1232 64.9361C75.0164 64.8523 74.894 64.7906 74.7631 64.7545C74.6322 64.7184 74.4955 64.7087 74.3608 64.726C74.2262 64.7432 74.0963 64.7871 73.9788 64.855C73.8612 64.923 73.7583 65.0136 73.6761 65.1216C73.594 65.2297 73.5341 65.353 73.5 65.4844C73.4659 65.6158 73.4582 65.7526 73.4775 65.887C73.4968 66.0214 73.5426 66.1506 73.6123 66.2671L74.2614 67.3918H72.9463C72.8117 67.3918 72.6785 67.4182 72.5542 67.4697C72.4299 67.5211 72.3169 67.5966 72.2218 67.6917C72.1266 67.7869 72.0512 67.8998 71.9997 68.0241C71.9483 68.1485 71.9218 68.2817 71.9219 68.4162C71.9218 68.5508 71.9483 68.684 71.9997 68.8083C72.0512 68.9326 72.1266 69.0456 72.2218 69.1407C72.3169 69.2359 72.4299 69.3113 72.5542 69.3628C72.6785 69.4142 72.8117 69.4407 72.9463 69.4406H74.2614L73.6123 70.5648C73.5447 70.6812 73.5007 70.8098 73.4829 70.9432C73.465 71.0766 73.4737 71.2122 73.5085 71.3423C73.5432 71.4723 73.6033 71.5942 73.6852 71.701C73.7672 71.8078 73.8694 71.8973 73.986 71.9645C74.1025 72.0321 74.2313 72.076 74.3648 72.0938C74.4984 72.1115 74.6341 72.1026 74.7642 72.0677C74.8943 72.0328 75.0163 71.9725 75.123 71.8903C75.2297 71.8081 75.3192 71.7056 75.3862 71.5887L76.6266 69.4406H80.3909L78.2034 73.2269C78.1926 73.2459 78.1937 73.2669 78.1834 73.2858C78.1532 73.3457 78.1384 73.4097 78.1204 73.4757C78.1025 73.5438 78.0836 73.6094 78.0795 73.6785C78.0785 73.6995 78.0677 73.7163 78.0677 73.7373C78.0677 73.7814 78.0877 73.8182 78.0928 73.8612C78.1015 73.9324 78.1107 74.0015 78.1348 74.0691C78.1568 74.132 78.188 74.1873 78.2208 74.2431C78.2525 74.2989 78.2838 74.3522 78.3268 74.4013C78.3739 74.4561 78.4286 74.4991 78.488 74.5431C78.5208 74.5682 78.5428 74.603 78.5802 74.624C78.5981 74.6337 78.6181 74.6337 78.637 74.643C78.6979 74.6742 78.764 74.6911 78.831 74.709C78.9001 74.7269 78.9651 74.7448 79.0337 74.7489C79.0537 74.751 79.0706 74.7607 79.0916 74.7607H83.4636L81.5812 78.0213L79.0993 78.0192C78.8274 78.0204 78.567 78.1289 78.3748 78.3212C78.1826 78.5134 78.074 78.7738 78.0728 79.0456C78.0735 79.3174 78.182 79.5778 78.3744 79.7696C78.5668 79.9615 78.8275 80.0691 79.0993 80.069L80.3976 80.07L79.7402 81.2081C79.6684 81.3247 79.6207 81.4545 79.5999 81.5899C79.5792 81.7253 79.5857 81.8634 79.6193 81.9962C79.6528 82.129 79.7127 82.2537 79.7953 82.3629C79.8778 82.4722 79.9815 82.5638 80.1001 82.6323C80.2187 82.7008 80.3498 82.7448 80.4857 82.7618C80.6216 82.7787 80.7595 82.7683 80.8913 82.731C81.0231 82.6937 81.146 82.6304 81.2529 82.5448C81.3598 82.4591 81.4484 82.3529 81.5136 82.2325L82.1704 81.0939L82.8195 82.2192C82.8868 82.3358 82.9764 82.4379 83.0832 82.5199C83.19 82.6018 83.312 82.6619 83.442 82.6966C83.5721 82.7314 83.7077 82.7402 83.8411 82.7224C83.9746 82.7047 84.1032 82.6609 84.2197 82.5934C84.3367 82.5264 84.4392 82.4369 84.5214 82.3301C84.6037 82.2233 84.6639 82.1013 84.6988 81.9711C84.7337 81.841 84.7425 81.7052 84.7247 81.5716C84.7068 81.438 84.6627 81.3092 84.595 81.1927L83.3535 79.0446L85.2359 75.7851L87.4224 79.574C87.4331 79.5929 87.4526 79.6031 87.4644 79.6211C87.5007 79.6758 87.5478 79.7199 87.5949 79.768C87.6461 79.8192 87.6937 79.8678 87.7531 79.9067C87.77 79.918 87.7792 79.9359 87.7971 79.9456C87.835 79.9676 87.877 79.9697 87.9159 79.9856C87.9804 80.0152 88.0479 80.038 88.1171 80.0537C88.1831 80.0654 88.2461 80.0665 88.3121 80.0665C88.3761 80.0665 88.4371 80.0654 88.5011 80.0537C88.5712 80.0398 88.6352 80.0147 88.7012 79.9866C88.7412 79.9697 88.7842 79.9676 88.822 79.9456C88.841 79.9349 88.8512 79.9165 88.8681 79.9047C88.9239 79.8678 88.969 79.8207 89.0171 79.7726C89.0683 79.7224 89.1179 79.6748 89.1563 79.6154C89.1676 79.5985 89.1855 79.5893 89.1952 79.5714L91.3807 75.7836L93.2641 79.0451L92.0217 81.1932C91.8863 81.4291 91.8499 81.7088 91.9202 81.9715C91.9905 82.2341 92.1619 82.4583 92.3969 82.5949C92.6325 82.7302 92.9122 82.7665 93.1745 82.6957C93.4369 82.625 93.6604 82.453 93.7961 82.2176L94.4457 81.0934L95.1025 82.232C95.1698 82.3484 95.2593 82.4505 95.366 82.5324C95.4728 82.6143 95.5946 82.6743 95.7245 82.7091C95.8544 82.7439 95.9899 82.7528 96.1232 82.7352C96.2566 82.7176 96.3852 82.674 96.5017 82.6067C96.6181 82.5394 96.7202 82.4499 96.8021 82.3432C96.8839 82.2365 96.944 82.1147 96.9788 81.9847C97.0136 81.8548 97.0225 81.7193 97.0049 81.586C96.9873 81.4526 96.9437 81.324 96.8764 81.2076L96.2191 80.0695L97.5184 80.0705C97.653 80.0706 97.7863 80.0441 97.9107 79.9926C98.0351 79.9411 98.1481 79.8655 98.2432 79.7703C98.3384 79.6751 98.4138 79.562 98.4652 79.4375C98.5166 79.3131 98.543 79.1798 98.5428 79.0451C98.543 78.9104 98.5167 78.7769 98.4653 78.6524C98.4138 78.5279 98.3383 78.4147 98.243 78.3195C98.1477 78.2242 98.0346 78.1487 97.9101 78.0972C97.7855 78.0458 97.6521 78.0194 97.5173 78.0197L95.0355 78.0207L93.1541 74.7602L97.5281 74.7622C97.5501 74.7622 97.569 74.7515 97.59 74.7494C97.6571 74.7453 97.719 74.7264 97.7851 74.7095C97.8522 74.6916 97.9182 74.6757 97.9791 74.6445C97.9981 74.6348 98.019 74.6353 98.038 74.6245C98.0769 74.6015 98.101 74.5646 98.1358 74.5375C98.1911 74.4955 98.2443 74.4546 98.2893 74.4023C98.3344 74.3501 98.3672 74.2954 98.4004 74.2375C98.4322 74.1822 98.4624 74.1285 98.4834 74.0686C98.5064 74.0005 98.5166 73.9334 98.5254 73.8628C98.5305 73.8198 98.5504 73.7819 98.5504 73.7368C98.5504 73.7148 98.5397 73.6969 98.5387 73.6759C98.5346 73.6099 98.5156 73.5474 98.4987 73.4824C98.4837 73.4126 98.4609 73.3448 98.4306 73.2802C98.4214 73.2623 98.4225 73.2433 98.4127 73.2264L96.2262 69.4401H99.9921L101.231 71.5903C101.368 71.8251 101.592 71.9963 101.855 72.0665C102.117 72.1367 102.397 72.1002 102.633 71.965C102.868 71.8287 103.039 71.6047 103.109 71.3424C103.179 71.08 103.142 70.8005 103.006 70.5654L102.357 69.4401H103.672C103.806 69.4402 103.94 69.4137 104.064 69.3623C104.188 69.3108 104.301 69.2354 104.396 69.1402C104.492 69.0451 104.567 68.9321 104.618 68.8078C104.67 68.6835 104.696 68.5503 104.696 68.4157C104.697 68.2811 104.67 68.1477 104.619 68.0233C104.568 67.8988 104.492 67.7857 104.397 67.6904C104.302 67.5951 104.189 67.5195 104.065 67.4679C103.94 67.4163 103.807 67.3898 103.672 67.3898ZM95.7517 64.1175L93.8626 67.3898H93.6317L91.8568 64.3161L91.972 64.117L95.7517 64.1175ZM90.0824 71.4868H86.5357L84.7613 68.4142L86.5357 65.3415H90.0824L91.8568 68.4142L90.0824 71.4868ZM88.3091 59.8202L90.1981 63.0936L90.0829 63.2933H86.5342L86.419 63.0926L88.3091 59.8202ZM80.8665 64.1175H84.6467L84.7618 64.3176L82.9869 67.3903H82.755L80.8665 64.1175ZM80.8665 72.7114L82.7545 69.4386H82.9864L84.7613 72.5112L84.6461 72.7114H80.8665ZM88.3091 77.0081L86.42 73.7343L86.5352 73.5346H90.084L90.1992 73.7343L88.3091 77.0081ZM95.7517 72.7114H91.9715L91.8563 72.5123L93.6312 69.4386H93.8621L95.7517 72.7114Z" fill="white"/>
</svg>
