<svg width="121" height="120" viewBox="0 0 121 120" fill="none" xmlns="http://www.w3.org/2000/svg">
<rect width="120" height="120" transform="translate(0.835938)" fill="white"/>
<circle cx="60.8359" cy="60" r="17.5" fill="white"/>
<path d="M95.0903 73.1172L79.9237 73.1172L79.9238 69.8038L75.3806 69.8038L75.3806 66.3537L70.2226 66.3537L70.2226 43.4331L103.938 43.4331L103.938 58.8729L100.522 58.8729L100.522 46.8489L73.6385 46.8489L73.6385 62.9378L78.7965 62.9378L78.7965 66.3879L83.3396 66.3879L83.3396 69.7013L91.6744 69.7013L91.6744 66.2512L98.677 66.2512L98.677 69.6671L95.0903 69.6671L95.0903 73.1172Z" fill="black"/>
<path d="M98.6878 83.918L69.1745 83.918C65.417 83.918 62.3427 80.8437 62.3427 77.0862L62.3427 39.3405C62.3427 35.583 65.417 32.5087 69.1745 32.5087L105.246 32.5087C109.004 32.5087 112.078 35.583 112.078 39.3405L112.078 58.2646L108.662 58.2646L108.662 39.3405C108.662 37.4618 107.125 35.9246 105.246 35.9246L69.2086 35.9246C67.3299 35.9246 65.7927 37.4618 65.7927 39.3405L65.7927 77.0862C65.7927 78.9649 67.3299 80.5021 69.2086 80.5021L98.6878 80.5021L98.6878 83.918Z" fill="black"/>
<path d="M104.734 61.8123L113.376 61.8123L107.604 68.9515L115.836 68.9515L98.4149 87.2266L103.334 75.2026L97.3218 75.2026L104.734 61.8123Z" fill="black"/>
<path d="M78.0494 48.5859L75.7266 48.5859L75.7266 57.7405L78.0494 57.7405L78.0494 48.5859Z" fill="black"/>
<path d="M81.6041 48.5859L79.2812 48.5859L79.2812 57.7405L81.6041 57.7405L81.6041 48.5859Z" fill="black"/>
<path d="M85.1041 48.5898L82.7812 48.5898L82.7812 57.7444L85.1041 57.7444L85.1041 48.5898Z" fill="black"/>
<path d="M88.6197 48.5898L86.2969 48.5898L86.2969 57.7444L88.6197 57.7444L88.6197 48.5898Z" fill="black"/>
<path d="M92.1353 48.5898L89.8125 48.5898L89.8125 57.7444L92.1353 57.7444L92.1353 48.5898Z" fill="black"/>
<path d="M95.6509 48.5859L93.3281 48.5859L93.3281 57.7405L95.6509 57.7405L95.6509 48.5859Z" fill="black"/>
<path d="M99.1587 48.5859L96.8359 48.5859L96.8359 57.7405L99.1587 57.7405L99.1587 48.5859Z" fill="black"/>
<rect width="15.8995" height="2.72562" transform="matrix(1 1.74846e-07 1.74846e-07 -1 23.3438 73.9375)" fill="black"/>
<rect width="8.63114" height="2.72562" transform="matrix(1 1.74846e-07 1.74846e-07 -1 35.6094 71.2148)" fill="black"/>
<rect width="8.63114" height="2.72562" transform="matrix(1 1.74846e-07 1.74846e-07 -1 40.1562 68.4844)" fill="black"/>
<rect width="22.7135" height="3.17989" transform="matrix(1.31134e-07 -1 -1 -1.31134e-07 48.7891 65.7578)" fill="black"/>
<rect width="22.7135" height="3.17989" transform="matrix(1.31134e-07 -1 -1 -1.31134e-07 16.9922 65.7578)" fill="black"/>
<rect width="10.4482" height="2.72562" transform="matrix(1.34716e-07 -1 -1 -1.27233e-07 21.9766 58.9492)" fill="black"/>
<rect width="10.4482" height="2.72562" transform="matrix(1.34716e-07 -1 -1 -1.27233e-07 25.625 58.9492)" fill="black"/>
<rect width="10.4482" height="2.72562" transform="matrix(1.34716e-07 -1 -1 -1.27233e-07 29.2578 58.9492)" fill="black"/>
<rect width="10.4482" height="2.72562" transform="matrix(1.34716e-07 -1 -1 -1.27233e-07 32.4297 58.9492)" fill="black"/>
<rect width="10.4482" height="2.72562" transform="matrix(1.34716e-07 -1 -1 -1.27233e-07 36.0625 58.9492)" fill="black"/>
<rect width="10.4482" height="2.72562" transform="matrix(1.34716e-07 -1 -1 -1.27233e-07 39.6953 58.9492)" fill="black"/>
<rect width="10.4482" height="2.72562" transform="matrix(1.34716e-07 -1 -1 -1.27233e-07 43.3359 58.9492)" fill="black"/>
<rect width="8.63114" height="2.72562" transform="matrix(1 1.74846e-07 1.74846e-07 -1 18.8047 71.2148)" fill="black"/>
<rect width="9.08541" height="2.72562" transform="matrix(1 1.74846e-07 1.74846e-07 -1 13.8047 68.4844)" fill="black"/>
<rect width="28.6191" height="2.72562" transform="matrix(1 1.74846e-07 1.74846e-07 -1 16.9922 45.7734)" fill="black"/>
<rect x="7.7195" y="34.3836" width="47.4658" height="47.4658" rx="5.65068" stroke="black" stroke-width="3.76712"/>
</svg>
