<svg width="69" height="68" viewBox="0 0 69 68" fill="none" xmlns="http://www.w3.org/2000/svg">
<path d="M38.3375 20.4V30.6H45.1375L34.9375 47.6V37.4H28.1375L38.3375 20.4ZM68.9375 34C68.9375 52.7 53.6375 68 34.9375 68C16.2375 68 0.9375 52.7 0.9375 34C0.9375 15.3 16.2375 0 34.9375 0V10.2C21.6775 10.2 11.1375 20.74 11.1375 34C11.1375 47.26 21.6775 57.8 34.9375 57.8C48.1975 57.8 58.7375 47.26 58.7375 34H68.9375ZM65.1975 37.4H61.7975C60.0975 50.66 48.5375 61.2 34.9375 61.2C19.9775 61.2 7.7375 48.96 7.7375 34C7.7375 20.06 18.2775 8.84 31.5375 7.14V3.74C16.2375 5.44 4.3375 18.36 4.3375 34C4.3375 51 17.9375 64.6 34.9375 64.6C50.5775 64.6 63.4975 52.7 65.1975 37.4ZM58.0575 28.9L67.9175 26.52C65.1975 13.6 54.9975 3.4 42.0775 0.68L39.6975 10.54C49.2175 12.92 56.0175 19.72 58.0575 28.9Z" fill="#74BC1F"/>
</svg>
