<svg width="121" height="120" viewBox="0 0 121 120" fill="none" xmlns="http://www.w3.org/2000/svg">
<rect width="120" height="120" transform="translate(0.167969)" fill="white"/>
<circle cx="31.418" cy="73.75" r="17.5" fill="white"/>
<rect x="11.1758" y="25" width="98.7125" height="61.6953" fill="black"/>
<rect x="41.4609" y="86.7109" width="39.2607" height="5.60866" fill="black"/>
<rect x="34.7305" y="92.2969" width="51.5997" height="3.3652" fill="black"/>
<path d="M57.7703 55.4954V59.5016H36.2659L35.8555 56.3274L47.8594 41.8281H53.3176L47.3874 49.1163L42.4627 55.4954H57.7703ZM54.7539 41.8281V64.2628H47.8389V41.8281H54.7539Z" fill="white"/>
<path d="M68.502 41.8281V64.2628H61.2997V41.8281H68.502ZM86.3335 41.8281L74.7605 53.1995L67.989 58.762L66.6758 53.8005L71.0054 48.8698L77.4485 41.8281H86.3335ZM77.8179 64.2628L70.1025 54.1549L75.7043 51.0578L86.3335 64.2628H77.8179Z" fill="white"/>
</svg>
