<svg width="121" height="120" viewBox="0 0 121 120" fill="none" xmlns="http://www.w3.org/2000/svg">
<rect width="120" height="120" transform="translate(0.5)" fill="white"/>
<circle cx="60.5" cy="60" r="17.5" fill="white"/>
<rect width="26.3787" height="4.52206" transform="matrix(1 1.74846e-07 1.74846e-07 -1 47.0469 86.2617)" fill="black"/>
<rect width="14.3199" height="4.52206" transform="matrix(1 1.74846e-07 1.74846e-07 -1 67.3906 81.7422)" fill="black"/>
<rect width="14.3199" height="4.52206" transform="matrix(1 1.74846e-07 1.74846e-07 -1 74.9297 77.2227)" fill="black"/>
<rect width="37.6838" height="5.27573" transform="matrix(1.31134e-07 -1 -1 -1.31134e-07 89.25 72.6914)" fill="black"/>
<rect width="37.6838" height="5.27573" transform="matrix(1.31134e-07 -1 -1 -1.31134e-07 36.4922 72.6914)" fill="black"/>
<rect width="17.3346" height="4.52206" transform="matrix(1.34716e-07 -1 -1 -1.27233e-07 44.7812 61.3945)" fill="black"/>
<rect width="17.3346" height="4.52206" transform="matrix(1.34716e-07 -1 -1 -1.27233e-07 50.8164 61.3945)" fill="black"/>
<rect width="17.3346" height="4.52206" transform="matrix(1.34716e-07 -1 -1 -1.27233e-07 56.8398 61.3945)" fill="black"/>
<rect width="17.3346" height="4.52206" transform="matrix(1.34716e-07 -1 -1 -1.27233e-07 62.1172 61.3945)" fill="black"/>
<rect width="17.3346" height="4.52206" transform="matrix(1.34716e-07 -1 -1 -1.27233e-07 68.1445 61.3945)" fill="black"/>
<rect width="17.3346" height="4.52206" transform="matrix(1.34716e-07 -1 -1 -1.27233e-07 74.1758 61.3945)" fill="black"/>
<rect width="17.3346" height="4.52206" transform="matrix(1.34716e-07 -1 -1 -1.27233e-07 80.2031 61.3945)" fill="black"/>
<rect width="14.3199" height="4.52206" transform="matrix(1 1.74846e-07 1.74846e-07 -1 39.5078 81.7422)" fill="black"/>
<rect width="15.0735" height="4.52206" transform="matrix(1 1.74846e-07 1.74846e-07 -1 31.2148 77.2227)" fill="black"/>
<rect width="47.4816" height="4.52206" transform="matrix(1 1.74846e-07 1.74846e-07 -1 36.4922 39.5352)" fill="black"/>
<rect x="21.125" y="20.625" width="78.75" height="78.75" rx="9.375" stroke="black" stroke-width="6.25"/>
</svg>
