<svg width="121" height="120" viewBox="0 0 121 120" fill="none" xmlns="http://www.w3.org/2000/svg">
<rect width="120" height="120" transform="translate(0.5)" fill="white"/>
<circle cx="31.75" cy="73.75" r="17.5" fill="white"/>
<path d="M69.8413 82.8398L44.6785 82.8398L44.6785 77.3426L37.1411 77.3426L37.1411 71.6186L28.5835 71.6186L28.5835 33.5912L84.5195 33.5912L84.5195 59.2073L78.8523 59.2073L78.8523 39.2584L34.2507 39.2584L34.2507 65.9513L42.8083 65.9513L42.8083 71.6753L50.3458 71.6753L50.3458 77.1726L64.174 77.1726L64.174 71.4486L75.7919 71.4486L75.7919 77.1159L69.8413 77.1159L69.8413 82.8398Z" fill="black"/>
<path d="M75.796 100.754L26.8307 100.754C20.5966 100.754 15.4961 95.6533 15.4961 89.4193L15.4961 26.7959C15.4961 20.5619 20.5966 15.4613 26.8307 15.4613L86.6772 15.4613C92.9112 15.4613 98.0117 20.5619 98.0117 26.7959L98.0117 58.1926L92.3444 58.1926L92.3444 26.7959C92.3444 23.6789 89.7942 21.1286 86.6772 21.1286L26.8873 21.1286C23.7703 21.1286 21.2201 23.6789 21.2201 26.7959L21.22 89.4193C21.22 92.5363 23.7703 95.0866 26.8873 95.0866L75.796 95.0866L75.796 100.754Z" fill="black"/>
<path d="M85.8274 64.0854L100.166 64.0854L90.5879 75.93L104.246 75.93L75.343 106.25L83.5038 86.3012L73.5294 86.3012L85.8274 64.0854Z" fill="black"/>
<path d="M41.553 42.1445L37.6992 42.1445L37.6992 57.3328L41.553 57.3329L41.553 42.1445Z" fill="black"/>
<path d="M47.4397 42.1445L43.5859 42.1445L43.5859 57.3328L47.4397 57.3329L47.4397 42.1445Z" fill="black"/>
<path d="M53.2678 42.1445L49.4141 42.1445L49.4141 57.3328L53.2678 57.3329L53.2678 42.1445Z" fill="black"/>
<path d="M59.0959 42.1445L55.2422 42.1445L55.2422 57.3328L59.0959 57.3329L59.0959 42.1445Z" fill="black"/>
<path d="M64.9241 42.1367L61.0703 42.1367L61.0703 57.325L64.9241 57.325L64.9241 42.1367Z" fill="black"/>
<path d="M70.7483 42.1367L66.8945 42.1367L66.8945 57.325L70.7483 57.325L70.7483 42.1367Z" fill="black"/>
<path d="M76.5764 42.1367L72.7227 42.1367L72.7226 57.325L76.5764 57.325L76.5764 42.1367Z" fill="black"/>
</svg>
