<svg width="197" height="123" viewBox="0 0 197 123" fill="none" xmlns="http://www.w3.org/2000/svg">
<path d="M-3.73888e-06 30.394L20.2991 30.394C22.6695 30.2891 24.5484 28.8702 24.5484 27.1337C24.5484 26.7876 24.4734 26.4534 24.3356 26.1403C23.7782 24.8832 22.196 23.9588 20.2991 23.8734L-4.02391e-06 23.8734L-4.81193e-06 5.84565L28.384 5.84565L28.384 115.93L0 115.93L-3.73888e-06 30.394Z" fill="#292929"/>
<rect x="1.91406" y="115.164" width="2.30141" height="10.3563" transform="rotate(-90 1.91406 115.164)" fill="#E2D893"/>
<rect x="1.91406" y="112.094" width="2.30141" height="10.3563" transform="rotate(-90 1.91406 112.094)" fill="#E2D893"/>
<rect x="1.91406" y="109.023" width="2.30141" height="10.3563" transform="rotate(-90 1.91406 109.023)" fill="#E2D893"/>
<rect x="1.91406" y="105.945" width="2.30141" height="10.3563" transform="rotate(-90 1.91406 105.945)" fill="#E2D893"/>
<rect x="1.91406" y="102.891" width="2.30141" height="10.3563" transform="rotate(-90 1.91406 102.891)" fill="#E2D893"/>
<rect x="1.91406" y="99.8203" width="2.30141" height="10.3563" transform="rotate(-90 1.91406 99.8203)" fill="#E2D893"/>
<rect x="1.91406" y="96.75" width="2.30141" height="10.3563" transform="rotate(-90 1.91406 96.75)" fill="#E2D893"/>
<rect x="1.91406" y="93.6875" width="2.30141" height="10.3563" transform="rotate(-90 1.91406 93.6875)" fill="#E2D893"/>
<rect x="1.91406" y="90.6172" width="2.30141" height="10.3563" transform="rotate(-90 1.91406 90.6172)" fill="#E2D893"/>
<rect x="1.91406" y="87.5391" width="2.30141" height="10.3563" transform="rotate(-90 1.91406 87.5391)" fill="#E2D893"/>
<rect x="1.91406" y="84.4766" width="2.30141" height="10.3563" transform="rotate(-90 1.91406 84.4766)" fill="#E2D893"/>
<rect x="1.91406" y="81.4141" width="2.30141" height="10.3563" transform="rotate(-90 1.91406 81.4141)" fill="#E2D893"/>
<rect x="1.91406" y="78.3438" width="2.30141" height="10.3563" transform="rotate(-90 1.91406 78.3438)" fill="#E2D893"/>
<rect x="1.91406" y="75.2734" width="2.30141" height="10.3563" transform="rotate(-90 1.91406 75.2734)" fill="#E2D893"/>
<rect x="1.91406" y="72.1953" width="2.30141" height="10.3563" transform="rotate(-90 1.91406 72.1953)" fill="#E2D893"/>
<rect x="1.91406" y="69.1484" width="2.30141" height="10.3563" transform="rotate(-90 1.91406 69.1484)" fill="#E2D893"/>
<rect x="1.91406" y="66.0703" width="2.30141" height="10.3563" transform="rotate(-90 1.91406 66.0703)" fill="#E2D893"/>
<rect x="1.91406" y="63" width="2.30141" height="10.3563" transform="rotate(-90 1.91406 63)" fill="#E2D893"/>
<rect x="1.91406" y="59.9297" width="2.30141" height="10.3563" transform="rotate(-90 1.91406 59.9297)" fill="#E2D893"/>
<rect x="1.91406" y="56.8672" width="2.30141" height="10.3563" transform="rotate(-90 1.91406 56.8672)" fill="#E2D893"/>
<rect x="1.91406" y="53.7969" width="2.30141" height="10.3563" transform="rotate(-90 1.91406 53.7969)" fill="#E2D893"/>
<rect x="1.91406" y="50.7188" width="2.30141" height="10.3563" transform="rotate(-90 1.91406 50.7188)" fill="#E2D893"/>
<rect x="1.91406" y="47.6562" width="2.30141" height="10.3563" transform="rotate(-90 1.91406 47.6562)" fill="#E2D893"/>
<rect x="1.91406" y="44.5938" width="2.30141" height="10.3563" transform="rotate(-90 1.91406 44.5938)" fill="#E2D893"/>
<rect x="1.91406" y="41.5234" width="2.30141" height="10.3563" transform="rotate(-90 1.91406 41.5234)" fill="#E2D893"/>
<rect x="1.91406" y="38.4531" width="2.30141" height="10.3563" transform="rotate(-90 1.91406 38.4531)" fill="#E2D893"/>
<rect x="1.91406" y="35.375" width="2.30141" height="10.3563" transform="rotate(-90 1.91406 35.375)" fill="#E2D893"/>
<rect x="1.91406" y="21.5703" width="2.30141" height="10.3563" transform="rotate(-90 1.91406 21.5703)" fill="#E2D893"/>
<rect x="1.91406" y="18.5078" width="2.30141" height="10.3563" transform="rotate(-90 1.91406 18.5078)" fill="#E2D893"/>
<rect x="1.91406" y="15.4375" width="2.30141" height="10.3563" transform="rotate(-90 1.91406 15.4375)" fill="#E2D893"/>
<rect x="1.91406" y="12.3672" width="2.30141" height="10.3563" transform="rotate(-90 1.91406 12.3672)" fill="#E2D893"/>
<rect x="1.91406" y="9.29688" width="2.30141" height="10.3563" transform="rotate(-90 1.91406 9.29688)" fill="#E2D893"/>
<path fill-rule="evenodd" clip-rule="evenodd" d="M28.2734 0.000404358L28.2734 122.07L196.551 122.07L196.551 76.3923C188.462 75.8515 182.068 69.1188 182.068 60.8928C182.068 52.6668 188.462 45.9341 196.551 45.3933L196.551 0.000397002L28.2734 0.000404358Z" fill="#0F4E19"/>
<rect x="79.3164" y="95.8438" width="89.6559" height="89.6559" transform="rotate(-90 79.3164 95.8438)" fill="#181818"/>
<rect x="156.555" y="115.164" width="15.1725" height="13.7932" transform="rotate(-90 156.555 115.164)" fill="#181818"/>
<rect x="137.246" y="115.164" width="15.1725" height="13.7932" transform="rotate(-90 137.246 115.164)" fill="#181818"/>
<rect x="117.938" y="115.164" width="15.1725" height="13.7932" transform="rotate(-90 117.938 115.164)" fill="#181818"/>
<rect x="98.625" y="115.164" width="15.1725" height="13.7932" transform="rotate(-90 98.625 115.164)" fill="#181818"/>
<rect x="79.3164" y="115.164" width="15.1725" height="13.7932" transform="rotate(-90 79.3164 115.164)" fill="#181818"/>
</svg>
