<svg width="196" height="137" viewBox="0 0 196 137" fill="none" xmlns="http://www.w3.org/2000/svg">
<path d="M186.07 0.96875H4.36808C2.01822 0.96875 0.113281 2.87369 0.113281 5.22355V132.527C0.113281 134.877 2.01823 136.782 4.36809 136.782H68.6729L77.0758 128.69C77.3401 128.436 77.6927 128.294 78.0596 128.294H91.7402C92.5235 128.294 93.1585 128.929 93.1585 129.712V135.364C93.1585 136.147 93.7935 136.782 94.5767 136.782H111.196C111.563 136.782 111.915 136.64 112.179 136.385L128.006 121.145C128.27 120.891 128.623 120.749 128.99 120.749H187.488C192.188 120.749 195.998 116.939 195.998 112.239V10.8966C195.998 5.41361 191.553 0.96875 186.07 0.96875Z" fill="#404041"/>
<path d="M22.5362 19.0121V38.4279H20.0167V19.0121H22.5362ZM28.742 19.0121V21.119H13.8242V19.0121H28.742Z" fill="white"/>
<path d="M34.1654 19.0121V38.4279H31.6062V19.0121H34.1654ZM42.2541 27.7465V29.8535H33.6085V27.7465H42.2541ZM43.5669 19.0121V21.119H33.6085V19.0121H43.5669Z" fill="white"/>
<path d="M65.0087 32.2538H67.5547C67.4221 33.4806 67.0729 34.5785 66.5071 35.5475C65.9413 36.5165 65.1413 37.2855 64.107 37.8545C63.0727 38.4145 61.782 38.6946 60.235 38.6946C59.1035 38.6946 58.0736 38.4812 57.1454 38.0545C56.226 37.6278 55.4348 37.0233 54.7718 36.2409C54.1088 35.4497 53.5961 34.5029 53.2336 33.4006C52.88 32.2893 52.7032 31.0536 52.7032 29.6934V27.7599C52.7032 26.3997 52.88 25.1684 53.2336 24.0661C53.5961 22.9548 54.1132 22.0036 54.7851 21.2124C55.4658 20.4212 56.2835 19.8122 57.2382 19.3855C58.1929 18.9588 59.267 18.7454 60.4604 18.7454C61.9191 18.7454 63.1523 19.021 64.16 19.5722C65.1678 20.1234 65.9502 20.8879 66.5071 21.8658C67.0729 22.8348 67.4221 23.9594 67.5547 25.2396H65.0087C64.8849 24.3328 64.6551 23.5549 64.3192 22.9059C63.9832 22.2481 63.5059 21.7413 62.8871 21.3857C62.2683 21.0301 61.4594 20.8523 60.4604 20.8523C59.6029 20.8523 58.8471 21.0168 58.1929 21.3457C57.5476 21.6747 57.0039 22.1414 56.5619 22.7459C56.1288 23.3504 55.8017 24.075 55.5807 24.9195C55.3597 25.7641 55.2492 26.702 55.2492 27.7332V29.6934C55.2492 30.6447 55.3464 31.5381 55.5409 32.3738C55.7442 33.2094 56.0492 33.9429 56.4559 34.5741C56.8625 35.2052 57.3796 35.7031 58.0073 36.0676C58.6349 36.4232 59.3775 36.601 60.235 36.601C61.3224 36.601 62.1887 36.4276 62.834 36.0809C63.4793 35.7342 63.9656 35.2364 64.2926 34.5874C64.6286 33.9384 64.8673 33.1605 65.0087 32.2538Z" fill="white"/>
<path d="M79.1308 35.9609V28.5333C79.1308 27.9643 79.0159 27.4709 78.7861 27.0531C78.5651 26.6264 78.2291 26.2975 77.7783 26.0663C77.3275 25.8352 76.7705 25.7196 76.1075 25.7196C75.4887 25.7196 74.945 25.8263 74.4765 26.0397C74.0168 26.253 73.6544 26.5331 73.3892 26.8798C73.1328 27.2265 73.0046 27.5999 73.0046 27.9999H70.5515C70.5515 27.4843 70.6841 26.9731 70.9493 26.4664C71.2145 25.9596 71.5946 25.5018 72.0897 25.0929C72.5935 24.675 73.1947 24.3461 73.893 24.1061C74.6003 23.8572 75.387 23.7327 76.2534 23.7327C77.2965 23.7327 78.2159 23.9105 79.0115 24.2661C79.816 24.6217 80.4436 25.1595 80.8945 25.8796C81.3541 26.5908 81.584 27.4843 81.584 28.56V35.2808C81.584 35.7609 81.6238 36.272 81.7033 36.8143C81.7917 37.3566 81.9199 37.8234 82.0879 38.2145V38.4279H79.5286C79.4049 38.1434 79.3076 37.7656 79.2369 37.2944C79.1662 36.8143 79.1308 36.3698 79.1308 35.9609ZM79.5552 29.6801L79.5817 31.4137H77.102C76.4037 31.4137 75.7804 31.4714 75.2323 31.587C74.6842 31.6937 74.2246 31.8582 73.8533 32.0804C73.482 32.3027 73.1991 32.5827 73.0046 32.9205C72.8101 33.2494 72.7129 33.6362 72.7129 34.0807C72.7129 34.5341 72.8146 34.9474 73.0179 35.3208C73.2212 35.6942 73.5262 35.992 73.9328 36.2143C74.3483 36.4276 74.8566 36.5343 75.4578 36.5343C76.2092 36.5343 76.8722 36.3743 77.4468 36.0542C78.0214 35.7342 78.4767 35.343 78.8126 34.8808C79.1574 34.4185 79.343 33.9695 79.3695 33.5339L80.4171 34.7207C80.3552 35.0941 80.1872 35.5075 79.9132 35.9609C79.6391 36.4143 79.2723 36.8499 78.8126 37.2677C78.3617 37.6767 77.8225 38.0189 77.1948 38.2945C76.576 38.5612 75.8777 38.6946 75.0997 38.6946C74.1273 38.6946 73.2742 38.5034 72.5405 38.1212C71.8156 37.7389 71.2498 37.2277 70.8432 36.5876C70.4454 35.9387 70.2465 35.2141 70.2465 34.414C70.2465 33.6406 70.3968 32.9605 70.6973 32.3738C70.9979 31.7782 71.4311 31.2848 71.9968 30.8936C72.5626 30.4935 73.2433 30.1913 74.0389 29.9868C74.8345 29.7823 75.723 29.6801 76.7042 29.6801H79.5552Z" fill="white"/>
<path d="M87.8959 26.2664V38.4279H85.4427V23.9994H87.8295L87.8959 26.2664ZM92.3778 23.9194L92.3645 26.213C92.1612 26.1686 91.9667 26.1419 91.7811 26.133C91.6043 26.1152 91.401 26.1063 91.1711 26.1063C90.6054 26.1063 90.1059 26.1952 89.6727 26.373C89.2396 26.5508 88.8727 26.7998 88.5721 27.1198C88.2716 27.4398 88.0329 27.8221 87.8561 28.2666C87.6881 28.7022 87.5776 29.1823 87.5246 29.7068L86.835 30.1068C86.835 29.2356 86.919 28.4177 87.087 27.6532C87.2638 26.8887 87.5334 26.213 87.8959 25.6263C88.2583 25.0306 88.718 24.5684 89.2749 24.2394C89.8407 23.9016 90.5125 23.7327 91.2905 23.7327C91.4673 23.7327 91.6706 23.7549 91.9004 23.7994C92.1303 23.8349 92.2894 23.8749 92.3778 23.9194Z" fill="white"/>
<path d="M103.424 35.6275V17.9453H105.89V38.4279H103.636L103.424 35.6275ZM93.7701 31.3737V31.0936C93.7701 29.9913 93.9027 28.9911 94.1679 28.0932C94.442 27.1865 94.8265 26.4086 95.3216 25.7596C95.8255 25.1107 96.4222 24.6128 97.1117 24.2661C97.8101 23.9105 98.588 23.7327 99.4455 23.7327C100.347 23.7327 101.134 23.8927 101.806 24.2128C102.487 24.5239 103.061 24.9817 103.53 25.5863C104.007 26.1819 104.383 26.902 104.657 27.7465C104.931 28.5911 105.121 29.5468 105.227 30.6136V31.8404C105.13 32.8983 104.94 33.8495 104.657 34.6941C104.383 35.5386 104.007 36.2587 103.53 36.8543C103.061 37.45 102.487 37.9078 101.806 38.2278C101.125 38.539 100.33 38.6946 99.419 38.6946C98.5792 38.6946 97.8101 38.5123 97.1117 38.1478C96.4222 37.7833 95.8255 37.2722 95.3216 36.6143C94.8265 35.9565 94.442 35.183 94.1679 34.294C93.9027 33.3961 93.7701 32.4227 93.7701 31.3737ZM96.2365 31.0936V31.3737C96.2365 32.0937 96.3073 32.7694 96.4487 33.4006C96.599 34.0318 96.8288 34.5874 97.1382 35.0675C97.4476 35.5475 97.841 35.9253 98.3184 36.2009C98.7958 36.4676 99.3659 36.601 100.029 36.601C100.842 36.601 101.51 36.4276 102.031 36.0809C102.562 35.7342 102.986 35.2764 103.304 34.7074C103.622 34.1384 103.87 33.5206 104.047 32.8538V29.6401C103.941 29.1512 103.786 28.68 103.583 28.2266C103.388 27.7643 103.132 27.3554 102.814 26.9998C102.504 26.6353 102.12 26.3464 101.66 26.133C101.209 25.9196 100.674 25.813 100.055 25.813C99.3836 25.813 98.8046 25.9552 98.3184 26.2397C97.841 26.5153 97.4476 26.8975 97.1382 27.3865C96.8288 27.8666 96.599 28.4266 96.4487 29.0667C96.3073 29.6979 96.2365 30.3735 96.2365 31.0936Z" fill="white"/>
</svg>
