<svg width="82" height="83" viewBox="0 0 82 83" fill="none" xmlns="http://www.w3.org/2000/svg">
<rect x="1.36048" y="1.86048" width="78.908" height="78.908" rx="8.84314" stroke="white" stroke-width="2.72097"/>
<path d="M34.993 28.1406H50.4431V31.516H55.0712V35.0305H60.3256V58.3796H25.9805V42.6512H29.4602V54.8999H56.8458V38.5103H51.5914V34.9957H46.9633V31.6204H38.4728V35.1349H31.3393V31.6552H34.993V28.1406Z" fill="white"/>
<path d="M31.3398 17.1406H61.4048C65.2326 17.1406 68.3643 20.2724 68.3643 24.1001V62.5513C68.3643 66.3791 65.2326 69.5108 61.4048 69.5108H24.6587C20.831 69.5108 17.6992 66.3791 17.6992 62.5513V43.2735H21.179V62.5513C21.179 64.4652 22.7449 66.0311 24.6587 66.0311H61.37C63.2839 66.0311 64.8498 64.4652 64.8498 62.5513V24.1001C64.8498 22.1863 63.2839 20.6204 61.37 20.6204H31.3398V17.1406Z" fill="white"/>
<path d="M25.1803 39.6549H16.3765L22.2573 32.3823H13.8711L31.6178 13.7656L26.607 26.0143H32.7313L25.1803 39.6549Z" fill="white"/>
<path d="M52.3642 53.1406L54.7305 53.1406L54.7305 43.8149L52.3642 43.8149L52.3642 53.1406Z" fill="white"/>
<path d="M48.7549 53.1406L51.1211 53.1406L51.1211 43.8149L48.7549 43.8149L48.7549 53.1406Z" fill="white"/>
<path d="M45.1767 53.1406L47.543 53.1406L47.543 43.8149L45.1767 43.8149L45.1767 53.1406Z" fill="white"/>
<path d="M41.5986 53.1406L43.9648 53.1406L43.9648 43.8149L41.5986 43.8149L41.5986 53.1406Z" fill="white"/>
<path d="M38.0166 53.1406L40.3828 53.1406L40.3828 43.8149L38.0166 43.8149L38.0166 53.1406Z" fill="white"/>
<path d="M34.4385 53.1406L36.8047 53.1406L36.8047 43.8149L34.4385 43.8149L34.4385 53.1406Z" fill="white"/>
<path d="M30.8642 53.1406L33.2305 53.1406L33.2305 43.8149L30.8642 43.8149L30.8642 53.1406Z" fill="white"/>
</svg>
