<svg width="165" height="165" viewBox="0 0 165 165" fill="none" xmlns="http://www.w3.org/2000/svg">
<rect x="2.75" y="2.75" width="159.5" height="159.5" rx="17.875" stroke="white" stroke-width="5.5"/>
<g clip-path="url(#clip0_11136_33733)">
<path d="M72.9566 63.5939V87.7204C72.8528 87.7267 72.7597 87.7372 72.6686 87.7372C71.3052 87.7372 69.9417 87.7372 68.5783 87.7372C62.0935 87.7372 55.6107 87.7372 49.1259 87.7372C49.1005 87.7372 49.073 87.7372 49.0476 87.7372C48.7427 87.7309 48.7215 87.7141 48.7194 87.4046C48.7152 86.9668 48.7152 86.529 48.7152 86.0912C48.7152 78.8461 48.7152 71.5989 48.7152 64.3538C48.7152 64.2043 48.7109 64.0549 48.7109 63.9075C48.7152 63.6065 48.7279 63.5939 49.02 63.5834C49.1344 63.5792 49.2487 63.5792 49.363 63.5792C56.9911 63.5792 64.6171 63.5771 72.2452 63.575C72.3955 63.575 72.5437 63.5686 72.694 63.5707C72.7787 63.5707 72.8634 63.5834 72.9566 63.5918V63.5939Z" fill="white"/>
<path d="M68.991 123.904C68.8131 123.919 68.6755 123.94 68.5379 123.94C66.7701 123.94 65.0001 123.94 63.2323 123.94C63.1286 123.94 63.027 123.95 62.9211 123.956C62.9211 125.064 62.9211 126.148 62.9211 127.232C62.9211 127.381 62.919 127.531 62.9253 127.678C62.938 127.943 62.9931 127.998 63.262 127.998C64.9959 127.998 66.7277 127.998 68.4617 128.002C68.6353 128.002 68.8152 127.968 68.9846 128.084V131.862C68.8682 131.961 68.7284 131.964 68.5866 131.964C66.8272 131.964 65.0679 131.964 63.3085 131.964C63.2133 131.964 63.1159 131.964 62.991 131.964C62.9656 132.071 62.9232 132.17 62.9232 132.267C62.919 133.45 62.9232 134.633 62.9232 135.815C62.9232 135.866 62.9359 135.919 62.9465 135.997C63.0524 136.001 63.1561 136.009 63.2577 136.009C65.0086 136.009 66.7595 136.009 68.5104 136.009C68.6649 136.009 68.8216 136.028 68.9973 136.041C68.9973 136.159 68.9973 136.245 68.9973 136.331C68.9973 137.445 68.9973 138.556 68.9973 139.67C68.9973 139.99 68.8893 140.088 68.5781 140.086C68.1907 140.082 67.8032 140.084 67.4179 140.084C63.9246 140.084 60.4313 140.084 56.9401 140.084C55.6635 140.084 54.389 140.078 53.1123 140.074C53.0255 140.074 52.9387 140.074 52.8265 140.074C52.8138 139.96 52.7969 139.867 52.7969 139.775C52.7969 138.583 52.7969 137.392 52.7969 136.201C52.7969 136.15 52.8075 136.1 52.8159 136.011H58.8413C58.8477 135.898 58.8562 135.822 58.8562 135.744C58.8583 134.597 58.8604 133.447 58.8604 132.3C58.8604 132.239 58.8562 132.178 58.8413 132.119C58.8202 132.027 58.7715 131.961 58.6614 131.966C58.564 131.968 58.4687 131.961 58.3713 131.961C56.6988 131.961 55.0284 131.961 53.3558 131.961C53.1822 131.961 53.0086 131.953 52.8159 131.949V128.017C52.9472 128.008 53.0763 127.996 53.2034 127.996C54.9627 127.996 56.7221 127.996 58.4814 128C58.835 128 58.8625 127.975 58.8625 127.636C58.8625 126.505 58.8583 125.375 58.8583 124.245C58.8583 124.158 58.8583 124.072 58.8583 123.956C58.727 123.95 58.6169 123.94 58.5047 123.94C56.7792 123.94 55.0559 123.94 53.3304 123.94C53.1653 123.94 52.998 123.94 52.8138 123.94V119.902C52.9599 119.894 53.0869 119.877 53.2161 119.877C54.4737 119.875 55.7334 119.875 56.991 119.875C60.8272 119.875 64.6635 119.875 68.4998 119.875C68.9931 119.875 68.9952 119.875 68.9952 120.37C68.9952 121.447 68.9952 122.525 68.9952 123.603C68.9952 123.689 68.9952 123.775 68.9952 123.902L68.991 123.904Z" fill="white"/>
<path d="M48.7861 107.844H72.9386C72.9492 107.974 72.9661 108.094 72.9661 108.214C72.9661 108.785 72.9703 109.353 72.9619 109.923C72.9576 110.168 72.9534 110.418 72.9005 110.656C72.8327 110.967 72.7184 111.268 72.6189 111.574C72.5469 111.797 72.477 112.024 72.3923 112.243C72.2399 112.632 72.0854 113.022 71.9139 113.405C71.7212 113.834 71.5286 114.264 71.302 114.674C71.084 115.072 70.8553 115.466 70.561 115.817C70.4806 115.914 70.3895 115.927 70.2837 115.927C70.0021 115.924 69.7205 115.918 69.4389 115.918C63.9576 115.918 58.4763 115.918 52.995 115.918C52.5102 115.918 52.0275 115.908 51.5426 115.931C51.3161 115.941 51.1721 115.842 51.0684 115.68C50.863 115.358 50.6767 115.026 50.4798 114.697C50.3782 114.529 50.2723 114.363 50.175 114.192C50.0945 114.051 50.0458 113.893 49.9759 113.746C49.7536 113.277 49.5779 112.784 49.3853 112.3C49.2879 112.058 49.1905 111.816 49.0973 111.574C49.0719 111.508 49.0613 111.439 49.0465 111.372C49.0317 111.304 49.0465 111.212 49.0063 111.17C48.8602 111.01 48.8793 110.814 48.856 110.626C48.8475 110.565 48.8454 110.502 48.8285 110.445C48.6104 109.66 48.7501 108.858 48.7184 108.067C48.7184 108.025 48.7311 107.981 48.7416 107.938C48.748 107.913 48.7628 107.892 48.784 107.85L48.7861 107.844Z" fill="white"/>
<path d="M75.0488 99.8214C75.0488 100.059 75.0488 100.251 75.0488 100.442C75.0488 101.415 75.0488 102.387 75.0488 103.36C75.0488 103.819 75.0128 103.854 74.5555 103.854C72.7707 103.854 70.9839 103.848 69.1991 103.848C65.293 103.848 61.3868 103.852 57.4807 103.854C54.288 103.854 51.0932 103.859 47.9006 103.859C47.602 103.859 47.3014 103.854 47.0029 103.84C46.789 103.829 46.7509 103.789 46.7509 103.587C46.7488 102.343 46.7509 101.101 46.7509 99.8319C46.8631 99.8151 46.9627 99.794 47.0643 99.7856C47.1426 99.7772 47.2231 99.7835 47.3014 99.7835C56.3713 99.7835 65.4412 99.7835 74.511 99.7835C74.6741 99.7835 74.8392 99.8046 75.0488 99.8193V99.8214Z" fill="white"/>
<path d="M75.0063 95.7075C74.7247 95.7643 47.0472 95.7707 46.7656 95.7138V91.8092C46.8905 91.7987 47.0176 91.7798 47.1467 91.7777C47.9131 91.7734 48.6774 91.7734 49.4438 91.7734C57.7854 91.7734 66.127 91.7734 74.4686 91.7734C74.6422 91.7734 74.8158 91.7882 74.9788 91.7945C75.0592 92.0513 75.0804 95.4023 75.0084 95.7054L75.0063 95.7075Z" fill="white"/>
<path d="M58.8732 51.5008V41.4414C58.9833 41.4309 59.0743 41.4141 59.1675 41.4141C60.2748 41.4141 61.3842 41.4141 62.4914 41.4162C62.8831 41.4162 62.9127 41.4498 62.9127 41.8371C62.9127 44.9124 62.9127 47.9877 62.9127 51.0609C62.9127 51.1914 62.8958 51.3219 62.8852 51.4797C62.8005 51.4903 62.718 51.5113 62.6354 51.5113C61.4307 51.5134 60.2261 51.5113 59.0193 51.5113C58.977 51.5113 58.9346 51.5029 58.8711 51.4987L58.8732 51.5008Z" fill="white"/>
<path d="M64.865 55.5709C64.9412 55.8361 64.9306 59.3092 64.8544 59.526C64.5199 59.526 64.1769 59.526 63.836 59.526C61.8311 59.526 59.8283 59.526 57.8233 59.526C57.5947 59.526 57.3681 59.5534 57.1395 59.5513C56.8939 59.5513 56.8516 59.5008 56.8516 59.2524C56.8516 58.1242 56.8537 56.9938 56.8579 55.8656C56.8579 55.5793 56.877 55.5625 57.1522 55.5625C59.6758 55.5625 62.1974 55.5625 64.721 55.5625C64.7634 55.5625 64.8078 55.5667 64.865 55.5709Z" fill="white"/>
<path d="M58.8437 144.055V151.77C58.5791 151.854 55.1408 151.852 54.8084 151.763C54.8021 151.673 54.7852 151.572 54.7852 151.471C54.7852 149.105 54.7894 146.739 54.7915 144.375C54.7915 144.074 54.836 144.023 55.143 144.023C56.2777 144.023 57.4125 144.023 58.5473 144.026C58.6341 144.026 58.7188 144.042 58.8437 144.057V144.055Z" fill="white"/>
<path d="M66.9098 151.753C66.6663 151.843 63.1794 151.841 62.9232 151.755C62.919 151.669 62.9105 151.574 62.9105 151.479C62.9105 149.141 62.9062 146.8 62.9062 144.461C62.9062 144.009 62.9105 144.009 63.3572 144.009C64.4137 144.009 65.468 144.007 66.5245 144.009C66.6324 144.009 66.7955 144.011 66.8378 144.076C66.9246 144.207 66.9987 144.364 66.9521 144.545C66.9225 144.661 66.9119 144.788 66.9119 144.908C66.9098 147.071 66.9119 149.235 66.9098 151.399C66.9098 151.519 66.9098 151.641 66.9098 151.749V151.753Z" fill="white"/>
<path d="M62.8847 37.4468H58.8918C58.8791 37.2679 58.8558 37.0953 58.8558 36.9248C58.8537 34.9357 58.8558 32.9486 58.8516 30.9595C58.8516 30.7469 58.8981 30.6059 59.1141 30.509C59.5777 30.2985 60.0266 30.0607 60.4818 29.8334C60.5135 29.8186 60.5495 29.8102 60.577 29.787C60.7591 29.6334 60.9412 29.6629 61.1402 29.7618C61.6102 29.9996 62.0845 30.2312 62.5566 30.4648C62.6582 30.5153 62.7598 30.5638 62.889 30.6248C62.8974 30.7279 62.9165 30.8479 62.9165 30.97C62.9207 33.0118 62.9207 35.0514 62.9207 37.0932C62.9207 37.2047 62.9017 37.3184 62.889 37.4468H62.8847Z" fill="white"/>
<path d="M64.2969 59.5625H64.4091C64.4091 59.5625 64.4091 59.5732 64.4091 59.5774H64.2969C64.2969 59.5774 64.2969 59.5668 64.2969 59.5625Z" fill="white"/>
</g>
<g clip-path="url(#clip1_11136_33733)">
<path d="M116.156 63.5939V87.7204C116.052 87.7267 115.959 87.7372 115.868 87.7372C114.504 87.7372 113.141 87.7372 111.778 87.7372C105.293 87.7372 98.81 87.7372 92.3251 87.7372C92.2997 87.7372 92.2722 87.7372 92.2468 87.7372C91.9419 87.7309 91.9207 87.7141 91.9186 87.4046C91.9144 86.9668 91.9144 86.529 91.9144 86.0912C91.9144 78.8461 91.9144 71.5989 91.9144 64.3538C91.9144 64.2043 91.9102 64.0549 91.9102 63.9075C91.9144 63.6065 91.9271 63.5939 92.2193 63.5834C92.3336 63.5792 92.4479 63.5792 92.5622 63.5792C100.19 63.5792 107.816 63.5771 115.444 63.575C115.595 63.575 115.743 63.5686 115.893 63.5707C115.978 63.5707 116.063 63.5834 116.156 63.5918V63.5939Z" fill="white"/>
<path d="M112.19 123.904C112.012 123.919 111.875 123.94 111.737 123.94C109.969 123.94 108.199 123.94 106.432 123.94C106.328 123.94 106.226 123.95 106.12 123.956C106.12 125.064 106.12 126.148 106.12 127.232C106.12 127.381 106.118 127.531 106.125 127.678C106.137 127.943 106.192 127.998 106.461 127.998C108.195 127.998 109.927 127.998 111.661 128.002C111.835 128.002 112.014 127.968 112.184 128.084V131.862C112.067 131.961 111.928 131.964 111.786 131.964C110.026 131.964 108.267 131.964 106.508 131.964C106.412 131.964 106.315 131.964 106.19 131.964C106.165 132.071 106.122 132.17 106.122 132.267C106.118 133.45 106.122 134.633 106.122 135.815C106.122 135.866 106.135 135.919 106.146 135.997C106.252 136.001 106.355 136.009 106.457 136.009C108.208 136.009 109.959 136.009 111.71 136.009C111.864 136.009 112.021 136.028 112.197 136.041C112.197 136.159 112.197 136.245 112.197 136.331C112.197 137.445 112.197 138.556 112.197 139.67C112.197 139.99 112.089 140.088 111.777 140.086C111.39 140.082 111.002 140.084 110.617 140.084C107.124 140.084 103.631 140.084 100.139 140.084C98.8627 140.084 97.5882 140.078 96.3115 140.074C96.2247 140.074 96.1379 140.074 96.0257 140.074C96.013 139.96 95.9961 139.867 95.9961 139.775C95.9961 138.583 95.9961 137.392 95.9961 136.201C95.9961 136.15 96.0067 136.1 96.0151 136.011H102.041C102.047 135.898 102.055 135.822 102.055 135.744C102.057 134.597 102.06 133.447 102.06 132.3C102.06 132.239 102.055 132.178 102.041 132.119C102.019 132.027 101.971 131.961 101.861 131.966C101.763 131.968 101.668 131.961 101.571 131.961C99.898 131.961 98.2276 131.961 96.555 131.961C96.3814 131.961 96.2078 131.953 96.0151 131.949V128.017C96.1464 128.008 96.2756 127.996 96.4026 127.996C98.1619 127.996 99.9213 127.996 101.681 128C102.034 128 102.062 127.975 102.062 127.636C102.062 126.505 102.057 125.375 102.057 124.245C102.057 124.158 102.057 124.072 102.057 123.956C101.926 123.95 101.816 123.94 101.704 123.94C99.9785 123.94 98.2551 123.94 96.5296 123.94C96.3645 123.94 96.1972 123.94 96.013 123.94V119.902C96.1591 119.894 96.2861 119.877 96.4153 119.877C97.6729 119.875 98.9326 119.875 100.19 119.875C104.026 119.875 107.863 119.875 111.699 119.875C112.192 119.875 112.194 119.875 112.194 120.37C112.194 121.447 112.194 122.525 112.194 123.603C112.194 123.689 112.194 123.775 112.194 123.902L112.19 123.904Z" fill="white"/>
<path d="M91.9892 107.844H116.142C116.152 107.974 116.169 108.094 116.169 108.214C116.169 108.785 116.173 109.353 116.165 109.923C116.161 110.168 116.157 110.418 116.104 110.656C116.036 110.967 115.922 111.268 115.822 111.574C115.75 111.797 115.68 112.024 115.595 112.243C115.443 112.632 115.288 113.022 115.117 113.405C114.924 113.834 114.732 114.264 114.505 114.674C114.287 115.072 114.058 115.466 113.764 115.817C113.684 115.914 113.593 115.927 113.487 115.927C113.205 115.924 112.924 115.918 112.642 115.918C107.161 115.918 101.679 115.918 96.1981 115.918C95.7133 115.918 95.2306 115.908 94.7458 115.931C94.5192 115.941 94.3753 115.842 94.2715 115.68C94.0662 115.358 93.8798 115.026 93.683 114.697C93.5813 114.529 93.4755 114.363 93.3781 114.192C93.2976 114.051 93.2489 113.893 93.1791 113.746C92.9568 113.277 92.781 112.784 92.5884 112.3C92.491 112.058 92.3936 111.816 92.3005 111.574C92.275 111.508 92.2645 111.439 92.2496 111.372C92.2348 111.304 92.2496 111.212 92.2094 111.17C92.0633 111.01 92.0824 110.814 92.0591 110.626C92.0506 110.565 92.0485 110.502 92.0316 110.445C91.8135 109.66 91.9532 108.858 91.9215 108.067C91.9215 108.025 91.9342 107.981 91.9448 107.938C91.9511 107.913 91.9659 107.892 91.9871 107.85L91.9892 107.844Z" fill="white"/>
<path d="M118.248 99.8214C118.248 100.059 118.248 100.251 118.248 100.442C118.248 101.415 118.248 102.387 118.248 103.36C118.248 103.819 118.212 103.854 117.755 103.854C115.97 103.854 114.183 103.848 112.398 103.848C108.492 103.848 104.586 103.852 100.68 103.854C97.4872 103.854 94.2924 103.859 91.0998 103.859C90.8013 103.859 90.5006 103.854 90.2021 103.84C89.9883 103.829 89.9502 103.789 89.9502 103.587C89.948 102.343 89.9502 101.101 89.9502 99.8319C90.0624 99.8151 90.1619 99.794 90.2635 99.7856C90.3418 99.7772 90.4223 99.7835 90.5006 99.7835C99.5705 99.7835 108.64 99.7835 117.71 99.7835C117.873 99.7835 118.038 99.8046 118.248 99.8193V99.8214Z" fill="white"/>
<path d="M118.206 95.7075C117.924 95.7643 90.2464 95.7707 89.9648 95.7138V91.8092C90.0898 91.7987 90.2168 91.7798 90.3459 91.7777C91.1123 91.7734 91.8766 91.7734 92.643 91.7734C100.985 91.7734 109.326 91.7734 117.668 91.7734C117.841 91.7734 118.015 91.7882 118.178 91.7945C118.258 92.0513 118.28 95.4023 118.208 95.7054L118.206 95.7075Z" fill="white"/>
<path d="M102.072 51.5008V41.4414C102.183 41.4309 102.274 41.4141 102.367 41.4141C103.474 41.4141 104.583 41.4141 105.691 41.4162C106.082 41.4162 106.112 41.4498 106.112 41.8371C106.112 44.9124 106.112 47.9877 106.112 51.0609C106.112 51.1914 106.095 51.3219 106.084 51.4797C106 51.4903 105.917 51.5113 105.835 51.5113C104.63 51.5134 103.425 51.5113 102.219 51.5113C102.176 51.5113 102.134 51.5029 102.07 51.4987L102.072 51.5008Z" fill="white"/>
<path d="M108.068 55.5709C108.144 55.8361 108.134 59.3092 108.058 59.526C107.723 59.526 107.38 59.526 107.039 59.526C105.034 59.526 103.031 59.526 101.026 59.526C100.798 59.526 100.571 59.5534 100.343 59.5513C100.097 59.5513 100.055 59.5008 100.055 59.2524C100.055 58.1242 100.057 56.9938 100.061 55.8656C100.061 55.5793 100.08 55.5625 100.355 55.5625C102.879 55.5625 105.4 55.5625 107.924 55.5625C107.966 55.5625 108.011 55.5667 108.068 55.5709Z" fill="white"/>
<path d="M102.043 144.055V151.77C101.778 151.854 98.3401 151.852 98.0077 151.763C98.0013 151.673 97.9844 151.572 97.9844 151.471C97.9844 149.105 97.9886 146.739 97.9907 144.375C97.9907 144.074 98.0352 144.023 98.3422 144.023C99.477 144.023 100.612 144.023 101.747 144.026C101.833 144.026 101.918 144.042 102.043 144.057V144.055Z" fill="white"/>
<path d="M110.109 151.753C109.866 151.843 106.379 151.841 106.122 151.755C106.118 151.669 106.11 151.574 106.11 151.479C106.11 149.141 106.105 146.8 106.105 144.461C106.105 144.009 106.11 144.009 106.556 144.009C107.613 144.009 108.667 144.007 109.724 144.009C109.832 144.009 109.995 144.011 110.037 144.076C110.124 144.207 110.198 144.364 110.151 144.545C110.122 144.661 110.111 144.788 110.111 144.908C110.109 147.071 110.111 149.235 110.109 151.399C110.109 151.519 110.109 151.641 110.109 151.749V151.753Z" fill="white"/>
<path d="M106.084 37.4468H102.091C102.078 37.2679 102.055 37.0953 102.055 36.9248C102.053 34.9357 102.055 32.9486 102.051 30.9595C102.051 30.7469 102.097 30.6059 102.313 30.509C102.777 30.2985 103.226 30.0607 103.681 29.8334C103.713 29.8186 103.749 29.8102 103.776 29.787C103.958 29.6334 104.14 29.6629 104.339 29.7618C104.809 29.9996 105.284 30.2312 105.756 30.4648C105.857 30.5153 105.959 30.5638 106.088 30.6248C106.097 30.7279 106.116 30.8479 106.116 30.97C106.12 33.0118 106.12 35.0514 106.12 37.0932C106.12 37.2047 106.101 37.3184 106.088 37.4468H106.084Z" fill="white"/>
<path d="M107.496 59.5625H107.608C107.608 59.5625 107.608 59.5732 107.608 59.5774H107.496C107.496 59.5774 107.496 59.5668 107.496 59.5625Z" fill="white"/>
</g>
<defs>
<clipPath id="clip0_11136_33733">
<rect width="28.3021" height="122.146" fill="white" transform="translate(46.75 29.6797)"/>
</clipPath>
<clipPath id="clip1_11136_33733">
<rect width="28.3021" height="122.146" fill="white" transform="translate(89.9492 29.6797)"/>
</clipPath>
</defs>
</svg>
