<svg width="121" height="120" viewBox="0 0 121 120" fill="none" xmlns="http://www.w3.org/2000/svg">
<rect width="120" height="120" transform="translate(0.5)" fill="white"/>
<circle cx="31.75" cy="73.75" r="17.5" fill="white"/>
<rect x="55.3477" y="32.8203" width="47.1095" height="47.819" rx="23.5548" fill="black"/>
<path d="M75.4622 56.4393L73.1585 55.8478L74.2948 44.5624H85.9226V47.2242H76.7387L76.0538 53.3883C76.4688 53.1496 76.9929 52.9265 77.6259 52.719C78.2693 52.5114 79.0061 52.4077 79.8363 52.4077C80.8844 52.4077 81.8236 52.5893 82.6538 52.9525C83.484 53.3053 84.1896 53.8138 84.7708 54.478C85.3623 55.1421 85.8137 55.9412 86.125 56.8751C86.4363 57.8091 86.592 58.852 86.592 60.0039C86.592 61.0935 86.4415 62.0949 86.1406 63.0082C85.85 63.9214 85.409 64.7204 84.8175 65.4053C84.2259 66.0799 83.4788 66.6039 82.5759 66.9775C81.6835 67.3511 80.6302 67.5379 79.416 67.5379C78.5028 67.5379 77.6363 67.4134 76.8165 67.1643C76.0071 66.9049 75.2806 66.5157 74.6372 65.9968C74.0042 65.4676 73.4854 64.8138 73.0806 64.0355C72.6863 63.2468 72.4372 62.3233 72.3335 61.2648H75.0731C75.1976 62.1157 75.4467 62.8317 75.8203 63.4129C76.1938 63.994 76.6816 64.435 77.2835 64.736C77.8957 65.0266 78.6066 65.1718 79.416 65.1718C80.1009 65.1718 80.708 65.0525 81.2373 64.8138C81.7665 64.5751 82.2127 64.2327 82.5759 63.7865C82.9391 63.3402 83.2141 62.8006 83.4009 62.1676C83.5981 61.5346 83.6967 60.8237 83.6967 60.035C83.6967 59.319 83.5981 58.6548 83.4009 58.0426C83.2038 57.4303 82.908 56.8959 82.5137 56.4393C82.1297 55.9827 81.6575 55.6298 81.0972 55.3808C80.5368 55.1213 79.8934 54.9916 79.167 54.9916C78.2019 54.9916 77.4703 55.1213 76.9722 55.3808C76.4844 55.6402 75.9811 55.993 75.4622 56.4393Z" fill="white"/>
<path d="M8 93.8183V86.4021C8 85.947 8.37146 85.5753 8.82583 85.601C15.4352 85.9749 17.0802 90.8466 17.0951 93.8924C17.0972 94.3185 16.7378 94.6423 16.3117 94.6423H8.82401C8.36892 94.6423 8 94.2734 8 93.8183Z" fill="black"/>
<path d="M14.5938 55.0905V27.074C14.5938 26.6189 14.9627 26.25 15.4178 26.25H111.003C111.459 26.25 111.827 26.6189 111.827 27.074V87.2271C111.827 87.6822 111.459 88.0511 111.003 88.0511H48.3783" stroke="black" stroke-width="4.94409"/>
<path d="M8.82422 63.3203C18.7124 64.1443 38.4887 71.3957 38.4887 93.8088" stroke="black" stroke-width="4.94409"/>
<path d="M8.82422 75.6875C14.867 75.4128 26.9525 78.654 26.9525 93.8158" stroke="black" stroke-width="4.94409"/>
</svg>
