<svg width="165" height="165" viewBox="0 0 165 165" fill="none" xmlns="http://www.w3.org/2000/svg">
<path d="M127.392 37.582V68.1985C127.392 70.4341 129.224 72.2662 131.46 72.2662H135.621C141.148 72.2662 145.65 76.7686 145.65 82.2957C145.65 87.8228 141.148 92.3252 135.621 92.3252H131.46C129.224 92.3252 127.392 94.1572 127.392 96.3929V127.009H37.9651V96.3929C37.9651 94.1572 36.1331 92.3252 33.8974 92.3252H29.7365C24.2094 92.3252 19.707 87.8228 19.707 82.2957C19.707 76.7686 24.2094 72.2662 29.7365 72.2662H33.8974C36.1331 72.2662 37.9651 70.4341 37.9651 68.1985V37.582H127.392M129.224 35.75H36.1331V68.1985C36.1331 69.4405 35.1394 70.4341 33.8974 70.4341H29.7365C23.1847 70.4341 17.875 75.7439 17.875 82.2957C17.875 88.8475 23.1847 94.1572 29.7365 94.1572H33.8974C35.1394 94.1572 36.1331 95.1508 36.1331 96.3929V128.841H129.224V96.3929C129.224 95.1508 130.218 94.1572 131.46 94.1572H135.621C142.173 94.1572 147.483 88.8475 147.483 82.2957C147.483 75.7439 142.173 70.4341 135.621 70.4341H131.46C130.218 70.4341 129.224 69.4405 129.224 68.1985V35.75Z" stroke="white" stroke-width="2.75"/>
<rect x="2.75" y="2.75" width="159.5" height="159.5" rx="17.875" stroke="white" stroke-width="5.5"/>
<circle cx="82.5" cy="82.5" r="27.5" stroke="white" stroke-width="2.75"/>
<circle cx="82.5" cy="82.5" r="20.625" stroke="white" stroke-width="2.75"/>
</svg>
