<svg width="121" height="120" viewBox="0 0 121 120" fill="none" xmlns="http://www.w3.org/2000/svg">
<rect width="120" height="120" transform="translate(0.5)" fill="white"/>
<rect x="18" y="17.5" width="85" height="85" rx="3.75" stroke="black" stroke-width="3.75"/>
<rect x="26.75" y="26.25" width="67.5" height="67.5" rx="2.5" fill="black"/>
<line x1="103" y1="33.125" x2="109.25" y2="33.125" stroke="black" stroke-width="3.75"/>
<line x1="103" y1="43.125" x2="109.25" y2="43.125" stroke="black" stroke-width="3.75"/>
<line x1="103" y1="53.125" x2="109.25" y2="53.125" stroke="black" stroke-width="3.75"/>
<line x1="103" y1="63.125" x2="109.25" y2="63.125" stroke="black" stroke-width="3.75"/>
<line x1="103" y1="73.125" x2="109.25" y2="73.125" stroke="black" stroke-width="3.75"/>
<line x1="103" y1="83.125" x2="109.25" y2="83.125" stroke="black" stroke-width="3.75"/>
<line x1="11.75" y1="33.125" x2="18" y2="33.125" stroke="black" stroke-width="3.75"/>
<line x1="11.75" y1="43.125" x2="18" y2="43.125" stroke="black" stroke-width="3.75"/>
<line x1="11.75" y1="53.125" x2="18" y2="53.125" stroke="black" stroke-width="3.75"/>
<line x1="11.75" y1="63.125" x2="18" y2="63.125" stroke="black" stroke-width="3.75"/>
<line x1="11.75" y1="73.125" x2="18" y2="73.125" stroke="black" stroke-width="3.75"/>
<line x1="11.75" y1="83.125" x2="18" y2="83.125" stroke="black" stroke-width="3.75"/>
<line x1="87.375" y1="102.5" x2="87.375" y2="108.75" stroke="black" stroke-width="3.75"/>
<line x1="77.375" y1="102.5" x2="77.375" y2="108.75" stroke="black" stroke-width="3.75"/>
<line x1="67.375" y1="102.5" x2="67.375" y2="108.75" stroke="black" stroke-width="3.75"/>
<line x1="57.375" y1="102.5" x2="57.375" y2="108.75" stroke="black" stroke-width="3.75"/>
<line x1="47.375" y1="102.5" x2="47.375" y2="108.75" stroke="black" stroke-width="3.75"/>
<line x1="37.375" y1="102.5" x2="37.375" y2="108.75" stroke="black" stroke-width="3.75"/>
<line x1="87.375" y1="11.25" x2="87.375" y2="17.5" stroke="black" stroke-width="3.75"/>
<line x1="77.375" y1="11.25" x2="77.375" y2="17.5" stroke="black" stroke-width="3.75"/>
<line x1="67.375" y1="11.25" x2="67.375" y2="17.5" stroke="black" stroke-width="3.75"/>
<line x1="57.375" y1="11.25" x2="57.375" y2="17.5" stroke="black" stroke-width="3.75"/>
<line x1="47.375" y1="11.25" x2="47.375" y2="17.5" stroke="black" stroke-width="3.75"/>
<line x1="37.375" y1="11.25" x2="37.375" y2="17.5" stroke="black" stroke-width="3.75"/>
<path d="M52.5742 60.6562C52.5742 60.3242 52.5221 60.0312 52.418 59.7773C52.3203 59.5169 52.1445 59.2826 51.8906 59.0742C51.6432 58.8659 51.2982 58.6673 50.8555 58.4785C50.4193 58.2897 49.8659 58.0977 49.1953 57.9023C48.4922 57.694 47.8574 57.4629 47.291 57.209C46.7246 56.9486 46.2396 56.6523 45.8359 56.3203C45.4323 55.9883 45.123 55.6074 44.9082 55.1777C44.6934 54.748 44.5859 54.2565 44.5859 53.7031C44.5859 53.1497 44.6999 52.6387 44.9277 52.1699C45.1556 51.7012 45.4811 51.2943 45.9043 50.9492C46.334 50.5977 46.8451 50.3242 47.4375 50.1289C48.0299 49.9336 48.6908 49.8359 49.4199 49.8359C50.4876 49.8359 51.3926 50.041 52.1348 50.4512C52.8835 50.8548 53.4531 51.3854 53.8438 52.043C54.2344 52.694 54.4297 53.3906 54.4297 54.1328H52.5547C52.5547 53.599 52.4408 53.127 52.2129 52.7168C51.985 52.3001 51.64 51.9746 51.1777 51.7402C50.7155 51.4993 50.1296 51.3789 49.4199 51.3789C48.7493 51.3789 48.196 51.4798 47.7598 51.6816C47.3236 51.8835 46.998 52.1569 46.7832 52.502C46.5749 52.847 46.4707 53.2409 46.4707 53.6836C46.4707 53.9831 46.5326 54.2565 46.6562 54.5039C46.7865 54.7448 46.985 54.9694 47.252 55.1777C47.5254 55.3861 47.8704 55.5781 48.2871 55.7539C48.7103 55.9297 49.2148 56.099 49.8008 56.2617C50.6081 56.4896 51.3047 56.7435 51.8906 57.0234C52.4766 57.3034 52.9583 57.6191 53.3359 57.9707C53.7201 58.3158 54.0033 58.7096 54.1855 59.1523C54.3743 59.5885 54.4688 60.0833 54.4688 60.6367C54.4688 61.2161 54.3516 61.7402 54.1172 62.209C53.8828 62.6777 53.5475 63.0781 53.1113 63.4102C52.6751 63.7422 52.151 63.9993 51.5391 64.1816C50.9336 64.3574 50.2565 64.4453 49.5078 64.4453C48.8503 64.4453 48.2025 64.3542 47.5645 64.1719C46.9329 63.9896 46.3568 63.7161 45.8359 63.3516C45.3216 62.987 44.9082 62.5378 44.5957 62.0039C44.2897 61.4635 44.1367 60.8385 44.1367 60.1289H46.0117C46.0117 60.6172 46.1061 61.0371 46.2949 61.3887C46.4837 61.7337 46.7409 62.0202 47.0664 62.248C47.3984 62.4759 47.7728 62.6452 48.1895 62.7559C48.6126 62.86 49.0521 62.9121 49.5078 62.9121C50.1654 62.9121 50.722 62.821 51.1777 62.6387C51.6335 62.4564 51.9785 62.196 52.2129 61.8574C52.4538 61.5189 52.5742 61.1185 52.5742 60.6562ZM56.1191 59.084V58.8594C56.1191 58.0977 56.2298 57.3913 56.4512 56.7402C56.6725 56.0827 56.9915 55.513 57.4082 55.0312C57.8249 54.543 58.3294 54.1654 58.9219 53.8984C59.5143 53.625 60.1784 53.4883 60.9141 53.4883C61.6562 53.4883 62.3236 53.625 62.916 53.8984C63.515 54.1654 64.0228 54.543 64.4395 55.0312C64.8626 55.513 65.1849 56.0827 65.4062 56.7402C65.6276 57.3913 65.7383 58.0977 65.7383 58.8594V59.084C65.7383 59.8457 65.6276 60.5521 65.4062 61.2031C65.1849 61.8542 64.8626 62.4238 64.4395 62.9121C64.0228 63.3939 63.5182 63.7715 62.9258 64.0449C62.3398 64.3118 61.6758 64.4453 60.9336 64.4453C60.1914 64.4453 59.5241 64.3118 58.9316 64.0449C58.3392 63.7715 57.8314 63.3939 57.4082 62.9121C56.9915 62.4238 56.6725 61.8542 56.4512 61.2031C56.2298 60.5521 56.1191 59.8457 56.1191 59.084ZM57.9258 58.8594V59.084C57.9258 59.6113 57.9876 60.1094 58.1113 60.5781C58.235 61.0404 58.4206 61.4505 58.668 61.8086C58.9219 62.1667 59.2376 62.4499 59.6152 62.6582C59.9928 62.86 60.4323 62.9609 60.9336 62.9609C61.4284 62.9609 61.8613 62.86 62.2324 62.6582C62.61 62.4499 62.9225 62.1667 63.1699 61.8086C63.4173 61.4505 63.6029 61.0404 63.7266 60.5781C63.8568 60.1094 63.9219 59.6113 63.9219 59.084V58.8594C63.9219 58.3385 63.8568 57.847 63.7266 57.3848C63.6029 56.916 63.4141 56.5026 63.1602 56.1445C62.9128 55.7799 62.6003 55.4935 62.2227 55.2852C61.8516 55.0768 61.4154 54.9727 60.9141 54.9727C60.4193 54.9727 59.9831 55.0768 59.6055 55.2852C59.2344 55.4935 58.9219 55.7799 58.668 56.1445C58.4206 56.5026 58.235 56.916 58.1113 57.3848C57.9876 57.847 57.9258 58.3385 57.9258 58.8594ZM76.8613 59.7285H78.7363C78.6387 60.627 78.3815 61.431 77.9648 62.1406C77.5482 62.8503 76.959 63.4134 76.1973 63.8301C75.4355 64.2402 74.485 64.4453 73.3457 64.4453C72.5124 64.4453 71.7539 64.2891 71.0703 63.9766C70.3932 63.6641 69.8105 63.2214 69.3223 62.6484C68.834 62.069 68.4564 61.3757 68.1895 60.5684C67.929 59.7546 67.7988 58.8496 67.7988 57.8535V56.4375C67.7988 55.4414 67.929 54.5397 68.1895 53.7324C68.4564 52.9186 68.8372 52.222 69.332 51.6426C69.8333 51.0632 70.4355 50.6172 71.1387 50.3047C71.8418 49.9922 72.6328 49.8359 73.5117 49.8359C74.5859 49.8359 75.4941 50.0378 76.2363 50.4414C76.9785 50.8451 77.5547 51.4049 77.9648 52.1211C78.3815 52.8307 78.6387 53.6543 78.7363 54.5918H76.8613C76.7702 53.9277 76.6009 53.3581 76.3535 52.8828C76.1061 52.401 75.7546 52.0299 75.2988 51.7695C74.8431 51.5091 74.2474 51.3789 73.5117 51.3789C72.8802 51.3789 72.3236 51.4993 71.8418 51.7402C71.3665 51.9811 70.9661 52.3229 70.6406 52.7656C70.3216 53.2083 70.0807 53.7389 69.918 54.3574C69.7552 54.9759 69.6738 55.6628 69.6738 56.418V57.8535C69.6738 58.5501 69.7454 59.2044 69.8887 59.8164C70.0384 60.4284 70.263 60.9655 70.5625 61.4277C70.862 61.89 71.2428 62.2546 71.7051 62.5215C72.1673 62.7819 72.7142 62.9121 73.3457 62.9121C74.1465 62.9121 74.7845 62.7852 75.2598 62.5312C75.735 62.2773 76.0931 61.9128 76.334 61.4375C76.5814 60.9622 76.7572 60.3926 76.8613 59.7285Z" fill="white"/>
</svg>
