<svg width="121" height="120" viewBox="0 0 121 120" fill="none" xmlns="http://www.w3.org/2000/svg">
<rect width="120" height="120" transform="translate(0.167969)" fill="white"/>
<rect x="8.91797" y="16.25" width="70.7752" height="44.2345" fill="black"/>
<rect x="30.6328" y="60.4844" width="28.1492" height="4.02132" fill="black"/>
<rect x="25.8086" y="64.5" width="36.9961" height="2.41279" fill="black"/>
<path d="M42.3258 38.1117V40.9841H26.9075L26.6133 38.7083L35.2199 28.3125H39.1333L34.8815 33.538L31.3506 38.1117H42.3258ZM40.1632 28.3125V44.3978H35.2052V28.3125H40.1632Z" fill="white"/>
<path d="M50.0203 28.3125V44.3978H44.8563V28.3125H50.0203ZM62.8051 28.3125L54.5075 36.4656L49.6525 40.4538L48.7109 36.8965L51.8152 33.3612L56.4348 28.3125H62.8051ZM56.6996 44.3978L51.1678 37.1506L55.1843 34.93L62.8051 44.3978H56.6996Z" fill="white"/>
<path d="M41.8945 52.4141H112.67V96.6486H41.8945V52.4141Z" fill="black"/>
<rect x="63.6094" y="96.6562" width="28.1492" height="4.02132" fill="black"/>
<rect x="58.7852" y="100.664" width="36.9961" height="2.41279" fill="black"/>
<rect x="41.8906" y="51.625" width="70.7752" height="0.804264" fill="white"/>
<rect x="41.0859" y="51.625" width="0.804264" height="45.0388" fill="white"/>
<path d="M75.4293 78.3895V81.25H63.034V78.8296L68.7436 73.4166C69.2479 72.8958 69.6545 72.43 69.9636 72.0193C70.2727 71.6012 70.4964 71.2235 70.6346 70.8861C70.781 70.5487 70.8542 70.2443 70.8542 69.9729C70.8542 69.5108 70.777 69.1258 70.6224 68.8177C70.476 68.5023 70.2564 68.2639 69.9636 68.1026C69.6789 67.9412 69.3251 67.8605 68.9022 67.8605C68.4793 67.8605 68.1092 67.9705 67.792 68.1906C67.4748 68.4106 67.2267 68.7114 67.0478 69.0928C66.877 69.4742 66.7916 69.9032 66.7916 70.38H62.668C62.668 69.3971 62.9323 68.4986 63.461 67.6845C63.9978 66.8703 64.742 66.2212 65.6936 65.7371C66.6452 65.2457 67.7473 65 68.9998 65C70.3093 65 71.4073 65.1834 72.2938 65.5501C73.1804 65.9168 73.8473 66.4486 74.2946 67.1454C74.7501 67.8349 74.9779 68.6673 74.9779 69.6429C74.9779 70.2003 74.8802 70.7357 74.685 71.2492C74.4898 71.7626 74.2092 72.2723 73.8432 72.7784C73.4772 73.2772 73.0299 73.7906 72.5012 74.3187C71.9807 74.8468 71.387 75.4079 70.72 76.002L68.4264 78.3895H75.4293Z" fill="white"/>
<path d="M82.0661 65.231V81.25H77.7839V65.231H82.0661ZM92.668 65.231L85.7871 73.3505L81.7611 77.3223L80.9803 73.7796L83.5545 70.259L87.3853 65.231H92.668ZM87.6049 81.25L83.0177 74.0327L86.3483 71.8213L92.668 81.25H87.6049Z" fill="white"/>
</svg>
