<svg width="166" height="166" viewBox="0 0 166 166" fill="none" xmlns="http://www.w3.org/2000/svg">
<rect x="2.76667" y="2.76667" width="160.467" height="160.467" rx="17.9833" stroke="white" stroke-width="5.53333"/>
<path d="M85.6072 75.4248C85.0557 75.0847 84.4551 74.8312 83.8266 74.6733C78.0495 62.8076 106.025 54.6993 101.039 45.8791C91.0281 28.1201 70.6502 34.8836 65.4271 40.144C52.1715 54.8575 69.384 72.577 75.438 78.0352C75.1072 78.5914 74.8543 79.1903 74.6862 79.8151C62.8155 85.5897 54.7039 57.6262 45.88 62.6098C28.1136 72.6166 34.8799 92.986 40.1425 98.207C54.8622 111.457 72.589 94.2517 78.0495 88.2002C78.6059 88.5309 79.2051 88.7837 79.8302 88.9517C85.6072 100.817 57.632 108.926 62.6177 117.746C72.6286 135.505 93.0066 128.741 98.2297 123.481C111.446 108.767 94.2728 91.048 88.1792 85.5898C88.5127 85.035 88.7659 84.4357 88.931 83.8099C100.802 78.0352 108.913 105.999 117.737 101.015C135.504 91.0084 128.737 70.6389 123.475 65.418C108.636 52.168 90.9094 69.3337 85.6072 75.4248Z" fill="white"/>
</svg>
