<svg width="165" height="165" viewBox="0 0 165 165" fill="none" xmlns="http://www.w3.org/2000/svg">
<rect x="2.75" y="2.75" width="159.5" height="159.5" rx="17.875" stroke="white" stroke-width="5.5"/>
<path fill-rule="evenodd" clip-rule="evenodd" d="M60.9831 40.6024L70.1407 39.7056L83.6463 50.4105L84.8638 59.531L56.9317 94.7707L47.7742 95.6676L34.2686 84.9627L33.051 75.8422L60.9831 40.6024Z" stroke="white" stroke-width="4.125" stroke-miterlimit="10"/>
<path fill-rule="evenodd" clip-rule="evenodd" d="M84.8659 59.5321L94.0235 58.6353L107.529 69.3402L108.747 78.4607L80.8146 113.7L71.657 114.597L58.1514 103.892L56.9339 94.7718L84.8659 59.5321Z" stroke="white" stroke-width="4.125" stroke-miterlimit="10"/>
<path fill-rule="evenodd" clip-rule="evenodd" d="M108.745 78.4618L117.902 77.565L131.408 88.2699L132.626 97.3904L104.693 132.63L95.5359 133.527L82.0303 122.822L80.8128 113.702L108.745 78.4618Z" stroke="white" stroke-width="4.125" stroke-miterlimit="10"/>
<path d="M74.9757 55.0346L67.2539 48.9141L61.1334 56.6358L68.8552 62.7563L74.9757 55.0346Z" stroke="white" stroke-width="4.125" stroke-miterlimit="10"/>
<path d="M98.8546 73.9643L91.1328 67.8438L85.0123 75.5655L92.7341 81.686L98.8546 73.9643Z" stroke="white" stroke-width="4.125" stroke-miterlimit="10"/>
<path d="M122.733 92.9018L115.012 86.7812L108.891 94.503L116.613 100.623L122.733 92.9018Z" stroke="white" stroke-width="4.125" stroke-miterlimit="10"/>
<path d="M56.0304 78.7611L48.3086 72.6406L42.1881 80.3624L49.9099 86.4829L56.0304 78.7611Z" stroke="white" stroke-width="4.125" stroke-miterlimit="10"/>
<path d="M79.9093 97.6908L72.1875 91.5703L66.067 99.292L73.7888 105.413L79.9093 97.6908Z" stroke="white" stroke-width="4.125" stroke-miterlimit="10"/>
<path d="M103.792 116.621L96.0703 110.5L89.9498 118.222L97.6716 124.342L103.792 116.621Z" stroke="white" stroke-width="4.125" stroke-miterlimit="10"/>
</svg>
