<svg width="121" height="120" viewBox="0 0 121 120" fill="none" xmlns="http://www.w3.org/2000/svg">
<rect width="120" height="120" transform="translate(0.832031)" fill="white"/>
<rect x="8.33203" y="34.8359" width="103.79" height="50.3226" fill="black" stroke="black" stroke-width="3.75"/>
<line x1="74.1562" y1="27.5" x2="74.1562" y2="34.8387" stroke="black" stroke-width="3.75"/>
<line x1="86.7422" y1="27.5" x2="86.7422" y2="34.8387" stroke="black" stroke-width="3.75"/>
<line x1="99.3203" y1="27.5" x2="99.3203" y2="34.8387" stroke="black" stroke-width="3.75"/>
<line x1="61.5781" y1="27.5" x2="61.5781" y2="34.8387" stroke="black" stroke-width="3.75"/>
<line x1="48.9961" y1="27.5" x2="48.9961" y2="34.8387" stroke="black" stroke-width="3.75"/>
<line x1="36.418" y1="27.5" x2="36.418" y2="34.8387" stroke="black" stroke-width="3.75"/>
<line x1="23.8359" y1="27.5" x2="23.8359" y2="34.8387" stroke="black" stroke-width="3.75"/>
<line x1="74.1562" y1="85.1563" x2="74.1562" y2="92.495" stroke="black" stroke-width="3.75"/>
<line x1="86.7422" y1="85.1563" x2="86.7422" y2="92.495" stroke="black" stroke-width="3.75"/>
<line x1="99.3203" y1="85.1563" x2="99.3203" y2="92.495" stroke="black" stroke-width="3.75"/>
<line x1="61.5781" y1="85.1563" x2="61.5781" y2="92.495" stroke="black" stroke-width="3.75"/>
<line x1="48.9961" y1="85.1563" x2="48.9961" y2="92.495" stroke="black" stroke-width="3.75"/>
<line x1="36.418" y1="85.1563" x2="36.418" y2="92.495" stroke="black" stroke-width="3.75"/>
<line x1="23.8359" y1="85.1563" x2="23.8359" y2="92.495" stroke="black" stroke-width="3.75"/>
<path d="M40.0664 50.0312H44.7734C45.8411 50.0312 46.7428 50.194 47.4785 50.5195C48.2207 50.8451 48.7839 51.3268 49.168 51.9648C49.5586 52.5964 49.7539 53.3743 49.7539 54.2988C49.7539 54.9499 49.6204 55.5456 49.3535 56.0859C49.0931 56.6198 48.7155 57.0755 48.2207 57.4531C47.7324 57.8242 47.1465 58.1009 46.4629 58.2832L45.9355 58.4883H41.5117L41.4922 56.9551H44.832C45.5091 56.9551 46.0723 56.8379 46.5215 56.6035C46.9707 56.3626 47.3092 56.0404 47.5371 55.6367C47.765 55.2331 47.8789 54.7871 47.8789 54.2988C47.8789 53.752 47.7715 53.2734 47.5566 52.8633C47.3418 52.4531 47.0033 52.1374 46.541 51.916C46.0853 51.6882 45.4961 51.5742 44.7734 51.5742H41.9512V64.25H40.0664V50.0312ZM48.377 64.25L44.9199 57.8047L46.8828 57.7949L50.3887 64.1328V64.25H48.377ZM57.6543 51.291L52.9473 64.25H51.0234L56.4434 50.0312H57.6836L57.6543 51.291ZM61.5996 64.25L56.8828 51.291L56.8535 50.0312H58.0938L63.5332 64.25H61.5996ZM61.3555 58.9863V60.5293H53.3672V58.9863H61.3555ZM66.0332 50.0312H67.8594L72.5176 61.623L77.166 50.0312H79.002L73.2207 64.25H71.7949L66.0332 50.0312ZM65.4375 50.0312H67.0488L67.3125 58.7031V64.25H65.4375V50.0312ZM77.9766 50.0312H79.5879V64.25H77.7129V58.7031L77.9766 50.0312Z" fill="white"/>
</svg>
