<svg width="165" height="165" viewBox="0 0 165 165" fill="none" xmlns="http://www.w3.org/2000/svg">
<path d="M142.394 67.375H95.1784L90.75 72.9885V139.415H142.394V67.375Z" stroke="white" stroke-width="2.75"/>
<rect x="93.6172" y="74.1719" width="45.906" height="51.3947" stroke="white" stroke-width="1.375"/>
<path d="M99.8654 131.682C100.074 131.682 100.276 131.731 100.471 131.83C100.667 131.926 100.816 132.053 100.918 132.208C101.017 132.356 101.082 132.529 101.115 132.726C101.145 132.861 101.159 133.077 101.159 133.373H99.0075C99.0167 133.671 99.087 133.91 99.2186 134.091C99.3501 134.27 99.5539 134.36 99.8298 134.36C100.087 134.36 100.293 134.275 100.447 134.105C100.534 134.006 100.596 133.892 100.633 133.762H101.118C101.105 133.87 101.062 133.99 100.989 134.124C100.918 134.255 100.838 134.363 100.748 134.447C100.598 134.593 100.413 134.692 100.192 134.743C100.073 134.773 99.9385 134.787 99.7887 134.787C99.4232 134.787 99.1135 134.655 98.8595 134.39C98.6055 134.123 98.4785 133.75 98.4785 133.271C98.4785 132.8 98.6064 132.417 98.8623 132.123C99.1181 131.829 99.4525 131.682 99.8654 131.682ZM100.652 132.981C100.632 132.767 100.585 132.596 100.512 132.468C100.377 132.231 100.151 132.112 99.8353 132.112C99.6087 132.112 99.4187 132.194 99.2652 132.359C99.1117 132.521 99.0304 132.729 99.0212 132.981H100.652Z" fill="white"/>
<path d="M101.82 130.657H102.601L103.758 134.061L104.906 130.657H105.679V134.683H105.161V132.307C105.161 132.224 105.163 132.088 105.166 131.898C105.17 131.708 105.172 131.504 105.172 131.287L104.023 134.683H103.484L102.327 131.287V131.41C102.327 131.509 102.329 131.66 102.332 131.863C102.338 132.064 102.341 132.212 102.341 132.307V134.683H101.82V130.657Z" fill="white"/>
<path d="M106.496 130.657H107.277L108.434 134.061L109.582 130.657H110.355V134.683H109.837V132.307C109.837 132.224 109.839 132.088 109.843 131.898C109.846 131.708 109.848 131.504 109.848 131.287L108.7 134.683H108.16L107.003 131.287V131.41C107.003 131.509 107.005 131.66 107.008 131.863C107.014 132.064 107.017 132.212 107.017 132.307V134.683H106.496V130.657Z" fill="white"/>
<path d="M112.882 130.547C113.392 130.547 113.788 130.681 114.069 130.95C114.351 131.218 114.507 131.524 114.538 131.865H114.006C113.946 131.606 113.825 131.4 113.644 131.249C113.465 131.097 113.213 131.021 112.888 131.021C112.491 131.021 112.171 131.161 111.926 131.44C111.683 131.718 111.561 132.145 111.561 132.72C111.561 133.192 111.671 133.575 111.89 133.869C112.111 134.161 112.44 134.307 112.877 134.307C113.279 134.307 113.585 134.153 113.795 133.844C113.907 133.682 113.99 133.468 114.044 133.203H114.576C114.529 133.627 114.372 133.982 114.105 134.269C113.785 134.614 113.354 134.787 112.811 134.787C112.343 134.787 111.95 134.646 111.632 134.362C111.214 133.988 111.005 133.409 111.005 132.627C111.005 132.033 111.162 131.546 111.476 131.166C111.816 130.753 112.285 130.547 112.882 130.547Z" fill="white"/>
<path d="M116.791 130.657H117.572L118.729 134.061L119.877 130.657H120.65V134.683H120.132V132.307C120.132 132.224 120.134 132.088 120.138 131.898C120.141 131.708 120.143 131.504 120.143 131.287L118.995 134.683H118.455L117.298 131.287V131.41C117.298 131.509 117.3 131.66 117.303 131.863C117.309 132.064 117.312 132.212 117.312 132.307V134.683H116.791V130.657Z" fill="white"/>
<path d="M122.58 134.365C122.907 134.365 123.131 134.242 123.251 133.995C123.374 133.746 123.435 133.471 123.435 133.167C123.435 132.893 123.391 132.67 123.303 132.498C123.165 132.228 122.925 132.093 122.585 132.093C122.284 132.093 122.065 132.208 121.927 132.438C121.79 132.668 121.722 132.946 121.722 133.271C121.722 133.584 121.79 133.844 121.927 134.053C122.065 134.261 122.282 134.365 122.58 134.365ZM122.599 131.662C122.977 131.662 123.297 131.789 123.558 132.041C123.82 132.293 123.95 132.664 123.95 133.154C123.95 133.627 123.835 134.018 123.605 134.327C123.375 134.635 123.017 134.79 122.533 134.79C122.129 134.79 121.809 134.654 121.571 134.381C121.334 134.107 121.215 133.74 121.215 133.28C121.215 132.786 121.34 132.393 121.59 132.101C121.841 131.809 122.177 131.662 122.599 131.662Z" fill="white"/>
<path d="M124.852 133.249C124.852 133.564 124.919 133.827 125.052 134.039C125.186 134.251 125.399 134.357 125.694 134.357C125.922 134.357 126.109 134.259 126.255 134.064C126.403 133.866 126.478 133.584 126.478 133.217C126.478 132.846 126.402 132.572 126.25 132.394C126.098 132.215 125.911 132.126 125.688 132.126C125.44 132.126 125.238 132.221 125.082 132.411C124.929 132.601 124.852 132.88 124.852 133.249ZM125.595 131.695C125.82 131.695 126.008 131.743 126.16 131.838C126.247 131.893 126.347 131.989 126.458 132.126V130.643H126.933V134.683H126.488V134.275C126.373 134.455 126.237 134.586 126.08 134.667C125.923 134.747 125.743 134.787 125.54 134.787C125.213 134.787 124.93 134.65 124.69 134.376C124.451 134.1 124.331 133.734 124.331 133.277C124.331 132.849 124.44 132.479 124.658 132.167C124.877 131.852 125.189 131.695 125.595 131.695Z" fill="white"/>
<path d="M128.158 131.747V133.696C128.158 133.846 128.181 133.969 128.229 134.064C128.317 134.239 128.48 134.327 128.72 134.327C129.063 134.327 129.297 134.173 129.421 133.866C129.489 133.702 129.523 133.476 129.523 133.189V131.747H130.016V134.683H129.55L129.556 134.25C129.492 134.361 129.412 134.455 129.317 134.532C129.129 134.686 128.901 134.762 128.632 134.762C128.213 134.762 127.928 134.623 127.777 134.343C127.694 134.193 127.653 133.993 127.653 133.743V131.747H128.158Z" fill="white"/>
<path d="M130.803 130.657H131.296V134.683H130.803V130.657Z" fill="white"/>
<path d="M133.261 131.682C133.47 131.682 133.672 131.731 133.867 131.83C134.063 131.926 134.212 132.053 134.314 132.208C134.413 132.356 134.478 132.529 134.511 132.726C134.541 132.861 134.555 133.077 134.555 133.373H132.403C132.413 133.671 132.483 133.91 132.615 134.091C132.746 134.27 132.95 134.36 133.226 134.36C133.483 134.36 133.689 134.275 133.842 134.105C133.93 134.006 133.992 133.892 134.029 133.762H134.514C134.501 133.87 134.458 133.99 134.385 134.124C134.314 134.255 134.234 134.363 134.144 134.447C133.994 134.593 133.809 134.692 133.588 134.743C133.469 134.773 133.334 134.787 133.185 134.787C132.819 134.787 132.509 134.655 132.255 134.39C132.001 134.123 131.874 133.75 131.874 133.271C131.874 132.8 132.002 132.417 132.258 132.123C132.514 131.829 132.848 131.682 133.261 131.682ZM134.048 132.981C134.028 132.767 133.981 132.596 133.908 132.468C133.773 132.231 133.547 132.112 133.231 132.112C133.005 132.112 132.815 132.194 132.661 132.359C132.508 132.521 132.426 132.729 132.417 132.981H134.048Z" fill="white"/>
<path d="M38.466 100.239H63.5454M38.466 28.875H68.75C71.7876 28.875 74.25 31.3374 74.25 34.375V99.3268C74.25 102.364 71.7876 104.827 68.75 104.827H26.125C23.0874 104.827 20.625 102.364 20.625 99.3268V83.7234L26.1302 81.0727V71.0817H20.625V59.9693L30.4121 54.1583V36.9289L38.466 28.875Z" stroke="white" stroke-width="2.75" stroke-linecap="round"/>
<path d="M37.5488 37.25V42.4494" stroke="white" stroke-width="2.75" stroke-linecap="round"/>
<path d="M42.6465 35.0078V42.2654" stroke="white" stroke-width="2.75" stroke-linecap="round"/>
<path d="M47.7441 35.0078V42.2654" stroke="white" stroke-width="2.75" stroke-linecap="round"/>
<path d="M52.8398 35.0078V42.2654" stroke="white" stroke-width="2.75" stroke-linecap="round"/>
<path d="M57.9375 35.0078V42.2654" stroke="white" stroke-width="2.75" stroke-linecap="round"/>
<path d="M63.0352 35.0078V42.2654" stroke="white" stroke-width="2.75" stroke-linecap="round"/>
<path d="M68.1328 35.0078V42.2654" stroke="white" stroke-width="2.75" stroke-linecap="round"/>
<rect x="34.8965" y="91.0469" width="33.2353" height="5.09743" stroke="white" stroke-width="2.75"/>
<path d="M45.9363 73.0898V77H45.426V73.0898H45.9363ZM47.1931 73.0898V73.5142H44.1719V73.0898H47.1931Z" fill="white"/>
<path d="M48.2915 73.0898V77H47.7732V73.0898H48.2915ZM49.9297 74.8489V75.2732H48.1787V74.8489H49.9297ZM50.1956 73.0898V73.5142H48.1787V73.0898H50.1956Z" fill="white"/>
<path d="M54.5381 75.7566H55.0537C55.0269 76.0037 54.9561 76.2248 54.8416 76.4199C54.727 76.6151 54.5649 76.7699 54.3555 76.8845C54.146 76.9973 53.8846 77.0537 53.5713 77.0537C53.3421 77.0537 53.1335 77.0107 52.9456 76.9248C52.7594 76.8389 52.5991 76.7171 52.4648 76.5596C52.3306 76.4002 52.2267 76.2096 52.1533 75.9875C52.0817 75.7638 52.0459 75.5149 52.0459 75.241V74.8516C52.0459 74.5776 52.0817 74.3297 52.1533 74.1077C52.2267 73.8839 52.3315 73.6923 52.4675 73.533C52.6054 73.3736 52.771 73.251 52.9644 73.165C53.1577 73.0791 53.3752 73.0361 53.6169 73.0361C53.9124 73.0361 54.1621 73.0916 54.3662 73.2026C54.5703 73.3136 54.7288 73.4676 54.8416 73.6646C54.9561 73.8597 55.0269 74.0862 55.0537 74.344H54.5381C54.513 74.1614 54.4665 74.0047 54.3984 73.874C54.3304 73.7415 54.2337 73.6395 54.1084 73.5679C53.9831 73.4963 53.8193 73.4604 53.6169 73.4604C53.4433 73.4604 53.2902 73.4936 53.1577 73.5598C53.027 73.6261 52.9169 73.7201 52.8274 73.8418C52.7397 73.9635 52.6734 74.1095 52.6287 74.2795C52.5839 74.4496 52.5615 74.6385 52.5615 74.8462V75.241C52.5615 75.4325 52.5812 75.6125 52.6206 75.7808C52.6618 75.9491 52.7236 76.0968 52.8059 76.2239C52.8883 76.351 52.993 76.4513 53.1201 76.5247C53.2472 76.5963 53.3976 76.6321 53.5713 76.6321C53.7915 76.6321 53.967 76.5972 54.0977 76.5273C54.2284 76.4575 54.3268 76.3573 54.3931 76.2266C54.4611 76.0959 54.5094 75.9392 54.5381 75.7566Z" fill="white"/>
<path d="M57.3982 76.5032V75.0073C57.3982 74.8927 57.3749 74.7934 57.3284 74.7092C57.2836 74.6233 57.2156 74.557 57.1243 74.5105C57.033 74.4639 56.9202 74.4407 56.7859 74.4407C56.6606 74.4407 56.5505 74.4622 56.4556 74.5051C56.3625 74.5481 56.2891 74.6045 56.2354 74.6743C56.1834 74.7441 56.1575 74.8193 56.1575 74.8999H55.6606C55.6606 74.7961 55.6875 74.6931 55.7412 74.5911C55.7949 74.489 55.8719 74.3968 55.9722 74.3145C56.0742 74.2303 56.196 74.1641 56.3374 74.1157C56.4806 74.0656 56.64 74.0405 56.8154 74.0405C57.0267 74.0405 57.2129 74.0763 57.374 74.1479C57.5369 74.2196 57.6641 74.3279 57.7554 74.4729C57.8485 74.6161 57.895 74.7961 57.895 75.0127V76.3662C57.895 76.4629 57.9031 76.5658 57.9192 76.675C57.9371 76.7843 57.9631 76.8783 57.9971 76.957V77H57.4788C57.4537 76.9427 57.434 76.8666 57.4197 76.7717C57.4054 76.675 57.3982 76.5855 57.3982 76.5032ZM57.4841 75.2383L57.4895 75.5874H56.9873C56.8459 75.5874 56.7196 75.599 56.6086 75.6223C56.4976 75.6438 56.4045 75.6769 56.3293 75.7217C56.2541 75.7664 56.1969 75.8228 56.1575 75.8909C56.1181 75.9571 56.0984 76.035 56.0984 76.1245C56.0984 76.2158 56.119 76.2991 56.1602 76.3743C56.2013 76.4495 56.2631 76.5094 56.3455 76.5542C56.4296 76.5972 56.5326 76.6187 56.6543 76.6187C56.8065 76.6187 56.9408 76.5864 57.0571 76.522C57.1735 76.4575 57.2657 76.3787 57.3337 76.2856C57.4036 76.1925 57.4412 76.1021 57.4465 76.0144L57.6587 76.2534C57.6462 76.3286 57.6121 76.4119 57.5566 76.5032C57.5011 76.5945 57.4268 76.6822 57.3337 76.7664C57.2424 76.8487 57.1332 76.9176 57.0061 76.9731C56.8808 77.0269 56.7393 77.0537 56.5818 77.0537C56.3848 77.0537 56.2121 77.0152 56.0635 76.9382C55.9167 76.8612 55.8021 76.7583 55.7197 76.6294C55.6392 76.4987 55.5989 76.3528 55.5989 76.1917C55.5989 76.0359 55.6293 75.8989 55.6902 75.7808C55.7511 75.6608 55.8388 75.5614 55.9534 75.4827C56.068 75.4021 56.2058 75.3412 56.3669 75.3C56.5281 75.2589 56.708 75.2383 56.9067 75.2383H57.4841Z" fill="white"/>
<path d="M59.1733 74.5508V77H58.6765V74.0942H59.1599L59.1733 74.5508ZM60.0811 74.0781L60.0784 74.54C60.0372 74.5311 59.9978 74.5257 59.9602 74.5239C59.9244 74.5203 59.8832 74.5186 59.8367 74.5186C59.7221 74.5186 59.6209 74.5365 59.5332 74.5723C59.4455 74.6081 59.3712 74.6582 59.3103 74.7227C59.2494 74.7871 59.2011 74.8641 59.1653 74.9536C59.1313 75.0413 59.1089 75.138 59.0981 75.2437L58.9585 75.3242C58.9585 75.1488 58.9755 74.984 59.0095 74.8301C59.0453 74.6761 59.0999 74.54 59.1733 74.4219C59.2467 74.3019 59.3398 74.2088 59.4526 74.1426C59.5672 74.0745 59.7033 74.0405 59.8608 74.0405C59.8966 74.0405 59.9378 74.045 59.9844 74.054C60.0309 74.0611 60.0632 74.0692 60.0811 74.0781Z" fill="white"/>
<path d="M62.3181 76.436V72.875H62.8176V77H62.3611L62.3181 76.436ZM60.363 75.5793V75.5229C60.363 75.3009 60.3899 75.0995 60.4436 74.9187C60.4991 74.7361 60.577 74.5794 60.6772 74.4487C60.7793 74.318 60.9001 74.2178 61.0398 74.1479C61.1812 74.0763 61.3388 74.0405 61.5125 74.0405C61.6951 74.0405 61.8544 74.0728 61.9905 74.1372C62.1283 74.1999 62.2447 74.2921 62.3396 74.4138C62.4363 74.5338 62.5124 74.6788 62.5679 74.8489C62.6234 75.019 62.6619 75.2114 62.6833 75.4263V75.6733C62.6637 75.8864 62.6252 76.078 62.5679 76.248C62.5124 76.4181 62.4363 76.5632 62.3396 76.6831C62.2447 76.8031 62.1283 76.8953 61.9905 76.9597C61.8526 77.0224 61.6915 77.0537 61.5071 77.0537C61.337 77.0537 61.1812 77.017 61.0398 76.9436C60.9001 76.8702 60.7793 76.7673 60.6772 76.6348C60.577 76.5023 60.4991 76.3465 60.4436 76.1675C60.3899 75.9867 60.363 75.7906 60.363 75.5793ZM60.8625 75.5229V75.5793C60.8625 75.7244 60.8769 75.8604 60.9055 75.9875C60.936 76.1147 60.9825 76.2266 61.0452 76.3232C61.1078 76.4199 61.1875 76.496 61.2842 76.5515C61.3809 76.6052 61.4963 76.6321 61.6306 76.6321C61.7953 76.6321 61.9305 76.5972 62.0361 76.5273C62.1436 76.4575 62.2295 76.3653 62.2939 76.2507C62.3584 76.1361 62.4085 76.0117 62.4443 75.8774V75.2302C62.4229 75.1318 62.3915 75.0369 62.3503 74.9456C62.311 74.8525 62.259 74.7701 62.1946 74.6985C62.1319 74.6251 62.054 74.5669 61.9609 74.5239C61.8696 74.481 61.7613 74.4595 61.636 74.4595C61.4999 74.4595 61.3826 74.4881 61.2842 74.5454C61.1875 74.6009 61.1078 74.6779 61.0452 74.7764C60.9825 74.873 60.936 74.9858 60.9055 75.1147C60.8769 75.2419 60.8625 75.3779 60.8625 75.5229Z" fill="white"/>
<rect x="2.75" y="2.75" width="159.5" height="159.5" rx="17.875" stroke="white" stroke-width="5.5"/>
</svg>
