<svg width="165" height="165" viewBox="0 0 165 165" fill="none" xmlns="http://www.w3.org/2000/svg">
<rect x="2.75" y="2.75" width="159.5" height="159.5" rx="17.875" stroke="white" stroke-width="5.5"/>
<g clip-path="url(#clip0_11030_31358)">
<path d="M78.5884 33.7174C78.8177 33.2588 79.2042 33.0295 79.7478 33.0295C80.2915 33.0295 80.678 33.2588 80.9073 33.7174L89.1556 47.4623C89.2983 47.6916 89.3697 47.9209 89.3697 48.1502C89.3697 48.4084 89.3128 48.6377 89.1989 48.8382C88.9119 49.2968 88.511 49.5262 87.9962 49.5262L82.4973 49.5262L82.4973 86.3803C84.1587 85.3203 86.5208 84.132 89.5838 82.8154C90.6438 82.3568 91.4312 82.0056 91.946 81.7618C92.4607 81.5181 93.1623 81.1741 94.0507 80.7299C94.9392 80.2857 95.6119 79.8992 96.0689 79.5704C96.526 79.2417 97.0127 78.8552 97.5291 78.411C98.0454 77.9668 98.4175 77.5154 98.6452 77.0567C98.8729 76.5981 98.9876 76.1258 98.9892 75.6399L98.9892 71.5169L94.8662 71.5169C94.4653 71.5169 94.1357 71.3878 93.8776 71.1297C93.6194 70.8715 93.4903 70.5419 93.4903 70.141L93.4903 56.3962C93.4903 55.9953 93.6194 55.6657 93.8776 55.4075C94.1357 55.1493 94.4653 55.0202 94.8662 55.0202L108.611 55.0202C109.012 55.0202 109.341 55.1493 109.6 55.4075C109.858 55.6657 109.987 55.9953 109.987 56.3962L109.987 70.141C109.987 70.5419 109.858 70.8715 109.6 71.1297C109.342 71.3878 109.012 71.5169 108.611 71.5169L104.488 71.5169L104.488 75.6399C104.488 76.5556 104.345 77.4288 104.057 78.2595C103.77 79.0901 103.434 79.8206 103.047 80.4508C102.661 81.0811 102.081 81.7257 101.308 82.3848C100.535 83.0439 99.8768 83.5739 99.3332 83.9749C98.7895 84.3758 97.9733 84.8553 96.8844 85.4133C95.7955 85.9714 94.972 86.3795 94.414 86.6377C93.8559 86.8959 92.9899 87.2968 91.8161 87.8404C90.299 88.4995 89.1324 89.0295 88.3161 89.4305C87.4999 89.8314 86.5689 90.3469 85.5234 90.9772C84.4778 91.6074 83.712 92.2448 83.2261 92.8895C82.7402 93.5342 82.4965 94.1997 82.4949 94.886L82.4949 110.351C84.9004 110.981 86.876 112.284 88.422 114.26C89.9679 116.235 90.7408 118.484 90.7408 121.005C90.7408 124.04 89.6672 126.632 87.5199 128.779C85.3726 130.926 82.7811 132 79.7454 132C76.7097 132 74.1182 130.926 71.971 128.779C69.8237 126.632 68.75 124.04 68.75 121.005C68.75 118.485 69.523 116.237 71.0689 114.26C72.6148 112.282 74.5905 110.979 76.996 110.351L76.996 105.884C76.996 105.196 76.7522 104.53 76.2647 103.887C75.7772 103.244 75.0115 102.607 73.9675 101.975C72.9235 101.343 71.9926 100.828 71.1748 100.428C70.3569 100.029 69.1902 99.4989 67.6748 98.8382C66.5009 98.2946 65.635 97.8937 65.0769 97.6355C64.5188 97.3773 63.6954 96.9692 62.6065 96.4111C61.5176 95.853 60.7014 95.3736 60.1577 94.9726C59.6141 94.5717 58.9558 94.0417 58.1828 93.3826C57.4099 92.7235 56.8302 92.0789 56.4437 91.4486C56.0572 90.8184 55.7204 90.0879 55.4334 89.2573C55.1463 88.4266 55.0028 87.5534 55.0028 86.6377L55.0028 82.0409C53.3703 81.4395 52.0457 80.4372 51.029 79.034C50.0123 77.6308 49.5039 76.0416 49.5039 74.2664C49.5039 71.9748 50.3057 70.0272 51.9094 68.4235C53.513 66.8199 55.4606 66.018 57.7522 66.018C60.0439 66.018 61.9915 66.8199 63.5951 68.4235C65.1988 70.0272 66.0006 71.9748 66.0006 74.2664C66.0006 76.0416 65.4922 77.6308 64.4755 79.034C63.4588 80.4372 62.1342 81.4395 60.5017 82.0409L60.5017 86.6377C60.5017 87.1252 60.6164 87.5975 60.8457 88.0545C61.075 88.5116 61.447 88.963 61.9618 89.4088C62.4766 89.8546 62.9633 90.2411 63.4219 90.5682C63.8806 90.8954 64.5533 91.2819 65.4401 91.7277C66.3269 92.1735 67.0285 92.5175 67.5449 92.7596C68.0613 93.0018 68.8487 93.353 69.9071 93.8132C72.9716 95.1298 75.3338 96.3181 76.9936 97.3781L76.9936 49.5262L71.4947 49.5262C70.9799 49.5262 70.579 49.2968 70.2919 48.8382C70.0049 48.3795 70.0193 47.9217 70.3352 47.4647L78.5884 33.7174Z" fill="white"/>
</g>
<defs>
<clipPath id="clip0_11030_31358">
<rect width="99" height="99" fill="white" transform="translate(33 132) rotate(-90)"/>
</clipPath>
</defs>
</svg>
