<svg width="82" height="82" viewBox="0 0 82 82" fill="none" xmlns="http://www.w3.org/2000/svg">
<rect x="1.36048" y="1.36048" width="78.908" height="78.908" rx="8.84314" stroke="white" stroke-width="2.72097"/>
<path d="M12.806 32.5711C12.5661 32.5714 12.3286 32.5222 12.1085 32.4266C11.8884 32.3311 11.6903 32.1912 11.5266 32.0158C10.8663 31.3096 10.9035 30.2016 11.6096 29.5412C27.7129 14.4869 53.9161 14.4856 70.02 29.5412C70.7268 30.2016 70.7634 31.3096 70.1031 32.0158C69.4428 32.7226 68.3354 32.7591 67.6286 32.0988C52.8413 18.2754 28.7844 18.2754 13.9998 32.0988C13.6636 32.415 13.2345 32.5711 12.806 32.5711Z" fill="white"/>
<path d="M60.0726 40.7568C59.6287 40.7574 59.2014 40.5888 58.8775 40.2852C48.9184 30.975 32.7142 30.975 22.755 40.2852C22.0489 40.9448 20.9408 40.9083 20.2805 40.2021C19.6202 39.496 19.6574 38.3879 20.3635 37.7276C31.6407 27.1845 49.9906 27.1845 61.2677 37.7276C61.9745 38.3879 62.011 39.496 61.3507 40.2021C61.0073 40.5708 60.5403 40.7568 60.0726 40.7568Z" fill="white"/>
<path d="M51.3164 48.9427C50.8725 48.9433 50.4451 48.7746 50.1213 48.471C44.9883 43.6728 36.638 43.6728 31.505 48.471C30.7982 49.1307 29.6908 49.0942 29.0305 48.388C28.3702 47.6819 28.4074 46.5738 29.1135 45.9135C35.5645 39.883 46.0604 39.883 52.5121 45.9135C53.2189 46.5738 53.2555 47.6819 52.5951 48.388C52.251 48.756 51.7847 48.9427 51.3164 48.9427ZM40.8131 63.3799C39.1119 63.3799 37.4113 62.7747 36.1166 61.5644C34.8232 60.3553 34.111 58.7391 34.111 57.0119C34.111 55.2848 34.8238 53.6685 36.1166 52.4595C38.706 50.0381 42.9196 50.0381 45.5097 52.4595C46.8031 53.6685 47.5153 55.2848 47.5153 57.0119C47.5153 58.7391 46.8031 60.3553 45.5097 61.5644V61.565C44.215 62.7747 42.5138 63.3799 40.8131 63.3799ZM44.3147 60.2856H44.3233H44.3147ZM40.8131 54.1262C39.9781 54.1262 39.1431 54.4232 38.5074 55.0177C37.9301 55.5578 37.6119 56.2659 37.6119 57.0126C37.6119 57.7593 37.9301 58.4674 38.5074 59.0075C39.7782 60.1952 41.8468 60.1959 43.1189 59.0075C43.6962 58.4674 44.0137 57.7593 44.0137 57.0126C44.0137 56.2659 43.6955 55.5578 43.1189 55.0177C42.4832 54.4232 41.6482 54.1262 40.8131 54.1262Z" fill="white"/>
</svg>
