<svg width="142" height="142" viewBox="0 0 142 142" fill="none" xmlns="http://www.w3.org/2000/svg">
<rect x="0.5" y="0.5" width="141" height="141" rx="9.5" stroke="#74BC1F"/>
<rect width="142" height="37" transform="translate(0 105)" fill="#74BC1F"/>
<path d="M58.9014 126.122H61.3389C61.2119 127.29 60.8776 128.335 60.3359 129.258C59.7943 130.18 59.0283 130.912 58.0381 131.454C57.0479 131.987 55.8122 132.254 54.3311 132.254C53.2477 132.254 52.2617 132.051 51.373 131.645C50.4928 131.238 49.7354 130.663 49.1006 129.918C48.4658 129.165 47.9749 128.263 47.6279 127.214C47.2894 126.156 47.1201 124.979 47.1201 123.685V121.844C47.1201 120.549 47.2894 119.377 47.6279 118.327C47.9749 117.269 48.4701 116.364 49.1133 115.61C49.765 114.857 50.5479 114.277 51.4619 113.871C52.376 113.465 53.4043 113.262 54.5469 113.262C55.9434 113.262 57.124 113.524 58.0889 114.049C59.0537 114.574 59.8027 115.301 60.3359 116.232C60.8776 117.155 61.2119 118.226 61.3389 119.444H58.9014C58.7829 118.581 58.5628 117.84 58.2412 117.223C57.9196 116.596 57.4626 116.114 56.8701 115.775C56.2777 115.437 55.5033 115.268 54.5469 115.268C53.7259 115.268 53.0023 115.424 52.376 115.737C51.7581 116.05 51.2376 116.495 50.8145 117.07C50.3997 117.646 50.0866 118.336 49.875 119.14C49.6634 119.944 49.5576 120.837 49.5576 121.818V123.685C49.5576 124.59 49.6507 125.441 49.8369 126.236C50.0316 127.032 50.3236 127.73 50.7129 128.331C51.1022 128.932 51.5973 129.406 52.1982 129.753C52.7992 130.091 53.5101 130.261 54.3311 130.261C55.3721 130.261 56.2015 130.096 56.8193 129.766C57.4372 129.436 57.9027 128.962 58.2158 128.344C58.5374 127.726 58.766 126.985 58.9014 126.122ZM75.8369 126.122H78.2744C78.1475 127.29 77.8132 128.335 77.2715 129.258C76.7298 130.18 75.9639 130.912 74.9736 131.454C73.9834 131.987 72.7477 132.254 71.2666 132.254C70.1833 132.254 69.1973 132.051 68.3086 131.645C67.4284 131.238 66.6709 130.663 66.0361 129.918C65.4014 129.165 64.9105 128.263 64.5635 127.214C64.2249 126.156 64.0557 124.979 64.0557 123.685V121.844C64.0557 120.549 64.2249 119.377 64.5635 118.327C64.9105 117.269 65.4056 116.364 66.0488 115.61C66.7005 114.857 67.4834 114.277 68.3975 113.871C69.3115 113.465 70.3398 113.262 71.4824 113.262C72.8789 113.262 74.0596 113.524 75.0244 114.049C75.9893 114.574 76.7383 115.301 77.2715 116.232C77.8132 117.155 78.1475 118.226 78.2744 119.444H75.8369C75.7184 118.581 75.4984 117.84 75.1768 117.223C74.8551 116.596 74.3981 116.114 73.8057 115.775C73.2132 115.437 72.4388 115.268 71.4824 115.268C70.6615 115.268 69.9378 115.424 69.3115 115.737C68.6937 116.05 68.1732 116.495 67.75 117.07C67.3353 117.646 67.0221 118.336 66.8105 119.14C66.599 119.944 66.4932 120.837 66.4932 121.818V123.685C66.4932 124.59 66.5863 125.441 66.7725 126.236C66.9671 127.032 67.2591 127.73 67.6484 128.331C68.0378 128.932 68.5329 129.406 69.1338 129.753C69.7347 130.091 70.4456 130.261 71.2666 130.261C72.3076 130.261 73.137 130.096 73.7549 129.766C74.3727 129.436 74.8382 128.962 75.1514 128.344C75.473 127.726 75.7015 126.985 75.8369 126.122ZM92.7725 126.122H95.21C95.083 127.29 94.7487 128.335 94.207 129.258C93.6654 130.18 92.8994 130.912 91.9092 131.454C90.9189 131.987 89.6833 132.254 88.2021 132.254C87.1188 132.254 86.1328 132.051 85.2441 131.645C84.3639 131.238 83.6064 130.663 82.9717 129.918C82.3369 129.165 81.846 128.263 81.499 127.214C81.1605 126.156 80.9912 124.979 80.9912 123.685V121.844C80.9912 120.549 81.1605 119.377 81.499 118.327C81.846 117.269 82.3411 116.364 82.9844 115.61C83.6361 114.857 84.4189 114.277 85.333 113.871C86.2471 113.465 87.2754 113.262 88.418 113.262C89.8145 113.262 90.9951 113.524 91.96 114.049C92.9248 114.574 93.6738 115.301 94.207 116.232C94.7487 117.155 95.083 118.226 95.21 119.444H92.7725C92.654 118.581 92.4339 117.84 92.1123 117.223C91.7907 116.596 91.3337 116.114 90.7412 115.775C90.1488 115.437 89.3743 115.268 88.418 115.268C87.597 115.268 86.8734 115.424 86.2471 115.737C85.6292 116.05 85.1087 116.495 84.6855 117.07C84.2708 117.646 83.9577 118.336 83.7461 119.14C83.5345 119.944 83.4287 120.837 83.4287 121.818V123.685C83.4287 124.59 83.5218 125.441 83.708 126.236C83.9027 127.032 84.1947 127.73 84.584 128.331C84.9733 128.932 85.4684 129.406 86.0693 129.753C86.6702 130.091 87.3812 130.261 88.2021 130.261C89.2432 130.261 90.0726 130.096 90.6904 129.766C91.3083 129.436 91.7738 128.962 92.0869 128.344C92.4085 127.726 92.637 126.985 92.7725 126.122Z" fill="white"/>
<g clip-path="url(#clip0_18313_23381)">
<path d="M70.1511 94.0036C68.636 93.9122 66.6522 93.8264 64.6855 93.6606C61.0722 93.3576 57.5162 92.7058 54.0287 91.7339C50.2897 90.6934 46.6822 89.3213 43.2233 87.549C40.4333 86.114 37.7863 84.4617 35.2993 82.5522C32.6123 80.4883 30.1711 78.1614 28.0271 75.543C25.826 72.8502 24.048 69.9002 22.6645 66.71C21.4353 63.8743 20.5891 60.9242 20.2347 57.8598C19.9602 55.4815 19.9031 53.0918 20.1661 50.6963C20.4691 47.9349 21.1151 45.2593 22.087 42.6637C23.0132 40.1824 24.2481 37.867 25.6774 35.6373C27.1981 33.259 29.0219 31.1322 31.0229 29.1483C35.265 24.9291 40.1875 21.6989 45.6302 19.2405C49.7065 17.3996 53.9372 16.0389 58.328 15.1756C61.5296 14.5468 64.7598 14.1923 68.0243 14.0551C71.163 13.9236 74.2788 14.078 77.4004 14.3752C81.248 14.7354 85.0042 15.5473 88.6975 16.6735C92.1964 17.7426 95.5695 19.1148 98.794 20.8356C102.259 22.688 105.489 24.8948 108.422 27.519C111.635 30.389 114.367 33.6535 116.551 37.3753C118.615 40.8856 119.999 44.6418 120.713 48.6438C121.262 51.691 121.245 54.7497 120.891 57.8255C120.29 63.0567 118.398 67.7962 115.557 72.1813C113.544 75.2914 111.12 78.0528 108.347 80.5055C105.374 83.1296 102.127 85.3536 98.6224 87.2059C96.0897 88.5495 93.4713 89.6872 90.7614 90.6191C87.7541 91.6539 84.6783 92.46 81.5396 93.0146C79.0412 93.4548 76.5257 93.7292 73.9987 93.8721C72.8724 93.935 71.7461 93.9579 70.1511 94.0151V94.0036ZM70.6199 17.8627C68.7046 17.9656 67.1724 18.0228 65.6459 18.1428C63.3191 18.3258 61.0151 18.646 58.7396 19.1605C56.4699 19.6808 54.2231 20.2582 52.022 21.0414C49.4779 21.9447 47.0252 23.0253 44.664 24.3231C41.108 26.2726 37.8549 28.6281 34.962 31.4867C31.7318 34.6768 29.1363 38.3015 27.3639 42.4922C25.2886 47.4089 24.5225 52.5029 25.2486 57.8084C25.7288 61.3302 26.8208 64.6518 28.4616 67.7962C29.8509 70.449 31.5946 72.8559 33.6128 75.0627C35.7739 77.4182 38.1922 79.4764 40.8335 81.2716C44.3153 83.6442 48.0657 85.4851 52.0391 86.8915C55.2465 88.0235 58.5338 88.8411 61.9012 89.3384C64.4396 89.7158 66.9895 89.9788 69.5622 89.9902C72.0148 90.0016 74.4618 89.9502 76.8973 89.67C79.4986 89.367 82.0656 88.9039 84.6097 88.2579C87.4969 87.5261 90.2926 86.5599 93.0025 85.3536C97.7649 83.2268 102.081 80.4197 105.849 76.8007C108.153 74.5825 110.171 72.1241 111.8 69.3742C113.436 66.6071 114.699 63.6742 115.414 60.5298C115.797 58.826 116.083 57.1052 116.128 55.3557C116.174 53.5834 116.151 51.8111 115.905 50.0388C115.625 48.0264 115.162 46.0768 114.465 44.173C113.436 41.3716 112.063 38.7532 110.337 36.3234C108.422 33.6249 106.152 31.258 103.614 29.1426C100.726 26.7414 97.5762 24.7747 94.1917 23.1453C90.8871 21.5617 87.4683 20.3382 83.9065 19.4921C81.6311 18.949 79.3328 18.4744 77.0002 18.2686C74.7534 18.0685 72.5008 17.9713 70.6256 17.857L70.6199 17.8627Z" fill="#74BC1F"/>
<path d="M64.4263 39.3141C68.3597 35.6552 72.9791 33.3855 78.096 31.9219C78.1703 32.3221 78.2389 32.6708 78.2904 33.0196C78.6048 35.0149 78.9193 37.0101 79.2394 38.9997C79.2737 39.2227 79.2394 39.3084 78.9821 39.3427C76.8325 39.6172 74.7572 40.1374 72.8534 41.2008C69.9491 42.8188 68.011 45.2314 67.0448 48.4158C66.2043 51.1658 66.1757 53.9443 66.8218 56.7286C67.4507 59.4385 68.5884 61.9197 70.355 64.0751C72.3274 66.4763 74.7515 68.2315 77.7987 69.0319C78.5362 69.2262 79.2909 69.3406 80.0856 69.5007V75.8924C79.5996 75.8295 79.1251 75.7952 78.6677 75.7038C73.8882 74.7547 69.5489 72.828 65.7584 69.7522C62.6082 67.1909 60.2928 64.0122 59.1151 60.096C58.2518 57.2374 57.9659 54.3045 58.3147 51.3259C58.732 47.7355 60.0698 44.511 62.311 41.6753C62.9227 40.9035 63.5973 40.1774 64.2605 39.4113C64.1747 39.3999 64.0433 39.3484 63.9232 39.3656C60.8702 39.7772 58.0402 40.7206 55.7077 42.8302C53.6609 44.6825 52.4203 46.9923 51.8371 49.6793C51.4084 51.6517 51.4255 53.6184 51.7285 55.6023C52.0487 57.6948 52.7462 59.6615 53.7695 61.5081C55.6333 64.8812 58.2918 67.391 61.9622 68.7289C63.0142 69.1119 64.1004 69.3635 65.2381 69.4721V75.881C64.7064 75.8124 64.1919 75.7781 63.6831 75.6809C61.3448 75.2292 59.1036 74.4746 56.9426 73.4798C54.3012 72.2678 51.8829 70.7299 49.7561 68.7403C46.7489 65.9332 44.6907 62.5543 43.8331 58.5295C42.947 54.3731 43.1528 50.2625 44.7536 46.2776C45.8627 43.5162 47.5893 41.1837 49.7504 39.1483C52.649 36.427 56.045 34.5289 59.7211 33.0882C60.7559 32.6823 61.8307 32.3678 62.8884 32.0076C63.1114 31.9333 63.2486 31.9848 63.2886 32.2478C63.5116 33.6885 63.7517 35.1235 63.9804 36.5585C64.1119 37.3875 64.2376 38.2165 64.3634 39.0454C64.3748 39.1083 64.392 39.1655 64.4263 39.297V39.3141Z" fill="#74BC1F"/>
<path d="M94.4704 31.9489C94.579 32.6007 94.6877 33.2181 94.7849 33.8299C95.0307 35.4135 95.2708 37.0029 95.5167 38.5865C95.6367 39.3412 95.6367 39.3069 94.8992 39.4098C91.2059 39.9301 87.9586 41.3193 85.546 44.2922C84.3396 45.7787 83.5735 47.4824 83.1562 49.3462C82.4644 52.4678 82.6531 55.5264 83.6936 58.5451C84.837 61.861 86.7123 64.651 89.5194 66.7778C91.3946 68.2013 93.5328 69.0246 95.854 69.3905C96.0312 69.4191 96.2142 69.4134 96.4314 69.4191C96.4428 69.522 96.46 69.6192 96.46 69.7221C96.46 71.3915 96.46 73.0609 96.46 74.7303C96.46 75.0047 96.4829 75.2849 96.4943 75.5593C96.5 75.7823 96.4142 75.9081 96.1684 75.8566C95.0421 75.6336 93.9044 75.4736 92.7953 75.1763C88.8733 74.1129 85.3058 72.3348 82.1385 69.785C79.6459 67.784 77.6735 65.3428 76.3585 62.4213C74.7749 58.911 74.2546 55.2063 74.6662 51.3929C75.0722 47.6711 76.4957 44.3437 78.8512 41.4222C80.7779 39.0268 83.139 37.1458 85.7689 35.585C88.1187 34.1901 90.5885 33.0638 93.2127 32.2805C93.6071 32.1605 94.0131 32.0633 94.459 31.9375L94.4704 31.9489Z" fill="#74BC1F"/>
</g>
<defs>
<clipPath id="clip0_18313_23381">
<rect width="101.142" height="80" fill="white" transform="translate(20 14)"/>
</clipPath>
</defs>
</svg>
