<svg width="142" height="142" viewBox="0 0 142 142" fill="none" xmlns="http://www.w3.org/2000/svg">
<rect x="0.5" y="0.5" width="141" height="141" rx="9.5" stroke="#74BC1F"/>
<rect width="142" height="37" transform="translate(0 105)" fill="#74BC1F"/>
<path d="M68.4482 126.122H70.8857C70.7588 127.29 70.4245 128.335 69.8828 129.258C69.3411 130.18 68.5752 130.912 67.585 131.454C66.5947 131.987 65.359 132.254 63.8779 132.254C62.7946 132.254 61.8086 132.051 60.9199 131.645C60.0397 131.238 59.2822 130.663 58.6475 129.918C58.0127 129.165 57.5218 128.263 57.1748 127.214C56.8363 126.156 56.667 124.979 56.667 123.685V121.844C56.667 120.549 56.8363 119.377 57.1748 118.327C57.5218 117.269 58.0169 116.364 58.6602 115.61C59.3118 114.857 60.0947 114.277 61.0088 113.871C61.9229 113.465 62.9512 113.262 64.0938 113.262C65.4902 113.262 66.6709 113.524 67.6357 114.049C68.6006 114.574 69.3496 115.301 69.8828 116.232C70.4245 117.155 70.7588 118.226 70.8857 119.444H68.4482C68.3298 118.581 68.1097 117.84 67.7881 117.223C67.4665 116.596 67.0094 116.114 66.417 115.775C65.8245 115.437 65.0501 115.268 64.0938 115.268C63.2728 115.268 62.5492 115.424 61.9229 115.737C61.305 116.05 60.7845 116.495 60.3613 117.07C59.9466 117.646 59.6335 118.336 59.4219 119.14C59.2103 119.944 59.1045 120.837 59.1045 121.818V123.685C59.1045 124.59 59.1976 125.441 59.3838 126.236C59.5785 127.032 59.8704 127.73 60.2598 128.331C60.6491 128.932 61.1442 129.406 61.7451 129.753C62.346 130.091 63.057 130.261 63.8779 130.261C64.9189 130.261 65.7484 130.096 66.3662 129.766C66.984 129.436 67.4495 128.962 67.7627 128.344C68.0843 127.726 68.3128 126.985 68.4482 126.122ZM85.9678 130.007V132H76.1797V130.007H85.9678ZM76.6748 113.516V132H74.2246V113.516H76.6748ZM84.6729 121.463V123.456H76.1797V121.463H84.6729ZM85.8408 113.516V115.521H76.1797V113.516H85.8408Z" fill="white"/>
<path d="M106.366 60.415C103.217 60.415 100.068 60.5066 96.9183 60.415C95.2296 60.3235 94.9557 60.827 95.4121 62.3378C98.9722 75.1562 110.2 83.2593 123.619 82.5269C125.353 82.4353 125.445 82.9389 125.445 84.3123C125.353 87.3796 125.399 90.4468 125.445 93.5141C125.445 94.3839 125.353 94.8875 124.258 94.9333C120.333 95.0248 116.362 95.208 112.665 93.9261C100.296 89.577 90.4372 82.2522 85.5991 69.6168C81.6283 59.179 82.0391 48.7868 86.3294 38.3947C92.9475 22.3717 108.877 14.4517 123.345 15.0468C124.851 15.0926 125.536 15.4131 125.399 17.1069C125.216 19.808 125.308 22.5548 125.399 25.3016C125.399 26.4919 125.262 26.9039 123.847 26.7666C118.051 26.263 112.437 27.3617 107.599 30.6121C101.574 34.6408 97.5117 40.3633 95.3665 47.3219C94.9557 48.6037 95.4578 48.7868 96.5989 48.7868C102.943 48.7868 109.333 48.7868 115.677 48.7411C117.366 48.7411 117.731 49.2446 117.685 50.8012C117.549 53.548 117.594 56.249 117.685 58.9958C117.685 60.1861 117.32 60.5066 116.179 60.4608C112.893 60.415 109.607 60.4608 106.321 60.4608L106.366 60.415Z" fill="#74BC1F"/>
<path d="M59.6263 88.5256C59.6263 90.1737 59.5807 91.8218 59.6263 93.4241C59.672 94.477 59.3981 94.8433 58.3027 94.889C54.3775 94.9806 50.4067 95.1179 46.7097 93.8361C33.4735 89.3039 19.9178 79.0949 17.4075 60.5539C16.0382 50.528 18.1378 41.3262 23.4322 32.8111C31.374 20.1758 43.1952 14.8653 57.8463 15.0026C59.3068 15.0026 59.672 15.5062 59.6263 16.9254C59.4894 19.6722 59.4894 22.3732 59.6263 25.12C59.7176 26.6765 59.1699 26.8139 57.8007 26.7223C51.8216 26.3103 46.025 27.3632 41.2326 30.9799C31.7391 38.1674 27.1292 47.6439 29.0462 59.7298C31.3283 74.288 44.1537 83.3982 57.9832 82.4826C59.3981 82.391 59.7633 82.6657 59.6263 84.0391C59.5351 85.5499 59.6263 87.0606 59.6263 88.5256Z" fill="#74BC1F"/>
</svg>
