<svg width="142" height="142" viewBox="0 0 142 142" fill="none" xmlns="http://www.w3.org/2000/svg">
<rect x="0.5" y="0.5" width="141" height="141" rx="9.5" stroke="#74BC1F"/>
<rect width="142" height="37" transform="translate(0 105)" fill="#74BC1F"/>
<path d="M51.4746 113.516V132H49.0244V113.516H51.4746ZM59.2188 121.831V123.837H50.9414V121.831H59.2188ZM60.4756 113.516V115.521H50.9414V113.516H60.4756ZM74.5547 126.122H76.9922C76.8652 127.29 76.5309 128.335 75.9893 129.258C75.4476 130.18 74.6816 130.912 73.6914 131.454C72.7012 131.987 71.4655 132.254 69.9844 132.254C68.901 132.254 67.915 132.051 67.0264 131.645C66.1462 131.238 65.3887 130.663 64.7539 129.918C64.1191 129.165 63.6283 128.263 63.2812 127.214C62.9427 126.156 62.7734 124.979 62.7734 123.685V121.844C62.7734 120.549 62.9427 119.377 63.2812 118.327C63.6283 117.269 64.1234 116.364 64.7666 115.61C65.4183 114.857 66.2012 114.277 67.1152 113.871C68.0293 113.465 69.0576 113.262 70.2002 113.262C71.5967 113.262 72.7773 113.524 73.7422 114.049C74.707 114.574 75.4561 115.301 75.9893 116.232C76.5309 117.155 76.8652 118.226 76.9922 119.444H74.5547C74.4362 118.581 74.2161 117.84 73.8945 117.223C73.5729 116.596 73.1159 116.114 72.5234 115.775C71.931 115.437 71.1566 115.268 70.2002 115.268C69.3792 115.268 68.6556 115.424 68.0293 115.737C67.4115 116.05 66.891 116.495 66.4678 117.07C66.0531 117.646 65.7399 118.336 65.5283 119.14C65.3167 119.944 65.2109 120.837 65.2109 121.818V123.685C65.2109 124.59 65.304 125.441 65.4902 126.236C65.6849 127.032 65.9769 127.73 66.3662 128.331C66.7555 128.932 67.2507 129.406 67.8516 129.753C68.4525 130.091 69.1634 130.261 69.9844 130.261C71.0254 130.261 71.8548 130.096 72.4727 129.766C73.0905 129.436 73.556 128.962 73.8691 128.344C74.1908 127.726 74.4193 126.985 74.5547 126.122ZM91.4902 126.122H93.9277C93.8008 127.29 93.4665 128.335 92.9248 129.258C92.3831 130.18 91.6172 130.912 90.627 131.454C89.6367 131.987 88.401 132.254 86.9199 132.254C85.8366 132.254 84.8506 132.051 83.9619 131.645C83.0817 131.238 82.3242 130.663 81.6895 129.918C81.0547 129.165 80.5638 128.263 80.2168 127.214C79.8783 126.156 79.709 124.979 79.709 123.685V121.844C79.709 120.549 79.8783 119.377 80.2168 118.327C80.5638 117.269 81.0589 116.364 81.7021 115.61C82.3538 114.857 83.1367 114.277 84.0508 113.871C84.9648 113.465 85.9932 113.262 87.1357 113.262C88.5322 113.262 89.7129 113.524 90.6777 114.049C91.6426 114.574 92.3916 115.301 92.9248 116.232C93.4665 117.155 93.8008 118.226 93.9277 119.444H91.4902C91.3717 118.581 91.1517 117.84 90.8301 117.223C90.5085 116.596 90.0514 116.114 89.459 115.775C88.8665 115.437 88.0921 115.268 87.1357 115.268C86.3148 115.268 85.5911 115.424 84.9648 115.737C84.347 116.05 83.8265 116.495 83.4033 117.07C82.9886 117.646 82.6755 118.336 82.4639 119.14C82.2523 119.944 82.1465 120.837 82.1465 121.818V123.685C82.1465 124.59 82.2396 125.441 82.4258 126.236C82.6204 127.032 82.9124 127.73 83.3018 128.331C83.6911 128.932 84.1862 129.406 84.7871 129.753C85.388 130.091 86.099 130.261 86.9199 130.261C87.9609 130.261 88.7904 130.096 89.4082 129.766C90.026 129.436 90.4915 128.962 90.8047 128.344C91.1263 127.726 91.3548 126.985 91.4902 126.122Z" fill="white"/>
<path d="M56.9911 14.8511C55.0317 17.4563 53.2546 19.7416 51.5685 22.0726C51.0217 22.8496 50.2471 22.6668 49.518 22.6668C44.2777 22.6668 38.9918 22.7125 33.7515 22.6668C32.3845 22.6668 31.8832 22.941 31.8832 24.4493C31.9744 32.2193 31.9744 39.9893 31.8832 47.7593C31.8832 49.2219 32.2933 49.5875 33.7059 49.5418C37.8071 49.4504 41.9082 49.4504 46.0093 49.5418C47.3307 49.5418 47.6497 49.1304 47.8775 47.8507C50.7939 31.7165 59.4973 20.3815 75.5828 15.5367C90.4379 11.0575 107.298 16.6336 116.685 28.8371C117.277 29.5683 117.505 29.9797 116.594 30.711C115.91 31.2595 115.272 31.9908 114.498 32.5392C111.171 34.9616 111.08 35.0073 108.619 31.8536C105.43 27.6944 101.101 25.1349 96.2706 23.5809C84.8331 19.8787 74.0791 21.6612 65.4667 30.0254C57.3557 37.8411 53.8014 47.7593 55.8519 59.1857C58.1759 72.3033 65.9224 80.8503 78.727 84.0954C91.3948 87.2948 102.149 83.2727 110.533 73.2174C111.354 72.2119 111.855 71.8919 112.857 72.8518C113.45 73.4002 114.179 73.8116 114.862 74.2687C117.05 75.7922 117.247 77.5899 115.455 79.6619C111.946 83.6383 107.663 86.6092 103.06 89.2145C95.4504 93.4651 87.3849 95.2933 79.0459 93.008C64.4642 88.9859 53.7558 80.2561 49.1079 65.356C48.4699 63.2992 48.151 61.1054 47.8775 58.9572C47.7408 57.7688 47.3307 57.3575 46.1004 57.4032C41.9537 57.4946 37.7615 57.4946 33.6148 57.4032C32.2933 57.4032 31.8832 57.7231 31.9288 59.0943C31.9744 67.5499 31.9288 76.0055 32.0199 84.461C32.0199 85.8322 31.6098 86.6549 30.4251 87.3862C28.3289 88.7117 26.4151 90.2657 24.1367 92.0025V89.9457C24.0456 65.5845 24.0456 41.3147 24 17.045C24 15.2624 24.3645 14.8054 26.1873 14.8054C36.3033 14.8968 46.4194 14.8511 56.9455 14.8511H56.9911Z" fill="#74BC1F"/>
<path d="M85.6565 76.3241C78.0466 76.0041 71.4849 72.8047 67.4293 65.766C62.2346 56.7163 62.7358 45.6555 70.8925 37.4741C73.9455 34.4118 77.4998 32.7207 81.5098 31.4867C83.8793 30.7554 86.2033 30.344 88.4361 30.8468C94.4511 32.1265 99.8281 34.5947 103.565 39.8508C104.111 40.6278 103.747 40.8564 103.2 41.222C101.787 42.1818 100.375 43.1416 99.0534 44.2386C98.0965 45.0613 97.5497 44.9699 96.6383 44.0101C92.765 39.8965 87.9804 38.3882 82.5123 39.8508C77.0441 41.3134 73.5354 44.9242 72.3051 50.4546C71.2115 55.2537 72.6696 59.4586 75.4948 63.435C79.7782 69.4225 89.3475 70.0624 94.8156 65.5832C95.2257 65.2633 95.6814 64.8976 96.0004 64.4863C97.8686 61.9267 98.5977 61.7896 100.648 64.1206C101.241 64.8062 101.879 65.4004 102.608 65.766C104.43 66.6801 104.02 67.5029 102.927 68.7369C98.4155 73.7188 92.8562 76.2784 85.6565 76.4155V76.3241Z" fill="#74BC1F"/>
</svg>
