<svg width="142" height="142" viewBox="0 0 142 142" fill="none" xmlns="http://www.w3.org/2000/svg">
<rect x="0.5" y="0.5" width="141" height="141" rx="9.5" stroke="#74BC1F"/>
<rect width="142" height="37" transform="translate(0 105)" fill="#74BC1F"/>
<path d="M58.3174 127.328C58.3174 126.896 58.2497 126.516 58.1143 126.186C57.9873 125.847 57.7588 125.542 57.4287 125.271C57.1071 125.001 56.6585 124.743 56.083 124.497C55.516 124.252 54.7965 124.002 53.9248 123.748C53.0107 123.477 52.1855 123.177 51.4492 122.847C50.7129 122.508 50.0824 122.123 49.5576 121.691C49.0329 121.26 48.6309 120.765 48.3516 120.206C48.0723 119.647 47.9326 119.008 47.9326 118.289C47.9326 117.57 48.0807 116.905 48.377 116.296C48.6732 115.687 49.0964 115.158 49.6465 114.709C50.2051 114.252 50.8695 113.896 51.6396 113.643C52.4098 113.389 53.2689 113.262 54.2168 113.262C55.6048 113.262 56.7812 113.528 57.7461 114.062C58.7194 114.586 59.46 115.276 59.9678 116.131C60.4756 116.977 60.7295 117.883 60.7295 118.848H58.292C58.292 118.154 58.1439 117.54 57.8477 117.007C57.5514 116.465 57.1029 116.042 56.502 115.737C55.901 115.424 55.1393 115.268 54.2168 115.268C53.3451 115.268 52.6257 115.399 52.0586 115.661C51.4915 115.924 51.0684 116.279 50.7891 116.728C50.5182 117.176 50.3828 117.688 50.3828 118.264C50.3828 118.653 50.4632 119.008 50.624 119.33C50.7933 119.643 51.0514 119.935 51.3984 120.206C51.7539 120.477 52.2025 120.727 52.7441 120.955C53.2943 121.184 53.9502 121.404 54.7119 121.615C55.7614 121.911 56.667 122.242 57.4287 122.605C58.1904 122.969 58.8167 123.38 59.3076 123.837C59.807 124.285 60.1751 124.798 60.4121 125.373C60.6576 125.94 60.7803 126.583 60.7803 127.303C60.7803 128.056 60.6279 128.737 60.3232 129.347C60.0186 129.956 59.5827 130.477 59.0156 130.908C58.4486 131.34 57.7673 131.674 56.9717 131.911C56.1846 132.14 55.3044 132.254 54.3311 132.254C53.4762 132.254 52.6341 132.135 51.8047 131.898C50.9837 131.661 50.2347 131.306 49.5576 130.832C48.889 130.358 48.3516 129.774 47.9453 129.08C47.5475 128.378 47.3486 127.565 47.3486 126.643H49.7861C49.7861 127.277 49.9089 127.823 50.1543 128.28C50.3997 128.729 50.734 129.101 51.1572 129.397C51.5889 129.694 52.0755 129.914 52.6172 130.058C53.1673 130.193 53.7386 130.261 54.3311 130.261C55.1859 130.261 55.9095 130.142 56.502 129.905C57.0944 129.668 57.543 129.33 57.8477 128.89C58.1608 128.45 58.3174 127.929 58.3174 127.328ZM70.7461 115.153L64.627 132H62.126L69.1719 113.516H70.7842L70.7461 115.153ZM75.875 132L69.7432 115.153L69.7051 113.516H71.3174L78.3887 132H75.875ZM75.5576 125.157V127.163H65.1729V125.157H75.5576ZM87.707 115.153L81.5879 132H79.0869L86.1328 113.516H87.7451L87.707 115.153ZM92.8359 132L86.7041 115.153L86.666 113.516H88.2783L95.3496 132H92.8359ZM92.5186 125.157V127.163H82.1338V125.157H92.5186Z" fill="white"/>
<path d="M90.7214 50.4838C91.7885 49.4171 91.7885 47.7104 90.7214 46.6437C89.6544 45.5771 87.947 45.5771 86.88 46.6437L71.0874 62.4304C70.874 62.6438 70.6606 62.6437 70.4472 62.8571C69.8069 63.0704 68.9533 62.6437 68.7399 62.0037L67.0326 55.1771C66.6057 53.6837 65.1118 52.8304 63.8314 53.2571C62.3375 53.6837 61.4838 55.1771 61.9107 56.4571L65.1119 68.4037C65.5387 70.3237 67.4594 71.3904 69.3801 70.9637C70.0204 70.7504 70.4472 70.5371 70.874 70.1104L90.7214 50.4838Z" fill="#74BC1F"/>
<path d="M79.4117 37.8984C67.0337 33.4184 53.1619 39.8184 48.6802 52.1917C44.1985 64.5651 50.6009 78.4317 62.9789 82.9117C75.3568 87.3917 89.2287 80.9917 93.7103 68.6184C94.564 66.0584 95.2042 63.2851 95.2042 60.5117C95.2042 59.0184 93.9237 57.9517 92.6433 57.9517C91.1494 57.9517 90.0823 59.2317 90.0823 60.5117C90.0823 62.6451 89.6555 64.7784 89.0152 66.9117C85.6006 76.5117 74.7166 81.6317 65.113 78.0051C55.5094 74.3784 50.3875 63.7117 54.0155 54.1117C57.6435 44.5117 68.3142 39.3917 77.9178 43.0184C79.1982 43.4451 80.9056 42.8051 81.3324 41.5251C81.5458 40.0317 80.9055 38.5384 79.4117 37.8984Z" fill="#74BC1F"/>
<path d="M71.3035 14C66.6084 14 61.9133 16.1333 58.7121 20.1867L21.3648 68.4C13.2551 78.8533 20.7246 94 33.9562 94H108.651C121.882 94 129.352 78.8533 121.242 68.4L83.8949 20.1867C80.6937 16.1333 75.9986 14 71.3035 14ZM71.3035 20.8267C74.0779 20.8267 76.8522 22.1067 78.5595 24.4533L115.907 72.6667C118.041 75.44 118.468 79.0667 116.974 82.2667C115.48 85.4667 112.279 87.3867 108.651 87.3867H33.9562C30.3282 87.3867 27.3404 85.4667 25.6331 82.2667C24.1392 79.0667 24.3526 75.44 26.7002 72.6667L64.0475 24.24C65.7548 22.1067 68.5291 20.8267 71.3035 20.8267Z" fill="#74BC1F"/>
</svg>
