<svg width="142" height="142" viewBox="0 0 142 142" fill="none" xmlns="http://www.w3.org/2000/svg">
<rect x="0.5" y="0.5" width="141" height="141" rx="9.5" stroke="#74BC1F"/>
<rect width="142" height="37" transform="translate(0 105)" fill="#74BC1F"/>
<path d="M50.3828 113.516H52.8203V126.021C52.8203 127.409 52.5114 128.564 51.8936 129.486C51.2757 130.409 50.4548 131.103 49.4307 131.568C48.415 132.025 47.3105 132.254 46.1172 132.254C44.8646 132.254 43.7305 132.025 42.7148 131.568C41.7077 131.103 40.9079 130.409 40.3154 129.486C39.7314 128.564 39.4395 127.409 39.4395 126.021V113.516H41.8643V126.021C41.8643 126.985 42.042 127.781 42.3975 128.407C42.7529 129.034 43.248 129.499 43.8828 129.804C44.526 130.108 45.2708 130.261 46.1172 130.261C46.972 130.261 47.7168 130.108 48.3516 129.804C48.9948 129.499 49.4941 129.034 49.8496 128.407C50.2051 127.781 50.3828 126.985 50.3828 126.021V113.516ZM59.1172 113.516V132H56.667V113.516H59.1172ZM70.2764 113.516L62.5957 122.136L58.2793 126.617L57.873 124.002L61.123 120.422L67.3311 113.516H70.2764ZM67.915 132L61.0723 122.986L62.5322 121.044L70.835 132H67.915ZM83.7461 126.122H86.1836C86.0566 127.29 85.7223 128.335 85.1807 129.258C84.639 130.18 83.873 130.912 82.8828 131.454C81.8926 131.987 80.6569 132.254 79.1758 132.254C78.0924 132.254 77.1064 132.051 76.2178 131.645C75.3376 131.238 74.5801 130.663 73.9453 129.918C73.3105 129.165 72.8197 128.263 72.4727 127.214C72.1341 126.156 71.9648 124.979 71.9648 123.685V121.844C71.9648 120.549 72.1341 119.377 72.4727 118.327C72.8197 117.269 73.3148 116.364 73.958 115.61C74.6097 114.857 75.3926 114.277 76.3066 113.871C77.2207 113.465 78.249 113.262 79.3916 113.262C80.7881 113.262 81.9688 113.524 82.9336 114.049C83.8984 114.574 84.6475 115.301 85.1807 116.232C85.7223 117.155 86.0566 118.226 86.1836 119.444H83.7461C83.6276 118.581 83.4076 117.84 83.0859 117.223C82.7643 116.596 82.3073 116.114 81.7148 115.775C81.1224 115.437 80.348 115.268 79.3916 115.268C78.5706 115.268 77.847 115.424 77.2207 115.737C76.6029 116.05 76.0824 116.495 75.6592 117.07C75.2445 117.646 74.9313 118.336 74.7197 119.14C74.5081 119.944 74.4023 120.837 74.4023 121.818V123.685C74.4023 124.59 74.4954 125.441 74.6816 126.236C74.8763 127.032 75.1683 127.73 75.5576 128.331C75.9469 128.932 76.4421 129.406 77.043 129.753C77.6439 130.091 78.3548 130.261 79.1758 130.261C80.2168 130.261 81.0462 130.096 81.6641 129.766C82.2819 129.436 82.7474 128.962 83.0605 128.344C83.3822 127.726 83.6107 126.985 83.7461 126.122ZM96.3652 115.153L90.2461 132H87.7451L94.791 113.516H96.4033L96.3652 115.153ZM101.494 132L95.3623 115.153L95.3242 113.516H96.9365L104.008 132H101.494ZM101.177 125.157V127.163H90.792V125.157H101.177Z" fill="white"/>
<path d="M54.9293 51.6869H43.9347C36.8206 51.6869 31 46.0303 31 39.0808V15H39.4076V38.9192C39.4076 41.3434 41.5095 43.4444 44.0964 43.4444H54.7676C57.3545 43.4444 59.4564 41.505 59.4564 38.9192V15H67.864V38.9192C67.7023 46.0303 62.0434 51.6869 54.9293 51.6869Z" fill="#74BC1F"/>
<path d="M111.195 15H100.363L82.7389 28.899V15H74.3314V51.6869H82.7389V37.6263L100.363 51.6869H111.034L87.9128 33.2626L111.195 15Z" fill="#74BC1F"/>
<path d="M43.7731 95C36.8206 95 31.1617 89.1818 31.1617 82.0707V71.2424C31.1617 64.1313 36.8206 58.3131 43.7731 58.3131H67.7023V66.7172H43.9347C41.5095 66.7172 39.4076 68.8182 39.4076 71.404V82.0707C39.4076 84.6566 41.3478 86.7576 43.9347 86.7576H67.864V95H43.7731Z" fill="#74BC1F"/>
<path d="M98.2606 58.3131H87.2661C80.152 58.3131 74.3314 63.9697 74.3314 70.9192V94.8384H82.7389V86.4343H102.788V94.8384H111.195V71.0808C111.034 63.9697 105.375 58.3131 98.2606 58.3131ZM82.7389 78.3535V71.0808C82.7389 68.6566 84.8408 66.5555 87.4278 66.5555H98.0989C100.686 66.5555 102.788 68.4949 102.788 71.0808V78.3535H82.7389Z" fill="#74BC1F"/>
</svg>
