<svg width="142" height="142" viewBox="0 0 142 142" fill="none" xmlns="http://www.w3.org/2000/svg">
<rect x="0.5" y="0.5" width="141" height="141" rx="9.5" stroke="#74BC1F"/>
<rect width="142" height="37" transform="translate(0 105)" fill="#74BC1F"/>
<path d="M68.2832 113.516H70.7207V126.021C70.7207 127.409 70.4118 128.564 69.7939 129.486C69.1761 130.409 68.3551 131.103 67.3311 131.568C66.3154 132.025 65.2109 132.254 64.0176 132.254C62.765 132.254 61.6309 132.025 60.6152 131.568C59.6081 131.103 58.8083 130.409 58.2158 129.486C57.6318 128.564 57.3398 127.409 57.3398 126.021V113.516H59.7646V126.021C59.7646 126.985 59.9424 127.781 60.2979 128.407C60.6533 129.034 61.1484 129.499 61.7832 129.804C62.4264 130.108 63.1712 130.261 64.0176 130.261C64.8724 130.261 65.6172 130.108 66.252 129.804C66.8952 129.499 67.3945 129.034 67.75 128.407C68.1055 127.781 68.2832 126.985 68.2832 126.021V113.516ZM85.7773 130.007V132H76.5352V130.007H85.7773ZM77.0176 113.516V132H74.5674V113.516H77.0176Z" fill="white"/>
<path d="M111.852 54.0008C111.979 76.0493 93.2879 94.416 70.1245 93.9928C48.1004 93.5696 29.9579 75.88 30.0001 53.9161C30.0845 31.783 48.7333 13.5432 71.8544 14.0087C93.9208 14.4319 112.021 32.2062 111.894 54.0008H111.852ZM70.9262 90.3957C91.2205 90.5226 107.802 74.4412 108.224 54.8048C108.688 34.3645 91.8533 17.9868 71.77 17.5636C50.8428 17.1404 33.6708 33.6873 33.6708 54.0008C33.6708 74.2719 50.6741 90.4803 70.9262 90.3957Z" fill="#74BC1F"/>
<path d="M47.9313 31.694H54.3444C54.3444 31.9479 54.3444 32.1595 54.3444 32.3711C54.3444 39.3116 54.3444 46.252 54.3444 53.1924C54.3444 53.9965 54.471 54.8005 54.682 55.5623C55.3148 57.7206 56.9181 58.9055 59.1543 59.1595C60.1669 59.2864 61.2639 59.2441 62.2765 59.0325C64.6392 58.567 66.2425 56.6203 66.4113 54.1657C66.4113 53.8272 66.4113 53.4886 66.4113 53.1501C66.4113 46.2097 66.4113 39.3116 66.4113 32.3711V31.694C68.5631 31.694 70.6727 31.694 72.8245 31.694C72.8245 31.9056 72.8245 32.0749 72.8245 32.2442C72.8245 39.2692 72.8245 46.3366 72.8245 53.3617C72.8245 55.6892 72.3604 57.9322 71.2212 60.0059C69.7867 62.5027 67.6348 64.1109 64.808 64.8726C61.8968 65.6767 58.9433 65.6767 55.9899 64.9149C51.6863 63.7723 49.1548 60.9792 48.2266 56.7472C47.9313 55.4777 47.8469 54.1234 47.8047 52.8115C47.8047 45.9981 47.8047 39.1846 47.8047 32.3288V31.6094L47.9313 31.694Z" fill="#74BC1F"/>
<path d="M77.5938 72.5308C77.5938 61.4008 77.5938 50.2707 77.5938 39.1406H83.9647C83.9647 48.2393 83.9647 57.3381 83.9647 66.5214C89.4918 66.5214 94.9346 66.5214 100.42 66.5214V72.5308C92.825 72.5308 85.2305 72.5308 77.5938 72.5308Z" fill="#74BC1F"/>
<path d="M57.3008 72.622C57.3008 70.1674 59.2838 68.2631 61.8153 68.3054C64.2624 68.3054 66.2033 70.2521 66.2033 72.6643C66.2033 75.0765 64.2203 77.0232 61.7309 77.0232C59.2838 77.0232 57.3008 75.0765 57.3008 72.622ZM58.0602 72.6643C58.0602 74.6956 59.6635 76.3461 61.7309 76.3461C63.7983 76.3461 65.4438 74.6956 65.4016 72.622C65.4016 70.5906 63.7562 68.9402 61.7309 68.9402C59.6635 68.9402 58.0602 70.5483 58.0602 72.6643Z" fill="#74BC1F"/>
<path d="M59.7461 70.2063C60.7587 70.2063 61.7291 70.164 62.6995 70.2063C63.3746 70.2063 63.8387 70.6295 63.9653 71.3489C64.0919 72.0261 63.8387 72.5339 63.248 72.8724C63.2058 72.8724 63.1636 72.9148 63.0793 72.9994C63.3746 73.6765 63.6699 74.396 63.9653 75.1154C63.8387 75.1154 63.7543 75.1154 63.7121 75.1154C63.0793 75.2423 62.6995 75.0308 62.5729 74.396C62.5729 74.2267 62.4464 74.0574 62.362 73.9304C61.9401 72.9571 61.9401 72.9148 60.7587 73.1687V75.1154C60.379 75.1154 60.0836 75.1154 59.7461 75.1154V70.2063ZM60.7587 72.3223C61.265 72.3223 61.7713 72.3223 62.2354 72.3223C62.6152 72.3223 62.8683 72.0261 62.8683 71.6452C62.8683 71.2643 62.6152 71.0104 62.2354 70.9681C61.7713 70.9681 61.265 70.9681 60.7587 70.9681V72.3646V72.3223Z" fill="#74BC1F"/>
</svg>
