<svg width="64" height="64" viewBox="0 0 64 64" fill="none" xmlns="http://www.w3.org/2000/svg">
<path d="M50.5543 16.487C50.5395 16.4607 50.5149 16.44 50.485 16.4287C47.0271 14.9711 43.378 13.9317 39.6291 13.3365C39.595 13.3307 39.5599 13.3349 39.5285 13.3485C39.4972 13.3621 39.4714 13.3845 39.4547 13.4124C38.9578 14.2409 38.5067 15.092 38.1032 15.9624C34.0621 15.3988 29.9515 15.3988 25.9103 15.9624C25.5041 15.0898 25.0458 14.2385 24.5375 13.4124C24.5201 13.3851 24.4941 13.3633 24.463 13.3497C24.4319 13.3362 24.397 13.3316 24.363 13.3365C20.6137 13.9304 16.9644 14.9699 13.5069 16.4288C13.4773 16.4403 13.4524 16.46 13.4355 16.4851C6.52123 25.9717 4.62717 35.2249 5.55633 44.3636C5.55895 44.386 5.56644 44.4077 5.57836 44.4274C5.59028 44.4471 5.60639 44.4644 5.62572 44.4782C9.65181 47.217 14.155 49.3076 18.9432 50.6606C18.9769 50.6699 19.013 50.6695 19.0464 50.6594C19.0799 50.6494 19.1092 50.6301 19.1303 50.6043C20.1587 49.3187 21.07 47.9574 21.8548 46.5341C21.8656 46.5146 21.8717 46.4932 21.8729 46.4713C21.874 46.4494 21.8701 46.4276 21.8613 46.4072C21.8526 46.3868 21.8393 46.3684 21.8222 46.3531C21.8051 46.3378 21.7848 46.326 21.7624 46.3185C20.3254 45.8133 18.9343 45.2044 17.602 44.4974C17.5778 44.4843 17.5575 44.466 17.5428 44.444C17.5282 44.422 17.5196 44.397 17.518 44.3712C17.5163 44.3455 17.5216 44.3198 17.5333 44.2963C17.545 44.2729 17.5629 44.2525 17.5852 44.2369C17.8656 44.0445 18.141 43.8462 18.4114 43.6421C18.4352 43.6242 18.4638 43.6127 18.4943 43.6089C18.5247 43.6051 18.5557 43.6093 18.5838 43.6208C27.3121 47.2805 36.7616 47.2805 45.3866 43.6208C45.4147 43.6085 45.446 43.6038 45.4769 43.6073C45.5078 43.6107 45.537 43.6221 45.5611 43.6402C45.8318 43.8453 46.108 44.0443 46.3894 44.2369C46.4119 44.2523 46.4299 44.2726 46.4418 44.296C46.4537 44.3193 46.4592 44.345 46.4577 44.3707C46.4563 44.3965 46.4479 44.4215 46.4334 44.4436C46.419 44.4657 46.3988 44.4842 46.3747 44.4974C45.0455 45.2103 43.6531 45.8189 42.2123 46.3165C42.19 46.3244 42.1696 46.3364 42.1527 46.352C42.1357 46.3675 42.1226 46.3862 42.114 46.4067C42.1054 46.4272 42.1017 46.4492 42.103 46.4712C42.1043 46.4931 42.1107 46.5146 42.1216 46.5341C42.9196 47.9494 43.8295 49.3091 44.844 50.6021C44.8646 50.6286 44.8937 50.6485 44.9273 50.659C44.9609 50.6694 44.9972 50.6699 45.0311 50.6604C49.8279 49.3119 54.339 47.2212 58.3701 44.4782C58.3898 44.465 58.4061 44.4482 58.4181 44.4288C58.43 44.4093 58.4373 44.3878 58.4395 44.3655C59.5519 33.8003 56.5772 24.6228 50.5543 16.487ZM23.1583 38.7991C20.5304 38.7991 18.3652 36.5835 18.3652 33.8625C18.3652 31.1415 20.4884 28.9257 23.1583 28.9257C25.849 28.9257 27.9933 31.1608 27.9513 33.8623C27.9513 36.5835 25.828 38.7991 23.1583 38.7991ZM40.8799 38.7991C38.2521 38.7991 36.0869 36.5835 36.0869 33.8625C36.0869 31.1415 38.2101 28.9257 40.8799 28.9257C43.5708 28.9257 45.715 31.1608 45.673 33.8623C45.673 36.5835 43.5708 38.7991 40.8799 38.7991Z" fill="#5865F2"/>
</svg>
