<svg width="49" height="48" viewBox="0 0 49 48" fill="none" xmlns="http://www.w3.org/2000/svg">
<g clip-path="url(#clip0_20172_13314)">
<path d="M21.8904 30.7441C21.2912 31.3433 21.2912 32.4218 21.8904 33.021C22.4896 33.6201 23.5681 33.6201 24.1673 33.021L32.0763 25.1119C32.6755 24.5127 32.6755 23.4342 32.0763 22.835L24.1673 14.9259C23.5681 14.3268 22.4896 14.3268 21.8904 14.9259C21.2912 15.5251 21.2912 16.6036 21.8904 17.2028L27.1631 22.4755H2.23754C1.39869 22.4755 0.679688 23.1945 0.679688 24.0334C0.679688 24.8722 1.39869 25.5912 2.23754 25.5912H27.0433L21.8904 30.7441Z" fill="#74BC1F"/>
<path d="M48.3745 20.7976C47.0563 11.2108 39.9861 3.18189 30.7588 0.7852C20.6927 -1.85116 10.3869 2.34305 4.87455 10.4918C4.27537 11.3306 4.51504 12.4091 5.35388 12.8885C6.07289 13.248 7.03157 13.1282 7.5109 12.4091C11.5853 6.29759 18.8952 2.46288 27.1638 3.42156C36.6307 4.50007 44.1803 12.1695 45.2588 21.6364C46.6968 34.219 36.8704 44.7645 24.6472 44.7645C17.4572 44.7645 11.2258 41.1694 7.39107 35.657C6.91173 34.938 5.95306 34.8182 5.23405 35.1777C4.39521 35.657 4.15554 36.7356 4.75471 37.4546C9.30842 44.0455 16.7382 48 24.6472 48C38.7877 48 50.2918 35.4174 48.3745 20.7976Z" fill="#74BC1F"/>
</g>
<defs>
<clipPath id="clip0_20172_13314">
<rect width="48" height="48" fill="white" transform="translate(0.664062)"/>
</clipPath>
</defs>
</svg>
