<svg width="65" height="64" viewBox="0 0 65 64" fill="none" xmlns="http://www.w3.org/2000/svg">
<path d="M31.4552 5.85938C31.4785 5.85938 31.5019 5.85938 31.5369 5.85938C31.6185 5.89437 31.7002 5.87104 31.7935 5.88271C31.8869 5.88271 31.9685 5.88271 32.0619 5.88271C32.2602 5.88271 32.4585 5.88271 32.6569 5.88271C32.7502 5.88271 32.8435 5.88271 32.9369 5.88271C33.0185 5.88271 33.0885 5.88271 33.1702 5.88271C35.6435 5.88271 37.9535 6.51271 40.1119 7.70271C41.3835 8.40271 42.5152 9.30104 43.5069 10.351C44.4635 11.3544 45.2569 12.486 45.9219 13.6994C47.3102 16.231 48.1035 18.9494 48.5002 21.796C48.6169 22.6594 48.6985 23.5344 48.7452 24.3977C48.8035 25.436 48.7569 26.4744 48.7802 27.501C48.7802 27.571 48.7802 27.641 48.7452 27.711C48.7102 27.851 48.5935 27.8744 48.4769 27.9094C47.5552 28.1777 46.6219 28.411 45.6885 28.6094C43.9852 28.9827 42.2585 29.2977 40.5319 29.531C39.3535 29.6827 38.1635 29.8227 36.9735 29.916C36.0752 29.986 35.1652 30.0327 34.2669 30.0794C33.1235 30.1377 31.9802 30.126 30.8485 30.1027C29.8335 30.0794 28.8185 30.0094 27.8035 29.9277C26.0185 29.7877 24.2335 29.5777 22.4719 29.286C20.4069 28.9477 18.3535 28.516 16.3469 27.9444C16.2185 27.9094 16.0785 27.8744 16.0202 27.7344C15.9735 27.6644 15.9735 27.5827 15.9735 27.5127C15.9735 26.591 15.9385 25.6577 15.9852 24.736C16.0552 23.0094 16.2652 21.306 16.6385 19.626C17.0002 18.0044 17.5135 16.4294 18.2135 14.9244C18.8785 13.4777 19.7185 12.136 20.7569 10.9227C21.6202 9.90771 22.6002 9.03271 23.7085 8.28604C25.0035 7.42271 26.4035 6.79271 27.8969 6.39604C28.7835 6.16271 29.6702 5.98771 30.5919 5.91771C30.8369 5.88271 31.1519 5.89437 31.4552 5.85938Z" fill="#040000"/>
<path d="M54.3033 47.1405C54.2216 47.3622 54.245 47.6072 54.1866 47.8405C54.14 48.0622 54.0816 48.2839 53.9766 48.4822C53.8483 48.7272 53.6966 48.7739 53.44 48.6689C53.0433 48.4939 52.74 48.1905 52.4483 47.8872C51.445 46.8022 50.605 45.5889 49.7883 44.3639C49.5783 44.0489 49.38 43.7339 49.1583 43.3839C49.1233 43.8389 49.1116 44.2589 49.0533 44.6672C48.8783 46.0322 48.47 47.3272 47.8866 48.5639C46.9533 50.5472 45.6466 52.2505 43.9783 53.6739C43.9666 53.6855 43.9666 53.6972 43.955 53.7089C43.9433 53.7905 43.885 53.8255 43.8266 53.8722C41.9833 55.3889 39.8833 56.4155 37.585 57.0339C36.5583 57.3022 35.5083 57.4889 34.4583 57.5939C33.7816 57.6639 33.105 57.6989 32.44 57.6405C32.37 57.6405 32.3116 57.6405 32.2416 57.6405C31.4833 57.6989 30.7366 57.6522 29.9783 57.5705C28.6133 57.4189 27.2716 57.1505 25.965 56.7072C24.0983 56.0772 22.395 55.1555 20.8666 53.9072C20.7966 53.8489 20.7266 53.8139 20.7033 53.7205C19.9333 53.0439 19.21 52.3089 18.5683 51.4922C17.1333 49.6605 16.1533 47.6072 15.6983 45.3205C15.5816 44.7489 15.5233 44.1655 15.5116 43.5705C15.5116 43.5239 15.5 43.4772 15.5 43.4305C15.43 43.4655 15.4066 43.5239 15.3716 43.5822C14.5083 44.9239 13.6216 46.2539 12.5833 47.4672C12.2683 47.8405 11.9416 48.1905 11.5566 48.4822C11.44 48.5639 11.3233 48.6455 11.1833 48.6922C10.95 48.7739 10.8216 48.7389 10.6933 48.5172C10.5416 48.2489 10.4833 47.9572 10.4366 47.6655C10.285 46.5455 10.3783 45.4255 10.53 44.3172C10.9733 41.1439 11.965 38.1105 13.0733 35.1122C13.26 34.6222 13.4233 34.1205 13.645 33.6539C13.7266 33.6072 13.8083 33.6422 13.89 33.6655C15.6866 34.2022 17.5183 34.6455 19.35 35.0305C19.4666 35.0539 19.595 35.0772 19.7116 35.1005C19.7933 35.1122 19.875 35.1355 19.9333 35.2172C19.9916 35.5089 19.8983 35.7889 19.8633 36.0689C19.7933 36.7222 19.735 37.3639 19.6766 38.0172C19.5833 39.2072 19.5833 40.3855 19.6066 41.5755C19.6533 43.6289 19.9216 45.6472 20.61 47.5839C21.1583 49.1239 21.9283 50.5472 23.0133 51.7839C24.67 53.6622 26.7466 54.8405 29.1966 55.3772C30.06 55.5639 30.935 55.6572 31.81 55.6922C33.2333 55.7505 34.6216 55.5989 35.9866 55.2372C37.6783 54.7939 39.195 54.0005 40.5133 52.8572C41.575 51.9355 42.415 50.8389 43.0916 49.6139C44.0366 47.8755 44.5616 46.0089 44.8066 44.0605C44.8883 43.4072 44.9233 42.7539 44.97 42.0889C45.0283 41.0855 45.0166 40.0822 44.9933 39.0789C44.9583 37.8889 44.8533 36.7105 44.6783 35.5439C44.6666 35.4505 44.6433 35.3689 44.6666 35.2755C44.7016 35.1355 44.83 35.1355 44.935 35.1122C46.2183 34.8555 47.5016 34.5522 48.7616 34.2255C49.4033 34.0622 50.045 33.8755 50.6866 33.6889C50.78 33.6655 50.8733 33.6189 50.9783 33.6422C51.0833 33.6889 51.1066 33.8055 51.1416 33.8989C51.4566 34.7039 51.7483 35.5205 52.04 36.3372C52.5883 37.8539 53.0666 39.3939 53.4633 40.9689C53.7783 42.1822 54.0233 43.4189 54.175 44.6672C54.2216 45.0055 54.2216 45.3555 54.2333 45.6939C54.2333 45.7522 54.21 45.8222 54.2566 45.8805C54.2566 45.9855 54.2566 46.0905 54.2566 46.1955C54.2216 46.4172 54.2216 46.6389 54.2566 46.8605C54.3033 46.9305 54.3033 47.0355 54.3033 47.1405Z" fill="#040000"/>
<path d="M32.6729 5.89437C32.4629 5.89437 32.2529 5.89437 32.0429 5.89437C32.0313 5.88271 32.0312 5.88271 32.0312 5.87104C32.0312 5.85937 32.0429 5.85938 32.0429 5.85938C32.2529 5.85938 32.4629 5.85938 32.6729 5.85938C32.6846 5.87104 32.6846 5.88271 32.6846 5.88271C32.6729 5.89437 32.6729 5.89437 32.6729 5.89437Z" fill="#040000"/>
<path d="M32.0495 5.85938C32.0495 5.87104 32.0495 5.88271 32.0495 5.89437C31.9561 5.89437 31.8628 5.89437 31.7695 5.89437C31.7578 5.88271 31.7578 5.88271 31.7578 5.87104C31.7578 5.85937 31.7695 5.85938 31.7695 5.85938C31.8628 5.85938 31.9561 5.85938 32.0495 5.85938Z" fill="#040000"/>
<path d="M32.6719 5.89437C32.6719 5.88271 32.6719 5.87104 32.6719 5.85938C32.7652 5.85938 32.8585 5.85938 32.9402 5.85938C32.9519 5.85938 32.9519 5.87104 32.9519 5.88271C32.9519 5.89437 32.9519 5.89437 32.9402 5.89437C32.8469 5.89437 32.7652 5.89437 32.6719 5.89437Z" fill="#040000"/>
<path d="M31.7646 5.85938C31.7646 5.87104 31.7646 5.88271 31.7646 5.89437C31.6829 5.88271 31.6012 5.95271 31.5312 5.85938C31.6129 5.85938 31.6946 5.85938 31.7646 5.85938Z" fill="#040000"/>
<path d="M32.9453 5.89437C32.9453 5.88271 32.9453 5.87104 32.9453 5.85938C33.027 5.85938 33.097 5.85938 33.1786 5.85938C33.1786 5.87104 33.1786 5.88271 33.1786 5.89437C33.1086 5.89437 33.027 5.89437 32.9453 5.89437Z" fill="#040000"/>
<path d="M48.6797 27.7675C49.263 29.2375 49.858 30.7075 50.4414 32.1775C50.6397 32.6675 50.8264 33.1575 51.013 33.6475C48.9714 34.2542 46.918 34.7559 44.8297 35.1759C44.7947 35.1875 44.748 35.1875 44.7247 35.2225C44.678 35.2809 44.5964 35.2925 44.5264 35.3042C42.5197 35.7009 40.4897 36.0042 38.4597 36.2259C37.4447 36.3425 36.418 36.4242 35.403 36.4825C35.018 36.5059 34.633 36.5409 34.248 36.5292C33.5247 36.5175 32.8014 36.5875 32.078 36.5642C31.3197 36.5409 30.5497 36.5292 29.7914 36.4942C29.2197 36.4709 29.313 36.4592 29.313 36.9492C29.313 38.9792 29.313 41.0209 29.313 43.0509C29.313 43.4709 29.2897 43.4825 28.8697 43.5409C27.7497 43.6809 26.6297 43.6809 25.5097 43.6459C24.4364 43.6109 23.3747 43.4942 22.3247 43.3192C22.0214 43.2725 21.9864 43.2259 21.9864 42.8992C21.9864 40.9159 21.9864 38.9209 21.9864 36.9375C21.9864 36.5759 21.9864 36.2259 21.9864 35.8642C21.9864 35.7009 21.928 35.6309 21.7647 35.5959C21.2397 35.5025 20.7264 35.4209 20.213 35.3042C20.1314 35.2809 20.0264 35.2809 19.968 35.1992C19.408 35.0825 18.848 34.9542 18.2997 34.8375C16.748 34.4875 15.208 34.0909 13.6797 33.6359C14.018 32.7725 14.368 31.8975 14.7064 31.0342C15.1147 30.0075 15.5347 28.9692 15.943 27.9425C15.9664 27.8842 15.9897 27.8259 16.013 27.7559C16.503 27.9425 17.0047 28.0592 17.5064 28.1875C19.128 28.6075 20.773 28.9342 22.4297 29.2025C23.7597 29.4242 25.0897 29.5875 26.4314 29.7275C28.753 29.9609 31.0864 30.0775 33.4197 30.0309C34.7497 30.0075 36.0797 29.9259 37.398 29.8092C38.938 29.6809 40.4664 29.4942 41.983 29.2492C44.188 28.8992 46.3697 28.4442 48.5047 27.8259C48.5747 27.8142 48.633 27.7909 48.6797 27.7675Z" fill="#DC2525"/>
<path d="M32.3573 21.9393C33.9673 21.9276 35.5306 22.021 37.094 22.2193C38.4589 22.3943 39.8006 22.6393 41.0956 23.1176C41.4106 23.2343 41.714 23.3626 41.9823 23.561C42.0523 23.6193 42.1223 23.6776 42.1923 23.736C42.3906 23.9576 42.3789 24.1326 42.1573 24.3193C41.7723 24.6343 41.3406 24.8676 40.8973 25.0893C38.8673 26.1043 36.744 26.8043 34.4923 27.1193C32.789 27.3643 31.0856 27.306 29.4056 26.9793C27.189 26.5476 25.089 25.8243 23.129 24.7043C22.919 24.5876 22.709 24.4593 22.534 24.296C22.324 24.1093 22.3123 23.946 22.499 23.736C22.639 23.5726 22.814 23.4676 23.0006 23.3626C23.7006 23.001 24.4473 22.791 25.2056 22.616C26.5473 22.301 27.9123 22.126 29.289 22.021C30.3273 21.9743 31.3656 21.9276 32.3573 21.9393Z" fill="#F0A71A"/>
<path d="M39.506 16.4432C39.4827 17.5982 39.2144 18.7065 38.4794 19.6399C38.071 20.1649 37.5577 20.5499 36.881 20.6432C36.076 20.7599 35.4344 20.4449 34.8977 19.8615C34.2794 19.1965 33.976 18.3799 33.8477 17.4932C33.6844 16.3382 33.8127 15.2065 34.3377 14.1449C34.606 13.5965 34.9794 13.1182 35.4927 12.7682C36.3444 12.1965 37.336 12.2549 38.106 12.9199C38.8294 13.5382 39.191 14.3665 39.3777 15.2765C39.471 15.6615 39.4944 16.0465 39.506 16.4432Z" fill="white"/>
<path d="M30.915 16.629C30.915 17.7256 30.67 18.7406 30.005 19.639C29.6083 20.164 29.1067 20.549 28.4417 20.654C27.73 20.7706 27.135 20.5256 26.61 20.059C25.91 19.429 25.525 18.6123 25.3383 17.7023C25.0583 16.384 25.175 15.1006 25.8167 13.899C26.0267 13.5023 26.3183 13.1523 26.68 12.8723C27.5783 12.184 28.6867 12.254 29.5267 13.0473C30.215 13.689 30.5883 14.494 30.7867 15.404C30.88 15.8006 30.9267 16.209 30.915 16.629Z" fill="white"/>
<path d="M20.7416 53.7109C21.5116 54.3293 22.3049 54.9009 23.1683 55.3793C24.8949 56.3476 26.7266 56.9776 28.6749 57.3159C29.8649 57.5259 31.0666 57.6193 32.2683 57.6309C31.7549 57.6776 31.2416 57.7359 30.7399 57.7709C28.6749 57.9109 26.5983 57.9926 24.5333 58.0276C22.9816 58.0509 21.4299 58.0393 19.8783 57.9693C18.8983 57.9226 17.9183 57.8526 16.9499 57.6309C16.8216 57.5959 16.7049 57.5609 16.5766 57.5259C15.9933 57.3626 15.9116 56.8843 16.0516 56.4293C16.1566 56.0793 16.3899 55.8343 16.6699 55.6126C17.3233 55.0993 18.0699 54.7376 18.8399 54.4226C19.4466 54.1543 20.0883 53.9443 20.7416 53.7109Z" fill="#F0A71A"/>
<path d="M32.4531 57.6407C33.0598 57.629 33.6781 57.6057 34.2848 57.559C37.4581 57.279 40.3865 56.334 42.9998 54.4674C43.3381 54.234 43.6531 53.9657 43.9798 53.7207C44.7848 53.989 45.5781 54.269 46.3481 54.619C46.9431 54.899 47.5265 55.2024 48.0515 55.6107C48.3898 55.879 48.6581 56.194 48.7281 56.649C48.7865 57.0574 48.6348 57.3374 48.2615 57.489C47.7598 57.699 47.2231 57.769 46.6865 57.839C44.7848 58.0607 42.8598 58.0724 40.9465 58.0607C39.2665 58.049 37.5865 58.0024 35.9065 57.909C34.7748 57.8507 33.6431 57.769 32.5115 57.6757C32.4881 57.6524 32.4765 57.6407 32.4531 57.6407Z" fill="#F0A71A"/>
<path d="M19.9855 35.1934C20.6505 35.31 21.3155 35.4384 21.9805 35.555C22.0505 35.5667 22.0621 35.6017 22.0621 35.66C22.0621 35.7067 22.0621 35.7534 22.0621 35.8C22.0621 38.18 22.0621 40.56 22.0621 42.94C22.0621 43.1384 22.1088 43.2084 22.3188 43.2434C23.9405 43.5117 25.5621 43.6284 27.2071 43.5817C27.8371 43.57 28.4671 43.5117 29.0971 43.4417C29.2488 43.4184 29.2838 43.3717 29.2838 43.2317C29.2838 41.4117 29.2838 39.5917 29.2838 37.7717C29.2838 37.375 29.2955 36.9784 29.2838 36.5817C29.2838 36.4417 29.3188 36.4067 29.4588 36.4184C31.0921 36.5 32.7255 36.5117 34.3705 36.465C35.9455 36.4184 37.5205 36.2784 39.0838 36.0917C40.9388 35.87 42.7821 35.59 44.6255 35.2167C44.6721 35.205 44.7188 35.2167 44.7655 35.2167C44.9405 36.3017 45.0455 37.3984 45.1038 38.495C45.1738 39.7667 45.1621 41.0384 45.1038 42.31C44.9638 45.0984 44.3805 47.7584 42.9105 50.1617C41.1955 52.9617 38.7221 54.6884 35.5255 55.4117C34.0088 55.75 32.4805 55.82 30.9405 55.68C28.7121 55.47 26.6588 54.7817 24.8388 53.44C23.0188 52.0984 21.7471 50.325 20.8955 48.2367C20.3005 46.7784 19.9505 45.2734 19.7871 43.71C19.6005 41.9134 19.5888 40.105 19.6821 38.2967C19.7055 37.2467 19.8105 36.22 19.9855 35.1934Z" fill="white"/>
<path d="M36.7363 15.8027C37.203 15.8261 37.6697 15.8961 38.1013 16.1177C38.4863 16.3161 38.533 16.7477 38.2063 17.0277C38.043 17.1677 37.8797 17.1561 37.7047 17.0627C37.3896 16.8877 37.0513 16.7711 36.6896 16.7477C36.0596 16.7127 35.5463 16.9577 35.1146 17.3894C34.9046 17.5994 34.7763 17.6227 34.613 17.4944C34.438 17.3427 34.403 17.1211 34.5663 16.8994C35.103 16.1644 35.838 15.8261 36.7363 15.8027Z" fill="#040000"/>
<path d="M27.6797 16.8099C27.6797 16.4249 27.7847 16.0399 28.0297 15.7016C28.4847 15.0716 29.243 15.0483 29.7447 15.6316C30.3164 16.2849 30.3047 17.4516 29.733 18.1049C29.2664 18.6416 28.5664 18.6299 28.1114 18.0933C27.808 17.7316 27.6797 17.2999 27.6797 16.8099Z" fill="#040000"/>
</svg>
