<svg width="64" height="64" viewBox="0 0 64 64" fill="none" xmlns="http://www.w3.org/2000/svg">
<path d="M19.7187 8.0432C21.6921 10.5692 30.168 21.427 31.9655 23.728L23.8111 31.9941C18.9389 28.0861 9.00569 20.1195 4.08306 16.1705C4.0254 16.1252 4.0254 16.0492 4.07729 15.9967L12.778 7.17831C14.6404 5.29075 17.7107 5.47191 19.3454 7.56546L19.7187 8.0432Z" fill="#74BC1F"/>
<path d="M8.35037 44.4121C10.8427 42.4121 21.5557 33.8217 23.826 31.9998L31.9819 40.2645C28.9533 44.1419 23.457 51.1822 19.3488 56.4446C17.7185 58.5323 14.6597 58.7076 12.8031 56.8244L4 47.9024L8.35037 44.4121Z" fill="#74BC1F"/>
<path d="M44.2624 55.9512C42.289 53.4252 33.8117 42.5674 32.0156 40.2664L40.17 32.0003C45.0422 35.9083 54.9754 43.8749 59.898 47.8239C59.9557 47.8692 59.9557 47.9452 59.9038 47.9978L51.2031 56.8161C49.3407 58.7037 46.2704 58.5225 44.6357 56.429L44.2624 55.9512Z" fill="#74BC1F"/>
<path d="M55.6471 19.5818C53.1548 21.5819 42.4418 30.1723 40.1715 31.9941L32.0156 23.7295C35.0225 19.8799 40.4612 12.9126 44.5593 7.66481C46.292 5.44415 49.322 5.27176 51.2982 7.27327L59.9975 16.0916L55.6471 19.5818Z" fill="#74BC1F"/>
</svg>
