<svg width="65" height="64" viewBox="0 0 65 64" fill="none" xmlns="http://www.w3.org/2000/svg">
<path d="M42.573 23.4535C43.2174 23.4535 43.8528 23.5022 44.482 23.5729C42.7676 15.4045 34.2296 9.33398 24.4849 9.33398C13.5895 9.33398 4.66406 16.9319 4.66406 26.5791C4.66406 32.1468 7.63414 36.7197 12.5955 40.2665L10.6134 46.3677L17.5416 42.8122C20.0222 43.3135 22.0103 43.8305 24.4849 43.8305C25.1066 43.8305 25.7221 43.7992 26.3347 43.7489C25.9471 42.3943 25.7221 40.9738 25.7221 39.5012C25.7222 30.6429 33.1581 23.4535 42.573 23.4535ZM31.9177 17.955C33.4103 17.955 34.3983 18.9607 34.3983 20.4866C34.3983 22.0062 33.4103 23.0245 31.9177 23.0245C30.4311 23.0245 28.9415 22.0062 28.9415 20.4866C28.9415 18.9607 30.4312 17.955 31.9177 17.955ZM18.0462 23.0244C16.5596 23.0244 15.0608 22.0061 15.0608 20.4866C15.0608 18.9606 16.5596 17.9549 18.0462 17.9549C19.5312 17.9549 20.5207 18.9606 20.5207 20.4866C20.5207 22.0062 19.5312 23.0244 18.0462 23.0244ZM60.6641 39.2576C60.6641 31.1505 52.7342 24.5425 43.8285 24.5425C34.3983 24.5425 26.9716 31.1505 26.9716 39.2576C26.9716 47.3766 34.3983 53.9704 43.8285 53.9704C45.8014 53.9704 47.7927 53.4643 49.7746 52.9552L55.2119 56.0007L53.7207 50.9343C57.7002 47.8794 60.6641 43.8305 60.6641 39.2576ZM38.3625 36.7197C37.3761 36.7197 36.3805 35.7156 36.3805 34.6909C36.3805 33.6805 37.3761 32.6638 38.3625 32.6638C39.8612 32.6638 40.8432 33.6805 40.8432 34.6909C40.8432 35.7156 39.8612 36.7197 38.3625 36.7197ZM49.264 36.7197C48.2852 36.7197 47.2956 35.7156 47.2956 34.6909C47.2956 33.6805 48.2852 32.6638 49.264 32.6638C50.7506 32.6638 51.7446 33.6805 51.7446 34.6909C51.7446 35.7156 50.7506 36.7197 49.264 36.7197Z" fill="#20BF64"/>
</svg>
