<svg width="165" height="165" viewBox="0 0 165 165" fill="none" xmlns="http://www.w3.org/2000/svg">
<rect x="2.75" y="2.75" width="159.5" height="159.5" rx="17.875" stroke="white" stroke-width="5.5"/>
<path d="M95.0603 109.945L63.9717 109.945L63.9717 103.153L54.6592 103.153L54.6592 96.0815L44.0863 96.0815L44.0863 49.0985L113.195 49.0985L113.195 80.7473L106.193 80.7473L106.193 56.1005L51.0882 56.1005L51.0882 89.0796L61.6611 89.0796L61.6611 96.1515L70.9737 96.1515L70.9737 102.943L88.0584 102.943L88.0584 95.8714L102.412 95.8714L102.412 102.873L95.0603 102.873L95.0603 109.945Z" fill="white"/>
<path d="M102.404 132.074L41.9073 132.074C34.2052 132.074 27.9035 125.772 27.9035 118.07L27.9035 40.699C27.9035 32.9969 34.2052 26.6952 41.9073 26.6952L115.848 26.6952C123.55 26.6952 129.852 32.9969 129.852 40.699L129.852 79.4897L122.85 79.4897L122.85 40.699C122.85 36.848 119.699 33.6971 115.848 33.6971L41.9773 33.6971C38.1263 33.6971 34.9754 36.848 34.9754 40.699L34.9754 118.07C34.9754 121.921 38.1263 125.072 41.9773 125.072L102.404 125.072L102.404 132.074Z" fill="white"/>
<path d="M114.798 86.7728L132.513 86.7728L120.68 101.407L137.555 101.407L101.845 138.867L111.928 114.22L99.6042 114.22L114.798 86.7728Z" fill="white"/>
<path d="M60.0973 59.6563L55.3359 59.6562L55.3359 78.4214L60.0972 78.4214L60.0973 59.6563Z" fill="white"/>
<path d="M67.3707 59.6563L62.6094 59.6562L62.6094 78.4214L67.3707 78.4214L67.3707 59.6563Z" fill="white"/>
<path d="M74.566 59.6563L69.8047 59.6562L69.8047 78.4214L74.566 78.4214L74.566 59.6563Z" fill="white"/>
<path d="M81.7769 59.6563L77.0156 59.6562L77.0156 78.4214L81.7769 78.4214L81.7769 59.6563Z" fill="white"/>
<path d="M88.9722 59.6563L84.2109 59.6562L84.2109 78.4214L88.9722 78.4214L88.9722 59.6563Z" fill="white"/>
<path d="M96.1754 59.6563L91.4141 59.6562L91.4141 78.4214L96.1754 78.4214L96.1754 59.6563Z" fill="white"/>
<path d="M103.371 59.6563L98.6094 59.6562L98.6094 78.4214L103.371 78.4214L103.371 59.6563Z" fill="white"/>
</svg>
