<svg width="165" height="165" viewBox="0 0 165 165" fill="none" xmlns="http://www.w3.org/2000/svg">
<rect x="2.75" y="2.75" width="159.5" height="159.5" rx="17.875" stroke="white" stroke-width="5.5"/>
<path d="M45.6682 52.0648L43.8714 61.7806H37.25L42.5072 33.3984H54.0198C57.3804 33.3984 59.9091 34.2635 61.5395 35.9938C63.1699 37.724 63.7689 39.9533 63.2698 42.7482C62.7707 45.5432 61.3399 47.8058 59.044 49.5027C56.7482 51.1997 53.9199 52.0648 50.5593 52.0648H45.6349H45.6682ZM46.5998 47.0072H51.5243C52.955 47.0072 54.1196 46.608 55.018 45.8427C55.9163 45.0774 56.482 44.0459 56.7149 42.8148C56.9478 41.5837 56.7815 40.5189 56.1825 39.7204C55.5836 38.9218 54.5854 38.5225 53.1547 38.5225H48.2302L46.6664 47.0405L46.5998 47.0072Z" fill="white"/>
<path d="M87.4085 51.8327V51.9658C86.6765 55.2931 85.2125 57.8219 83.0497 59.5854C80.8869 61.3489 78.0587 62.214 74.565 62.214C71.0713 62.214 68.4094 61.1492 66.6127 58.9865C64.8159 56.8237 64.2503 54.0288 64.8824 50.5683L65.9805 44.6457C66.6127 41.2185 68.1765 38.4236 70.7053 36.2608C73.2341 34.098 76.1621 33 79.556 33C83.1495 33 85.7116 33.8984 87.2754 35.6951C88.8393 37.4919 89.4382 40.0539 89.0722 43.3813L89.0056 43.5144H82.5839C82.8501 41.6843 82.6837 40.2869 82.118 39.3885C81.5524 38.4901 80.3878 38.0575 78.6243 38.0575C77.127 38.0575 75.8294 38.6565 74.7646 39.8543C73.6999 41.0521 72.9679 42.616 72.6019 44.5791L71.5038 50.5351C71.1378 52.4982 71.3042 54.0953 72.0362 55.2931C72.7682 56.491 73.9328 57.0899 75.5632 57.0899C77.1936 57.0899 78.3581 56.6573 79.1567 55.8255C79.9553 54.9937 80.5875 53.6295 81.02 51.7994H87.4418L87.4085 51.8327Z" fill="white"/>
<path d="M96.133 61.7806H89.5781L94.802 33.3984H101.357L96.0997 61.7806H96.133Z" fill="white"/>
<path d="M110.226 62.2129C107.132 62.2129 104.836 61.248 103.338 59.2849C101.841 57.3217 101.375 54.8928 101.908 51.9647L102.041 51.2327C102.64 48.0385 103.971 45.4099 106.034 43.3802C108.096 41.3505 110.692 40.3191 113.819 40.3523C116.681 40.3523 118.777 41.2174 120.075 42.9144C121.373 44.6113 121.772 46.9405 121.206 49.9018L120.574 53.3622H108.529L108.462 53.4953C108.396 54.5601 108.695 55.4584 109.294 56.1572C109.893 56.8559 110.825 57.1887 112.056 57.1887C113.287 57.1887 114.319 57.0888 115.117 56.8892C115.916 56.6896 116.914 56.3568 118.145 55.891L118.977 59.9171C117.945 60.5825 116.648 61.1482 115.084 61.614C113.52 62.0798 111.923 62.2795 110.259 62.2795L110.226 62.2129ZM112.855 45.3766C111.89 45.3766 111.124 45.7094 110.525 46.3748C109.927 47.0403 109.461 47.9387 109.161 49.07V49.1698H114.884L114.984 48.6707C115.184 47.6059 115.117 46.7741 114.784 46.2085C114.452 45.6428 113.819 45.3433 112.888 45.3433L112.855 45.3766Z" fill="white"/>
<path d="M64.4411 130.62H25.7109L27.2415 122.269L48.5032 103.569C51.2316 100.974 53.3278 98.678 54.7586 96.6483C56.1893 94.6186 57.0544 92.8552 57.3206 91.3579C57.7199 89.2284 57.487 87.5314 56.6551 86.267C55.8233 85.0027 54.326 84.3705 52.1632 84.3705C50.2334 84.3705 48.5697 85.2023 47.1722 86.8327C45.7748 88.4631 44.8431 90.5593 44.3773 93.0881H31.8V92.8552C32.5985 87.7311 35.0607 83.4055 39.1866 79.8453C43.3125 76.285 48.237 74.4883 53.96 74.4883C60.049 74.4883 64.5077 75.9856 67.3692 78.9802C70.2307 81.9748 71.1623 86.0674 70.1974 91.258C69.5652 94.7517 68.0679 97.8462 65.772 100.541C63.4762 103.236 59.3836 107.229 53.5275 112.52L44.5436 120.539L44.6102 120.771H66.2046L64.3746 130.654L64.4411 130.62Z" fill="white"/>
<path d="M85.4196 130.626H72.6094L74.6058 119.812H87.416L85.4196 130.626Z" fill="white"/>
<path d="M136.803 108.762C135.405 116.248 132.644 121.872 128.451 125.698C124.259 129.524 119.235 131.421 113.378 131.421C107.522 131.421 103.097 129.524 100.335 125.698C97.5736 121.872 96.8749 116.248 98.2391 108.762L100.402 97.1162C101.799 89.6297 104.561 84.0065 108.687 80.18C112.813 76.3536 117.87 74.457 123.826 74.457C129.782 74.457 134.074 76.3869 136.869 80.18C139.631 84.0065 140.363 89.663 138.966 97.0829L136.803 108.729V108.762ZM126.289 96.2511C127.054 92.0254 127.087 88.9642 126.289 87.1342C125.523 85.2709 124.092 84.3725 121.963 84.3725C119.834 84.3725 118.07 85.3041 116.639 87.1342C115.209 88.9975 114.11 92.0254 113.345 96.2511L110.883 109.56C110.084 113.853 110.051 116.947 110.816 118.777C111.582 120.607 113.012 121.539 115.175 121.539C117.338 121.539 119.035 120.607 120.466 118.777C121.896 116.947 122.994 113.853 123.793 109.56L126.255 96.2511H126.289Z" fill="white"/>
</svg>
