<svg width="165" height="165" viewBox="0 0 165 165" fill="none" xmlns="http://www.w3.org/2000/svg">
<rect x="2.75" y="2.75" width="159.5" height="159.5" rx="17.875" stroke="white" stroke-width="5.5"/>
<path d="M63.3726 97.7093C62.5903 97.15 61.9124 96.6855 61.2534 96.202C54.8673 91.4954 50.6099 85.2719 48.211 77.7545C47.3671 75.1049 46.9688 72.3605 46.7697 69.5925C46.3857 64.2459 47.3434 59.1126 49.3535 54.169C52.4209 46.6231 57.489 40.7741 64.4962 36.6694C70.797 32.977 77.6477 31.3418 84.9345 31.8821C94.2126 32.5742 102.087 36.3139 108.516 43.0777C112.864 47.6564 115.765 53.0314 117.249 59.1363C118.088 62.5917 118.524 66.1229 118.235 69.7157C117.595 77.6407 114.769 84.6605 109.607 90.7085C104.562 96.6239 98.1903 100.402 90.6759 102.26C88.0968 102.899 85.4513 103.174 82.8011 103.264C81.9288 103.293 81.0469 103.103 80.1699 103.037C80.0229 103.027 79.819 103.07 79.7242 103.165C77.1072 105.8 74.5044 108.45 71.8826 111.08C69.5359 113.431 67.1606 115.754 64.8091 118.1C64.3492 118.555 63.9415 119.062 63.5006 119.541C60.6655 122.622 57.1477 123.674 53.1748 122.579C49.1829 121.484 46.7839 118.731 45.9116 114.64C45.0582 110.644 47.2059 105.796 51.34 103.795C54.1798 102.416 56.9818 100.956 59.8074 99.5436C60.7176 99.0886 61.6516 98.6668 62.5666 98.2165C62.8226 98.0885 63.0502 97.9131 63.3773 97.6998L63.3726 97.7093ZM83.9247 99.0554C83.9437 99.1123 83.9674 99.1692 83.9863 99.2261C85.0957 99.1171 86.2099 99.0697 87.305 98.8943C94.0562 97.8136 99.9587 94.9555 104.785 90.0971C112.731 82.101 115.722 72.4506 113.698 61.3925C112.2 53.2115 107.876 46.6278 101.144 41.779C93.2976 36.1243 84.5505 34.4938 75.1302 36.622C68.1183 38.2098 62.3154 41.8501 57.8494 47.4526C50.6715 56.4536 48.8984 66.559 52.2882 77.5175C53.8338 82.5228 56.6594 86.7982 60.4569 90.4289C62.3722 92.2585 64.4867 93.8037 66.7576 95.1593C67.4166 95.5527 67.886 95.51 68.5545 95.1735C77.3964 90.6564 86.2573 86.1772 95.1134 81.6933C95.6396 81.4279 96.1659 81.1482 96.7159 80.9634C98.0101 80.5273 99.2523 81.4848 99.2428 82.8499C99.2333 83.6414 98.7402 84.1486 98.2424 84.651C93.5489 89.3529 88.8506 94.0549 84.157 98.7568C84.0669 98.8469 83.9958 98.9606 83.92 99.0602L83.9247 99.0554ZM86.7266 90.5569C86.6792 90.5047 86.6318 90.4526 86.5844 90.4052C85.8922 90.7654 85.2048 91.1304 84.5126 91.4811C76.3202 95.6285 68.1278 99.7759 59.9306 103.923C57.8494 104.976 55.7965 106.104 53.6631 107.042C51.2594 108.094 49.6996 110.194 49.6664 112.777C49.6333 115.356 51.1314 117.636 53.5019 118.617C55.8724 119.598 58.5795 119.02 60.3763 117.129C61.0258 116.446 61.6232 115.711 62.2869 115.043C65.525 111.777 68.7773 108.521 72.0343 105.274C76.6141 100.705 81.1986 96.1452 85.7784 91.5807C86.1056 91.2536 86.409 90.9029 86.7219 90.5616L86.7266 90.5569Z" fill="white"/>
<path d="M48.6139 129.878C48.6518 131.888 47.0683 133.902 44.6314 133.931C42.3605 133.959 40.6158 132.357 40.5637 129.973C40.5068 127.513 42.5075 125.916 44.5651 125.868C46.7791 125.821 48.5854 127.612 48.6139 129.878Z" fill="white"/>
<path d="M116.383 129.788C116.425 127.593 118.237 125.834 120.413 125.868C122.537 125.901 124.495 127.583 124.438 129.968C124.381 132.333 122.575 133.949 120.346 133.94C118.237 133.93 116.326 132.153 116.388 129.788H116.383Z" fill="white"/>
<path d="M48.6194 33.855C48.6289 36.0069 46.8131 37.7606 44.5801 37.7606C42.4751 37.7606 40.4081 35.7746 40.5456 33.7033C40.6925 31.3997 42.295 29.7455 44.5612 29.6887C46.6472 29.6365 48.6858 31.3571 48.6242 33.855H48.6194Z" fill="white"/>
<path d="M120.394 37.7676C118.554 37.8055 116.359 36.1892 116.383 33.824C116.407 31.2597 118.436 29.6719 120.37 29.6956C122.764 29.7288 124.447 31.4778 124.438 33.7434C124.428 36.2034 122.428 37.7344 120.399 37.7676H120.394Z" fill="white"/>
<path d="M82.437 80.6853C75.4251 80.7659 69.0485 74.6988 69.2713 67.1482C69.4657 60.6546 74.5385 54.2037 82.5839 54.27C91.0039 54.3411 95.9013 61.323 95.7212 67.8545C95.5221 75.0733 89.373 80.8085 82.437 80.6853ZM82.5128 58.2231C77.3499 58.2515 73.1684 62.4084 73.1921 67.4943C73.2158 72.6086 77.4542 76.8507 82.5128 76.8176C87.6947 76.7844 91.8336 72.5422 91.8004 67.2857C91.7719 62.3562 87.5051 58.1946 82.5128 58.2183V58.2231Z" fill="white"/>
<path d="M50.8677 113.546C50.8345 111.57 52.3279 109.498 54.8454 109.508C57.1021 109.517 58.7235 111.029 58.8895 113.456C59.0269 115.542 57.0547 117.504 54.9734 117.537C52.7594 117.575 50.9057 115.769 50.8677 113.546Z" fill="white"/>
<rect x="34.1953" y="24.5625" width="96.25" height="118.25" rx="3.4375" stroke="white" stroke-width="4.125"/>
</svg>
