<svg width="165" height="165" viewBox="0 0 165 165" fill="none" xmlns="http://www.w3.org/2000/svg">
<rect x="2.75" y="2.75" width="159.5" height="159.5" rx="17.875" stroke="white" stroke-width="5.5"/>
<path d="M36.345 66.8236C36.3863 63.3552 37.2206 60.204 39.6303 57.9874C42.8689 55.0082 46.3945 52.3141 49.9689 49.7343C51.8876 48.3496 54.3206 48.1276 56.6953 48.1276C72.9046 48.1276 89.1147 48.1193 105.324 48.1324C110.567 48.1365 113.898 51.5172 113.909 56.7733C113.91 57.3948 113.909 58.0162 113.909 58.8199L115.287 58.8199C121.763 58.8199 128.238 58.8158 134.714 58.8213C139.987 58.8254 143.298 62.128 143.304 67.415C143.315 77.7086 143.316 88.0022 143.304 98.2958C143.297 103.556 139.965 106.837 134.662 106.841C127.812 106.846 120.961 106.842 113.909 106.842C113.909 107.525 113.909 108.169 113.909 108.815C113.901 114.213 110.582 117.524 105.146 117.532C98.5454 117.542 91.9446 117.535 85.3439 117.535C75.9441 117.535 66.5436 117.504 57.1444 117.55C53.353 117.567 50.0087 116.503 47.095 114.055C45.3067 112.553 43.454 111.126 41.6245 109.672C38.3736 107.087 36.571 103.755 36.3835 99.5867C36.376 99.4209 36.3499 99.2557 36.3238 99.0913C36.3183 99.0557 36.2771 99.0255 36.1377 98.8391C35.8108 98.8391 35.3658 98.8391 34.9215 98.8391C31.8299 98.8385 28.7383 98.8693 25.6473 98.8275C22.6601 98.7871 20.3713 96.5904 20.3493 93.6187C20.2964 86.4509 20.2985 79.2825 20.3445 72.1147C20.3644 69.0615 22.6422 66.8661 25.6995 66.8326C28.7492 66.799 31.799 66.8243 34.8487 66.8236C35.3012 66.8236 35.7538 66.8236 36.3457 66.8236L36.345 66.8236ZM108.582 82.9242C108.582 74.2141 108.587 65.504 108.578 56.7938C108.576 54.5574 107.642 53.5132 105.571 53.5118C89.068 53.5008 72.5661 53.5077 56.0635 53.509C54.195 53.509 52.5461 54.1271 51.0937 55.283C49.0034 56.9453 46.915 58.6096 44.8315 60.2794C42.7055 61.9835 41.6912 64.2049 41.6932 66.9216C41.7015 77.5071 41.7063 88.0926 41.6905 98.6781C41.6864 101.496 42.7549 103.762 44.9682 105.509C46.8354 106.982 48.7177 108.438 50.5395 109.966C52.3861 111.514 54.4614 112.182 56.8773 112.176C72.9198 112.14 88.9629 112.159 105.005 112.157C107.744 112.157 108.58 111.312 108.581 108.554C108.583 100.01 108.582 91.4672 108.581 82.9236L108.582 82.9242ZM113.971 101.469C114.435 101.49 114.842 101.526 115.249 101.526C121.643 101.529 128.037 101.531 134.43 101.526C137.067 101.524 137.98 100.617 137.98 98.0087C137.982 87.9207 137.982 77.8326 137.98 67.7452C137.98 65.0243 137.102 64.1357 134.398 64.1343C128.046 64.1309 121.695 64.1329 115.343 64.1329L113.97 64.1329L113.97 101.468L113.971 101.469ZM25.7181 93.4316L36.2517 93.4316L36.2517 72.2038L25.7181 72.2038L25.7181 93.4316Z" fill="white"/>
<path d="M71.0437 80.0995C71.7757 80.0995 72.2185 80.0995 72.6613 80.0995C80.6003 80.0995 88.5386 80.0995 96.4776 80.0995C96.8514 80.0995 97.2273 80.0827 97.5991 80.1127C99.2119 80.2453 100.323 81.3928 100.296 82.8787C100.27 84.3207 99.1975 85.4556 97.6394 85.5463C96.3136 85.6231 94.9803 85.5742 93.6504 85.5749C88.0015 85.5763 82.3519 85.5749 76.3694 85.5749C77.7731 87.479 79.0073 89.1897 80.3003 90.8529C80.4445 91.0385 80.9249 90.9841 81.2489 90.9855C83.9086 90.9946 86.5691 90.982 89.2288 90.9939C91.1061 91.003 92.3328 92.1078 92.3123 93.7362C92.2918 95.3177 91.1095 96.3891 89.2931 96.4003C86.0094 96.4205 82.7257 96.3786 79.4426 96.4198C78.1503 96.4359 77.2455 95.8963 76.4986 94.8578C74.5065 92.0883 72.4413 89.3739 70.4745 86.5863C69.9202 85.8004 69.3264 85.5477 68.4038 85.5554C63.3747 85.5994 58.3456 85.5819 53.3158 85.5687C52.7397 85.5673 52.1431 85.5372 51.5923 85.3851C50.4613 85.0717 49.7273 83.9934 49.7376 82.8145C49.7478 81.6322 50.4968 80.5831 51.6374 80.2781C52.1513 80.1406 52.7035 80.1106 53.2386 80.1085C56.5223 80.0939 59.806 80.068 63.089 80.1225C64.0103 80.1378 64.6062 79.881 65.1604 79.0951C67.1279 76.3081 69.1986 73.5966 71.1832 70.8215C71.9636 69.7292 72.9149 69.2329 74.2475 69.2546C77.4471 69.3062 80.6482 69.2609 83.8485 69.2755C85.8003 69.2846 86.9354 70.2938 86.932 71.9689C86.9285 73.6378 85.7647 74.6728 83.8458 74.6805C81.186 74.6917 78.5255 74.6645 75.8658 74.7042C75.468 74.7105 74.9316 74.8745 74.7026 75.1649C73.5074 76.6809 72.3914 78.2617 71.0431 80.0988L71.0437 80.0995Z" fill="white"/>
<path d="M132.732 74.5667C132.732 75.4379 132.779 76.3126 132.722 77.1797C132.616 78.7704 131.602 79.79 130.181 79.818C128.703 79.8467 127.592 78.8169 127.524 77.1804C127.45 75.3996 127.446 73.61 127.53 71.83C127.603 70.2556 128.693 69.2539 130.12 69.2539C131.547 69.2539 132.598 70.2563 132.716 71.83C132.783 72.7375 132.728 73.6545 132.728 74.5674C132.729 74.5674 132.73 74.5674 132.732 74.5674L132.732 74.5667Z" fill="white"/>
<path d="M132.735 91.19C132.735 92.0202 132.772 92.8517 132.727 93.6792C132.638 95.345 131.627 96.4007 130.159 96.4199C128.686 96.439 127.588 95.4018 127.521 93.7612C127.449 92.0215 127.451 90.2744 127.519 88.5347C127.583 86.8866 128.666 85.846 130.139 85.8555C131.611 85.8651 132.634 86.9146 132.726 88.5764C132.774 89.4448 132.735 90.3188 132.735 91.19L132.735 91.19Z" fill="white"/>
</svg>
