<svg width="165" height="165" viewBox="0 0 165 165" fill="none" xmlns="http://www.w3.org/2000/svg">
<rect x="2.75" y="2.75" width="159.5" height="159.5" rx="17.875" stroke="white" stroke-width="5.5"/>
<path d="M134.75 108.453V43.1406C134.75 41.3343 133.291 39.875 131.484 39.875H33.5156C31.7093 39.875 30.25 41.3343 30.25 43.1406V108.453C30.25 110.259 31.7093 111.719 33.5156 111.719H78.418C78.867 111.719 79.2344 112.086 79.2344 112.535V114.984C79.2344 116.791 77.775 118.25 75.9688 118.25H58.0078C56.2015 118.25 54.7422 119.709 54.7422 121.516C54.7422 123.322 56.2015 124.781 58.0078 124.781H106.992C108.798 124.781 110.258 123.322 110.258 121.516C110.258 119.709 108.798 118.25 106.992 118.25H89.0312C87.225 118.25 85.7656 116.791 85.7656 114.984V112.535C85.7656 112.086 86.133 111.719 86.582 111.719H131.484C133.291 111.719 134.75 110.259 134.75 108.453ZM36.7812 103.555V48.0391C36.7812 47.141 37.516 46.4062 38.4141 46.4062H126.586C127.484 46.4062 128.219 47.141 128.219 48.0391V103.555C128.219 104.453 127.484 105.188 126.586 105.188H38.4141C37.516 105.188 36.7812 104.453 36.7812 103.555Z" fill="white"/>
</svg>
