<svg width="121" height="120" viewBox="0 0 121 120" fill="none" xmlns="http://www.w3.org/2000/svg">
<rect width="120" height="120" transform="translate(0.164062)" fill="white"/>
<circle cx="60.1641" cy="60" r="17.5" fill="white"/>
<g clip-path="url(#clip0_13334_17753)">
<path d="M33.8619 101.004C32.3776 97.8006 30.9436 94.7075 29.4544 91.489C27.8333 92.2646 26.2375 93.0289 24.5509 93.8343C19.7624 83.472 14.9972 73.1633 10.2386 62.8632C13.0469 60.9272 13.161 60.5672 11.9405 57.4636C37.7309 45.0102 63.5264 32.5537 89.3147 20.0997C91.1324 23.185 91.595 23.3383 94.72 21.8844C99.4985 32.226 104.276 42.5697 109.099 53.0043C106.732 54.1534 104.452 55.2625 102.08 56.4127C103.533 59.5695 104.975 62.6986 106.467 65.9404C96.1358 70.9309 85.8411 75.9017 75.4318 80.9277C74.6676 79.1269 73.5744 77.5766 71.5207 77.4169C70.5144 77.3391 69.3474 77.5546 68.4585 78.0321C66.1266 79.2831 65.6844 81.6207 67.0039 84.9924C55.9854 90.3133 44.961 95.6394 33.861 100.999L33.8619 101.004ZM38.8534 86.9463C39.7349 88.8643 40.5701 90.6818 41.4283 92.5461C40.737 92.8823 40.1688 93.1567 39.5316 93.4645C38.6422 91.5512 37.7976 89.7357 36.9291 87.8686C35.0277 88.7881 33.2104 89.6669 31.3621 90.5622C32.5641 93.1552 33.7089 95.6223 34.8831 98.1536C44.7783 93.3737 54.5505 88.6556 64.2827 83.954C64.2526 83.7021 64.246 83.5942 64.2285 83.4857C63.6816 80.2195 65.049 77.3104 67.7839 75.9212C70.6267 74.4775 73.667 75.0619 75.9069 77.5899C76.4366 78.1878 76.8094 77.9062 77.2803 77.6802C84.4551 74.2188 91.6278 70.7569 98.8011 67.2928C100.406 66.5175 102.008 65.7321 103.664 64.9253C102.473 62.3488 101.328 59.8727 100.157 57.3377C98.6839 58.0513 97.2693 58.7354 95.7659 59.4613C96.6275 61.3378 97.4637 63.1601 98.3316 65.0541C97.6725 65.3696 97.0811 65.6558 96.432 65.9672C95.5422 64.0471 94.6996 62.2321 93.841 60.3857C93.1193 60.7364 92.4869 61.0432 91.8114 61.3701C92.6959 63.2934 93.5275 65.1077 94.3882 66.9794C93.6952 67.2972 93.0957 67.5722 92.4736 67.857C91.5887 65.9517 90.7465 64.1436 89.8834 62.2893C89.0979 62.6792 88.4632 62.9945 87.8007 63.3227C88.6642 65.2087 89.4977 67.0325 90.3591 68.918C89.6774 69.2432 89.0845 69.5268 88.4637 69.8233C87.5703 67.8999 86.7387 66.1104 85.8707 64.2412C85.2567 64.5372 84.6906 64.8122 84.0535 65.12C84.9188 67.0156 85.7508 68.8367 86.6101 70.7217C85.9625 71.0357 85.391 71.3138 84.7261 71.6345C83.841 69.7381 82.9879 67.9045 82.1173 66.0369C81.3722 66.4084 80.7475 66.7196 80.1002 67.0405C80.9812 68.9606 81.807 70.7552 82.6616 72.6163C82.0186 72.9294 81.4141 73.2234 80.7685 73.538C79.896 71.6608 79.0514 69.8453 78.1719 67.9527C77.4174 68.3262 76.7628 68.6497 76.0803 68.986C76.9588 70.8987 77.7935 72.7183 78.6457 74.5719C77.9634 74.8993 77.3899 75.1768 76.7533 75.4825C75.8718 73.5894 75.0266 71.776 74.147 69.8924C68.9182 72.4169 63.7608 74.9065 58.5352 77.4273C59.4047 79.324 60.2403 81.1484 61.1068 83.0398C60.4525 83.3453 59.8461 83.6298 59.2018 83.9312C58.3239 82.0413 57.4802 80.2305 56.6096 78.3629C55.8805 78.7161 55.2791 79.0064 54.5837 79.3415C55.4567 81.2414 56.2889 83.0536 57.1595 84.9461C56.4951 85.2647 55.9222 85.54 55.263 85.8555C54.393 83.9858 53.5328 82.1458 52.6542 80.258C51.8986 80.6356 51.2634 80.953 50.5719 81.2982C51.438 83.1827 52.2747 85.0029 53.1333 86.8741C52.4519 87.2062 51.8825 87.4848 51.249 87.7959C50.3658 85.909 49.5144 84.094 48.6361 82.222C48.0001 82.5257 47.4362 82.7922 46.8186 83.0849C47.7016 85.0056 48.5354 86.8204 49.3984 88.6996C48.7128 89.0147 48.1101 89.2934 47.4854 89.5798C46.6108 87.7021 45.7786 85.9147 44.9046 84.0349C44.2103 84.3658 43.5796 84.6663 42.8701 85.0044C43.7435 86.9112 44.5757 88.7234 45.4412 90.61C44.7674 90.9306 44.1956 91.2017 43.5502 91.5074C42.6685 89.6232 41.8086 87.7901 40.9339 85.9213C40.1889 86.2838 39.5812 86.5815 38.8462 86.9399L38.8534 86.9463ZM50.1631 47.5694C47.2498 48.9784 44.4748 50.3184 41.5999 51.7084C44.6154 58.2389 47.61 64.7232 50.6475 71.2957C53.5345 69.9022 56.3526 68.5421 59.2164 67.1604C56.1719 60.5725 53.1877 54.1158 50.1631 47.5694ZM18.307 62.9552C21.3551 69.5463 24.3358 75.9997 27.3624 82.5467C30.2557 81.1459 33.0676 79.7841 35.92 78.4039C32.8685 71.8006 29.8852 65.3487 26.8712 58.8209C23.9995 60.2072 21.2013 61.5591 18.307 62.9552ZM38.2399 53.3274C35.3371 54.7302 32.5384 56.0842 29.6782 57.4691C32.7072 64.0235 35.7009 70.503 38.7305 77.0554C41.6359 75.651 44.4288 74.3022 47.2905 72.92C44.2626 66.3613 41.2799 59.9073 38.2414 53.33L38.2399 53.3274ZM80.699 32.8299C83.7302 39.3849 86.7284 45.8724 89.7549 52.4194C92.6656 51.0119 95.4643 49.6579 98.314 48.2792C95.272 41.6987 92.2753 35.2139 89.2617 28.693C86.351 30.1005 83.545 31.457 80.6985 32.832L80.699 32.8299ZM77.3396 34.4467C74.4284 35.8564 71.627 37.2119 68.7773 38.5906C71.8164 45.1657 74.81 51.6452 77.8297 58.1768C80.7403 56.7693 83.5417 55.4138 86.3908 54.0372C83.3663 47.4908 80.3811 41.0293 77.3396 34.4467ZM57.4083 44.0772C60.4642 50.6885 63.4575 57.1611 66.4627 63.664C69.3886 62.2493 72.182 60.8984 75.0212 59.5259C71.9722 52.93 68.9774 46.4547 65.9662 39.9412C63.0635 41.3441 60.2958 42.6815 57.4062 44.0766L57.4083 44.0772Z" fill="black"/>
</g>
<defs>
<clipPath id="clip0_13334_17753">
<rect width="93.75" height="92.5" fill="white" transform="translate(26.2266 3.19531) rotate(15)"/>
</clipPath>
</defs>
</svg>
