<svg width="1920" height="961" viewBox="0 0 1920 961" fill="none" xmlns="http://www.w3.org/2000/svg">
<rect width="1920" height="961" fill="#F7F9F9"/>
<path d="M894.395 783.114L1084 593.509L867.708 490.483L678.103 680.088L894.395 783.114Z" fill="url(#paint0_linear_7599_45075)"/>
<rect x="675" y="488" width="200.466" height="200.466" rx="18.6191" fill="#004039"/>
<rect x="723.41" y="535.168" width="11.7921" height="106.129" rx="5.89606" fill="white"/>
<rect x="746.373" y="535.168" width="11.7921" height="106.129" rx="5.89606" fill="white"/>
<rect x="769.337" y="535.168" width="11.7921" height="106.129" rx="5.89606" fill="white"/>
<rect x="792.3" y="535.168" width="11.7921" height="106.129" rx="5.89606" fill="white"/>
<rect x="815.264" y="535.168" width="11.7921" height="106.129" rx="5.89606" fill="white"/>
<rect x="713.169" y="558.442" width="124.748" height="59.5812" fill="white" stroke="#004039" stroke-width="4.34446"/>
<path d="M741.387 573.513C744.076 573.513 746.294 573.846 748.04 574.511C749.787 575.149 751.09 576.133 751.949 577.463C752.809 578.766 753.238 580.416 753.238 582.412C753.238 583.77 752.975 584.962 752.448 585.988C751.949 586.986 751.27 587.845 750.411 588.566C749.579 589.259 748.678 589.827 747.708 590.271L756.44 603.203H749.454L742.385 591.809H739.017V603.203H732.738V573.513H741.387ZM740.93 578.669H739.017V586.695H741.055C742.441 586.695 743.563 586.542 744.423 586.237C745.282 585.932 745.906 585.475 746.294 584.865C746.682 584.228 746.876 583.465 746.876 582.578C746.876 581.636 746.654 580.887 746.211 580.333C745.795 579.75 745.144 579.335 744.256 579.085C743.397 578.808 742.288 578.669 740.93 578.669ZM778.361 603.203L776.198 596.134H765.387L763.225 603.203H756.447L766.926 573.388H774.618L785.139 603.203H778.361ZM772.539 583.95C772.401 583.479 772.22 582.883 771.999 582.162C771.777 581.442 771.555 580.707 771.333 579.958C771.112 579.21 770.931 578.558 770.793 578.004C770.654 578.558 770.46 579.251 770.211 580.083C769.989 580.887 769.767 581.663 769.545 582.412C769.351 583.133 769.199 583.645 769.088 583.95L766.967 590.853H774.701L772.539 583.95ZM801.457 603.203L794.305 579.917H794.138C794.166 580.471 794.208 581.303 794.263 582.412C794.319 583.521 794.374 584.713 794.43 585.988C794.485 587.235 794.513 588.372 794.513 589.398V603.203H788.899V573.513H797.465L804.493 596.217H804.617L812.061 573.513H820.627V603.203H814.764V589.148C814.764 588.206 814.777 587.124 814.805 585.905C814.861 584.685 814.902 583.535 814.93 582.453C814.985 581.344 815.027 580.513 815.055 579.958H814.888L807.237 603.203H801.457Z" fill="url(#paint1_linear_7599_45075)"/>
<path d="M1391.06 875.795L1761 505.857L1338.99 304.844L969.055 674.782L1391.06 875.795Z" fill="url(#paint2_linear_7599_45075)"/>
<rect x="963" y="300" width="391.129" height="391.129" rx="36.3278" fill="#004039"/>
<rect x="1057.45" y="392.031" width="23.0076" height="207.068" rx="11.5038" fill="white"/>
<rect x="1102.26" y="392.031" width="23.0076" height="207.068" rx="11.5038" fill="white"/>
<rect x="1147.06" y="392.031" width="23.0076" height="207.068" rx="11.5038" fill="white"/>
<rect x="1191.86" y="392.031" width="23.0076" height="207.068" rx="11.5038" fill="white"/>
<rect x="1236.67" y="392.031" width="23.0076" height="207.068" rx="11.5038" fill="white"/>
<rect x="1037.47" y="437.441" width="243.396" height="116.249" fill="white" stroke="#004039" stroke-width="8.47648"/>
<path d="M1092.53 466.533C1097.77 466.533 1102.1 467.182 1105.51 468.48C1108.92 469.724 1111.46 471.644 1113.14 474.24C1114.81 476.782 1115.65 480.001 1115.65 483.895C1115.65 486.545 1115.14 488.871 1114.11 490.872C1113.14 492.819 1111.81 494.496 1110.13 495.902C1108.51 497.255 1106.75 498.363 1104.86 499.229L1121.9 524.461H1108.27L1094.48 502.231H1087.9V524.461H1075.65V466.533H1092.53ZM1091.64 476.593H1087.9V492.252H1091.88C1094.58 492.252 1096.77 491.954 1098.45 491.359C1100.13 490.764 1101.34 489.872 1102.1 488.682C1102.86 487.438 1103.24 485.95 1103.24 484.219C1103.24 482.38 1102.8 480.92 1101.94 479.838C1101.13 478.702 1099.86 477.891 1098.13 477.404C1096.45 476.863 1094.29 476.593 1091.64 476.593ZM1164.67 524.461L1160.45 510.668H1139.35L1135.13 524.461H1121.91L1142.36 466.289H1157.37L1177.89 524.461H1164.67ZM1153.31 486.897C1153.04 485.977 1152.69 484.814 1152.25 483.408C1151.82 482.002 1151.39 480.569 1150.96 479.108C1150.52 477.648 1150.17 476.377 1149.9 475.295C1149.63 476.377 1149.25 477.729 1148.77 479.352C1148.33 480.92 1147.9 482.435 1147.47 483.895C1147.09 485.301 1146.79 486.302 1146.57 486.897L1142.44 500.365H1157.53L1153.31 486.897ZM1209.73 524.461L1195.78 479.027H1195.45C1195.5 480.109 1195.59 481.731 1195.69 483.895C1195.8 486.058 1195.91 488.384 1196.02 490.872C1196.13 493.306 1196.18 495.524 1196.18 497.525V524.461H1185.23V466.533H1201.94L1215.65 510.831H1215.9L1230.42 466.533H1247.13V524.461H1235.69V497.038C1235.69 495.199 1235.72 493.09 1235.77 490.71C1235.88 488.33 1235.96 486.085 1236.02 483.976C1236.13 481.813 1236.21 480.19 1236.26 479.108H1235.94L1221.01 524.461H1209.73Z" fill="url(#paint3_linear_7599_45075)"/>
<defs>
<linearGradient id="paint0_linear_7599_45075" x1="782.991" y1="574.89" x2="944.977" y2="735.014" gradientUnits="userSpaceOnUse">
<stop stop-color="#004039" stop-opacity="0.42"/>
<stop offset="1" stop-color="#D9D9D9" stop-opacity="0"/>
</linearGradient>
<linearGradient id="paint1_linear_7599_45075" x1="728.996" y1="593.703" x2="824.996" y2="593.703" gradientUnits="userSpaceOnUse">
<stop stop-color="#73C894"/>
<stop offset="1" stop-color="#004039"/>
</linearGradient>
<linearGradient id="paint2_linear_7599_45075" x1="1173.7" y1="469.53" x2="1489.75" y2="781.948" gradientUnits="userSpaceOnUse">
<stop stop-color="#004039" stop-opacity="0.42"/>
<stop offset="1" stop-color="#D9D9D9" stop-opacity="0"/>
</linearGradient>
<linearGradient id="paint3_linear_7599_45075" x1="1068.35" y1="505.961" x2="1255.35" y2="505.961" gradientUnits="userSpaceOnUse">
<stop stop-color="#73C894"/>
<stop offset="1" stop-color="#004039"/>
</linearGradient>
</defs>
</svg>
