<svg width="121" height="120" viewBox="0 0 121 120" fill="none" xmlns="http://www.w3.org/2000/svg">
<g clip-path="url(#clip0_18764_23117)">
<rect width="120" height="120" transform="translate(0.5)" fill="white"/>
<path d="M80.07 63.3804C79.2079 62.8688 78.2233 62.6003 77.2208 62.6033C76.5915 62.5915 75.965 62.6918 75.3707 62.8993L64.27 43.695C64.8451 43.1595 65.3057 42.5128 65.6237 41.7941C65.9417 41.0754 66.1106 40.2996 66.1201 39.5138C66.1201 37.9975 65.5178 36.5434 64.4457 35.4713C63.3735 34.3992 61.9194 33.7969 60.4032 33.7969C58.887 33.7969 57.4329 34.3992 56.3608 35.4713C55.2886 36.5434 54.6863 37.9975 54.6863 39.5138C54.7042 40.2982 54.8768 41.0714 55.1943 41.789C55.5118 42.5065 55.9679 43.1543 56.5364 43.695L45.4357 62.8253C44.881 62.6403 44.2999 62.5466 43.7151 62.5478C42.9565 62.5501 42.2059 62.7034 41.5071 62.9987C40.8083 63.294 40.1753 63.7255 39.6449 64.2679C39.1145 64.8103 38.6974 65.4529 38.4179 66.1581C38.1383 66.8634 38.002 67.6172 38.0167 68.3757C38.0251 69.3684 38.2862 70.3425 38.7753 71.2064C39.1472 71.8598 39.6452 72.4329 40.2403 72.8923C40.8355 73.3518 41.5159 73.6885 42.2422 73.883C42.9685 74.0775 43.7261 74.1258 44.4712 74.0252C45.2163 73.9247 45.9341 73.6771 46.5828 73.297C47.2704 72.908 47.8671 72.3767 48.333 71.7386C48.7988 71.1005 49.123 70.3703 49.284 69.5968H71.7075C71.8684 70.3703 72.1927 71.1005 72.6585 71.7386C73.1243 72.3767 73.721 72.908 74.4087 73.297C75.0574 73.6712 75.7734 73.9139 76.5159 74.0114C77.2584 74.1088 78.0129 74.059 78.7361 73.8649C79.4594 73.6707 80.1374 73.336 80.7313 72.8799C81.3252 72.4238 81.8235 71.8551 82.1977 71.2064C82.5718 70.5577 82.8146 69.8416 82.912 69.0991C83.0094 68.3566 82.9597 67.6022 82.7655 66.8789C82.5714 66.1556 82.2367 65.4777 81.7805 64.8837C81.3244 64.2898 80.7557 63.7915 80.107 63.4174L80.07 63.3804ZM45.8427 69.5968C45.653 69.992 45.3418 70.3162 44.9547 70.5219C44.5626 70.7352 44.1244 70.8496 43.6781 70.8549C43.2483 70.8428 42.8288 70.7209 42.4596 70.5006C42.0904 70.2804 41.7837 69.9692 41.5689 69.5968C41.2537 69.0344 41.1613 68.374 41.3099 67.7467C41.4537 67.2108 41.7718 66.7382 42.214 66.4032C42.6562 66.0682 43.1974 65.8899 43.7521 65.8965C44.1888 65.9095 44.615 66.0335 44.9905 66.2569C45.366 66.4802 45.6784 66.7956 45.8982 67.1731C46.1163 67.5431 46.2313 67.9647 46.2313 68.3942C46.2313 68.8237 46.1163 69.2453 45.8982 69.6153L45.8427 69.5968ZM60.3292 36.9236C61.0014 36.9236 61.6461 37.1906 62.1215 37.666C62.5968 38.1413 62.8639 38.786 62.8639 39.4583C62.8639 40.1305 62.5968 40.7752 62.1215 41.2505C61.6461 41.7259 61.0014 41.9929 60.3292 41.9929C59.6599 41.9834 59.0208 41.7132 58.5475 41.24C58.0742 40.7667 57.8041 40.1275 57.7945 39.4583C57.7945 38.7892 58.059 38.1473 58.5304 37.6725C59.0017 37.1977 59.6417 36.9285 60.3107 36.9236H60.3292ZM72.281 65.4155C72.1095 65.7158 71.967 66.0317 71.8555 66.3591H49.0619C48.9504 66.0317 48.8079 65.7158 48.6364 65.4155C48.4671 65.1476 48.2685 64.8994 48.0444 64.6755L59.2931 45.1751C60.0151 45.3047 60.7543 45.3047 61.4763 45.1751L72.799 64.6755C72.6057 64.9136 72.4324 65.1673 72.281 65.434V65.4155ZM79.4225 69.5228C79.1976 69.9122 78.8739 70.2354 78.4841 70.4596C78.0942 70.6837 77.652 70.801 77.2023 70.7994C76.7684 70.7896 76.3432 70.6753 75.9628 70.4663C75.3823 70.1294 74.9579 69.5775 74.7813 68.93C74.6047 68.2825 74.6902 67.5916 75.0192 67.0066C75.2318 66.6428 75.53 66.3364 75.8879 66.114C76.2458 65.8915 76.6525 65.7597 77.0728 65.73H77.2208C77.6645 65.7378 78.0986 65.8594 78.4818 66.0832C78.8649 66.3069 79.1841 66.6254 79.4088 67.008C79.6335 67.3905 79.7562 67.8244 79.7651 68.268C79.7739 68.7116 79.6687 69.15 79.4595 69.5413L79.4225 69.5228Z" fill="black"/>
<path d="M94.5608 27.0011L61.4991 19.7301C60.8393 19.6004 60.1607 19.6004 59.5009 19.7301L26.4392 27.0011C25.5882 27.1341 24.8103 27.5598 24.2395 28.2049C23.6688 28.85 23.3409 29.6739 23.3125 30.5348V59.6002C23.3125 70.3865 30.1395 80.1181 41.2402 88.6842C45.0042 91.5594 48.9811 94.1447 53.1365 96.4177L58.6869 99.1929C59.2701 99.4487 59.9001 99.5807 60.537 99.5807C61.1739 99.5807 61.8039 99.4487 62.3871 99.1929C64.2373 98.3419 66.0874 97.3428 67.845 96.4177C71.9942 94.1481 75.9704 91.5756 79.7413 88.7212C90.842 80.1551 97.6875 70.442 97.6875 59.6373V30.5348C97.6591 29.6739 97.3312 28.85 96.7605 28.2049C96.1897 27.5598 95.4118 27.1341 94.5608 27.0011ZM89.4544 59.6002C89.4544 67.8888 83.9041 75.8073 74.3389 83.2078C70.9157 85.8293 67.2975 88.1858 63.5157 90.2568L60.537 91.8109C55.6662 89.3868 51.0436 86.4931 46.7351 83.1708C37.1514 75.7703 31.6011 67.8518 31.6011 59.5632V33.3655L60.537 27.0011L89.4544 33.3655V59.6002Z" fill="black"/>
</g>
<defs>
<clipPath id="clip0_18764_23117">
<rect width="120" height="120" fill="white" transform="translate(0.5)"/>
</clipPath>
</defs>
</svg>
