<svg width="80" height="80" viewBox="0 0 80 80" fill="none" xmlns="http://www.w3.org/2000/svg">
<path d="M58.4244 43.1714C57.613 42.6899 56.6863 42.4372 55.7428 42.4401C55.1504 42.429 54.5608 42.5233 54.0015 42.7187L43.5537 24.644C44.0951 24.14 44.5285 23.5313 44.8278 22.8549C45.1271 22.1785 45.2861 21.4484 45.295 20.7087C45.295 19.2817 44.7281 17.9131 43.7191 16.9041C42.71 15.895 41.3414 15.3281 39.9144 15.3281C38.4874 15.3281 37.1188 15.895 36.1098 16.9041C35.1007 17.9131 34.5338 19.2817 34.5338 20.7087C34.5506 21.447 34.7131 22.1747 35.0119 22.8501C35.3107 23.5254 35.74 24.1351 36.2751 24.644L25.8274 42.649C25.3052 42.4749 24.7583 42.3867 24.2079 42.3878C23.4939 42.39 22.7875 42.5343 22.1298 42.8122C21.4721 43.0901 20.8764 43.4962 20.3772 44.0067C19.878 44.5173 19.4854 45.122 19.2223 45.7858C18.9593 46.4495 18.8309 47.159 18.8448 47.8729C18.8527 48.8072 19.0984 49.724 19.5587 50.5371C19.9088 51.1521 20.3775 51.6914 20.9376 52.1238C21.4977 52.5563 22.1382 52.8732 22.8217 53.0563C23.5053 53.2393 24.2184 53.2848 24.9196 53.1901C25.6209 53.0954 26.2964 52.8625 26.907 52.5047C27.5542 52.1386 28.1158 51.6386 28.5542 51.038C28.9926 50.4374 29.2978 49.7501 29.4492 49.0222H50.5537C50.7052 49.7501 51.0104 50.4374 51.4488 51.038C51.8872 51.6386 52.4488 52.1386 53.096 52.5047C53.7066 52.8569 54.3805 53.0853 55.0793 53.177C55.7782 53.2687 56.4882 53.2219 57.1689 53.0392C57.8497 52.8565 58.4878 52.5415 59.0468 52.1121C59.6057 51.6828 60.0747 51.1476 60.4269 50.5371C60.779 49.9265 61.0075 49.2526 61.0992 48.5538C61.1909 47.8549 61.144 47.1449 60.9613 46.4641C60.7786 45.7834 60.4636 45.1453 60.0343 44.5863C59.605 44.0273 59.0697 43.5584 58.4592 43.2062L58.4244 43.1714ZM26.2104 49.0222C26.0319 49.3941 25.739 49.6992 25.3746 49.8928C25.0057 50.0936 24.5932 50.2012 24.1731 50.2062C23.7686 50.1949 23.3738 50.0801 23.0263 49.8728C22.6788 49.6655 22.3902 49.3727 22.188 49.0222C21.8914 48.4928 21.8044 47.8713 21.9443 47.2809C22.0796 46.7766 22.379 46.3317 22.7952 46.0164C23.2114 45.7011 23.7207 45.5333 24.2428 45.5396C24.6538 45.5518 25.0549 45.6685 25.4083 45.8787C25.7618 46.0889 26.0558 46.3857 26.2627 46.7411C26.4679 47.0893 26.5761 47.4861 26.5761 47.8903C26.5761 48.2945 26.4679 48.6913 26.2627 49.0396L26.2104 49.0222ZM39.8448 18.2709C40.4775 18.2709 41.0842 18.5222 41.5316 18.9696C41.979 19.417 42.2303 20.0238 42.2303 20.6565C42.2303 21.2892 41.979 21.896 41.5316 22.3433C41.0842 22.7907 40.4775 23.0421 39.8448 23.0421C39.2149 23.0331 38.6133 22.7788 38.1679 22.3334C37.7224 21.8879 37.4682 21.2864 37.4592 20.6565C37.4592 20.0268 37.7081 19.4226 38.1517 18.9758C38.5954 18.5289 39.1977 18.2755 39.8274 18.2709H39.8448ZM51.0935 45.0868C50.9321 45.3695 50.798 45.6668 50.693 45.9749H29.2403C29.1353 45.6668 29.0012 45.3695 28.8398 45.0868C28.6804 44.8347 28.4936 44.6011 28.2826 44.3903L38.8696 26.0371C39.5491 26.159 40.2449 26.159 40.9244 26.0371L51.5811 44.3903C51.3991 44.6144 51.236 44.8532 51.0935 45.1042V45.0868ZM57.8149 48.9525C57.6033 49.3191 57.2986 49.6232 56.9317 49.8342C56.5648 50.0452 56.1486 50.1555 55.7254 50.154C55.3169 50.1448 54.9168 50.0373 54.5587 49.8406C54.0124 49.5235 53.613 49.004 53.4468 48.3946C53.2806 47.7852 53.361 47.1349 53.6706 46.5843C53.8708 46.242 54.1514 45.9536 54.4882 45.7442C54.8251 45.5348 55.2079 45.4108 55.6035 45.3829H55.7428C56.1603 45.3902 56.5689 45.5046 56.9295 45.7152C57.2901 45.9258 57.5906 46.2255 57.802 46.5856C58.0135 46.9457 58.129 47.354 58.1374 47.7715C58.1457 48.189 58.0467 48.6017 57.8497 48.9699L57.8149 48.9525Z" fill="#000"/>
<path d="M72.0572 8.93481L40.9403 2.09153C40.3194 1.96949 39.6806 1.96949 39.0597 2.09153L7.94279 8.93481C7.14186 9.06003 6.4097 9.46072 5.87251 10.0678C5.33532 10.675 5.02675 11.4505 5 12.2607V39.6164C5 49.7682 11.4254 58.9274 21.8731 66.9895C25.4157 69.6956 29.1587 72.1288 33.0697 74.2682L38.2935 76.8801C38.8425 77.1208 39.4354 77.2451 40.0348 77.2451C40.6343 77.2451 41.2272 77.1208 41.7761 76.8801C43.5174 76.0791 45.2587 75.1388 46.9129 74.2682C50.8181 72.132 54.5604 69.7109 58.1095 67.0244C68.5572 58.9622 75 49.8204 75 39.6512V12.2607C74.9733 11.4505 74.6647 10.675 74.1275 10.0678C73.5903 9.46072 72.8581 9.06003 72.0572 8.93481ZM67.2512 39.6164C67.2512 47.4174 62.0274 54.8701 53.0249 61.8353C49.803 64.3026 46.3976 66.5205 42.8383 68.4696L40.0348 69.9323C35.4505 67.6508 31.0999 64.9273 27.0448 61.8005C18.0249 54.8353 12.801 47.3826 12.801 39.5816V14.9249L40.0348 8.93481L67.2512 14.9249V39.6164Z" fill="#000"/>
</svg>
