<svg width="81" height="80" viewBox="0 0 81 80" fill="none" xmlns="http://www.w3.org/2000/svg">
<g clip-path="url(#clip0_18200_21916)">
<path d="M17.4226 17.1667L30.3393 3H17.0059H16.5893L-0.494078 15.5C-0.910745 15.9167 -0.494078 17.1667 0.339256 17.1667H17.4226ZM44.5059 3H35.3393L23.2559 17.1667H56.5893L44.5059 3ZM61.1726 17.1667L47.4226 3H61.5893L78.2559 15.5C79.0893 15.9167 78.6726 17.1667 77.8393 17.1667H61.1726ZM-1.32741 24.25C-1.74408 23.4167 -1.32741 22.5833 -0.910744 22.5833H17.0059L39.9226 78L-1.32741 24.25ZM39.9226 78L23.2559 22.5833H56.5893L39.9226 78L63.2559 22.5833H80.7559C81.5893 22.5833 82.0059 23.4167 81.5893 24.25L39.9226 78Z" fill="black" fill-opacity="0.9"/>
</g>
<defs>
<clipPath id="clip0_18200_21916">
<rect width="80" height="80" fill="white" transform="translate(0.5)"/>
</clipPath>
</defs>
</svg>
