<svg width="80" height="80" viewBox="0 0 80 80" fill="none" xmlns="http://www.w3.org/2000/svg">
<path d="M68.0241 58.2952L65.6164 48.5262C63.0705 54.1075 58.1684 60.7498 48.8092 66.912L55.3063 72.8048C62.1219 67.8254 65.9232 62.6727 68.0241 58.2952ZM69.5254 64.3942C67.1036 68.062 63.5974 71.9569 58.5501 75.7465L59.2247 76.3601C60.2253 77.2687 61.4914 77.8316 62.8363 77.9657C64.1811 78.0998 65.5335 77.798 66.6937 77.1049L67.8836 76.3953C69.0442 75.7028 69.9517 74.6556 70.472 73.4082C70.9924 72.1609 71.0982 70.7793 70.7737 69.4672L69.5254 64.3942ZM63.67 40.6496L61.6699 32.5294C66.2019 26.8029 68.0053 21.0342 65.6913 17.151C64.6701 15.4412 61.4263 9.99809 59.7704 7.23438C59.234 14.5957 49.7835 23.9923 39.2205 30.2997C30.6577 35.4126 21.5983 38.4644 14.9935 38.4644C12.9675 38.4644 11.3444 38.1833 10.0469 37.736C11.8978 40.8403 13.7505 43.9437 15.6048 47.046C17.9211 50.9292 23.8561 52.0769 31.0441 50.8074L36.171 55.4542C44.7105 50.6739 49.8983 45.4931 53.0485 40.8182C56.2783 38.3777 59.0584 35.7241 61.2553 33.047C59.5104 39.8158 54.3343 49.8074 39.5133 58.4826L45.5185 63.9281C58.9366 55.4355 62.6793 46.0787 63.67 40.6496Z" fill="black"/>
<path d="M16.5622 34.1106L41.9673 4.16404C37.4376 5.4124 32.3833 7.62103 27.4437 10.5721C21.0825 14.3687 15.7143 18.8984 12.3276 23.3321C9.42801 27.117 8.33424 30.4451 9.39991 32.2228C10.147 33.4805 12.1308 34.1738 14.9882 34.1738C15.4965 34.1738 16.0235 34.1551 16.5622 34.1106ZM37.0254 26.6157C50.0945 18.8094 57.3434 8.74057 55.0809 4.95568C54.3291 3.69561 52.3476 3 49.4879 3C49.1857 3 48.8719 3.00468 48.5534 3.02342L23.3098 32.7849C27.6264 31.5061 32.3762 29.3841 37.0254 26.6157Z" fill="black"/>
</svg>
