<svg width="80" height="80" viewBox="0 0 80 80" fill="none" xmlns="http://www.w3.org/2000/svg">
<path d="M44.2759 3C44.2759 3 29.7614 18.6077 44.5638 44.0499C58.8021 70.3751 37.682 78 37.682 78C37.682 78 44.2682 64.4231 33.2354 48.652C20.5377 30.4768 44.2759 3.00389 44.2759 3.00389V3ZM22.4478 3C22.4478 3 7.27582 18.6077 22.7473 44.0499C37.6314 70.3751 15.5582 78 15.5582 78C15.5582 78 22.4439 64.4231 10.9132 48.652C-2.37587 30.4768 22.4439 3.00389 22.4439 3.00389L22.4478 3ZM66.5515 3C66.5515 3 51.3795 18.6077 66.851 44.0499C81.739 70.3751 59.6657 78 59.6657 78C59.6657 78 66.5515 64.4231 55.0169 48.652C41.7278 30.4768 66.5515 3.00389 66.5515 3.00389V3Z" fill="#000"/>
</svg>
