<svg width="121" height="120" viewBox="0 0 121 120" fill="none" xmlns="http://www.w3.org/2000/svg">
<rect width="120" height="120" transform="translate(0.164062)" fill="white"/>
<circle cx="60.1641" cy="60" r="17.5" fill="white"/>
<rect width="15.8995" height="2.72562" transform="matrix(1 1.74846e-07 1.74846e-07 -1 22.6719 73.9375)" fill="black"/>
<rect width="8.63114" height="2.72562" transform="matrix(1 1.74846e-07 1.74846e-07 -1 34.9375 71.2109)" fill="black"/>
<rect width="8.63114" height="2.72562" transform="matrix(1 1.74846e-07 1.74846e-07 -1 39.4844 68.4922)" fill="black"/>
<rect width="22.7135" height="3.17989" transform="matrix(1.31134e-07 -1 -1 -1.31134e-07 48.1172 65.7656)" fill="black"/>
<rect width="22.7135" height="3.17989" transform="matrix(1.31134e-07 -1 -1 -1.31134e-07 16.3203 65.7656)" fill="black"/>
<rect width="10.4482" height="2.72562" transform="matrix(1.34716e-07 -1 -1 -1.27233e-07 21.3047 58.9453)" fill="black"/>
<rect width="10.4482" height="2.72562" transform="matrix(1.34716e-07 -1 -1 -1.27233e-07 24.9531 58.9453)" fill="black"/>
<rect width="10.4482" height="2.72562" transform="matrix(1.34716e-07 -1 -1 -1.27233e-07 28.5859 58.9453)" fill="black"/>
<rect width="10.4482" height="2.72562" transform="matrix(1.34716e-07 -1 -1 -1.27233e-07 31.7578 58.9453)" fill="black"/>
<rect width="10.4482" height="2.72562" transform="matrix(1.34716e-07 -1 -1 -1.27233e-07 35.3906 58.9453)" fill="black"/>
<rect width="10.4482" height="2.72562" transform="matrix(1.34716e-07 -1 -1 -1.27233e-07 39.0234 58.9453)" fill="black"/>
<rect width="10.4482" height="2.72562" transform="matrix(1.34716e-07 -1 -1 -1.27233e-07 42.6641 58.9453)" fill="black"/>
<rect width="8.63114" height="2.72562" transform="matrix(1 1.74846e-07 1.74846e-07 -1 18.1328 71.2109)" fill="black"/>
<rect width="9.08541" height="2.72562" transform="matrix(1 1.74846e-07 1.74846e-07 -1 13.1328 68.4922)" fill="black"/>
<rect width="28.6191" height="2.72562" transform="matrix(1 1.74846e-07 1.74846e-07 -1 16.3203 45.7734)" fill="black"/>
<rect x="7.04762" y="34.3836" width="47.4658" height="47.4658" rx="5.65068" stroke="black" stroke-width="3.76712"/>
<rect width="15.8995" height="2.72562" transform="matrix(1 1.74846e-07 1.74846e-07 -1 77.5078 73.9375)" fill="black"/>
<rect width="8.63114" height="2.72562" transform="matrix(1 1.74846e-07 1.74846e-07 -1 89.7734 71.2109)" fill="black"/>
<rect width="8.63114" height="2.72562" transform="matrix(1 1.74846e-07 1.74846e-07 -1 94.3203 68.4922)" fill="black"/>
<rect width="22.7135" height="3.17989" transform="matrix(1.31134e-07 -1 -1 -1.31134e-07 102.953 65.7656)" fill="black"/>
<rect width="22.7135" height="3.17989" transform="matrix(1.31134e-07 -1 -1 -1.31134e-07 71.1562 65.7656)" fill="black"/>
<rect width="10.4482" height="2.72562" transform="matrix(1.34716e-07 -1 -1 -1.27233e-07 76.1406 58.9453)" fill="black"/>
<rect width="10.4482" height="2.72562" transform="matrix(1.34716e-07 -1 -1 -1.27233e-07 79.7891 58.9453)" fill="black"/>
<rect width="10.4482" height="2.72562" transform="matrix(1.34716e-07 -1 -1 -1.27233e-07 83.4219 58.9453)" fill="black"/>
<rect width="10.4482" height="2.72562" transform="matrix(1.34716e-07 -1 -1 -1.27233e-07 86.5938 58.9453)" fill="black"/>
<rect width="10.4482" height="2.72562" transform="matrix(1.34716e-07 -1 -1 -1.27233e-07 90.2266 58.9453)" fill="black"/>
<rect width="10.4482" height="2.72562" transform="matrix(1.34716e-07 -1 -1 -1.27233e-07 93.8594 58.9453)" fill="black"/>
<rect width="10.4482" height="2.72562" transform="matrix(1.34716e-07 -1 -1 -1.27233e-07 97.5 58.9453)" fill="black"/>
<rect width="8.63114" height="2.72562" transform="matrix(1 1.74846e-07 1.74846e-07 -1 72.9688 71.2109)" fill="black"/>
<rect width="9.08541" height="2.72562" transform="matrix(1 1.74846e-07 1.74846e-07 -1 67.9688 68.4922)" fill="black"/>
<rect width="28.6191" height="2.72562" transform="matrix(1 1.74846e-07 1.74846e-07 -1 71.1562 45.7734)" fill="black"/>
<rect x="61.8836" y="34.3836" width="47.4658" height="47.4658" rx="5.65068" stroke="black" stroke-width="3.76712"/>
</svg>
