<svg width="72" height="72" viewBox="0 0 72 72" fill="none" xmlns="http://www.w3.org/2000/svg">
<path d="M34.403 40.4811C33.7498 41.1343 32.681 41.1343 32.0278 40.4811L25.6149 34.0682C24.9617 33.415 24.9617 32.3462 25.6149 31.693C26.268 31.0398 27.3369 31.0398 27.99 31.693L34.403 38.106C35.0562 38.7591 35.0562 39.828 34.403 40.4811Z" fill="#5DBA00"/>
<path d="M32.0289 40.5129C31.3758 39.8597 31.3758 38.7909 32.0289 38.1377L45.2705 24.8961C45.9237 24.243 46.9925 24.243 47.6457 24.8961C48.2988 25.5493 48.2988 26.6181 47.6457 27.2713L34.4041 40.5129C33.7509 41.166 32.6821 41.166 32.0289 40.5129Z" fill="#5DBA00"/>
<path d="M35.8813 61.6177C34.0108 61.6177 32.1701 61.0833 30.5371 60.0144L27.5385 58.0549C18.8691 52.3545 13.7031 42.7945 13.7031 32.4328V19.785C13.7031 17.9146 14.4751 15.3613 18.2159 13.9956C22.4319 12.422 28.8745 10.3438 35.8516 10.3438C42.8286 10.3438 49.2713 12.422 53.4872 13.9956C57.2281 15.391 58 17.9146 58 19.785V32.4031C58 42.7648 52.834 52.3545 44.1646 58.0252L41.166 59.9847C39.5924 61.0833 37.7517 61.6177 35.8813 61.6177ZM35.8813 13.7877C29.4386 13.7877 23.3819 15.7473 19.4035 17.2317C17.4737 17.9443 17.2065 18.8647 17.2065 19.7257V32.4031C17.2065 41.6069 21.8084 50.1278 29.498 55.175L32.4966 57.1345C34.5749 58.5003 37.247 58.5003 39.2956 57.1345L42.2942 55.175C49.9838 50.1278 54.5857 41.6069 54.5857 32.4031V19.7257C54.5857 18.8647 54.3185 17.974 52.3887 17.2317C48.3806 15.7473 42.3239 13.7877 35.8813 13.7877Z" fill="#5DBA00"/>
</svg>
