<svg width="72" height="72" viewBox="0 0 72 72" fill="none" xmlns="http://www.w3.org/2000/svg">
<path d="M46.6429 15.5005H26.2543C25.8039 15.5005 25.415 15.3367 25.0875 15.0092C24.76 14.6816 24.586 14.2722 24.5655 13.7809C24.545 13.2896 24.6985 12.87 25.0261 12.522C25.3536 12.174 25.763 12 26.2543 12H46.5815C47.0728 12 47.4822 12.174 47.8098 12.522C48.1373 12.87 48.301 13.2794 48.301 13.7502C48.301 14.2211 48.1373 14.6202 47.8098 14.9478C47.4822 15.2753 47.0933 15.439 46.6429 15.439V15.5005ZM40.9931 39.3895H31.9042L24.1663 51.1192C24.0025 51.3648 23.9104 51.6514 23.89 51.9789C23.8695 52.3064 23.9411 52.6135 24.1049 52.9001C24.2687 53.1867 24.4836 53.4118 24.7497 53.5756C25.0158 53.7394 25.3127 53.8213 25.6402 53.8213H47.5027C47.8302 53.8213 48.127 53.7394 48.3932 53.5756C48.6593 53.4118 48.8742 53.1867 49.038 52.9001C49.2018 52.6135 49.2734 52.3064 49.2529 51.9789C49.2325 51.6514 49.1403 51.3648 48.9766 51.1192L40.9931 39.3895ZM59.8464 55.2337L44.9848 32.45V13.9652H41.4844V33.494L42.0371 34.3538L56.8987 57.1375H15.5073L30.8602 33.494V13.9652H27.4825V32.45L12.5595 55.2337C12.232 55.766 12.0478 56.3596 12.0068 57.0147C11.9659 57.6697 12.1092 58.2838 12.4367 58.857C12.7642 59.4302 13.2146 59.8703 13.7878 60.1774C14.3609 60.4844 14.975 60.6175 15.6301 60.5765H56.8987C57.5537 60.6175 58.1678 60.4742 58.741 60.1467C59.3142 59.8191 59.7543 59.379 60.0614 58.8263C60.3684 58.2736 60.5219 57.6697 60.5219 57.0147C60.5219 56.3596 60.3377 55.766 59.9692 55.2337H59.8464Z" fill="#0050AE"/>
</svg>
