<svg width="72" height="72" viewBox="0 0 72 72" fill="none" xmlns="http://www.w3.org/2000/svg">
<path d="M29.7919 62.3989C26.5746 60.6624 24.2694 57.6005 24.1406 54.0043C23.9461 47.2793 29.0822 43.9862 32.0998 39.4755C36.4368 32.9971 35.254 28.9848 35.254 28.9848C35.254 28.9848 38.8734 30.8368 40.9789 37.7442C41.5913 39.6861 41.7937 41.7309 41.5703 43.7499C41.2549 48.6099 38.9418 52.9896 38.9418 52.9896C38.9418 52.9896 42.9529 52.1985 44.0674 45.5403C45.9179 47.2793 47.6238 49.7993 47.8209 52.4425C48.1363 57.002 45.1924 61.1993 40.716 63C48.4675 61.3791 54.0058 55.3811 55.9141 50.9989C58.3455 45.4838 57.6884 40.5621 57.2915 36.298C56.9725 32.8315 57.5605 29.3427 59 26.1592C59 26.1592 54.726 27.2997 51.5666 32.021C50.1209 34.1813 49.5295 37.3589 49.5295 37.3589C49.5295 37.3589 49.8449 34.5461 47.8183 29.3829C45.7891 24.3559 43.936 22.5758 42.8136 18.8434C41.3758 13.8601 44.5878 9 44.5878 9C44.5878 9 31.8395 11.1577 26.0437 21.2991C20.918 30.2897 23.0209 35.702 23.0209 35.702C21.6333 34.4491 20.5154 32.9383 19.7326 31.2581C19.0626 29.7056 18.7659 28.0237 18.8652 26.3415C18.8652 26.3415 9.79942 35.458 14.2101 46.9223C17.1672 54.9444 22.8842 60.2386 29.7893 62.3989" fill="#C60000"/>
</svg>
