<svg width="121" height="120" viewBox="0 0 121 120" fill="none" xmlns="http://www.w3.org/2000/svg">
<rect width="120" height="120" transform="translate(0.5)" fill="white"/>
<circle cx="60.5" cy="60" r="17.5" fill="white"/>
<path d="M60.4081 95.4673C62.0913 95.4673 63.7057 94.7987 64.8959 93.6084C66.0861 92.4182 66.7548 90.8038 66.7548 89.1206C66.7548 87.4373 66.0861 85.823 64.8959 84.6328C63.7057 83.4425 62.0913 82.7738 60.4081 82.7738C58.7248 82.7738 57.1105 83.4425 55.9203 84.6328C54.73 85.823 54.0613 87.4373 54.0613 89.1206C54.0613 90.8038 54.73 92.4182 55.9203 93.6084C57.1105 94.7987 58.7248 95.4673 60.4081 95.4673ZM75.1587 78.1728C73.9851 78.1313 72.8628 77.6814 71.9854 76.9008C68.8063 74.0406 64.6812 72.458 60.4048 72.458C56.1284 72.458 52.0033 74.0406 48.8243 76.9008C47.8957 77.7341 46.6762 78.1679 45.4299 78.1084C44.1837 78.0489 43.0111 77.5008 42.1661 76.5828C41.3328 75.6542 40.899 74.4347 40.9585 73.1885C41.018 71.9422 41.5661 70.7696 42.4841 69.9246C47.3781 65.4625 53.7541 62.9756 60.3769 62.9456C66.9997 62.9156 73.3979 65.3447 78.3321 69.7624C79.252 70.6076 79.8013 71.7816 79.8608 73.0294C79.9204 74.2772 79.4853 75.4981 78.6501 76.4271C78.2284 76.9526 77.6981 77.3807 77.0954 77.682C76.4928 77.9833 75.8321 78.1507 75.1587 78.1728Z" fill="black"/>
<path d="M88.4779 64.8525C87.2548 64.8149 86.0799 64.3669 85.1423 63.5805C78.4459 57.2729 69.5971 53.7548 60.3978 53.7424C51.1928 53.7251 42.3335 57.2475 35.6533 63.5805C33.7454 65.3262 30.7342 65.3262 28.9886 63.4248C27.0871 61.3611 27.0871 58.3435 28.9886 56.5978C37.4771 48.5883 48.7272 44.1603 60.3978 44.2353C72.0553 44.2365 83.279 48.6564 91.807 56.6043C92.2686 57.0234 92.6402 57.532 92.8992 58.0991C93.1583 58.6662 93.2994 59.28 93.314 59.9033C93.3285 60.5266 93.2163 61.1463 92.984 61.7249C92.7517 62.3035 92.4043 62.8288 91.9628 63.269C91.0522 64.2322 89.8021 64.8025 88.4779 64.859V64.8525Z" fill="black"/>
<path d="M103.232 50.0972C102.01 50.0615 100.835 49.6158 99.8968 48.8318C89.3221 38.5483 75.152 32.7973 60.4016 32.8027C45.6829 32.8097 31.5339 38.493 20.9 48.6695C20.4544 49.1214 19.9235 49.4802 19.338 49.7251C18.7526 49.97 18.1243 50.0962 17.4897 50.0962C16.8551 50.0962 16.2268 49.97 15.6414 49.7251C15.056 49.4802 14.525 49.1214 14.0795 48.6695C12.3338 46.7681 12.3338 43.757 14.2352 42.0113C26.7665 29.9538 43.1135 23.2891 60.4016 23.2891C77.6897 23.2891 94.0302 29.9538 106.561 41.8491C108.463 43.6012 108.463 46.6124 106.717 48.5138C106.289 49.0178 105.754 49.4211 105.152 49.6948C104.549 49.9685 103.894 50.1059 103.232 50.0972Z" fill="black"/>
</svg>
