<svg width="203" height="194" viewBox="0 0 203 194" fill="none" xmlns="http://www.w3.org/2000/svg">
<rect x="13.9375" y="9.375" width="175.129" height="175.129" rx="0.75" stroke="white" stroke-opacity="0.7" stroke-width="0.5"/>
<rect x="5.0625" y="0.5" width="192.876" height="192.876" rx="0.5" stroke="white"/>
<path d="M198.438 54.7422L202.999 55.8826V72.9894L198.438 74.1298V54.7422Z" fill="white"/>
<path d="M198.438 87.8125L202.999 88.9529V106.06L198.438 107.2V87.8125Z" fill="white"/>
<path d="M198.438 120.891L202.999 122.031V139.138L198.438 140.278V120.891Z" fill="white"/>
<path d="M4.5625 140.277L0.000702481 139.137L0.000703976 122.03L4.5625 120.89L4.5625 140.277Z" fill="white"/>
<path d="M4.5625 107.207L0.000702481 106.067L0.000703976 88.9598L4.5625 87.8194L4.5625 107.207Z" fill="white"/>
<path d="M4.5625 74.1289L0.000702481 72.9885L0.000703976 55.8817L4.5625 54.7413L4.5625 74.1289Z" fill="white"/>
<path d="M86.4414 96.9844V107.102C86.1159 107.583 85.556 108.117 84.7617 108.703C83.9674 109.289 82.8997 109.803 81.5586 110.246C80.2174 110.676 78.5508 110.891 76.5586 110.891C74.8919 110.891 73.362 110.591 71.9688 109.992C70.5755 109.393 69.3646 108.527 68.3359 107.395C67.3203 106.249 66.5326 104.875 65.9727 103.273C65.4258 101.672 65.1523 99.875 65.1523 97.8828V94.4453C65.1523 92.4922 65.4062 90.7344 65.9141 89.1719C66.4219 87.5964 67.1576 86.2487 68.1211 85.1289C69.0846 84.0091 70.2435 83.1562 71.5977 82.5703C72.9648 81.9714 74.4948 81.6719 76.1875 81.6719C78.2969 81.6719 80.0742 82.0365 81.5195 82.7656C82.9648 83.4948 84.0911 84.4974 84.8984 85.7734C85.7188 87.0365 86.2266 88.4688 86.4219 90.0703H84.0195C83.8372 88.9375 83.4596 87.8958 82.8867 86.9453C82.3138 85.9818 81.4805 85.207 80.3867 84.6211C79.306 84.0352 77.9062 83.7422 76.1875 83.7422C74.8073 83.7422 73.5768 83.9961 72.4961 84.5039C71.4284 85.0117 70.5299 85.7344 69.8008 86.6719C69.0716 87.6094 68.5182 88.7357 68.1406 90.0508C67.763 91.3529 67.5742 92.8047 67.5742 94.4062V97.8828C67.5742 99.5495 67.7826 101.053 68.1992 102.395C68.6289 103.736 69.2409 104.888 70.0352 105.852C70.8294 106.815 71.7799 107.557 72.8867 108.078C73.9935 108.586 75.224 108.84 76.5781 108.84C78.0234 108.84 79.2539 108.703 80.2695 108.43C81.2852 108.156 82.099 107.831 82.7109 107.453C83.3359 107.062 83.7852 106.698 84.0586 106.359V99.0352H76.4219V96.9844H86.4414ZM102.984 98.918H94.8789V96.8672H102.984C104.677 96.8672 106.051 96.5938 107.105 96.0469C108.173 95.487 108.948 94.7318 109.43 93.7812C109.924 92.8307 110.172 91.763 110.172 90.5781C110.172 89.4193 109.924 88.3516 109.43 87.375C108.948 86.3984 108.173 85.6172 107.105 85.0312C106.051 84.4323 104.677 84.1328 102.984 84.1328H95.7188V110.5H93.3164V82.0625H102.984C105.068 82.0625 106.819 82.4206 108.238 83.1367C109.671 83.8529 110.751 84.849 111.48 86.125C112.21 87.401 112.574 88.8724 112.574 90.5391C112.574 92.2839 112.21 93.7878 111.48 95.0508C110.751 96.3008 109.677 97.2578 108.258 97.9219C106.839 98.5859 105.081 98.918 102.984 98.918ZM135.133 82.0625H137.535V101.32C137.535 103.456 137.086 105.233 136.188 106.652C135.289 108.072 134.078 109.133 132.555 109.836C131.044 110.539 129.371 110.891 127.535 110.891C125.647 110.891 123.948 110.539 122.438 109.836C120.927 109.133 119.729 108.072 118.844 106.652C117.971 105.233 117.535 103.456 117.535 101.32V82.0625H119.918V101.32C119.918 102.974 120.243 104.361 120.895 105.48C121.546 106.6 122.444 107.44 123.59 108C124.736 108.56 126.051 108.84 127.535 108.84C129.007 108.84 130.315 108.56 131.461 108C132.607 107.44 133.505 106.6 134.156 105.48C134.807 104.361 135.133 102.974 135.133 101.32V82.0625Z" fill="white"/>
</svg>
