<svg width="121" height="120" viewBox="0 0 121 120" fill="none" xmlns="http://www.w3.org/2000/svg">
<rect width="120" height="120" transform="translate(0.164062)" fill="white"/>
<circle cx="31.4141" cy="73.75" r="17.5" fill="white"/>
<mask id="path-2-inside-1_12564_16640" fill="white">
<rect x="23.4375" y="23.2656" width="73.4559" height="73.4559" rx="4.76103"/>
</mask>
<rect x="23.4375" y="23.2656" width="73.4559" height="73.4559" rx="4.76103" stroke="black" stroke-width="14.9632" mask="url(#path-2-inside-1_12564_16640)"/>
<path d="M30.9141 52.5119H39.0758C39.4515 52.5119 39.756 52.2074 39.756 51.8318V40.9494C39.756 40.5738 40.0605 40.2693 40.4361 40.2693H53.3589C53.7345 40.2693 54.0391 39.9648 54.0391 39.5892V29.0469" stroke="black" stroke-width="2.04044"/>
<path d="M67.3088 27.6953V37.9615C67.3088 38.1385 67.2398 38.3086 67.1163 38.4356L55.4062 50.4802" stroke="black" stroke-width="2.04044"/>
<path d="M30.9141 79.0414H45.631C45.7902 79.0414 45.9442 78.9856 46.0665 78.8837L49.769 75.7983C49.8912 75.6964 50.0453 75.6406 50.2044 75.6406H59.1402" stroke="black" stroke-width="2.04044"/>
<path d="M80.5694 89.5882V76.267C80.5694 76.0866 80.4977 75.9136 80.3702 75.7861L76.3476 71.7635C76.2201 71.636 76.1484 71.463 76.1484 71.2826V63.0625" stroke="black" stroke-width="2.04044"/>
<path d="M88.7344 103.869C88.7344 105.184 87.6686 106.25 86.3539 106.25C85.0391 106.25 83.9733 105.184 83.9733 103.869L83.9733 96.7279L88.7344 96.7279L88.7344 103.869Z" fill="black"/>
<path d="M78.5312 103.869C78.5312 105.184 77.4655 106.25 76.1507 106.25C74.836 106.25 73.7702 105.184 73.7702 103.869L73.7702 96.7279L78.5312 96.7279L78.5312 103.869Z" fill="black"/>
<path d="M68.3359 103.869C68.3359 105.184 67.2701 106.25 65.9554 106.25C64.6407 106.25 63.5749 105.184 63.5749 103.869L63.5749 96.7279L68.3359 96.7279L68.3359 103.869Z" fill="black"/>
<path d="M58.125 103.869C58.125 105.184 57.0592 106.25 55.7445 106.25C54.4298 106.25 53.364 105.184 53.364 103.869L53.364 96.7279L58.125 96.7279L58.125 103.869Z" fill="black"/>
<path d="M47.9219 103.869C47.9219 105.184 46.8561 106.25 45.5414 106.25C44.2266 106.25 43.1608 105.184 43.1608 103.869L43.1608 96.7279L47.9219 96.7279L47.9219 103.869Z" fill="black"/>
<path d="M37.7266 103.869C37.7266 105.184 36.6608 106.25 35.346 106.25C34.0313 106.25 32.9655 105.184 32.9655 103.869L32.9655 96.7279L37.7266 96.7279L37.7266 103.869Z" fill="black"/>
<path d="M32.9531 16.1305C32.9531 14.8158 34.0189 13.75 35.3336 13.75C36.6484 13.75 37.7142 14.8158 37.7142 16.1305L37.7142 23.2721L32.9531 23.2721L32.9531 16.1305Z" fill="black"/>
<path d="M43.1562 16.1305C43.1562 14.8158 44.222 13.75 45.5368 13.75C46.8515 13.75 47.9173 14.8158 47.9173 16.1305L47.9173 23.2721L43.1562 23.2721L43.1562 16.1305Z" fill="black"/>
<path d="M53.3516 16.1305C53.3516 14.8158 54.4174 13.75 55.7321 13.75C57.0468 13.75 58.1126 14.8158 58.1126 16.1305L58.1126 23.2721L53.3516 23.2721L53.3516 16.1305Z" fill="black"/>
<path d="M63.5625 16.1305C63.5625 14.8158 64.6283 13.75 65.943 13.75C67.2577 13.75 68.3235 14.8158 68.3235 16.1305L68.3235 23.2721L63.5625 23.2721L63.5625 16.1305Z" fill="black"/>
<path d="M73.7656 16.1305C73.7656 14.8158 74.8314 13.75 76.1461 13.75C77.4609 13.75 78.5267 14.8158 78.5267 16.1305L78.5267 23.2721L73.7656 23.2721L73.7656 16.1305Z" fill="black"/>
<path d="M83.9609 16.1305C83.9609 14.8158 85.0267 13.75 86.3415 13.75C87.6562 13.75 88.722 14.8158 88.722 16.1305L88.722 23.2721L83.9609 23.2721L83.9609 16.1305Z" fill="black"/>
<path d="M16.2946 87.875C14.9799 87.875 13.9141 86.8092 13.9141 85.4945C13.9141 84.1798 14.9799 83.114 16.2946 83.114L23.4361 83.114L23.4361 87.875L16.2946 87.875Z" fill="black"/>
<path d="M16.2946 77.6641C14.9799 77.6641 13.9141 76.5983 13.9141 75.2835C13.9141 73.9688 14.9799 72.903 16.2946 72.903L23.4361 72.903L23.4361 77.6641L16.2946 77.6641Z" fill="black"/>
<path d="M16.2946 67.4687C14.9799 67.4687 13.9141 66.403 13.9141 65.0882C13.9141 63.7735 14.9799 62.7077 16.2946 62.7077L23.4361 62.7077L23.4361 67.4687L16.2946 67.4687Z" fill="black"/>
<path d="M16.2946 57.2656C14.9799 57.2656 13.9141 56.1998 13.9141 54.8851C13.9141 53.5704 14.9799 52.5046 16.2946 52.5046L23.4361 52.5046L23.4361 57.2656L16.2946 57.2656Z" fill="black"/>
<path d="M16.2946 47.0703C14.9799 47.0703 13.9141 46.0045 13.9141 44.6898C13.9141 43.3751 14.9799 42.3093 16.2946 42.3093L23.4361 42.3093L23.4361 47.0703L16.2946 47.0703Z" fill="black"/>
<path d="M16.2946 36.8594C14.9799 36.8594 13.9141 35.7936 13.9141 34.4789C13.9141 33.1641 14.9799 32.0983 16.2946 32.0983L23.4361 32.0983L23.4361 36.8594L16.2946 36.8594Z" fill="black"/>
<path d="M104.034 32.125C105.348 32.125 106.414 33.1908 106.414 34.5055C106.414 35.8202 105.348 36.886 104.034 36.886L96.892 36.886L96.892 32.125L104.034 32.125Z" fill="black"/>
<path d="M104.034 42.3359C105.348 42.3359 106.414 43.4017 106.414 44.7165C106.414 46.0312 105.348 47.097 104.034 47.097L96.892 47.097L96.892 42.3359L104.034 42.3359Z" fill="black"/>
<path d="M104.034 52.5312C105.348 52.5312 106.414 53.597 106.414 54.9118C106.414 56.2265 105.348 57.2923 104.034 57.2923L96.892 57.2923L96.892 52.5312L104.034 52.5312Z" fill="black"/>
<path d="M104.034 62.7344C105.348 62.7344 106.414 63.8002 106.414 65.1149C106.414 66.4296 105.348 67.4954 104.034 67.4954L96.892 67.4954L96.892 62.7344L104.034 62.7344Z" fill="black"/>
<path d="M104.034 72.9297C105.348 72.9297 106.414 73.9955 106.414 75.3102C106.414 76.6249 105.348 77.6907 104.034 77.6907L96.892 77.6907L96.892 72.9297L104.034 72.9297Z" fill="black"/>
<path d="M104.034 83.1406C105.348 83.1406 106.414 84.2064 106.414 85.5211C106.414 86.8359 105.348 87.9017 104.034 87.9017L96.892 87.9017L96.892 83.1406L104.034 83.1406Z" fill="black"/>
<circle cx="52.6824" cy="53.1981" r="3.06066" stroke="black" stroke-width="2.04044"/>
<circle cx="62.2059" cy="75.6434" r="3.06066" stroke="black" stroke-width="2.04044"/>
<circle cx="76.4793" cy="60.6824" r="3.06066" stroke="black" stroke-width="2.04044"/>
<path d="M79.5496 27.6953V46.3994C79.5496 46.775 79.2451 47.0795 78.8695 47.0795H70.6494C70.469 47.0795 70.296 47.1512 70.1684 47.2787L63.4253 54.0218C63.2978 54.1494 63.2261 54.3224 63.2261 54.5028V59.3805C63.2261 59.5609 63.1544 59.7339 63.0269 59.8614L57.304 65.5843C57.1764 65.7119 57.0034 65.7835 56.8231 65.7835H29.2188" stroke="black" stroke-width="2.04044"/>
</svg>
