<svg width="130" height="130" viewBox="0 0 130 130" fill="none" xmlns="http://www.w3.org/2000/svg">
<rect x="1.5" y="1.5" width="127" height="127" rx="18.5" fill="#00695D"/>
<rect x="1.5" y="1.5" width="127" height="127" rx="18.5" stroke="#00695D" stroke-width="3"/>
<path d="M55.9795 19.4958C56.3304 19.4293 56.6909 19.433 57.0403 19.5067C57.3897 19.5805 57.7209 19.7229 58.0149 19.9256C58.3089 20.1283 58.5597 20.3873 58.7528 20.6876C58.946 20.988 59.0776 21.3236 59.1401 21.6752C59.2026 22.0268 59.1947 22.3872 59.1169 22.7357C59.0391 23.0842 58.8929 23.4138 58.6868 23.7054C58.4807 23.997 58.2188 24.2448 57.9162 24.4345C57.6137 24.6241 57.2765 24.7519 56.9242 24.8103C39.9769 27.8197 26.703 41.3716 24.0525 58.3972C24.0036 58.7522 23.8844 59.0939 23.702 59.4023C23.5197 59.7108 23.2777 59.9798 22.9902 60.1938C22.7028 60.4077 22.3756 60.5623 22.0278 60.6485C21.68 60.7346 21.3185 60.7507 20.9644 60.6957C20.6103 60.6407 20.2707 60.5157 19.9654 60.328C19.6601 60.1404 19.3953 59.8939 19.1863 59.6028C18.9773 59.3117 18.8283 58.9819 18.7481 58.6327C18.668 58.2834 18.6581 57.9217 18.7192 57.5686C21.7205 38.2623 36.7623 22.9074 55.9795 19.4958ZM20.981 68.7912C21.3312 68.7359 21.6889 68.75 22.0336 68.8329C22.3783 68.9158 22.7033 69.0658 22.9901 69.2743C23.2768 69.4829 23.5197 69.7459 23.7047 70.0483C23.8898 70.3507 24.0135 70.6866 24.0687 71.0368C26.7273 87.8924 39.8176 101.336 56.5706 104.467C57.0268 104.551 57.4829 104.629 57.9417 104.697C58.2923 104.75 58.6289 104.872 58.9324 105.055C59.236 105.238 59.5004 105.479 59.7107 105.765C59.921 106.05 60.073 106.374 60.158 106.719C60.243 107.063 60.2594 107.42 60.2062 107.771C60.1531 108.121 60.0314 108.458 59.8481 108.762C59.6648 109.065 59.4236 109.33 59.1381 109.54C58.8527 109.75 58.5286 109.902 58.1844 109.987C57.8402 110.072 57.4826 110.089 57.132 110.035C56.6132 109.957 56.0958 109.87 55.5801 109.774C36.5815 106.224 21.7529 90.9936 18.7354 71.8789C18.68 71.5287 18.6942 71.1711 18.777 70.8263C18.8599 70.4816 19.0099 70.1566 19.2185 69.8699C19.427 69.5831 19.69 69.3403 19.9924 69.1552C20.2948 68.9701 20.6308 68.8465 20.981 68.7912ZM107.135 68.7643C107.841 68.8758 108.475 69.2634 108.896 69.8419C109.317 70.4204 109.491 71.1424 109.38 71.8493C106.357 91.0935 91.3614 106.397 72.2008 109.833C71.4961 109.959 70.7701 109.8 70.1827 109.391C69.5953 108.981 69.1945 108.356 69.0686 107.651C68.9426 106.946 69.1017 106.22 69.5109 105.633C69.9202 105.045 70.546 104.645 71.2507 104.519C88.1468 101.49 101.38 87.9842 104.05 71.0099C104.152 70.357 104.491 69.7644 105.001 69.3445C105.512 68.9247 106.158 68.7067 106.819 68.7319L107.135 68.7615V68.7643ZM71.0105 19.3069C90.5894 22.2893 106.117 37.6415 109.329 57.1745C109.43 57.8737 109.252 58.5844 108.835 59.1542C108.417 59.724 107.793 60.1075 107.096 60.2223C106.399 60.3371 105.685 60.1741 105.107 59.7683C104.529 59.3625 104.133 58.7462 104.004 58.0517C101.17 40.8237 87.4666 27.2745 70.1981 24.6483C69.5122 24.5503 68.8902 24.1923 68.461 23.6484C68.0318 23.1045 67.8282 22.4163 67.8924 21.7264C67.9565 21.0365 68.2836 20.3977 68.8057 19.9423C69.3279 19.4869 70.0052 19.2497 70.6974 19.2799L71.0105 19.3096V19.3069Z" fill="white"/>
<path d="M58.205 26.9238C58.9037 26.8158 59.6168 26.9863 60.1911 27.3985C60.7654 27.8107 61.1551 28.4317 61.2763 29.1282C61.3976 29.8247 61.2408 30.5409 60.8396 31.1229C60.4384 31.705 59.8248 32.1064 59.1308 32.2409C44.9473 34.7078 33.8515 45.7901 31.6437 59.6956C31.5925 60.0496 31.4715 60.3898 31.2876 60.6965C31.1038 61.0033 30.8608 61.2704 30.5729 61.4825C30.2849 61.6945 29.9577 61.8472 29.6102 61.9317C29.2627 62.0162 28.9019 62.0308 28.5487 61.9746C28.1955 61.9185 27.857 61.7927 27.5529 61.6046C27.2487 61.4165 26.985 61.1699 26.777 60.879C26.569 60.5881 26.4208 60.2587 26.3412 59.9101C26.2616 59.5615 26.252 59.2005 26.3131 58.8481C28.8853 42.6484 41.7651 29.7794 58.205 26.9238ZM28.5587 67.4014C28.9089 67.3464 29.2665 67.361 29.6111 67.4442C29.9556 67.5275 30.2804 67.6778 30.5669 67.8866C30.8534 68.0953 31.0959 68.3585 31.2807 68.661C31.4654 68.9636 31.5888 69.2995 31.6437 69.6497C33.8002 83.3933 44.4021 94.3514 57.9648 96.902C58.3346 96.9695 58.7044 97.0342 59.0714 97.0909C59.7681 97.2104 60.3902 97.5983 60.8039 98.1715C61.2176 98.7447 61.3899 99.4572 61.2839 100.156C61.1778 100.855 60.8019 101.484 60.2367 101.909C59.6716 102.334 58.9625 102.52 58.2617 102.427C57.8286 102.361 57.3967 102.287 56.9662 102.206C41.1579 99.234 28.8232 86.4864 26.3131 70.4864C26.2581 70.1362 26.2727 69.7786 26.3559 69.4341C26.4392 69.0895 26.5895 68.7647 26.7982 68.4782C27.007 68.1917 27.2702 67.9492 27.5727 67.7644C27.8752 67.5797 28.2112 67.4563 28.5614 67.4014H28.5587ZM99.5814 67.4014C99.9317 67.4575 100.268 67.5822 100.57 67.7682C100.872 67.9542 101.134 68.1979 101.342 68.4854C101.55 68.773 101.699 69.0986 101.781 69.4438C101.863 69.789 101.876 70.147 101.819 70.4972C99.2198 86.6834 86.3534 99.5363 69.9297 102.416C69.5806 102.477 69.2228 102.469 68.8768 102.392C68.5308 102.316 68.2033 102.171 67.9131 101.968C67.3269 101.557 66.928 100.93 66.8042 100.225C66.6804 99.5194 66.8417 98.794 67.2527 98.2079C67.6637 97.6217 68.2907 97.2229 68.9958 97.099C83.1685 94.6132 94.2589 83.5363 96.4883 69.6416C96.5929 68.9883 96.9339 68.3961 97.4464 67.9776C97.9589 67.5592 98.6073 67.3435 99.2683 67.3717L99.5814 67.4041V67.4014ZM69.5599 26.8887L69.873 26.9157C86.2023 29.4312 99.1415 42.3812 101.816 58.8427C101.919 59.544 101.742 60.2575 101.323 60.8292C100.904 61.4009 100.277 61.7849 99.5776 61.8983C98.878 62.0118 98.1619 61.8454 97.5839 61.4353C97.0059 61.0252 96.6124 60.4042 96.4883 59.7064C94.1887 45.5445 83.0606 34.4109 69.0525 32.2544C68.3706 32.1512 67.754 31.7908 67.3295 31.2473C66.9049 30.7037 66.7045 30.0183 66.7694 29.3317C66.8344 28.645 67.1597 28.0093 67.6786 27.555C68.1976 27.1007 68.8707 26.8623 69.5599 26.8887Z" fill="white"/>
<path d="M68.8511 44.0851L52.1224 63.2807C51.9518 63.476 51.841 63.7162 51.8034 63.9728C51.7657 64.2294 51.8028 64.4913 51.9101 64.7274C52.0175 64.9634 52.1905 65.1635 52.4086 65.3038C52.6267 65.444 52.8806 65.5185 53.1399 65.5182H63.0508L54.4517 82.8164C54.3062 83.1079 54.271 83.4422 54.3527 83.7575C54.4344 84.0729 54.6274 84.348 54.8962 84.5322C55.1649 84.7164 55.4911 84.7972 55.8147 84.7596C56.1383 84.722 56.4374 84.5687 56.6568 84.3279L78.5029 60.4224C78.6792 60.2292 78.7955 59.9889 78.8377 59.7308C78.88 59.4726 78.8463 59.2078 78.7408 58.9684C78.6353 58.7291 78.4625 58.5256 78.2434 58.3826C78.0244 58.2397 77.7685 58.1635 77.5069 58.1633H66.6352L71.1426 45.4238C71.2493 45.1272 71.2489 44.8025 71.1413 44.5062C71.0337 44.2098 70.8258 43.9605 70.5536 43.8015C70.2813 43.6424 69.962 43.5837 69.651 43.6355C69.3401 43.6873 69.057 43.8464 68.8511 44.0851Z" fill="white"/>
</svg>
