<svg width="120" height="40" viewBox="0 0 120 40" fill="none" xmlns="http://www.w3.org/2000/svg">
<path d="M8.41288 1.33594H1.20312V8.54569H8.41288V1.33594Z" fill="#0068B5"/>
<path d="M8.23895 38.8982V12.9329H1.41406V38.8982H8.23895ZM53.6014 39.1548V32.7917C52.6007 32.7917 51.754 32.7404 51.1383 32.6378C50.4198 32.5352 49.881 32.2786 49.5218 31.9194C49.1626 31.5602 48.9317 31.047 48.8034 30.3799C48.7008 29.7385 48.6495 28.8918 48.6495 27.8655V18.7828H53.6014V12.9329H48.6495V2.79816H41.7989V27.9168C41.7989 30.0464 41.9785 31.8424 42.3377 33.2792C42.6969 34.6904 43.3127 35.845 44.1594 36.7173C45.0061 37.5897 46.135 38.2055 47.4949 38.5903C48.8804 38.9752 50.6251 39.1548 52.7034 39.1548H53.6014ZM92.806 38.8982V0.796875H85.9555V38.8982H92.806ZM35.205 15.473C33.3063 13.4204 30.6379 12.3941 27.2511 12.3941C25.6091 12.3941 24.1209 12.7276 22.7611 13.3947C21.4269 14.0618 20.2723 14.9855 19.3743 16.1657L18.9894 16.6532V16.217V12.9329H12.2415V38.8982H19.0407V25.0688V26.0182C19.0407 25.8642 19.0407 25.7103 19.0407 25.5563C19.1177 23.1189 19.7078 21.3229 20.8368 20.1683C22.0427 18.9367 23.5052 18.3209 25.1729 18.3209C27.1485 18.3209 28.6623 18.9367 29.6629 20.117C30.6379 21.2972 31.1511 22.9649 31.1511 25.0945V25.1458V38.8726H38.0529V24.1452C38.0786 20.4505 37.1036 17.5255 35.205 15.473ZM82.4147 25.8642C82.4147 23.9912 82.0812 22.2465 81.4397 20.6044C80.7726 18.988 79.849 17.5512 78.6944 16.3196C77.5141 15.0881 76.103 14.1388 74.4609 13.446C72.8188 12.7533 70.9971 12.4197 69.0215 12.4197C67.1485 12.4197 65.3782 12.7789 63.7361 13.4717C62.094 14.1901 60.6572 15.1394 59.4513 16.3453C58.2454 17.5512 57.2704 18.988 56.5776 20.6301C55.8592 22.2722 55.5257 24.0425 55.5257 25.9155C55.5257 27.7885 55.8592 29.5589 56.5263 31.201C57.1934 32.8431 58.1427 34.2799 59.323 35.4858C60.5032 36.6917 61.9657 37.6667 63.6591 38.3594C65.3525 39.0778 67.2255 39.437 69.2268 39.437C75.0254 39.437 78.6174 36.7943 80.7726 34.3312L75.8464 30.5852C74.8201 31.8168 72.357 33.4845 69.2781 33.4845C67.3538 33.4845 65.763 33.0483 64.5571 32.1503C63.3512 31.278 62.5302 30.0464 62.094 28.5326L62.017 28.3017H82.4147V25.8642ZM62.0683 23.4781C62.0683 21.5794 64.2492 18.2696 68.9445 18.244C73.6399 18.244 75.8464 21.5538 75.8464 23.4524L62.0683 23.4781Z" fill="black"/>
<path d="M100.613 35.516C100.484 35.2081 100.305 34.9515 100.074 34.7206C99.8429 34.4897 99.5864 34.3101 99.2785 34.1818C98.9706 34.0535 98.637 33.9766 98.3035 33.9766C97.9443 33.9766 97.6364 34.0535 97.3285 34.1818C97.0206 34.3101 96.7641 34.4897 96.5331 34.7206C96.3022 34.9515 96.1226 35.2081 95.9943 35.516C95.866 35.8239 95.7891 36.1574 95.7891 36.491C95.7891 36.8502 95.866 37.1581 95.9943 37.466C96.1226 37.7739 96.3022 38.0304 96.5331 38.2614C96.7641 38.4923 97.0206 38.6719 97.3285 38.8002C97.6364 38.9285 97.97 39.0054 98.3035 39.0054C98.6627 39.0054 98.9706 38.9285 99.2785 38.8002C99.5864 38.6719 99.8429 38.4923 100.074 38.2614C100.305 38.0304 100.484 37.7739 100.613 37.466C100.741 37.1581 100.818 36.8245 100.818 36.491C100.818 36.1574 100.741 35.8239 100.613 35.516ZM100.202 37.312C100.1 37.5686 99.9456 37.7995 99.766 37.9791C99.5864 38.1587 99.3555 38.3127 99.0989 38.4153C98.8423 38.5179 98.5857 38.5693 98.2778 38.5693C97.9956 38.5693 97.7134 38.5179 97.4568 38.4153C97.2002 38.3127 96.9693 38.1587 96.7897 37.9791C96.6101 37.7995 96.4562 37.5686 96.3535 37.312C96.2509 37.0555 96.1996 36.7989 96.1996 36.491C96.1996 36.2088 96.2509 35.9265 96.3535 35.67C96.4562 35.4134 96.6101 35.1825 96.7897 35.0029C96.9693 34.8233 97.2002 34.6693 97.4568 34.5667C97.7134 34.4641 97.97 34.4127 98.2778 34.4127C98.5601 34.4127 98.8423 34.4641 99.0989 34.5667C99.3555 34.6693 99.5864 34.8233 99.766 35.0029C99.9456 35.1825 100.1 35.4134 100.202 35.67C100.305 35.9265 100.356 36.1831 100.356 36.491C100.382 36.7989 100.305 37.0555 100.202 37.312ZM98.7653 36.6963C98.9706 36.6706 99.1245 36.5936 99.2528 36.4653C99.3811 36.3371 99.4581 36.1574 99.4581 35.9009C99.4581 35.6186 99.3811 35.4134 99.2015 35.2594C99.0476 35.1055 98.7653 35.0285 98.4318 35.0285H97.3029V37.9278H97.8417V36.7476H98.2265L98.9449 37.9278H99.5094L98.7653 36.6963ZM98.4831 36.2857C98.4061 36.2857 98.3292 36.2857 98.2265 36.2857H97.8417V35.4647H98.2265C98.3035 35.4647 98.3805 35.4647 98.4831 35.4647C98.5601 35.4647 98.637 35.4904 98.714 35.516C98.791 35.5417 98.8423 35.593 98.868 35.6443C98.8936 35.6956 98.9193 35.7726 98.9193 35.8752C98.9193 35.9778 98.8936 36.0548 98.868 36.1061C98.8166 36.1574 98.7653 36.2088 98.714 36.2344C98.637 36.2601 98.5601 36.2857 98.4831 36.2857Z" fill="black"/>
</svg>
