<svg width="120" height="40" viewBox="0 0 120 40" fill="none" xmlns="http://www.w3.org/2000/svg">
<path d="M9.33491 32.2266H11.8872C11.8872 32.4931 11.8872 32.744 11.8872 32.995C11.8872 34.9708 11.8565 36.9467 11.8565 38.9382C11.8565 39.2518 11.7642 39.4243 11.4413 39.487C10.1344 39.7379 8.82752 39.9418 7.50524 39.9575C6.15221 39.9575 4.82993 39.8791 3.56915 39.2518C2.07774 38.5148 1.10909 37.3387 0.6017 35.8019C-0.167069 33.4968 -0.22857 31.1446 0.647826 28.8237C1.55497 26.4245 3.30777 25.1229 5.7832 24.7309C7.61287 24.4329 9.41179 24.6995 11.2107 25.0288C11.3183 25.0445 11.4721 25.2327 11.4721 25.3581C11.4721 25.9697 11.4567 26.5656 11.426 27.1772C11.426 27.4281 11.303 27.4751 11.0723 27.4124C9.59629 27.0047 8.07413 26.8949 6.56734 27.0517C4.69155 27.2399 3.29239 28.2749 2.8465 30.5643C2.539 32.0854 2.63125 33.5908 3.10789 35.0492C3.5999 36.5076 4.67617 37.3857 6.19834 37.5425C7.15161 37.6366 8.13563 37.5425 9.10428 37.5112C9.18116 37.5112 9.31954 37.323 9.33491 37.2132C9.36566 36.6957 9.36566 36.1626 9.36566 35.6451C9.36566 34.5317 9.36566 33.4183 9.36566 32.2422L9.33491 32.2266Z" fill="black"/>
<path d="M22.5674 37.2441C22.5674 37.8557 22.5982 38.3575 22.552 38.8593C22.5367 39.0475 22.3675 39.3454 22.1984 39.3925C20.2919 39.9883 18.3392 40.2236 16.3711 39.6904C14.6337 39.22 13.5882 38.0282 13.1731 36.2875C12.804 34.7351 12.8502 33.167 13.3422 31.6459C13.988 29.6543 15.4332 28.6664 17.4013 28.4625C18.1547 28.3841 18.9542 28.4155 19.6768 28.588C21.199 28.9487 22.1676 29.968 22.6443 31.4891C22.9364 32.4456 22.8288 33.4179 22.8134 34.3901C22.8134 34.641 22.675 34.7821 22.4137 34.7821C21.6756 34.7978 20.9376 34.8292 20.1996 34.8449C18.6313 34.8449 17.063 34.8449 15.4947 34.8449C15.2334 36.0837 16.3096 37.5421 17.6627 37.7773C19.2002 38.0439 20.6762 37.7773 22.1523 37.3382C22.2753 37.3068 22.3983 37.2598 22.5674 37.2127V37.2441ZM17.8933 33.1513C18.6467 33.1513 19.4001 33.1513 20.1381 33.1513C20.3687 33.1513 20.4917 33.0572 20.4149 32.822C20.2919 32.3672 20.1842 31.9281 20.0305 31.4891C19.8613 30.9716 19.4923 30.6423 18.9696 30.5168C17.0169 30.062 15.8637 30.8932 15.464 32.8533C15.4025 33.1356 15.5409 33.167 15.7561 33.167C16.4634 33.167 17.1707 33.167 17.8779 33.167L17.8933 33.1513Z" fill="black"/>
<path d="M26.389 30.0981C26.6043 29.9413 26.7273 29.8629 26.8349 29.7531C28.1111 28.5457 29.6332 28.2477 31.2938 28.5613C32.5238 28.7966 33.7077 30.1608 33.8768 31.5251C33.9537 32.2621 33.9844 33.0148 33.9844 33.7675C33.9844 35.6493 33.9691 37.5311 33.9537 39.4128C33.9537 39.7265 33.8614 39.8519 33.5386 39.8205C33.2003 39.7892 32.8467 39.7892 32.493 39.7578C31.878 39.6951 31.5705 39.3971 31.5244 38.7542C31.4783 38.0172 31.4629 37.2802 31.4629 36.5431C31.4629 35.5395 31.4936 34.5359 31.4629 33.5323C31.4321 32.858 31.3091 32.1837 31.2015 31.5251C31.1554 31.1958 30.3559 30.694 29.9253 30.6313C28.7107 30.4745 27.7113 30.9606 26.8964 31.8231C26.758 31.9642 26.6965 32.2621 26.6965 32.4817C26.6965 34.7398 26.6811 37.0136 26.6965 39.2717C26.6965 39.6324 26.6196 39.8049 26.2506 39.7578C25.774 39.6951 25.282 39.6794 24.8207 39.5696C24.3441 39.4599 24.175 39.0678 24.175 38.5974C24.175 35.6179 24.175 32.6228 24.175 29.6433C24.175 29.4709 24.175 29.2984 24.175 29.1415C24.1288 28.5927 24.1288 28.5927 24.6516 28.6084C25.0206 28.6084 25.3742 28.6241 25.7279 28.6084C26.0046 28.5927 26.1123 28.7025 26.1584 28.9534C26.2199 29.2984 26.2968 29.6433 26.389 30.0824V30.0981Z" fill="black"/>
<path d="M39.2196 34.0212C39.0351 31.0731 41.8181 28.2191 44.8624 28.2034C48.0758 28.172 50.7358 31.0574 50.6743 34.1623C50.6128 37.1104 48.1066 39.933 44.8009 39.8703C41.6028 39.8233 39.0812 36.8752 39.2196 34.0212ZM48.5525 34.0682C48.5525 31.716 46.7536 30.4458 45.1391 30.3674C42.9097 30.2576 41.2953 31.8728 41.3107 33.9271C41.326 36.1068 42.8943 37.722 44.97 37.7063C46.9688 37.7063 48.5525 36.0754 48.5525 34.0682Z" fill="black"/>
<path d="M35.6011 28.5626C36.1085 28.5626 36.5236 28.5626 36.9387 28.5626C37.7536 28.5939 38.1534 29.033 38.1534 29.8484C38.1534 32.9847 38.1534 36.121 38.1534 39.2572C38.1534 39.6179 38.0457 39.7434 37.6921 39.6963C37.4 39.665 37.1079 39.6963 36.8157 39.665C35.9701 39.6336 35.5703 39.1788 35.5703 38.3164C35.5703 36.4346 35.6011 34.5528 35.6011 32.6711C35.6011 31.4322 35.6011 30.1777 35.6011 28.9389C35.6011 28.7978 35.6011 28.6566 35.6011 28.5469V28.5626Z" fill="black"/>
<path d="M55.8032 28.9844C56.3874 29.9253 56.6488 30.9759 56.8333 32.0266C57.2484 34.316 56.9102 36.5271 56.0645 38.6754C55.9723 38.9107 55.8185 39.0048 55.5879 38.9107C55.1728 38.7382 54.6808 38.6284 54.527 38.1109C54.4501 37.8757 54.4194 37.5778 54.4963 37.3425C55.1881 35.2256 55.2804 33.1086 54.5578 30.9759C54.5116 30.8505 54.4809 30.725 54.4501 30.6152C54.3271 30.035 54.404 29.8468 54.896 29.5175C55.1574 29.345 55.4188 29.1882 55.6802 29.0314C55.6955 29.0314 55.7263 29.0157 55.8032 28.9844Z" fill="black"/>
<path d="M53.1062 30.3125C54.2901 31.8022 54.3055 35.9421 53.137 37.6984C52.768 37.4946 52.399 37.275 52.03 37.0712C51.7225 36.8987 51.6456 36.6634 51.7071 36.3341C51.8147 35.8323 51.9223 35.3462 51.9992 34.8444C52.1376 33.9192 52.0453 33.0254 51.8147 32.1159C51.5995 31.2847 51.6456 31.222 52.3682 30.7673C52.6142 30.6104 52.8602 30.4693 53.1062 30.3125Z" fill="black"/>
<path d="M36.7406 27.5759C36.0026 27.5759 35.2031 26.8076 35.1877 26.1019C35.1724 24.9885 35.9104 24.4553 36.7253 24.4083C37.5709 24.3613 38.2782 25.1296 38.2782 25.9921C38.2782 26.8076 37.5402 27.5603 36.7406 27.5759Z" fill="black"/>
<path d="M3.91077 5.90939C3.81852 8.34 3.71089 10.7392 3.61864 13.1542C3.54176 15.5534 3.46488 17.9527 3.2035 20.2578C2.18873 20.2578 1.34308 20.2421 0.482062 20.2578C0.0669265 20.2578 -0.0253257 20.1481 0.00542504 19.709C0.0976773 18.0624 0.128428 16.4002 0.205305 14.7537C0.405185 10.6138 0.62044 6.47392 0.835695 2.34972C0.851071 1.95769 0.881821 1.56565 0.866446 1.17362C0.851071 0.875675 0.974074 0.765906 1.23545 0.765906C2.2656 0.765906 3.28038 0.718863 4.31053 0.750225C4.47966 0.750225 4.72566 0.92272 4.80254 1.07953C6.2017 3.8865 7.58548 6.70914 8.96927 9.54747C9.30753 10.2374 9.58428 10.9745 9.93792 11.8056C10.1224 11.4606 10.2608 11.2254 10.3838 10.9901C11.4755 8.68499 12.5825 6.37983 13.6741 4.07467C14.12 3.11811 14.5967 2.17723 15.0272 1.22066C15.1809 0.859994 15.4423 0.781587 15.7652 0.781587C16.3802 0.781587 17.0106 0.828632 17.6256 0.812951C18.01 0.812951 18.379 0.734544 18.8403 0.6875C18.871 0.844314 18.9325 1.03249 18.9479 1.22066C19.1016 4.3883 19.2554 7.57161 19.4245 10.7392C19.5783 13.703 19.7167 16.6825 19.8858 19.6463C19.9165 20.1324 19.8089 20.3049 19.3015 20.2735C18.6404 20.2265 17.9792 20.2578 17.3335 20.2735C16.9183 20.2735 16.6877 20.2108 16.6723 19.709C16.5493 17.1372 16.3802 14.5498 16.2726 11.9781C16.1957 10.3472 16.1803 8.71635 16.1496 7.08549C16.1496 6.67778 16.1957 6.25438 16.2264 5.84667C16.1803 5.83098 16.1342 5.8153 16.1034 5.79962C15.8882 6.19165 15.6268 6.56801 15.4884 6.9914C14.6735 9.50042 13.2129 11.6801 12.0751 14.0166C11.8752 14.44 11.6292 14.8321 11.4447 15.2555C11.2756 15.6789 11.0142 15.8357 10.5683 15.867C8.87701 15.9455 8.83089 15.9298 8.0775 14.4087C7.27798 12.8405 6.44771 11.3038 5.67894 9.71996C5.15617 8.63795 4.71029 7.52457 4.23365 6.42688C4.15678 6.2387 4.03377 6.08188 3.94152 5.92507L3.91077 5.90939Z" fill="black"/>
<path d="M46.5669 18.2449C44.6603 20.3305 42.5385 20.9421 40.0631 20.2051C38.2796 19.6876 37.3109 18.2919 36.7728 16.614C35.9886 14.0893 35.9579 11.549 37.0342 9.05562C37.9567 6.93863 39.6326 5.84094 41.8159 5.54299C43.1843 5.35482 44.5835 5.33914 45.9365 5.84094C45.9826 5.85662 46.0441 5.84094 46.1364 5.80958C46.1364 5.35482 46.1364 4.90006 46.1364 4.42962C46.121 3.14374 46.0903 1.87356 46.0595 0.587684C46.0595 0.274057 46.1518 0.117243 46.4439 0.117243C47.3049 0.117243 48.1659 0.101562 49.0116 0.101562C49.3652 0.101562 49.3191 0.383826 49.3191 0.634727C49.3191 3.95918 49.3345 7.28362 49.3345 10.6081C49.3345 13.6659 49.3345 16.7395 49.3345 19.7973C49.3345 20.0796 49.273 20.2207 48.9808 20.2207C48.3658 20.2207 47.7354 20.2207 47.1204 20.2207C46.7514 20.2207 46.736 20.0012 46.7206 19.7033C46.6899 19.2485 46.613 18.7781 46.5361 18.2135L46.5669 18.2449ZM46.1518 11.988C46.1518 10.9844 46.1518 9.98082 46.1518 8.97721C46.1518 8.6479 46.0749 8.45973 45.7059 8.42836C44.8602 8.36564 43.9992 8.20882 43.1536 8.20882C41.5545 8.19314 40.4629 9.05562 39.8325 10.514C39.2021 11.9567 39.2636 13.5091 39.6326 14.9518C40.2937 17.5706 41.5853 18.1665 43.7686 17.5549C45.383 17.1158 46.3516 16.1436 46.1825 14.3402C46.1056 13.5718 46.1825 12.7878 46.1825 12.0037L46.1518 11.988Z" fill="black"/>
<path d="M100.421 11.8625C101.021 11.7841 101.621 11.7998 102.159 11.6116C102.589 11.4548 103.081 11.1569 103.312 10.7805C104.065 9.51032 104.711 8.17741 105.388 6.86017C105.418 6.81313 105.434 6.7504 105.449 6.70336C105.772 5.77816 105.772 5.77816 106.725 5.76248C107.479 5.76248 108.248 5.76248 109.078 5.76248C108.955 6.17019 108.893 6.54654 108.724 6.86017C107.74 8.82034 106.71 10.7805 105.726 12.7407C105.618 12.9445 105.588 13.2895 105.695 13.4777C106.787 15.4065 107.909 17.3196 109.032 19.2328C109.201 19.5307 109.385 19.8287 109.539 20.0952C109.462 20.1893 109.431 20.2521 109.416 20.2521C108.386 20.2521 107.34 20.2677 106.31 20.205C106.095 20.205 105.834 19.8914 105.695 19.6562C104.926 18.3546 104.127 17.0687 103.481 15.7045C102.974 14.6224 102.282 14.1363 101.113 14.4029C100.913 14.4499 100.683 14.4029 100.421 14.4029V20.2834C99.3913 20.2834 98.4073 20.2991 97.4386 20.2521C97.331 20.2521 97.1465 19.9071 97.1465 19.7189C97.1157 18.8094 97.1465 17.8998 97.1465 16.9903C97.1465 11.643 97.1465 6.27996 97.1465 0.932619C97.1465 0.666036 97.1772 0.383771 97.1926 0.117188H100.452V11.8625H100.421Z" fill="black"/>
<path d="M34.5951 13.8546C33.4265 13.8546 32.4118 13.8546 31.3816 13.8546C29.4443 13.8546 27.507 13.8546 25.5697 13.8076C25.0777 13.8076 24.9393 13.9958 25.0623 14.4348C25.1853 14.8739 25.293 15.3287 25.4313 15.7678C25.8157 16.9909 26.7536 17.5241 27.8914 17.6809C29.7211 17.9318 31.5354 17.7436 33.3189 17.2261C33.5034 17.1634 33.7033 17.1007 33.9032 17.1007C34.2722 17.1007 34.4567 17.2104 34.349 17.6809C34.2414 18.1984 34.3029 18.7472 34.226 19.2647C34.2107 19.4372 34.0415 19.7038 33.9032 19.7508C31.4739 20.5506 28.9677 20.8171 26.4922 20.2213C23.5555 19.5156 22.3563 17.9004 21.8335 14.7955C21.649 13.7449 21.6029 12.6158 21.7566 11.5808C22.0334 9.79315 22.5715 8.08389 24.0629 6.86074C25.4775 5.716 27.1072 5.38669 28.8447 5.49646C30.0132 5.57487 31.151 5.73168 32.1811 6.42166C33.9032 7.59776 34.5028 9.30703 34.5797 11.2986C34.6104 12.114 34.5797 12.9294 34.5797 13.8546H34.5951ZM25.047 11.6749C25.2315 11.6749 25.4006 11.7063 25.5851 11.7063C27.3071 11.6749 29.0138 11.6122 30.7358 11.6122C31.2432 11.6122 31.3816 11.3927 31.3662 10.9536C31.2893 9.60498 30.6282 8.19366 28.9369 8.06821C26.4615 7.88003 25.2007 9.21294 25.047 11.6906V11.6749Z" fill="black"/>
<path d="M93.9418 17.0126C93.9111 17.8123 93.8803 18.5964 93.8188 19.3648C93.8188 19.5059 93.6189 19.7255 93.4652 19.7568C91.7893 20.1646 90.1287 20.6193 88.3913 20.4782C87.4995 20.4155 86.5924 20.3684 85.7467 20.1175C83.5788 19.4589 82.1182 18.0162 81.5954 15.7267C81.0265 13.2177 81.1034 10.7557 82.3949 8.4349C83.3482 6.72563 84.8089 5.78475 86.6539 5.58089C87.8224 5.45544 89.0371 5.51817 90.1902 5.70634C92.1737 6.01997 94.0187 8.24672 94.1263 10.3167C94.1725 11.2889 94.0802 12.2768 94.0648 13.2648C94.0648 13.7195 93.8496 13.8136 93.4498 13.8136C90.7591 13.7979 88.0838 13.8136 85.3931 13.7979C85.1471 13.7979 84.8857 13.7979 84.6551 13.7979C84.4245 14.8486 85.2701 16.6519 86.1465 17.1694C87.0844 17.7183 88.0838 17.7967 89.114 17.7653C90.6207 17.7183 92.0968 17.5144 93.5421 17.0596C93.6343 17.0283 93.7573 17.0283 93.9418 17.0126ZM84.4706 11.5712C84.9165 11.5712 85.2086 11.5712 85.4854 11.5712C87.1305 11.5712 88.7603 11.5869 90.4055 11.5712C90.59 11.5712 90.9129 11.383 90.9129 11.2732C90.9436 10.3794 90.7899 9.53259 90.1595 8.81125C89.4522 7.99582 88.5297 7.99582 87.6072 8.02718C86.5155 8.07423 85.6391 8.57603 85.1471 9.611C84.8704 10.2069 84.7166 10.8498 84.4706 11.5712Z" fill="black"/>
<path d="M69.6231 20.2329H67.1631C67.1016 19.637 67.0401 19.0568 66.9632 18.3982C66.7326 18.6021 66.5327 18.7745 66.3328 18.947C64.2879 20.719 61.9662 20.9543 59.5523 19.9977C58.1377 19.4332 57.3382 18.21 57.2921 16.6105C57.2306 14.9326 58.107 13.8036 59.4908 13.0509C60.4748 12.5177 61.5511 12.2825 62.6581 12.2825C63.596 12.2825 64.5185 12.3138 65.4564 12.3452C65.7639 12.3452 66.0714 12.3452 66.5173 12.3452C66.4404 11.4827 66.4558 10.6202 66.2713 9.80481C66.0253 8.78552 65.0874 8.50326 64.2418 8.37781C62.612 8.1269 60.9976 8.42485 59.3985 8.75416C59.1372 8.81688 58.8911 9.03642 58.5529 9.2246C58.5068 8.89529 58.4299 8.59735 58.4145 8.2994C58.3838 7.7976 58.353 7.29579 58.3838 6.79399C58.3838 6.60581 58.5529 6.33923 58.6913 6.2765C60.9514 5.42971 63.3039 5.2729 65.6563 5.66493C68.1317 6.07265 69.7 7.48397 69.7308 10.2909C69.7615 13.537 69.7308 16.7987 69.7 20.0447C69.7 20.1075 69.6693 20.1859 69.6385 20.28L69.6231 20.2329ZM66.4558 14.3994C65.7793 14.3524 65.2412 14.2897 64.6877 14.274C64.211 14.2583 63.719 14.1956 63.2731 14.3054C62.5659 14.4622 61.8278 14.619 61.2282 14.9797C60.1827 15.5912 60.3211 17.2848 61.3973 17.8337C62.7196 18.4923 65.1182 18.0689 66.1791 16.9712C66.3021 16.8457 66.4404 16.6576 66.4404 16.5007C66.4712 15.8108 66.4404 15.1051 66.4404 14.4151L66.4558 14.3994Z" fill="black"/>
<path d="M78.289 20.234C77.551 20.234 76.8591 20.234 76.1672 20.234C74.9065 20.234 74.8757 20.234 74.8757 18.9481C74.845 14.0242 74.8449 9.10024 74.8449 4.17629C74.8449 4.0822 74.8449 3.98812 74.8449 3.84698H69.0177C68.9869 2.89042 68.9408 1.93386 68.9562 0.977295C68.9562 0.898889 69.2944 0.773438 69.4789 0.773438C71.5239 0.773438 73.5688 0.773438 75.6291 0.773438C78.2737 0.773438 80.9336 0.773438 83.5782 0.773438C84.3008 0.773438 84.3008 0.773438 84.2854 1.52614C84.2854 2.12203 84.2547 2.71793 84.2854 3.31382C84.2854 3.67449 84.1624 3.81562 83.8088 3.81562C82.425 3.81562 81.0258 3.79994 79.6421 3.81562C79.2269 3.81562 78.8118 3.86267 78.3198 3.87835C78.3198 6.62258 78.3198 9.33546 78.3198 12.0483C78.3198 14.7612 78.3198 17.427 78.3198 20.2654L78.289 20.234Z" fill="black"/>
<path d="M52.0928 5.77344C53.1383 5.77344 54.1223 5.77344 55.1063 5.78912C55.214 5.78912 55.3985 6.04002 55.3985 6.18115C55.3985 9.22334 55.3831 12.2812 55.3831 15.3234C55.3831 16.8288 55.3831 18.3342 55.4138 19.8396C55.4138 20.2316 55.2293 20.2473 54.9372 20.2473C54.1377 20.2473 53.3228 20.2316 52.5233 20.2787C52.1235 20.2944 52.0312 20.1689 52.0312 19.7769C52.062 15.3391 52.0774 10.9012 52.1081 6.44774C52.1081 6.2282 52.1081 6.00866 52.1081 5.77344H52.0928Z" fill="black"/>
<path d="M55.6343 1.85135C55.6343 2.93336 54.8194 3.76447 53.7585 3.73311C52.5439 3.70175 51.7905 2.93336 51.8212 1.77294C51.8366 0.722287 52.6669 -0.0304179 53.8046 0.000944807C54.9117 0.0323075 55.6497 0.769332 55.6497 1.85135H55.6343Z" fill="black"/>
<path d="M62.9609 31.0805V30.1239L66.0821 28.2578H66.774V39.815H65.8669V29.3869L62.9609 31.0805Z" fill="black"/>
<path d="M72.0554 38.9845H77.6213V39.8156H70.6562V39.2197L74.6385 34.4996C75.2535 33.7783 75.684 33.1981 75.93 32.7276C76.176 32.2572 76.299 31.7711 76.299 31.2379C76.299 30.5322 76.0991 29.9677 75.6994 29.56C75.2996 29.1523 74.7768 28.9327 74.1465 28.9327C73.5468 28.9327 73.0241 29.1209 72.5474 29.5129C72.0862 29.8893 71.7479 30.4381 71.5326 31.1281L70.81 30.7047C71.0406 29.8579 71.4558 29.215 72.0862 28.7602C72.7166 28.3055 73.4238 28.0859 74.208 28.0859C74.7922 28.0859 75.315 28.2114 75.7916 28.4623C76.2529 28.7132 76.6219 29.0739 76.8833 29.5443C77.1447 30.0147 77.283 30.5636 77.283 31.1908C77.283 31.8181 77.1293 32.4454 76.8371 33.0256C76.545 33.5901 76.0376 34.2801 75.315 35.0955L72.04 38.9845H72.0554Z" fill="black"/>
<path d="M85.3233 38.467C84.7083 39.4706 83.8472 39.9881 82.7248 39.9881C81.6024 39.9881 80.7568 39.4863 80.1571 38.467C79.5575 37.4634 79.25 35.9893 79.25 34.0449C79.25 32.1004 79.5575 30.6263 80.1571 29.607C80.7568 28.5877 81.6178 28.0859 82.7248 28.0859C83.8319 28.0859 84.7083 28.5877 85.3233 29.607C85.9229 30.6106 86.2304 32.1004 86.2304 34.0605C86.2304 36.0207 85.9229 37.4634 85.3233 38.4827V38.467ZM82.7248 39.1099C84.4007 39.1099 85.2464 37.4163 85.2464 34.0449C85.2464 30.6734 84.4007 28.9327 82.7248 28.9327C81.0489 28.9327 80.2186 30.642 80.2186 34.0449C80.2186 37.4477 81.0489 39.1099 82.7248 39.1099Z" fill="black"/>
<path d="M93.8701 38.467C93.2551 39.4706 92.3941 39.9881 91.2717 39.9881C90.1493 39.9881 89.3037 39.4863 88.704 38.467C88.1044 37.4634 87.7969 35.9893 87.7969 34.0449C87.7969 32.1004 88.1044 30.6263 88.704 29.607C89.3037 28.5877 90.1647 28.0859 91.2717 28.0859C92.3787 28.0859 93.2551 28.5877 93.8701 29.607C94.4698 30.6106 94.7773 32.1004 94.7773 34.0605C94.7773 36.0207 94.4698 37.4634 93.8701 38.4827V38.467ZM91.2717 39.1099C92.9476 39.1099 93.7933 37.4163 93.7933 34.0449C93.7933 30.6734 92.9476 28.9327 91.2717 28.9327C89.5958 28.9327 88.7655 30.642 88.7655 34.0449C88.7655 37.4477 89.5958 39.1099 91.2717 39.1099Z" fill="black"/>
</svg>
