<svg width="120" height="40" viewBox="0 0 120 40" fill="none" xmlns="http://www.w3.org/2000/svg">
<g clip-path="url(#clip0_16048_22965)">
<path d="M8.329 0.476994C8.1303 0.483124 7.91631 0.556084 7.67363 0.746432C7.07923 0.518533 6.50277 0.439358 5.98717 0.90332C5.19145 0.800688 4.93252 1.0125 4.73647 1.25973C4.56175 1.25613 3.42881 1.08117 2.90933 1.85147C1.60371 1.69794 1.19113 2.61478 1.65863 3.4698C1.39199 3.88011 1.1157 4.28547 1.73927 5.06767C1.51868 5.50333 1.65541 5.97593 2.17504 6.54788C2.0379 7.16029 2.30746 7.59239 2.79095 7.92917C2.70052 8.76723 3.56413 9.25453 3.82204 9.42813C3.92106 9.91646 4.12745 10.3772 5.11391 10.6321C5.27659 11.3598 5.86945 11.4855 6.44352 11.6382C4.54607 12.7345 2.9189 14.1769 2.92991 17.7159L2.65198 18.2087C0.476242 19.524 -1.48119 23.7512 1.57971 27.1872C1.77965 28.2626 2.11497 29.0351 2.41351 29.8901C2.86006 33.3351 5.77437 34.9482 6.54303 35.139C7.66939 35.9918 8.86905 36.801 10.4924 37.3678C12.0228 38.9367 13.6807 39.5346 15.3476 39.5336C15.3721 39.5336 15.397 39.5338 15.4214 39.5336C17.0884 39.5346 18.7463 38.9367 20.2766 37.3678C21.9 36.801 23.0997 35.9918 24.226 35.139C24.9947 34.9482 27.909 33.3351 28.3555 29.8901C28.6541 29.0351 28.9894 28.2626 29.1893 27.1872C32.2502 23.7512 30.2928 19.524 28.1171 18.2087L27.8391 17.7159C27.8502 14.1769 26.223 12.7345 24.3255 11.6382C24.8996 11.4855 25.4925 11.3598 25.6551 10.6321C26.6416 10.3772 26.848 9.91646 26.947 9.42813C27.2049 9.25453 28.0685 8.76723 27.9781 7.92917C28.4616 7.59239 28.7311 7.16029 28.594 6.54788C29.1136 5.97593 29.2504 5.50333 29.0298 5.06767C29.6534 4.28547 29.3771 3.88011 29.1104 3.4698C29.5779 2.61478 29.1653 1.69794 27.8597 1.85147C27.3402 1.08117 26.2073 1.25613 26.0326 1.25973C25.8365 1.0125 25.5776 0.800688 24.7819 0.90332C24.2663 0.439358 23.6898 0.518533 23.0954 0.746432C22.3895 0.192691 21.9221 0.636568 21.3884 0.804413C20.5334 0.526774 20.338 0.907053 19.9181 1.06191C18.9861 0.866113 18.7028 1.29239 18.2556 1.74233L17.7358 1.7321C16.3298 2.55573 15.6313 4.23278 15.3837 5.09496C15.136 4.23265 14.439 2.55558 13.0333 1.7321L12.5134 1.74233C12.0662 1.29239 11.7829 0.866113 10.851 1.06191C10.4311 0.907053 10.2357 0.526774 9.38068 0.804413C9.03043 0.694264 8.70834 0.465293 8.329 0.476994Z" fill="black"/>
<path d="M5.53283 4.09513C9.26316 6.00678 11.4317 7.55316 12.6197 8.87023C12.0113 11.2941 8.83731 11.4047 7.67676 11.3367C7.91439 11.2268 8.11266 11.0951 8.18297 10.8927C7.89175 10.687 6.85917 10.8711 6.13829 10.4685C6.41521 10.4115 6.54474 10.3559 6.67427 10.1528C5.9932 9.93688 5.25957 9.75081 4.82811 9.39312C5.06095 9.39598 5.27835 9.44489 5.58245 9.23526C4.97242 8.90849 4.32145 8.64954 3.81569 8.15002C4.1311 8.14234 4.47117 8.14692 4.57004 8.03163C4.01168 7.6878 3.54059 7.30542 3.15067 6.88718C3.59207 6.94014 3.77847 6.89454 3.88517 6.81812C3.46311 6.38843 2.92894 6.02559 2.67424 5.49609C3.00197 5.60837 3.30182 5.65134 3.51792 5.48622C3.3745 5.16462 2.76 4.97493 2.40625 4.22339C2.75126 4.25664 3.11719 4.29821 3.19038 4.22339C3.02994 3.57463 2.75516 3.21003 2.48566 2.8323C3.22406 2.8214 4.3428 2.83515 4.29212 2.7731L3.83554 2.3094C4.5568 2.11638 5.29482 2.34041 5.83059 2.50672C6.07116 2.31804 5.82633 2.07944 5.53283 1.83584C6.14578 1.91719 6.69966 2.05725 7.20033 2.25021C7.46783 2.01014 7.02663 1.77007 6.81323 1.53C7.76022 1.70858 8.16142 1.9595 8.56014 2.21075C8.84943 1.93512 8.57671 1.70088 8.38148 1.46094C9.0955 1.7238 9.46328 2.06314 9.85048 2.3982C9.98175 2.2221 10.184 2.09302 9.93981 1.66812C10.4468 1.95858 10.8286 2.30086 11.111 2.68431C11.4247 2.48579 11.2979 2.2143 11.2996 1.9641C11.8265 2.3901 12.1608 2.84343 12.5701 3.28613C12.6525 3.22646 12.7247 3.0241 12.7885 2.70404C14.0454 3.91613 15.8215 6.96911 13.245 8.17961C11.0535 6.3817 8.43491 5.07528 5.53283 4.09513Z" fill="#75A928"/>
<path d="M25.3127 4.09513C21.5823 6.00678 19.4138 7.55316 18.2257 8.87023C18.8342 11.2941 22.0082 11.4047 23.1687 11.3367C22.9311 11.2268 22.7328 11.0951 22.6625 10.8927C22.9537 10.687 23.9863 10.8711 24.7072 10.4685C24.4303 10.4115 24.3007 10.3559 24.1712 10.1528C24.8523 9.93688 25.5859 9.75081 26.0174 9.39312C25.7845 9.39598 25.5671 9.44489 25.263 9.23526C25.8731 8.90849 26.524 8.64954 27.0298 8.15002C26.7144 8.14234 26.3743 8.14692 26.2754 8.03163C26.8338 7.6878 27.3049 7.30542 27.6948 6.88718C27.2534 6.94014 27.067 6.89454 26.9603 6.81812C27.3824 6.38843 27.9165 6.02559 28.1712 5.49609C27.8435 5.60837 27.5437 5.65134 27.3276 5.48622C27.471 5.16462 28.0855 4.97493 28.4392 4.22339C28.0942 4.25664 27.7283 4.29821 27.6551 4.22339C27.8155 3.57463 28.0903 3.21003 28.3598 2.8323C27.6214 2.8214 26.5027 2.83515 26.5534 2.7731L27.0099 2.3094C26.2887 2.11638 25.5507 2.34041 25.0149 2.50672C24.7743 2.31804 25.0191 2.07944 25.3127 1.83584C24.6997 1.91719 24.1458 2.05725 23.6451 2.25021C23.3777 2.01014 23.8188 1.77007 24.0322 1.53C23.0853 1.70858 22.6841 1.9595 22.2853 2.21075C21.996 1.93512 22.2688 1.70088 22.464 1.46094C21.75 1.7238 21.3822 2.06314 20.995 2.3982C20.8637 2.2221 20.6615 2.09302 20.9057 1.66812C20.3987 1.95858 20.0169 2.30086 19.7344 2.68431C19.4208 2.48579 19.5476 2.2143 19.5459 1.9641C19.019 2.3901 18.6846 2.84343 18.2754 3.28613C18.1929 3.22646 18.1207 3.0241 18.057 2.70404C16.8001 3.91613 15.024 6.96911 17.6004 8.17961C19.792 6.3817 22.4106 5.07528 25.3127 4.09513Z" fill="#75A928"/>
<path d="M19.9445 28.7752C19.9445 29.8615 19.4737 30.9032 18.6357 31.6712C17.7978 32.4393 16.6612 32.8708 15.4761 32.8708C14.2911 32.8708 13.1545 32.4393 12.3166 31.6712C11.4786 30.9032 11.0078 29.8615 11.0078 28.7752C11.0078 27.689 11.4786 26.6473 12.3166 25.8792C13.1545 25.1112 14.2911 24.6797 15.4761 24.6797C16.6612 24.6797 17.7978 25.1112 18.6357 25.8792C19.4737 26.6473 19.9445 27.689 19.9445 28.7752Z" fill="#BC1142"/>
<path d="M12.8864 17.083C13.7755 17.662 14.3535 18.6304 14.4933 19.7751C14.6331 20.9199 14.3233 22.1473 13.6319 23.1873C12.9405 24.2272 11.9242 24.9946 10.8067 25.3205C9.68909 25.6465 8.56176 25.5043 7.67266 24.9253C6.78356 24.3463 6.20553 23.3779 6.06573 22.2331C5.92593 21.0883 6.2358 19.861 6.92719 18.821C7.61857 17.7811 8.63484 17.0137 9.75241 16.6878C10.87 16.3618 11.9973 16.504 12.8864 17.083Z" fill="#BC1142"/>
<path d="M17.8792 16.872C16.9901 17.451 16.4121 18.4194 16.2723 19.5642C16.1325 20.709 16.4424 21.9364 17.1337 22.9763C17.8251 24.0163 18.8414 24.7836 19.959 25.1096C21.0765 25.4355 22.2039 25.2934 23.093 24.7144C23.9821 24.1354 24.5601 23.167 24.6999 22.0222C24.8397 20.8774 24.5298 19.65 23.8384 18.6101C23.1471 17.5701 22.1308 16.8028 21.0132 16.4768C19.8956 16.1509 18.7683 16.293 17.8792 16.872Z" fill="#BC1142"/>
<path d="M3.62749 19.0468C5.62664 18.5144 4.3023 27.267 2.67589 26.5488C0.886867 25.1184 0.310618 20.9295 3.62749 19.0468Z" fill="#BC1142"/>
<path d="M26.7344 18.9452C24.7353 18.4128 26.0596 27.1654 27.686 26.4473C29.4751 25.0168 30.0513 20.8279 26.7344 18.9452Z" fill="#BC1142"/>
<path d="M19.9521 12.4255C23.4017 11.8465 26.272 13.8838 26.1564 17.6019C26.0429 19.0273 18.6813 12.6377 19.9521 12.4255Z" fill="#BC1142"/>
<path d="M10.403 12.324C6.95338 11.745 4.08314 13.7822 4.19868 17.5003C4.31216 18.9258 11.6738 12.5362 10.403 12.324Z" fill="#BC1142"/>
<path d="M15.3834 11.4544C13.3245 11.4012 11.3485 12.9733 11.3438 13.8852C11.338 14.9932 12.9716 16.1276 15.3974 16.1564C17.8747 16.1741 19.4554 15.2484 19.4634 14.1049C19.4725 12.8094 17.2104 11.4344 15.3834 11.4544Z" fill="#BC1142"/>
<path d="M15.4945 34.1782C17.2896 34.1003 19.6982 34.7529 19.703 35.6186C19.7328 36.4593 17.5185 38.3586 15.3754 38.3219C13.1559 38.417 10.9796 36.5148 11.0081 35.8554C10.9749 34.8886 13.7106 34.1338 15.4945 34.1782Z" fill="#BC1142"/>
<path d="M8.85764 29.0391C10.1357 30.5696 10.7182 33.2584 9.65169 34.051C8.64267 34.6561 6.1923 34.4069 4.45065 31.92C3.27606 29.8331 3.42745 27.7095 4.25214 27.0857C5.48544 26.3389 7.39097 27.3476 8.85764 29.0391Z" fill="#BC1142"/>
<path d="M21.8621 28.5635C20.4793 30.1734 19.7093 33.1097 20.718 34.0556C21.6826 34.7903 24.2717 34.6876 26.1842 32.0498C27.573 30.2782 27.1076 27.3196 26.3144 26.5342C25.136 25.6282 23.4444 26.7877 21.8621 28.5635Z" fill="#BC1142"/>
<path d="M39.9335 23.4901C39.9335 23.6233 39.9335 23.7396 39.9335 23.854C39.9335 24.9216 39.9297 25.9872 39.9372 27.0548C39.9372 27.2443 39.8884 27.3137 39.6914 27.3099C39.0929 27.2987 38.4944 27.3062 37.8828 27.3062V17.128C37.9053 17.1186 37.9316 17.098 37.9597 17.098C39.4269 17.0998 40.8941 17.0773 42.3593 17.1205C43.0216 17.1411 43.6614 17.3588 44.228 17.7321C44.9147 18.1843 45.3255 18.8203 45.3893 19.6345C45.425 20.1036 45.4156 20.5895 45.3274 21.0492C45.1867 21.8015 44.7045 22.3381 44.0554 22.7302C43.8978 22.8259 43.7383 22.9197 43.562 23.0248C44.318 24.4544 45.0629 25.8578 45.8265 27.3043C45.6764 27.3043 45.5657 27.3043 45.4531 27.3043C44.9466 27.3043 44.4381 27.2949 43.9316 27.3062C43.7271 27.3118 43.6295 27.2236 43.5413 27.051C42.9691 25.9197 42.3837 24.7959 41.8096 23.6645C41.7346 23.5163 41.6558 23.4732 41.4869 23.4788C40.9822 23.4976 40.4757 23.4863 39.9316 23.4863L39.9335 23.4901ZM39.9335 21.9572C40.5169 21.9572 41.0779 21.961 41.6389 21.9572C42.7196 21.9479 43.3143 21.4769 43.4719 20.5126C43.607 19.6852 43.1361 18.9497 42.3237 18.7377C41.5413 18.5332 40.7458 18.6458 39.9335 18.6364V21.9591V21.9572Z" fill="black"/>
<path d="M108.582 17.0923C108.797 17.0923 109.006 17.0923 109.214 17.0923C110.493 17.0979 111.777 17.0585 113.052 17.1261C114.006 17.1749 114.895 17.5032 115.548 18.2518C116.39 19.2161 116.608 20.3324 116.197 21.5407C115.812 22.6758 114.932 23.2499 113.809 23.5144C112.831 23.7452 111.837 23.6589 110.848 23.6645C110.771 23.6645 110.694 23.6645 110.595 23.6645C110.591 23.7358 110.585 23.8015 110.585 23.869C110.589 24.9591 110.591 26.0491 110.6 27.1392C110.6 27.2855 110.55 27.3211 110.409 27.3193C109.863 27.308 109.317 27.3061 108.769 27.308C108.621 27.308 108.57 27.2705 108.57 27.1091C108.578 23.869 108.58 20.6308 108.582 17.3906C108.582 17.3062 108.582 17.2236 108.582 17.0923ZM110.595 22.0792C110.822 22.0792 111.03 22.0829 111.238 22.0792C111.869 22.0623 112.501 22.0604 113.129 22.0172C113.752 21.976 114.401 21.3812 114.332 20.6551C114.317 20.4938 114.332 20.3287 114.328 20.1655C114.323 19.5576 113.895 18.9797 113.317 18.7921C112.426 18.5051 111.512 18.6683 110.593 18.6289V22.0792H110.595Z" fill="black"/>
<path d="M72.639 20.4614C73.6297 19.4145 74.9486 19.4989 75.7422 19.8704C76.5283 20.2381 76.9655 20.9023 77.2263 21.7015C77.4945 22.5176 77.4608 23.3582 77.4326 24.1987C77.4064 25.0054 77.1831 25.7484 76.7047 26.4013C76.2619 27.0054 75.6634 27.3431 74.9111 27.4125C74.0068 27.497 73.2282 27.2606 72.6353 26.542C72.6109 26.512 72.5771 26.4913 72.5021 26.4257C72.4608 26.6752 72.412 26.8891 72.3951 27.1049C72.3839 27.2643 72.3276 27.3169 72.1681 27.315C71.6709 27.3075 71.1738 27.3112 70.6484 27.3112C70.6484 27.0898 70.6484 26.891 70.6484 26.6921C70.6484 23.4538 70.6484 20.2156 70.6484 16.9773C70.6484 16.6684 70.8023 16.5145 71.11 16.5158C71.5396 16.5177 71.9674 16.5252 72.397 16.5158C72.5509 16.512 72.5771 16.5702 72.5771 16.7072C72.5771 17.8816 72.5809 19.0561 72.5884 20.2325C72.5884 20.2963 72.6147 20.3582 72.639 20.4614ZM72.5471 23.5552C72.5471 23.5552 72.5509 23.5552 72.5527 23.5552C72.5527 23.9454 72.5527 24.3338 72.5527 24.724C72.5527 25.3281 73.0724 25.8722 73.6822 25.8947C73.8923 25.9022 74.1043 25.8966 74.3145 25.8947C74.594 25.891 74.8567 25.799 75.0218 25.5852C75.1981 25.3563 75.3801 25.0917 75.4364 24.8178C75.6109 23.9585 75.6259 23.0824 75.4289 22.225C75.2919 21.6283 74.9167 21.1987 74.26 21.1537C73.9561 21.133 73.6334 21.1724 73.3407 21.255C72.8304 21.3994 72.5509 21.8291 72.549 22.3657C72.549 22.7634 72.549 23.1593 72.549 23.557L72.5471 23.5552Z" fill="black"/>
<path d="M64.323 26.6404C64.323 27.0044 64.3212 27.3684 64.323 27.7324C64.3287 28.4716 64.3381 29.2108 64.3437 29.9519C64.3456 30.2408 64.3324 30.2539 64.0397 30.2539C63.5107 30.2539 62.9816 30.2539 62.4375 30.2539V19.7324H64.2086C64.2405 19.9782 64.2743 20.2296 64.3137 20.5185C64.4037 20.4472 64.4825 20.3928 64.5519 20.3272C65.7771 19.1546 67.7752 19.4435 68.6363 20.9031C69.126 21.7361 69.2254 22.6461 69.2292 23.5804C69.233 24.4453 69.0922 25.2746 68.6607 26.0513C67.8502 27.5129 66.0641 27.7455 64.9459 27.025C64.8221 26.9463 64.7152 26.8393 64.6007 26.7474C64.5388 26.6967 64.4731 26.6517 64.4093 26.6029C64.3812 26.616 64.3531 26.6273 64.3268 26.6404H64.323ZM67.3624 23.5091C67.338 23.5054 67.3136 23.5016 67.2911 23.4979C67.3005 23.0157 67.3136 22.5354 67.1241 22.072C66.8408 21.3816 66.3549 21.0607 65.6082 21.1226C64.839 21.1864 64.2311 21.5542 64.3062 22.5579C64.3624 23.3178 64.3362 24.0832 64.3362 24.8449C64.3362 25.087 64.4131 25.2802 64.5763 25.4547C64.9122 25.8187 65.3305 25.9106 65.809 25.8881C66.5163 25.8543 66.9065 25.6198 67.1091 24.9406C67.2461 24.4791 67.2836 23.9857 67.3643 23.5072L67.3624 23.5091Z" fill="black"/>
<path d="M53.4426 27.2979C52.8422 27.2979 52.2738 27.3054 51.7072 27.2886C51.6227 27.2867 51.5027 27.1835 51.467 27.0991C51.3957 26.9321 51.3694 26.7445 51.3188 26.54C51.2118 26.6338 51.1162 26.722 51.0186 26.8045C50.5439 27.2079 50.0092 27.418 49.3713 27.4124C48.7428 27.4068 48.1725 27.281 47.6546 26.9114C46.392 26.0128 46.5346 23.934 47.9267 23.2285C48.664 22.8552 49.4558 22.7651 50.2588 22.7126C50.5833 22.692 50.9098 22.7088 51.255 22.7088C51.2775 22.3036 51.2888 21.9246 51.1349 21.5644C50.9905 21.2267 50.7353 21.0353 50.3582 21.0241C50.1875 21.0184 50.0149 21.0147 49.8422 21.0184C49.2456 21.0297 48.9755 21.2661 48.8854 21.8796H46.9792C46.9623 21.6301 47.028 21.3711 47.1537 21.131C47.5289 20.4181 48.1499 20.0015 48.8985 19.7802C49.6528 19.5569 50.4257 19.5456 51.1912 19.7314C52.3938 20.0222 53.0599 20.7914 53.1668 22.0597C53.2268 22.7801 53.21 23.5062 53.2212 24.2285C53.2287 24.7745 53.2006 25.3205 53.2306 25.8645C53.2531 26.2717 53.3413 26.6751 53.4013 27.0803C53.4107 27.1403 53.4238 27.2004 53.4426 27.2961V27.2979ZM51.2587 23.8552C50.7315 23.8552 50.2362 23.8064 49.7559 23.8664C49.0242 23.9584 48.7278 24.3505 48.7278 25.0841C48.7278 25.5531 48.8779 25.7745 49.3169 25.9471C49.8573 26.161 50.7559 25.9227 51.1068 25.4649C51.1799 25.3692 51.2475 25.2435 51.2512 25.131C51.2681 24.7126 51.2587 24.2942 51.2587 23.8571V23.8552Z" fill="black"/>
<path d="M80.5923 24.1108C80.5641 25.032 81.2846 25.8312 82.1739 25.8819C82.5004 25.9007 82.8324 25.9007 83.1551 25.8613C83.6486 25.7993 84.0219 25.4973 84.3934 25.1333C84.5866 25.3509 84.778 25.5611 84.9637 25.7768C85.2958 26.1633 85.2977 26.169 84.9244 26.5104C84.3334 27.0507 83.6279 27.3491 82.8362 27.3941C82.2152 27.4297 81.596 27.4222 80.9882 27.2102C79.7011 26.7637 78.7855 25.6136 78.6711 24.2609C78.6036 23.4635 78.6355 22.6812 78.8981 21.9119C79.4647 20.2572 80.9338 19.4298 82.6692 19.653C84.2302 19.8538 85.1626 20.8388 85.4084 22.5104C85.4778 22.9776 85.4666 23.456 85.4985 23.9307C85.5116 24.1202 85.399 24.1183 85.2621 24.1183C83.8568 24.1146 82.4516 24.1127 81.0463 24.1108C80.9 24.1108 80.7536 24.1108 80.5923 24.1108ZM80.5792 22.8688C81.5623 22.8688 82.5041 22.8688 83.4459 22.865C83.4928 22.865 83.5679 22.8181 83.581 22.7787C83.7274 22.3416 83.4197 21.5461 83.0013 21.3228C82.4553 21.0339 81.8831 21.002 81.3503 21.3247C80.7968 21.6624 80.6354 22.229 80.581 22.8688H80.5792Z" fill="black"/>
<path d="M96.7225 19.7382H98.7638C99.2497 21.3554 99.7356 22.9689 100.222 24.5843C100.252 24.5806 100.28 24.5787 100.31 24.5749C100.36 24.4323 100.417 24.2916 100.46 24.1472C100.865 22.7926 101.263 21.4361 101.676 20.0834C101.809 19.6462 101.739 19.7363 102.145 19.7307C102.689 19.725 103.233 19.7307 103.803 19.7307C103.623 20.241 103.454 20.7213 103.285 21.2035C102.439 23.6237 101.597 26.0458 100.741 28.4642C100.625 28.7907 100.473 29.1152 100.285 29.4042C99.867 30.0477 99.2516 30.3741 98.4805 30.4004C98.2703 30.4079 98.0583 30.3948 97.8482 30.3835C97.548 30.3666 97.4636 30.2766 97.4617 29.9783C97.4617 29.6274 97.4617 29.2785 97.4617 28.8845C97.6287 28.8845 97.7882 28.8845 97.9476 28.8845C98.518 28.8788 98.9214 28.6368 99.1578 28.0984C99.3473 27.665 99.3867 27.2691 99.2178 26.8019C98.4186 24.5881 97.655 22.3611 96.8764 20.1378C96.8313 20.0083 96.775 19.8808 96.7188 19.7382H96.7225Z" fill="black"/>
<path d="M56.4062 24.9599C56.4831 25.7385 56.8714 26.0819 57.65 26.0706C57.8527 26.0687 58.0553 26.0706 58.2598 26.0668C58.6575 26.0593 58.9953 25.8154 59.0722 25.4871C59.1772 25.035 59.0497 24.7141 58.6256 24.5265C58.3086 24.3858 57.9634 24.307 57.6313 24.1982C57.0703 24.0124 56.4849 23.8792 55.9577 23.626C55.1904 23.2601 54.7326 22.6316 54.8039 21.7404C54.8602 21.0425 55.2373 20.5153 55.817 20.1401C56.6238 19.6147 57.5168 19.5322 58.4474 19.6466C59.2954 19.7498 60.0215 20.0781 60.5562 20.7629C60.8451 21.1344 60.9746 21.5622 60.9221 21.9543H59.0816C59.0459 21.8248 59.0253 21.6954 58.9765 21.5772C58.7814 21.0913 58.4099 20.9187 57.7776 20.9055C57.4662 20.898 57.1641 20.9768 56.8996 21.1776C56.5431 21.4496 56.4737 22.1475 56.9484 22.4158C57.1566 22.5322 57.3818 22.6316 57.6106 22.6973C58.1641 22.8549 58.7326 22.9674 59.2823 23.1382C59.8752 23.322 60.4136 23.626 60.7176 24.1926C61.2185 25.1325 60.984 26.2263 59.9427 26.8811C59.3255 27.2695 58.6444 27.4139 57.9127 27.4045C57.2973 27.397 56.6988 27.3539 56.1341 27.0875C55.3761 26.731 54.8358 26.1832 54.605 25.3633C54.5713 25.2395 54.5675 25.1081 54.5469 24.9618H56.4099L56.4062 24.9599Z" fill="black"/>
<path d="M96.355 21.4386C95.8691 21.4742 95.4132 21.4855 94.9648 21.553C94.7678 21.583 94.5783 21.7125 94.4057 21.8288C94.1824 21.9808 94.0774 22.1946 94.0792 22.4836C94.0905 23.9939 94.0867 25.5023 94.0867 27.0126C94.0867 27.0971 94.0792 27.1796 94.0755 27.2959C93.462 27.2959 92.8635 27.2978 92.265 27.2903C92.22 27.2903 92.1637 27.2171 92.1374 27.1665C92.1149 27.1214 92.1299 27.0595 92.1299 27.0051C92.1299 24.6468 92.1299 22.2885 92.1299 19.9301C92.1299 19.8701 92.1355 19.8082 92.1393 19.7331H93.9198C93.9404 20.0314 93.9629 20.3335 93.9854 20.6356C94.0117 20.6431 94.0361 20.6524 94.0623 20.6599C94.1393 20.5718 94.2237 20.4873 94.295 20.3954C94.7828 19.7613 95.4151 19.5005 96.2049 19.6656C96.2706 19.6787 96.3663 19.7706 96.3663 19.8288C96.3719 20.3654 96.3606 20.902 96.3531 21.4386C96.3531 21.4592 96.3381 21.4817 96.3531 21.4386H96.355Z" fill="black"/>
<path d="M90.9657 21.5007C90.416 21.4182 89.9076 21.4257 89.4179 21.6321C88.9057 21.8478 88.673 22.178 88.6768 22.7259C88.6862 24.1574 88.6937 25.5908 88.7162 27.0223C88.7199 27.2531 88.6449 27.315 88.4273 27.3093C87.8907 27.2962 87.3522 27.3056 86.7969 27.3056V19.7409H88.6562V20.6715C88.6749 20.679 88.6937 20.6884 88.7106 20.6959C88.8025 20.5889 88.9019 20.4857 88.9882 20.375C89.4291 19.7991 90.0107 19.5608 90.7293 19.6283C90.9263 19.6471 91.0389 19.6996 91.022 19.9398C90.9939 20.3507 91.007 20.7653 90.9995 21.1762C90.9976 21.2756 90.9807 21.3732 90.9676 21.4989L90.9657 21.5007Z" fill="black"/>
<path d="M117.983 19.7266H119.916C119.916 21.265 119.916 22.7866 119.916 24.3081C119.916 25.235 119.907 26.1599 119.91 27.0867C119.91 27.2481 119.869 27.31 119.702 27.3081C119.179 27.3006 118.657 27.3025 118.134 27.3081C117.985 27.3081 117.961 27.2537 117.961 27.113C117.965 24.6778 117.961 22.2406 117.961 19.8054C117.961 19.7904 117.968 19.7753 117.983 19.7284V19.7266Z" fill="black"/>
<path d="M118.936 18.6485C118.528 18.6672 118.176 18.5284 117.977 18.14C117.804 17.8023 117.8 17.4496 118.026 17.1231C118.442 16.5153 119.628 16.5753 119.907 17.2507C120.204 17.9674 119.784 18.6766 118.936 18.6485Z" fill="black"/>
</g>
<defs>
<clipPath id="clip0_16048_22965">
<rect width="120" height="40" fill="white"/>
</clipPath>
</defs>
</svg>
