<svg width="120" height="40" viewBox="0 0 120 40" fill="none" xmlns="http://www.w3.org/2000/svg">
<path d="M93.9208 29.846H88.3833C88.4187 29.7108 88.443 29.5987 88.4783 29.4891C88.9315 28.0737 89.398 26.6631 89.8353 25.2428C90.1691 24.1599 90.4346 23.0587 90.5844 21.9344C90.6246 21.636 90.6319 21.3278 90.6112 21.0282C90.5491 20.1597 89.8706 19.6225 89.0046 19.726C88.3383 19.8064 87.7219 20.033 87.1604 20.3875C86.6207 20.7285 86.0811 21.0891 85.7547 21.6592C85.5391 22.0355 85.3515 22.4314 85.1992 22.8371C84.7254 24.0978 84.3733 25.3951 84.0737 26.707C83.8374 27.7411 83.6059 28.7753 83.3648 29.8399H77.675C77.7457 29.5683 77.8358 29.3198 77.8723 29.064C77.9296 28.6583 78.144 28.3867 78.4497 28.1199C79.5704 27.1357 80.5802 26.0431 81.484 24.8542C81.6424 24.6459 81.7983 24.434 81.9213 24.1879C81.8677 24.2293 81.8056 24.2634 81.7605 24.3122C81.0784 25.065 80.3134 25.7288 79.5363 26.3781C78.697 27.0797 77.8322 27.7496 76.9113 28.3429C75.9697 28.9495 74.994 29.4745 73.9013 29.7607C72.7856 30.0519 71.6491 30.1627 70.5004 30.1676C69.8097 30.17 69.1203 30.1335 68.4491 29.9605C67.3833 29.6852 66.4307 29.2162 65.7973 28.2673C65.2711 27.4792 65.0324 26.601 65.0238 25.6582C65.0068 23.9199 65.5427 22.3352 66.3832 20.8394C66.8729 19.9684 67.4649 19.1706 68.2506 18.5433C69.2519 17.7442 70.3786 17.1814 71.6259 16.8635C72.9208 16.5334 74.2436 16.4213 75.5726 16.3982C77.1037 16.3702 78.6349 16.3787 80.166 16.3714C80.2452 16.3714 80.3244 16.3823 80.4523 16.3909C80.2001 17.3641 79.9541 18.3155 79.7019 19.2924C79.4863 19.2558 79.3 19.2229 79.1136 19.1913C77.8565 18.972 76.5933 18.9209 75.329 19.0914C74.3691 19.2205 73.4409 19.4702 72.5882 19.9477C71.7782 20.4009 71.0875 20.977 70.6661 21.8297C70.0729 23.0271 70.3835 24.3426 71.4664 25.1222C72.1753 25.6326 72.9805 25.8847 73.8514 25.9237C74.9891 25.9749 76.0683 25.7093 77.1013 25.2672C77.6957 25.0126 78.2585 24.6861 78.8432 24.4072C79.0636 24.3024 79.1416 24.127 79.1928 23.9139C79.3377 23.3048 79.4863 22.6958 79.6362 22.0867C79.9943 20.6335 80.3524 19.1815 80.7117 17.7296C81.1539 15.9438 81.5961 14.1581 82.0395 12.3724C82.0565 12.3054 82.0821 12.2396 82.1077 12.1641H87.7901C87.5368 13.0679 87.2834 13.9461 87.0459 14.8293C86.8083 15.7136 86.4941 16.5785 86.2992 17.531C86.4733 17.4932 86.6086 17.4701 86.7401 17.4348C87.9546 17.1059 89.1812 16.8379 90.4334 16.7064C91.375 16.6065 92.3141 16.6126 93.2472 16.8148C94.676 17.1229 95.6262 18.0889 95.8746 19.5007C96.0013 20.2242 95.9928 20.9514 95.9185 21.6774C95.7796 23.0514 95.4325 24.3816 95.0683 25.7081C94.7016 27.0431 94.3423 28.3806 93.9793 29.7169C93.9683 29.7559 93.9488 29.7912 93.9257 29.8448L93.9208 29.846Z" fill="black"/>
<path d="M53.1114 12.1968C53.3709 12.1286 58.4187 12.1042 58.8219 12.1773C58.2092 14.6293 57.5904 17.0777 56.985 19.5298C57.0069 19.5419 57.0288 19.5553 57.0507 19.5675C57.1543 19.492 57.2615 19.4189 57.3626 19.3397C58.6136 18.3592 59.8633 17.3762 61.1192 16.4005C61.2154 16.3249 61.3531 16.2628 61.4724 16.2628C63.5201 16.2555 65.5689 16.2592 67.6165 16.2604C67.6653 16.2604 67.714 16.2689 67.8151 16.2786C67.4655 16.6538 67.0465 16.8767 66.6871 17.1691C66.3266 17.4626 65.9514 17.7416 65.5823 18.0242C65.2047 18.3129 64.8247 18.6003 64.4446 18.8878C64.0658 19.1753 63.687 19.464 63.3069 19.7502C62.9269 20.0365 62.5444 20.3203 62.1643 20.6078C61.7928 20.8892 61.4225 21.1718 61.0522 21.4556C60.6758 21.7443 60.3006 22.033 59.8901 22.3484C61.8318 24.8419 63.7844 27.3049 65.7407 29.8069C65.6566 29.8203 65.5933 29.8385 65.5312 29.8398C63.5944 29.8446 61.6576 29.8458 59.7208 29.8544C59.5223 29.8544 59.3919 29.7935 59.264 29.6339C58.0959 28.1831 56.918 26.7409 55.7425 25.2962C55.7121 25.2585 55.6779 25.2219 55.6085 25.1415C55.5561 25.2975 55.5099 25.4144 55.4794 25.535C55.1286 26.937 54.7814 28.3391 54.4318 29.7411C54.427 29.7606 54.4148 29.7776 54.4063 29.7947C54.1699 29.8666 49.2342 29.8824 48.7457 29.8093C48.7518 29.735 48.7494 29.657 48.7665 29.584C48.8298 29.3184 48.9102 29.0565 48.9638 28.7898C49.0089 28.5693 49.1185 28.4109 49.289 28.2647C50.1307 27.5473 50.9079 26.7641 51.6229 25.9211C52.0029 25.4741 52.3611 25.0088 52.7265 24.5495C52.8081 24.4472 52.88 24.3388 52.9177 24.1963C52.7375 24.3741 52.556 24.5495 52.3793 24.7298C51.4987 25.6276 50.5692 26.4705 49.5375 27.1928C48.4412 27.9614 47.3145 28.6801 46.0586 29.1674C45.1694 29.5133 44.2571 29.7922 43.3082 29.9092C42.8879 29.9603 42.4579 29.9421 42.0328 29.9323C40.9865 29.9067 39.9486 29.802 38.9486 29.4719C37.6537 29.0455 36.7402 28.2209 36.3284 26.8993C36.1859 26.4437 36.1238 25.9711 36.125 25.4924C36.1299 23.5641 36.5696 21.7394 37.5185 20.0584C38.3444 18.5955 39.6003 17.6271 41.1887 17.0887C42.1327 16.7695 43.1072 16.5856 44.0987 16.4869C46.1707 16.2786 48.2488 16.286 50.3268 16.3493C50.6411 16.359 50.9554 16.3688 51.2684 16.3798C51.2867 16.3798 51.305 16.3956 51.3598 16.4212C51.16 17.2848 50.8872 18.1363 50.6496 19.0084C50.4913 19.0084 50.35 19.023 50.2123 19.006C48.8724 18.8354 47.5398 18.8976 46.2194 19.1631C45.0159 19.4043 43.8758 19.8184 42.8769 20.5505C42.1924 21.0524 41.5858 21.6334 41.2605 22.441C40.85 23.4593 41.0742 24.4484 42.0255 25.1147C42.626 25.535 43.3033 25.7214 44.0049 25.8371C45.3436 26.0563 46.625 25.8298 47.8699 25.3206C48.5667 25.0368 49.2305 24.6933 49.8834 24.3242C50.0442 24.2328 50.1173 24.1293 50.1563 23.96C50.2769 23.4386 50.4121 22.9197 50.5424 22.3996C50.8957 20.9878 51.2502 19.576 51.6046 18.163C51.9481 16.7902 52.2904 15.4175 52.6364 14.0447C52.7911 13.4283 52.9531 12.8132 53.1102 12.1968H53.1114Z" fill="black"/>
<path d="M107.556 29.9471C107.216 31.5696 106.883 33.1592 106.548 34.7537H101.349C101.829 32.5745 102.303 30.4209 102.775 28.2685C102.762 28.2624 102.75 28.2563 102.736 28.249C102.507 28.4866 102.287 28.7326 102.047 28.958C101.329 29.6364 100.514 30.1578 99.5472 30.399C98.7993 30.5853 98.1147 30.4623 97.5703 29.8679C97.273 29.5439 97.1403 29.1407 97.0489 28.7216C96.9088 28.0797 96.9442 27.4329 97.0172 26.7885C97.2024 25.1538 97.6531 23.5788 98.116 22.0075C98.4875 20.7467 98.8529 19.4848 99.2183 18.2228C99.2512 18.1083 99.2719 17.9914 99.3097 17.827C98.563 17.8014 97.8504 17.8111 97.1196 17.805V16.7794C99.2403 16.699 101.35 16.6198 103.506 16.5394C103.456 16.7526 103.424 16.928 103.374 17.0973C102.814 18.9866 102.248 20.8746 101.69 22.7651C101.281 24.1526 100.924 25.5534 100.65 26.9737C100.549 27.4999 100.446 28.0273 100.478 28.5682C100.483 28.6595 100.478 28.7521 100.497 28.8398C100.557 29.1102 100.835 29.2588 101.082 29.1236C101.255 29.0286 101.41 28.8873 101.542 28.7387C101.979 28.2515 102.287 27.679 102.58 27.1016C102.869 26.5339 103.13 25.9517 103.404 25.3755C103.433 25.3134 103.467 25.2525 103.511 25.1685C103.662 25.2013 103.808 25.233 103.954 25.2647C104.677 25.4243 105.393 25.6131 106.12 25.7361C107.204 25.9212 108.297 25.9724 109.388 25.7787C110.321 25.6131 111.184 25.2769 111.911 24.6532C112.583 24.077 112.987 23.351 113.117 22.4716C113.23 21.7103 113.102 21.0062 112.672 20.3582C112.448 20.0195 112.153 19.765 111.8 19.5749C111.126 19.2107 110.396 19.0633 109.639 19.0219C108.405 18.9537 107.191 19.1072 105.984 19.3508C105.616 19.4251 105.252 19.5092 104.885 19.5883C104.819 19.603 104.752 19.609 104.663 19.6212C104.751 19.2119 104.833 18.8295 104.915 18.4482C105.03 17.9244 105.144 17.4006 105.26 16.8781C105.277 16.7989 105.305 16.7221 105.323 16.6442C105.355 16.5078 105.429 16.4481 105.577 16.4383C106.406 16.3835 107.235 16.3177 108.063 16.2581C109.124 16.1825 110.185 16.0863 111.248 16.0412C112.8 15.9755 114.351 15.9791 115.881 16.3129C116.668 16.4846 117.426 16.7355 118.106 17.1777C119.248 17.9183 119.821 18.9854 119.97 20.3253C120.167 22.1013 119.335 25.0783 118.352 26.5425C117.452 27.8824 116.249 28.7972 114.733 29.3161C113.75 29.6523 112.734 29.8179 111.697 29.891C110.43 29.9812 109.163 29.9458 107.896 29.9458C107.796 29.9458 107.696 29.9458 107.555 29.9458L107.556 29.9471Z" fill="black"/>
<path d="M20.3849 20.6491C21.5311 19.5711 22.072 18.2482 21.9977 16.6805C21.9575 15.8291 21.6529 15.0885 21.0147 14.4989C20.5579 14.0775 20.0146 13.8156 19.4311 13.6292C18.5139 13.3369 17.5662 13.2419 16.6112 13.2394C12.6975 13.2309 8.78493 13.2358 4.87118 13.2358C4.79322 13.2358 4.71526 13.2479 4.63731 13.254C4.61416 13.3174 4.59224 13.3637 4.57884 13.4112C4.38029 14.1323 4.1793 14.8522 3.98684 15.5757C3.38632 17.8219 2.79188 20.0693 2.19014 22.3143C1.80035 23.7687 1.3996 25.2206 1.00493 26.6738C0.687008 27.8444 0.37152 29.015 0.0584688 30.1868C0.0292344 30.2977 0.0219258 30.4134 0 30.5523H0.24971C2.03423 30.5523 3.81874 30.5523 5.60204 30.5523C5.94676 30.5523 6.29148 30.5462 6.63621 30.5498C6.80187 30.5523 6.88835 30.495 6.9322 30.3208C7.12345 29.5668 7.33052 28.8165 7.53029 28.0649C7.89816 26.6775 8.26359 25.2901 8.63267 23.9027C8.64607 23.8527 8.68261 23.8101 8.72159 23.7394C8.76788 23.8089 8.80077 23.8478 8.82269 23.8917C9.1662 24.5787 9.51092 25.2657 9.85199 25.9552C10.5682 27.4059 11.2857 28.8567 11.9946 30.3111C12.0835 30.495 12.1993 30.5559 12.3966 30.5523C12.9338 30.5437 13.471 30.5547 14.0081 30.5523C16.0862 30.5486 18.1643 30.5437 20.2424 30.5376C20.3276 30.5376 20.4117 30.523 20.5445 30.5108C19.8087 29.2233 19.0937 27.9809 18.3872 26.7335C17.6807 25.4874 16.9523 24.2535 16.2555 22.9769C16.7269 22.7808 17.1399 22.6151 17.5479 22.4385C18.5858 21.9878 19.5566 21.4324 20.3861 20.6516L20.3849 20.6491ZM13.996 20.2313C13.3857 20.6723 12.6902 20.9147 11.9715 21.101C11.1846 21.3057 10.3782 21.3873 9.56695 21.4202C9.49874 21.4226 9.43053 21.408 9.32821 21.3982C9.3477 21.2837 9.35622 21.1851 9.3818 21.0925C9.73383 19.8488 10.092 18.6064 10.4391 17.3615C10.4793 17.2165 10.5463 17.1556 10.6864 17.1556C11.6182 17.1568 12.5525 17.1178 13.4697 17.3322C13.8169 17.4126 14.1507 17.5271 14.4308 17.761C14.6269 17.9242 14.7512 18.1313 14.7816 18.3798C14.8754 19.1448 14.6318 19.7709 13.9947 20.2313H13.996Z" fill="black"/>
<path d="M37.1055 18.6063C37.1749 18.5369 37.2383 18.4602 37.3114 18.3785C36.9277 17.7939 36.4453 17.3456 35.8679 16.9911C35.1687 16.5624 34.4099 16.2919 33.6084 16.1336C32.2148 15.8583 30.8128 15.8388 29.4035 16.002C27.8516 16.1823 26.3972 16.6415 25.0695 17.4747C24.0243 18.13 23.1388 18.9571 22.4932 20.0084C21.3932 21.799 20.9316 23.7491 21.185 25.8418C21.325 26.999 21.8513 27.9735 22.7429 28.7409C23.3751 29.2842 24.106 29.6594 24.9014 29.8835C25.4739 30.0443 26.0659 30.1551 26.6554 30.2282C28.0319 30.3975 29.4071 30.3366 30.769 30.076C32.2867 29.786 33.668 29.1867 34.891 28.2378C34.9775 28.1708 35.0579 28.0965 35.1358 28.0295C35.1176 27.9772 35.1139 27.9455 35.0981 27.9211C34.5877 27.1367 34.4354 26.2584 34.4342 25.3449C34.4318 24.3058 34.6182 23.2948 34.9215 22.3033C35.3515 20.8964 36.058 19.6515 37.1055 18.6063ZM31.6326 24.9575C31.227 25.77 30.5887 26.3145 29.6946 26.5288C29.4607 26.5849 29.2147 26.5958 29.0466 26.6178C28.6081 26.5946 28.2438 26.5727 27.9016 26.4229C27.4228 26.2134 27.1317 25.8528 26.9929 25.3534C26.8686 24.9076 26.8479 24.4544 26.8893 24.0001C26.9782 23.0487 27.167 22.1218 27.5982 21.2581C27.8601 20.7331 28.2097 20.2849 28.7092 19.9596C29.2878 19.582 29.9273 19.4858 30.5996 19.5467C30.7909 19.5638 30.9821 19.5966 31.1673 19.6454C31.6387 19.7684 31.97 20.0546 32.1503 20.5139C32.2806 20.8476 32.3501 21.196 32.3513 21.5505C32.3537 22.7369 32.1673 23.888 31.6314 24.9599L31.6326 24.9575Z" fill="black"/>
<path d="M102.57 14.2027C104.835 14.2027 106.671 12.3664 106.671 10.1013C106.671 7.83623 104.835 6 102.57 6C100.305 6 98.4688 7.83623 98.4688 10.1013C98.4688 12.3664 100.305 14.2027 102.57 14.2027Z" fill="black"/>
</svg>
