<svg width="81" height="80" viewBox="0 0 81 80" fill="none" xmlns="http://www.w3.org/2000/svg">
<rect x="2" y="1.5" width="77" height="77" rx="8.5" stroke="#1FBCA9" stroke-width="3"/>
<rect x="51.8281" y="62.6641" width="23.3333" height="4" transform="rotate(-180 51.8281 62.6641)" fill="#1FBCA9"/>
<rect x="33.8281" y="58.6641" width="12.6667" height="4" transform="rotate(-180 33.8281 58.6641)" fill="#1FBCA9"/>
<rect x="27.1641" y="54.6641" width="12.6667" height="4" transform="rotate(-180 27.1641 54.6641)" fill="#1FBCA9"/>
<rect x="14.4922" y="50.6641" width="33.3333" height="4.66667" transform="rotate(-90 14.4922 50.6641)" fill="#1FBCA9"/>
<rect x="61.1641" y="50.6641" width="33.3333" height="4.66667" transform="rotate(-90 61.1641 50.6641)" fill="#1FBCA9"/>
<rect x="53.8281" y="40.6641" width="15.3333" height="4" transform="rotate(-90 53.8281 40.6641)" fill="#1FBCA9"/>
<rect x="48.4922" y="40.6641" width="15.3333" height="4" transform="rotate(-90 48.4922 40.6641)" fill="#1FBCA9"/>
<rect x="43.1641" y="40.6641" width="15.3333" height="4" transform="rotate(-90 43.1641 40.6641)" fill="#1FBCA9"/>
<rect x="38.4922" y="40.6641" width="15.3333" height="4" transform="rotate(-90 38.4922 40.6641)" fill="#1FBCA9"/>
<rect x="33.1641" y="40.6641" width="15.3333" height="4" transform="rotate(-90 33.1641 40.6641)" fill="#1FBCA9"/>
<rect x="27.8281" y="40.6641" width="15.3333" height="4" transform="rotate(-90 27.8281 40.6641)" fill="#1FBCA9"/>
<rect x="22.4922" y="40.6641" width="15.3333" height="4" transform="rotate(-90 22.4922 40.6641)" fill="#1FBCA9"/>
<rect x="58.4922" y="58.6641" width="12.6667" height="4" transform="rotate(-180 58.4922 58.6641)" fill="#1FBCA9"/>
<rect x="65.8281" y="54.6641" width="13.3333" height="4" transform="rotate(-180 65.8281 54.6641)" fill="#1FBCA9"/>
<rect x="61.1641" y="21.332" width="42" height="4" transform="rotate(-180 61.1641 21.332)" fill="#1FBCA9"/>
</svg>
