<svg width="81" height="80" viewBox="0 0 81 80" fill="none" xmlns="http://www.w3.org/2000/svg">
<rect x="2" y="1.5" width="77" height="77" rx="8.5" stroke="#1FBCA9" stroke-width="3"/>
<g clip-path="url(#clip0_13590_25575)">
<path d="M69.5188 28.487C53.6054 13.6137 27.7254 13.6137 11.8121 28.487C11.4121 28.8604 11.1854 29.367 11.1654 29.9137C11.1454 30.4604 11.3454 30.9804 11.7188 31.3804C11.9121 31.587 12.1388 31.747 12.3988 31.8604C12.6588 31.9737 12.9321 32.027 13.2121 32.027C13.7321 32.027 14.2321 31.8337 14.6121 31.4737C28.9788 18.0537 52.3521 18.0537 66.7188 31.4804C67.1188 31.8537 67.6388 32.0537 68.1854 32.0337C68.7321 32.0137 69.2388 31.787 69.6121 31.387C69.9854 30.987 70.1788 30.467 70.1654 29.9204C70.1454 29.3737 69.9188 28.867 69.5188 28.4937V28.487Z" fill="#1FBCA9"/>
<path d="M60.9369 36.508C49.7569 26.0546 31.5702 26.0546 20.3902 36.508C19.9902 36.8813 19.7636 37.388 19.7436 37.9346C19.7236 38.4813 19.9236 39.0013 20.2969 39.4013C21.0702 40.228 22.3702 40.268 23.1902 39.5013C32.8236 30.4946 48.5036 30.4946 58.1369 39.5013C58.5169 39.8546 59.0169 40.0546 59.5369 40.0546C60.1036 40.0546 60.6502 39.8146 61.0302 39.408C61.4036 39.008 61.5969 38.488 61.5836 37.9413C61.5636 37.3946 61.3369 36.888 60.9369 36.5146V36.508Z" fill="#1FBCA9"/>
<path d="M52.3556 44.5278C45.909 38.5011 35.4156 38.5011 28.969 44.5278C28.1423 45.3011 28.1023 46.6011 28.869 47.4211C29.6423 48.2478 30.9356 48.2878 31.7623 47.5211C36.669 42.9345 44.649 42.9345 49.549 47.5211C49.929 47.8745 50.429 48.0745 50.949 48.0745C51.5156 48.0745 52.0623 47.8345 52.449 47.4278C52.8223 47.0278 53.0156 46.5078 53.0023 45.9611C52.9823 45.4145 52.7556 44.9078 52.3556 44.5345V44.5278Z" fill="#1FBCA9"/>
<path d="M45.499 50.9442C42.8323 48.4509 38.499 48.4509 35.839 50.9442C34.5056 52.1909 33.7656 53.8642 33.7656 55.6509C33.7656 57.4376 34.499 59.1042 35.839 60.3576C37.1256 61.5642 38.8456 62.2242 40.6723 62.2242C42.499 62.2242 44.2123 61.5576 45.5056 60.3576C46.839 59.1109 47.579 57.4376 47.579 55.6509C47.579 53.8642 46.8456 52.1976 45.5056 50.9442H45.499ZM43.4723 55.6509C43.4723 56.2909 43.199 56.8976 42.699 57.3642C41.579 58.4109 39.7523 58.4109 38.6323 57.3642C38.1323 56.8976 37.859 56.2909 37.859 55.6509C37.859 55.0109 38.1323 54.4042 38.6323 53.9376C39.1723 53.4309 39.8923 53.1509 40.6656 53.1509C41.439 53.1509 42.159 53.4309 42.699 53.9376C43.199 54.4042 43.4723 55.0109 43.4723 55.6509Z" fill="#1FBCA9"/>
</g>
<defs>
<clipPath id="clip0_13590_25575">
<rect width="59" height="44.8867" fill="white" transform="translate(11.1641 17.332)"/>
</clipPath>
</defs>
</svg>
