<svg width="151" height="150" viewBox="0 0 151 150" fill="none" xmlns="http://www.w3.org/2000/svg">
<rect x="2" y="1.5" width="147" height="147" rx="18.5" stroke="black" stroke-width="3"/>
<path d="M48.0519 74.5204L54.6849 47.9945H46.0515L47.3676 40.9768C52.6581 40.0342 56.3168 38.6463 60.1071 36.6562L68.6878 36.9181L59.2911 74.5465H67.7403L65.4766 83.5805H35.8125L38.0761 74.5465H48.0519V74.5204Z" fill="#0050AE"/>
<path d="M102.167 44.903C96.8763 44.903 91.6384 48.857 88.4798 58.6504C91.6384 55.1939 95.7445 53.937 98.0081 53.937C106.194 53.937 111.3 58.9646 108.668 69.6744C106.326 79.0226 98.324 84.4168 90.3749 84.4168C81.1098 84.4168 73.7925 77.0849 78.2145 59.5145C82.2943 43.201 92.6386 36 101.904 36C108.537 36 112.432 38.959 114.827 41.9703L107.826 47.8096C106.747 46.1861 104.299 44.9292 102.141 44.9292L102.167 44.903ZM98.8767 67.5534C100.009 62.971 98.245 61.7926 95.5866 61.7926C92.9281 61.7926 89.7959 63.3638 86.9532 66.925C85.874 74.2569 87.9007 76.0899 90.4802 76.0899C93.823 76.0899 97.4027 73.3928 98.8767 67.5534Z" fill="#0050AE"/>
<path d="M18.1172 96.9148L19.2227 92.5156H36.5684L35.4629 96.9148H29.4354L25.0134 114.59H19.6965L24.1184 96.9148H18.1172Z" fill="#0050AE"/>
<path d="M54.1542 92.5156L53.0487 96.9148H44.2311L43.0466 101.759H50.6272L49.4953 106.184H41.9148L39.8354 114.616H34.4922L40.0197 92.5418H54.1805L54.1542 92.5156Z" fill="#0050AE"/>
<path d="M63.3395 92.5156L58.9175 110.138H67.5245L66.419 114.59H52.4688L57.9962 92.5156H63.3395Z" fill="#0050AE"/>
<path d="M70.8888 102.916C72.6523 95.9508 77.5481 92.1016 83.3914 92.1016C89.6559 92.1016 92.8671 96.4483 90.9983 103.937C89.2348 110.903 84.3127 114.988 78.4694 114.988C72.2049 114.988 69.0463 110.431 70.8888 102.916ZM85.7867 102.916C86.8132 98.9098 85.7604 96.6316 83.0493 96.6316C79.917 96.6316 77.2323 99.3811 76.1004 103.937C75.0739 107.97 76.0741 110.431 78.7852 110.431C81.9174 110.431 84.6549 107.499 85.7867 102.916Z" fill="#0050AE"/>
<path d="M105.527 92.5156C110.423 92.5156 114.16 94.4795 112.739 100.188C111.476 105.163 107.08 107.258 102.395 107.258H99.6047L97.7885 114.59H92.4453L97.9728 92.5156H105.553H105.527ZM107.791 99.1929C108.291 97.229 107.185 96.7053 104.632 96.7053H102.237L100.631 103.095H102.737C105.343 103.095 107.185 101.654 107.764 99.2191L107.791 99.1929Z" fill="#0050AE"/>
<path d="M111.977 111.688L115.583 108.337C116.846 109.672 118.662 110.431 120.215 110.431C122.4 110.431 123.769 109.462 124.111 107.996C124.374 106.975 123.4 106.713 121.715 105.927L119.162 104.749C117.083 103.833 115.24 101.764 116.083 98.2813C116.951 94.851 120.768 92.1016 125.269 92.1016C128.033 92.1016 130.507 93.2537 132.033 95.1914L128.875 98.1766C127.69 97.0768 126.453 96.6316 124.953 96.6316C123.11 96.6316 121.663 97.5219 121.321 98.9621C121.084 99.9048 122.216 100.245 123.953 101.005L126.48 102.104C128.954 103.204 130.27 105.194 129.428 108.572C128.559 111.976 124.927 114.988 119.768 114.988C116.662 114.988 113.845 113.783 111.977 111.662V111.688Z" fill="#0050AE"/>
</svg>
