<svg width="150" height="150" viewBox="0 0 150 150" fill="none" xmlns="http://www.w3.org/2000/svg">
<rect x="1.5" y="1.5" width="147" height="147" rx="18.5" stroke="black" stroke-width="3"/>
<g clip-path="url(#clip0_14940_40070)">
<path d="M85.4203 49.3739C86.6287 44.6069 84.6998 42.2465 80.4702 42.2465C75.7525 42.2465 71.4532 45.4862 68.0369 48.564L61.4601 39.8167C68.9433 33.5918 74.9391 31 83.0033 31C95.2739 31 101.944 39.0993 98.8528 51.2946C96.4127 60.9212 85.1181 72.1677 73.0102 81.4009C75.7758 80.5216 80.0054 80.1976 82.678 80.1976H94.3676L91.3696 92.3235H49.4219L51.1184 83.5762C69.6405 69.8999 83.0498 58.8154 85.397 49.3508L85.4203 49.3739Z" fill="#0050AE"/>
<path d="M24 103.958L24.9761 100.07H40.3608L39.3847 103.958H34.0396L30.1353 119.648H25.3944L29.2987 103.958H24Z" fill="#0050AE"/>
<path d="M55.9531 100.047L54.977 103.934H47.1452L46.0994 108.215H52.8157L51.8164 112.126H45.1001L43.2409 119.601H38.5L43.3804 100.023H55.9298L55.9531 100.047Z" fill="#0050AE"/>
<path d="M64.0902 100.047L60.1859 115.667H67.8318L66.8557 119.624H54.4922L59.3725 100.047H64.1134H64.0902Z" fill="#0050AE"/>
<path d="M70.7805 109.283C72.3376 103.105 76.6834 99.6797 81.8426 99.6797C87.3969 99.6797 90.2554 103.544 88.5822 110.186C87.0251 116.364 82.656 119.997 77.4736 119.997C71.9193 119.997 69.1305 115.948 70.7573 109.283H70.7805ZM84.0039 109.283C84.9103 105.719 83.9807 103.706 81.5638 103.706C78.7982 103.706 76.4045 106.159 75.4052 110.186C74.4989 113.773 75.382 115.948 77.7757 115.948C80.5412 115.948 82.9814 113.333 83.9807 109.283H84.0039Z" fill="#0050AE"/>
<path d="M101.503 100.047C105.825 100.047 109.172 101.782 107.894 106.873C106.778 111.293 102.874 113.145 98.7139 113.145H96.2273L94.6237 119.647H89.8828L94.7632 100.07H101.479L101.503 100.047ZM103.501 105.971C103.943 104.235 102.967 103.749 100.689 103.749H98.5745L97.1569 109.419H99.0393C101.34 109.419 102.967 108.123 103.501 105.971Z" fill="#0050AE"/>
<path d="M107.219 117.059L110.426 114.073C111.541 115.254 113.145 115.948 114.516 115.948C116.445 115.948 117.653 115.068 117.979 113.796C118.211 112.893 117.351 112.662 115.864 111.944L113.586 110.903C111.727 110.093 110.1 108.242 110.867 105.164C111.634 102.109 115.027 99.6797 119.001 99.6797C121.465 99.6797 123.649 100.698 124.997 102.41L122.185 105.072C121.139 104.1 120.047 103.706 118.699 103.706C117.049 103.706 115.794 104.493 115.469 105.789C115.26 106.622 116.259 106.923 117.793 107.594L120.047 108.566C122.232 109.538 123.394 111.296 122.673 114.305C121.906 117.336 118.676 119.997 114.121 119.997C111.379 119.997 108.869 118.91 107.219 117.059Z" fill="#0050AE"/>
</g>
<defs>
<clipPath id="clip0_14940_40070">
<rect width="101" height="89" fill="white" transform="translate(24 31)"/>
</clipPath>
</defs>
</svg>
