<svg width="254" height="192" viewBox="0 0 254 192" fill="none" xmlns="http://www.w3.org/2000/svg">
<rect x="1" y="1" width="252" height="190" rx="19" stroke="#00695D" stroke-width="2"/>
<path d="M153.503 41.2654L127.354 17.8713C125.264 15.9936 121.719 17.3539 121.719 20.0172V49.37L105.215 35.3067C104.982 35.0959 104.602 35.1151 104.37 35.3258L99.6639 39.8667C99.4318 40.0775 99.4529 40.4224 99.685 40.6331L121.719 59.4097V62.2262L99.7061 80.8112C99.474 81.022 99.4529 81.3669 99.685 81.5776L104.37 86.1377C104.602 86.3484 104.982 86.3676 105.215 86.1568L121.74 72.2085V101.983C121.74 104.646 125.285 106.006 127.375 104.129L153.503 80.7729C154.811 79.6042 154.811 77.669 153.503 76.4811L138.603 63.1651C137.294 61.9963 137.294 60.0612 138.603 58.8733L153.503 45.538C154.832 44.3693 154.832 42.4341 153.503 41.2654ZM129.781 30.3251L144.217 43.2389L129.865 55.3479L129.781 55.2712V30.3251ZM129.781 66.7479L130.055 66.518L144.343 78.6845L129.802 91.694V66.7479H129.781Z" fill="#00695D"/>
<path d="M73.0864 130.296H84.8224C87.3424 130.296 89.2864 130.872 90.7264 132.096C92.0944 133.248 92.7784 134.796 92.7784 136.776C92.7784 138.216 92.4184 139.44 91.6984 140.448C90.9784 141.384 90.0064 142.104 88.7104 142.572C90.4024 142.896 91.6984 143.58 92.5624 144.624C93.4264 145.668 93.8584 147.072 93.8584 148.8C93.8584 151.392 92.9584 153.264 91.1944 154.488C89.6824 155.496 87.5584 156 84.8224 156H73.0864V130.296ZM77.0104 133.536V141.204H83.7784C85.5784 141.204 86.8744 140.88 87.6664 140.268C88.4584 139.62 88.8544 138.612 88.8544 137.244C88.8544 135.948 88.4584 135.012 87.6664 134.436C86.8744 133.824 85.5784 133.536 83.8504 133.536H77.0104ZM77.0104 144.408V152.76H84.2824C85.9384 152.76 87.2344 152.472 88.1704 151.968C89.3224 151.284 89.9344 150.204 89.9344 148.728C89.9344 147.216 89.4664 146.1 88.5664 145.416C87.6664 144.732 86.2624 144.408 84.3904 144.408H77.0104ZM95.8213 130.296H116.881V133.644H108.313V156H104.425V133.644H95.8213V130.296ZM132.873 130.296H148.353V133.752H136.041L135.285 141.168H135.393C136.185 140.34 137.085 139.764 138.129 139.404C139.065 139.008 140.145 138.828 141.297 138.828C143.709 138.828 145.689 139.62 147.201 141.204C148.713 142.788 149.505 144.948 149.505 147.72C149.505 150.384 148.497 152.544 146.553 154.236C144.717 155.748 142.521 156.504 139.965 156.504C137.661 156.504 135.681 155.856 134.025 154.596C132.189 153.228 131.181 151.32 131.001 148.944H134.853C134.997 150.384 135.573 151.5 136.545 152.22C137.409 152.868 138.561 153.192 140.001 153.192C141.585 153.192 142.917 152.688 143.997 151.716C145.077 150.708 145.617 149.412 145.617 147.756C145.617 145.956 145.149 144.552 144.213 143.544C143.277 142.536 141.981 142.032 140.253 142.032C139.101 142.032 138.129 142.212 137.265 142.644C136.329 143.076 135.645 143.76 135.141 144.696H131.469L132.873 130.296ZM155.935 150.852C156.655 150.852 157.303 151.104 157.843 151.608C158.347 152.112 158.635 152.76 158.635 153.552C158.635 154.272 158.347 154.92 157.843 155.46C157.303 155.928 156.655 156.18 155.935 156.18C155.143 156.18 154.531 155.928 154.063 155.46C153.523 154.92 153.271 154.272 153.271 153.552C153.271 152.76 153.523 152.112 154.063 151.608C154.531 151.104 155.143 150.852 155.935 150.852ZM174.24 130.296H177.84V147.288H181.728V150.42H177.84V156H174.096V150.42H161.568V146.712L174.24 130.296ZM173.988 135.264L164.772 147.288H174.096V135.264H173.988Z" fill="#00695D"/>
</svg>
