<svg width="141" height="141" viewBox="0 0 141 141" fill="none" xmlns="http://www.w3.org/2000/svg">
<rect x="1.17201" y="1.17201" width="138.297" height="138.297" rx="16.4082" stroke="#A3A3A3" stroke-width="2.34402"/>
<rect width="42.636" height="7.30903" transform="matrix(1 1.74846e-07 1.74846e-07 -1 49.0312 105.84)" fill="white"/>
<rect width="23.1453" height="7.30903" transform="matrix(1 1.74846e-07 1.74846e-07 -1 81.9219 98.5312)" fill="white"/>
<rect width="23.1453" height="7.30903" transform="matrix(1 1.74846e-07 1.74846e-07 -1 94.1016 91.2305)" fill="white"/>
<rect width="60.9086" height="8.5272" transform="matrix(1.31134e-07 -1 -1 -1.31134e-07 117.25 83.9102)" fill="white"/>
<rect width="60.9086" height="8.5272" transform="matrix(1.31134e-07 -1 -1 -1.31134e-07 31.9727 83.9102)" fill="white"/>
<rect width="28.018" height="7.30903" transform="matrix(1.34716e-07 -1 -1 -1.27233e-07 45.3711 65.6445)" fill="white"/>
<rect width="28.018" height="7.30903" transform="matrix(1.34716e-07 -1 -1 -1.27233e-07 55.1211 65.6445)" fill="white"/>
<rect width="28.018" height="7.30903" transform="matrix(1.34716e-07 -1 -1 -1.27233e-07 64.8633 65.6445)" fill="white"/>
<rect width="28.018" height="7.30903" transform="matrix(1.34716e-07 -1 -1 -1.27233e-07 73.3945 65.6445)" fill="white"/>
<rect width="28.018" height="7.30903" transform="matrix(1.34716e-07 -1 -1 -1.27233e-07 83.1328 65.6445)" fill="white"/>
<rect width="28.018" height="7.30903" transform="matrix(1.34716e-07 -1 -1 -1.27233e-07 92.8789 65.6445)" fill="white"/>
<rect width="28.018" height="7.30903" transform="matrix(1.34716e-07 -1 -1 -1.27233e-07 102.625 65.6445)" fill="white"/>
<rect width="23.1453" height="7.30903" transform="matrix(1 1.74846e-07 1.74846e-07 -1 36.8477 98.5312)" fill="white"/>
<rect width="24.3634" height="7.30903" transform="matrix(1 1.74846e-07 1.74846e-07 -1 23.4453 91.2305)" fill="white"/>
<rect width="76.7449" height="7.30903" transform="matrix(1 1.74846e-07 1.74846e-07 -1 31.9727 30.3086)" fill="white"/>
<path d="M33.0439 130.887V132H26.064V131.026L29.5576 127.137C29.9873 126.658 30.3193 126.253 30.5537 125.921C30.793 125.584 30.959 125.284 31.0518 125.02C31.1494 124.751 31.1982 124.478 31.1982 124.2C31.1982 123.848 31.125 123.531 30.9785 123.248C30.8369 122.959 30.627 122.73 30.3486 122.559C30.0703 122.388 29.7334 122.303 29.3379 122.303C28.8643 122.303 28.4688 122.396 28.1514 122.581C27.8389 122.762 27.6045 123.016 27.4482 123.343C27.292 123.67 27.2139 124.046 27.2139 124.471H25.8589C25.8589 123.87 25.9907 123.321 26.2544 122.823C26.5181 122.325 26.9087 121.929 27.4263 121.636C27.9438 121.338 28.5811 121.189 29.3379 121.189C30.0117 121.189 30.5879 121.309 31.0664 121.548C31.5449 121.783 31.9111 122.115 32.165 122.544C32.4238 122.969 32.5532 123.467 32.5532 124.039C32.5532 124.351 32.4995 124.668 32.3921 124.991C32.2896 125.308 32.1455 125.625 31.96 125.943C31.7793 126.26 31.5669 126.573 31.3228 126.88C31.0835 127.188 30.8271 127.491 30.5537 127.789L27.6973 130.887H33.0439ZM34.6626 131.282C34.6626 131.053 34.7334 130.86 34.875 130.704C35.0215 130.542 35.2314 130.462 35.5049 130.462C35.7783 130.462 35.9858 130.542 36.1274 130.704C36.2739 130.86 36.3472 131.053 36.3472 131.282C36.3472 131.507 36.2739 131.697 36.1274 131.854C35.9858 132.01 35.7783 132.088 35.5049 132.088C35.2314 132.088 35.0215 132.01 34.875 131.854C34.7334 131.697 34.6626 131.507 34.6626 131.282ZM40.1631 126.924L39.0791 126.646L39.6138 121.336H45.085V122.588H40.7637L40.4414 125.489C40.6367 125.376 40.8833 125.271 41.1812 125.174C41.4839 125.076 41.8306 125.027 42.2212 125.027C42.7144 125.027 43.1562 125.113 43.5469 125.284C43.9375 125.45 44.2695 125.689 44.543 126.001C44.8213 126.314 45.0337 126.69 45.1802 127.129C45.3267 127.569 45.3999 128.06 45.3999 128.602C45.3999 129.114 45.3291 129.585 45.1875 130.015C45.0508 130.445 44.8433 130.821 44.5649 131.143C44.2866 131.46 43.9351 131.707 43.5103 131.883C43.0903 132.059 42.5947 132.146 42.0234 132.146C41.5938 132.146 41.186 132.088 40.8003 131.971C40.4194 131.849 40.0776 131.666 39.7749 131.421C39.4771 131.172 39.2329 130.865 39.0425 130.499C38.8569 130.127 38.7397 129.693 38.6909 129.195H39.98C40.0386 129.595 40.1558 129.932 40.3315 130.206C40.5073 130.479 40.7368 130.687 41.02 130.828C41.3081 130.965 41.6426 131.033 42.0234 131.033C42.3457 131.033 42.6313 130.977 42.8804 130.865C43.1294 130.752 43.3394 130.591 43.5103 130.381C43.6812 130.171 43.8105 129.917 43.8984 129.62C43.9912 129.322 44.0376 128.987 44.0376 128.616C44.0376 128.279 43.9912 127.967 43.8984 127.679C43.8057 127.391 43.6665 127.139 43.481 126.924C43.3003 126.709 43.0781 126.543 42.8145 126.426C42.5508 126.304 42.248 126.243 41.9062 126.243C41.4521 126.243 41.1079 126.304 40.8735 126.426C40.644 126.548 40.4072 126.714 40.1631 126.924ZM55.1191 126.69V130.594C54.9873 130.789 54.7773 131.009 54.4893 131.253C54.2012 131.492 53.8032 131.702 53.2954 131.883C52.7925 132.059 52.1431 132.146 51.3472 132.146C50.6978 132.146 50.0996 132.034 49.5527 131.81C49.0107 131.58 48.5396 131.248 48.1392 130.813C47.7437 130.374 47.436 129.842 47.2163 129.217C47.0015 128.587 46.894 127.874 46.894 127.078V126.25C46.894 125.455 46.9868 124.744 47.1724 124.119C47.3628 123.494 47.6411 122.964 48.0073 122.53C48.3735 122.09 48.8228 121.758 49.355 121.534C49.8872 121.304 50.4976 121.189 51.186 121.189C52.0015 121.189 52.6826 121.331 53.2295 121.614C53.7812 121.893 54.2109 122.278 54.5186 122.771C54.8311 123.265 55.0312 123.826 55.1191 124.456H53.7056C53.6421 124.07 53.5151 123.719 53.3247 123.401C53.1392 123.084 52.873 122.83 52.5264 122.64C52.1797 122.444 51.7329 122.347 51.186 122.347C50.6929 122.347 50.2656 122.437 49.9043 122.618C49.543 122.798 49.2451 123.057 49.0107 123.394C48.7764 123.731 48.6006 124.139 48.4834 124.617C48.3711 125.096 48.3149 125.635 48.3149 126.236V127.078C48.3149 127.693 48.3857 128.243 48.5273 128.726C48.6738 129.209 48.8813 129.622 49.1499 129.964C49.4185 130.301 49.7383 130.557 50.1094 130.733C50.4854 130.909 50.9004 130.997 51.3545 130.997C51.8574 130.997 52.2651 130.955 52.5776 130.872C52.8901 130.784 53.1343 130.682 53.3101 130.564C53.4858 130.442 53.6201 130.328 53.7129 130.22V127.833H51.2446V126.69H55.1191ZM67.9585 130.85V132H62.3115V130.85H67.9585ZM62.5972 121.336V132H61.1836V121.336H62.5972ZM67.2114 125.921V127.071H62.3115V125.921H67.2114ZM67.8853 121.336V122.493H62.3115V121.336H67.8853ZM72.8218 124.075V125.115H68.5371V124.075H72.8218ZM69.9873 122.149H71.3423V130.037C71.3423 130.306 71.3838 130.508 71.4668 130.645C71.5498 130.782 71.6572 130.872 71.7891 130.916C71.9209 130.96 72.0625 130.982 72.2139 130.982C72.3262 130.982 72.4434 130.972 72.5654 130.953C72.6924 130.928 72.7876 130.909 72.8511 130.894L72.8584 132C72.751 132.034 72.6094 132.066 72.4336 132.095C72.2627 132.129 72.0552 132.146 71.811 132.146C71.479 132.146 71.1738 132.081 70.8955 131.949C70.6172 131.817 70.395 131.597 70.229 131.29C70.0679 130.977 69.9873 130.557 69.9873 130.03V122.149ZM75.7661 120.75V132H74.4111V120.75H75.7661ZM75.4438 127.737L74.8799 127.715C74.8848 127.173 74.9653 126.673 75.1216 126.214C75.2778 125.75 75.4976 125.347 75.7808 125.005C76.064 124.664 76.4009 124.4 76.7915 124.214C77.187 124.024 77.624 123.929 78.1025 123.929C78.4932 123.929 78.8447 123.982 79.1572 124.09C79.4697 124.192 79.7358 124.358 79.9556 124.588C80.1802 124.817 80.3511 125.115 80.4683 125.481C80.5854 125.843 80.644 126.285 80.644 126.807V132H79.2817V126.792C79.2817 126.377 79.2207 126.045 79.0986 125.796C78.9766 125.542 78.7983 125.359 78.564 125.247C78.3296 125.13 78.0415 125.071 77.6997 125.071C77.3628 125.071 77.0552 125.142 76.7769 125.284C76.5034 125.425 76.2666 125.621 76.0664 125.87C75.8711 126.119 75.7173 126.404 75.605 126.727C75.4976 127.044 75.4438 127.381 75.4438 127.737ZM85.9614 132.146C85.4097 132.146 84.9092 132.054 84.46 131.868C84.0156 131.678 83.6323 131.412 83.3101 131.07C82.9927 130.728 82.7485 130.323 82.5776 129.854C82.4067 129.385 82.3213 128.873 82.3213 128.316V128.008C82.3213 127.364 82.4165 126.79 82.6069 126.287C82.7974 125.779 83.0562 125.35 83.3833 124.998C83.7104 124.646 84.0815 124.38 84.4966 124.2C84.9116 124.019 85.3413 123.929 85.7856 123.929C86.3521 123.929 86.8403 124.026 87.2505 124.222C87.6655 124.417 88.0049 124.69 88.2686 125.042C88.5322 125.389 88.7275 125.799 88.8545 126.272C88.9814 126.741 89.0449 127.254 89.0449 127.811V128.418H83.127V127.312H87.6899V127.21C87.6704 126.858 87.5972 126.517 87.4702 126.185C87.3481 125.853 87.1528 125.579 86.8843 125.364C86.6157 125.149 86.2495 125.042 85.7856 125.042C85.478 125.042 85.1948 125.108 84.936 125.24C84.6772 125.367 84.4551 125.557 84.2695 125.811C84.084 126.065 83.9399 126.375 83.8374 126.741C83.7349 127.107 83.6836 127.53 83.6836 128.008V128.316C83.6836 128.692 83.7349 129.046 83.8374 129.378C83.9448 129.705 84.0986 129.993 84.2988 130.242C84.5039 130.491 84.7505 130.687 85.0386 130.828C85.3315 130.97 85.6636 131.041 86.0347 131.041C86.5132 131.041 86.9185 130.943 87.2505 130.748C87.5825 130.552 87.873 130.291 88.1221 129.964L88.9424 130.616C88.7715 130.875 88.5542 131.121 88.2905 131.355C88.0269 131.59 87.7021 131.78 87.3164 131.927C86.9355 132.073 86.4839 132.146 85.9614 132.146ZM91.9819 125.32V132H90.627V124.075H91.9453L91.9819 125.32ZM94.4575 124.031L94.4502 125.291C94.3379 125.267 94.2305 125.252 94.1279 125.247C94.0303 125.237 93.918 125.232 93.791 125.232C93.4785 125.232 93.2026 125.281 92.9634 125.379C92.7241 125.477 92.5215 125.613 92.3555 125.789C92.1895 125.965 92.0576 126.175 91.96 126.419C91.8672 126.658 91.8062 126.922 91.7769 127.21L91.396 127.43C91.396 126.951 91.4424 126.502 91.5352 126.082C91.6328 125.662 91.7817 125.291 91.9819 124.969C92.1821 124.642 92.436 124.388 92.7437 124.207C93.0562 124.021 93.4272 123.929 93.8569 123.929C93.9546 123.929 94.0669 123.941 94.1938 123.965C94.3208 123.985 94.4087 124.007 94.4575 124.031ZM97.0649 125.767V132H95.71V124.075H96.9917L97.0649 125.767ZM96.7427 127.737L96.1787 127.715C96.1836 127.173 96.2642 126.673 96.4204 126.214C96.5767 125.75 96.7964 125.347 97.0796 125.005C97.3628 124.664 97.6997 124.4 98.0903 124.214C98.4858 124.024 98.9229 123.929 99.4014 123.929C99.792 123.929 100.144 123.982 100.456 124.09C100.769 124.192 101.035 124.358 101.254 124.588C101.479 124.817 101.65 125.115 101.767 125.481C101.884 125.843 101.943 126.285 101.943 126.807V132H100.581V126.792C100.581 126.377 100.52 126.045 100.397 125.796C100.275 125.542 100.097 125.359 99.8628 125.247C99.6284 125.13 99.3403 125.071 98.9985 125.071C98.6616 125.071 98.354 125.142 98.0757 125.284C97.8022 125.425 97.5654 125.621 97.3652 125.87C97.1699 126.119 97.0161 126.404 96.9038 126.727C96.7964 127.044 96.7427 127.381 96.7427 127.737ZM107.29 132.146C106.738 132.146 106.237 132.054 105.788 131.868C105.344 131.678 104.96 131.412 104.638 131.07C104.321 130.728 104.077 130.323 103.906 129.854C103.735 129.385 103.649 128.873 103.649 128.316V128.008C103.649 127.364 103.745 126.79 103.935 126.287C104.125 125.779 104.384 125.35 104.711 124.998C105.039 124.646 105.41 124.38 105.825 124.2C106.24 124.019 106.669 123.929 107.114 123.929C107.68 123.929 108.168 124.026 108.579 124.222C108.994 124.417 109.333 124.69 109.597 125.042C109.86 125.389 110.056 125.799 110.183 126.272C110.31 126.741 110.373 127.254 110.373 127.811V128.418H104.455V127.312H109.018V127.21C108.999 126.858 108.925 126.517 108.798 126.185C108.676 125.853 108.481 125.579 108.212 125.364C107.944 125.149 107.578 125.042 107.114 125.042C106.806 125.042 106.523 125.108 106.264 125.24C106.005 125.367 105.783 125.557 105.598 125.811C105.412 126.065 105.268 126.375 105.166 126.741C105.063 127.107 105.012 127.53 105.012 128.008V128.316C105.012 128.692 105.063 129.046 105.166 129.378C105.273 129.705 105.427 129.993 105.627 130.242C105.832 130.491 106.079 130.687 106.367 130.828C106.66 130.97 106.992 131.041 107.363 131.041C107.841 131.041 108.247 130.943 108.579 130.748C108.911 130.552 109.201 130.291 109.45 129.964L110.271 130.616C110.1 130.875 109.882 131.121 109.619 131.355C109.355 131.59 109.03 131.78 108.645 131.927C108.264 132.073 107.812 132.146 107.29 132.146ZM115.273 124.075V125.115H110.988V124.075H115.273ZM112.438 122.149H113.793V130.037C113.793 130.306 113.835 130.508 113.918 130.645C114.001 130.782 114.108 130.872 114.24 130.916C114.372 130.96 114.514 130.982 114.665 130.982C114.777 130.982 114.895 130.972 115.017 130.953C115.144 130.928 115.239 130.909 115.302 130.894L115.31 132C115.202 132.034 115.061 132.066 114.885 132.095C114.714 132.129 114.506 132.146 114.262 132.146C113.93 132.146 113.625 132.081 113.347 131.949C113.068 131.817 112.846 131.597 112.68 131.29C112.519 130.977 112.438 130.557 112.438 130.03V122.149Z" fill="white"/>
</svg>
