<svg width="141" height="142" viewBox="0 0 141 142" fill="none" xmlns="http://www.w3.org/2000/svg">
<rect x="1.17201" y="1.61342" width="138.297" height="138.297" rx="16.4082" stroke="#A3A3A3" stroke-width="2.34402"/>
<path d="M89.6616 39C91.8253 39 93.4798 39.3023 94.6253 39.9068C95.7707 40.5114 96.7571 41.6727 97.5844 43.3909C97.9025 44.0909 98.4116 45.1727 99.1116 46.6364C99.8116 48.1 100.607 49.7545 101.498 51.6C102.389 53.4455 103.312 55.4023 104.266 57.4705C105.221 59.5386 106.128 61.4955 106.987 63.3409C107.846 65.1864 108.609 66.825 109.278 68.2568C109.946 69.6886 110.407 70.7227 110.662 71.3591C110.98 72.0591 111.25 72.5841 111.473 72.9341C111.696 73.2841 111.887 73.6659 112.046 74.0795C112.205 74.4932 112.316 74.9864 112.38 75.5591C112.443 76.1318 112.475 76.9273 112.475 77.9455C112.475 78.7091 112.459 79.8864 112.428 81.4773C112.396 83.0682 112.38 84.7545 112.38 86.5364V91.8818V95.6045C112.38 97.3864 111.855 98.8977 110.805 100.139C109.755 101.38 108.243 102 106.271 102H32.9616C31.1162 102 29.7162 101.411 28.7616 100.234C27.8071 99.0568 27.298 97.5455 27.2344 95.7V92.3591C27.2344 90.8955 27.2503 89.3364 27.2821 87.6818C27.3139 86.0273 27.3298 84.3727 27.3298 82.7182V78.7091C27.3298 77.6273 27.3457 76.7682 27.3776 76.1318C27.4094 75.4955 27.4889 74.9386 27.6162 74.4614C27.7435 73.9841 27.8866 73.4909 28.0457 72.9818C28.2048 72.4727 28.4435 71.8364 28.7616 71.0727C28.9526 70.5636 29.3662 69.5932 30.0026 68.1614C30.6389 66.7295 31.4026 65.0909 32.2935 63.2455C33.1844 61.4 34.1548 59.4273 35.2048 57.3273C36.2548 55.2273 37.2412 53.2386 38.1639 51.3614C39.0866 49.4841 39.9298 47.8136 40.6935 46.35L42.2207 43.2C43.048 41.5455 44.0662 40.4318 45.2753 39.8591C46.4844 39.2864 47.9162 39 49.5707 39H89.6616ZM106.175 79.6636C106.175 77.7545 105.284 76.8 103.503 76.8L35.9207 76.8955C34.8389 76.8955 34.0116 77.1977 33.4389 77.8023C32.8662 78.4068 32.5798 79.1864 32.5798 80.1409V93.6955C32.5798 94.4591 32.7866 95.0955 33.2003 95.6045C33.6139 96.1136 34.2662 96.3682 35.1571 96.3682L103.121 96.4636C104.393 96.4636 105.221 96.1614 105.603 95.5568C105.984 94.9523 106.175 94.2045 106.175 93.3136V79.6636ZM49.9526 43.9636C49.0616 43.9636 48.3139 44.2659 47.7094 44.8705C47.1048 45.475 46.8026 46.2227 46.8026 47.1136C46.8026 48.0045 47.1048 48.7523 47.7094 49.3568C48.3139 49.9614 49.0616 50.2636 49.9526 50.2636C50.8435 50.2636 51.5753 49.9614 52.148 49.3568C52.7207 48.7523 53.0071 48.0045 53.0071 47.1136C53.0071 46.2227 52.7207 45.475 52.148 44.8705C51.5753 44.2659 50.8435 43.9636 49.9526 43.9636ZM42.6026 61.1455C41.7116 61.1455 40.9639 61.4477 40.3594 62.0523C39.7548 62.6568 39.4526 63.4045 39.4526 64.2955C39.4526 65.1864 39.7548 65.9341 40.3594 66.5386C40.9639 67.1432 41.7116 67.4455 42.6026 67.4455C43.4935 67.4455 44.2412 67.1432 44.8457 66.5386C45.4503 65.9341 45.7526 65.1864 45.7526 64.2955C45.7526 63.4045 45.4503 62.6568 44.8457 62.0523C44.2412 61.4477 43.4935 61.1455 42.6026 61.1455ZM86.5116 47.1136C86.5116 48.0045 86.798 48.7523 87.3707 49.3568C87.9435 49.9614 88.6753 50.2636 89.5662 50.2636C90.4571 50.2636 91.2048 49.9614 91.8094 49.3568C92.4139 48.7523 92.7162 48.0045 92.7162 47.1136C92.7162 46.2227 92.4139 45.475 91.8094 44.8705C91.2048 44.2659 90.4571 43.9636 89.5662 43.9636C88.6753 43.9636 87.9435 44.2659 87.3707 44.8705C86.798 45.475 86.5116 46.2227 86.5116 47.1136ZM93.7662 64.2955C93.7662 65.1864 94.0685 65.9341 94.673 66.5386C95.2775 67.1432 96.0253 67.4455 96.9162 67.4455C97.8071 67.4455 98.5389 67.1432 99.1116 66.5386C99.6844 65.9341 99.9707 65.1864 99.9707 64.2955C99.9707 63.4045 99.6844 62.6568 99.1116 62.0523C98.5389 61.4477 97.8071 61.1455 96.9162 61.1455C96.0253 61.1455 95.2775 61.4477 94.673 62.0523C94.0685 62.6568 93.7662 63.4045 93.7662 64.2955ZM44.3207 93.6955H41.4571V80.1409H44.3207V93.6955ZM53.0071 93.6955H50.1435V80.1409H53.0071V93.6955ZM61.7889 93.6955H58.9253V80.1409H61.7889V93.6955ZM70.4753 93.6955H67.6116V80.1409H70.4753V93.6955ZM79.448 93.6955H76.5844V80.1409H79.448V93.6955ZM88.3253 93.6955H85.4616V80.1409H88.3253V93.6955ZM96.7253 93.6955H93.8616V80.1409H96.7253V93.6955Z" fill="white"/>
</svg>
