<svg width="141" height="141" viewBox="0 0 141 141" fill="none" xmlns="http://www.w3.org/2000/svg">
<rect x="1.17201" y="1.39467" width="138.297" height="138.297" rx="16.4082" stroke="#A3A3A3" stroke-width="2.34402"/>
<path d="M23.643 45.9466C28.3579 41.172 33.0727 36.3974 37.7875 31.6288C37.8625 31.5539 37.9374 31.4789 38.0183 31.41C38.5907 30.8974 38.7822 30.8971 39.371 31.3839C39.7207 31.6737 40.0464 31.9934 40.426 32.2411C40.9133 32.5606 41.3175 32.4552 41.7701 31.9847C42.1808 31.5501 42.2863 31.0322 41.9788 30.5988C41.7488 30.2729 41.453 29.9891 41.1752 29.6993C40.6613 29.1674 40.632 28.7844 41.1565 28.2479C42.4334 26.9411 43.7193 25.6373 45.026 24.3604C45.8563 23.5481 46.1885 23.5267 47.0251 24.3274C48.57 25.8063 50.0639 27.3361 51.5758 28.848C51.6983 28.9705 51.8148 29.099 52.015 29.3112C52.2878 29.0025 52.5277 28.6969 52.7974 28.4271C53.5737 27.6389 54.3458 27.6197 55.1257 28.3996C57.9792 31.247 60.8176 34.1095 63.6681 36.9599C81.3147 54.6066 98.9643 72.2562 116.611 89.9028C117.02 90.3121 117.445 90.7065 117.824 91.1398C118.469 91.875 118.507 92.4106 117.845 93.1328C116.613 94.4784 115.345 95.8002 114.05 97.089C112.198 98.9413 110.301 100.749 108.433 102.586C108.166 102.853 108.011 102.901 107.736 102.566C106.547 101.12 104.662 100.853 103.057 101.867C101.472 102.872 100.744 104.986 101.535 106.556C101.833 107.148 102.35 107.635 102.876 108.311C102.391 108.748 101.839 109.21 101.333 109.711C98.8749 112.151 96.4291 114.602 93.9773 117.048C93.7165 117.309 93.4468 117.561 93.1651 117.801C92.3111 118.523 91.7186 118.512 90.9208 117.72C88.8083 115.62 86.7078 113.507 84.6014 111.401C66.2466 93.0461 47.8949 74.6944 29.5401 56.3396C29.1069 55.9064 28.6616 55.4851 28.2434 55.0369C27.604 54.3496 27.6231 53.6373 28.2795 52.951C28.5553 52.6633 28.852 52.3905 29.0918 52.1567C27.2574 50.2084 25.4469 48.284 23.6394 46.3626L23.64 45.9436L23.643 45.9466ZM105.527 89.3635C105.3 89.0586 105.133 88.7716 104.906 88.5445C103.29 86.94 101.652 85.3565 100.042 83.746C95.1922 78.9086 90.3518 74.0562 85.5084 69.2128C79.0037 62.7081 72.493 56.2095 65.9943 49.6988C63.1738 46.8722 60.3802 44.0127 57.5716 41.1741C56.8455 40.4421 56.7557 40.4362 56.0993 41.0926C51.0129 46.173 45.9266 51.2535 40.8461 56.3399C40.1118 57.0742 40.1235 57.2238 40.8556 57.9618C53.3271 70.4453 65.7956 82.9319 78.2701 95.4124C81.6525 98.7947 85.0408 102.171 88.4321 105.544C88.8683 105.981 89.0838 105.974 89.5483 105.57C89.6681 105.468 89.7731 105.345 89.884 105.234C91.5385 103.555 93.1841 101.874 94.8476 100.204C98.2346 96.8056 101.633 93.4186 105.02 90.0197C105.2 89.8398 105.329 89.6152 105.524 89.3605L105.527 89.3635ZM30.4702 41.468C29.8648 42.0495 29.3373 42.5531 28.7199 43.1466C29.7866 44.1594 30.8474 45.1602 32.0546 46.3075C31.6621 46.6163 31.3206 46.8264 31.0658 47.1051C30.7571 47.4437 30.5716 47.3961 30.2788 47.0794C29.3975 46.1321 28.4772 45.2238 27.4972 44.2198C26.8856 44.957 26.3429 45.6132 25.8002 46.2634C27.2344 47.6797 28.8151 49.2363 30.3987 50.796C37.1426 44.0341 43.9315 37.2333 50.7174 30.4295C50.7055 30.4055 50.6966 30.3666 50.6756 30.3457C49.3879 29.0579 48.0971 27.7672 46.8123 26.4764C46.0295 25.6935 46.0563 25.7204 45.2562 26.4549C44.8486 26.8266 44.9231 27.033 45.2697 27.3616C46.202 28.2519 47.1073 29.1752 47.9947 30.0567C47.5721 30.4912 47.2004 30.8749 46.7178 31.3754C45.8335 30.4491 44.9461 29.5317 44.0737 28.5994C43.8138 28.3215 43.6016 28.1752 43.242 28.475C42.8884 28.7689 42.8821 28.9963 43.1568 29.343C43.6018 29.9019 43.9061 30.5539 43.8541 31.2811C43.704 33.463 41.4995 34.6934 39.5409 33.7179C39.197 33.5478 38.8056 33.1744 38.5301 33.2466C38.1769 33.343 37.9248 33.7982 37.628 34.1009C37.5681 34.1609 37.5111 34.2298 37.4032 34.3437C38.4819 35.3984 39.5516 36.4441 40.5526 37.4271C40.1179 37.8916 39.7462 38.2813 39.4075 38.6439C38.3587 37.6311 37.3009 36.6152 36.1027 35.459C35.674 35.9474 35.2692 36.4598 34.8136 36.9154C34.5228 37.2061 34.5016 37.3947 34.8064 37.6815C35.5684 38.4075 36.2944 39.1695 37.0534 39.8925C37.2476 40.0807 37.5137 40.197 37.6961 40.3135C37.1625 40.8769 36.7908 41.2665 36.3592 41.7161C35.3165 40.6554 34.2827 39.5976 33.1503 38.4472C32.6946 38.9447 32.2839 39.4272 31.8313 39.8678C31.5676 40.1256 31.6152 40.2811 31.8483 40.5082C32.4668 41.1027 33.0674 41.7153 33.6799 42.3218C34.0325 42.6744 34.4 43.0179 34.7556 43.3556C34.4259 43.6912 34.1532 43.946 33.9163 44.2247C33.6525 44.5364 33.4609 44.5426 33.1652 44.2289C32.2808 43.2846 31.3546 42.3763 30.4582 41.468L30.4702 41.468ZM56.9477 36.348C56.9505 34.5465 55.7853 33.3393 54.0436 33.342C52.278 33.3448 51.0131 34.6336 51.0193 36.4202C51.0226 38.1199 52.2776 39.333 53.9863 39.3752C55.6261 39.4145 57.1725 38.0056 56.9477 36.348Z" fill="white"/>
<path d="M61.7685 68.7119C64.112 66.6374 66.4375 64.5808 68.8079 62.4853C68.9006 62.5599 69.0142 62.6316 69.1038 62.7212C69.8 63.4354 70.4781 64.1735 71.2013 64.8606C71.4821 65.1295 71.4759 65.2971 71.2809 65.6057C70.5939 66.6871 69.9398 67.7894 69.2827 68.8887C69.1687 69.0804 69.1025 69.296 68.9613 69.6284C69.1979 69.5412 69.3236 69.5171 69.4254 69.4571C70.6236 68.725 71.8218 67.9929 73.0051 67.2399C73.2806 67.0659 73.4452 67.0866 73.6693 67.3227C74.4371 68.1384 75.2229 68.9302 76.0684 69.8057C74.0389 72.0983 71.9703 74.4297 69.9078 76.7552C69.2027 76.0142 68.5095 75.2911 67.7955 74.541C68.7457 73.531 69.7739 72.4371 70.8051 71.3402L70.7275 71.2027C70.4849 71.2958 70.2304 71.3591 70.0118 71.4881C68.9664 72.1032 67.93 72.7273 66.9025 73.3723C66.6539 73.5313 66.5013 73.5046 66.3161 73.3074C65.9934 72.9608 65.6768 72.6081 65.3211 72.2945C65.0552 72.0585 65.0644 71.8699 65.2444 71.5764C65.9615 70.4111 66.6516 69.231 67.3508 68.0538C67.3718 68.0148 67.3808 67.964 67.3152 67.8204C67.0665 68.0093 66.7999 68.1803 66.5722 68.3902C65.757 69.1396 64.9598 69.907 64.1386 70.6504C64.0457 70.7373 63.7793 70.7826 63.7196 70.7229C63.0622 70.0715 62.4288 69.3962 61.7685 68.7119Z" fill="white"/>
<path d="M55.8673 54.9704C56.7544 54.155 57.7044 53.2826 58.6544 52.4103C59.261 53.0348 59.9212 53.7191 60.5786 54.3944C58.4325 56.5404 56.2385 58.7345 53.9845 60.9884C53.4019 60.3878 52.8043 59.8022 52.2457 59.1836C52.1441 59.0701 52.1325 58.8187 52.1627 58.6511C52.4133 57.2591 52.6788 55.8701 52.9383 54.5171C52.0482 55.3594 51.1251 56.2347 50.157 57.1489C49.5296 56.4676 48.8903 55.7743 48.2719 55.102C50.403 52.9589 52.597 50.7469 54.7851 48.5469C55.3976 49.1355 56.0222 49.7181 56.6108 50.3307C56.7094 50.4293 56.682 50.6957 56.6488 50.8723C56.3923 52.2642 56.1237 53.6502 55.8643 54.9734L55.8673 54.9704Z" fill="white"/>
<path d="M60.3481 62.7357C60.5997 62.5977 60.8603 62.4746 61.1059 62.3186C62.4929 61.4276 63.8828 60.5396 65.2579 59.6307C65.5874 59.4147 65.7789 59.4264 66.0418 59.7312C66.5884 60.3678 67.186 60.9534 67.7716 61.5749C66.169 62.5441 64.5185 63.5432 62.8711 64.5393C61.8826 65.1394 60.8851 65.7305 59.9056 66.3455C59.6479 66.5075 59.4894 66.4928 59.2772 66.2747C58.4317 65.4111 57.5591 64.5746 56.7166 63.708C56.618 63.6094 56.5586 63.3342 56.6246 63.2264C58.2058 60.5934 59.805 57.9724 61.4011 55.3543C61.4251 55.3124 61.476 55.2914 61.5959 55.1954C62.2383 55.8558 62.8896 56.5131 63.508 57.1975C63.5857 57.2811 63.5404 57.5595 63.4564 57.6853C62.4814 59.1862 61.4856 60.6721 60.4987 62.1669C60.3997 62.3137 60.3306 62.4784 60.2435 62.6371C60.2764 62.67 60.3093 62.7029 60.3421 62.7357L60.3481 62.7357Z" fill="white"/>
<path d="M77.1432 81.042C76.8343 81.4824 76.5193 81.9647 76.1655 82.4201C76.0875 82.516 75.8091 82.5793 75.7164 82.5166C74.4698 81.6956 73.2801 80.8176 72.4532 79.5291C71.7278 78.3961 71.7445 77.2858 72.4614 76.1804C73.1004 75.1948 73.8858 74.3497 74.9848 73.8602C75.8742 73.4608 76.748 73.4893 77.6062 73.9698C78.7992 74.6412 79.6834 75.6214 80.3519 76.7935C80.8205 77.6097 80.6816 78.406 80.0341 79.1073C79.8572 79.3021 79.6714 79.4879 79.4766 79.6648C78.7664 80.2913 77.9462 80.4303 77.1449 79.9587C76.4602 79.5558 75.8686 78.9941 75.2319 78.5073C75.0257 78.349 74.8887 77.9302 74.523 78.3019C74.1633 78.6735 74.5131 78.8795 74.7343 79.0647C75.5173 79.7278 76.3183 80.367 77.1492 81.042L77.1432 81.042ZM76.0063 77.0636C76.347 77.3384 76.7565 77.67 77.1749 77.9985C77.1928 78.0164 77.2737 77.9774 77.3156 77.9474C77.5344 77.7765 77.768 77.6145 77.9569 77.4137C78.0258 77.3448 78.0441 77.1173 77.9874 77.0545C77.7155 76.7647 77.4377 76.4629 77.1088 76.2479C76.8069 76.0479 75.9801 76.5879 76.0063 77.0636Z" fill="white"/>
<path d="M86.9752 94.1294C88.324 92.7566 89.6219 91.4289 90.9347 90.1161C91.0096 90.0411 91.285 90.0407 91.3567 90.1124C92.1245 90.9043 92.8954 91.6931 93.6033 92.5329C94.1709 93.2024 94.2504 94.0132 93.6957 94.7114C93.1469 95.4035 92.5085 96.0419 91.8193 96.5996C91.0972 97.1843 90.2623 97.1467 89.554 96.5344C88.6575 95.7577 87.8149 94.9211 86.9722 94.1324L86.9752 94.1294ZM89.1684 94.3384C89.5181 94.664 89.772 94.9539 90.0859 95.1599C90.2324 95.2585 90.5735 95.2759 90.6874 95.1799C91.2358 94.6973 91.7543 94.1727 92.237 93.6243C92.3329 93.5165 92.3035 93.1634 92.196 93.0379C91.9481 92.748 91.6222 92.53 91.3203 92.2941C91.3054 92.2791 91.2005 92.3541 91.1526 92.4021C90.5142 93.0225 89.8818 93.643 89.1684 94.3444L89.1684 94.3384Z" fill="white"/>
<path d="M86.0603 84.8623C85.6588 85.1562 85.3621 85.4051 85.0357 85.5941C84.9488 85.6451 84.7215 85.5557 84.6289 85.4631C84.2644 85.0866 83.9448 84.6651 83.5683 84.3006C83.4548 84.1871 83.2064 84.2084 83.0209 84.1668C83.0355 84.3553 82.9933 84.5768 83.0769 84.7263C83.2738 85.0732 83.5607 85.372 83.7606 85.7158C84.2769 86.6038 84.1502 87.2564 83.353 88.0058C82.5828 88.7342 81.8913 88.8759 81.1082 88.2248C80.2953 87.5497 79.6173 86.7158 78.8973 85.9359C78.8376 85.8762 78.9007 85.6995 78.9158 85.5768C78.9189 85.5498 78.9698 85.5348 78.9937 85.5108C79.752 84.7944 79.743 84.8034 80.4151 85.5834C80.7347 85.951 81.0783 86.3066 81.4519 86.6202C81.5715 86.7218 81.8139 86.6765 82.0024 86.6971C81.9788 86.5236 82.009 86.3141 81.9224 86.1796C81.7105 85.8417 81.4207 85.5519 81.1997 85.2171C80.7042 84.4577 80.7438 83.9579 81.3105 83.2597C81.3675 83.1908 81.4185 83.1219 81.4844 83.062C82.7281 81.9438 83.2009 81.967 84.3246 82.9528C84.9492 83.4994 85.4508 84.1809 86.0603 84.8623Z" fill="white"/>
<path d="M82.8162 89.8205C82.9421 89.7066 83.029 89.6197 83.1249 89.5477C83.4065 89.3437 83.6911 89.1428 83.9518 88.9598C84.4417 89.5217 84.9047 90.0566 85.3677 90.5916C85.6754 90.9472 85.9686 90.9886 86.2507 90.4854C85.9819 90.1687 85.6891 89.8459 85.4203 89.5112C84.7811 88.7161 84.8272 87.9649 85.5526 87.1558C86.374 86.2447 87.1524 86.034 87.9774 86.6971C88.7425 87.3124 89.3787 88.0925 90.1257 88.8454C89.6882 89.2172 89.3526 89.505 88.987 89.8168C88.5448 89.3267 88.1386 88.8725 87.7323 88.4182C87.5471 88.209 87.3468 88.0208 87.0711 88.2786C86.7954 88.5364 87.0555 88.7186 87.1899 88.9009C87.3989 89.1819 87.6319 89.4449 87.826 89.7348C88.2619 90.3805 88.2667 91.0928 87.7631 91.6801C87.4363 92.0547 87.0138 92.3636 86.5855 92.6246C86.1931 92.8617 85.7773 92.7217 85.3977 92.4858C84.3363 91.8202 83.5807 90.8607 82.8192 89.8175L82.8162 89.8205Z" fill="white"/>
<path d="M53.9756 37.5809C53.386 37.5668 52.8035 36.9124 52.8314 36.2988C52.8562 35.7482 53.4766 35.1457 54.0093 35.1508C54.6168 35.1589 55.2652 35.7833 55.2553 36.3549C55.2484 36.9714 54.595 37.5949 53.9756 37.5809Z" fill="white"/>
</svg>
