<svg width="120" height="120" viewBox="0 0 120 120" fill="none" xmlns="http://www.w3.org/2000/svg">
<rect x="1" y="1" width="118" height="118" rx="14" stroke="#A3A3A3" stroke-width="2"/>
<path d="M68.4761 77.9102L48.346 77.9102L48.346 73.5123L42.316 73.5123L42.316 68.9332L35.4699 68.9332L35.4699 38.5112L80.2188 38.5112L80.2188 59.0041L75.6849 59.0041L75.6849 43.045L40.0037 43.045L40.0037 64.3994L46.8498 64.3994L46.8498 68.9785L52.8798 68.9785L52.8798 73.3763L63.9423 73.3763L63.9423 68.7972L73.2367 68.7972L73.2367 73.331L68.4761 73.331L68.4761 77.9102Z" fill="white"/>
<path d="M73.243 92.2344L34.0708 92.2344C29.0836 92.2344 25.0031 88.1539 25.0031 83.1667L25.0031 33.0679C25.0031 28.0807 29.0836 24.0003 34.0708 24.0003L81.948 24.0003C86.9352 24.0003 91.0156 28.0807 91.0156 33.0679L91.0156 58.1853L86.4818 58.1853L86.4818 33.0679C86.4818 30.5743 84.4416 28.5341 81.948 28.5341L34.1161 28.5341C31.6225 28.5341 29.5823 30.5743 29.5823 33.0679L29.5823 83.1667C29.5823 85.6603 31.6225 87.7005 34.1161 87.7005L73.243 87.7005L73.243 92.2344Z" fill="white"/>
<path d="M81.2651 62.9011L92.7356 62.9011L85.0735 72.3768L96 72.3768L72.8775 96.6328L79.4062 80.6737L71.4267 80.6737L81.2651 62.9011Z" fill="white"/>
<path d="M45.8408 45.3398L42.7578 45.3398L42.7578 57.4905L45.8408 57.4905L45.8408 45.3398Z" fill="white"/>
<path d="M50.5518 45.3398L47.4688 45.3398L47.4687 57.4905L50.5517 57.4905L50.5518 45.3398Z" fill="white"/>
<path d="M55.2158 45.3398L52.1328 45.3398L52.1328 57.4905L55.2158 57.4905L55.2158 45.3398Z" fill="white"/>
<path d="M59.8721 45.3398L56.7891 45.3398L56.7891 57.4905L59.8721 57.4905L59.8721 45.3398Z" fill="white"/>
<path d="M64.5361 45.3398L61.4531 45.3398L61.4531 57.4905L64.5361 57.4905L64.5361 45.3398Z" fill="white"/>
<path d="M69.2002 45.3398L66.1172 45.3398L66.1172 57.4905L69.2002 57.4905L69.2002 45.3398Z" fill="white"/>
<path d="M73.8643 45.3398L70.7812 45.3398L70.7812 57.4905L73.8642 57.4905L73.8643 45.3398Z" fill="white"/>
</svg>
