<svg width="120" height="120" viewBox="0 0 120 120" fill="none" xmlns="http://www.w3.org/2000/svg">
<rect x="1" y="1" width="118" height="118" rx="14" stroke="#A3A3A3" stroke-width="2"/>
<path d="M14 35.1515H20.7328C22.4733 35.1515 23.8843 33.7405 23.8843 32L105 32V54.8485C101.834 54.8485 99.2671 57.4059 99.2671 60.5606C99.2671 63.7153 101.834 66.2727 105 66.2727V88.7273H23.8843C23.8843 87.5307 22.9143 86.5606 21.7176 86.5606H14V77.303H20.7213C21.9223 77.303 22.8959 76.333 22.8959 75.1364C22.8959 73.9397 21.9223 72.9697 20.7213 72.9697H14V46.9697H20.7213C21.9223 46.9697 22.8959 45.9996 22.8959 44.803C22.8959 43.6064 21.9223 42.6364 20.7213 42.6364H14V35.1515Z" fill="white"/>
<rect x="43.5469" y="36.7266" width="52" height="47.2727" rx="2.36364" fill="#3D3D3D"/>
<g clip-path="url(#clip0_16332_27553)">
<path d="M50.6328 77.8977L52.1046 76.5118C52.614 77.0624 53.3562 77.3788 53.9914 77.3788C54.8782 77.3788 55.438 76.9738 55.5889 76.3726C55.6959 75.9549 55.2996 75.8473 54.6141 75.5182L53.57 75.031C52.7209 74.6513 51.9662 73.7969 52.3184 72.3604C52.6643 70.9429 54.2241 69.8164 56.0607 69.8164C57.1928 69.8164 58.2054 70.291 58.8217 71.0884L57.5324 72.3224C57.0481 71.8668 56.5449 71.6833 55.9286 71.6833C55.1738 71.6833 54.5889 72.0503 54.4443 72.6515C54.3436 73.0439 54.809 73.1768 55.5135 73.4995L56.5512 73.9551C57.5638 74.4108 58.0985 75.2271 57.7588 76.6257C57.4066 78.0369 55.9223 79.271 53.8153 79.271C52.5511 79.271 51.3938 78.771 50.6391 77.8977H50.6328Z" fill="white"/>
<path d="M60.7879 77.0064L59.7438 79.1011H57.4922L62.5489 69.9883H65.1528L65.7126 79.1011H63.4609V77.0064H60.7816H60.7879ZM63.4924 74.4498C63.4798 73.5448 63.5175 72.4563 63.5175 71.5261L63.4106 71.7222L61.9955 74.6459L61.6181 75.3167H63.4672L63.4924 74.4498Z" fill="white"/>
<path d="M66.75 71.7982L67.2028 69.9883H74.2848L73.832 71.7982H71.3728L69.574 79.0948H67.3978L69.1966 71.7982H66.75Z" fill="white"/>
<path d="M75.0066 77.0064L73.9626 79.1011H71.7109L76.774 69.9883H79.3778L79.9376 79.1011H77.686V77.0064H75.0066ZM77.7111 74.4498C77.6985 73.5448 77.7363 72.4563 77.7363 71.5261L77.6294 71.7222L76.2142 74.6459L75.8369 75.3167H77.686L77.7111 74.4498Z" fill="white"/>
</g>
<defs>
<clipPath id="clip0_16332_27553">
<rect width="29.3091" height="9.45455" fill="white" transform="translate(50.6328 69.8164)"/>
</clipPath>
</defs>
</svg>
