<svg width="120" height="120" viewBox="0 0 120 120" fill="none" xmlns="http://www.w3.org/2000/svg">
<rect x="1" y="1" width="118" height="118" rx="14" stroke="#A3A3A3" stroke-width="2"/>
<path d="M20.1792 39.0112C24.2021 34.9373 28.2249 30.8635 32.2478 26.7947C32.3117 26.7308 32.3756 26.6669 32.4447 26.608C32.9331 26.1706 33.0965 26.1704 33.5988 26.5858C33.8972 26.833 34.1751 27.1058 34.499 27.3172C34.9148 27.5898 35.2597 27.4998 35.6458 27.0984C35.9962 26.7276 36.0863 26.2857 35.8239 25.9159C35.6277 25.6379 35.3753 25.3957 35.1382 25.1484C34.6998 24.6946 34.6747 24.3678 35.1223 23.91C36.2118 22.795 37.3089 21.6826 38.4239 20.5931C39.1323 19.9 39.4157 19.8817 40.1296 20.5649C41.4477 21.8267 42.7224 23.1321 44.0124 24.4221C44.1169 24.5266 44.2163 24.6362 44.3871 24.8173C44.6199 24.5539 44.8246 24.2931 45.0547 24.063C45.7171 23.3904 46.3759 23.374 47.0413 24.0394C49.476 26.469 51.8978 28.9113 54.33 31.3434C69.3867 46.4001 84.4459 61.4594 99.5026 76.516C99.8518 76.8653 100.214 77.2018 100.538 77.5715C101.088 78.1988 101.121 78.6558 100.555 79.272C99.5041 80.4202 98.4223 81.5479 97.3175 82.6476C95.737 84.2281 94.1183 85.7703 92.5251 87.338C92.2975 87.5656 92.1646 87.6067 91.9302 87.3211C90.9159 86.0868 89.3076 85.8595 87.9376 86.7247C86.5855 87.5822 85.9648 89.3859 86.6393 90.7254C86.8939 91.2305 87.335 91.646 87.7835 92.2224C87.3692 92.5958 86.8988 92.9898 86.4666 93.4169C84.3696 95.4986 82.2827 97.5906 80.1908 99.6774C79.9683 99.8999 79.7382 100.115 79.4978 100.319C78.7691 100.936 78.2636 100.926 77.5829 100.251C75.7804 98.4587 73.9882 96.6563 72.1909 94.8589C56.53 79.1981 40.8717 63.5397 25.2108 47.8788C24.8411 47.5092 24.4612 47.1497 24.1044 46.7673C23.5589 46.1809 23.5751 45.5731 24.1352 44.9875C24.3705 44.742 24.6237 44.5093 24.8283 44.3098C23.2631 42.6474 21.7183 41.0055 20.1761 39.3661L20.1767 39.0086L20.1792 39.0112ZM90.0456 76.0559C89.8519 75.7958 89.7093 75.5509 89.5156 75.3571C88.1363 73.9881 86.7392 72.637 85.3651 71.2629C81.2274 67.1355 77.0974 62.9952 72.9648 58.8627C67.4148 53.3127 61.8597 47.7678 56.3148 42.2126C53.9082 39.8009 51.5246 37.3611 49.1282 34.9391C48.5087 34.3145 48.4321 34.3095 47.872 34.8696C43.5322 39.2044 39.1923 43.5391 34.8575 47.879C34.2309 48.5056 34.2409 48.6332 34.8655 49.263C45.5067 59.9143 56.1452 70.5682 66.7889 81.217C69.6748 84.1029 72.5658 86.9837 75.4594 89.862C75.8316 90.2342 76.0155 90.2288 76.4118 89.8834C76.5141 89.7965 76.6036 89.6916 76.6982 89.597C78.1099 88.1649 79.514 86.7303 80.9334 85.3058C83.8232 82.4057 86.7233 79.5159 89.6132 76.6158C89.7666 76.4624 89.8767 76.2707 90.043 76.0534L90.0456 76.0559ZM26.0044 35.1898C25.4878 35.686 25.0377 36.1157 24.5109 36.6221C25.4211 37.4862 26.3263 38.3402 27.3563 39.3191C27.0214 39.5826 26.73 39.7618 26.5126 39.9996C26.2492 40.2885 26.0909 40.2479 25.8411 39.9777C25.0891 39.1694 24.3039 38.3944 23.4677 37.5378C22.9458 38.1668 22.4828 38.7267 22.0198 39.2815C23.2435 40.4899 24.5922 41.8181 25.9434 43.1488C31.6975 37.3794 37.49 31.5767 43.28 25.7714C43.2698 25.751 43.2622 25.7178 43.2444 25.7C42.1456 24.6012 41.0442 23.4998 39.948 22.3985C39.2801 21.7306 39.303 21.7535 38.6203 22.3802C38.2725 22.6973 38.3361 22.8734 38.6318 23.1538C39.4273 23.9135 40.1997 24.7013 40.9569 25.4533C40.5963 25.8241 40.2792 26.1515 39.8674 26.5785C39.1128 25.7881 38.3557 25.0054 37.6114 24.21C37.3896 23.9728 37.2085 23.848 36.9017 24.1038C36.6 24.3545 36.5946 24.5486 36.829 24.8444C37.2088 25.3213 37.4683 25.8775 37.4239 26.4981C37.2959 28.3597 35.415 29.4095 33.7438 28.5772C33.4504 28.4321 33.1164 28.1135 32.8814 28.1751C32.58 28.2573 32.3649 28.6457 32.1117 28.904C32.0605 28.9552 32.0119 29.014 31.9199 29.1112C32.8402 30.0111 33.7529 30.9033 34.607 31.742C34.2361 32.1384 33.919 32.4708 33.63 32.7802C32.7351 31.9161 31.8326 31.0493 30.8102 30.0628C30.4444 30.4795 30.099 30.9167 29.7103 31.3054C29.4622 31.5535 29.4441 31.7144 29.7042 31.9591C30.3543 32.5786 30.9738 33.2287 31.6214 33.8456C31.7871 34.0062 32.0142 34.1054 32.1698 34.2048C31.7145 34.6855 31.3974 35.018 31.0291 35.4015C30.1394 34.4965 29.2573 33.594 28.2911 32.6124C27.9023 33.0369 27.5519 33.4485 27.1657 33.8245C26.9407 34.0444 26.9813 34.1772 27.1802 34.3709C27.708 34.8782 28.2204 35.4008 28.743 35.9184C29.0438 36.2192 29.3574 36.5123 29.6608 36.8004C29.3795 37.0868 29.1468 37.3042 28.9447 37.542C28.7196 37.8079 28.5562 37.8133 28.3038 37.5455C27.5493 36.7399 26.7589 35.9649 25.9941 35.1898L26.0044 35.1898ZM48.5959 30.8213C48.5983 29.2842 47.6041 28.2542 46.118 28.2565C44.6115 28.2589 43.5323 29.3585 43.5375 30.8829C43.5404 32.3332 44.6112 33.3682 46.0691 33.4042C47.4683 33.4378 48.7877 32.2356 48.5959 30.8213Z" fill="white"/>
<path d="M52.7055 58.4351C54.705 56.665 56.6892 54.9103 58.7117 53.1223C58.7908 53.186 58.8877 53.2472 58.9642 53.3236C59.5582 53.933 60.1368 54.5628 60.7538 55.1491C60.9935 55.3785 60.9881 55.5215 60.8218 55.7848C60.2356 56.7074 59.6775 57.648 59.1168 58.5859C59.0195 58.7495 58.9631 58.9334 58.8426 59.217C59.0445 59.1427 59.1517 59.1221 59.2386 59.0709C60.261 58.4463 61.2833 57.8216 62.2929 57.1791C62.528 57.0307 62.6684 57.0483 62.8596 57.2498C63.5147 57.9458 64.1852 58.6214 64.9067 59.3684C63.175 61.3245 61.41 63.3138 59.6502 65.2979C59.0486 64.6656 58.4571 64.0487 57.8479 63.4087C58.6587 62.5469 59.5359 61.6136 60.4158 60.6777L60.3496 60.5603C60.1426 60.6398 59.9255 60.6938 59.7389 60.8038C58.847 61.3287 57.9627 61.8612 57.086 62.4115C56.8738 62.5472 56.7437 62.5244 56.5856 62.3561C56.3103 62.0604 56.0401 61.7595 55.7367 61.4919C55.5098 61.2905 55.5177 61.1296 55.6713 60.8792C56.2831 59.8849 56.8719 58.878 57.4684 57.8736C57.4864 57.8403 57.4941 57.7969 57.4381 57.6745C57.2259 57.8356 56.9985 57.9815 56.8041 58.1606C56.1086 58.8 55.4284 59.4548 54.7277 60.0891C54.6485 60.1633 54.4212 60.2019 54.3702 60.1509C53.8093 59.5952 53.2689 59.019 52.7055 58.4351Z" fill="white"/>
<path d="M47.6742 46.7103C48.4311 46.0146 49.2417 45.2703 50.0523 44.526C50.5698 45.0588 51.1332 45.6427 51.694 46.2189C49.8629 48.0499 47.9909 49.922 46.0678 51.8451C45.5707 51.3327 45.0608 50.833 44.5841 50.3052C44.4975 50.2083 44.4876 49.9938 44.5133 49.8508C44.7271 48.6631 44.9537 47.478 45.1751 46.3235C44.4156 47.0422 43.628 47.7891 42.802 48.5691C42.2667 47.9878 41.7212 47.3963 41.1936 46.8226C43.0119 44.9941 44.8839 43.1067 46.7508 41.2296C47.2735 41.7318 47.8064 42.2289 48.3086 42.7516C48.3927 42.8357 48.3694 43.063 48.341 43.2137C48.1221 44.4013 47.893 45.5839 47.6717 46.7129L47.6742 46.7103Z" fill="white"/>
<path d="M51.498 53.336C51.7127 53.2182 51.935 53.1131 52.1445 52.98C53.328 52.2198 54.5139 51.4622 55.6871 50.6867C55.9683 50.5024 56.1317 50.5123 56.356 50.7724C56.8224 51.3156 57.3323 51.8152 57.8319 52.3455C56.4646 53.1724 55.0563 54.0249 53.6506 54.8748C52.8072 55.3868 51.9561 55.8912 51.1204 56.4159C50.9006 56.5542 50.7652 56.5416 50.5842 56.3555C49.8628 55.6187 49.1183 54.9049 48.3994 54.1656C48.3153 54.0814 48.2646 53.8466 48.3209 53.7546C49.6701 51.5081 51.0345 49.2717 52.3964 47.0379C52.4169 47.0021 52.4604 46.9842 52.5626 46.9023C53.1107 47.4658 53.6665 48.0266 54.1941 48.6105C54.2604 48.6819 54.2217 48.9195 54.15 49.0268C53.3182 50.3074 52.4685 51.5752 51.6264 52.8506C51.542 52.9759 51.483 53.1164 51.4087 53.2518C51.4368 53.2799 51.4648 53.3079 51.4929 53.336L51.498 53.336Z" fill="white"/>
<path d="M65.8224 68.9554C65.5588 69.3312 65.29 69.7427 64.9881 70.1313C64.9216 70.2131 64.6841 70.2671 64.605 70.2136C63.5413 69.5131 62.5263 68.764 61.8207 67.6646C61.2017 66.6978 61.216 65.7505 61.8277 64.8073C62.3729 63.9664 63.043 63.2453 63.9808 62.8276C64.7397 62.4868 65.4852 62.5112 66.2174 62.9212C67.2353 63.4941 67.9898 64.3304 68.5602 65.3304C68.96 66.0269 68.8414 66.7063 68.289 67.3046C68.1381 67.4708 67.9795 67.6294 67.8133 67.7803C67.2073 68.3149 66.5075 68.4335 65.8238 68.0311C65.2396 67.6873 64.7348 67.2081 64.1916 66.7927C64.0156 66.6577 63.8987 66.3004 63.5867 66.6175C63.2798 66.9346 63.5783 67.1103 63.767 67.2683C64.4351 67.8341 65.1185 68.3795 65.8275 68.9554L65.8224 68.9554ZM64.8523 65.5609C65.143 65.7954 65.4924 66.0783 65.8494 66.3586C65.8647 66.3739 65.9337 66.3406 65.9695 66.315C66.1561 66.1692 66.3555 66.031 66.5166 65.8596C66.5755 65.8008 66.5911 65.6067 66.5427 65.5532C66.3107 65.3059 66.0736 65.0484 65.793 64.8649C65.5354 64.6943 64.83 65.155 64.8523 65.5609Z" fill="white"/>
<path d="M74.213 80.122C75.3639 78.9507 76.4713 77.8178 77.5914 76.6977C77.6553 76.6337 77.8902 76.6334 77.9514 76.6946C78.6066 77.3702 79.2643 78.0432 79.8683 78.7598C80.3526 79.331 80.4204 80.0229 79.9471 80.6185C79.4789 81.2091 78.9342 81.7538 78.3462 82.2297C77.73 82.7285 77.0177 82.6965 76.4134 82.174C75.6484 81.5113 74.9294 80.7975 74.2104 80.1245L74.213 80.122ZM76.0844 80.3003C76.3827 80.5782 76.5993 80.8255 76.8671 81.0013C76.9921 81.0853 77.2832 81.1002 77.3803 81.0183C77.8483 80.6065 78.2907 80.159 78.7025 79.6911C78.7844 79.599 78.7593 79.2977 78.6676 79.1906C78.456 78.9433 78.178 78.7573 77.9204 78.556C77.9077 78.5433 77.8182 78.6072 77.7773 78.6482C77.2326 79.1776 76.693 79.707 76.0843 80.3054L76.0844 80.3003Z" fill="white"/>
<path d="M73.4345 72.215C73.092 72.4658 72.8389 72.6781 72.5603 72.8394C72.4862 72.8829 72.2923 72.8066 72.2132 72.7276C71.9022 72.4063 71.6296 72.0467 71.3083 71.7357C71.2115 71.6389 70.9995 71.6571 70.8412 71.6216C70.8538 71.7824 70.8177 71.9714 70.889 72.099C71.0571 72.3949 71.3018 72.6499 71.4724 72.9432C71.913 73.7009 71.8048 74.2577 71.1246 74.8971C70.4674 75.5186 69.8774 75.6396 69.2093 75.084C68.5157 74.508 67.9372 73.7965 67.3229 73.131C67.2719 73.08 67.3257 72.9293 67.3387 72.8246C67.3413 72.8016 67.3847 72.7888 67.4051 72.7683C68.0521 72.157 68.0444 72.1647 68.6179 72.8303C68.8906 73.1439 69.1838 73.4473 69.5025 73.7149C69.6045 73.8015 69.8114 73.7629 69.9723 73.7805C69.9521 73.6325 69.9779 73.4537 69.904 73.3389C69.7232 73.0507 69.4759 72.8034 69.2874 72.5177C68.8645 71.8698 68.8984 71.4433 69.3819 70.8476C69.4305 70.7888 69.474 70.73 69.5303 70.6789C70.5914 69.7248 70.9948 69.7446 71.9536 70.5857C72.4865 71.0521 72.9146 71.6336 73.4345 72.215Z" fill="white"/>
<path d="M70.6689 76.4444C70.7763 76.3472 70.8505 76.273 70.9323 76.2116C71.1726 76.0376 71.4154 75.8662 71.6378 75.71C72.0558 76.1894 72.4508 76.6459 72.8459 77.1023C73.1084 77.4057 73.3586 77.4411 73.5993 77.0117C73.3699 76.7415 73.1201 76.4661 72.8908 76.1805C72.3454 75.5021 72.3847 74.8612 73.0037 74.1708C73.7045 73.3934 74.3687 73.2137 75.0726 73.7794C75.7254 74.3044 76.2682 74.97 76.9056 75.6124C76.5323 75.9296 76.2459 76.1752 75.934 76.4412C75.5567 76.0231 75.2101 75.6355 74.8634 75.2479C74.7054 75.0694 74.5346 74.9089 74.2993 75.1288C74.0641 75.3488 74.286 75.5042 74.4006 75.6598C74.579 75.8995 74.7778 76.1239 74.9434 76.3713C75.3153 76.9222 75.3195 77.5299 74.8897 78.0311C74.6109 78.3507 74.2504 78.6143 73.885 78.837C73.5502 79.0392 73.1954 78.9198 72.8715 78.7186C71.9659 78.1506 71.3212 77.3319 70.6715 76.4418L70.6689 76.4444Z" fill="white"/>
<path d="M46.061 31.8721C45.558 31.8601 45.0609 31.3017 45.0847 30.7782C45.1059 30.3083 45.6353 29.7943 46.0897 29.7987C46.6081 29.8055 47.1613 30.3383 47.1529 30.826C47.147 31.352 46.5895 31.884 46.061 31.8721Z" fill="white"/>
</svg>
