<svg width="32" height="32" viewBox="0 0 32 32" fill="none" xmlns="http://www.w3.org/2000/svg">
<g clip-path="url(#clip0_16096_46602)">
<path d="M26.1757 20.038L25.8564 19.7411C24.8937 19.1105 24.4301 17.9455 24.6948 16.8255C25.2451 12.1784 21.9545 7.95341 17.3162 7.35006C12.5431 6.61513 8.07651 9.8886 7.34009 14.664C6.60528 19.4378 9.87824 23.9051 14.6529 24.6417C15.6268 24.7925 16.6199 24.7765 17.589 24.5951C18.1521 24.4347 18.7553 24.6337 19.1147 25.0958C19.434 25.4151 19.8207 25.6879 20.2763 26.0987C19.2415 26.6715 18.72 27.8654 19.0008 29.0143C19.0008 30.1536 18.8644 31.2929 17.7702 31.6106C16.591 32.1819 15.2048 32.1209 14.0801 31.4518C13.5876 30.9768 13.2475 30.367 13.1015 29.6979C13.0293 29.1539 13.0293 28.6019 13.1015 28.058C13.1336 27.2412 12.6378 26.4982 11.8709 26.2126C11.1008 25.8275 10.1686 26.0056 9.59266 26.6459C9.18194 27.0326 8.8418 27.4209 8.40862 27.8076C7.71071 28.5554 6.5748 28.6902 5.72126 28.127C5.02335 27.6103 4.40085 26.9973 3.87621 26.3041C3.38045 25.436 3.51041 24.3448 4.19549 23.6163C4.53722 23.2055 4.97041 22.8653 5.35707 22.4546C6.14482 21.6779 6.15445 20.4086 5.37632 19.6192C5.05865 19.2982 4.64311 19.0928 4.19549 19.0367H2.28305C1.10382 19.1153 0.0834284 18.2215 0.00481318 17.0421C-0.00160439 16.9474 -0.00160439 16.8527 0.00481318 16.7597V15.484C0.00481318 14.226 1.02521 13.2054 2.28305 13.2054H3.83129C4.64151 13.2102 5.3683 12.7096 5.65388 11.9522C6.03091 11.1675 5.82394 10.2272 5.15331 9.67358L4.1281 8.64822C3.97408 8.49577 3.8361 8.32729 3.71738 8.14757C3.14782 6.91681 3.581 5.57372 5.28808 4.1841C6.16728 3.34488 7.55187 3.34488 8.43108 4.1841C8.8418 4.52589 9.206 4.93507 9.61512 5.34586C10.212 5.95081 11.1297 6.10646 11.8934 5.73258C12.6218 5.45016 13.0886 4.7361 13.0549 3.95624V2.22484C13.1079 1.1417 13.9181 0.244708 14.9914 0.0842437C15.7471 -0.0280812 16.514 -0.0280812 17.2697 0.0842437C18.3013 0.350614 19.012 1.29735 18.9784 2.36283V4.16164C18.9912 4.97519 19.5094 5.69407 20.2763 5.96044C21.0641 6.30544 21.9834 6.10325 22.5545 5.45979L23.238 4.63982C23.4033 4.46331 23.5781 4.29482 23.761 4.13917C24.9916 3.20527 26.3345 3.61606 27.8153 5.30093C28.6721 6.222 28.6191 7.66297 27.6982 8.51984C27.6838 8.53268 27.6709 8.54552 27.6565 8.55836C27.2506 8.92742 26.8704 9.32377 26.5174 9.74258C25.9222 10.3491 25.7938 11.2734 26.1981 12.0212C26.527 12.7368 27.2554 13.1861 28.0432 13.1605H29.6604C30.8107 13.1508 31.7878 14.0013 31.9386 15.1422C32.0205 15.8081 32.0205 16.4805 31.9386 17.1464C31.7894 18.2873 30.8123 19.1378 29.6604 19.1281H28.5213C27.6308 18.9741 26.7276 19.3239 26.1757 20.0396V20.038Z" fill="#65D80D"/>
<path d="M28.3315 25.1363C26.4688 23.2618 24.606 21.4099 22.6968 19.5581C22.3303 19.294 22.1975 18.8076 22.3783 18.3922C23.505 15.5918 22.564 12.3792 20.1059 10.6432C18.5536 9.52081 16.5644 9.20679 14.7448 9.79779C15.4618 10.5981 16.2203 11.3614 17.0173 12.0845C17.1533 12.1988 17.2781 12.326 17.3934 12.4629C18.5088 13.7947 18.3407 15.785 17.0173 16.9074C16.9261 17.0057 16.8284 17.0991 16.726 17.1844C15.3754 18.3149 13.3702 18.1297 12.2467 16.7706L9.97428 14.4839L9.65582 14.6675C9.16292 16.9332 9.88786 19.294 11.5634 20.885C13.2821 22.6338 15.8554 23.2151 18.1519 22.3713C18.6384 22.1346 19.2225 22.2666 19.5602 22.6918C21.4229 24.5888 23.2857 26.4857 25.1949 28.3151C25.2765 28.4278 25.3709 28.5325 25.475 28.6259C26.3055 29.3779 27.5842 29.3103 28.3299 28.4745C28.4755 28.3618 28.6052 28.2313 28.7156 28.0864C29.4181 27.1653 29.2453 25.8448 28.3299 25.1379L28.3315 25.1363ZM26.7872 27.9028C26.1567 27.89 25.651 27.3714 25.651 26.737C25.6878 26.1331 26.1855 25.6612 26.7872 25.6629C26.8256 25.6596 26.8656 25.658 26.9056 25.6596C27.4834 25.6741 27.9378 26.1572 27.9234 26.737C27.9234 26.745 27.9234 26.7531 27.9234 26.7595C27.9234 27.3907 27.4145 27.9028 26.7872 27.9028Z" fill="#3DA700"/>
</g>
<defs>
<clipPath id="clip0_16096_46602">
<rect width="32" height="32" fill="white"/>
</clipPath>
</defs>
</svg>
