<svg width="32" height="32" viewBox="0 0 32 32" fill="none" xmlns="http://www.w3.org/2000/svg">
<g clip-path="url(#clip0_16096_46609)">
<path opacity="0.5" d="M20.8031 3.19971H11.2031C9.08138 3.19971 7.04656 4.04256 5.54627 5.54285C4.04598 7.04314 3.20313 9.07797 3.20313 11.1997V20.7997C3.20312 21.8503 3.41005 22.8905 3.81209 23.8611C4.21412 24.8317 4.8034 25.7137 5.54627 26.4565C7.04656 27.9568 9.08138 28.7997 11.2031 28.7997H20.8031C21.8537 28.7997 22.894 28.5927 23.8646 28.1907C24.8352 27.7887 25.7171 27.1994 26.4599 26.4565C27.2028 25.7137 27.7921 24.8317 28.1941 23.8611C28.5962 22.8905 28.8031 21.8503 28.8031 20.7997V11.1997C28.8031 10.1491 28.5962 9.10884 28.1941 8.13823C27.7921 7.16763 27.2028 6.28572 26.4599 5.54285C25.7171 4.79998 24.8352 4.21071 23.8646 3.80867C22.894 3.40663 21.8537 3.19971 20.8031 3.19971ZM24.4191 19.6157C24.4191 20.8887 23.9134 22.1096 23.0132 23.0098C22.113 23.91 20.8921 24.4157 19.6191 24.4157H12.3871C11.1141 24.4157 9.89318 23.91 8.993 23.0098C8.09283 22.1096 7.58712 20.8887 7.58712 19.6157V12.3837C7.58712 11.1107 8.09283 9.88976 8.993 8.98958C9.89318 8.08941 11.1141 7.5837 12.3871 7.5837H19.6031C20.8761 7.5837 22.097 8.08941 22.9972 8.98958C23.8974 9.88976 24.4031 11.1107 24.4031 12.3837V19.6157H24.4191Z" fill="#74BC1F"/>
<path d="M11.2976 1.2V3.19999H11.2016C10.4212 3.19712 9.64467 3.31036 8.89758 3.53599V1.2C8.89758 0.881739 9.02401 0.576514 9.24906 0.351471C9.4741 0.126428 9.77932 0 10.0976 0C10.4158 0 10.7211 0.126428 10.9461 0.351471C11.1712 0.576514 11.2976 0.881739 11.2976 1.2ZM17.2 1.2V3.19999H14.8V1.2C14.8021 0.882386 14.9292 0.578378 15.1538 0.353788C15.3784 0.129198 15.6824 0.00209651 16 0C16.3176 0.00209651 16.6216 0.129198 16.8462 0.353788C17.0708 0.578378 17.1979 0.882386 17.2 1.2ZM23.1184 1.2V3.53599C22.3658 3.31036 21.584 3.19714 20.7984 3.19999H20.7184V1.2C20.7205 0.882386 20.8476 0.578378 21.0722 0.353788C21.2967 0.129198 21.6008 0.00209651 21.9184 0C22.236 0.00209651 22.54 0.129198 22.7646 0.353788C22.9892 0.578378 23.1163 0.882386 23.1184 1.2ZM31.9983 10.0816C31.9998 10.2396 31.9698 10.3963 31.9101 10.5426C31.8503 10.6888 31.7619 10.8217 31.6502 10.9334C31.5385 11.0452 31.4056 11.1335 31.2593 11.1933C31.1131 11.2531 30.9564 11.2831 30.7984 11.2816H28.7984V11.2016C28.8012 10.4159 28.688 9.63415 28.4624 8.88159H30.7984C30.956 8.88137 31.1121 8.91227 31.2578 8.9725C31.4035 9.03273 31.5359 9.12111 31.6473 9.23259C31.7588 9.34406 31.8472 9.47643 31.9074 9.62212C31.9677 9.7678 31.9986 9.92394 31.9983 10.0816ZM31.9999 16C32.0002 16.1576 31.9693 16.3138 31.909 16.4594C31.8488 16.6051 31.7604 16.7375 31.6489 16.849C31.5375 16.9604 31.4051 17.0488 31.2594 17.1091C31.1137 17.1693 30.9576 17.2002 30.8 17.2H28.8V14.8H30.8C30.958 14.7985 31.1147 14.8285 31.2609 14.8883C31.4072 14.948 31.5401 15.0364 31.6518 15.1481C31.7635 15.2598 31.8519 15.3927 31.9117 15.539C31.9714 15.6853 32.0014 15.842 31.9999 16ZM31.9983 21.9184C31.9986 22.076 31.9677 22.2321 31.9074 22.3778C31.8472 22.5235 31.7588 22.6559 31.6473 22.7674C31.5359 22.8788 31.4035 22.9672 31.2578 23.0274C31.1121 23.0877 30.956 23.1186 30.7984 23.1184H28.4624C28.688 22.3658 28.8012 21.584 28.7984 20.7984V20.7184H30.7984C30.9564 20.7169 31.1131 20.7469 31.2593 20.8067C31.4056 20.8664 31.5385 20.9548 31.6502 21.0665C31.7619 21.1782 31.8503 21.3111 31.9101 21.4574C31.9698 21.6036 31.9998 21.7604 31.9983 21.9184ZM23.1184 28.4624V30.7984C23.1163 31.116 22.9892 31.42 22.7646 31.6446C22.54 31.8692 22.236 31.9963 21.9184 31.9983C21.6008 31.9963 21.2967 31.8692 21.0722 31.6446C20.8476 31.42 20.7205 31.116 20.7184 30.7984V28.7984H20.7984C21.584 28.8012 22.3658 28.688 23.1184 28.4624ZM17.216 28.8V30.8C17.216 31.1182 17.0895 31.4234 16.8645 31.6485C16.6395 31.8735 16.3342 31.9999 16.016 31.9999C15.6977 31.9999 15.3925 31.8735 15.1674 31.6485C14.9424 31.4234 14.816 31.1182 14.816 30.8V28.8H17.216ZM11.2976 28.7984V30.7984C11.2976 31.1166 11.1712 31.4218 10.9461 31.6469C10.7211 31.8719 10.4158 31.9983 10.0976 31.9983C9.77932 31.9983 9.4741 31.8719 9.24906 31.6469C9.02401 31.4218 8.89758 31.1166 8.89758 30.7984V28.4624C9.64467 28.688 10.4212 28.8012 11.2016 28.7984H11.2976ZM3.53599 8.88159C3.31036 9.63415 3.19714 10.4159 3.19999 11.2016V11.2816H1.2C0.881739 11.2816 0.576514 11.1552 0.351471 10.9301C0.126428 10.7051 0 10.3998 0 10.0816C0 9.76332 0.126428 9.4581 0.351471 9.23306C0.576514 9.00801 0.881739 8.88159 1.2 8.88159H3.53599ZM3.19999 14.8V17.2H1.2C0.881739 17.2 0.576514 17.0735 0.351471 16.8485C0.126428 16.6235 0 16.3182 0 16C0 15.6817 0.126428 15.3765 0.351471 15.1514C0.576514 14.9264 0.881739 14.8 1.2 14.8H3.19999ZM3.53599 23.1184H1.2C0.881739 23.1184 0.576514 22.9919 0.351471 22.7669C0.126428 22.5418 0 22.2366 0 21.9184C0 21.6001 0.126428 21.2949 0.351471 21.0698C0.576514 20.8448 0.881739 20.7184 1.2 20.7184H3.19999V20.7984C3.19714 21.584 3.31036 22.3658 3.53599 23.1184ZM24.416 12.384V19.6C24.416 20.873 23.9102 22.0939 23.0101 22.9941C22.1099 23.8942 20.889 24.4 19.616 24.4H12.384C11.1109 24.4 9.89005 23.8942 8.98987 22.9941C8.0897 22.0939 7.58399 20.873 7.58399 19.6V12.384C7.58399 11.1109 8.0897 9.89005 8.98987 8.98987C9.89005 8.0897 11.1109 7.58399 12.384 7.58399H19.6C20.8744 7.5844 22.0967 8.08974 22.9993 8.98936C23.9019 9.88899 24.4113 11.1096 24.416 12.384Z" fill="#74BC1F"/>
</g>
<defs>
<clipPath id="clip0_16096_46609">
<rect width="32" height="32" fill="white"/>
</clipPath>
</defs>
</svg>
