<svg width="32" height="29" viewBox="0 0 32 29" fill="none" xmlns="http://www.w3.org/2000/svg">
<path d="M29.5114 7.60001C28.0864 8.70869 21.9612 13.4706 20.6631 14.4805L16 9.89917C17.7192 7.76522 20.8288 3.90306 23.1719 0.994096C24.1625 -0.236871 25.8949 -0.332434 27.0249 0.777056L31.9987 5.66529L29.5114 7.60001Z" fill="#A3A3A3"/>
<path d="M23.0021 27.757C21.8738 26.3568 17.0269 20.338 16 19.0625L20.6623 14.4804C23.448 16.6468 29.1273 21.0628 31.9419 23.2519C31.9748 23.277 31.9748 23.3191 31.9451 23.3482L26.9705 28.2365C25.9057 29.2828 24.1502 29.1824 23.2156 28.0219L23.0021 27.757Z" fill="#A3A3A3"/>
<path d="M2.48733 21.3612C3.91232 20.2525 10.0375 15.4906 11.3356 14.4807L15.9987 19.062C14.2671 21.2114 11.1246 25.114 8.77572 28.0311C7.84359 29.1883 6.09471 29.2855 5.03318 28.2416L0 23.2959L2.48733 21.3612Z" fill="#A3A3A3"/>
<path d="M9.00395 1.20434C10.1322 2.60456 14.9783 8.62334 16.0061 9.89885L11.3438 14.481C8.55807 12.3146 2.87874 7.89853 0.0642157 5.70951C0.0312491 5.68441 0.0312493 5.64229 0.0609193 5.61314L5.03559 0.724905C6.10041 -0.321417 7.85589 -0.220995 8.79049 0.939515L9.00395 1.20434Z" fill="#A3A3A3"/>
</svg>
