<svg width="32" height="32" viewBox="0 0 32 32" fill="none" xmlns="http://www.w3.org/2000/svg">
<path d="M29.5114 9.59952C28.0864 10.7082 21.9612 15.4701 20.6631 16.48L16 11.8987C17.7192 9.76473 20.8288 5.90258 23.1719 2.99361C24.1625 1.76264 25.8949 1.66708 27.0249 2.77657L31.9987 7.6648L29.5114 9.59952Z" fill="#65D80D"/>
<path d="M23.0021 29.7566C21.8738 28.3563 17.0269 22.3375 16 21.062L20.6623 16.4799C23.448 18.6463 29.1273 23.0624 31.9419 25.2514C31.9748 25.2765 31.9748 25.3186 31.9451 25.3477L26.9705 30.236C25.9057 31.2823 24.1502 31.1819 23.2156 30.0214L23.0021 29.7566Z" fill="#65D80D"/>
<path d="M2.48733 23.3607C3.91232 22.252 10.0375 17.4901 11.3356 16.4802L15.9987 21.0615C14.2671 23.2109 11.1246 27.1135 8.77572 30.0306C7.84359 31.1879 6.09471 31.285 5.03318 30.2411L0 25.2954L2.48733 23.3607Z" fill="#65D80D"/>
<path d="M9.00395 3.20385C10.1322 4.60407 14.9783 10.6228 16.0061 11.8984L11.3438 16.4805C8.55807 14.3141 2.87874 9.89804 0.0642157 7.70902C0.0312491 7.68392 0.0312493 7.64181 0.0609193 7.61265L5.03559 2.72442C6.10041 1.67809 7.85589 1.77852 8.79049 2.93903L9.00395 3.20385Z" fill="#65D80D"/>
</svg>
