<svg width="20" height="20" viewBox="0 0 20 20" fill="none" xmlns="http://www.w3.org/2000/svg">
<g clip-path="url(#clip0_19911_16999)">
<path d="M16.25 14.8867V14.9992C16.25 16.8867 14.6125 18.4367 12.5 18.6992V18.1242C12.5 17.7742 12.225 17.4992 11.875 17.4992H9.375C9.025 17.4992 8.75 17.7742 8.75 18.1242V19.3742C8.75 19.7242 9.025 19.9992 9.375 19.9992H11.875C14.9875 19.9992 17.5 17.7617 17.5 14.9992V14.8867" fill="#606367"/>
<path d="M17.5 14.8875C18.225 14.625 18.75 13.9375 18.75 13.125V10.625C18.75 9.8125 18.225 9.125 17.5 8.8625V8.75C17.5 4.6125 14.1375 1.25 10 1.25C5.8625 1.25 2.5 4.6125 2.5 8.75V8.8625C1.775 9.125 1.25 9.8125 1.25 10.625V13.125C1.25 14.1625 2.0875 15 3.125 15C4.1625 15 5 14.1625 5 13.125V10.625C5 9.8125 4.475 9.125 3.75 8.8625V8.75C3.75 5.3 6.55 2.5 10 2.5C13.45 2.5 16.25 5.3 16.25 8.75V8.8625C15.525 9.125 15 9.8125 15 10.625V13.125C15 13.9375 15.525 14.625 16.25 14.8875M3.75 13.125C3.75 13.475 3.475 13.75 3.125 13.75C2.775 13.75 2.5 13.475 2.5 13.125V10.625C2.5 10.275 2.775 10 3.125 10C3.475 10 3.75 10.275 3.75 10.625V13.125ZM17.5 13.125C17.5 13.475 17.225 13.75 16.875 13.75C16.525 13.75 16.25 13.475 16.25 13.125V10.625C16.25 10.275 16.525 10 16.875 10C17.225 10 17.5 10.275 17.5 10.625V13.125Z" fill="#606367"/>
</g>
<defs>
<clipPath id="clip0_19911_16999">
<rect width="20" height="20" fill="white"/>
</clipPath>
</defs>
</svg>
