<svg width="20" height="20" viewBox="0 0 20 20" fill="none" xmlns="http://www.w3.org/2000/svg">
<g clip-path="url(#clip0_19911_17002)">
<path d="M18.6907 18.0247H18.1156V11.5791C18.1156 11.2334 17.9427 10.7677 17.53 10.5948L12.3086 7.17978V1.83139L12.2521 1.71144C12.0158 1.12933 11.4972 0.836508 10.8586 0.952931L2.67021 3.39075C2.20452 3.56362 1.85878 4.02931 1.85878 4.55145V18.0247H1.27314C0.916817 18.0247 0.6875 18.3175 0.6875 18.6104C0.6875 18.9667 0.923873 19.196 1.27314 19.196H18.6907C19.047 19.196 19.2763 18.9596 19.2763 18.6104C19.2728 18.254 19.0364 18.0247 18.6907 18.0247ZM16.9479 11.5156V18.0247H12.3086V8.50982L16.9479 11.5156ZM3.00537 4.55145L11.1303 2.11363V18.0247H3.00537V4.55145Z" fill="#606367"/>
<path d="M8.8064 6.35156H5.32783C4.9715 6.35156 4.74219 6.58088 4.74219 6.9372C4.74219 7.29353 4.97856 7.52284 5.32783 7.52284H8.8064C9.16272 7.52284 9.39204 7.29353 9.39204 6.9372C9.39204 6.57735 9.15214 6.35156 8.8064 6.35156ZM8.8064 9.8266H5.32783C4.9715 9.8266 4.74219 10.063 4.74219 10.4122V10.4193C4.74219 10.7756 4.97856 11.0049 5.32783 11.0049H8.8064C9.16272 11.0049 9.39204 10.7686 9.39204 10.4193V10.4158V10.4122C9.39204 10.0559 9.15214 9.8266 8.8064 9.8266ZM8.8064 13.3158H5.32783C4.9715 13.3158 4.74219 13.5451 4.74219 13.9014V13.9085C4.74219 14.2648 4.97856 14.4941 5.32783 14.4941H8.8064C9.16272 14.4941 9.39204 14.2648 9.39204 13.9085V13.9049V13.9014C9.39204 13.5451 9.15214 13.3158 8.8064 13.3158ZM13.4527 13.9085C13.4527 14.2648 13.6891 14.4941 14.0384 14.4941H15.1991C15.5554 14.4941 15.7847 14.2648 15.7847 13.9085V13.9049V13.9014C15.7847 13.5451 15.5483 13.3158 15.1991 13.3158H14.0384C13.682 13.3158 13.4527 13.5451 13.4527 13.9014V13.9085Z" fill="#606367"/>
</g>
<defs>
<clipPath id="clip0_19911_17002">
<rect width="20" height="20" fill="white"/>
</clipPath>
</defs>
</svg>
