<svg width="20" height="20" viewBox="0 0 20 20" fill="none" xmlns="http://www.w3.org/2000/svg">
<g clip-path="url(#clip0_19911_16995)">
<g clip-path="url(#clip1_19911_16995)">
<path d="M10.8177 12.1085V12.1085H10.8244H16.9723V12.1085L16.9785 12.1085C16.9965 12.1083 17.0144 12.1117 17.0311 12.1186C17.0478 12.1254 17.0629 12.1355 17.0757 12.1482C17.0884 12.161 17.0985 12.1761 17.1053 12.1928C17.1121 12.2095 17.1155 12.2274 17.1153 12.2454H17.1153V12.2522V18.3986H17.1152L17.1153 18.4054C17.1155 18.4234 17.1121 18.4413 17.1053 18.458C17.0985 18.4747 17.0884 18.4898 17.0757 18.5026C17.0629 18.5153 17.0478 18.5254 17.0311 18.5322C17.0144 18.5391 16.9965 18.5425 16.9785 18.5423V18.5423H16.9723H10.8244V18.5422L10.8177 18.5423C10.7996 18.5425 10.7817 18.5391 10.765 18.5323C10.7483 18.5255 10.7332 18.5154 10.7204 18.5026C10.7076 18.4899 10.6976 18.4747 10.6908 18.458C10.6839 18.4413 10.6805 18.4234 10.6807 18.4054H10.6808V18.3986V12.2522H10.6808L10.6807 12.2454C10.6805 12.2274 10.6839 12.2095 10.6908 12.1928C10.6976 12.1761 10.7076 12.1609 10.7204 12.1482C10.7332 12.1354 10.7483 12.1253 10.765 12.1185C10.7817 12.1117 10.7996 12.1083 10.8177 12.1085ZM7.75789 9.32194L7.75789 9.3219H7.75115H1.60464V9.32187L1.5979 9.32194C1.57986 9.32213 1.56197 9.31872 1.54526 9.31191C1.52856 9.30509 1.51338 9.29501 1.50062 9.28226C1.48787 9.2695 1.47779 9.25433 1.47097 9.23762C1.46416 9.22092 1.46075 9.20302 1.46095 9.18499H1.46098V9.17825V3.03111H1.46101L1.46095 3.02494C1.46077 3.00691 1.46419 2.98903 1.47102 2.97234C1.47784 2.95565 1.48792 2.94049 1.50067 2.92775C1.51343 2.91501 1.5286 2.90494 1.54529 2.89813C1.56199 2.89132 1.57988 2.88792 1.59791 2.88811L1.59791 2.88815H1.60464H7.75115V2.88818L7.75788 2.88811C7.77591 2.88792 7.7938 2.89132 7.8105 2.89813C7.82719 2.90494 7.84236 2.91501 7.85512 2.92775C7.86787 2.94049 7.87795 2.95565 7.88477 2.97234C7.8916 2.98903 7.89502 3.00691 7.89484 3.02494L7.89481 3.02494V3.03111V9.17825H7.89477L7.89484 9.18499C7.89504 9.20302 7.89163 9.22092 7.88482 9.23762C7.878 9.25433 7.86792 9.2695 7.85517 9.28226C7.84241 9.29501 7.82723 9.30509 7.81053 9.31191C7.79383 9.31872 7.77593 9.32213 7.75789 9.32194ZM7.75789 18.5423L7.75789 18.5423H7.75115H1.60464V18.5422L1.5979 18.5423C1.57986 18.5425 1.56197 18.5391 1.54526 18.5323C1.52856 18.5255 1.51338 18.5154 1.50062 18.5026C1.48787 18.4899 1.47779 18.4747 1.47097 18.458C1.46416 18.4413 1.46075 18.4234 1.46095 18.4054H1.46098V18.3986V12.2522H1.46102L1.46095 12.2454C1.46075 12.2274 1.46416 12.2095 1.47097 12.1928C1.47779 12.1761 1.48787 12.1609 1.50062 12.1482C1.51338 12.1354 1.52856 12.1253 1.54526 12.1185C1.56197 12.1117 1.57986 12.1083 1.5979 12.1085L1.5979 12.1085H1.60464H7.75115V12.1086L7.75789 12.1085C7.77593 12.1083 7.79383 12.1117 7.81053 12.1185C7.82723 12.1253 7.84241 12.1354 7.85517 12.1482C7.86792 12.1609 7.878 12.1761 7.88482 12.1928C7.89163 12.2095 7.89504 12.2274 7.89484 12.2454H7.89481V12.2522V18.3986H7.89477L7.89484 18.4054C7.89504 18.4234 7.89163 18.4413 7.88482 18.458C7.878 18.4747 7.86792 18.4899 7.85517 18.5026C7.84241 18.5154 7.82723 18.5255 7.81053 18.5323C7.79383 18.5391 7.77593 18.5425 7.75789 18.5423ZM18.5086 6.03652L18.503 6.04188L18.4975 6.04737L14.1484 10.3958L14.1483 10.3957L14.1419 10.4024C14.1293 10.4154 14.1142 10.4257 14.0975 10.4328C14.0808 10.4398 14.0628 10.4435 14.0447 10.4435C14.0266 10.4435 14.0086 10.4398 13.9919 10.4328C13.9752 10.4257 13.9601 10.4154 13.9475 10.4024L13.9475 10.4023L13.9417 10.3966L9.60822 6.04881L9.60828 6.04875L9.60096 6.04164C9.58796 6.02901 9.57762 6.0139 9.57056 5.9972C9.5635 5.98051 9.55986 5.96256 9.55986 5.94444C9.55986 5.92631 9.5635 5.90837 9.57056 5.89167C9.57762 5.87497 9.58796 5.85986 9.60096 5.84723L9.601 5.84727L9.60681 5.84148L13.9546 1.50732L13.9547 1.50737L13.9617 1.50009C13.9744 1.48708 13.9895 1.47674 14.0062 1.46968C14.0229 1.46262 14.0408 1.45898 14.0589 1.45898C14.0771 1.45898 14.095 1.46262 14.1117 1.46968C14.1284 1.47674 14.1435 1.48708 14.1562 1.50009L14.1561 1.50013L14.1619 1.5059L18.4961 5.85432L18.5019 5.86021L18.508 5.86593C18.5567 5.91228 18.5558 5.99162 18.5086 6.03652Z" stroke="#606367" stroke-width="1.25"/>
</g>
</g>
<defs>
<clipPath id="clip0_19911_16995">
<rect width="20" height="20" fill="white"/>
</clipPath>
<clipPath id="clip1_19911_16995">
<rect width="20" height="20" fill="white"/>
</clipPath>
</defs>
</svg>
