<svg width="20" height="20" viewBox="0 0 20 20" fill="none" xmlns="http://www.w3.org/2000/svg">
<g clip-path="url(#clip0_19911_16774)">
<path d="M15.7363 19.0041C15.6979 19.0041 15.6671 19.0031 15.645 19.0019H3.97011C3.18804 19.0019 2.73787 18.6726 2.49795 18.3962C1.97218 17.7907 2.01441 16.9697 2.03812 16.7419V9.71986H3.28812V16.8275L3.28222 16.8643C3.26736 16.9893 3.26595 17.3775 3.44412 17.5793C3.48181 17.622 3.59652 17.7519 3.97013 17.7519H15.6949L15.7095 17.7535C15.7516 17.755 16.1454 17.762 16.3931 17.5278C16.5582 17.3717 16.6419 17.1135 16.6419 16.7605V9.71446H17.8919V16.7605C17.8919 17.6564 17.5355 18.174 17.2365 18.4504C16.6987 18.9477 16.0175 19.0041 15.7363 19.0041ZM2.6631 10.3064H0.742223C0.482633 10.3064 0.250094 10.146 0.157926 9.90333C0.0657777 9.66066 0.1332 9.3863 0.32734 9.214L9.55037 1.02864C9.78513 0.820285 10.138 0.818371 10.375 1.02421L19.7262 9.14513C19.9207 9.314 19.9916 9.58484 19.905 9.82734C19.8183 10.0698 19.5918 10.2344 19.3343 10.2418L17.2848 10.3006C17.2786 10.3008 17.2726 10.3009 17.2665 10.3009C16.9296 10.3009 16.6518 10.0327 16.6421 9.6938C16.6322 9.34876 16.9038 9.06103 17.2489 9.05112L17.6968 9.03827L9.96972 2.32775L2.38804 9.05644H2.6631C3.00828 9.05644 3.2881 9.33626 3.2881 9.68144C3.2881 10.0266 3.00828 10.3064 2.6631 10.3064ZM7.87113 18.3829C7.57988 18.3829 7.34379 18.1468 7.34379 17.8555V13.4445C7.34382 13.3494 7.36789 12.9581 7.73482 12.5852C8.18013 12.1326 8.93517 11.9031 9.97898 11.9031C11.0071 11.9031 11.7539 12.1357 12.1987 12.5946C12.5742 12.9818 12.5984 13.3896 12.5977 13.4978V17.8386C12.5977 18.1298 12.3616 18.3659 12.0703 18.3659C11.7791 18.3659 11.543 18.1298 11.543 17.8386V13.504C11.5395 13.4812 11.5175 13.3848 11.3864 13.2786C11.2386 13.1588 10.8591 12.9578 9.97896 12.9578C8.95802 12.9578 8.59521 13.2145 8.48662 13.3249C8.4333 13.3791 8.41091 13.4252 8.40152 13.4543C8.40009 13.4587 8.39912 13.4623 8.39845 13.465V17.8555C8.39847 18.1468 8.16238 18.3829 7.87113 18.3829Z" fill="#606367"/>
</g>
<defs>
<clipPath id="clip0_19911_16774">
<rect width="20" height="20" fill="white"/>
</clipPath>
</defs>
</svg>
