<svg width="20" height="20" viewBox="0 0 20 20" fill="none" xmlns="http://www.w3.org/2000/svg">
<g clip-path="url(#clip0_19911_16998)">
<path d="M4.0525 1.62305V4.77555H1.25V10.0105V15.2243C1.25 16.9668 2.6625 18.378 4.4025 18.378H15.5938C17.3375 18.378 18.7487 16.9655 18.7487 15.2243V14.3468V10.0105V4.77555V1.62305H4.0525ZM2.28 10.7555V5.78305H4.0525V13.9318C4.0525 15.5455 3.48625 16.123 3.03375 16.3243C2.56625 15.798 2.28 15.1068 2.28 14.3468V10.7555ZM17.6988 10.7555V14.3468C17.6988 15.993 16.3637 17.328 14.7187 17.328H5.2575C4.93 17.328 4.61625 17.2718 4.32375 17.1755C5.17625 16.428 5.06125 14.3468 5.06125 14.3468V13.363V5.78305H5.1275V4.77555H5.06125V2.67305H17.6988V10.7555Z" fill="#606367"/>
<path d="M6.48438 4.77539H15.9681V6.08914H6.48438V4.77539Z" fill="#606367"/>
<path d="M6.48438 7.64258H10.0006V8.51883H6.48438V7.64258Z" fill="#606367"/>
<path d="M11.0391 7.64258H15.9666V13.7788H11.0391V7.64258Z" fill="#606367"/>
<path d="M6.48438 9.39844H10.0006V10.2747H6.48438V9.39844Z" fill="#606367"/>
<path d="M6.48438 11.1309H10.0006V12.0059H6.48438V11.1309Z" fill="#606367"/>
<path d="M6.48438 12.9043H10.0006V13.7805H6.48438V12.9043Z" fill="#606367"/>
</g>
<defs>
<clipPath id="clip0_19911_16998">
<rect width="20" height="20" fill="white"/>
</clipPath>
</defs>
</svg>
