<svg width="20" height="20" viewBox="0 0 20 20" fill="none" xmlns="http://www.w3.org/2000/svg">
<g clip-path="url(#clip0_19911_17001)">
<path d="M18.118 8.40408C17.6522 7.50098 17.126 6.477 16.7669 5.53121C15.8176 3.00677 14.1856 0.421875 9.25758 0.421875C4.13404 0.421875 0.859375 4.87344 0.859375 7.93833C0.859375 10.6725 2.07892 12.6814 2.88248 14.0112C3.23448 14.5943 3.51181 15.053 3.50825 15.2983V19.1525C3.50825 19.3765 3.79625 19.5792 4.08781 19.5792C4.42558 19.5792 4.71004 19.437 4.71004 19.1561V15.2983C4.71004 14.829 4.33671 14.1286 3.85671 13.2397C3.10292 11.8317 2.06825 9.90812 2.06115 7.93833C2.04337 4.63523 5.63448 1.88323 8.80604 1.645V6.93923C7.45492 7.17744 6.45225 8.46454 6.45225 10.0005C6.45225 11.6183 7.68958 12.8343 9.33225 12.8343C9.92958 12.8343 10.502 12.6565 10.9962 12.3188L12.2656 13.2183C12.23 13.805 12.7278 14.3028 13.3074 14.3028C13.8834 14.3028 14.3527 13.8334 14.3527 13.261C14.3527 12.557 13.67 12.0663 13.0087 12.2654L11.846 11.4441C12.1411 10.9748 12.294 10.4414 12.294 9.88677C12.294 8.53921 11.3447 7.34454 10.0185 6.9961V1.66277C12.8665 1.8761 14.79 3.3481 15.59 5.92944C15.8105 6.65121 16.5287 7.93831 17.1047 8.97298C17.4816 9.6521 17.9082 10.4201 17.9367 10.5801C17.8478 10.7721 16.8558 11.2663 15.9776 11.6183L15.8745 11.6574V14.1214C15.8745 14.1428 15.8602 14.6476 15.3305 15.1881C14.8362 15.6965 13.6878 15.7285 13.6771 15.7285H12.3403V19.1525L12.3509 19.181C12.4078 19.3268 12.5891 19.5756 12.9056 19.5756C13.35 19.5756 13.5136 19.2983 13.542 19.149L13.5456 16.9339C13.9367 16.9445 14.9038 16.8948 15.8247 16.3116C17.0905 15.5081 17.0798 14.1712 17.0762 14.1143V12.4645C17.5314 12.3045 19.0389 11.7179 19.1349 10.8965C19.1776 10.4912 18.7971 9.72321 18.118 8.4041V8.40408ZM11.0851 9.89033C11.0851 10.8574 10.2958 11.6396 9.33225 11.6396C8.36515 11.6396 7.57581 10.8539 7.57581 9.89031C7.57581 8.92677 8.36158 8.14098 9.32871 8.14098C10.2958 8.14454 11.0851 8.92677 11.0851 9.89031V9.89033Z" fill="#606367"/>
</g>
<defs>
<clipPath id="clip0_19911_17001">
<rect width="20" height="20" fill="white"/>
</clipPath>
</defs>
</svg>
