<svg width="20" height="20" viewBox="0 0 20 20" fill="none" xmlns="http://www.w3.org/2000/svg">
<g clip-path="url(#clip0_19911_17000)">
<g clip-path="url(#clip1_19911_17000)">
<path d="M10.4523 8.25768H5.28455C5.15086 8.24323 5.02775 8.17823 4.94042 8.07599C4.85309 7.97374 4.80813 7.84198 4.81476 7.70768C4.80194 7.56958 4.84407 7.432 4.93201 7.32476C5.01995 7.21751 5.14662 7.14925 5.28455 7.13477H10.4523C10.5902 7.14925 10.7169 7.21751 10.8048 7.32476C10.8927 7.432 10.9349 7.56958 10.922 7.70768C10.9287 7.84198 10.8837 7.97374 10.7964 8.07599C10.7091 8.17823 10.5859 8.24323 10.4523 8.25768ZM14.2106 11.2254H5.28455C5.1522 11.1988 5.03314 11.1272 4.9476 11.0227C4.86207 10.9183 4.81533 10.7875 4.81533 10.6525C4.81533 10.5175 4.86207 10.3866 4.9476 10.2822C5.03314 10.1778 5.1522 10.1062 5.28455 10.0796H14.2106C14.3429 10.1062 14.462 10.1778 14.5475 10.2822C14.6331 10.3866 14.6798 10.5175 14.6798 10.6525C14.6798 10.7875 14.6331 10.9183 14.5475 11.0227C14.462 11.1272 14.3429 11.1988 14.2106 11.2254ZM14.2106 14.1931H5.28455C5.1522 14.1665 5.03314 14.0949 4.9476 13.9905C4.86207 13.886 4.81533 13.7552 4.81533 13.6202C4.81533 13.4852 4.86207 13.3544 4.9476 13.2499C5.03314 13.1455 5.1522 13.0739 5.28455 13.0473H14.2106C14.3429 13.0739 14.462 13.1455 14.5475 13.2499C14.6331 13.3544 14.6798 13.4852 14.6798 13.6202C14.6798 13.7552 14.6331 13.886 14.5475 13.9905C14.462 14.0949 14.3429 14.1665 14.2106 14.1931Z" fill="#333333"/>
<path d="M4.28385 0.833984C3.67607 0.833984 3.09317 1.07543 2.6634 1.5052C2.23363 1.93497 1.99219 2.51786 1.99219 3.12565V16.8756C1.99219 17.4834 2.23363 18.0663 2.6634 18.4961C3.09317 18.9259 3.67607 19.1673 4.28385 19.1673H15.7422C16.35 19.1673 16.9329 18.9259 17.3626 18.4961C17.7924 18.0663 18.0339 17.4834 18.0339 16.8756L18.1599 4.86732L14.2411 0.833984H4.28385ZM13.4505 1.97982L16.888 5.41732H14.012C13.9382 5.41732 13.8652 5.40279 13.7971 5.37458C13.729 5.34636 13.6671 5.30501 13.615 5.25287C13.5628 5.20073 13.5215 5.13884 13.4933 5.07072C13.465 5.0026 13.4505 4.92959 13.4505 4.85586V1.97982ZM15.7422 18.0215H4.28385C3.97996 18.0215 3.68851 17.9008 3.47363 17.6859C3.25874 17.471 3.13802 17.1795 3.13802 16.8756V3.12565C3.13802 2.82176 3.25874 2.53031 3.47363 2.31542C3.68851 2.10054 3.97996 1.97982 4.28385 1.97982H12.3047V5.41732C12.3047 5.72121 12.4254 6.01266 12.6403 6.22754C12.8552 6.44243 13.1466 6.56315 13.4505 6.56315H16.888V16.8756C16.888 17.1795 16.7673 17.471 16.5524 17.6859C16.3375 17.9008 16.0461 18.0215 15.7422 18.0215Z" fill="#333333"/>
</g>
</g>
<defs>
<clipPath id="clip0_19911_17000">
<rect width="20" height="20" fill="white"/>
</clipPath>
<clipPath id="clip1_19911_17000">
<rect width="18.3333" height="18.3333" fill="white" transform="translate(0.835938 0.833984)"/>
</clipPath>
</defs>
</svg>
