<svg width="32" height="32" viewBox="0 0 32 32" fill="none" xmlns="http://www.w3.org/2000/svg">
<g clip-path="url(#clip0_16096_46687)">
<g clip-path="url(#clip1_16096_46687)">
<path d="M3.72656 6.91637C3.72656 7.62863 4.30463 8.21701 5.02721 8.21701C5.74979 8.21701 6.32785 7.63895 6.32785 6.91637C6.32785 6.19379 5.74979 5.61572 5.02721 5.61572C4.30463 5.61572 3.72656 6.19379 3.72656 6.91637Z" fill="#3DA700"/>
<path d="M6.93677 13.6465L14.2039 20.9135C14.5961 20.769 15.009 20.6968 15.4219 20.6968C17.4039 20.6968 19.0039 22.3071 19.0039 24.2787C19.0039 26.2503 17.3935 27.8606 15.4219 27.8606C13.4503 27.8606 11.84 26.2503 11.84 24.2787C11.84 23.5665 12.0465 22.9058 12.4077 22.3484L5.99742 15.9381H0.0206452V22.7613H5.94581C7.41161 22.7613 8.60903 23.9587 8.60903 25.4245V32H22.1626L22.2039 21.0477C22.2039 20.9548 22.1729 20.8619 22.111 20.7897L17.569 15.6181C17.1458 15.1432 16.9187 14.5239 16.9084 13.8839L16.8774 9.56903C15.4632 9.08387 14.4516 7.75226 14.4516 6.1729C14.4516 4.19097 16.0619 2.59097 18.0335 2.59097C20.0052 2.59097 21.6155 4.20129 21.6155 6.1729C21.6155 7.75226 20.5832 9.10452 19.1587 9.57935L19.1897 13.8632C19.1897 13.9458 19.2206 14.0387 19.2826 14.1006L23.8245 19.2723C24.2581 19.7574 24.4955 20.3974 24.4852 21.0477L24.4439 31.9897H28.1084V18.7665C28.1084 17.2903 29.3058 16.0929 30.7819 16.0929H31.6697V13.089H26.2916C24.8155 13.089 23.6181 11.8916 23.6181 10.4155V0H12.2632V5.37806C12.2632 6.85419 11.0658 8.05161 9.58968 8.05161H8.42323C7.94839 9.46581 6.60645 10.4981 5.0271 10.4981C3.04516 10.4981 1.44516 8.88774 1.44516 6.91613C1.44516 4.94452 3.05548 3.33419 5.0271 3.33419C6.60645 3.33419 7.94839 4.35613 8.42323 5.78064H9.58968C9.80645 5.78064 9.98194 5.60516 9.98194 5.38839V0H1.52774C0.691613 0 0 0.691613 0 1.52774V13.6568H6.93677V13.6465Z" fill="#65D80D"/>
<path d="M25.9102 10.4258C25.9102 10.6323 26.0856 10.8077 26.2921 10.8077H32.0005V1.52774C32.0005 0.691613 31.3089 0 30.4727 0H25.9102V10.4258Z" fill="#65D80D"/>
<path d="M18.0233 4.89307C17.311 4.89307 16.7227 5.47113 16.7227 6.19371C16.7227 6.91629 17.3007 7.49436 18.0233 7.49436C18.7459 7.49436 19.3239 6.91629 19.3239 6.19371C19.3239 5.47113 18.7459 4.89307 18.0233 4.89307Z" fill="#3DA700"/>
<path d="M30.7804 18.395C30.5636 18.395 30.3984 18.5705 30.3984 18.777V32.0002H30.4707C31.3068 32.0002 31.9984 31.3086 31.9984 30.4724V18.395H30.7804Z" fill="#65D80D"/>
<path d="M16.7107 24.2889C16.7107 23.5767 16.1326 22.9883 15.41 22.9883C14.6874 22.9883 14.1094 23.5663 14.1094 24.2889C14.1094 25.0115 14.6874 25.5896 15.41 25.5896C16.1326 25.5896 16.7107 25.0115 16.7107 24.2889Z" fill="#3DA700"/>
<path d="M6.31742 25.4243C6.31742 25.2179 6.15226 25.0527 5.94581 25.0527H0V30.4824C0 31.3185 0.691613 32.0102 1.52774 32.0102H6.31742V25.4347V25.4243Z" fill="#65D80D"/>
</g>
</g>
<defs>
<clipPath id="clip0_16096_46687">
<rect width="32" height="32" fill="white"/>
</clipPath>
<clipPath id="clip1_16096_46687">
<rect width="32" height="32" fill="white"/>
</clipPath>
</defs>
</svg>
