<svg width="232" height="105" viewBox="0 0 232 105" fill="none" xmlns="http://www.w3.org/2000/svg">
<g clip-path="url(#clip0_11169_32015)">
<path d="M197.107 38.8369C184.913 38.5563 173.071 39.094 161.228 38.4862C157.857 38.3226 154.768 37.2472 152.006 35.2834C147.138 31.8468 142.223 28.5037 136.793 25.9321C136.887 25.4178 137.308 25.3009 137.589 25.1139C144.985 20.1577 152.381 15.2249 159.777 10.2687C160.455 9.82453 161.017 9.45048 161.977 9.87129C172.696 14.5469 182.315 20.8123 190.226 29.509C192.754 32.291 195.048 35.26 197.107 38.8369Z" fill="#EF3A32"/>
<path d="M189.692 62.8166C189.34 62.8166 188.989 62.7932 188.662 62.8166C186.274 63.0504 184.706 62.7932 183.419 59.9411C180.447 53.3484 170.195 53.3952 166.17 59.7307C163.595 63.7751 163.338 68.3105 163.853 72.916C164.063 74.8096 164.578 76.6565 165.444 78.3631C167.995 83.2725 173.729 85.4934 178.878 83.4829C182.132 82.1971 183.817 79.5086 184.402 76.259C184.73 74.4355 185.408 73.968 187.164 74.1082C189.34 74.2719 191.564 74.2251 193.741 74.1082C195.051 74.0381 195.379 74.3654 195.215 75.698C193.904 86.4987 185.736 93.6057 174.829 93.3251C162.121 92.9745 153.203 84.044 152.805 71.3496C152.571 63.8218 154.327 57.0422 159.85 51.6184C167.48 44.1608 181.242 43.7867 189.177 50.8002C192.43 53.6757 194.162 57.3695 194.841 61.6009C194.981 62.4659 194.817 62.8633 193.811 62.8166C192.477 62.7464 191.072 62.8166 189.692 62.8166Z" fill="white"/>
<path d="M157.787 8.23281C153.645 10.3369 149.806 12.3006 145.945 14.2644C142.247 16.158 138.525 18.0283 134.827 19.9219C131.457 21.6519 127.923 22.0961 124.248 21.1376C118.537 19.6414 112.733 18.5894 106.835 18.3556C105.782 18.3088 105.758 17.9348 106.039 17.1165C107.724 12.137 109.386 7.15742 111.025 2.17786C111.305 1.33624 111.75 1.05571 112.639 1.00895C126.402 0.167335 145.242 3.13637 157.787 8.23281Z" fill="#F3C11D"/>
<path d="M199.332 69.6455C199.332 62.5853 199.356 55.5484 199.309 48.4882C199.309 47.2258 199.566 46.7816 200.924 46.8518C203.405 46.9686 205.909 46.9686 208.39 46.8518C209.818 46.7816 210.216 47.1557 210.216 48.6285C210.145 59.5461 210.216 70.4637 210.145 81.4047C210.145 82.8308 210.473 83.2282 211.924 83.2049C218.056 83.1113 224.188 83.2049 230.32 83.1347C231.491 83.1347 231.935 83.3451 231.865 84.6309C231.748 86.7583 231.795 88.9091 231.842 91.0366C231.865 91.9249 231.725 92.3691 230.648 92.3691C220.584 92.3223 210.52 92.3223 200.432 92.3691C199.262 92.3691 199.309 91.808 199.309 90.9898C199.356 83.8594 199.332 76.7525 199.332 69.6455Z" fill="white"/>
<path d="M126.518 64.6903C130.403 59.1029 135.365 57.8405 141.169 59.2666C145.359 60.2952 148.12 63.498 148.355 67.7762C148.776 75.6313 148.448 83.4864 148.542 91.3414C148.542 92.0895 148.284 92.3701 147.535 92.3467C145.92 92.2999 144.282 92.2766 142.667 92.3701C141.591 92.4402 141.31 92.0895 141.31 91.0375C141.356 85.0293 141.333 79.0211 141.333 73.0129C141.333 72.1479 141.263 71.2829 141.169 70.418C140.888 67.7295 140.046 65.4852 137.027 64.7137C133.844 63.8954 130.684 64.8773 128.788 67.332C127.29 69.249 126.892 71.4934 126.892 73.8546C126.892 79.5121 126.845 85.1696 126.916 90.8505C126.939 92.0662 126.635 92.4636 125.394 92.3701C123.896 92.2532 122.375 92.2999 120.877 92.3701C119.988 92.3935 119.66 92.1597 119.66 91.2245C119.684 81.055 119.684 70.8855 119.66 60.716C119.66 59.8978 119.894 59.5938 120.737 59.6406C122.305 59.7107 123.873 59.7107 125.418 59.6406C126.424 59.5938 126.565 60.0147 126.518 60.8563C126.494 61.9083 126.518 63.0538 126.518 64.6903Z" fill="white"/>
<path d="M108.215 1.4262C104.985 6.40575 101.966 11.1515 98.7832 15.8272C97.5193 17.6974 95.4363 18.4221 93.2362 18.6325C87.0105 19.2404 80.9486 20.5729 75.0506 22.7004C73.9038 23.0978 73.3655 22.9809 72.7803 21.8354C71.3526 19.0066 69.8079 16.248 68.2398 13.4893C67.7249 12.601 67.7483 12.1802 68.7781 11.6892C79.1465 6.66291 90.0765 3.55361 101.498 2.05741C103.441 1.80025 105.383 1.61322 107.349 1.40282C107.513 1.35606 107.677 1.40282 108.215 1.4262Z" fill="#B4D540"/>
<path d="M35.4492 41.9206C42.3303 29.273 52.5348 20.5529 64.8926 13.7031C65.3841 16.8826 65.9692 19.875 66.25 22.8674C66.4373 24.948 65.4075 26.7014 63.5585 27.7768C57.8477 31.1199 52.605 35.0474 48.041 39.8867C46.824 41.1959 45.1856 41.8739 43.3835 41.8972C40.8557 41.9674 38.328 41.9206 35.4492 41.9206Z" fill="#46B631"/>
<path d="M223.487 50.1535C223.674 49.4755 223.932 48.7742 224.049 48.0728C224.212 47.0442 224.751 46.8104 225.71 46.8571C226.927 46.8805 226.553 47.7221 226.576 48.33C226.623 49.4755 226.6 50.6444 226.576 51.7899C226.576 52.2341 226.67 52.7251 225.944 52.7251C225.149 52.7484 225.149 52.2809 225.172 51.7198C225.195 50.9717 225.172 50.2236 224.938 49.4287C224.774 49.9197 224.657 50.434 224.446 50.9016C224.119 51.5328 224.564 52.7484 223.323 52.7017C222.27 52.6783 222.598 51.6029 222.317 50.9951C222.106 50.5041 221.966 49.9431 221.544 49.4755C221.544 50.1535 221.568 50.8548 221.544 51.5328C221.521 52.0705 221.755 52.7718 220.795 52.7251C219.812 52.6783 220.163 51.9302 220.14 51.4626C220.093 50.3639 220.117 49.2651 220.14 48.1897C220.14 47.5819 219.953 46.8805 221.006 46.9039C221.825 46.9039 222.48 46.9507 222.644 47.9325C222.785 48.6806 223.019 49.4287 223.206 50.1768C223.3 50.1301 223.393 50.1301 223.487 50.1535Z" fill="white"/>
<path d="M216.979 46.8489C217.33 46.8489 217.681 46.8021 218.009 46.8489C218.524 46.919 219.273 46.545 219.39 47.4334C219.53 48.4386 218.734 48.1347 218.219 48.1815C217.611 48.2282 217.658 48.649 217.658 49.0465C217.658 49.9582 217.634 50.8933 217.658 51.8051C217.681 52.4597 217.47 52.7402 216.792 52.7402C216.113 52.7402 216.066 52.3662 216.09 51.8518C216.113 51.1037 216.066 50.3556 216.09 49.6075C216.136 48.7425 216.16 47.9711 214.896 48.1815C214.475 48.2516 214.311 47.9711 214.334 47.5503C214.358 47.1528 214.475 46.8723 214.919 46.8723C215.598 46.8723 216.3 46.8723 216.979 46.8489C216.979 46.8723 216.979 46.8723 216.979 46.8489Z" fill="white"/>
<path d="M42.4015 61.0177C37.1588 44.7699 19.3945 42.8295 9.65807 49.9365C2.94087 54.8459 0.576978 61.8594 0.366334 69.8313C0.319524 72.9406 0.811027 75.9564 1.84084 78.8553C4.67283 86.7805 10.0794 91.9003 18.5285 93.116C26.8373 94.3083 34.1162 92.0172 39.1248 84.957C44.3441 77.6163 45.1165 69.4105 42.4015 61.0177ZM33.1332 80.7489C30.5118 85.6584 25.9479 87.4351 20.5647 86.8974C14.7837 86.3363 11.3666 82.7595 9.54105 77.4994C8.67507 74.9745 8.27718 72.3562 8.3474 70.5327C8.3708 65.6934 9.09635 61.8594 11.2262 58.4228C16.188 50.4274 28.2415 50.3105 32.9459 58.4461C37.1354 65.6934 37.0418 73.3614 33.1332 80.7489Z" fill="white"/>
<path d="M79.8957 68.0343C75.987 57.7246 62.8335 55.4101 55.6716 63.8964C55.6716 62.8911 55.578 62.0262 55.695 61.2079C55.9057 59.7585 55.2503 59.4546 53.9865 59.5714C52.7694 59.665 51.5524 59.6883 50.3353 59.5714C48.9544 59.4078 48.7672 59.9923 48.7672 61.2079C48.814 73.6919 48.7906 86.1758 48.7906 98.6598C48.7906 100.507 48.1586 102.961 49.0948 104.013C50.1481 105.229 52.6758 104.2 54.5482 104.411C55.7886 104.551 56.0695 104.107 56.0461 102.915C55.9759 98.0753 56.0227 93.2594 56.0227 88.0461C62.9739 96.2752 75.5892 94.4517 79.5914 84.9368C81.9319 79.3728 82.0255 73.6451 79.8957 68.0343ZM74.0678 75.8427C74.1147 77.9 73.8104 79.7468 73.1785 81.5703C71.8678 85.2407 68.872 87.485 65.1506 87.5785C61.5462 87.6487 58.41 85.568 56.9589 82.0145C55.3908 78.1805 55.3908 74.2529 56.7014 70.3722C58.0589 66.3979 60.6803 64.5042 64.6825 64.4341C68.4039 64.364 71.5401 66.4914 72.9678 70.0916C73.7168 71.9619 74.1381 73.9257 74.0678 75.8427Z" fill="white"/>
<path d="M92.6532 77.8075C96.2341 77.8543 99.815 77.8309 103.419 77.8309C106.883 77.8309 110.371 77.7374 113.835 77.8777C115.45 77.9478 115.871 77.34 115.754 75.9139C115.637 74.6515 115.613 73.3657 115.403 72.1266C113.741 61.8168 103.302 55.8554 93.8936 59.97C87.7849 62.6351 84.8827 67.7549 84.3444 74.1605C83.4316 84.9145 89.1424 93.6579 101.243 93.2371C107.796 93.0034 113.226 88.9823 114.864 83.3014C115.122 82.3897 115.075 82.0624 114.022 82.1091C112.524 82.1793 111.003 82.1793 109.505 82.1091C108.639 82.0624 108.171 82.3195 107.82 83.1611C107.094 84.9379 105.783 86.2237 103.981 86.9484C97.9427 89.333 91.951 85.5457 91.4829 79.0933C91.3893 78.1114 91.6467 77.8075 92.6532 77.8075ZM91.4829 72.0097C92.0212 67.5679 95.7192 64.3651 100.33 64.4586C104.356 64.5287 107.796 67.9653 108.217 72.2201C108.311 73.1319 107.96 73.1319 107.305 73.1319C104.824 73.1085 102.343 73.1319 99.8619 73.1319C97.4278 73.1319 95.017 73.1085 92.5829 73.1553C91.717 73.1553 91.3659 72.9916 91.4829 72.0097Z" fill="white"/>
</g>
<defs>
<clipPath id="clip0_11169_32015">
<rect width="231.498" height="103.752" fill="white" transform="translate(0.367188 0.867188)"/>
</clipPath>
</defs>
</svg>
