<svg width="121" height="120" viewBox="0 0 121 120" fill="none" xmlns="http://www.w3.org/2000/svg">
<rect width="120" height="120" transform="translate(0.5)" fill="white"/>
<circle cx="31.75" cy="73.75" r="17.5" fill="white"/>
<rect x="55.3477" y="32.8203" width="47.1095" height="47.819" rx="23.5548" fill="black"/>
<path d="M87.1368 59.6031V61.9691H70.7613V60.2724L80.9104 44.5663H83.2608L80.7391 49.1116L74.0302 59.6031H87.1368ZM83.9769 44.5663V67.2305H81.0972V44.5663H83.9769Z" fill="white"/>
<path d="M8 93.8144V86.3982C8 85.9431 8.37146 85.5714 8.82583 85.5971C15.4352 85.971 17.0802 90.8427 17.0951 93.8885C17.0972 94.3146 16.7378 94.6384 16.3117 94.6384H8.82401C8.36892 94.6384 8 94.2695 8 93.8144Z" fill="black"/>
<path d="M14.5938 55.0827V27.0662C14.5938 26.6111 14.9627 26.2422 15.4178 26.2422H111.003C111.459 26.2422 111.827 26.6111 111.827 27.0662V87.2193C111.827 87.6744 111.459 88.0433 111.003 88.0433H48.3783" stroke="black" stroke-width="4.94409"/>
<path d="M8.82422 63.3164C18.7124 64.1404 38.4887 71.3917 38.4887 93.8049" stroke="black" stroke-width="4.94409"/>
<path d="M8.82422 75.6797C14.867 75.405 26.9525 78.6461 26.9525 93.808" stroke="black" stroke-width="4.94409"/>
</svg>
